<?xml version="1.0" standalone="no"?>
<!DOCTYPE svg PUBLIC "-//W3C//DTD SVG 20010904//EN"
 "http://www.w3.org/TR/2001/REC-SVG-20010904/DTD/svg10.dtd">
<svg version="1.0" xmlns="http://www.w3.org/2000/svg"
 width="1536.000000pt" height="446.000000pt" viewBox="0 0 1536.000000 446.000000"
 preserveAspectRatio="xMidYMid meet">
<metadata>
Created by potrace 1.16, written by Peter Selinger 2001-2019
</metadata>
<g transform="translate(0.000000,446.000000) scale(0.100000,-0.100000)"
fill="#000000" stroke="none">
<path d="M5980 4437 c-36 -13 -81 -32 -100 -42 -49 -26 -191 -32 -295 -12
-146 28 -223 31 -295 12 -75 -21 -143 -53 -212 -100 -66 -46 -107 -51 -204
-25 -114 31 -309 39 -389 15 -93 -26 -213 -87 -290 -145 -99 -75 -114 -80
-262 -80 -252 0 -320 -25 -461 -167 -101 -100 -119 -112 -363 -224 l-127 -58
-78 25 c-74 24 -90 25 -254 22 -196 -3 -209 -7 -275 -77 -21 -22 -55 -68 -75
-103 l-37 -63 -52 1 c-47 2 -56 6 -101 48 -60 56 -100 74 -178 82 -101 10
-308 -52 -358 -107 -13 -15 -31 -19 -81 -19 l-63 0 0 104 c0 82 -3 108 -16
120 -8 9 -21 16 -27 16 -24 0 -135 -60 -252 -135 -226 -146 -350 -222 -374
-230 -13 -4 -39 -16 -58 -28 -20 -11 -74 -33 -121 -49 -275 -93 -372 -193
-497 -512 -104 -266 -109 -369 -22 -500 33 -49 38 -52 118 -76 72 -22 103 -25
224 -25 175 1 306 26 530 100 215 72 205 69 526 120 361 58 350 57 397 12 58
-56 177 -133 227 -147 39 -11 48 -10 71 5 14 9 37 42 51 72 l26 56 78 -7 c103
-8 260 -49 315 -81 25 -15 103 -91 181 -178 76 -84 179 -192 229 -242 71 -70
103 -111 144 -185 86 -154 148 -287 160 -343 12 -52 11 -55 -68 -292 -102
-303 -192 -591 -192 -610 0 -26 -119 -143 -158 -156 -72 -23 -126 -77 -138
-138 l-6 -31 53 0 c47 0 56 -3 64 -22 12 -26 25 -27 193 -7 100 12 103 11 125
-9 30 -28 54 -28 127 3 33 14 79 25 103 25 52 0 103 16 111 35 2 7 1 55 -4
107 -18 181 -15 201 36 297 66 121 113 188 218 308 118 135 160 193 201 273
66 130 78 214 50 345 -8 39 -15 94 -15 124 0 50 1 53 23 48 12 -4 132 -31 267
-61 299 -67 496 -102 655 -116 184 -16 597 -14 750 5 469 56 623 78 980 138
419 71 664 109 680 105 11 -2 24 -23 34 -58 10 -30 35 -89 56 -130 42 -80 127
-170 352 -377 143 -132 198 -204 213 -281 6 -31 20 -102 32 -157 42 -196 39
-231 -34 -310 -66 -72 -118 -102 -199 -114 -111 -15 -219 -82 -219 -136 0 -25
1 -26 48 -19 48 6 49 6 58 -27 l10 -34 229 1 c238 1 426 16 479 38 36 15 70
51 63 64 -3 4 -7 91 -8 193 -2 170 0 193 25 304 22 95 27 136 23 196 -5 75
-10 91 -105 354 -36 99 -36 101 -38 275 -2 142 -7 196 -27 288 l-24 112 56 32
c131 74 301 199 470 346 80 70 234 173 339 228 87 45 174 62 357 70 178 7 279
-3 725 -76 783 -126 1131 -166 1960 -225 271 -19 506 -28 995 -37 l640 -11 70
-35 c149 -74 231 -93 395 -93 229 0 384 28 556 102 54 23 135 48 179 55 96 17
151 42 204 94 51 50 60 83 34 118 -18 25 -142 95 -238 135 -22 9 -69 34 -103
56 -69 43 -184 90 -297 122 -191 53 -574 -2 -787 -113 -102 -53 -176 -62 -476
-53 -270 7 -320 14 -382 55 -25 16 -65 39 -88 51 l-44 21 -85 -27 c-90 -29
-102 -29 -235 1 -41 10 -90 30 -127 54 l-59 38 -71 -18 c-59 -16 -85 -18 -151
-10 -116 13 -154 26 -204 69 l-45 39 -57 -15 c-61 -16 -92 -13 -217 18 -120
30 -153 46 -167 80 -7 16 -22 35 -34 41 -11 6 -84 14 -161 18 -132 7 -147 10
-264 52 l-124 45 -26 79 c-20 60 -31 80 -46 83 -11 2 -64 -7 -117 -19 l-97
-23 -155 73 -155 74 -42 94 c-23 51 -46 95 -50 98 -5 3 -62 -3 -126 -12 l-118
-17 -84 44 -85 44 -32 85 c-18 47 -35 89 -36 93 -2 5 -59 -5 -126 -23 l-123
-32 -125 53 -125 52 -35 71 c-54 107 -49 105 -150 72 -48 -15 -101 -28 -119
-28 -18 0 -95 18 -171 41 -408 119 -1187 292 -1514 336 -177 23 -218 34 -313
77 -85 39 -91 40 -170 35 -45 -2 -122 -10 -172 -17 -123 -17 -242 -8 -335 25
-110 39 -215 43 -300 12z"/>
</g>
</svg>
