<?xml version="1.0" standalone="no"?>
<!DOCTYPE svg PUBLIC "-//W3C//DTD SVG 20010904//EN"
 "http://www.w3.org/TR/2001/REC-SVG-20010904/DTD/svg10.dtd">
<svg version="1.0" xmlns="http://www.w3.org/2000/svg"
 width="4596.000000pt" height="1616.000000pt" viewBox="0 0 4596.000000 1616.000000"
 preserveAspectRatio="xMidYMid meet">
<metadata>
Created by potrace 1.16, written by Peter Selinger 2001-2019
</metadata>
<g transform="translate(0.000000,1616.000000) scale(0.100000,-0.100000)"
fill="#000000" stroke="none">
<path d="M2245 16119 c-40 -35 -92 -139 -124 -244 -22 -78 -48 -109 -98 -120
-79 -16 -94 14 -101 198 -5 152 -13 169 -57 127 -35 -33 -72 -125 -89 -222 -8
-48 -20 -96 -26 -107 -12 -24 -82 -45 -117 -36 -31 7 -58 67 -73 159 -12 79
-15 86 -36 86 -24 0 -63 -100 -75 -191 -6 -52 -17 -91 -27 -103 -37 -42 -128
-60 -152 -31 -7 8 -23 43 -35 78 -13 34 -28 62 -35 62 -29 0 -53 -54 -59 -132
-4 -43 -10 -83 -14 -90 -4 -6 -33 -25 -65 -43 -31 -18 -106 -69 -167 -115 -82
-63 -144 -99 -245 -145 -120 -55 -142 -69 -195 -125 -77 -80 -135 -179 -252
-429 -98 -209 -113 -245 -113 -284 0 -12 -17 -57 -37 -100 -34 -68 -38 -86
-38 -152 0 -62 4 -80 23 -108 22 -30 26 -32 65 -26 23 4 55 13 71 20 43 21 43
10 0 -30 -21 -20 -34 -36 -30 -36 5 0 3 -7 -4 -15 -16 -19 2 -43 47 -62 71
-29 262 -6 327 39 17 12 71 64 120 116 130 136 197 164 431 177 66 4 156 13
201 21 321 55 663 34 944 -58 204 -68 499 -235 770 -436 622 -462 951 -747
1289 -1117 332 -363 579 -680 978 -1257 352 -509 509 -725 740 -1014 545 -681
1227 -1381 1858 -1905 453 -376 838 -640 1560 -1072 550 -328 868 -549 1017
-705 102 -108 94 -74 104 -462 3 -140 12 -302 19 -360 42 -322 200 -640 550
-1105 283 -377 409 -598 575 -1010 129 -319 130 -308 -41 -581 -111 -178 -188
-324 -270 -511 -33 -76 -109 -235 -168 -353 -60 -118 -120 -248 -135 -288 -34
-95 -62 -252 -76 -432 -6 -80 -22 -190 -35 -245 -45 -187 -61 -475 -30 -535
27 -53 53 -51 425 21 113 22 294 55 403 74 108 19 202 37 207 40 6 3 10 27 10
53 -1 75 -37 300 -61 377 -26 84 -27 180 -3 250 22 68 71 148 173 288 l86 119
7 -159 c14 -305 18 -886 7 -1028 -13 -170 -20 -207 -64 -307 -43 -98 -104
-304 -112 -379 -8 -82 1 -107 45 -127 32 -14 96 -16 520 -16 l484 -1 18 23
c33 40 36 123 31 697 -3 243 6 367 55 745 41 327 88 608 144 866 74 347 75
422 5 689 -46 176 -53 221 -65 430 -17 285 -59 532 -160 935 -21 85 -37 156
-36 158 2 1 118 -36 257 -84 948 -324 1748 -533 2379 -623 230 -33 349 -41
595 -41 246 0 411 13 704 55 101 14 186 23 189 20 15 -15 64 -437 102 -875 34
-389 122 -752 350 -1439 105 -316 120 -379 120 -500 0 -99 -17 -162 -55 -201
-13 -14 -35 -50 -49 -81 -53 -121 -162 -164 -355 -139 -378 49 -713 -197 -739
-541 -4 -61 -3 -68 18 -79 27 -14 64 -6 112 26 45 29 44 29 51 4 12 -48 62
-38 137 26 54 46 127 85 183 98 26 6 27 5 27 -38 0 -101 22 -133 68 -99 24 18
26 18 75 -7 l51 -25 721 -3 c396 -2 894 1 1106 5 436 9 429 8 450 85 9 33 9
84 0 213 -22 318 -49 455 -133 685 -83 228 -101 333 -117 685 -10 218 -1 450
25 703 12 108 18 275 20 536 4 438 -3 390 125 826 45 151 82 280 84 286 2 7
51 14 132 18 545 28 732 60 923 156 41 21 127 78 190 126 167 127 221 149 575
229 66 15 190 45 275 66 239 60 452 85 920 108 650 34 963 24 1600 -49 501
-58 835 -110 1267 -199 596 -123 893 -161 1573 -200 518 -30 639 -33 865 -21
333 17 541 43 920 112 568 103 922 203 1514 430 568 217 785 280 1426 412 702
144 804 156 1595 192 466 21 703 15 1010 -25 607 -80 828 -115 995 -155 191
-47 651 -175 755 -211 153 -53 405 -180 560 -282 230 -152 314 -222 741 -612
632 -578 942 -823 1460 -1158 489 -317 962 -575 1378 -753 280 -120 620 -218
906 -262 191 -29 515 -31 690 -5 677 105 1449 494 1933 976 60 60 168 179 241
264 72 86 157 179 189 207 110 99 249 165 432 205 119 26 387 31 507 10 268
-48 444 -136 629 -316 56 -55 108 -99 116 -99 21 0 38 21 38 47 0 16 10 30 30
41 35 20 40 37 8 26 -69 -23 -87 3 -29 43 62 43 47 59 -26 28 -35 -15 -39 -14
-63 3 -39 29 -36 50 11 98 l43 44 -29 0 c-17 0 -43 -8 -60 -18 -53 -32 -63
-33 -95 -6 -38 32 -38 50 0 100 16 21 30 43 30 48 0 15 -52 -5 -96 -36 -48
-34 -75 -33 -120 5 l-27 24 26 57 c32 69 31 66 12 66 -9 0 -38 -20 -64 -45
-32 -30 -57 -45 -75 -45 -31 0 -91 23 -100 39 -4 6 1 36 10 66 10 30 15 57 12
61 -11 10 -55 -26 -82 -66 -24 -36 -30 -40 -69 -40 -69 0 -81 15 -74 89 4 34
3 61 -2 61 -10 0 -40 -36 -74 -90 -20 -31 -28 -35 -71 -38 -66 -4 -76 7 -76
84 0 35 -4 64 -10 64 -14 0 -40 -44 -54 -92 -14 -48 -42 -68 -94 -68 -37 0
-52 25 -52 88 0 20 -4 43 -9 51 -12 19 -37 -29 -46 -92 -8 -54 -30 -74 -87
-83 -42 -7 -52 4 -70 74 -7 29 -18 53 -23 53 -6 -1 -11 -27 -13 -58 -3 -83 -8
-98 -38 -112 -43 -19 -61 -6 -91 69 -41 103 -55 90 -40 -38 10 -80 6 -92 -45
-118 -38 -19 -57 -8 -102 60 -20 30 -41 58 -46 61 -18 11 -11 -72 11 -129 16
-45 18 -59 8 -78 -20 -39 -72 -88 -94 -88 -12 0 -44 23 -75 55 -30 30 -58 55
-62 55 -22 0 7 -98 44 -152 28 -40 23 -75 -16 -114 -48 -48 -70 -44 -131 21
-28 30 -54 55 -58 55 -19 0 -4 -75 28 -135 26 -50 32 -72 25 -85 -15 -29 -79
-80 -100 -80 -11 0 -37 24 -65 60 -25 33 -50 60 -56 60 -18 0 -8 -95 15 -150
27 -62 24 -75 -28 -115 -52 -40 -71 -34 -114 35 -20 33 -43 60 -49 60 -18 0
-17 -87 2 -140 8 -24 13 -51 10 -61 -8 -23 -112 -89 -141 -89 -26 0 -46 22
-74 83 -13 26 -28 46 -34 44 -15 -5 -19 -93 -7 -143 6 -24 8 -50 5 -59 -8 -20
-95 -65 -127 -65 -31 0 -39 11 -69 84 -48 121 -69 74 -55 -128 2 -24 -5 -35
-32 -53 -40 -27 -98 -40 -120 -26 -9 5 -26 39 -39 74 -13 35 -27 68 -32 73
-19 19 -34 -40 -33 -127 2 -97 -6 -109 -74 -123 -39 -8 -55 14 -79 109 -10 41
-22 67 -30 67 -19 0 -34 -64 -34 -147 0 -64 -3 -74 -22 -87 -75 -46 -111 -23
-133 84 -9 41 -19 78 -24 83 -22 22 -51 -78 -51 -174 0 -54 -15 -69 -69 -69
-27 0 -31 5 -40 38 -5 20 -12 60 -16 87 -8 63 -14 85 -25 85 -15 0 -39 -79
-46 -154 -5 -59 -11 -79 -25 -86 -49 -27 -66 -3 -74 102 -8 94 -13 118 -26
118 -17 0 -38 -65 -48 -151 -9 -81 -20 -102 -51 -96 -20 3 -28 39 -29 139 -1
48 -5 89 -11 93 -15 9 -38 -46 -50 -121 -19 -110 -20 -114 -34 -114 -20 0 -27
53 -20 157 11 145 -25 117 -69 -55 -20 -75 -26 -88 -49 -96 -14 -5 -34 -6 -43
-2 -18 7 -18 49 1 204 5 35 3 52 -5 52 -20 0 -68 -78 -96 -155 -22 -59 -33
-77 -52 -81 -13 -4 -30 -1 -39 6 -17 15 -12 66 17 170 21 72 24 110 9 110 -22
0 -89 -85 -125 -160 -41 -83 -60 -99 -104 -85 -31 9 -27 54 13 171 19 54 32
102 29 106 -17 29 -109 -51 -158 -137 -16 -28 -35 -58 -43 -67 -17 -20 -53
-23 -83 -7 -26 14 -19 55 33 178 42 100 43 123 6 113 -28 -7 -132 -111 -175
-174 -36 -53 -68 -62 -111 -32 -33 23 -28 52 33 171 30 59 55 114 55 121 0 49
-144 -38 -220 -132 -57 -72 -70 -80 -105 -64 -50 22 -40 69 44 208 28 47 51
93 51 103 0 49 -120 -11 -225 -113 -84 -83 -109 -94 -138 -62 -23 25 -8 72 53
166 55 84 80 130 80 146 0 18 -50 11 -108 -17 -35 -17 -88 -57 -143 -110 -47
-46 -91 -83 -96 -83 -6 0 -22 9 -37 21 -50 39 -35 85 77 238 26 35 47 72 47
83 0 18 -4 20 -42 14 -62 -10 -153 -63 -230 -133 -37 -35 -73 -63 -79 -63 -24
0 -69 32 -75 54 -7 31 18 80 100 189 36 49 66 98 66 109 0 18 -5 20 -41 15
-63 -8 -158 -60 -233 -126 -80 -71 -95 -77 -136 -56 -60 31 -34 97 94 244 90
103 87 133 -9 112 -72 -16 -148 -56 -236 -126 -39 -30 -77 -55 -85 -55 -22 0
-63 22 -68 37 -10 25 28 94 90 166 99 115 125 149 121 161 -2 6 -27 11 -60 10
-69 -1 -155 -40 -252 -114 -94 -71 -108 -77 -140 -56 -14 9 -31 28 -37 41 -15
34 20 90 132 209 49 52 90 102 90 111 0 23 -83 19 -159 -6 -35 -12 -106 -50
-159 -85 -53 -35 -102 -64 -110 -64 -26 0 -73 35 -79 59 -9 38 19 78 139 200
60 61 108 117 105 123 -3 9 -26 13 -73 12 -86 -1 -161 -30 -277 -108 -45 -31
-91 -56 -101 -56 -9 0 -31 13 -47 29 -58 59 -31 115 118 243 140 120 145 144
29 135 -85 -5 -151 -30 -269 -97 -91 -52 -126 -60 -147 -35 -30 36 10 91 162
222 104 90 119 117 70 128 -68 15 -204 -31 -375 -127 l-58 -33 -19 24 c-11 13
-20 29 -20 36 0 30 72 104 185 190 144 110 152 128 57 133 -84 4 -166 -18
-293 -79 -107 -52 -134 -57 -152 -28 -25 40 31 114 182 241 53 45 102 90 110
100 21 30 -1 43 -67 41 -83 -4 -152 -27 -289 -95 -88 -44 -128 -59 -146 -54
-37 9 -77 45 -77 70 0 31 51 108 119 180 104 111 131 146 131 167 0 20 -4 21
-49 17 -68 -7 -197 -71 -304 -152 -49 -36 -95 -66 -103 -66 -21 0 -54 37 -54
61 0 37 51 130 125 224 106 135 114 155 67 155 -61 0 -192 -79 -340 -205 -59
-50 -82 -55 -113 -24 -35 35 -12 100 84 247 65 99 83 141 64 148 -39 15 -161
-69 -263 -180 -85 -93 -96 -101 -125 -86 -15 8 -19 22 -19 59 0 39 12 73 65
180 68 138 75 161 50 161 -48 0 -155 -88 -276 -228 -36 -41 -52 -52 -75 -52
-83 0 -95 64 -38 200 57 135 68 170 56 182 -25 25 -147 -76 -215 -177 -76
-114 -104 -129 -153 -80 -22 22 -25 31 -19 68 4 23 23 80 42 127 73 179 77
190 65 202 -31 31 -169 -87 -261 -224 -45 -69 -55 -78 -82 -78 -21 0 -40 10
-61 31 -29 28 -30 34 -25 88 2 32 23 111 46 177 23 65 41 126 41 135 0 81
-146 -40 -263 -218 -73 -112 -85 -120 -164 -108 -32 5 -55 16 -76 36 -28 29
-29 33 -24 92 3 34 20 107 36 162 51 167 39 199 -50 131 -59 -45 -118 -123
-168 -224 -50 -100 -71 -122 -113 -122 -43 1 -114 33 -127 58 -18 33 -13 104
14 193 58 194 59 199 47 211 -17 17 -65 -7 -121 -63 -56 -55 -90 -102 -145
-201 -20 -37 -45 -72 -56 -78 -36 -19 -89 -12 -117 16 -25 25 -25 29 -20 117
3 51 17 140 31 199 48 201 34 212 -99 75 -73 -74 -100 -112 -143 -194 -30 -58
-65 -111 -80 -122 -39 -27 -97 -41 -174 -41 -54 0 -72 4 -87 19 -32 32 -35
110 -11 279 21 150 20 192 -3 192 -19 0 -129 -122 -166 -184 -19 -32 -47 -93
-62 -137 -36 -99 -52 -125 -91 -138 -37 -13 -117 -14 -136 -2 -7 4 -17 37 -22
72 -9 62 -4 141 21 313 10 72 6 106 -14 106 -19 0 -123 -115 -160 -177 -19
-32 -49 -98 -67 -148 -18 -49 -43 -101 -56 -115 -22 -23 -32 -25 -104 -25 -89
1 -123 17 -149 71 -17 34 -20 149 -8 306 8 96 7 109 -8 114 -39 15 -164 -153
-210 -282 -52 -149 -69 -179 -109 -198 -21 -10 -61 -20 -90 -23 -48 -5 -55 -3
-70 18 -29 42 -38 101 -38 239 1 74 -1 156 -4 183 -8 67 -32 63 -90 -15 -68
-92 -110 -186 -139 -314 -36 -152 -59 -174 -182 -174 -55 0 -95 20 -111 55
-21 45 -35 175 -29 270 7 116 -1 185 -21 193 -25 9 -97 -81 -148 -183 -26 -53
-56 -136 -72 -202 -16 -62 -37 -122 -47 -133 -25 -28 -106 -50 -183 -50 -59 0
-67 3 -97 33 -44 44 -54 84 -67 277 -6 91 -14 175 -19 187 -12 31 -31 21 -74
-36 -61 -84 -113 -207 -143 -341 -16 -69 -36 -137 -46 -152 -27 -41 -100 -71
-175 -72 -62 -1 -65 0 -82 29 -26 43 -46 133 -59 255 -21 212 -39 239 -97 152
-73 -107 -108 -220 -123 -392 -12 -130 -23 -154 -78 -171 -92 -27 -120 34
-148 318 -14 152 -25 203 -43 203 -17 0 -70 -73 -106 -145 -44 -90 -72 -200
-83 -333 -10 -111 -17 -126 -68 -141 -42 -12 -70 2 -84 43 -17 52 -30 195 -30
338 0 196 -19 220 -96 116 -94 -128 -128 -215 -154 -393 -16 -107 -23 -133
-41 -147 -44 -36 -92 -9 -105 58 -7 36 0 249 12 384 4 47 2 70 -8 83 -14 18
-16 18 -47 -9 -47 -39 -127 -147 -161 -218 -16 -34 -43 -110 -61 -171 -17 -60
-38 -118 -47 -127 -19 -23 -94 -24 -116 -3 -8 8 -18 35 -22 60 -7 49 -4 73 27
267 21 126 20 178 -3 178 -23 0 -165 -155 -200 -220 -20 -36 -51 -107 -69
-158 -38 -111 -63 -137 -123 -129 -21 3 -46 13 -55 22 -23 22 -17 101 14 206
14 46 34 119 46 163 32 119 11 124 -105 27 -72 -59 -130 -137 -174 -231 -19
-41 -41 -83 -50 -92 -33 -38 -136 -11 -148 38 -10 37 12 123 61 247 24 59 46
121 50 137 6 27 4 30 -17 30 -29 0 -119 -58 -176 -113 -24 -23 -68 -81 -99
-129 -69 -106 -89 -117 -164 -93 -29 10 -64 29 -77 42 -21 21 -23 30 -17 71 3
26 31 105 61 176 67 156 74 186 47 186 -29 0 -132 -65 -187 -118 -26 -26 -73
-82 -103 -125 -31 -43 -66 -83 -79 -89 -31 -14 -105 6 -140 39 -23 21 -26 30
-20 66 3 23 40 108 81 189 41 81 75 154 75 162 0 29 -22 27 -93 -7 -95 -45
-172 -109 -241 -201 -31 -42 -66 -81 -78 -87 -27 -14 -79 -4 -106 22 -42 39
-21 111 80 279 123 203 116 222 -52 141 -74 -36 -153 -104 -256 -224 -23 -27
-49 -47 -61 -47 -11 0 -39 14 -61 30 -37 26 -42 35 -42 69 0 52 23 103 114
253 42 69 77 136 78 149 3 22 0 24 -32 21 -19 -1 -72 -21 -117 -43 -80 -39
-147 -96 -246 -206 -45 -50 -67 -53 -114 -17 -76 58 -64 115 67 324 88 141
109 184 96 197 -11 12 -98 -16 -183 -57 -67 -33 -100 -59 -176 -134 -51 -51
-103 -97 -115 -100 -24 -8 -73 13 -113 48 -76 67 -63 115 94 347 47 70 89 138
93 153 6 24 4 26 -23 26 -90 0 -247 -85 -363 -195 -122 -118 -131 -121 -213
-67 -100 66 -83 139 83 372 99 138 119 175 102 192 -24 24 -225 -51 -317 -119
-22 -17 -77 -65 -123 -107 -96 -89 -121 -95 -192 -47 -48 32 -69 63 -70 101 0
42 56 148 150 281 98 139 115 170 107 193 -9 22 -30 20 -124 -13 -119 -41
-205 -97 -322 -205 -111 -105 -129 -112 -197 -80 -48 23 -74 59 -74 104 0 52
61 169 163 311 89 124 119 177 110 192 -10 16 -96 0 -179 -32 -108 -42 -187
-96 -309 -212 -112 -107 -127 -113 -182 -79 -80 48 -49 141 132 395 100 141
125 183 125 214 0 27 -14 34 -65 33 -100 -2 -296 -119 -455 -272 -122 -117
-139 -126 -186 -104 -44 21 -68 64 -58 107 14 69 82 184 207 352 129 173 121
231 -28 190 -116 -31 -267 -130 -416 -272 -86 -82 -132 -107 -176 -94 -47 13
-88 38 -122 71 -65 66 -32 174 128 420 131 202 139 246 44 244 -104 -3 -275
-115 -461 -304 -70 -70 -136 -131 -147 -134 -26 -7 -83 27 -94 57 -21 54 15
148 164 426 57 105 63 136 33 155 -24 15 -109 -15 -188 -66 -76 -50 -211 -176
-271 -254 -58 -75 -97 -98 -160 -92 -71 7 -177 63 -203 107 -19 33 -19 36 -3
100 10 38 50 125 93 205 42 76 79 156 81 177 5 34 3 39 -21 45 -69 17 -252
-114 -385 -275 -90 -109 -121 -128 -179 -112 -43 13 -99 48 -106 67 -20 52 8
135 102 307 37 68 65 131 66 150 1 28 -2 32 -28 35 -17 2 -54 -9 -95 -29 -54
-26 -91 -57 -207 -175 -98 -100 -150 -146 -170 -150 -38 -7 -134 29 -174 66
-57 53 -41 106 104 355 48 84 56 112 31 121 -57 22 -179 -50 -318 -188 -107
-106 -109 -108 -155 -108 -53 0 -102 25 -128 64 -29 45 -9 105 95 276 55 89
67 120 57 145 -21 57 -210 -54 -342 -200 -37 -41 -79 -78 -96 -84 -53 -19 -98
15 -98 73 0 37 33 115 100 235 71 128 80 155 52 170 -51 27 -183 -58 -320
-206 -90 -98 -90 -98 -139 -98 -64 0 -139 43 -159 91 -21 50 -5 103 81 273 92
182 98 211 41 211 -76 0 -212 -102 -336 -251 -112 -136 -152 -150 -292 -103
-118 39 -116 103 11 412 50 121 51 156 6 160 -69 7 -220 -129 -343 -308 -49
-72 -66 -88 -106 -104 -41 -18 -54 -19 -110 -9 -129 22 -147 46 -129 171 7 42
34 147 62 232 56 169 63 225 32 235 -31 10 -82 -18 -150 -80 -81 -76 -139
-152 -215 -283 -33 -58 -73 -114 -87 -125 -38 -27 -105 -32 -173 -13 -51 15
-59 21 -73 54 -23 55 -11 168 41 378 56 226 61 275 27 293 -31 17 -112 -31
-182 -107 -80 -87 -147 -190 -215 -329 -86 -175 -129 -199 -349 -191 -147 5
-179 18 -196 81 -17 63 -4 209 36 402 19 93 35 195 35 227 0 52 -3 60 -24 69
-90 41 -310 -236 -421 -531 -55 -146 -89 -175 -202 -173 -92 2 -154 28 -180
75 -29 54 -23 207 16 416 20 109 31 196 29 235 l-3 62 -36 3 c-48 4 -116 -49
-191 -149 -93 -125 -151 -237 -222 -425 -47 -126 -102 -164 -208 -144 -65 13
-84 24 -105 63 -27 49 -23 199 11 375 35 181 38 249 12 267 -72 53 -260 -175
-371 -452 -25 -64 -55 -129 -66 -144 -28 -39 -69 -52 -149 -47 -153 11 -174
75 -125 362 29 170 32 244 10 252 -64 25 -188 -113 -281 -314 -25 -53 -59
-125 -75 -159 -38 -82 -64 -96 -190 -101 -110 -5 -159 7 -189 45 -27 35 -27
151 1 304 24 136 28 214 12 230 -21 21 -67 -1 -123 -61 -68 -72 -132 -182
-186 -320 -48 -122 -81 -162 -147 -179 -49 -12 -155 -15 -181 -5 -40 15 -40
120 0 314 21 103 17 144 -15 148 -52 8 -188 -177 -231 -313 -40 -126 -72 -149
-210 -149 -122 0 -164 17 -180 71 -10 33 -7 60 20 192 17 84 30 165 28 179
-13 110 -210 -105 -268 -293 -18 -58 -46 -100 -75 -113 -33 -15 -172 -15 -231
-1 -84 22 -92 65 -40 246 54 190 55 203 11 203 -62 0 -165 -116 -237 -267 -29
-63 -58 -109 -73 -119 -35 -23 -159 -15 -206 13 -33 19 -34 22 -33 79 1 44 12
85 43 163 61 150 49 186 -44 141 -71 -34 -142 -106 -191 -192 -53 -90 -74
-108 -126 -108 -51 0 -146 37 -159 62 -18 34 -2 95 63 230 33 71 57 135 54
143 -15 41 -150 -12 -225 -89 -24 -25 -65 -75 -90 -113 -55 -80 -82 -94 -144
-72 -42 14 -42 14 -42 64 1 41 12 72 63 172 34 68 62 131 62 142 0 27 -23 32
-77 16 -73 -22 -149 -81 -214 -167 -64 -84 -83 -98 -126 -98 -45 1 -113 36
-113 59 0 33 34 110 94 214 80 139 75 167 -25 132 -64 -23 -140 -85 -194 -159
-61 -83 -90 -96 -152 -70 -25 10 -54 30 -65 44 -17 24 -18 29 -4 68 9 24 41
82 71 128 66 101 72 128 32 132 -53 6 -134 -42 -222 -133 -47 -48 -90 -85
-101 -85 -29 1 -101 36 -129 64 -49 49 -32 92 97 264 32 42 32 44 14 58 -39
28 -133 -14 -225 -100 -38 -36 -81 -68 -94 -71 -50 -13 -197 72 -224 129 -14
30 -14 35 5 72 12 21 50 73 87 114 36 41 64 82 63 90 -5 25 -70 24 -130 -2
-29 -12 -83 -48 -121 -80 -43 -36 -79 -58 -94 -58 -37 0 -87 25 -132 65 -69
63 -55 108 80 252 53 57 60 78 28 88 -46 15 -154 -26 -221 -83 -53 -46 -81
-62 -106 -62 -65 0 -222 121 -222 172 0 35 38 89 132 186 70 71 79 84 67 98
-31 37 -153 -5 -273 -95 -38 -28 -78 -51 -89 -51 -57 0 -199 110 -213 164 -11
44 16 86 123 197 57 58 103 111 103 116 0 15 -24 23 -65 23 -52 0 -136 -36
-227 -96 -104 -68 -135 -71 -205 -16 -157 125 -153 174 29 355 44 44 77 84 75
90 -2 7 -26 13 -54 15 -65 4 -135 -23 -242 -93 -57 -37 -94 -55 -115 -55 -39
0 -118 46 -173 99 -77 75 -58 129 104 302 69 74 82 93 72 105 -33 40 -154 3
-296 -92 -129 -85 -163 -85 -270 3 -33 26 -43 41 -43 64 0 55 44 121 167 251
40 43 73 85 73 93 0 24 -41 34 -96 24 -63 -12 -151 -55 -239 -119 -38 -27 -84
-53 -102 -56 -42 -8 -108 15 -178 61 -44 30 -55 42 -55 64 0 35 79 155 164
248 104 115 107 139 22 135 -62 -2 -137 -35 -222 -95 -158 -112 -166 -117
-199 -117 -41 0 -148 54 -175 87 -13 17 -18 34 -14 47 16 53 65 136 136 227
97 124 102 133 83 149 -42 35 -193 -29 -310 -131 -88 -77 -123 -99 -158 -99
-35 0 -91 23 -134 56 -26 20 -33 32 -33 60 0 37 50 146 99 219 15 22 48 70 74
108 54 79 53 97 -8 97 -72 0 -169 -57 -290 -170 -58 -55 -117 -103 -131 -106
-36 -9 -85 1 -153 31 -74 33 -95 56 -94 99 1 47 51 160 121 273 78 128 83 153
29 153 -71 0 -154 -55 -289 -193 l-128 -130 -58 5 c-65 6 -155 47 -172 77 -25
47 -2 125 88 300 35 68 61 130 58 137 -8 21 -62 17 -114 -10 -66 -34 -130 -93
-212 -196 -38 -49 -80 -95 -92 -101 -59 -31 -211 13 -224 65 -13 53 16 164 86
325 17 40 29 79 26 87 -9 24 -60 16 -109 -17 -56 -37 -117 -107 -180 -205 -66
-104 -86 -117 -169 -111 -92 6 -118 24 -118 82 0 56 22 158 55 259 31 96 30
122 -5 118 -67 -7 -151 -98 -235 -252 -32 -60 -58 -96 -77 -106 -37 -19 -132
-18 -152 2 -24 23 -20 126 10 272 27 130 24 150 -15 137 -61 -19 -137 -121
-190 -253 -43 -106 -64 -125 -146 -130 -63 -4 -65 -4 -76 24 -11 28 -7 189 7
312 6 48 5 52 -14 52 -12 0 -37 -14 -57 -31z"/>
</g>
</svg>
