<?xml version="1.0" standalone="no"?>
<!DOCTYPE svg PUBLIC "-//W3C//DTD SVG 20010904//EN"
 "http://www.w3.org/TR/2001/REC-SVG-20010904/DTD/svg10.dtd">
<svg version="1.0" xmlns="http://www.w3.org/2000/svg"
 width="1536.000000pt" height="689.000000pt" viewBox="0 0 1536.000000 689.000000"
 preserveAspectRatio="xMidYMid meet">
<metadata>
Created by potrace 1.16, written by Peter Selinger 2001-2019
</metadata>
<g transform="translate(0.000000,689.000000) scale(0.100000,-0.100000)"
fill="#000000" stroke="none">
<path d="M489 6881 c-42 -13 -69 -31 -69 -45 0 -8 20 -26 44 -40 52 -30 77
-82 79 -163 2 -76 -11 -91 -180 -208 -72 -50 -285 -259 -307 -302 -17 -34 -41
-163 -51 -279 l-6 -70 73 -59 c135 -107 237 -138 458 -139 145 -1 145 0 237
37 106 43 164 47 222 17 85 -43 111 -111 70 -180 -65 -108 -178 -202 -349
-289 -134 -69 -225 -100 -332 -111 -96 -10 -108 -14 -108 -36 0 -22 89 -102
128 -115 47 -15 142 -7 334 30 228 44 277 51 418 61 96 7 143 15 181 31 l51
22 66 -21 c70 -23 126 -32 352 -57 157 -17 230 -34 314 -75 89 -43 223 -148
306 -240 108 -119 146 -138 395 -196 226 -52 254 -68 510 -289 242 -210 424
-300 888 -439 464 -140 680 -185 1100 -231 77 -8 140 -15 142 -15 2 0 7 -29
10 -65 4 -38 34 -143 72 -253 119 -344 135 -396 155 -497 27 -138 39 -393 29
-620 -9 -209 -8 -203 -85 -318 -58 -87 -73 -137 -92 -321 -26 -254 -32 -270
-165 -446 -53 -69 -124 -167 -158 -218 -35 -50 -76 -103 -93 -117 -40 -34
-116 -55 -400 -114 -260 -54 -309 -68 -373 -105 -51 -31 -99 -81 -91 -95 9
-14 66 -14 140 0 32 6 60 8 63 5 3 -2 -13 -24 -34 -48 -105 -116 -119 -160
-51 -166 27 -2 52 5 87 24 l49 28 41 -28 c57 -39 129 -43 321 -18 85 12 178
22 205 24 l50 2 3 -44 c5 -95 14 -105 59 -70 23 18 27 18 46 5 43 -30 94 -13
202 69 33 25 115 76 183 112 67 36 125 70 128 76 12 19 5 110 -10 134 -23 33
-20 62 14 155 17 45 35 116 41 158 14 103 47 171 110 229 150 137 153 140 256
349 l98 198 -1 100 c0 55 -4 228 -9 385 -7 247 -6 296 9 367 16 78 115 393
136 433 15 28 36 25 110 -14 92 -49 271 -108 437 -145 233 -52 389 -103 518
-170 51 -26 99 -64 176 -141 111 -110 110 -107 148 -248 9 -32 32 -64 86 -120
l73 -77 10 -165 c15 -261 -4 -347 -89 -391 -48 -24 -151 -38 -284 -39 -134 0
-210 -14 -264 -48 -53 -32 -111 -104 -111 -136 0 -12 -13 -43 -30 -69 -37 -58
-37 -72 -5 -93 24 -16 28 -16 65 1 22 10 47 26 56 36 24 27 43 24 82 -13 l33
-33 172 0 c95 -1 177 -2 184 -3 6 -1 13 -17 15 -34 4 -38 32 -51 41 -18 8 31
56 26 115 -13 l49 -34 116 33 c147 42 269 90 327 129 44 30 45 31 45 85 -1 30
-4 72 -9 92 -7 32 -5 39 10 44 22 8 84 64 84 76 0 4 -16 8 -35 8 -30 0 -35 4
-41 28 -6 28 -23 79 -57 172 -17 48 -21 93 -29 365 -10 348 -15 380 -81 513
-55 112 -116 174 -232 236 -151 81 -264 165 -380 281 -138 137 -210 243 -319
466 -47 96 -113 218 -147 272 -33 54 -60 100 -58 102 2 2 71 22 153 45 309 87
454 147 583 241 82 60 206 183 264 260 78 105 131 139 276 175 102 25 202 69
403 178 74 40 151 76 170 80 328 63 1511 276 1975 356 203 35 806 95 1210 120
277 17 829 30 1310 30 l449 0 196 -46 c107 -26 283 -71 390 -100 402 -112 582
-155 685 -163 55 -4 102 -6 104 -4 26 21 -367 224 -729 378 -413 176 -692 277
-862 314 -195 42 -530 84 -1288 161 -272 28 -740 78 -1040 110 -300 33 -570
62 -600 65 -30 3 -257 25 -505 50 -247 24 -632 60 -855 80 -621 54 -1023 94
-1280 127 -150 19 -213 21 -685 21 -367 -1 -592 -6 -765 -17 -135 -9 -616 -39
-1070 -66 -843 -51 -1284 -79 -1630 -105 -549 -40 -855 -43 -1003 -11 -149 33
-274 115 -592 387 -299 256 -388 322 -526 389 -133 64 -199 75 -459 75 l-225
0 -80 -38 c-83 -40 -125 -71 -125 -93 0 -21 -32 -32 -65 -23 -16 5 -64 34
-105 65 -41 31 -91 64 -110 74 -84 43 -195 60 -261 41z"/>
</g>
</svg>
