<?xml version="1.0" standalone="no"?>
<!DOCTYPE svg PUBLIC "-//W3C//DTD SVG 20010904//EN"
 "http://www.w3.org/TR/2001/REC-SVG-20010904/DTD/svg10.dtd">
<svg version="1.0" xmlns="http://www.w3.org/2000/svg"
 width="1040.000000pt" height="288.000000pt" viewBox="0 0 1040.000000 288.000000"
 preserveAspectRatio="xMidYMid meet">
<metadata>
Created by potrace 1.16, written by Peter Selinger 2001-2019
</metadata>
<g transform="translate(0.000000,288.000000) scale(0.100000,-0.100000)"
fill="#000000" stroke="none">
<path d="M553 2843 c-10 -15 -13 -16 -22 -4 -8 12 -12 12 -24 2 -12 -9 -16 -9
-20 1 -4 10 -10 8 -22 -7 -14 -17 -17 -18 -25 -5 -7 10 -12 11 -17 4 -5 -6
-55 -18 -112 -27 -142 -23 -174 -43 -239 -150 -56 -91 -65 -137 -34 -167 16
-16 21 -15 94 22 43 22 80 44 84 49 10 16 39 10 52 -12 13 -20 10 -25 -27 -63
-23 -23 -41 -46 -41 -52 0 -6 -14 -23 -30 -39 -43 -41 -40 -65 8 -65 31 0 46
9 99 59 74 69 184 126 274 140 92 15 308 13 419 -4 185 -28 549 -138 915 -277
116 -44 325 -120 465 -170 306 -108 464 -172 585 -237 l90 -48 6 -119 c4 -78
12 -132 23 -156 9 -21 61 -94 116 -162 l99 -124 12 -203 c7 -112 12 -226 12
-254 0 -108 -16 -361 -24 -383 -5 -13 -9 -69 -9 -124 0 -87 -4 -108 -26 -159
-39 -86 -36 -89 100 -89 l114 0 6 26 c4 14 4 58 0 97 -4 45 -2 83 6 101 6 17
22 111 35 210 13 100 33 210 44 246 24 76 25 114 6 195 -8 34 -15 109 -15 173
l0 114 30 -19 c48 -31 299 -340 305 -377 23 -135 45 -288 51 -353 7 -75 9 -79
56 -129 35 -38 59 -54 86 -59 20 -4 68 -27 106 -51 38 -24 76 -44 84 -44 14 0
46 34 69 74 20 34 16 120 -6 147 -16 20 -27 24 -70 22 -28 -1 -66 4 -85 12
l-34 14 -5 133 c-3 73 -5 176 -4 229 2 92 1 97 -28 133 -16 21 -37 48 -45 59
-14 20 -14 20 5 13 40 -15 281 -19 345 -6 33 7 63 11 65 8 3 -2 10 -40 16 -83
8 -58 21 -100 49 -155 54 -105 66 -140 100 -318 36 -184 37 -202 12 -202 -41
0 -81 -73 -68 -125 8 -30 42 -51 60 -36 7 6 16 8 19 4 4 -3 13 0 22 7 8 7 26
10 40 7 40 -7 117 13 153 40 39 29 40 44 7 171 -53 208 -77 370 -79 522 l-1
146 50 82 c27 45 53 82 56 82 7 0 73 -219 94 -314 21 -92 37 -128 78 -179 50
-60 92 -151 167 -357 42 -114 42 -120 1 -134 -39 -12 -69 -49 -73 -86 -3 -25
-2 -25 82 -27 47 -1 128 2 180 5 78 6 95 10 98 24 2 9 -38 134 -88 278 -115
333 -142 458 -144 665 0 83 3 185 7 229 l9 78 51 -6 c29 -4 68 -10 88 -13 43
-6 91 16 115 53 10 14 35 34 58 46 23 11 62 40 87 65 45 43 48 44 145 58 189
26 487 53 904 80 225 15 574 48 750 70 314 40 499 77 1104 220 450 106 712
140 1081 140 208 0 239 -3 320 -23 104 -27 249 -94 318 -147 50 -38 63 -40 53
-8 -17 54 -197 172 -325 214 -36 12 -70 28 -74 35 -5 9 -18 11 -37 7 -21 -4
-30 -2 -30 7 0 8 -9 11 -29 7 -19 -4 -33 -1 -41 8 -8 9 -22 12 -41 8 -19 -4
-29 -1 -29 7 0 8 -10 9 -31 5 -22 -5 -34 -3 -40 6 -7 12 -12 12 -30 0 -20 -12
-24 -11 -36 5 -11 15 -17 16 -33 6 -26 -16 -40 -15 -40 3 0 18 -14 19 -40 3
-16 -10 -22 -10 -33 6 -12 16 -14 16 -26 2 -17 -20 -41 -21 -41 -1 0 19 -29
19 -36 0 -8 -19 -34 -19 -34 0 0 8 -7 15 -15 15 -9 0 -18 -7 -21 -15 -9 -22
-31 -18 -37 5 -7 26 -24 26 -32 0 -8 -26 -35 -26 -35 0 0 26 -22 26 -38 0 -16
-26 -32 -26 -32 0 0 26 -26 26 -40 0 -14 -26 -30 -26 -30 0 0 26 -26 26 -40 0
-14 -26 -30 -26 -30 0 0 26 -26 26 -40 0 -14 -26 -30 -26 -30 0 0 26 -26 26
-40 0 -14 -26 -30 -26 -30 0 0 28 -20 25 -47 -8 l-22 -27 -1 28 c0 35 -26 36
-42 2 -14 -31 -26 -32 -30 -3 -4 28 -26 35 -35 11 -3 -10 -11 -24 -17 -32 -9
-11 -12 -9 -16 9 -8 33 -28 36 -41 6 -15 -32 -27 -33 -31 -4 -5 34 -28 33 -41
-1 -13 -36 -24 -40 -29 -9 -5 34 -28 33 -41 -1 -13 -36 -24 -40 -29 -9 -5 34
-28 33 -41 -1 -14 -38 -25 -40 -29 -3 -4 36 -20 34 -38 -5 -18 -40 -28 -41
-32 -6 -5 39 -25 39 -39 -1 -14 -39 -29 -39 -29 0 0 38 -32 27 -44 -16 l-10
-35 -10 38 c-11 44 -27 44 -41 -1 -12 -40 -21 -41 -28 -2 -8 40 -36 40 -44 0
-7 -37 -23 -50 -23 -18 0 13 -4 29 -9 37 -8 12 -12 12 -25 2 -9 -8 -16 -21
-16 -30 0 -9 -5 -23 -10 -31 -7 -11 -11 -4 -16 28 -4 23 -10 42 -14 42 -12 0
-28 -23 -35 -53 -10 -38 -25 -34 -25 7 0 59 -30 54 -45 -7 -10 -37 -23 -34
-31 8 -8 47 -31 44 -44 -5 -14 -52 -30 -51 -30 1 0 32 -3 40 -17 37 -9 -2 -22
-19 -28 -38 -15 -44 -29 -41 -33 5 -4 49 -33 44 -46 -8 -13 -51 -36 -49 -36 3
0 53 -24 53 -42 0 -18 -55 -32 -54 -36 3 -4 65 -30 60 -49 -11 -12 -49 -28
-44 -31 11 -4 61 -25 62 -48 2 -18 -49 -33 -58 -36 -22 0 12 -2 27 -3 32 -2 6
-3 16 -4 23 0 6 -8 12 -16 12 -9 0 -20 -17 -27 -45 -16 -59 -38 -60 -38 -1 0
25 -4 47 -10 51 -11 7 -36 -30 -45 -67 -12 -49 -35 -34 -35 23 0 42 -3 50 -17
47 -10 -2 -23 -22 -32 -51 -20 -64 -41 -62 -41 4 0 43 -3 50 -17 47 -12 -2
-23 -20 -32 -51 -20 -64 -39 -61 -43 6 -4 70 -27 71 -49 2 -22 -70 -43 -67
-47 8 -2 31 -7 57 -12 57 -11 0 -35 -44 -44 -82 -3 -16 -13 -28 -21 -28 -11 0
-15 13 -15 55 0 42 -4 55 -15 55 -16 0 -38 -38 -49 -82 -3 -16 -13 -28 -21
-28 -12 0 -15 14 -15 61 0 52 -2 60 -17 57 -11 -2 -24 -22 -35 -53 -11 -36
-21 -50 -35 -50 -16 0 -18 7 -15 58 4 53 2 58 -15 55 -11 -2 -25 -22 -38 -55
-14 -36 -26 -53 -37 -53 -15 0 -18 9 -18 60 0 33 -4 60 -10 60 -14 0 -39 -41
-46 -78 -5 -25 -12 -32 -29 -32 -22 0 -22 3 -17 65 3 45 1 65 -7 65 -14 0 -48
-55 -57 -93 -4 -22 -11 -27 -27 -25 -12 2 -21 8 -21 13 15 109 15 125 -1 125
-10 0 -26 -22 -43 -60 -18 -39 -32 -59 -42 -57 -15 3 -17 20 -9 87 6 52 -21
45 -51 -12 -16 -30 -32 -48 -43 -48 -16 0 -17 6 -11 61 7 59 6 61 -13 51 -11
-6 -28 -29 -38 -51 -10 -23 -25 -41 -33 -41 -12 0 -14 10 -9 56 5 48 3 55 -11
52 -9 -2 -27 -22 -40 -46 -34 -60 -55 -57 -46 8 6 42 4 50 -10 50 -8 0 -25
-18 -36 -40 -11 -22 -28 -40 -37 -40 -13 0 -15 8 -10 45 9 59 -14 61 -43 5
-27 -52 -40 -51 -40 5 0 56 -19 60 -46 10 -10 -19 -25 -35 -33 -35 -10 0 -12
9 -8 35 7 45 -17 48 -41 5 -24 -43 -46 -40 -38 5 8 43 -15 49 -40 10 -21 -32
-40 -27 -36 8 4 33 -22 37 -40 7 -19 -29 -41 -26 -36 5 7 35 -9 41 -36 16 -29
-27 -36 -26 -36 4 0 29 -16 32 -41 9 -17 -16 -19 -15 -29 10 -9 24 -12 25 -32
15 -18 -9 -24 -8 -34 6 -8 11 -19 15 -33 10 -17 -5 -21 -2 -21 14 0 22 -16 27
-40 11 -11 -7 -20 -4 -32 13 l-18 22 -20 -25 -20 -25 0 23 c0 25 -27 31 -36 7
-10 -25 -34 -17 -34 10 0 14 -5 25 -10 25 -6 0 -16 -11 -22 -25 -14 -32 -24
-32 -41 1 -11 20 -16 23 -24 12 -6 -7 -13 -22 -16 -33 -4 -15 -5 -13 -6 8 -1
35 -28 36 -41 2 -13 -34 -26 -31 -34 6 -7 37 -30 34 -34 -4 -2 -15 -8 -27 -13
-27 -6 0 -9 14 -7 32 4 41 -16 47 -32 8 -7 -16 -16 -30 -20 -30 -10 0 -20 26
-20 51 0 31 -18 22 -30 -16 -16 -47 -30 -44 -30 6 0 48 -19 49 -35 1 -16 -48
-25 -49 -25 -4 0 51 -16 54 -36 7 -19 -46 -26 -44 -23 7 4 55 -14 60 -35 8
-21 -53 -36 -51 -36 5 0 47 -12 58 -29 28 -9 -16 -10 -15 -11 5 0 31 -21 24
-40 -14 -29 -56 -50 -49 -50 19 0 20 -4 37 -10 37 -9 0 -30 -61 -30 -87 0 -7
-4 -13 -10 -13 -5 0 -10 23 -10 50 0 36 -4 50 -14 50 -15 0 -26 -30 -26 -72 0
-17 -5 -28 -14 -28 -14 0 -26 29 -26 68 0 38 -24 20 -30 -23 -7 -57 -30 -58
-30 -1 0 69 -16 59 -44 -27 -9 -27 -31 -15 -34 19 -2 16 -5 36 -8 44 -8 23
-34 -17 -34 -52 0 -18 -5 -28 -15 -28 -11 0 -15 11 -15 36 0 45 -19 41 -35 -7
-15 -45 -29 -43 -33 4 -4 48 -24 44 -36 -6 -11 -43 -32 -48 -46 -12 -13 34
-28 31 -32 -7 -4 -40 -25 -48 -34 -13 -8 32 -28 27 -32 -8 -4 -32 -31 -37 -39
-7 -7 28 -27 20 -31 -13 -4 -32 -27 -36 -35 -5 -5 18 -8 19 -21 8 -9 -7 -16
-19 -16 -26 0 -8 -7 -14 -15 -14 -8 0 -15 7 -15 15 0 22 -28 18 -35 -5 -8 -25
-23 -26 -41 -2 -13 16 -15 16 -25 0 -12 -22 -39 -24 -39 -3 0 22 -28 18 -40
-6 -14 -25 -33 -20 -40 12 l-6 24 -24 -28 c-29 -34 -40 -34 -40 -2 0 14 -4 25
-9 25 -12 0 -41 -29 -41 -41 0 -5 -7 -9 -15 -9 -9 0 -15 9 -15 25 0 32 -23 32
-44 0 -22 -33 -36 -32 -36 5 0 38 -26 41 -42 5 -16 -35 -52 -35 -46 0 8 39
-12 42 -42 5 -31 -38 -52 -33 -43 10 8 41 -22 41 -45 0 -24 -43 -48 -35 -44
14 4 35 3 37 -17 26 -12 -6 -28 -22 -37 -35 -24 -37 -47 -22 -39 26 8 48 -6
51 -45 9 -34 -37 -65 -41 -57 -7 2 12 8 30 12 40 12 30 -30 20 -58 -13 -42
-50 -75 -38 -52 17 19 44 19 43 -4 43 -11 0 -33 -16 -49 -35 -21 -26 -34 -34
-46 -29 -18 7 -18 32 -1 77 13 31 -32 19 -62 -18 -22 -26 -34 -33 -51 -28 -12
3 -22 6 -22 8 0 1 7 22 15 45 19 53 19 50 -5 50 -10 0 -33 -17 -50 -39 -24
-30 -36 -37 -55 -33 -29 5 -30 11 -10 59 19 45 19 53 -1 53 -9 0 -33 -18 -53
-40 -58 -64 -97 -47 -71 31 7 21 10 42 7 46 -12 11 -51 -16 -75 -53 -41 -62
-73 -25 -47 54 6 18 4 22 -13 22 -19 0 -72 -52 -72 -71 0 -13 -37 -11 -46 2
-3 6 2 28 11 50 10 22 15 42 12 46 -12 12 -55 -15 -73 -46 -35 -59 -71 -29
-42 34 6 14 8 28 5 32 -12 11 -57 -16 -69 -42 -7 -16 -19 -25 -35 -25 -27 0
-27 0 -9 45 9 22 11 37 5 41 -14 8 -56 -22 -64 -46 -7 -23 -45 -28 -45 -6 0 8
4 26 10 40 8 22 7 26 -10 26 -11 0 -29 -13 -42 -30 -32 -44 -51 -40 -43 10 5
27 3 40 -5 40 -14 0 -60 -46 -60 -60 0 -15 -30 -12 -36 4 -3 8 0 24 6 36 6 12
9 24 7 27 -11 10 -44 -8 -57 -32 -7 -14 -22 -25 -33 -25 -19 0 -20 9 -2 53 11
27 -20 21 -43 -8 -20 -26 -58 -35 -49 -12 3 6 8 20 12 30 11 27 -20 21 -43 -8
-28 -35 -45 -33 -37 5 8 38 -15 41 -39 5 -20 -30 -40 -23 -32 11 8 31 -7 31
-32 -1 -11 -14 -23 -25 -26 -25 -3 0 -6 11 -6 25 0 30 -26 34 -35 5 -10 -31
-37 -26 -29 5 8 30 -10 34 -28 5 -7 -11 -16 -20 -20 -20 -5 0 -8 9 -8 20 0 11
-4 20 -10 20 -5 0 -14 -9 -20 -20 -6 -11 -15 -20 -20 -20 -6 0 -10 9 -10 20 0
11 -4 20 -9 20 -5 0 -13 -9 -16 -20 -3 -11 -11 -20 -16 -20 -5 0 -9 9 -9 20 0
23 -18 27 -26 5 -4 -8 -10 -15 -15 -15 -5 0 -9 7 -9 15 0 20 -12 19 -27 -2z"/>
</g>
</svg>
