<?xml version="1.0" standalone="no"?>
<!DOCTYPE svg PUBLIC "-//W3C//DTD SVG 20010904//EN"
 "http://www.w3.org/TR/2001/REC-SVG-20010904/DTD/svg10.dtd">
<svg version="1.0" xmlns="http://www.w3.org/2000/svg"
 width="1021.000000pt" height="483.000000pt" viewBox="0 0 1021.000000 483.000000"
 preserveAspectRatio="xMidYMid meet">
<metadata>
Created by potrace 1.16, written by Peter Selinger 2001-2019
</metadata>
<g transform="translate(0.000000,483.000000) scale(0.100000,-0.100000)"
fill="#000000" stroke="none">
<path d="M4050 4818 c-3 -3 -70 -8 -150 -12 -219 -10 -241 -14 -1085 -185
-192 -38 -438 -89 -545 -111 -107 -22 -231 -48 -275 -56 -44 -8 -93 -19 -110
-24 -16 -5 -88 -21 -160 -35 -128 -26 -352 -74 -818 -175 -130 -28 -250 -54
-265 -56 -25 -5 -153 -32 -247 -54 -22 -5 -85 -19 -140 -30 -177 -38 -240 -53
-248 -60 -11 -10 70 -17 308 -30 668 -36 1415 -138 1865 -255 52 -14 142 -36
200 -50 58 -14 177 -45 265 -70 167 -47 363 -98 525 -135 119 -28 192 -65 251
-127 49 -51 170 -224 288 -411 93 -149 139 -200 241 -269 47 -32 132 -103 190
-159 58 -55 155 -145 215 -199 61 -53 118 -105 128 -115 18 -16 17 -19 -12
-66 -33 -52 -121 -308 -141 -409 -28 -136 -60 -250 -78 -274 -25 -35 -42 -86
-42 -128 0 -30 13 -66 47 -128 6 -11 35 -78 64 -150 29 -71 69 -166 90 -210
82 -178 100 -227 93 -260 -12 -67 23 -135 70 -135 9 0 37 -10 61 -21 53 -25
133 -23 163 5 19 16 88 22 108 8 6 -4 29 -47 52 -97 34 -76 41 -100 40 -153
-1 -74 21 -113 68 -123 16 -3 51 -15 78 -27 27 -12 58 -22 70 -22 34 0 98 26
112 45 11 15 27 16 142 9 126 -7 131 -6 163 17 21 15 48 24 71 24 43 0 49 15
21 55 -24 35 -40 46 -103 76 -30 15 -63 30 -72 35 -10 5 -30 9 -45 9 -15 0
-88 21 -163 47 l-137 47 -28 146 c-15 80 -43 211 -61 292 -23 103 -31 155 -25
175 5 15 33 73 64 129 99 178 287 580 287 614 0 6 13 42 29 78 62 142 65 156
51 275 -6 60 -10 110 -8 112 1 1 44 -13 93 -32 118 -45 333 -106 470 -133 126
-25 267 -60 277 -69 4 -4 -6 -46 -22 -94 -41 -121 -52 -199 -51 -366 1 -153
11 -241 36 -312 20 -57 60 -211 95 -369 l28 -125 -20 -50 c-18 -46 -51 -198
-65 -302 -4 -35 -2 -44 12 -49 22 -9 30 5 51 86 10 36 27 78 38 95 l20 29 18
-104 c10 -58 24 -159 31 -225 l12 -120 45 -22 c39 -20 52 -21 100 -14 40 6 60
16 77 35 35 41 30 83 -25 194 -65 129 -69 144 -88 307 -25 226 -33 421 -28
735 4 290 5 295 27 313 12 10 74 52 137 93 114 75 115 75 157 65 23 -6 56 -11
73 -11 41 0 142 35 191 65 21 14 40 25 42 25 6 0 45 -93 103 -245 69 -182 83
-212 144 -295 26 -36 71 -108 100 -160 30 -52 68 -120 86 -151 44 -78 74 -147
74 -173 0 -11 11 -73 24 -137 14 -64 30 -171 37 -239 16 -157 22 -166 117
-164 104 2 152 39 144 109 -2 11 -30 74 -63 140 -57 113 -62 128 -79 250 -20
133 -32 177 -204 697 -86 262 -92 291 -101 450 l-6 117 61 31 c142 72 521 313
660 420 71 55 143 84 265 106 66 12 137 28 158 36 96 37 172 120 222 244 l24
59 113 7 c62 4 174 13 248 19 260 23 331 23 421 0 138 -35 218 -28 341 32 62
30 67 34 68 65 0 56 -24 98 -82 136 -29 20 -60 36 -68 36 -8 1 -33 19 -55 41
-24 24 -56 44 -80 50 -75 19 -140 41 -226 77 l-87 36 -7 96 c-4 53 -16 116
-26 143 -14 36 -19 73 -19 149 0 135 -12 171 -80 239 -89 90 -285 171 -374
155 -24 -4 -92 -35 -131 -59 -11 -7 -54 -32 -95 -56 -41 -25 -90 -58 -108 -75
-57 -53 -79 -176 -47 -266 8 -23 15 -43 15 -45 0 -1 -33 -8 -72 -15 -98 -17
-263 -101 -414 -211 -246 -178 -282 -199 -342 -199 -31 0 -44 7 -74 38 -31 33
-118 195 -118 220 0 12 -89 234 -99 247 -4 5 -15 30 -25 54 -9 23 -40 80 -69
125 -83 127 -90 139 -110 176 -64 119 -287 263 -592 383 -107 42 -234 74 -330
82 -108 9 -161 13 -280 25 -60 5 -200 13 -310 16 -110 3 -258 12 -330 20 -71
8 -211 23 -310 34 -99 11 -214 25 -255 30 -41 6 -104 13 -140 16 -36 3 -90 9
-120 14 -163 27 -675 62 -690 48z"/>
</g>
</svg>
