<?xml version="1.0" standalone="no"?>
<!DOCTYPE svg PUBLIC "-//W3C//DTD SVG 20010904//EN"
 "http://www.w3.org/TR/2001/REC-SVG-20010904/DTD/svg10.dtd">
<svg version="1.0" xmlns="http://www.w3.org/2000/svg"
 width="3942.000000pt" height="1431.000000pt" viewBox="0 0 3942.000000 1431.000000"
 preserveAspectRatio="xMidYMid meet">
<metadata>
Created by potrace 1.16, written by Peter Selinger 2001-2019
</metadata>
<g transform="translate(0.000000,1431.000000) scale(0.100000,-0.100000)"
fill="#000000" stroke="none">
<path d="M35715 14295 c-159 -7 -330 -18 -379 -24 -91 -12 -371 -37 -531 -47
-83 -6 -187 -24 -423 -74 -51 -11 -134 -27 -185 -35 -98 -17 -196 -36 -427
-85 -80 -16 -156 -30 -168 -30 -13 0 -119 -22 -236 -50 -117 -27 -222 -50
-234 -50 -12 0 -41 -5 -64 -10 -24 -6 -164 -40 -313 -76 -148 -36 -326 -76
-395 -90 -69 -13 -147 -31 -175 -40 -27 -8 -115 -30 -195 -49 -191 -43 -501
-126 -620 -165 -52 -17 -207 -62 -345 -101 -137 -38 -290 -83 -340 -99 -49
-16 -142 -42 -205 -59 -109 -28 -227 -68 -630 -211 -96 -34 -229 -81 -295
-103 -66 -22 -156 -53 -200 -69 -44 -16 -137 -49 -207 -73 -70 -25 -164 -60
-210 -79 -46 -19 -101 -37 -123 -41 -70 -12 -249 -71 -312 -104 -37 -18 -64
-27 -68 -21 -10 17 -56 11 -91 -11 -64 -39 -216 -99 -239 -93 -14 3 -73 -14
-155 -45 -73 -28 -138 -51 -143 -51 -6 0 -69 -27 -140 -61 -87 -40 -137 -59
-152 -55 -15 4 -56 -11 -124 -44 -66 -32 -115 -50 -139 -50 -21 0 -75 -17
-127 -40 -49 -22 -96 -40 -105 -40 -22 0 -81 -33 -191 -106 -53 -35 -103 -64
-113 -64 -9 0 -57 -21 -107 -46 -50 -25 -129 -56 -176 -70 -46 -13 -111 -38
-143 -54 -33 -17 -68 -30 -79 -30 -11 0 -55 -19 -98 -41 -43 -23 -72 -35 -66
-27 16 18 7 28 -24 28 -27 0 -69 -20 -131 -62 -80 -55 -248 -137 -269 -132
-22 6 -67 -14 -176 -78 -61 -37 -70 -39 -96 -28 -27 11 -38 8 -108 -23 -78
-35 -186 -81 -278 -121 -27 -11 -93 -44 -146 -72 -74 -38 -104 -49 -130 -46
-27 3 -45 -4 -89 -37 -45 -34 -55 -39 -63 -26 -14 26 -51 17 -128 -34 -75 -49
-318 -191 -326 -191 -7 0 19 44 43 73 27 32 32 67 10 67 -29 0 -63 -20 -171
-98 -81 -60 -116 -80 -131 -76 -24 6 -61 -12 -184 -91 -47 -30 -92 -52 -101
-50 -8 3 -48 -6 -89 -20 -84 -29 -91 -30 -88 -12 2 7 -11 13 -34 15 -38 3
-102 -19 -222 -78 -33 -16 -61 -28 -63 -27 -1 2 15 25 37 51 94 114 25 100
-207 -40 -142 -86 -185 -107 -211 -105 -20 1 -44 -6 -62 -19 -37 -26 -42 -25
-28 4 6 14 8 32 4 42 -6 15 -8 16 -24 0 -11 -10 -36 -16 -62 -16 -33 0 -68
-13 -141 -50 -77 -40 -107 -50 -146 -50 -26 0 -83 -11 -126 -25 -70 -22 -80
-24 -93 -10 -20 19 -25 19 -109 -5 -195 -57 -304 -80 -348 -74 -32 5 -66 0
-119 -16 -61 -18 -80 -20 -97 -11 -18 10 -31 8 -76 -13 -50 -22 -54 -23 -45
-6 35 66 -21 67 -144 1 -72 -39 -312 -131 -340 -131 -3 0 -6 7 -6 15 0 23 -60
19 -165 -10 -103 -29 -116 -30 -90 -12 23 17 12 37 -21 37 -13 0 -90 -20 -170
-45 -155 -48 -174 -53 -131 -29 61 33 13 52 -70 28 -33 -10 -97 -19 -148 -20
-49 -1 -139 -11 -199 -22 -78 -14 -115 -17 -131 -10 -16 7 -51 3 -136 -17 -63
-14 -139 -30 -169 -34 -50 -8 -53 -7 -32 7 12 8 22 21 22 29 0 25 -85 11 -174
-29 -64 -29 -83 -34 -97 -25 -14 9 -40 4 -124 -24 -58 -20 -105 -33 -105 -29
0 4 9 15 20 25 38 34 6 38 -85 10 -54 -16 -97 -24 -115 -20 -15 3 -54 -1 -86
-9 -50 -13 -283 -36 -363 -36 -24 0 -24 1 -6 14 18 13 18 14 -3 25 -18 9 -44
7 -134 -14 -62 -14 -128 -29 -145 -34 -22 -6 -35 -6 -39 1 -8 13 -71 5 -138
-16 -41 -13 -46 -13 -36 -1 6 8 9 19 5 25 -11 17 -58 11 -150 -20 -103 -35
-99 -34 -91 -15 6 17 -29 39 -47 29 -6 -4 -4 2 6 14 11 11 16 26 12 31 -13 21
-64 10 -147 -32 -117 -60 -246 -101 -464 -147 -196 -42 -220 -46 -191 -29 47
28 -18 54 -109 44 -47 -5 -64 -4 -60 4 4 6 -3 16 -16 21 -18 8 -42 5 -106 -14
-74 -23 -86 -24 -99 -11 -8 8 -18 15 -23 15 -10 0 -134 -47 -174 -66 -31 -15
-31 -15 7 19 42 38 46 53 18 62 -13 4 -68 -20 -166 -71 -80 -42 -148 -74 -151
-71 -3 3 3 10 15 16 11 6 41 36 66 67 37 46 43 59 33 71 -16 19 -38 13 -201
-58 -81 -35 -145 -58 -156 -54 -10 3 -63 -13 -118 -35 -113 -45 -118 -46 -127
-24 -9 23 -62 15 -231 -35 -78 -23 -150 -39 -163 -36 -12 3 -41 1 -63 -5 -53
-15 -58 -8 -14 21 84 58 32 88 -94 54 -47 -12 -55 -12 -68 1 -8 8 -19 14 -24
14 -20 0 -98 -36 -164 -76 -75 -45 -195 -107 -195 -101 0 2 25 21 55 41 31 20
53 41 50 46 -14 22 -66 7 -167 -48 -79 -44 -113 -58 -135 -55 -19 3 -72 -12
-149 -41 -125 -47 -126 -47 -28 29 61 47 23 43 -135 -14 -134 -48 -339 -111
-357 -111 -5 1 6 7 24 15 35 15 35 35 2 35 -17 0 -77 -20 -165 -56 -10 -4 0 9
23 30 110 100 -50 63 -259 -60 -42 -24 -87 -44 -101 -44 -14 0 -40 -5 -57 -11
-25 -9 -42 -9 -69 0 -23 7 -48 8 -67 3 -20 -6 -38 -4 -56 5 -24 12 -35 11 -89
-8 -34 -11 -64 -19 -66 -16 -3 3 4 8 15 12 12 3 21 11 21 16 0 15 -34 10 -104
-16 -38 -14 -88 -25 -116 -25 -53 0 -157 -35 -227 -75 -59 -35 -62 -31 -12 14
l44 39 -25 10 c-31 12 -63 0 -176 -69 -55 -33 -98 -51 -122 -53 -26 -2 -60
-17 -100 -45 -51 -35 -318 -181 -330 -181 -2 0 10 17 26 38 16 20 37 51 45 68
15 28 15 33 2 44 -22 18 -57 1 -228 -113 -135 -89 -151 -97 -183 -91 -30 5
-45 -1 -126 -54 -51 -32 -113 -69 -138 -81 l-45 -22 55 51 c30 27 63 53 73 56
27 9 16 38 -15 42 -15 2 -59 -12 -100 -31 -52 -24 -83 -32 -108 -30 -27 4 -61
-8 -143 -46 -83 -39 -105 -46 -97 -31 23 43 -28 36 -142 -21 -46 -23 -92 -39
-113 -39 -24 0 -79 -23 -178 -74 -103 -54 -147 -72 -158 -66 -23 13 -65 -1
-177 -60 -53 -28 -91 -45 -84 -39 6 7 12 21 12 31 0 38 -71 16 -214 -66 -54
-32 -105 -55 -113 -52 -21 9 -88 -24 -161 -78 -34 -25 -64 -46 -67 -46 -2 0 3
16 11 35 17 42 17 40 -2 59 -30 30 -60 19 -141 -54 -107 -97 -244 -190 -280
-190 -15 0 -47 -11 -69 -24 -30 -17 -46 -21 -59 -14 -25 15 -102 -8 -163 -48
-54 -35 -59 -36 -42 -4 8 15 6 21 -8 29 -32 17 -87 -6 -176 -74 -70 -54 -92
-65 -123 -65 -21 0 -49 -7 -62 -16 -25 -18 -71 -25 -168 -24 -51 1 -71 -4
-116 -30 -43 -24 -72 -32 -148 -40 -52 -5 -116 -12 -144 -15 l-50 -7 45 40
c38 35 43 42 31 56 -16 19 -55 20 -107 3 -31 -11 -44 -11 -62 -1 -22 11 -37
10 -115 -11 -33 -9 -37 9 -5 34 48 40 -15 55 -83 20 -23 -11 -44 -18 -47 -15
-3 3 0 6 6 6 17 0 15 30 -3 36 -9 4 -43 -4 -76 -17 -56 -20 -62 -21 -71 -6 -5
10 -20 17 -33 17 -14 0 -34 9 -45 20 -16 16 -33 20 -92 20 -71 0 -71 0 -53 20
30 33 6 45 -104 48 -90 3 -98 5 -94 22 7 25 -31 48 -103 62 -88 16 -88 16 -75
32 14 17 0 30 -72 64 -44 22 -48 26 -29 30 28 4 40 31 21 46 -8 6 -19 20 -25
31 -6 11 -29 26 -50 33 -67 21 -114 45 -114 56 0 6 -36 44 -80 85 -49 45 -80
81 -80 93 0 11 -23 46 -50 78 -49 56 -61 80 -40 80 29 0 3 40 -50 77 -33 24
-60 50 -60 58 0 8 -17 26 -37 40 -36 24 -37 25 -12 25 15 0 32 6 38 14 14 17
-3 37 -48 56 -17 6 -33 21 -37 32 -3 11 -28 30 -57 43 -29 13 -44 24 -35 24 9
1 20 5 23 11 11 18 -80 99 -165 145 -89 49 -120 72 -85 61 130 -37 200 -37
193 2 -3 18 -10 22 -173 96 -102 47 -107 51 -86 64 33 22 25 40 -21 52 -24 6
-61 19 -83 30 -24 11 -86 24 -153 31 l-113 12 47 18 c26 10 55 26 63 34 32 32
-7 42 -187 48 -134 4 -174 8 -202 23 -19 10 -61 20 -93 22 -49 4 -60 8 -67 27
-11 29 -31 36 -93 30 -29 -2 -117 -7 -197 -10 -127 -4 -143 -3 -126 10 21 16
15 45 -9 45 -8 0 -72 -11 -141 -25 -146 -29 -142 -29 -126 -13 7 7 12 21 12
31 0 17 -5 19 -42 14 -24 -3 -65 -13 -93 -21 -27 -8 -79 -22 -115 -31 -36 -10
-72 -19 -82 -22 -11 -3 -16 1 -15 14 3 27 -42 28 -123 4 -90 -28 -94 -27 -76
8 39 75 9 204 -56 239 -16 9 -66 44 -110 76 -90 66 -206 115 -338 142 -69 14
-125 16 -334 12 l-251 -5 -131 -36 c-143 -39 -204 -61 -294 -107 -33 -16 -66
-30 -74 -30 -8 0 -45 -16 -83 -36 -37 -20 -125 -62 -195 -93 -141 -62 -210
-106 -306 -196 -52 -49 -73 -78 -113 -161 -54 -111 -55 -112 -169 -139 -41 -9
-91 -21 -111 -26 -50 -12 -302 -181 -334 -223 -33 -44 -54 -129 -55 -224 0
-83 14 -118 61 -155 29 -22 30 -26 21 -60 -13 -48 0 -155 27 -209 11 -24 41
-68 67 -99 42 -53 51 -58 113 -73 37 -9 121 -18 187 -21 65 -2 180 -13 254
-24 74 -10 162 -22 195 -26 107 -12 355 -64 573 -120 160 -42 257 -73 390
-128 174 -72 269 -106 407 -145 39 -10 167 -49 285 -85 247 -75 469 -141 795
-237 248 -73 359 -116 615 -241 250 -122 387 -221 487 -352 26 -34 54 -67 63
-74 22 -18 47 -16 58 4 9 15 13 13 37 -15 15 -18 32 -32 39 -32 6 0 29 -29 49
-65 21 -36 44 -65 52 -65 9 0 15 -10 15 -26 0 -33 32 -30 40 4 4 20 9 17 35
-32 19 -35 39 -59 55 -65 18 -6 30 -23 44 -62 23 -67 32 -79 62 -79 19 0 24
-8 35 -57 16 -74 25 -93 47 -93 29 0 42 21 42 71 0 84 8 86 56 12 23 -38 59
-97 80 -133 115 -203 123 -212 167 -208 31 3 32 5 31 46 l-1 42 22 -20 c12
-11 30 -20 41 -20 11 -1 31 -18 47 -41 15 -22 40 -45 56 -50 16 -6 51 -38 79
-72 86 -105 115 -129 153 -125 36 3 38 7 24 68 -7 34 -4 32 90 -59 117 -112
178 -153 220 -149 18 1 48 -9 76 -25 47 -28 93 -35 105 -16 3 6 -9 32 -27 57
l-34 47 45 -35 c86 -68 162 -144 201 -202 30 -44 46 -58 64 -58 37 0 39 17 11
72 l-27 51 106 -98 c84 -78 113 -98 136 -98 39 0 45 8 31 45 -6 18 -10 33 -8
35 9 9 65 -23 106 -61 78 -73 170 -136 199 -136 49 0 141 -117 141 -179 0 -44
14 -61 52 -61 41 0 52 29 44 115 l-7 72 75 -75 c74 -74 76 -75 117 -69 41 5
45 3 82 -38 49 -57 92 -87 133 -94 26 -5 47 -25 116 -111 81 -102 85 -105 123
-105 36 0 40 3 43 28 2 16 -4 47 -13 69 l-16 41 48 -40 c70 -58 125 -93 146
-93 27 0 152 -96 258 -198 49 -46 61 -53 90 -50 34 3 34 3 31 47 -2 24 -8 55
-13 68 -5 12 -7 23 -5 23 2 0 27 -12 56 -27 43 -22 56 -25 80 -16 21 8 42 6
88 -5 44 -12 69 -14 89 -6 40 14 42 47 4 75 -44 32 -38 40 17 24 54 -17 98
-19 107 -6 6 11 -9 22 -49 36 -16 6 -32 16 -34 24 -3 10 0 12 14 7 38 -15 193
-20 209 -6 8 7 12 17 8 23 -4 6 4 7 23 2 16 -4 51 -9 78 -10 40 -3 55 -9 78
-34 32 -34 62 -40 76 -15 8 14 16 12 70 -15 41 -21 76 -31 105 -31 53 0 113
-39 155 -100 36 -53 68 -62 97 -26 l21 27 19 -21 c14 -16 27 -20 46 -16 19 4
32 -1 48 -18 18 -19 21 -34 21 -107 0 -101 6 -126 31 -134 12 -4 19 -18 21
-43 2 -28 8 -38 23 -40 20 -3 21 -10 20 -110 l0 -107 33 0 c28 0 33 -4 43 -35
6 -19 22 -60 34 -90 13 -30 28 -84 35 -120 6 -36 17 -76 24 -90 33 -63 67
-275 86 -535 12 -153 35 -313 52 -360 30 -78 -8 -316 -69 -438 -25 -51 -24
-67 8 -67 34 0 69 31 114 100 56 86 89 166 109 264 9 43 23 88 31 100 8 11 15
34 15 51 1 28 2 28 12 10 7 -11 17 -25 23 -31 6 -6 19 -47 29 -90 34 -152 57
-227 75 -243 13 -11 23 -42 31 -96 14 -95 37 -190 54 -225 7 -14 19 -38 27
-54 9 -18 27 -34 49 -41 32 -11 36 -17 62 -98 15 -48 31 -119 34 -158 5 -50
12 -72 24 -79 44 -24 60 33 60 220 0 103 4 150 12 158 29 29 -13 265 -63 364
-10 20 -23 69 -29 108 -6 39 -17 87 -26 108 -22 50 -65 185 -60 190 2 2 11
-19 21 -47 9 -27 22 -55 30 -61 17 -14 52 -86 59 -122 3 -16 8 -39 11 -52 3
-13 21 -43 40 -66 30 -35 35 -49 35 -91 0 -37 7 -60 26 -89 15 -22 27 -40 28
-40 0 0 19 -6 40 -14 37 -13 41 -19 77 -107 21 -52 39 -99 39 -105 0 -19 40
-48 50 -38 8 8 12 109 10 264 0 8 2 29 6 46 7 35 -33 151 -132 384 -43 102
-193 526 -194 548 0 2 21 -14 48 -35 26 -22 58 -47 72 -56 26 -18 75 -23 84
-9 3 5 -18 42 -45 83 -28 41 -61 97 -73 124 -13 28 -50 101 -84 163 -34 62
-62 117 -62 122 0 6 15 10 34 10 25 0 43 -9 68 -34 31 -31 33 -35 19 -55 -13
-20 -11 -28 15 -82 29 -61 84 -121 123 -134 15 -4 27 -27 47 -88 22 -67 27
-107 32 -219 5 -147 10 -158 50 -115 42 44 60 106 67 227 6 88 4 130 -8 180
-9 36 -18 83 -21 105 -3 22 -9 56 -12 75 l-7 35 37 -44 c20 -24 51 -51 68 -60
19 -10 35 -29 42 -51 24 -72 143 -220 176 -220 6 0 10 -13 10 -28 0 -54 115
-202 157 -202 5 0 15 -10 22 -22 71 -135 119 -213 131 -213 21 0 18 193 -3
267 -9 29 -21 77 -27 105 -7 30 -34 90 -62 135 -28 46 -70 121 -95 168 -24 47
-57 101 -72 120 -15 19 -40 60 -54 90 l-27 55 27 -32 c27 -29 84 -71 142 -102
14 -8 33 -18 41 -23 8 -4 21 -11 28 -14 7 -4 26 -18 41 -33 38 -35 110 -84
144 -99 15 -7 48 -12 72 -12 41 0 48 -4 122 -78 84 -85 113 -103 113 -73 0 31
-59 150 -94 189 -18 20 -38 53 -45 73 -16 49 -71 112 -140 159 -32 21 -85 70
-119 108 -34 38 -108 104 -164 147 -57 43 -119 92 -138 110 -19 18 -44 38 -55
44 -17 10 -16 11 10 5 17 -3 55 -15 86 -26 31 -11 70 -18 85 -16 55 6 39 32
-58 97 -192 128 -275 208 -232 225 24 9 15 22 -28 42 -37 17 -39 19 -18 24 33
8 49 36 29 52 -26 20 -31 48 -11 48 10 0 23 5 30 12 15 15 16 55 1 63 -6 4 -8
13 -5 20 3 8 -2 19 -10 26 -10 8 -11 15 -4 24 8 10 2 20 -27 41 -21 15 -42 32
-48 37 -6 6 60 7 175 3 211 -7 551 6 785 29 416 42 656 71 915 111 305 46 294
46 298 9 11 -114 71 -369 121 -510 21 -60 45 -130 54 -155 55 -162 162 -414
247 -585 60 -120 122 -264 156 -360 31 -88 60 -167 65 -176 4 -9 17 -51 29
-93 11 -43 27 -87 35 -99 7 -12 17 -40 21 -62 3 -22 11 -49 17 -60 6 -11 14
-42 18 -70 4 -27 19 -99 33 -160 45 -192 28 -291 -99 -560 -54 -116 -142 -259
-204 -335 -21 -25 -69 -90 -108 -145 -136 -192 -425 -450 -610 -544 -24 -12
-70 -39 -104 -61 -34 -22 -86 -49 -116 -60 -113 -42 -180 -93 -198 -149 -3
-12 -18 -24 -33 -27 -15 -3 -34 -8 -42 -10 -22 -5 -298 -45 -350 -50 -25 -3
-142 -9 -260 -14 -703 -31 -782 -43 -940 -143 -108 -67 -165 -119 -157 -141 6
-16 15 -18 55 -12 118 16 204 19 225 7 16 -8 315 -11 1181 -9 l1159 3 16 56
c9 31 25 68 36 83 l21 27 24 -38 c14 -21 47 -52 75 -70 73 -48 121 -41 80 13
-9 12 -14 42 -15 82 0 62 0 62 29 62 20 0 40 10 60 31 25 25 31 39 31 75 0
100 50 275 106 369 13 22 61 80 108 128 47 48 118 132 157 185 40 53 156 183
259 287 293 300 360 403 406 624 26 122 26 123 10 232 -9 60 -22 122 -30 137
-7 15 -32 113 -55 217 -23 105 -46 208 -51 230 -29 119 -41 277 -38 485 l3
215 47 152 c26 83 59 176 72 205 13 29 40 109 61 177 93 314 134 667 103 899
l-14 103 35 15 c19 8 69 23 110 34 42 11 96 26 121 35 25 9 77 23 115 32 39 8
141 42 227 76 l157 60 53 -57 c29 -32 69 -86 88 -122 52 -96 111 -164 242
-280 65 -58 118 -110 118 -115 0 -5 5 -9 11 -9 6 0 37 -20 69 -45 118 -91 230
-132 465 -171 261 -43 741 -52 860 -15 16 5 80 17 140 26 61 8 180 29 265 45
85 17 272 51 415 76 143 25 296 54 340 64 138 32 374 62 535 67 l156 6 28 -33
c15 -18 42 -63 60 -99 42 -83 143 -439 161 -569 15 -98 25 -162 44 -262 14
-72 31 -256 40 -450 5 -85 14 -168 20 -185 7 -16 17 -52 22 -80 11 -59 67
-148 110 -174 43 -26 109 -33 165 -16 45 13 52 12 168 -21 146 -42 249 -92
404 -194 245 -162 550 -505 628 -703 29 -74 175 -270 250 -334 84 -73 192
-141 246 -153 97 -24 132 15 58 64 -46 30 -113 112 -143 173 l-21 43 24 25
c22 24 24 33 22 117 -2 82 -5 98 -38 164 -39 79 -94 149 -124 159 -16 5 -20
15 -20 54 0 40 -9 62 -54 136 -67 112 -105 152 -151 161 -28 5 -35 11 -35 30
0 14 -17 41 -42 67 -24 24 -65 67 -91 95 -27 28 -69 61 -93 73 -25 12 -43 23
-41 25 6 6 77 -20 145 -55 34 -17 67 -31 73 -31 6 0 32 -15 58 -34 25 -18 64
-43 86 -54 94 -47 292 -83 302 -55 2 6 -20 22 -49 36 -66 31 -152 113 -142
136 19 41 15 89 -9 137 -45 88 -113 134 -196 134 -33 0 -42 6 -86 63 -58 73
-126 112 -213 123 -42 5 -61 13 -75 30 -33 42 -164 122 -212 130 -27 4 -45 12
-45 19 0 7 -4 15 -8 17 -4 1 -18 20 -31 40 -12 21 -27 38 -32 38 -5 0 -9 5 -9
10 0 6 43 10 110 10 95 0 116 3 162 24 63 29 105 63 92 75 -5 4 -48 3 -96 -2
-110 -13 -147 -4 -169 42 -9 19 -33 47 -54 62 -32 24 -48 29 -96 29 -53 0 -59
2 -71 27 -9 17 -40 40 -94 67 -45 23 -89 47 -98 55 -19 16 -43 92 -56 181 -5
36 -23 126 -39 200 -39 176 -58 310 -71 499 -13 183 -24 244 -55 291 -12 19
-43 67 -68 107 -52 81 -103 118 -196 139 -81 20 -248 17 -436 -6 -118 -14
-235 -21 -412 -22 -222 -2 -259 1 -356 21 -202 41 -240 63 -575 334 -63 51
-267 148 -381 181 -51 14 -107 34 -126 44 -33 17 -139 111 -133 117 6 6 148
76 176 86 14 5 74 39 133 74 59 36 112 65 118 65 21 0 489 361 589 454 69 65
120 104 157 121 31 13 98 49 151 80 114 67 200 107 291 134 38 11 154 53 258
92 105 39 269 99 365 133 96 35 265 99 375 143 110 45 268 104 350 131 270 91
406 142 595 222 222 93 736 343 870 422 52 31 214 116 360 189 146 72 333 171
415 219 83 48 249 142 370 210 121 68 283 162 360 210 77 48 169 105 205 126
36 20 130 79 210 130 80 51 184 110 231 132 47 21 110 55 140 74 30 19 99 58
154 88 55 30 110 65 123 77 13 13 72 48 130 77 59 30 168 92 242 139 75 46
183 107 240 134 58 27 157 82 220 123 113 72 352 215 520 310 47 27 117 72
155 100 38 28 145 89 239 137 94 47 236 127 316 177 80 49 255 146 390 215
135 68 288 150 340 181 151 91 642 333 865 427 143 60 404 177 474 212 42 21
146 63 231 94 151 54 402 162 567 246 45 22 130 59 188 81 58 22 147 61 198
87 51 25 126 60 167 78 41 18 127 55 190 83 63 27 159 70 213 96 54 26 159 71
235 100 75 30 162 65 192 79 30 13 216 79 412 146 197 67 460 160 585 207 298
113 375 139 513 174 63 16 162 45 220 65 58 20 159 47 225 60 120 24 214 51
355 99 76 26 352 91 620 144 80 17 253 44 385 61 367 49 819 113 826 117 3 2
88 13 189 24 101 11 187 23 192 26 5 4 134 10 286 15 152 4 338 15 412 24 202
24 656 37 1205 36 566 -1 683 -5 893 -32 84 -10 177 -19 205 -19 55 0 373 -34
468 -50 150 -26 220 -6 199 56 -13 37 -42 55 -156 94 -168 59 -217 69 -844
171 -192 31 -448 59 -630 69 -91 4 -273 18 -405 29 -184 15 -365 21 -780 25
-297 3 -549 8 -560 10 -11 2 -150 -2 -310 -9z m-17612 -4532 c-7 -2 -19 -2
-25 0 -7 3 -2 5 12 5 14 0 19 -2 13 -5z m-6998 -6236 c21 -26 36 -50 33 -53
-6 -5 -88 100 -88 113 0 8 4 4 55 -60z"/>
</g>
</svg>
