<?xml version="1.0" standalone="no"?>
<!DOCTYPE svg PUBLIC "-//W3C//DTD SVG 20010904//EN"
 "http://www.w3.org/TR/2001/REC-SVG-20010904/DTD/svg10.dtd">
<svg version="1.0" xmlns="http://www.w3.org/2000/svg"
 width="3891.000000pt" height="2048.000000pt" viewBox="0 0 3891.000000 2048.000000"
 preserveAspectRatio="xMidYMid meet">
<metadata>
Created by potrace 1.16, written by Peter Selinger 2001-2019
</metadata>
<g transform="translate(0.000000,2048.000000) scale(0.100000,-0.100000)"
fill="#000000" stroke="none">
<path d="M1260 20456 c-30 -13 -86 -42 -125 -64 -108 -65 -156 -51 -120 33 18
45 18 45 3 45 -7 0 -50 -34 -96 -75 -45 -41 -89 -75 -97 -75 -9 0 -23 16 -32
35 l-17 36 -51 -55 c-48 -51 -55 -55 -169 -91 -292 -90 -334 -133 -402 -407
-20 -79 -59 -226 -87 -328 -56 -204 -65 -269 -48 -346 15 -66 64 -134 97 -134
19 0 35 20 95 120 39 66 82 134 96 151 80 95 152 58 140 -73 -12 -129 -28
-204 -51 -238 -29 -46 -38 -70 -25 -70 7 0 9 -11 7 -25 -7 -33 19 -33 87 -1
58 27 111 80 151 151 65 116 128 196 236 302 124 121 144 131 235 120 58 -6
188 -71 278 -139 115 -86 383 -360 477 -488 325 -440 652 -1131 844 -1779 177
-598 299 -1202 418 -2076 83 -609 101 -781 156 -1525 85 -1139 130 -1487 250
-1948 130 -499 346 -1004 676 -1578 228 -399 364 -589 793 -1114 348 -424 401
-509 401 -635 0 -38 -7 -110 -16 -160 -13 -70 -15 -129 -11 -265 12 -381 95
-646 258 -825 35 -39 37 -47 73 -230 46 -241 68 -382 106 -675 17 -129 39
-283 50 -341 11 -58 20 -124 20 -147 0 -23 -22 -150 -50 -283 -67 -322 -98
-494 -171 -939 -68 -417 -72 -474 -46 -695 9 -77 21 -219 26 -315 15 -260 30
-297 114 -286 133 18 434 79 454 92 15 9 23 24 23 42 0 15 -23 137 -50 271
-28 135 -55 274 -60 310 -13 90 3 219 45 377 20 71 66 246 104 389 65 242 89
323 90 301 1 -4 -10 -74 -24 -155 -13 -80 -35 -227 -49 -326 -14 -99 -37 -254
-51 -345 -40 -265 -35 -320 49 -580 25 -74 61 -188 81 -253 41 -135 93 -255
124 -286 12 -12 31 -21 44 -21 33 0 432 232 451 262 8 13 -14 64 -101 235 -60
120 -120 244 -131 276 -28 73 -28 173 -2 282 74 313 208 819 255 965 73 227
127 492 127 619 l0 93 95 -103 c130 -141 254 -262 538 -523 132 -122 309 -288
395 -370 262 -250 358 -325 535 -413 218 -109 520 -210 830 -278 164 -36 320
-82 418 -124 59 -26 62 -37 61 -226 -2 -245 -42 -479 -112 -665 -55 -146 -52
-226 32 -807 75 -525 76 -555 51 -973 -15 -252 -28 -370 -47 -428 -16 -52 -94
-124 -158 -146 -30 -10 -70 -27 -87 -37 -18 -10 -60 -23 -93 -29 -118 -21
-184 -56 -268 -141 -73 -74 -136 -209 -118 -255 5 -14 12 -13 50 10 59 35 76
34 76 -4 0 -38 10 -38 39 1 24 33 75 59 114 59 16 0 34 -12 51 -34 15 -21 45
-42 73 -53 44 -17 85 -18 511 -18 l464 0 24 29 c24 28 25 28 31 7 7 -27 9 -27
41 10 53 64 128 76 163 28 12 -17 43 -41 68 -53 43 -20 65 -21 351 -24 429 -5
635 14 677 60 27 30 24 200 -6 343 -40 191 -69 275 -165 475 -155 322 -218
507 -291 860 -25 118 -63 274 -85 345 -22 72 -57 194 -78 272 -44 169 -49 150
89 335 96 129 193 270 273 401 27 42 54 77 61 77 27 0 459 -152 571 -201 184
-80 211 -89 260 -89 38 0 51 -5 73 -29 29 -31 76 -48 405 -141 191 -55 283
-89 661 -250 612 -260 1199 -470 2045 -734 674 -210 752 -227 2210 -496 936
-172 965 -175 1530 -174 394 0 460 3 905 37 675 52 867 76 1175 147 458 105
1241 348 1682 522 303 118 441 194 1113 606 807 495 998 641 1451 1109 254
263 420 417 623 582 709 573 1317 918 1856 1055 245 62 321 71 600 71 256 0
328 -6 505 -41 309 -62 665 -225 952 -435 50 -37 196 -175 363 -343 370 -373
505 -476 847 -641 551 -266 1172 -332 1798 -191 513 116 954 361 1303 726 102
106 188 215 352 446 83 117 316 356 429 439 334 246 708 397 1111 446 144 17
417 15 559 -5 540 -76 990 -353 1279 -784 162 -242 252 -510 264 -792 15 -325
-64 -565 -242 -745 -93 -94 -171 -147 -312 -215 -57 -27 -103 -54 -103 -60 0
-6 6 -20 13 -33 6 -12 12 -23 13 -25 1 -1 14 4 30 12 25 14 30 14 46 -1 11 -9
18 -11 18 -5 0 6 12 19 26 29 25 16 27 16 39 0 11 -15 14 -13 34 13 22 31 49
38 68 19 9 -9 14 -5 19 15 8 33 39 52 59 36 11 -9 15 -7 20 13 4 14 16 34 26
43 17 15 24 16 39 6 28 -17 30 -16 30 18 0 41 33 74 60 60 11 -6 20 -15 20
-20 0 -6 4 -10 9 -10 5 0 6 20 3 45 -7 65 35 109 68 70 21 -25 29 -17 19 17
-20 71 0 106 43 79 28 -17 30 -10 13 39 -15 43 -12 80 6 80 6 0 23 -7 39 -15
35 -18 36 -16 10 35 -27 53 -27 90 1 90 11 0 29 -5 41 -11 32 -17 31 -5 -3 49
-23 38 -30 58 -25 77 7 27 15 30 64 16 17 -5 32 -7 32 -3 0 3 -18 27 -41 54
-57 68 -52 91 20 98 l53 5 -56 52 c-32 30 -56 61 -56 73 0 24 36 35 86 25 48
-9 42 4 -31 63 -69 55 -81 86 -40 102 14 5 40 10 56 10 16 0 29 4 29 8 0 5
-28 24 -61 43 -97 54 -99 99 -4 119 30 6 55 13 55 16 0 2 -34 21 -76 41 -91
44 -112 74 -75 104 13 11 41 22 63 25 22 4 37 12 35 18 -2 6 -36 22 -75 36
-70 25 -112 51 -112 68 0 15 35 41 73 54 20 7 37 18 39 23 3 9 -51 25 -135 40
-24 4 -43 15 -53 31 -15 23 -15 26 0 43 9 10 34 26 56 36 22 10 40 21 40 25 0
10 -38 20 -80 20 -82 0 -139 34 -124 74 3 9 28 29 55 46 27 16 49 34 49 40 0
6 -37 10 -94 10 -52 0 -101 3 -110 6 -31 12 -18 51 29 91 25 20 45 41 45 46 0
6 -39 6 -94 2 -150 -11 -170 8 -91 85 25 24 45 48 45 52 0 12 -45 9 -122 -8
-121 -28 -152 9 -77 91 23 25 39 49 35 52 -4 4 -37 -1 -74 -11 -171 -48 -199
-26 -117 92 19 28 31 54 25 57 -5 3 -57 -13 -115 -35 -60 -23 -115 -38 -126
-35 -33 11 -33 44 0 108 17 33 31 64 31 68 0 18 -27 8 -110 -41 -147 -86 -198
-57 -139 79 12 29 19 54 16 57 -8 8 -43 -13 -116 -68 -77 -58 -109 -69 -128
-43 -16 23 -16 35 1 108 7 31 10 60 5 62 -4 3 -36 -21 -71 -53 -79 -73 -107
-92 -135 -92 -37 0 -46 31 -32 116 6 41 8 78 4 82 -4 4 -46 -34 -94 -84 -47
-50 -94 -94 -103 -97 -10 -4 -25 1 -34 10 -14 14 -15 30 -10 100 4 46 3 83 -2
83 -11 0 -61 -54 -112 -123 -46 -61 -66 -77 -99 -77 -31 0 -41 30 -41 119 0
64 -3 81 -15 81 -8 0 -42 -45 -76 -100 -55 -90 -89 -130 -111 -130 -18 0 -43
58 -53 122 -5 38 -14 69 -20 70 -5 1 -33 -44 -61 -101 -58 -116 -82 -146 -111
-137 -25 8 -38 37 -54 115 -6 34 -15 64 -20 67 -12 7 -34 -32 -70 -131 -36
-100 -53 -125 -81 -125 -21 0 -49 53 -68 133 -21 80 -39 58 -75 -90 -29 -114
-46 -145 -81 -141 -28 3 -40 21 -79 112 -18 42 -29 56 -36 49 -6 -6 -19 -62
-30 -124 -19 -112 -38 -159 -62 -159 -24 0 -56 31 -92 90 -55 91 -65 81 -65
-70 0 -110 -9 -143 -41 -161 -20 -10 -28 -5 -89 60 -80 85 -80 84 -69 -73 8
-116 1 -156 -29 -156 -24 0 -79 41 -119 88 -25 30 -34 35 -44 24 -11 -10 -9
-30 9 -110 26 -114 28 -155 7 -172 -23 -19 -56 -5 -119 50 -87 76 -91 70 -51
-78 28 -103 31 -152 13 -170 -19 -19 -32 -15 -96 33 -33 25 -65 45 -72 45 -17
0 -8 -43 30 -136 34 -86 36 -102 14 -111 -11 -4 -36 15 -80 58 -53 52 -66 61
-74 49 -11 -16 -10 -19 16 -158 13 -68 15 -95 7 -103 -18 -18 -40 -4 -75 47
-18 26 -40 56 -50 68 l-16 21 -12 -26 c-9 -19 -9 -52 -1 -128 10 -107 4 -147
-24 -158 -20 -7 -56 26 -96 89 -18 27 -37 47 -43 45 -16 -5 -19 -82 -6 -165
10 -64 10 -76 -5 -98 -9 -14 -24 -24 -33 -22 -21 4 -56 65 -83 146 -11 34 -27
62 -34 62 -22 0 -38 -94 -33 -194 6 -109 -1 -136 -36 -136 -31 0 -45 25 -76
130 -33 115 -29 108 -46 85 -22 -30 -35 -90 -43 -203 -8 -101 -18 -127 -46
-119 -21 7 -47 70 -64 154 -12 60 -23 88 -32 88 -20 0 -54 -104 -69 -207 -13
-94 -27 -125 -54 -115 -21 8 -33 40 -40 113 -14 130 -17 144 -31 144 -21 0
-73 -116 -90 -200 -22 -107 -30 -122 -63 -118 l-27 3 -9 128 c-7 96 -12 127
-23 127 -23 0 -83 -106 -115 -206 -26 -82 -33 -95 -51 -92 -33 5 -39 51 -22
153 9 49 18 100 21 111 11 42 -17 37 -68 -12 -37 -36 -64 -79 -104 -162 -30
-61 -61 -112 -68 -112 -44 0 -44 63 0 200 13 41 24 81 24 88 0 52 -152 -90
-214 -200 -36 -65 -57 -84 -78 -72 -19 12 -1 94 41 180 44 91 49 114 28 114
-30 0 -136 -81 -193 -145 -86 -99 -92 -105 -113 -105 -44 0 -30 54 49 191 34
58 49 94 43 100 -13 13 -106 -22 -164 -61 -24 -16 -75 -56 -113 -90 -50 -43
-78 -60 -98 -60 -15 0 -29 6 -29 13 -4 44 10 74 93 188 26 37 48 72 48 78 0 6
-11 11 -24 11 -50 0 -135 -37 -226 -98 -52 -35 -105 -68 -118 -73 -31 -12 -62
5 -62 35 0 29 24 61 118 158 89 91 92 114 14 104 -82 -12 -154 -37 -253 -87
-53 -27 -103 -49 -112 -49 -30 0 -47 12 -47 35 0 33 69 90 179 149 61 33 91
55 89 65 -9 45 -223 40 -367 -8 -51 -17 -101 -31 -110 -31 -29 0 -62 30 -59
53 5 38 79 68 305 127 25 6 43 17 43 25 0 20 -94 52 -193 66 -72 10 -104 9
-200 -5 -127 -18 -160 -13 -178 28 -24 52 33 91 187 127 163 39 163 39 158 53
-3 8 -24 22 -46 31 -87 34 -162 45 -326 45 -172 0 -209 7 -246 49 -46 51 15
108 204 189 73 32 133 62 134 67 0 5 -12 17 -29 25 -23 12 -66 15 -185 14
-136 0 -167 -4 -253 -27 -114 -32 -160 -34 -206 -9 -92 49 -38 124 181 253
117 68 116 83 -7 87 -115 4 -204 -16 -364 -80 -134 -54 -172 -58 -225 -23 -61
40 -16 120 149 267 61 54 110 104 110 111 0 38 -177 1 -320 -67 -49 -24 -120
-63 -156 -89 -119 -82 -168 -95 -218 -61 -20 14 -22 23 -18 55 7 54 56 155
134 277 88 138 80 156 -42 94 -93 -46 -170 -105 -285 -217 -63 -62 -125 -118
-137 -124 -35 -18 -107 -14 -126 7 -36 39 -12 146 75 334 45 99 54 138 30 138
-5 0 -40 -22 -78 -49 -90 -63 -203 -183 -282 -298 -72 -106 -92 -123 -144
-123 -28 0 -40 5 -49 22 -19 36 -4 162 36 298 44 147 46 163 22 168 -25 5
-163 -135 -219 -223 -25 -38 -69 -116 -98 -173 -55 -109 -80 -132 -139 -132
-90 0 -93 201 -5 471 19 58 34 109 34 112 0 23 -47 -1 -99 -49 -127 -117 -202
-246 -270 -459 -23 -72 -47 -137 -54 -145 -39 -51 -112 -65 -146 -31 -53 53
-65 229 -31 434 12 69 17 124 12 129 -22 22 -129 -106 -190 -227 -52 -105 -71
-166 -97 -325 -27 -159 -39 -184 -99 -214 -37 -18 -38 -18 -64 1 -17 13 -36
45 -52 89 -24 66 -25 79 -24 272 2 228 -1 235 -61 155 -52 -70 -112 -198 -135
-289 -13 -46 -25 -138 -30 -221 -5 -79 -14 -155 -22 -170 -7 -15 -30 -37 -51
-48 -34 -18 -39 -19 -64 -5 -73 39 -108 197 -98 438 6 155 5 164 -12 160 -26
-4 -118 -149 -153 -240 -46 -118 -61 -206 -69 -391 l-6 -169 -33 -29 c-71 -63
-126 -18 -180 149 -20 60 -34 157 -50 347 -10 121 -23 119 -89 -13 -87 -175
-109 -305 -91 -549 12 -158 11 -164 -8 -190 -12 -16 -32 -34 -46 -42 -78 -44
-147 116 -168 387 -18 236 -20 244 -38 240 -24 -4 -107 -177 -131 -269 -32
-125 -42 -224 -40 -415 1 -153 -2 -188 -16 -218 -21 -44 -50 -66 -86 -66 -59
0 -95 119 -129 422 -21 189 -26 218 -40 218 -28 0 -96 -152 -131 -293 -26
-105 -36 -344 -20 -483 13 -109 7 -140 -31 -182 -26 -27 -69 -29 -91 -4 -52
57 -89 199 -112 427 -9 88 -18 162 -21 164 -10 10 -39 -17 -61 -55 -37 -65
-82 -200 -99 -298 -19 -109 -15 -242 12 -368 23 -111 15 -143 -35 -143 -29 0
-37 5 -53 36 -41 79 -51 168 -44 407 6 197 5 223 -9 229 -48 18 -178 -200
-237 -397 -14 -47 -22 -112 -27 -232 -6 -147 -9 -171 -27 -195 -27 -36 -65
-50 -101 -37 -41 13 -70 81 -82 186 -9 82 -8 115 15 385 6 72 5 83 -10 89 -24
9 -66 -33 -131 -131 -103 -154 -149 -287 -166 -480 -16 -192 -19 -203 -45
-234 -32 -38 -78 -49 -105 -25 -47 43 -60 172 -45 457 9 164 9 167 -11 167
-58 0 -214 -251 -257 -415 -9 -33 -21 -123 -27 -200 -13 -171 -29 -220 -81
-247 -78 -41 -109 3 -115 167 -3 63 2 180 11 272 8 89 13 169 10 178 -14 37
-60 5 -132 -92 -103 -140 -165 -300 -177 -460 -11 -141 -16 -164 -40 -189 -24
-24 -77 -32 -101 -16 -57 38 -45 186 36 449 23 73 42 145 43 160 7 106 -240
-108 -347 -300 -19 -34 -53 -115 -75 -179 -50 -147 -64 -174 -104 -198 -71
-44 -136 -14 -138 63 -4 126 15 239 71 422 22 72 40 138 40 148 0 53 -79 14
-188 -92 -126 -122 -196 -252 -258 -474 -32 -116 -54 -154 -100 -173 -71 -30
-98 3 -96 115 2 96 23 205 72 380 47 166 48 181 18 181 -32 0 -73 -27 -147
-95 -126 -117 -198 -248 -256 -465 -39 -145 -47 -165 -75 -180 -110 -59 -104
134 15 477 30 87 55 168 55 181 0 34 -37 28 -109 -18 -160 -104 -257 -236
-341 -465 -44 -120 -70 -155 -116 -155 -21 0 -42 8 -55 21 -19 19 -21 29 -16
90 8 92 65 258 142 413 67 133 77 166 48 166 -44 0 -193 -109 -283 -207 -73
-80 -128 -161 -204 -303 -31 -58 -66 -113 -77 -122 -22 -18 -65 -23 -86 -10
-58 37 16 273 169 535 46 79 42 100 -14 79 -154 -58 -339 -249 -462 -477 -21
-38 -45 -78 -54 -89 -42 -46 -102 -39 -102 13 0 72 76 249 174 405 31 48 56
94 56 102 0 57 -205 -62 -318 -184 -51 -56 -130 -169 -162 -232 -40 -80 -78
-108 -108 -78 -36 36 5 152 116 326 82 130 87 148 40 138 -97 -19 -273 -158
-377 -295 -59 -79 -98 -104 -128 -85 -67 42 -25 134 176 389 74 93 26 98 -144
13 -91 -45 -158 -93 -259 -186 -86 -79 -125 -98 -163 -80 -14 7 -31 20 -36 29
-18 29 19 101 106 204 127 150 122 144 110 156 -28 28 -221 -62 -357 -165
-123 -94 -151 -104 -212 -81 -100 38 -75 117 85 268 45 41 81 80 81 85 0 18
-28 21 -92 7 -121 -26 -187 -57 -308 -145 -36 -26 -80 -55 -99 -65 -43 -22
-95 -13 -117 20 -26 39 8 97 119 205 53 52 93 98 90 103 -10 16 -110 -2 -191
-33 -49 -19 -111 -56 -171 -100 -52 -39 -105 -73 -118 -76 -29 -8 -73 20 -73
44 0 33 55 106 135 180 95 87 93 101 -9 82 -82 -15 -171 -57 -256 -120 -85
-63 -114 -74 -148 -58 -17 8 -28 23 -30 39 -3 28 42 75 152 157 31 23 54 47
51 52 -9 15 -121 12 -192 -5 -35 -8 -99 -33 -143 -55 -79 -40 -103 -46 -134
-34 -22 9 -20 46 5 78 11 14 56 52 100 83 43 31 79 60 79 64 0 13 -32 19 -108
19 -60 0 -96 -7 -162 -31 -47 -16 -99 -35 -117 -41 -36 -12 -87 3 -97 29 -9
23 20 75 69 123 25 24 45 50 45 57 0 39 -94 40 -242 2 -93 -23 -118 -24 -163
-5 -54 23 -46 64 28 143 20 21 27 37 23 49 -6 14 -16 16 -74 11 -37 -3 -100
-15 -140 -26 -80 -22 -121 -19 -147 9 -22 25 -13 52 37 106 57 62 48 79 -37
71 -35 -3 -92 -13 -127 -22 -70 -19 -121 -15 -149 11 -27 25 -24 44 16 88 19
22 35 43 35 47 0 21 -102 26 -189 9 -41 -8 -60 -7 -87 5 -45 18 -44 44 3 95
28 32 33 44 24 53 -12 12 -87 15 -193 6 -49 -3 -61 -1 -79 17 -24 24 -18 42
28 98 19 23 21 31 12 43 -10 11 -36 14 -125 11 -99 -3 -114 -1 -133 16 -28 25
-27 34 10 84 17 23 28 46 24 52 -3 6 -49 10 -106 10 -75 0 -106 4 -124 16 -33
21 -32 58 1 101 43 57 30 67 -81 61 -148 -8 -174 26 -83 106 50 44 52 47 35
63 -15 15 -37 18 -130 19 -140 1 -137 0 -137 23 0 18 43 62 106 107 22 17 26
25 17 34 -19 20 -103 31 -183 24 -66 -5 -78 -4 -100 14 -21 17 -23 23 -12 46
6 14 39 47 72 73 98 76 79 90 -122 92 -114 1 -130 3 -148 21 -11 11 -20 24
-20 30 0 25 67 80 149 123 50 27 91 53 91 58 0 33 -191 43 -296 15 -87 -23
-120 -21 -149 9 -14 13 -25 31 -25 39 0 31 63 85 165 141 58 32 104 63 102 69
-14 42 -204 48 -354 11 -96 -24 -105 -25 -133 -10 -43 22 -41 63 5 104 45 39
74 54 214 111 63 25 116 51 119 58 7 22 -51 34 -178 39 -116 5 -135 3 -252
-26 -135 -33 -166 -32 -188 9 -13 24 -4 44 37 81 37 35 93 63 237 119 66 25
121 51 123 57 7 19 -28 31 -123 44 -112 15 -218 7 -355 -27 -110 -27 -145 -27
-173 2 -24 23 -19 49 13 87 38 43 106 80 256 138 73 28 121 53 123 62 5 24
-56 38 -188 44 -120 6 -193 -4 -349 -47 -77 -21 -103 -19 -133 8 -55 47 24
123 237 227 120 58 155 80 153 93 -4 23 -42 29 -176 31 -124 1 -214 -14 -358
-60 -114 -36 -157 -37 -189 -4 -30 29 -31 40 -5 83 43 69 178 135 409 197 79
21 116 36 116 46 0 58 -323 78 -505 30 -42 -10 -118 -35 -169 -55 -125 -48
-183 -48 -202 1 -14 36 10 81 73 138 65 59 169 113 333 170 74 26 120 48 120
56 0 25 -67 38 -193 38 -181 1 -300 -27 -493 -115 -115 -53 -162 -57 -204 -18
-23 21 -26 31 -21 57 21 103 156 205 421 318 154 65 153 87 -5 96 -175 10
-375 -42 -588 -152 -142 -74 -186 -82 -227 -40 -29 28 -30 43 -10 90 38 91
186 206 408 316 70 35 127 69 127 77 0 53 -253 37 -455 -30 -49 -16 -163 -68
-252 -114 -184 -95 -228 -105 -279 -61 -52 45 -22 123 83 210 88 73 174 117
416 217 43 18 77 38 77 45 0 22 -66 35 -171 35 -202 0 -396 -55 -636 -181
-162 -84 -203 -95 -262 -64 -74 38 -50 116 72 232 69 65 149 119 332 220 39
21 70 45 70 53 0 33 -130 34 -279 4 -147 -30 -309 -100 -471 -204 -117 -74
-177 -87 -219 -44 -24 24 -19 56 16 109 58 88 210 195 413 291 69 32 115 60
115 68 0 22 -59 30 -174 22 -177 -11 -309 -53 -553 -177 -186 -95 -219 -104
-288 -75 -136 57 -1 218 313 375 72 36 122 67 119 74 -11 34 -204 27 -362 -13
-51 -13 -145 -52 -260 -110 -99 -50 -196 -93 -216 -96 -48 -8 -106 12 -126 42
-13 21 -14 29 -2 57 33 79 133 159 317 251 65 33 112 62 109 69 -12 38 -221
25 -372 -24 -85 -27 -130 -49 -300 -144 -80 -45 -151 -53 -198 -22 -83 54 23
182 233 283 66 32 120 62 120 66 0 30 -156 37 -291 13 -99 -17 -146 -34 -298
-109 -124 -61 -174 -70 -236 -40 -85 40 -33 121 161 251 138 93 145 113 39
113 -135 0 -271 -39 -431 -125 -80 -42 -113 -55 -147 -55 -48 0 -87 27 -87 61
0 32 85 114 192 186 126 86 127 99 3 96 -113 -3 -222 -31 -350 -89 -132 -60
-144 -63 -185 -50 -27 8 -36 17 -38 37 -4 39 51 82 187 145 106 50 113 56 99
71 -12 12 -42 17 -115 21 -112 5 -233 -14 -338 -53 -79 -30 -105 -31 -136 -6
l-24 19 21 28 c24 33 66 56 182 99 47 17 88 37 90 43 12 37 -224 55 -348 27
-122 -27 -166 -30 -195 -11 -33 22 -32 56 3 89 23 22 132 78 195 100 9 4 17
11 17 17 0 39 -199 46 -340 11 -106 -26 -136 -22 -165 23 -13 19 -14 29 -5 45
13 25 99 70 193 100 37 13 67 27 67 32 0 15 -41 27 -134 40 -83 12 -113 10
-292 -17 -34 -5 -45 -2 -68 18 -58 49 -12 86 162 133 63 16 114 35 115 40 2
15 -45 34 -125 52 -57 12 -107 14 -227 9 -109 -5 -158 -3 -167 5 -17 14 -18
53 -1 67 22 19 121 41 207 47 112 8 130 12 130 31 0 18 -118 75 -205 98 -33 9
-109 19 -170 22 -60 3 -120 7 -132 10 -29 6 -57 47 -48 73 12 37 73 51 233 51
108 0 153 4 166 13 18 13 17 15 -13 36 -47 34 -169 87 -240 106 -36 9 -111 23
-169 30 -120 16 -152 32 -152 76 0 52 42 62 244 57 191 -3 204 2 134 52 -95
70 -226 120 -376 144 -110 17 -142 34 -142 75 0 54 79 66 308 48 121 -10 132
1 55 58 -81 59 -190 105 -326 140 -98 24 -135 38 -149 55 -24 29 -23 67 1 80
51 27 211 2 348 -55 74 -30 73 -29 73 -10 0 23 -85 111 -155 160 -63 45 -180
106 -278 145 -65 25 -97 59 -97 101 0 46 36 63 123 56 66 -5 118 -20 309 -93
81 -32 74 -5 -28 106 -79 84 -164 143 -318 220 -95 47 -135 73 -146 92 -24 44
-5 62 66 66 75 4 174 -20 289 -69 50 -22 96 -39 103 -39 25 0 11 31 -41 92
-76 91 -172 159 -334 238 -138 67 -163 87 -163 128 0 57 160 39 350 -40 52
-22 107 -45 122 -51 15 -6 30 -8 34 -4 11 11 -44 83 -119 153 -81 77 -161 130
-304 203 -123 63 -166 105 -161 159 2 29 8 38 30 46 46 16 186 -26 346 -104
139 -68 172 -79 172 -62 0 22 -66 105 -142 178 -100 97 -176 152 -325 234
-129 71 -173 113 -173 165 0 29 4 36 26 41 76 19 195 -16 416 -123 87 -42 161
-74 164 -70 17 16 -29 81 -126 177 -113 114 -209 183 -386 278 -146 79 -162
90 -180 123 -71 138 107 130 457 -22 76 -32 140 -59 143 -59 3 0 6 9 6 21 0
32 -180 205 -289 278 -52 34 -164 96 -248 138 -152 74 -203 113 -203 153 0 86
185 57 519 -81 51 -21 100 -39 107 -39 32 0 9 38 -68 114 -101 100 -233 189
-387 263 -64 30 -149 71 -189 90 -105 50 -144 122 -87 159 51 34 212 1 449
-90 65 -25 124 -46 132 -46 28 0 13 32 -38 84 -119 117 -289 224 -508 318
-154 66 -203 106 -198 165 3 33 8 40 40 56 57 28 195 32 387 13 180 -19 204
-15 149 27 -99 76 -285 154 -513 217 -166 46 -198 61 -219 103 -43 91 53 126
372 134 143 4 202 9 199 17 -6 20 -140 84 -252 121 -60 20 -177 49 -259 65
-162 32 -209 50 -239 91 -61 84 72 129 379 129 108 0 174 4 174 10 0 26 -164
103 -309 145 -47 14 -150 36 -229 50 -159 27 -206 45 -227 86 -19 37 -11 56
36 79 65 34 157 50 317 57 83 3 152 9 152 13 0 29 -152 94 -285 121 -49 10
-157 22 -238 27 -123 8 -153 13 -175 29 -33 24 -39 58 -17 83 36 40 208 80
341 80 98 0 164 10 164 25 0 14 -88 55 -180 83 -95 29 -186 42 -355 51 -159 8
-197 19 -211 63 -17 56 96 100 304 118 172 15 194 19 189 33 -5 18 -111 57
-212 79 -58 12 -148 21 -255 24 -182 6 -223 14 -246 49 -21 32 -7 55 53 87 66
36 135 54 293 78 74 12 139 25 143 29 11 11 -31 27 -118 47 -49 12 -147 18
-331 23 -238 5 -264 8 -283 25 -60 55 9 99 274 176 61 17 114 35 119 40 39 37
-251 53 -461 25 -120 -17 -139 -17 -162 -4 -38 21 -40 61 -4 87 41 29 105 60
227 111 59 25 107 51 105 56 -3 6 -62 10 -154 9 -127 -1 -168 -5 -265 -28
-122 -29 -166 -28 -195 3 -37 42 4 78 180 161 58 27 105 54 105 61 0 16 -251
5 -335 -15 -172 -41 -175 -41 -203 -25 -16 9 -28 25 -30 40 -4 34 56 88 179
160 87 52 98 62 80 73 -17 11 -196 -26 -296 -61 -55 -19 -121 -41 -147 -50
-38 -13 -52 -14 -73 -5 -46 21 -34 56 45 131 39 36 70 70 70 74 0 18 -77 3
-210 -43 -80 -27 -161 -50 -180 -50 -68 0 -77 39 -29 114 16 27 27 52 22 57
-4 4 -33 -2 -63 -15z m9576 -19091 c23 -44 73 -156 109 -250 76 -193 142 -339
197 -437 21 -37 38 -71 38 -76 0 -14 -64 -70 -90 -77 -14 -4 -61 -22 -105 -40
-44 -18 -102 -36 -130 -40 -63 -9 -139 -45 -203 -95 l-49 -40 -6 48 c-4 26 -9
135 -13 242 -6 195 0 320 32 600 14 128 58 373 70 392 7 11 90 -114 150 -227z"/>
</g>
</svg>
