<?xml version="1.0" standalone="no"?>
<!DOCTYPE svg PUBLIC "-//W3C//DTD SVG 20010904//EN"
 "http://www.w3.org/TR/2001/REC-SVG-20010904/DTD/svg10.dtd">
<svg version="1.0" xmlns="http://www.w3.org/2000/svg"
 width="4307.000000pt" height="1811.000000pt" viewBox="0 0 4307.000000 1811.000000"
 preserveAspectRatio="xMidYMid meet">
<metadata>
Created by potrace 1.16, written by Peter Selinger 2001-2019
</metadata>
<g transform="translate(0.000000,1811.000000) scale(0.100000,-0.100000)"
fill="#000000" stroke="none">
<path d="M41420 18062 l-1415 -44 -2362 -639 -2363 -639 -2312 -1103 -2313
-1104 -840 -480 -840 -480 -1060 -511 -1060 -510 -1315 -336 -1315 -336 -1435
-174 c-1190 -145 -1700 -213 -2985 -395 -1689 -240 -1889 -267 -2685 -366
-415 -51 -739 -100 -1441 -216 -498 -82 -912 -149 -918 -149 -7 0 6 24 28 52
22 29 38 54 36 56 -2 2 -443 -139 -705 -226 -8 -3 14 25 50 62 36 37 58 65 50
62 -8 -3 -193 -61 -410 -130 -303 -95 -1230 -413 -1750 -601 l-45 -16 35 38
c19 21 60 65 90 97 30 32 47 56 37 53 -78 -28 -501 -206 -537 -227 -25 -15
-76 -44 -115 -65 -38 -21 -236 -132 -439 -247 -203 -115 -375 -212 -383 -215
-8 -3 2 21 22 53 19 33 35 62 35 67 0 4 -154 -70 -342 -164 -456 -228 -600
-283 -1060 -404 l-358 -95 -443 30 -442 30 -587 255 -587 255 -661 140 -660
141 -569 -75 -569 -75 -343 -131 c-264 -101 -380 -151 -509 -220 -98 -52 -193
-95 -231 -105 -35 -9 -72 -18 -81 -21 -12 -4 -30 16 -67 73 -27 43 -65 92 -83
110 l-33 31 -100 -37 c-91 -35 -100 -37 -103 -20 -3 19 -10 22 -85 39 l-49 10
-99 -60 c-93 -56 -113 -63 -277 -104 -97 -25 -231 -52 -297 -61 -117 -16 -122
-18 -217 -75 -93 -57 -111 -63 -389 -140 l-291 -81 -197 -108 c-192 -106 -199
-109 -278 -116 l-80 -7 -124 -124 -124 -124 -48 0 -48 0 -165 -336 -164 -336
60 -352 c33 -193 63 -364 66 -379 4 -20 27 -44 80 -83 72 -53 74 -56 94 -127
12 -39 26 -88 32 -107 9 -30 218 -351 252 -388 10 -10 71 -8 311 12 l300 24
340 112 340 112 502 24 503 24 892 -165 893 -166 840 16 840 15 715 -248 715
-249 754 -134 754 -134 91 -120 91 -120 445 -187 445 -186 96 -1 97 -1 227
-235 c216 -224 237 -242 404 -360 97 -68 185 -131 196 -139 19 -15 15 -21
-116 -148 -74 -73 -208 -222 -297 -330 -149 -181 -179 -212 -384 -390 -190
-165 -232 -207 -285 -284 -53 -75 -78 -100 -160 -160 l-98 -70 -32 -90 c-17
-49 -33 -93 -35 -97 -2 -4 -30 -15 -63 -23 -57 -15 -97 -41 -364 -240 -1 -2
-17 -54 -33 -116 l-30 -113 -164 -232 -164 -233 -76 -276 c-41 -152 -73 -278
-71 -280 2 -2 77 111 167 252 l163 256 228 214 c227 212 229 213 289 225 l60
12 124 166 c118 157 186 236 186 215 0 -5 -16 -51 -35 -102 -30 -79 -35 -105
-35 -177 l0 -84 -94 -114 c-93 -112 -94 -114 -122 -218 l-28 -104 -88 -100
-89 -100 2 -101 2 -100 -78 -190 c-69 -167 -92 -209 -195 -364 -64 -96 -120
-182 -125 -190 -11 -17 -5 -14 203 129 l151 104 158 245 c86 134 165 249 175
256 11 6 36 65 64 150 42 124 55 152 118 241 61 86 77 117 110 218 23 72 54
144 79 183 22 35 42 62 44 60 2 -1 -11 -63 -29 -137 -20 -86 -40 -145 -55
-165 -20 -27 -23 -42 -23 -128 l0 -97 -55 -71 c-54 -69 -55 -71 -55 -138 0
-38 4 -71 9 -75 14 -8 -50 -188 -99 -278 -23 -43 -40 -80 -38 -82 3 -3 45 37
94 88 63 64 110 124 153 197 35 58 73 116 85 130 15 17 30 58 45 128 15 68 39
137 72 206 34 72 56 137 74 217 13 63 48 179 77 258 47 128 56 145 82 156 24
10 46 44 115 172 l86 160 210 223 c191 204 244 252 612 562 222 187 407 347
412 356 5 9 25 71 45 138 35 118 36 125 36 288 l0 167 -146 260 c-80 143 -143
263 -141 266 3 3 268 1 589 -3 l583 -9 970 162 c534 90 979 164 989 165 16 3
24 -12 48 -82 l29 -85 307 -209 c169 -115 555 -384 859 -598 l552 -389 329
-450 330 -450 -49 -127 c-34 -88 -56 -164 -70 -246 -11 -66 -23 -124 -27 -130
-3 -6 -106 -142 -229 -302 -208 -271 -236 -303 -415 -475 -106 -102 -212 -202
-235 -223 -32 -28 -98 -60 -275 -132 -128 -53 -238 -100 -244 -105 -6 -5 -30
-58 -53 -119 l-42 -109 -199 -135 c-109 -75 -204 -138 -212 -141 -7 -3 -134
-18 -281 -35 -229 -26 -306 -30 -526 -30 -156 0 -261 -4 -267 -10 -6 -6 -71
-3 -189 9 l-180 19 -190 -99 -190 -100 -51 -72 -52 -72 65 -3 c60 -3 68 0 112
31 41 30 64 37 187 59 102 18 147 22 168 15 18 -6 24 -12 16 -17 -9 -6 -9 -23
2 -76 l14 -69 1110 -3 1110 -2 185 113 c128 78 243 159 376 266 l192 154 6 76
c10 123 17 127 49 29 l27 -86 118 -91 c105 -80 124 -91 172 -97 l53 -7 -29 35
c-17 20 -63 73 -102 117 -65 72 -73 86 -73 121 0 40 0 40 39 40 38 0 40 2 72
65 25 47 31 69 24 79 -5 8 -27 39 -49 70 l-38 54 11 80 c5 43 8 95 4 115 -5
34 2 44 291 380 268 312 316 363 513 542 120 108 221 207 225 219 4 11 28 155
54 319 41 263 45 300 32 315 -8 9 -84 100 -169 202 l-153 184 -212 382 -211
382 -11 495 -10 496 -42 81 c-24 44 -41 82 -39 84 2 2 26 16 53 31 48 28 49
28 63 9 8 -10 158 -222 334 -470 175 -248 325 -456 331 -462 7 -5 222 -96 478
-201 l465 -192 758 -105 759 -105 412 -143 411 -142 270 -171 270 -170 155
-189 c86 -104 231 -290 323 -414 l167 -225 40 -126 c22 -69 76 -250 119 -403
l80 -278 -24 -226 c-14 -125 -23 -232 -21 -237 5 -13 169 -115 185 -115 14 0
14 -15 -4 -185 -8 -77 -15 -148 -15 -157 0 -9 -35 -44 -78 -77 l-79 -59 -244
-21 c-325 -28 -442 -27 -645 5 l-164 25 -217 -45 c-119 -25 -217 -47 -218 -48
-1 -2 -45 -54 -99 -116 l-98 -112 73 0 c68 0 78 3 167 50 l94 51 136 -8 136
-8 13 -45 c6 -25 17 -64 23 -87 l11 -43 680 0 680 0 194 163 193 162 11 65 c6
36 19 117 28 180 l18 114 76 -178 76 -179 -39 -84 -39 -84 26 -80 27 -81 234
4 c181 2 237 6 243 16 4 7 13 43 20 80 l12 67 -51 125 c-46 112 -55 147 -86
334 l-35 210 -189 449 c-185 438 -192 451 -252 521 -34 39 -63 72 -63 73 -1 2
-37 8 -81 14 -87 13 -95 17 -117 71 l-16 37 52 -5 c37 -4 87 -23 173 -66 l121
-61 132 7 132 7 39 42 39 42 -57 6 c-31 4 -89 7 -129 8 -80 1 -67 -9 -146 111
-42 63 -43 64 -120 88 l-79 23 -34 -20 -34 -20 0 49 c0 55 14 46 -119 80 l-38
10 -7 66 c-6 63 -10 70 -61 128 l-55 61 -40 170 c-26 110 -51 255 -70 409
l-29 240 -136 203 -135 203 -232 116 c-128 64 -416 196 -639 294 l-406 177
-193 156 -194 157 -210 375 -211 376 -298 164 c-164 90 -325 183 -357 207
l-59 43 -1 352 0 352 269 135 c148 75 606 325 1017 557 l749 421 1595 619
1595 618 1225 628 1226 628 1319 1044 c726 574 1901 1509 2610 2077 l1290
1034 1220 726 1220 726 2240 855 2240 855 1455 179 c800 98 1464 180 1474 181
14 2 23 17 33 53 24 93 39 75 -172 198 l-40 23 -1415 -44z"/>
</g>
</svg>
