<?xml version="1.0" standalone="no"?>
<!DOCTYPE svg PUBLIC "-//W3C//DTD SVG 20010904//EN"
 "http://www.w3.org/TR/2001/REC-SVG-20010904/DTD/svg10.dtd">
<svg version="1.0" xmlns="http://www.w3.org/2000/svg"
 width="2883.000000pt" height="1961.000000pt" viewBox="0 0 2883.000000 1961.000000"
 preserveAspectRatio="xMidYMid meet">
<metadata>
Created by potrace 1.16, written by Peter Selinger 2001-2019
</metadata>
<g transform="translate(0.000000,1961.000000) scale(0.100000,-0.100000)"
fill="#000000" stroke="none">
<path d="M23060 19588 c-19 -12 -56 -38 -82 -60 -35 -29 -56 -38 -83 -38 -21
0 -49 -9 -66 -21 -35 -24 -98 -108 -124 -162 -13 -29 -22 -36 -34 -31 -9 5
-44 10 -77 12 l-62 4 -45 -59 c-71 -93 -68 -92 -129 -40 -85 71 -85 71 -150
24 -31 -23 -57 -48 -57 -54 -1 -7 -10 -18 -21 -25 -11 -7 -20 -18 -20 -24 0
-7 -8 -14 -17 -16 -10 -3 -31 -29 -46 -59 -15 -30 -32 -61 -37 -69 -5 -8 -17
-32 -26 -54 -10 -21 -41 -63 -69 -93 l-52 -54 -19 23 c-36 45 -83 72 -126 73
-38 1 -44 -3 -104 -75 -35 -41 -84 -97 -108 -125 -25 -27 -76 -86 -113 -130
-75 -88 -112 -124 -129 -125 -6 0 -28 -13 -49 -30 -21 -16 -43 -30 -49 -30 -6
0 -31 -16 -55 -35 -24 -19 -48 -35 -52 -35 -5 0 -9 -9 -9 -20 0 -11 -4 -20
-10 -20 -13 0 -13 -66 0 -110 6 -19 12 -56 14 -81 2 -25 12 -63 23 -85 23 -45
17 -87 -12 -93 -11 -2 -33 -14 -49 -28 -15 -13 -60 -39 -100 -57 -61 -29 -74
-39 -89 -74 -10 -23 -21 -58 -24 -79 -3 -21 -13 -46 -22 -57 -12 -14 -16 -41
-17 -120 0 -55 -4 -116 -8 -134 -9 -36 22 -252 36 -252 4 0 8 -7 8 -15 0 -9 9
-35 20 -57 11 -23 20 -49 20 -57 0 -9 22 -38 49 -66 40 -41 47 -54 41 -71 -5
-13 -4 -26 2 -32 7 -7 4 -19 -11 -37 l-21 -27 20 -28 c11 -16 20 -31 20 -35 0
-4 11 -16 24 -26 14 -11 28 -28 31 -39 3 -10 16 -22 28 -26 25 -7 103 -67 132
-101 14 -16 37 -26 78 -33 68 -11 75 -15 87 -46 9 -23 11 -24 97 -18 55 4 145
0 238 -10 83 -8 204 -16 270 -17 66 -1 150 -6 185 -11 36 -5 94 -11 130 -14
93 -6 129 -11 180 -24 25 -6 63 -13 85 -17 22 -3 45 -9 50 -13 6 -4 24 -10 41
-13 24 -5 36 -1 50 14 12 14 26 18 43 14 14 -2 55 -6 91 -7 36 -1 70 -5 76 -9
6 -5 35 -9 65 -10 30 -1 59 -4 64 -8 6 -3 25 -6 42 -7 25 -1 43 -12 78 -50 25
-27 49 -60 52 -74 10 -42 47 -100 64 -100 8 0 26 -11 38 -24 26 -27 107 -52
124 -38 7 6 31 13 54 17 48 8 93 50 113 107 12 31 56 68 83 68 6 0 20 -9 32
-20 12 -11 47 -31 80 -44 58 -24 59 -24 80 -91 12 -37 27 -70 33 -74 6 -3 14
-19 17 -34 4 -15 11 -30 16 -33 5 -3 9 -16 9 -30 0 -14 7 -27 15 -30 8 -3 27
-32 41 -64 14 -32 32 -61 38 -63 7 -3 18 -23 26 -46 15 -46 109 -150 155 -170
17 -7 42 -20 57 -27 55 -29 108 -11 177 61 19 19 37 35 41 35 14 0 30 -53 30
-102 0 -63 19 -137 51 -200 5 -10 9 -29 9 -42 0 -14 4 -28 10 -31 5 -3 14 -23
20 -44 9 -36 40 -61 74 -61 7 0 30 -11 51 -26 27 -18 45 -23 65 -19 29 6 162
127 173 158 3 9 12 17 19 17 15 0 38 -45 38 -72 0 -21 67 -72 117 -89 69 -22
202 10 248 61 21 23 47 27 39 6 -3 -8 11 -27 32 -44 34 -28 36 -33 23 -49 -41
-51 -52 -91 -55 -198 0 -38 -2 -79 -3 -91 -2 -28 -67 -97 -117 -122 -23 -12
-65 -24 -95 -28 -85 -11 -117 -29 -140 -77 -43 -92 -70 -119 -129 -132 -19 -4
-39 -11 -45 -15 -14 -10 -95 -20 -95 -11 0 4 -33 14 -72 21 -40 7 -100 26
-132 42 -33 15 -71 28 -86 28 -14 0 -30 4 -36 9 -13 14 -117 -2 -149 -23 -22
-15 -26 -23 -21 -47 4 -21 1 -31 -9 -35 -34 -13 -5 -55 68 -98 27 -15 47 -30
44 -32 -4 -4 -85 24 -132 46 -66 31 -139 60 -152 60 -8 0 -32 9 -54 20 -23 10
-61 22 -85 26 -24 3 -47 10 -50 15 -3 5 -12 9 -21 9 -8 0 -29 6 -46 14 -18 8
-56 19 -85 25 -29 6 -95 27 -146 46 -80 30 -98 33 -124 24 -17 -6 -30 -16 -29
-21 1 -6 -9 -14 -22 -17 -14 -4 -26 -11 -28 -18 -6 -16 39 -64 96 -103 28 -19
51 -38 51 -43 0 -8 -50 2 -65 13 -5 5 -41 16 -79 25 -45 11 -76 26 -90 41 -26
30 -135 46 -161 24 -14 -12 -13 -16 6 -37 13 -12 19 -23 16 -23 -17 0 -145 72
-162 90 -10 11 -22 20 -28 20 -5 0 -40 23 -78 51 -61 45 -72 49 -103 43 -47
-8 -48 -38 -3 -82 65 -64 302 -218 367 -237 13 -4 37 -17 53 -29 26 -19 27
-21 8 -28 -11 -4 -48 -2 -83 3 -120 20 -313 60 -333 68 -19 8 -142 42 -175 47
-105 19 -325 81 -408 115 -41 17 -76 28 -78 26 -3 -2 -42 7 -87 20 -45 13 -92
26 -105 28 -13 2 -29 8 -36 14 -7 6 -49 17 -95 25 -45 7 -90 21 -100 30 -10 9
-23 16 -30 16 -19 0 -138 60 -152 76 -15 18 -40 18 -65 -1 -10 -8 -37 -15 -60
-15 -22 0 -48 -6 -58 -13 -23 -17 -18 -62 6 -62 24 0 33 -13 53 -75 19 -58 56
-99 239 -265 42 -38 83 -79 90 -91 13 -19 12 -20 -33 -19 -26 1 -58 9 -74 19
-17 12 -51 20 -90 22 -34 1 -80 8 -102 14 -99 28 -105 28 -134 14 -39 -19 -47
-32 -49 -74 -2 -33 2 -39 62 -83 35 -26 77 -50 93 -53 36 -7 87 -43 61 -44 -9
0 -19 4 -22 9 -3 4 -49 11 -103 15 -54 4 -124 12 -155 18 -44 9 -62 9 -80 -1
-19 -9 -34 -10 -73 0 -54 13 -80 15 -290 24 -263 10 -347 15 -387 24 -49 11
-103 4 -120 -16 -9 -11 -9 -16 0 -22 7 -4 10 -14 7 -23 -6 -14 64 -88 84 -88
5 0 42 -20 83 -45 41 -25 90 -48 109 -51 19 -4 43 -15 54 -25 11 -9 38 -21 60
-25 22 -4 49 -13 60 -20 11 -8 25 -14 33 -14 7 0 28 -11 46 -25 18 -14 40 -25
49 -25 9 0 31 -9 49 -20 l33 -20 -33 -6 c-18 -4 -35 -10 -38 -15 -2 -4 -12 -5
-20 -2 -8 3 -25 1 -37 -5 -29 -14 -181 -35 -234 -33 -32 1 -43 -2 -43 -13 0
-8 -3 -22 -6 -30 -5 -12 4 -20 32 -32 68 -27 123 -58 118 -66 -3 -4 -16 -8
-30 -8 -14 0 -59 -11 -100 -25 -41 -14 -86 -25 -100 -25 -14 0 -44 -4 -67 -10
-23 -5 -78 -11 -122 -14 -44 -2 -100 -11 -125 -21 -35 -13 -61 -15 -116 -10
-70 6 -77 5 -164 -33 -19 -8 -64 -16 -100 -17 -48 -1 -78 -9 -115 -28 -27 -15
-62 -31 -77 -37 -36 -12 -35 -22 2 -53 21 -18 47 -27 87 -32 32 -3 69 -9 83
-12 14 -3 39 -7 55 -8 17 -2 66 -9 110 -15 44 -6 109 -16 145 -21 36 -5 129
-10 208 -11 139 -2 175 -10 110 -23 -42 -8 -121 -37 -128 -46 -3 -3 -25 -10
-50 -14 -25 -4 -52 -11 -61 -16 -8 -4 -26 -9 -40 -11 -13 -2 -28 -6 -34 -10
-5 -3 -35 -9 -65 -13 -30 -4 -78 -16 -106 -26 -28 -11 -58 -17 -66 -14 -9 4
-18 0 -21 -8 -5 -14 -66 -23 -212 -33 -100 -6 -140 -52 -90 -104 21 -22 39
-29 86 -34 77 -9 68 -24 -34 -56 -69 -22 -144 -51 -178 -70 -9 -5 -34 -12 -55
-15 -22 -4 -48 -13 -60 -20 -11 -8 -46 -18 -77 -24 -57 -10 -181 -63 -192 -81
-3 -5 -15 -10 -25 -10 -10 0 -20 -4 -22 -8 -1 -4 -16 -14 -33 -22 -58 -29
-184 -115 -185 -127 0 -6 -13 -14 -30 -18 -16 -4 -32 -11 -35 -16 -4 -5 -14
-9 -24 -9 -9 0 -29 -12 -44 -28 l-26 -27 33 -27 33 -27 165 34 c90 18 181 40
202 49 21 9 49 16 63 16 13 0 32 4 41 9 9 4 35 12 57 16 l40 7 -51 -41 c-29
-23 -57 -41 -63 -41 -6 0 -11 -4 -11 -10 0 -5 -8 -10 -18 -10 -9 0 -22 -8 -29
-18 -14 -23 -116 -92 -136 -92 -8 0 -20 -7 -27 -15 -7 -9 -34 -25 -59 -36 -25
-12 -59 -27 -75 -35 -17 -8 -34 -10 -44 -5 -20 12 -54 1 -48 -15 5 -12 -79
-74 -100 -74 -8 0 -60 -20 -159 -61 -11 -4 -36 -10 -55 -13 -67 -9 -95 -19
-120 -41 -14 -12 -35 -28 -47 -34 -13 -6 -23 -18 -23 -26 0 -7 -11 -22 -25
-33 -51 -41 -18 -58 97 -50 49 4 66 3 54 -4 -10 -6 -41 -10 -69 -9 -73 1 -156
-16 -208 -41 -24 -11 -60 -25 -79 -30 -19 -5 -52 -13 -73 -19 -21 -5 -45 -13
-55 -18 -31 -16 -88 -31 -115 -31 -14 0 -29 -4 -32 -10 -3 -5 -17 -10 -29 -10
-13 0 -29 -7 -36 -15 -7 -8 -16 -13 -20 -10 -5 3 -11 1 -15 -4 -3 -6 -12 -8
-20 -4 -8 3 -15 0 -15 -6 0 -6 -6 -8 -12 -6 -7 3 -24 -2 -38 -10 -60 -35 -112
-50 -225 -65 -280 -38 -311 -48 -317 -113 -3 -28 -8 -33 -50 -45 -38 -10 -48
-18 -48 -34 0 -20 4 -21 83 -15 45 3 91 9 102 13 15 5 17 4 10 -4 -11 -12 -95
-29 -278 -57 -53 -8 -105 -19 -115 -25 -9 -5 -51 -14 -92 -20 -41 -5 -113 -17
-160 -25 -47 -8 -105 -15 -130 -15 -72 -1 -258 -17 -348 -30 -46 -7 -99 -10
-117 -7 -28 5 -37 2 -45 -14 -6 -10 -17 -19 -25 -19 -8 0 -15 -6 -15 -14 0
-22 46 -54 90 -61 22 -4 40 -10 40 -14 0 -12 -106 -42 -123 -35 -9 3 -25 0
-37 -6 -13 -7 -60 -14 -107 -16 -46 -2 -110 -10 -141 -18 -31 -8 -88 -17 -125
-20 -38 -4 -107 -13 -155 -22 -47 -8 -124 -17 -171 -19 -47 -3 -124 -12 -171
-21 -105 -19 -190 -31 -255 -38 -27 -2 -93 -14 -145 -25 -52 -11 -111 -21
-130 -21 -19 0 -51 -5 -70 -11 -19 -6 -91 -17 -160 -24 -69 -8 -175 -21 -237
-29 -73 -10 -162 -14 -260 -11 -138 4 -378 -15 -405 -31 -5 -3 -132 -8 -281
-11 -334 -6 -1517 -9 -1522 -4 -2 1 -68 2 -147 2 -79 -1 -199 3 -267 9 -76 6
-128 6 -135 1 -10 -8 -56 -12 -166 -12 -70 -1 -130 -11 -130 -23 0 -8 -7 -19
-15 -26 -8 -7 -15 -28 -15 -46 0 -39 13 -36 -160 -39 -63 -2 -185 -10 -270
-19 -85 -9 -213 -19 -285 -22 -71 -3 -168 -9 -214 -13 -54 -6 -95 -5 -113 1
-16 6 -46 8 -66 5 -19 -4 -41 -2 -47 3 -8 7 -29 6 -61 -1 -27 -6 -89 -14 -139
-19 -49 -4 -103 -13 -120 -20 -18 -7 -126 -16 -264 -21 -210 -8 -244 -12 -315
-35 -45 -14 -89 -30 -98 -35 -10 -5 -44 -9 -75 -9 -32 0 -94 -9 -138 -21 -88
-22 -259 -53 -580 -104 -191 -30 -259 -43 -395 -76 -25 -6 -61 -13 -80 -16
-19 -3 -46 -11 -60 -18 -14 -7 -61 -20 -104 -30 -44 -9 -98 -24 -120 -32 -23
-8 -61 -16 -86 -19 -25 -2 -65 -10 -90 -18 -62 -19 -192 -49 -210 -48 -15 0
-60 -12 -155 -42 -27 -9 -65 -16 -84 -16 -19 0 -84 -20 -145 -44 -61 -23 -140
-51 -176 -60 -36 -9 -85 -24 -110 -33 -25 -9 -75 -24 -112 -34 -37 -10 -75
-22 -85 -27 -10 -5 -70 -26 -133 -45 -63 -20 -140 -46 -170 -58 -30 -12 -68
-27 -85 -34 -48 -19 -209 -99 -225 -112 -8 -6 -40 -21 -70 -33 -30 -12 -81
-34 -112 -51 -31 -16 -62 -29 -67 -29 -13 0 -235 -109 -326 -160 -38 -22 -79
-44 -90 -49 -12 -5 -26 -16 -33 -24 -7 -8 -24 -18 -38 -21 -14 -4 -44 -20 -66
-36 -23 -17 -45 -30 -50 -30 -10 0 -83 -45 -113 -70 -11 -9 -36 -23 -55 -31
-37 -14 -138 -73 -154 -89 -6 -6 -20 -10 -32 -10 -13 0 -43 -13 -67 -30 -25
-16 -50 -30 -57 -30 -7 0 -31 -12 -54 -28 -22 -15 -66 -40 -97 -55 -31 -15
-64 -36 -74 -47 -10 -11 -24 -20 -30 -20 -7 0 -35 -18 -61 -40 -27 -22 -53
-40 -57 -40 -5 0 -26 -15 -47 -33 -21 -17 -56 -40 -77 -51 -21 -10 -46 -22
-55 -27 -10 -5 -23 -9 -29 -9 -7 0 -36 -21 -66 -47 -30 -27 -62 -52 -72 -58
-25 -15 -183 -123 -201 -138 -8 -6 -23 -28 -33 -47 -10 -20 -41 -56 -70 -80
-29 -24 -102 -96 -163 -159 -61 -64 -123 -122 -138 -130 -15 -8 -29 -25 -32
-37 -3 -12 -25 -40 -47 -62 -23 -21 -62 -60 -87 -87 -25 -26 -60 -59 -78 -73
-17 -13 -32 -27 -32 -31 0 -15 -188 -201 -203 -201 -8 0 -32 -20 -53 -45 -20
-25 -40 -45 -44 -45 -17 0 -451 -446 -442 -454 2 -2 -8 -13 -22 -24 -15 -11
-26 -22 -26 -26 0 -3 -22 -26 -50 -52 -27 -26 -50 -51 -50 -56 0 -13 -55 -92
-111 -158 -25 -30 -51 -72 -58 -92 -7 -21 -17 -40 -21 -43 -5 -3 -17 -23 -26
-43 -10 -20 -27 -48 -40 -62 -22 -25 -42 -58 -97 -160 -16 -30 -36 -62 -43
-71 -8 -8 -14 -20 -14 -26 0 -5 -11 -20 -25 -33 -14 -13 -25 -29 -25 -36 0 -7
-24 -49 -54 -92 -30 -44 -57 -90 -61 -103 -9 -31 -27 -72 -80 -184 -24 -49
-56 -119 -71 -155 -15 -36 -42 -87 -59 -115 -40 -64 -65 -128 -65 -164 0 -16
-7 -36 -15 -45 -20 -19 -65 -110 -65 -129 0 -8 -4 -17 -10 -19 -5 -1 -21 -34
-36 -73 -24 -64 -26 -81 -25 -205 2 -95 6 -143 16 -164 8 -16 15 -39 15 -52 0
-50 62 -71 110 -37 46 32 79 66 74 74 -3 5 0 9 7 9 7 0 10 3 6 6 -13 14 132
204 156 204 11 0 101 101 116 128 7 15 24 37 37 50 13 13 24 29 24 37 0 8 5
15 10 15 6 0 10 5 10 11 0 6 17 27 37 48 21 20 62 62 91 94 29 31 55 57 58 57
8 0 54 49 54 57 0 5 13 14 29 21 16 7 36 28 45 47 9 19 24 40 34 47 26 19 82
94 82 109 0 8 13 27 30 44 44 44 107 118 111 132 6 16 88 103 98 103 5 0 54
45 110 100 55 55 104 100 109 100 5 0 36 26 68 58 32 32 67 61 76 65 10 3 18
13 18 21 0 17 42 66 57 66 6 0 18 11 27 24 26 41 69 80 114 104 24 13 71 45
105 73 33 27 66 49 71 49 10 0 23 11 87 74 32 31 66 52 142 90 26 13 55 30 65
39 9 8 39 27 67 42 27 15 62 37 76 49 53 42 309 210 357 235 82 41 158 83 173
97 8 8 23 14 32 14 9 0 17 5 17 10 0 6 11 15 24 20 13 5 45 24 69 43 25 19 59
41 76 48 17 8 31 17 31 21 0 3 26 19 58 33 31 15 71 37 87 49 53 39 125 79
334 187 52 27 99 49 105 49 6 0 39 18 74 40 34 22 65 40 68 40 6 0 184 83 244
114 25 13 82 38 125 56 44 17 110 45 146 61 36 16 71 29 78 29 7 0 24 8 37 19
13 10 41 22 61 26 20 4 50 18 66 31 16 13 34 24 41 24 7 0 31 9 54 20 22 11
51 20 64 20 13 0 36 8 51 19 16 10 38 16 52 14 23 -5 130 22 150 36 21 17 335
91 381 91 16 0 88 14 159 30 235 56 339 78 380 84 22 2 92 13 155 24 135 24
261 35 420 37 170 2 963 16 980 17 18 1 194 -8 450 -23 102 -6 221 -13 265
-15 89 -5 156 -14 325 -45 63 -11 129 -22 145 -24 17 -1 73 -8 125 -15 52 -7
138 -14 190 -16 208 -6 373 -19 389 -28 5 -4 12 -2 16 4 4 6 10 8 16 5 5 -3
41 -8 81 -11 40 -3 91 -11 113 -19 49 -16 124 -23 323 -30 84 -4 183 -13 220
-21 37 -8 94 -19 128 -23 34 -5 76 -16 95 -24 19 -9 57 -19 84 -23 28 -4 61
-12 75 -19 14 -7 48 -16 75 -20 28 -4 65 -14 83 -21 18 -7 95 -18 170 -24 219
-17 315 -29 326 -40 5 -5 33 -10 61 -10 56 0 191 -17 245 -30 19 -5 71 -17
115 -26 44 -9 91 -21 105 -26 48 -20 154 -46 163 -41 4 2 13 1 20 -5 14 -10
121 -29 217 -37 36 -4 83 -12 105 -20 22 -7 85 -21 140 -30 186 -32 398 -75
409 -83 6 -5 56 -19 111 -31 55 -13 129 -31 165 -41 36 -10 110 -26 165 -36
55 -10 105 -21 110 -25 6 -4 22 -10 35 -13 14 -3 45 -10 70 -16 57 -13 148
-29 225 -39 33 -5 105 -20 160 -34 55 -14 141 -28 192 -31 51 -2 96 -7 100 -9
4 -3 33 -8 63 -11 99 -12 195 -29 205 -37 6 -4 33 -10 60 -14 28 -4 70 -13 95
-20 25 -8 90 -19 145 -25 55 -7 127 -16 160 -21 33 -5 112 -13 175 -19 63 -5
144 -14 180 -20 68 -10 114 -16 190 -24 25 -3 59 -7 75 -10 17 -3 55 -8 85
-10 30 -3 113 -12 185 -20 71 -9 149 -16 172 -16 23 0 53 -4 67 -10 14 -5 40
-9 58 -10 18 0 56 0 83 0 61 -1 101 -4 285 -24 82 -9 222 -16 320 -15 96 0
200 -2 230 -6 30 -3 108 -8 173 -10 65 -3 137 -10 160 -16 23 -6 89 -12 148
-13 59 -1 113 -7 121 -13 7 -5 35 -11 63 -12 115 -3 305 -43 390 -81 33 -15
84 -35 113 -45 39 -12 51 -20 43 -28 -6 -6 -11 -18 -11 -28 0 -19 -41 -150
-61 -194 -8 -16 -26 -50 -41 -74 -16 -25 -28 -52 -28 -61 0 -9 -9 -25 -20 -35
-11 -10 -19 -23 -17 -29 2 -6 -16 -23 -41 -39 -29 -18 -42 -33 -38 -43 6 -14
-23 -86 -36 -92 -5 -2 -8 -8 -8 -12 0 -5 -10 -20 -22 -34 -45 -49 -69 -86 -74
-113 -3 -16 -13 -46 -23 -68 -10 -22 -24 -65 -30 -96 -7 -31 -21 -74 -31 -95
-11 -21 -20 -48 -20 -61 0 -12 -4 -32 -9 -45 -37 -99 -51 -169 -57 -303 -2
-49 -9 -122 -14 -161 -9 -65 -13 -74 -55 -116 -50 -51 -62 -94 -22 -85 12 2
29 8 38 11 15 6 15 2 7 -41 -5 -26 -16 -70 -25 -97 -9 -27 -16 -70 -15 -95 0
-25 -3 -50 -8 -56 -5 -5 -13 -39 -20 -74 -6 -35 -20 -91 -30 -124 -11 -33 -17
-64 -14 -69 3 -4 0 -8 -6 -8 -6 0 -8 -4 -5 -10 3 -5 1 -10 -5 -10 -7 0 -10
-15 -9 -38 2 -28 -3 -47 -19 -67 -12 -15 -22 -34 -22 -42 0 -8 -11 -39 -25
-69 -14 -30 -25 -59 -25 -65 0 -6 -40 -93 -89 -192 -49 -100 -91 -190 -95
-199 -3 -10 -10 -18 -16 -18 -5 0 -10 -7 -10 -15 0 -8 -4 -15 -10 -15 -5 0
-10 -7 -10 -15 0 -8 -4 -15 -10 -15 -5 0 -10 -4 -10 -10 0 -5 -6 -18 -14 -27
-83 -101 -121 -143 -135 -148 -9 -3 -39 -28 -66 -56 -28 -29 -66 -62 -86 -75
-37 -23 -64 -78 -76 -152 -3 -18 -9 -34 -13 -37 -13 -8 0 -217 16 -253 8 -18
12 -37 9 -42 -8 -12 15 -129 26 -136 5 -3 9 -18 9 -34 0 -16 5 -32 10 -35 6
-3 10 -35 10 -70 0 -35 4 -66 9 -69 4 -3 6 -17 3 -31 -2 -14 1 -32 8 -40 10
-12 10 -35 0 -111 -7 -57 -8 -100 -3 -107 5 -7 11 -32 12 -57 1 -25 7 -49 11
-54 5 -5 5 -17 -1 -28 -6 -11 -8 -26 -5 -33 3 -8 1 -17 -4 -20 -6 -4 -10 -15
-10 -27 0 -11 -15 -59 -34 -107 -35 -88 -49 -189 -46 -334 2 -70 -23 -149 -61
-198 -15 -19 -33 -58 -40 -85 -6 -27 -17 -58 -22 -69 -6 -11 -12 -24 -14 -30
-10 -38 -61 -176 -66 -182 -4 -3 -7 -19 -7 -34 0 -19 -9 -34 -29 -48 -16 -12
-33 -21 -37 -21 -4 0 -15 -6 -23 -13 -9 -7 -34 -19 -56 -26 -22 -8 -59 -27
-82 -42 -23 -16 -46 -29 -50 -29 -13 0 -79 -50 -67 -50 5 0 1 -5 -8 -11 -10
-5 -18 -15 -18 -20 0 -6 -7 -17 -16 -26 -8 -9 -13 -22 -9 -31 3 -8 1 -29 -4
-46 -5 -17 -12 -57 -15 -88 l-6 -58 1459 0 c1060 0 1462 3 1467 11 3 6 0 15
-7 20 -8 5 -11 9 -7 9 22 0 -133 155 -202 201 -37 24 -54 29 -95 28 -30 -1
-64 4 -85 14 -24 11 -59 16 -110 16 -87 -2 -149 8 -170 26 -8 7 -35 16 -60 19
-109 13 -135 20 -164 37 -17 10 -41 19 -54 19 -29 0 -58 15 -98 50 l-32 28 19
28 c11 16 18 37 15 46 -2 10 0 18 5 18 5 0 8 3 7 8 -1 4 4 24 11 45 14 42 9
88 -15 136 -9 18 -13 42 -10 55 4 15 0 28 -8 36 -8 6 -18 26 -21 43 -4 18 -14
48 -22 67 -8 19 -19 44 -23 55 -5 11 -11 46 -13 77 -5 53 -16 97 -39 157 -5
13 -12 54 -15 90 -3 36 -9 71 -14 77 -11 13 -5 367 7 385 4 8 9 61 10 119 1
58 3 107 4 110 1 3 2 13 1 22 -1 9 25 46 58 82 33 37 65 83 71 104 7 20 18 52
27 70 8 18 12 40 9 48 -3 8 -2 14 2 14 4 0 8 11 8 25 1 14 11 45 23 70 12 25
21 52 21 60 0 19 51 125 79 163 10 15 19 31 19 35 0 5 23 54 51 110 49 99 61
127 67 156 7 37 246 350 286 374 10 7 18 17 18 24 0 7 5 13 10 13 6 0 10 6 10
13 0 7 9 19 20 27 11 8 20 19 20 24 0 5 10 19 23 32 12 13 29 31 37 39 68 72
223 175 263 175 17 0 67 45 67 59 0 6 -9 16 -19 23 -17 11 -11 19 73 104 50
51 97 99 105 106 8 7 55 55 105 106 51 50 97 92 104 92 7 0 10 4 7 10 -3 5 1
10 10 10 9 0 14 4 11 9 -3 5 6 17 20 26 37 24 143 123 138 128 -3 2 10 18 29
34 18 16 36 37 40 46 3 9 10 17 15 17 5 0 33 32 63 71 50 66 71 98 115 174 9
17 30 46 45 65 65 82 149 292 140 353 -1 9 5 20 13 23 8 3 23 27 32 52 15 43
48 123 94 227 9 22 23 60 29 85 7 25 21 64 32 88 10 23 19 55 19 71 0 16 7 34
15 41 8 7 15 17 15 22 0 8 27 75 86 213 7 17 25 62 40 100 15 39 29 72 30 74
2 2 19 -4 38 -13 19 -9 58 -16 88 -16 52 0 88 -15 113 -47 11 -14 71 -23 215
-30 164 -8 212 -8 340 -3 l125 5 9 -84 c7 -61 6 -89 -3 -103 -7 -11 -16 -49
-22 -86 -17 -117 -21 -137 -29 -147 -4 -5 -3 -46 2 -90 11 -82 19 -240 18
-355 0 -36 5 -74 10 -85 11 -23 31 -121 31 -149 0 -11 8 -27 18 -35 10 -9 16
-22 14 -28 -5 -15 24 -98 44 -128 7 -11 13 -33 13 -50 0 -17 8 -40 18 -51 10
-10 19 -23 20 -29 1 -5 8 -26 16 -45 25 -60 64 -196 82 -287 9 -49 20 -92 23
-98 4 -5 8 -59 10 -120 2 -60 6 -114 9 -120 4 -5 7 -55 8 -110 1 -55 5 -183 9
-285 4 -102 7 -192 7 -200 -3 -215 -14 -332 -37 -405 -14 -44 -32 -95 -41
-113 -9 -19 -18 -50 -20 -70 -3 -20 -11 -47 -19 -59 -33 -50 -44 -260 -14
-278 5 -4 9 -20 9 -37 0 -45 25 -89 79 -141 29 -28 53 -62 61 -88 8 -23 26
-53 40 -66 14 -13 25 -27 25 -32 0 -5 11 -22 25 -38 34 -37 150 -199 150 -208
0 -4 10 -21 22 -37 25 -36 58 -102 88 -178 12 -30 29 -71 38 -90 17 -39 17
-38 32 -100 7 -25 15 -54 20 -65 10 -25 42 -186 47 -240 2 -22 8 -49 13 -60 5
-11 11 -46 14 -78 4 -48 10 -62 35 -86 17 -16 31 -36 31 -43 0 -26 40 -52 88
-58 43 -5 47 -7 47 -32 1 -15 4 -30 8 -34 4 -4 7 -42 7 -85 0 -171 94 -203
161 -55 12 25 13 23 46 -57 27 -63 37 -106 44 -187 6 -58 15 -106 20 -108 5
-2 9 -11 9 -20 0 -31 21 -91 36 -106 8 -9 21 -32 28 -53 l13 -38 1549 -2 1549
-2 -28 24 c-15 14 -34 25 -41 25 -8 0 -20 7 -27 16 -20 24 -79 60 -112 68 -16
4 -65 25 -110 46 -45 22 -88 40 -96 40 -8 0 -33 8 -55 19 -72 33 -100 40 -159
43 -33 2 -61 7 -64 11 -3 5 -18 5 -33 2 -17 -4 -55 2 -96 15 -40 12 -80 18
-95 15 -15 -4 -45 -1 -66 5 -21 6 -87 18 -146 26 -60 8 -120 22 -133 31 -24
15 -123 29 -264 37 -75 5 -122 15 -132 29 -4 7 -15 4 -31 -6 -39 -25 -173 -6
-244 34 -48 28 -53 34 -53 65 0 41 -20 83 -55 118 -14 14 -25 31 -25 39 0 8
-7 20 -15 27 -9 7 -27 37 -41 67 -14 29 -46 72 -70 95 -24 23 -44 50 -44 61 0
10 -11 28 -25 39 -14 11 -25 29 -25 41 0 24 -6 34 -39 75 -12 15 -46 61 -76
102 -30 41 -68 89 -84 106 -16 18 -36 45 -45 62 -8 16 -22 32 -30 35 -8 3 -24
26 -35 52 -11 25 -31 58 -45 73 -85 91 -114 135 -131 200 -18 66 -43 124 -57
130 -5 2 -8 9 -8 15 0 10 -102 227 -146 309 -8 14 -14 40 -14 56 0 17 -4 34
-10 37 -5 3 -10 17 -10 31 0 13 -13 54 -30 91 -16 36 -30 75 -30 87 0 12 -4
26 -9 31 -35 37 -65 119 -84 224 -22 128 -24 187 -12 366 7 113 8 154 6 234
-1 18 3 38 8 45 5 6 9 34 8 61 0 28 10 81 21 119 12 37 22 82 22 99 0 17 8 40
19 51 10 12 29 62 41 111 13 50 26 92 30 95 4 3 7 12 8 20 0 8 5 40 12 70 7
30 13 65 15 76 2 12 13 43 25 70 12 27 24 60 26 74 3 13 10 30 16 37 6 7 7 13
3 13 -4 0 -2 7 5 15 7 8 10 15 6 15 -3 0 4 12 17 26 12 14 23 30 23 35 1 5 2
10 4 12 1 1 3 10 5 20 2 10 10 26 18 35 8 10 18 28 22 42 4 14 16 35 27 46 10
12 18 25 16 30 -2 10 33 106 54 144 7 14 30 51 51 83 20 31 37 67 37 78 0 11
11 45 25 75 14 30 25 59 25 64 0 6 5 10 10 10 6 0 10 6 10 13 0 7 9 20 20 30
11 9 20 27 20 40 0 13 11 33 25 45 14 12 25 28 25 37 0 8 9 19 20 25 11 6 20
20 20 31 0 26 28 69 45 69 8 0 17 -10 20 -22 4 -13 18 -37 31 -55 13 -17 24
-36 24 -42 0 -6 4 -11 10 -11 5 0 19 -20 31 -44 11 -25 27 -50 35 -57 8 -6 14
-19 14 -28 0 -34 132 -153 191 -172 19 -7 48 -24 64 -39 37 -34 84 -50 145
-50 33 0 50 5 54 15 6 17 -8 61 -28 85 -6 8 -18 33 -25 55 -7 22 -20 51 -29
65 -9 14 -26 54 -39 89 -12 35 -27 67 -32 70 -9 6 -16 28 -38 118 -3 13 2 39
12 59 9 19 14 42 11 49 -3 8 6 23 19 34 14 10 25 23 25 28 0 5 9 17 21 26 18
16 19 25 13 75 -3 31 -14 71 -22 87 -9 17 -15 35 -14 42 3 13 -33 79 -62 112
-15 17 -17 25 -8 28 19 7 14 23 -8 23 -13 0 -24 10 -31 27 -6 15 -16 31 -22
35 -24 15 -13 197 19 306 2 8 25 12 70 12 59 0 169 24 229 50 42 18 143 40
210 45 239 21 429 69 452 114 10 21 9 29 -9 54 -19 27 -24 28 -64 22 -24 -3
-49 -3 -56 1 -7 4 -31 7 -54 5 -23 -1 -45 2 -49 8 -3 6 -36 11 -73 11 -44 0
-95 9 -153 27 -80 25 -88 29 -94 58 -4 16 -7 34 -6 38 4 23 -35 76 -82 111
-47 34 -56 38 -97 33 -42 -5 -47 -4 -57 21 -6 15 -14 38 -17 52 -6 28 -105
100 -137 100 -31 0 -73 26 -89 54 -7 14 -19 26 -26 26 -6 0 -22 8 -35 19 l-22
18 21 36 c13 20 21 48 20 65 -2 23 5 36 26 53 24 19 27 28 24 65 -2 24 -1 44
2 44 3 0 5 39 5 86 0 47 3 87 6 89 3 2 32 8 65 14 44 7 82 23 144 62 90 55
173 99 190 99 5 0 8 -23 7 -51 -2 -45 1 -54 24 -71 25 -19 27 -19 65 -2 89 39
161 79 201 110 23 19 45 34 50 34 4 0 46 36 92 80 70 67 88 79 115 78 17 -1
42 4 55 11 12 7 25 10 28 7 4 -3 6 -32 6 -65 0 -50 3 -61 21 -70 19 -11 21
-21 23 -117 1 -81 5 -109 17 -123 12 -13 13 -20 4 -29 -9 -9 -9 -18 0 -37 7
-14 12 -51 12 -81 0 -30 7 -71 16 -92 10 -25 13 -51 9 -83 -7 -48 9 -129 25
-129 4 0 11 -13 15 -29 3 -16 17 -39 30 -51 17 -16 26 -38 31 -79 9 -76 15
-90 63 -139 l42 -43 36 22 c40 25 46 21 63 -42 5 -20 19 -44 30 -54 11 -10 20
-22 20 -26 0 -20 -151 -68 -262 -84 -26 -4 -43 -15 -58 -35 l-20 -28 26 -21
c15 -12 32 -21 39 -21 7 0 23 -8 36 -19 23 -18 68 -28 159 -37 83 -9 159 -20
162 -24 31 -44 38 -105 23 -205 -6 -41 -4 -53 9 -64 9 -7 16 -26 16 -41 0 -23
-13 -38 -77 -87 -42 -32 -87 -65 -99 -73 -136 -95 -138 -96 -128 -112 5 -7 9
-21 9 -32 0 -31 50 -60 108 -64 77 -4 141 -13 150 -22 5 -4 -6 -19 -22 -33
-17 -14 -31 -30 -31 -36 0 -6 -6 -11 -13 -11 -8 0 -49 -38 -92 -85 -43 -47
-83 -85 -88 -85 -5 0 -34 -23 -64 -50 -30 -27 -60 -50 -67 -50 -17 0 -67 -82
-64 -105 4 -29 65 -65 108 -65 58 0 251 68 309 109 14 10 81 46 147 80 68 34
146 83 177 110 34 30 69 51 91 55 21 4 49 21 68 40 18 18 41 36 51 39 9 4 17
12 17 20 0 7 12 24 26 38 14 13 44 51 66 84 22 33 51 71 64 85 24 26 52 126
52 189 1 18 5 38 11 44 5 5 7 16 4 23 -3 8 0 21 7 29 6 8 9 18 6 23 -3 5 3 21
14 34 11 14 16 28 13 32 -13 12 -11 35 3 47 8 6 14 17 14 24 0 7 6 18 14 24
12 10 24 48 31 96 1 10 18 53 35 90 29 64 74 260 64 277 -7 11 23 163 45 233
11 33 19 67 19 75 -1 8 9 37 22 63 21 44 21 49 6 66 -23 25 -20 34 9 27 20 -5
27 -2 37 19 9 20 7 52 -10 158 -21 131 -22 163 -7 285 6 44 4 75 -5 103 -11
31 -11 45 -2 59 7 12 8 21 2 25 -21 13 -2 194 24 225 15 18 34 119 41 220 3
41 7 93 10 115 3 22 7 62 10 88 2 26 10 58 17 70 7 12 11 25 10 30 -6 23 36
146 65 189 18 28 33 57 33 67 0 19 54 128 75 151 8 9 13 19 10 22 -13 13 23
27 51 19 23 -6 30 -14 34 -41 7 -45 25 -48 39 -8 7 18 21 50 32 71 11 21 17
42 14 47 -3 6 -2 10 4 10 6 0 8 7 5 15 -3 8 -2 20 2 27 4 6 9 25 11 41 2 15 8
37 14 48 17 33 49 156 52 202 1 9 4 17 8 17 3 0 4 11 2 24 -4 17 2 28 18 40
17 12 20 19 12 27 -7 7 -8 21 -2 42 5 17 6 41 2 55 -11 44 16 43 63 -3 24 -23
55 -48 69 -55 22 -12 29 -11 52 7 20 14 27 28 26 49 -3 38 -38 209 -52 254 -6
19 -12 56 -12 83 -1 26 -5 50 -9 52 -4 3 -11 25 -14 50 -4 24 -11 47 -15 50
-5 2 -12 22 -15 42 -4 21 -19 84 -32 140 -21 84 -24 105 -13 125 32 61 235
400 449 748 328 534 568 960 635 1123 29 73 90 222 134 332 84 204 84 204 247
845 41 161 57 252 100 580 8 63 17 121 20 129 2 8 9 80 14 160 5 80 12 175 14
211 15 189 29 528 30 700 1 200 -18 549 -34 630 -31 158 -65 297 -77 311 -7 8
-13 30 -13 47 0 17 -11 51 -24 76 -13 25 -30 78 -37 118 -13 75 -61 211 -84
238 -7 8 -18 33 -25 55 -7 22 -18 47 -25 55 -6 8 -19 33 -29 55 -9 22 -21 48
-26 57 -6 10 -10 23 -10 30 0 7 -14 42 -31 78 -17 36 -37 88 -45 115 -7 28
-20 75 -28 105 -9 30 -16 73 -16 97 0 36 -5 46 -35 70 -19 15 -35 35 -35 43 0
8 -16 31 -36 51 l-36 37 28 57 c22 48 25 61 15 77 -6 10 -9 23 -5 29 8 14 -22
56 -47 64 -12 4 -50 36 -86 72 -46 47 -66 75 -70 99 -3 19 -12 39 -19 45 -8 6
-14 26 -14 44 0 38 -24 91 -46 99 -29 11 -145 36 -168 36 -21 0 -24 6 -31 55
-3 30 -10 57 -14 60 -5 2 -6 16 -4 29 5 23 0 26 -83 51 -191 57 -181 52 -180
88 1 17 5 38 9 45 9 13 -43 125 -78 168 l-20 25 -103 -11 c-56 -6 -106 -9
-111 -6 -4 3 -18 39 -30 81 -13 41 -28 75 -34 75 -7 0 -64 5 -127 10 -107 10
-116 12 -137 38 -13 15 -30 42 -38 60 -8 17 -20 32 -27 32 -8 0 -75 5 -149 11
l-134 10 -108 70 -109 69 -172 -6 -172 -6 -62 31 -61 31 -98 -21 c-122 -25
-149 -35 -195 -72 -33 -26 -40 -28 -70 -19 -18 6 -55 9 -81 7 -43 -3 -49 -1
-57 21 -6 14 -19 28 -30 32 -11 4 -28 23 -38 42 -20 40 -60 54 -139 48 -37 -3
-68 -14 -105 -38 -29 -18 -77 -46 -106 -62 l-53 -29 -15 38 c-18 43 -37 59
-78 69 -43 9 -151 -48 -201 -107 l-39 -47 -18 28 c-21 35 -40 46 -99 55 -49 7
-119 -14 -119 -36 0 -7 -15 -30 -33 -53 -31 -38 -42 -56 -46 -81 -2 -5 -8 -17
-15 -25 -7 -8 -21 -35 -32 -60 -20 -47 -59 -87 -105 -107 -31 -13 -139 -28
-139 -20 0 9 42 80 59 100 8 10 16 38 17 63 1 25 8 53 17 62 24 28 25 46 6 71
-14 18 -16 28 -8 43 8 15 6 25 -5 44 -10 14 -14 34 -11 47 8 30 -32 68 -77 71
-18 2 -44 9 -57 16 -13 7 -40 10 -61 7 l-37 -5 13 46 c8 24 19 51 25 58 5 7 9
32 7 55 -3 37 -8 46 -33 58 -16 8 -38 18 -47 23 -26 12 -145 9 -215 -6 -36 -8
-84 -28 -115 -48 -29 -20 -63 -39 -75 -42 -21 -7 -23 -4 -23 37 0 34 -6 49
-25 67 -14 13 -25 29 -25 35 0 20 -36 46 -71 50 -23 3 -45 -3 -69 -17z"/>
</g>
</svg>
