<?xml version="1.0" standalone="no"?>
<!DOCTYPE svg PUBLIC "-//W3C//DTD SVG 20010904//EN"
 "http://www.w3.org/TR/2001/REC-SVG-20010904/DTD/svg10.dtd">
<svg version="1.0" xmlns="http://www.w3.org/2000/svg"
 width="6238.000000pt" height="2707.000000pt" viewBox="0 0 6238.000000 2707.000000"
 preserveAspectRatio="xMidYMid meet">
<metadata>
Created by potrace 1.16, written by Peter Selinger 2001-2019
</metadata>
<g transform="translate(0.000000,2707.000000) scale(0.100000,-0.100000)"
fill="#000000" stroke="none">
<path d="M4865 26940 c-187 -66 -358 -127 -381 -135 -35 -13 -44 -24 -74 -85
l-34 -70 -175 0 c-99 0 -486 -20 -886 -46 l-710 -46 -715 6 -715 5 -296 37
-296 37 -264 -140 -264 -141 -26 -226 -26 -226 24 -68 c13 -37 26 -72 28 -79
3 -10 15 -9 52 2 68 21 72 20 79 -24 3 -22 24 -65 45 -98 l39 -58 0 112 0 111
30 10 c35 13 31 21 54 -130 13 -89 20 -107 70 -190 l56 -93 0 233 0 233 57 -3
c56 -3 57 -4 64 -37 4 -19 23 -49 44 -70 l37 -36 -5 73 -4 72 125 0 125 0 299
-130 c164 -71 303 -130 308 -130 6 0 10 -23 10 -50 0 -35 7 -61 22 -85 13 -19
25 -35 28 -35 3 0 14 29 24 65 10 36 21 65 25 65 6 0 164 -51 168 -54 1 -1 -4
-39 -11 -84 -12 -77 -12 -90 11 -195 13 -62 25 -116 26 -121 2 -5 29 73 62
173 l59 182 121 -7 c66 -4 122 -8 124 -10 2 -2 14 -44 25 -94 l22 -91 27 91
27 90 34 0 c18 0 53 -3 78 -6 41 -6 46 -9 61 -48 15 -40 16 -40 16 -11 2 53 7
55 122 48 l105 -6 34 -86 35 -86 13 93 14 92 97 0 c53 0 112 3 132 6 35 6 37
5 54 -37 l18 -44 10 40 c5 22 11 41 12 43 3 3 219 -29 223 -33 2 -2 9 -27 16
-57 l12 -53 15 50 c8 28 19 50 24 50 6 0 59 -6 118 -14 96 -13 110 -17 125
-39 16 -24 16 -24 23 -3 7 16 14 20 36 16 15 -3 105 -17 198 -30 119 -17 282
-53 541 -119 l372 -95 139 -81 c132 -76 141 -82 152 -121 7 -23 11 -42 9 -44
-2 -2 -156 29 -343 70 l-340 73 -330 11 c-181 6 -376 12 -433 12 -99 1 -104 2
-114 25 -13 29 -25 31 -33 5 -3 -11 -13 -25 -21 -32 -15 -12 -283 -60 -296
-53 -3 2 -9 18 -13 34 -10 45 -22 45 -37 -2 -14 -42 -16 -43 -74 -55 -32 -6
-80 -15 -105 -18 l-45 -6 -14 43 -13 43 -13 -30 c-7 -16 -13 -35 -14 -42 0
-18 -28 -29 -85 -37 -27 -4 -62 -9 -76 -12 -22 -4 -28 0 -39 26 -16 39 -26 38
-40 -4 -11 -34 -13 -35 -78 -42 -37 -4 -84 -8 -106 -8 -38 -1 -39 0 -61 59
l-23 60 -18 -63 c-21 -74 -24 -76 -141 -87 -81 -7 -83 -6 -92 16 l-9 24 -11
-27 c-6 -16 -15 -28 -21 -28 -6 0 -71 -7 -145 -16 -132 -15 -139 -15 -362 11
-125 14 -234 28 -240 30 -8 3 -13 22 -13 50 l0 45 -24 -16 c-14 -8 -28 -29
-31 -45 -4 -16 -12 -29 -18 -29 -7 0 -54 12 -105 27 l-94 28 7 123 c4 67 5
122 2 122 -15 0 -93 -122 -103 -160 -12 -48 -22 -52 -80 -29 -25 9 -25 14 -9
292 l4 78 -64 -77 -65 -78 0 -88 0 -88 -27 11 c-15 6 -49 7 -74 4 l-47 -7 -48
81 c-26 44 -51 78 -55 76 -3 -3 -12 -25 -19 -50 -10 -35 -10 -55 -2 -83 6 -20
10 -37 8 -39 -2 -2 -33 -4 -70 -6 l-68 -2 -59 135 c-33 74 -63 138 -68 143 -4
4 -14 -33 -21 -84 -12 -85 -12 -96 7 -154 l20 -63 -79 -7 -79 -6 6 -142 7
-142 125 -315 c68 -173 130 -320 136 -327 7 -6 77 -39 157 -73 l146 -61 279
39 280 39 394 -84 393 -83 814 -651 c448 -357 826 -657 842 -664 15 -8 134
-42 265 -76 l239 -60 828 -761 827 -760 236 -667 235 -666 177 -1095 177
-1095 50 -860 50 -860 275 -715 275 -715 521 -518 c287 -284 636 -622 775
-749 139 -128 255 -241 258 -253 2 -11 47 -212 98 -447 l94 -427 142 -188 c79
-103 194 -256 256 -338 l113 -151 71 -457 c38 -251 70 -465 70 -475 0 -12 -67
-68 -202 -167 -172 -126 -235 -180 -408 -350 l-205 -202 -268 -164 -268 -164
-145 -152 -145 -153 -262 -132 c-144 -73 -388 -209 -542 -302 l-280 -168 -23
-52 c-21 -48 -39 -64 -274 -241 l-252 -190 -280 -372 -281 -373 -134 -337
c-74 -186 -141 -354 -149 -373 -7 -19 -9 -30 -4 -25 5 6 107 152 225 325 l215
315 301 270 c286 256 308 274 439 348 l137 78 95 -7 c52 -3 104 -7 115 -8 15
-1 73 57 209 207 104 114 190 207 191 207 2 0 38 7 81 16 77 16 83 19 249 143
181 135 195 145 195 137 0 -3 -89 -108 -197 -233 -118 -137 -227 -274 -272
-344 -61 -94 -126 -170 -331 -388 -232 -247 -279 -292 -515 -488 l-260 -215
-37 -120 c-29 -93 -61 -164 -151 -331 l-115 -212 -66 -319 c-36 -176 -64 -321
-63 -323 2 -2 73 128 157 289 108 207 176 326 234 404 l81 111 150 78 150 77
325 412 c289 365 333 416 393 458 53 36 87 72 153 160 47 62 90 118 95 123 6
6 -38 -84 -97 -200 -83 -163 -132 -245 -220 -365 l-112 -155 31 -42 30 -43
-75 -159 -76 -158 -26 -205 c-14 -113 -26 -214 -26 -224 0 -11 76 127 168 305
l167 323 83 47 83 46 342 537 342 536 356 349 356 349 699 393 699 393 206
201 206 202 12 110 c12 108 11 117 -38 490 -28 208 -49 380 -47 382 1 2 42
-55 89 -127 l87 -130 51 -307 50 -308 205 -485 204 -485 18 -345 19 -345 -95
-205 -94 -205 5 -185 5 -185 -123 -89 -123 -88 -11 -62 c-6 -33 -21 -125 -33
-204 l-22 -142 57 -58 c31 -32 57 -63 57 -70 0 -6 -33 -84 -72 -172 l-73 -161
-291 -302 -291 -302 -287 -154 c-157 -84 -286 -155 -286 -157 0 -3 46 9 420
114 l245 68 358 255 359 255 128 245 c78 148 136 248 148 253 11 6 24 24 30
40 123 388 267 823 274 831 4 5 8 -76 8 -181 l0 -189 65 -220 65 -220 0 -218
0 -219 64 -201 64 -202 17 -220 16 -220 46 -41 47 -40 -16 -205 c-16 -201 -18
-209 -97 -513 -45 -170 -80 -310 -78 -312 2 -2 56 75 121 171 112 169 119 182
192 378 68 180 78 217 94 334 l17 132 52 61 c28 34 51 71 51 83 0 12 -45 380
-100 816 -55 437 -98 797 -95 799 2 2 45 -80 94 -183 68 -141 100 -221 128
-323 l38 -135 97 -75 96 -75 26 -98 c21 -76 31 -155 47 -356 11 -142 21 -262
22 -266 2 -5 24 67 50 160 l48 168 -1 157 c0 123 -4 175 -21 244 l-21 87 21
57 21 58 -128 348 c-116 314 -135 374 -186 599 -32 138 -87 368 -122 512 -62
258 -64 267 -89 565 -15 167 -49 507 -76 757 -27 250 -48 455 -46 457 2 2 149
-105 328 -237 l324 -241 1607 -683 1608 -683 1237 -281 1238 -281 995 -106
c547 -59 999 -110 1003 -114 5 -4 39 -232 76 -506 l67 -499 288 -595 c283
-585 289 -600 396 -906 97 -278 113 -333 149 -520 39 -203 41 -215 42 -429 l1
-220 -51 -118 c-43 -101 -68 -142 -170 -277 l-119 -159 39 -106 c21 -58 39
-111 39 -117 0 -6 -91 -214 -201 -463 l-202 -453 -204 -233 -204 -233 -189
-90 -190 -91 0 -82 c0 -77 -1 -83 -22 -88 -13 -3 -178 -43 -367 -90 l-344 -86
-501 -36 c-299 -22 -505 -41 -511 -47 -7 -7 -62 -9 -170 -6 l-160 5 -233 -105
-233 -106 -84 -119 c-47 -65 -85 -120 -85 -123 0 -15 124 17 282 73 192 69
214 72 360 58 l68 -6 27 -73 28 -74 1286 0 1286 0 19 35 c21 39 25 40 143 25
l73 -10 120 113 120 112 -6 100 c-3 55 -9 129 -12 166 l-6 65 94 80 95 79 28
165 c16 91 32 174 36 185 4 11 75 112 157 224 119 161 208 265 428 503 164
177 291 307 311 316 30 14 48 44 153 250 l119 234 -74 324 -75 323 -11 233
-12 233 42 255 43 255 143 345 143 345 92 360 c51 198 95 366 99 373 5 8 88
-81 242 -257 l234 -269 602 -252 603 -253 743 -127 742 -126 353 -109 352
-109 238 -193 237 -193 125 -249 124 -250 176 -96 176 -95 137 -403 137 -402
64 -419 c40 -260 69 -422 77 -426 7 -5 50 -16 96 -26 46 -9 87 -22 90 -27 6
-10 52 -456 53 -508 0 -19 -41 -78 -151 -215 -83 -104 -154 -192 -158 -197 -4
-4 -134 -25 -289 -46 -253 -34 -283 -40 -299 -60 l-18 -22 -135 16 -135 16
-245 -51 c-135 -28 -254 -54 -266 -59 -18 -8 -194 -222 -194 -236 0 -9 66 5
259 55 l183 49 163 -21 163 -22 26 -53 26 -53 1042 2 1041 3 54 160 54 160 13
195 12 195 -58 360 c-47 287 -58 378 -56 450 3 75 6 90 19 89 9 -1 95 -12 192
-25 l176 -23 83 20 83 20 -115 36 c-63 20 -154 49 -202 63 -64 20 -123 49
-215 107 -71 44 -132 83 -137 88 -4 5 5 15 21 24 l30 15 -21 103 c-11 57 -24
108 -28 114 -4 6 -64 35 -134 64 -138 59 -137 58 -149 154 -4 31 -13 62 -20
69 -6 7 -75 53 -153 102 -126 80 -143 94 -152 125 -66 246 -138 600 -196 971
-59 376 -69 427 -90 452 -13 15 -97 110 -188 210 l-165 182 -163 58 c-90 32
-288 118 -440 190 l-277 132 -254 222 -254 221 -102 182 c-56 101 -100 184
-99 185 2 1 525 -31 1163 -72 l1160 -74 3822 -1489 3822 -1490 4208 -958 4208
-959 4135 -129 4135 -129 2760 89 2760 88 1661 -81 c914 -45 1674 -81 1689
-81 l26 0 -7 133 c-3 72 -9 179 -13 237 l-6 105 -757 1041 -757 1041 -53 21
c-29 12 -752 292 -1606 621 l-1554 600 -1691 345 -1692 344 -1380 482 c-1245
436 -1522 528 -2829 947 l-1449 464 -886 69 c-3464 271 -4111 321 -4226 326
-71 3 -1097 37 -2280 74 l-2150 69 -915 151 -916 150 -436 183 -436 183 -749
639 c-675 577 -880 745 -2080 1699 l-1331 1060 -481 1122 -480 1123 -85 2093
-85 2093 -786 1630 c-433 897 -926 1920 -1097 2275 -171 355 -316 650 -322
657 -6 7 -243 107 -526 222 l-514 211 -1461 107 -1460 106 -1375 -39 -1375
-40 -975 208 -975 209 -1658 120 -1658 119 -1307 -560 -1307 -561 -117 -132
c-64 -73 -488 -548 -942 -1057 l-825 -925 -314 -780 -314 -780 -67 -575 c-55
-466 -71 -578 -84 -591 -9 -9 -93 -62 -186 -118 l-168 -102 -105 37 c-75 27
-108 43 -114 58 -25 58 -221 756 -220 786 0 19 24 287 52 595 l52 560 378 993
379 993 -206 1211 c-113 667 -211 1219 -217 1228 -50 70 -1481 1810 -1488
1810 -5 0 -328 159 -717 353 l-707 354 -515 32 c-283 18 -543 35 -576 38 -59
5 -66 9 -187 102 l-126 97 -178 42 -178 42 -345 -34 c-189 -19 -349 -31 -355
-27 -5 4 -98 80 -205 168 l-195 160 -115 26 c-63 15 -122 27 -130 27 -8 -1
-168 -55 -355 -120z"/>
</g>
</svg>
