<?xml version="1.0" standalone="no"?>
<!DOCTYPE svg PUBLIC "-//W3C//DTD SVG 20010904//EN"
 "http://www.w3.org/TR/2001/REC-SVG-20010904/DTD/svg10.dtd">
<svg version="1.0" xmlns="http://www.w3.org/2000/svg"
 width="1011.000000pt" height="510.000000pt" viewBox="0 0 1011.000000 510.000000"
 preserveAspectRatio="xMidYMid meet">
<metadata>
Created by potrace 1.16, written by Peter Selinger 2001-2019
</metadata>
<g transform="translate(0.000000,510.000000) scale(0.100000,-0.100000)"
fill="#000000" stroke="none">
<path d="M9196 5077 c4 -11 -2 -13 -23 -10 -26 5 -27 4 -9 -9 18 -14 17 -15
-15 -11 -24 3 -30 2 -20 -5 10 -7 3 -12 -27 -17 -23 -4 -46 -4 -51 0 -6 3 -18
1 -28 -4 -10 -5 -47 -15 -82 -22 -60 -11 -62 -13 -40 -25 16 -9 19 -13 8 -14
-8 0 -43 -13 -77 -30 -34 -16 -65 -30 -68 -30 -6 0 -114 -81 -114 -86 0 -2 8
-1 18 2 11 4 8 -1 -8 -15 -14 -11 -33 -23 -43 -27 -10 -3 -16 -11 -15 -17 2
-7 -36 -52 -84 -100 -48 -49 -90 -98 -94 -110 -3 -12 -14 -31 -24 -42 -10 -11
-28 -40 -41 -65 -12 -25 -27 -51 -33 -59 -5 -7 -11 -19 -13 -27 -2 -8 -4 -20
-6 -26 -2 -7 -15 -39 -30 -72 -15 -32 -27 -64 -27 -70 0 -24 -88 -144 -150
-205 -153 -150 -185 -156 -363 -63 -37 19 -70 32 -73 29 -4 -3 -30 8 -59 24
-29 16 -61 32 -71 34 -11 2 -46 13 -79 25 -85 30 -104 35 -85 21 12 -9 8 -10
-15 -5 -16 4 -41 11 -53 16 -13 4 -28 5 -34 2 -7 -5 -8 -2 -3 6 6 9 4 12 -7 8
-8 -4 -34 2 -57 13 -24 10 -47 16 -52 13 -5 -3 -9 -1 -9 3 0 5 -24 9 -52 10
-126 5 -193 12 -276 29 -14 3 -21 1 -18 -5 7 -10 -31 -7 -108 9 -22 5 -43 7
-47 5 -28 -18 -1240 -22 -1349 -5 -41 7 -122 14 -180 17 -58 3 -125 7 -150 9
-35 4 -42 3 -30 -6 12 -10 12 -11 -5 -5 -19 7 -331 19 -385 15 -14 -1 -63 -1
-110 -1 -47 1 -116 -3 -155 -9 -38 -5 -143 -17 -233 -25 -89 -8 -166 -15 -170
-16 -4 0 2 -4 12 -8 13 -5 -31 -12 -115 -20 -73 -6 -190 -20 -259 -31 -69 -10
-172 -20 -230 -21 -124 -2 -338 16 -432 38 -37 8 -71 13 -75 10 -4 -3 -33 -1
-63 4 -48 8 -218 21 -260 21 -8 0 -44 -5 -80 -11 -36 -6 -146 -14 -245 -18
-98 -3 -171 -9 -160 -13 11 -4 -19 -10 -70 -14 -49 -3 -115 -13 -148 -22 -32
-8 -67 -12 -78 -9 -11 4 -19 2 -19 -5 0 -6 -3 -9 -8 -6 -4 2 -27 0 -52 -5 -25
-5 -88 -16 -140 -24 -52 -8 -120 -20 -150 -26 -30 -6 -82 -14 -115 -19 -77
-12 -208 -38 -260 -51 -22 -6 -65 -14 -95 -19 -30 -4 -44 -8 -31 -9 42 -2 19
-9 -84 -25 -116 -19 -195 -36 -210 -47 -6 -5 -31 -11 -55 -14 -25 -4 -54 -10
-65 -15 -11 -5 -67 -16 -125 -25 -58 -10 -107 -21 -110 -25 -3 -5 -33 -14 -67
-21 -55 -11 -62 -16 -61 -35 1 -13 7 -20 13 -16 11 7 90 13 140 11 129 -5 404
5 398 15 -4 5 -1 6 7 1 13 -8 53 -8 215 -1 47 2 63 1 50 -5 -14 -7 -10 -8 15
-4 19 4 107 8 195 11 88 3 228 8 312 12 83 4 149 4 147 0 -3 -4 17 -5 43 -1
26 4 62 7 78 6 17 -1 134 -4 260 -6 127 -2 241 -7 255 -10 14 -4 93 -14 175
-22 164 -17 338 -49 315 -58 -8 -3 12 -6 45 -7 33 -1 54 -4 48 -7 -29 -11 -9
-21 58 -28 47 -5 67 -10 58 -16 -10 -6 -5 -9 16 -9 47 -1 142 -26 125 -33 -9
-3 -4 -6 13 -6 16 -1 26 -5 23 -10 -3 -5 45 -14 106 -21 176 -19 255 -47 368
-128 41 -30 145 -133 145 -145 0 -4 15 -23 34 -42 27 -28 31 -37 21 -49 -6 -9
-9 -20 -6 -25 4 -5 1 -13 -5 -17 -8 -5 -9 -3 -4 7 8 12 6 12 -8 0 -18 -14 -24
-26 -8 -17 5 3 14 -7 21 -23 11 -27 9 -34 -20 -75 -17 -25 -27 -46 -22 -46 5
0 17 10 25 23 13 18 16 19 16 5 1 -9 -3 -19 -8 -22 -5 -3 -11 -15 -14 -26 -3
-13 -1 -18 6 -13 6 4 8 -1 5 -14 -3 -11 -1 -28 5 -38 6 -12 6 -16 -1 -11 -5 3
-12 0 -15 -8 -3 -8 1 -13 11 -12 10 1 18 -8 20 -21 2 -13 -1 -23 -6 -23 -5 0
-12 -9 -15 -20 -3 -11 -1 -18 4 -14 15 9 10 -25 -8 -53 -10 -15 -13 -24 -6
-20 25 15 3 -37 -29 -71 -29 -31 -30 -33 -8 -22 22 12 23 11 13 -2 -7 -8 -10
-17 -7 -20 4 -5 -1 -22 -32 -103 -4 -11 -6 -26 -5 -34 1 -7 -3 -35 -9 -62 -13
-54 -26 -65 -120 -99 -36 -13 -76 -32 -90 -43 -14 -10 -69 -77 -122 -149 -114
-154 -251 -305 -322 -357 -28 -20 -87 -56 -131 -80 -44 -23 -91 -55 -104 -69
-35 -40 -68 -117 -85 -203 -9 -42 -38 -137 -66 -213 -67 -181 -83 -246 -121
-471 -32 -196 -37 -281 -19 -315 8 -14 8 -31 -1 -58 -10 -35 -8 -44 26 -116
20 -42 44 -80 53 -83 9 -4 27 -17 40 -30 15 -17 31 -24 50 -22 15 2 33 0 40
-4 31 -20 2 53 -47 118 -21 27 -41 56 -45 63 -10 17 62 -31 101 -67 37 -36 69
-46 103 -33 20 8 30 6 48 -12 28 -25 107 -30 122 -7 7 12 12 12 34 -3 15 -9
26 -12 26 -6 0 25 -23 49 -80 86 -60 39 -73 54 -45 54 7 0 18 7 23 16 6 12 18
15 36 12 14 -3 26 -2 26 2 0 16 -28 29 -100 45 -148 32 -182 47 -233 99 -42
43 -47 52 -39 75 5 16 17 27 31 29 17 3 21 8 15 25 -3 12 -10 27 -14 32 -10
13 60 253 106 365 111 271 101 252 164 301 67 53 201 124 445 234 466 211 584
272 665 346 39 35 66 51 94 56 46 7 105 56 138 114 24 44 81 83 108 74 11 -4
23 3 34 20 24 36 39 31 21 -7 l-16 -33 31 35 c18 19 29 28 25 20 -4 -8 4 -4
17 10 28 31 110 83 89 57 -7 -9 -10 -17 -6 -17 4 0 0 -11 -9 -25 -9 -13 -16
-28 -16 -32 0 -4 15 15 34 42 25 38 50 59 96 83 l63 33 -22 -36 c-25 -43 -26
-46 -6 -39 8 3 17 15 20 25 7 21 69 85 98 101 17 8 17 7 7 -12 -6 -12 -9 -24
-6 -27 2 -3 13 12 23 33 l19 39 64 -3 c36 -2 94 -9 130 -16 51 -11 60 -15 43
-21 -13 -4 -23 -11 -23 -16 0 -7 22 -6 58 5 9 3 29 7 44 10 35 6 99 28 114 38
6 5 16 2 22 -5 9 -11 -5 -21 -69 -52 -94 -46 -200 -147 -243 -233 -83 -165
-231 -351 -340 -429 -79 -56 -106 -84 -132 -135 -26 -52 -31 -114 -13 -169 15
-45 73 -105 129 -134 25 -13 92 -60 150 -106 58 -45 145 -109 195 -141 97 -64
359 -199 424 -219 22 -7 43 -20 46 -29 3 -9 16 -23 30 -30 13 -7 27 -26 30
-42 4 -16 16 -38 28 -49 13 -12 22 -33 23 -54 0 -19 8 -43 18 -53 15 -17 15
-20 1 -32 -20 -16 -19 -79 1 -101 13 -14 13 -21 3 -40 -12 -23 -12 -23 11 -8
23 15 80 137 80 171 0 16 3 15 25 -4 15 -13 21 -25 16 -32 -5 -6 -12 -25 -16
-43 -5 -27 -2 -37 19 -58 29 -29 32 -45 14 -63 -9 -9 -8 -12 5 -12 20 0 43 33
52 75 4 17 13 47 21 67 15 42 10 85 -17 139 -10 20 -16 39 -12 42 12 13 -9 57
-51 110 -37 44 -58 60 -112 81 -37 15 -79 36 -93 48 -14 11 -107 71 -205 133
-99 63 -217 144 -264 182 -46 37 -118 96 -160 130 -42 34 -88 63 -101 65 -21
3 -16 8 40 42 92 57 565 384 694 482 143 108 204 168 238 235 35 70 82 117
127 125 32 7 34 6 21 -9 -7 -9 -19 -17 -26 -17 -7 0 -23 -9 -36 -20 -19 -16
-9 -14 49 11 83 34 115 34 57 1 -64 -39 -30 -36 42 2 37 20 59 30 48 21 -44
-34 -115 -110 -105 -113 6 -2 21 4 33 14 12 11 5 -1 -16 -25 -20 -25 -35 -47
-32 -49 3 -3 33 17 67 44 l62 48 -42 -53 c-44 -55 -56 -87 -22 -56 10 9 36 42
56 71 21 30 39 54 41 54 1 0 -7 -24 -18 -52 -12 -29 -23 -62 -24 -73 -2 -11
-13 -42 -24 -69 -16 -37 -18 -47 -7 -43 9 4 16 -1 18 -11 3 -13 8 -10 21 13
13 25 16 27 17 10 1 -16 4 -14 16 10 l15 30 -6 -42 c-5 -41 7 -59 19 -28 11
29 24 14 31 -35 7 -50 25 -60 25 -14 0 14 4 22 10 19 6 -3 10 2 10 12 1 11 7
4 16 -16 8 -19 16 -32 19 -29 3 2 6 37 7 77 l2 72 23 -57 c29 -72 35 -78 29
-28 -5 38 -5 38 9 14 13 -22 14 -23 15 -5 1 19 2 18 13 -3 7 -12 16 -20 20
-16 3 4 9 -1 13 -10 3 -9 10 -13 15 -10 5 3 6 -3 2 -12 -4 -10 -2 -15 3 -11 6
3 19 -17 30 -45 10 -27 22 -52 25 -54 7 -4 -3 43 -16 81 -6 17 -4 17 14 -4 12
-13 21 -20 21 -15 0 4 11 -3 24 -15 13 -12 32 -24 42 -25 12 -1 30 -25 49 -64
35 -71 42 -80 41 -50 -2 39 21 29 38 -17 11 -27 22 -42 29 -38 7 4 8 0 3 -13
-6 -16 -4 -15 14 4 l22 23 46 -42 c26 -24 53 -52 60 -63 12 -19 13 -19 7 -2
-6 19 -5 19 15 1 26 -24 26 -28 -11 -70 -17 -19 -26 -35 -20 -35 6 0 -12 -45
-40 -100 -66 -130 -72 -154 -54 -196 17 -42 27 -44 19 -5 -5 24 0 34 33 65 24
22 45 53 52 78 14 46 59 118 73 118 6 0 7 -10 3 -22 -3 -13 -11 -66 -16 -118
-5 -52 -13 -111 -17 -131 -8 -32 4 -268 14 -278 8 -9 15 8 23 60 5 30 21 79
35 109 18 38 26 72 26 110 0 30 7 80 15 110 8 30 15 79 15 108 0 33 4 51 10
47 6 -3 10 -25 10 -48 1 -23 5 -62 11 -87 5 -25 16 -83 24 -130 16 -97 83
-291 104 -298 10 -3 11 3 5 29 -5 19 -7 79 -6 134 2 68 -2 116 -13 150 -8 28
-15 73 -15 101 0 28 -7 71 -15 94 -21 59 -20 130 1 130 11 0 14 5 9 18 -4 9
-9 27 -10 39 -2 12 -6 27 -10 33 -6 9 -2 9 14 1 13 -8 21 -8 21 -2 0 6 -13 17
-30 26 -16 9 -30 18 -30 21 0 2 14 -3 31 -11 45 -24 48 -10 2 15 -35 20 -33
20 15 4 14 -5 14 -3 -2 10 -11 9 -24 16 -29 16 -4 0 -6 4 -3 9 4 5 -7 12 -24
16 -16 4 -33 11 -37 17 -4 7 0 9 10 5 8 -3 33 -9 54 -12 37 -6 37 -6 12 8 -14
7 -39 17 -55 22 -27 7 -27 8 -9 16 16 7 13 8 -12 6 -18 -2 -33 0 -33 5 0 4
-10 9 -22 9 -15 1 -11 4 12 9 35 7 35 7 5 9 -36 2 -113 46 -93 54 8 3 5 6 -7
7 l-20 1 20 9 c15 6 16 9 4 9 -9 1 -16 7 -16 14 -1 6 -3 41 -6 75 -3 43 -2 61
5 54 6 -6 16 -8 23 -6 6 3 18 -2 25 -11 14 -17 35 -21 24 -3 -4 7 -3 8 5 4 9
-6 9 -11 1 -21 -8 -9 -5 -14 10 -18 13 -3 19 -1 18 6 -2 7 2 13 7 15 6 1 10
-1 10 -5 1 -14 65 -72 65 -58 0 7 -5 15 -12 17 -6 2 -12 13 -14 24 -3 20 4 14
56 -54 l20 -27 -9 27 c-8 20 -6 28 4 32 8 3 17 1 20 -5 4 -5 12 -9 18 -8 29 4
42 -4 94 -58 30 -32 49 -47 43 -35 -19 38 -5 36 42 -4 23 -21 54 -47 67 -59
l24 -20 -21 36 c-12 20 -22 39 -22 43 0 13 76 -33 104 -63 31 -32 59 -32 30 0
-9 10 -12 19 -6 19 11 0 29 -25 31 -43 0 -4 6 -16 13 -27 10 -15 15 -17 27 -7
12 10 13 8 7 -13 -3 -14 -11 -79 -16 -144 -10 -127 -3 -183 26 -207 15 -12 16
-10 10 18 -5 21 -2 42 9 64 10 18 18 61 20 103 1 39 7 82 12 95 9 22 11 17 17
-33 3 -32 13 -74 22 -94 8 -20 22 -72 29 -114 14 -75 34 -127 61 -159 8 -8 22
-49 32 -90 15 -58 20 -69 26 -52 4 12 2 57 -3 98 -6 42 -11 100 -11 128 0 29
-9 81 -20 115 -11 35 -20 76 -20 91 0 15 -9 54 -20 86 -11 32 -20 62 -20 68 0
22 29 -17 45 -61 10 -26 30 -63 46 -84 16 -20 45 -70 64 -112 25 -51 50 -88
80 -113 24 -21 58 -63 74 -93 27 -49 31 -52 31 -27 0 16 -5 38 -11 49 -6 11
-24 59 -41 107 -16 47 -44 109 -62 136 -18 28 -43 71 -54 97 -11 26 -32 62
-46 80 -22 29 -66 120 -66 135 0 4 10 -2 22 -13 26 -23 16 -1 -16 34 -20 22
-20 23 -1 17 17 -6 16 -3 -5 16 l-25 22 30 -7 c28 -6 29 -5 11 9 -11 8 -24 15
-30 15 -5 0 -7 2 -5 5 3 2 19 1 37 -4 25 -8 30 -7 25 5 -3 8 -15 14 -27 14
-16 0 -18 2 -7 9 9 6 0 11 -30 16 -24 3 -60 12 -79 18 l-35 12 40 6 40 6 -35
2 c-30 2 -32 4 -15 12 14 7 7 8 -27 4 -27 -2 -48 -1 -48 4 0 5 -21 11 -46 14
-26 2 -49 9 -53 14 -3 6 -13 13 -21 17 -8 3 -3 4 13 2 15 -2 27 1 27 5 0 5
-21 9 -47 10 -27 1 -59 5 -73 9 l-25 8 25 1 c21 2 19 4 -15 16 -22 8 -53 15
-70 15 -16 0 -37 5 -45 10 -14 9 -13 11 9 14 5 0 13 4 17 8 4 5 -15 8 -42 8
-27 0 -60 4 -74 8 -22 6 -19 8 20 13 43 6 42 6 -20 8 l-65 3 45 14 c28 8 36
13 20 12 -60 -1 -80 3 -80 16 0 9 -14 13 -52 12 -65 0 -98 15 -53 25 27 6 25
7 -15 9 l-45 2 35 13 c19 7 30 14 23 14 -8 1 -8 10 0 36 6 20 14 31 17 24 5
-7 9 -4 12 8 3 10 9 27 13 38 4 14 2 13 -10 -5 l-16 -25 7 25 c4 14 9 31 11
38 3 6 1 12 -4 12 -5 0 -10 22 -11 50 -2 54 -1 57 21 36 12 -13 14 -5 15 55 1
45 7 78 17 92 14 20 15 19 15 -28 0 -65 20 -47 24 21 1 27 5 56 9 64 3 8 8 24
10 35 4 15 5 13 6 -7 0 -15 -4 -30 -9 -33 -12 -7 -4 -25 11 -25 5 0 9 32 9 70
0 52 4 72 14 76 8 3 12 12 9 20 -11 29 8 13 23 -18 14 -32 14 -31 8 28 -4 41
-3 64 5 68 6 4 11 18 11 31 0 37 18 39 22 3 3 -26 6 -18 13 32 9 64 10 65 16
25 l6 -40 2 35 c2 28 4 31 10 16 7 -18 8 -18 14 5 4 13 7 42 7 63 0 37 1 39
15 20 13 -18 14 -16 15 25 0 35 3 41 13 32 17 -14 27 -4 27 26 0 17 4 22 13
16 23 -14 37 -11 37 7 0 28 18 34 23 8 3 -18 5 -17 6 7 1 20 4 26 10 17 6 -10
19 -7 60 18 29 16 50 26 46 20 -12 -20 12 -10 34 14 13 13 34 27 47 30 13 4
64 36 113 71 86 63 185 115 218 115 14 0 14 -2 -3 -15 -16 -13 -12 -13 21 1
22 9 49 21 60 27 55 29 101 50 112 50 7 0 11 3 10 6 -1 3 2 7 6 8 4 1 19 9 33
18 13 8 30 14 37 13 15 -3 64 32 115 82 19 19 32 29 28 23 -4 -7 -5 -13 -1
-13 3 0 18 20 34 45 15 24 31 42 34 38 4 -3 12 6 18 21 7 14 16 26 21 26 5 0
7 4 4 9 -4 5 -2 11 2 13 12 4 82 106 82 118 0 6 5 8 10 5 6 -3 14 4 19 17 5
13 20 48 34 78 25 55 72 181 111 298 11 34 26 62 32 62 6 0 17 14 24 30 7 17
16 30 19 30 4 0 15 15 24 33 21 39 96 143 102 140 3 -1 26 4 52 12 57 18 56
17 48 5 -3 -6 1 -7 9 -4 9 3 13 10 10 15 -3 5 2 6 10 3 18 -7 21 -20 6 -29 -5
-3 -15 -16 -21 -28 -12 -22 -11 -22 14 1 23 21 41 29 73 31 7 1 26 23 44 50
27 43 78 100 56 64 -4 -8 -1 -13 8 -13 8 0 20 10 27 21 6 13 14 17 18 11 7
-12 76 -27 111 -24 14 2 98 3 187 4 90 0 160 4 158 8 -8 13 213 24 228 12 21
-18 87 3 118 38 34 37 32 64 -10 104 -29 28 -172 92 -230 102 -20 4 -45 13
-56 20 -11 8 -36 14 -57 14 -20 0 -40 5 -43 10 -3 6 -17 10 -30 10 -13 0 -27
5 -30 10 -3 6 -15 10 -26 10 -11 0 -30 5 -42 12 -12 6 -45 12 -74 14 -32 1
-67 10 -89 23 -19 12 -40 19 -45 16 -5 -4 -9 -1 -9 5 0 6 -5 8 -10 5 -6 -4 -8
-10 -5 -15 3 -5 -4 -7 -16 -5 -13 3 -26 10 -31 17 -4 7 -8 9 -8 4 0 -5 -6 -3
-14 3 -11 9 -15 9 -18 0 -3 -9 -9 -9 -26 0 -18 9 -21 9 -16 -2z m-246 -507 c0
-5 -5 -10 -11 -10 -5 0 -7 5 -4 10 3 6 8 10 11 10 2 0 4 -4 4 -10z m-2890
-1789 c0 -13 -37 -24 -51 -15 -8 5 -9 3 -3 -7 25 -40 7 -49 -53 -24 -46 19
-53 19 -25 -1 13 -9 21 -22 18 -30 -3 -8 1 -14 10 -14 8 0 13 -4 10 -9 -4 -5
0 -12 6 -14 7 -3 3 -6 -10 -6 -15 -1 -21 -5 -16 -13 5 -7 3 -8 -7 -2 -20 12
-40 14 -33 3 3 -5 -4 -9 -15 -9 -47 0 -27 -27 27 -36 32 -6 20 -12 -17 -10
-22 2 -38 -1 -35 -6 3 -4 -3 -8 -12 -8 -16 0 -16 -1 1 -14 11 -8 23 -12 27
-10 4 2 9 0 13 -6 3 -5 1 -10 -5 -10 -6 0 -8 -4 -5 -10 7 -11 -9 -13 -41 -4
-24 6 -52 54 -32 54 7 0 9 18 4 58 -9 79 1 125 25 119 11 -3 19 -1 19 4 0 5
19 9 43 10 23 0 51 4 62 9 27 12 95 12 95 1z m-80 -141 c0 -5 -2 -10 -4 -10
-3 0 -8 5 -11 10 -3 6 -1 10 4 10 6 0 11 -4 11 -10z m-123 -226 c-3 -3 -12 -4
-19 -1 -8 3 -5 6 6 6 11 1 17 -2 13 -5z m53 -30 c0 -2 -18 -4 -40 -4 -22 0
-40 3 -40 8 0 4 18 6 40 4 22 -2 40 -6 40 -8z m1047 -166 c-3 -8 -6 -5 -6 6
-1 11 2 17 5 13 3 -3 4 -12 1 -19z m-537 -53 c-7 -9 -15 -13 -19 -10 -3 3 1
10 9 15 21 14 24 12 10 -5z m510 -26 c0 -11 -4 -18 -10 -14 -5 3 -7 12 -3 20
7 21 13 19 13 -6z m-562 -24 c-3 -3 -9 2 -12 12 -6 14 -5 15 5 6 7 -7 10 -15
7 -18z m200 -90 c-25 -35 -37 -44 -52 -40 -18 5 -18 4 2 -8 24 -14 21 -20 -16
-42 -11 -6 -12 -3 -3 14 7 11 8 21 2 21 -19 0 -19 30 0 54 25 31 44 35 29 5
-10 -18 -9 -19 7 -11 10 6 27 20 37 31 30 34 28 24 -6 -24z m472 21 c0 -11
-19 -15 -25 -6 -3 5 1 10 9 10 9 0 16 -2 16 -4z m-428 -99 c-11 -37 -22 -57
-32 -56 -10 0 -11 2 -2 6 6 2 10 9 7 13 -5 8 36 103 41 97 2 -1 -5 -28 -14
-60z m28 -17 c0 -30 -4 -40 -16 -40 -11 0 -14 5 -10 16 3 9 9 27 12 40 9 35
14 29 14 -16z m-89 -3 c-10 -9 -11 -8 -5 6 3 10 9 15 12 12 3 -3 0 -11 -7 -18z
m82 -66 c-4 -17 -8 -18 -24 -8 -18 11 -18 12 -1 19 27 11 30 9 25 -11z m67
-26 c0 -25 -4 -45 -9 -45 -8 0 -9 23 -2 78 3 30 11 8 11 -33z m42 -34 c1 -13
-2 -26 -8 -28 -6 -2 -11 13 -12 39 -1 45 13 37 20 -11z m31 -51 c3 -11 1 -20
-4 -20 -5 0 -9 5 -9 10 0 6 -8 10 -17 10 -15 0 -16 2 -3 10 22 14 27 12 33
-10z m24 -32 c-3 -8 -6 -5 -6 6 -1 11 2 17 5 13 3 -3 4 -12 1 -19z m723 -123
c0 -8 -5 -15 -11 -15 -5 0 -7 -6 -3 -12 6 -10 3 -9 -8 0 -9 8 -14 20 -11 28 7
19 33 18 33 -1z m-878 -69 c-3 -5 -9 -1 -13 10 -12 31 -10 39 5 19 8 -11 12
-24 8 -29z"/>
<path d="M2338 4123 c6 -2 18 -2 25 0 6 3 1 5 -13 5 -14 0 -19 -2 -12 -5z"/>
<path d="M3659 3013 c-13 -16 -12 -17 4 -4 16 13 21 21 13 21 -2 0 -10 -8 -17
-17z"/>
<path d="M3671 2987 c-13 -21 -12 -21 5 -5 10 10 16 20 13 22 -3 3 -11 -5 -18
-17z"/>
<path d="M3680 2771 c0 -7 -5 -9 -12 -5 -7 5 -8 3 -3 -5 5 -9 10 -10 18 -2 6
6 8 14 4 18 -4 3 -7 1 -7 -6z"/>
<path d="M7172 2750 c0 -19 2 -27 5 -17 2 9 2 25 0 35 -3 9 -5 1 -5 -18z"/>
<path d="M6991 2324 c0 -11 3 -14 6 -6 3 7 2 16 -1 19 -3 4 -6 -2 -5 -13z"/>
<path d="M7495 1870 c3 -5 13 -10 21 -10 8 0 14 5 14 10 0 6 -9 10 -21 10 -11
0 -17 -4 -14 -10z"/>
<path d="M7100 1766 c0 -2 8 -10 18 -17 15 -13 16 -12 3 4 -13 16 -21 21 -21
13z"/>
<path d="M6410 1685 c0 -5 5 -17 10 -25 5 -8 10 -10 10 -5 0 6 -5 17 -10 25
-5 8 -10 11 -10 5z"/>
<path d="M6560 1585 c0 -5 5 -17 10 -25 5 -8 10 -10 10 -5 0 6 -5 17 -10 25
-5 8 -10 11 -10 5z"/>
</g>
</svg>
