<?xml version="1.0" standalone="no"?>
<!DOCTYPE svg PUBLIC "-//W3C//DTD SVG 20010904//EN"
 "http://www.w3.org/TR/2001/REC-SVG-20010904/DTD/svg10.dtd">
<svg version="1.0" xmlns="http://www.w3.org/2000/svg"
 width="4801.000000pt" height="2051.000000pt" viewBox="0 0 4801.000000 2051.000000"
 preserveAspectRatio="xMidYMid meet">
<metadata>
Created by potrace 1.16, written by Peter Selinger 2001-2019
</metadata>
<g transform="translate(0.000000,2051.000000) scale(0.100000,-0.100000)"
fill="#000000" stroke="none">
<path d="M11231 20484 c-40 -51 -46 -97 -46 -354 1 -180 7 -308 24 -485 27
-274 32 -584 12 -710 -7 -44 -32 -165 -56 -270 -24 -104 -60 -286 -80 -403
-41 -242 -54 -289 -136 -492 -32 -80 -70 -187 -84 -237 -14 -51 -36 -135 -50
-185 -29 -105 -70 -194 -148 -320 -30 -47 -71 -133 -92 -190 -49 -134 -71
-176 -141 -273 -122 -169 -163 -233 -214 -335 -102 -204 -144 -254 -416 -495
-88 -79 -180 -167 -204 -195 -44 -52 -44 -52 -92 -47 -26 3 -84 17 -128 31
-45 14 -106 29 -138 32 -75 8 -156 41 -326 132 -494 265 -902 429 -1317 531
-784 194 -1785 201 -2694 20 -542 -108 -850 -230 -1785 -708 -877 -449 -1437
-686 -1739 -736 -81 -14 -141 -16 -289 -12 -286 7 -421 38 -763 173 -199 78
-285 98 -314 74 -10 -8 -13 -21 -9 -34 12 -41 90 -129 191 -218 56 -49 105
-99 109 -111 11 -34 192 -207 308 -294 300 -225 671 -337 1116 -337 196 0 303
12 530 55 342 67 634 148 1200 334 397 131 816 255 1055 313 255 63 443 82
794 82 824 0 1484 -144 1889 -413 88 -59 133 -106 170 -175 58 -110 63 -145
60 -419 -2 -136 1 -295 6 -353 8 -94 6 -114 -13 -185 -26 -94 -126 -303 -206
-430 -185 -291 -517 -672 -865 -990 -159 -146 -258 -224 -334 -262 -79 -40
-271 -108 -371 -131 -211 -49 -656 -90 -1065 -99 -316 -7 -479 3 -749 43 -270
40 -299 43 -337 32 -78 -21 -70 -100 34 -313 197 -403 399 -644 897 -1070 219
-187 329 -296 355 -351 34 -70 24 -145 -59 -429 -215 -745 -245 -1226 -101
-1657 131 -392 340 -637 681 -797 348 -163 652 -222 754 -147 19 14 19 15 1
72 -38 120 -47 182 -53 369 -4 148 -2 210 10 280 19 107 54 225 67 225 5 0 71
-11 147 -24 228 -40 355 -49 597 -43 249 6 379 23 576 73 167 43 323 104 508
200 160 83 234 128 477 295 268 184 399 260 515 299 114 38 643 62 875 40 624
-62 929 -76 1260 -61 940 44 1262 45 1815 7 118 -8 296 -20 395 -26 667 -39
1168 -115 1904 -286 129 -29 238 -54 243 -54 4 0 35 -37 70 -83 84 -110 210
-256 352 -407 65 -69 151 -169 192 -222 69 -92 232 -355 286 -463 53 -104 120
-280 163 -427 41 -143 95 -306 195 -593 58 -168 57 -202 -7 -303 -28 -42 -124
-192 -215 -332 -90 -140 -211 -331 -268 -425 -128 -210 -386 -621 -535 -855
-161 -251 -258 -425 -411 -734 -173 -350 -177 -365 -176 -635 1 -157 -2 -218
-14 -265 -28 -109 -70 -191 -138 -273 -86 -102 -136 -204 -190 -388 -25 -82
-56 -181 -70 -220 -14 -40 -26 -92 -26 -121 0 -28 -7 -97 -16 -155 -18 -119
-15 -310 6 -350 17 -31 40 -48 66 -49 12 0 92 50 178 111 87 61 158 110 159
108 2 -2 11 -35 22 -74 12 -45 21 -121 25 -215 6 -155 22 -213 69 -255 51 -44
147 -13 247 81 97 92 184 164 198 164 25 0 106 60 136 101 l30 42 0 -59 c0
-199 79 -342 227 -415 74 -37 169 -33 248 8 143 74 196 178 225 433 6 57 24
154 40 215 30 113 54 323 44 385 -3 19 -2 59 3 89 l8 54 43 -99 c24 -54 60
-144 80 -198 29 -78 47 -110 83 -148 37 -39 52 -48 80 -48 45 0 137 55 160 95
43 74 51 319 19 615 -28 255 -19 313 64 439 56 84 139 180 301 351 221 234
458 511 826 966 63 78 177 220 255 315 299 369 559 738 644 914 83 171 108
316 117 680 6 259 -4 384 -50 613 -20 97 -21 112 -7 107 124 -48 430 -144 592
-185 l207 -53 53 -66 c54 -68 161 -194 427 -504 84 -99 166 -200 182 -225 34
-54 35 -79 15 -238 -33 -247 -73 -701 -116 -1324 -17 -239 -37 -507 -46 -595
-8 -88 -19 -299 -24 -470 -6 -170 -13 -378 -16 -461 -8 -189 4 -249 91 -464
77 -190 90 -247 82 -388 -6 -114 -33 -226 -88 -357 -28 -68 -39 -80 -170 -201
-245 -224 -331 -362 -268 -425 21 -21 26 -21 312 -16 178 3 311 10 341 17 42
10 52 10 80 -5 29 -16 54 -17 232 -11 253 9 224 9 330 0 157 -12 263 17 333
90 19 20 41 36 48 36 7 0 32 -20 56 -44 55 -57 116 -76 272 -83 186 -8 290 19
329 87 24 41 25 140 2 260 -9 47 -21 141 -26 210 -5 69 -19 184 -30 255 -25
148 -30 269 -13 286 15 15 70 2 273 -63 246 -80 336 -72 368 33 19 63 9 130
-27 182 -17 23 -115 129 -220 235 -230 234 -236 244 -235 392 1 136 20 231
109 540 117 404 347 1297 429 1668 49 215 110 544 137 728 28 192 23 338 -15
467 -14 48 -26 92 -26 97 0 6 122 10 335 10 184 0 505 7 712 15 208 8 560 22
783 30 223 9 466 20 540 25 74 5 167 9 205 9 l70 1 47 -98 c107 -223 243 -447
588 -972 302 -458 386 -607 473 -840 74 -198 81 -257 82 -695 1 -422 -1 -396
67 -648 37 -138 39 -156 36 -255 -3 -95 -8 -118 -42 -207 -21 -55 -83 -192
-137 -305 -54 -113 -117 -258 -139 -324 -68 -196 -134 -307 -228 -382 -95 -75
-311 -172 -567 -254 -55 -18 -118 -41 -140 -53 -255 -129 -470 -350 -452 -464
11 -63 20 -66 187 -71 82 -3 150 -8 150 -13 0 -16 75 -29 135 -24 33 3 236 12
450 20 413 16 490 23 650 57 55 12 127 21 160 20 59 -3 278 42 435 88 60 17
382 73 693 121 141 21 209 45 228 80 14 28 8 178 -17 374 -51 414 16 783 189
1028 51 73 143 309 184 472 25 97 28 129 28 270 0 200 -7 226 -186 707 -179
482 -229 656 -274 948 -16 108 -33 565 -22 594 6 14 22 8 109 -38 237 -126
612 -272 1203 -467 473 -156 647 -222 805 -305 262 -139 388 -253 594 -539
192 -267 247 -329 414 -464 144 -117 195 -175 245 -276 19 -38 61 -248 86
-430 23 -166 30 -196 81 -385 65 -237 69 -374 14 -519 -32 -83 -149 -308 -224
-426 -93 -149 -106 -175 -148 -305 -86 -265 -82 -476 10 -543 17 -13 35 -18
51 -14 13 4 73 48 133 100 60 51 130 104 155 118 25 15 152 105 282 203 130
97 239 176 243 176 3 0 19 -11 36 -25 16 -14 34 -25 40 -25 6 0 115 103 243
230 131 128 248 235 267 243 25 11 58 49 134 158 56 79 126 187 155 239 47 86
69 111 223 260 302 291 333 323 340 357 11 50 -13 87 -171 265 -80 89 -164
186 -186 213 -192 240 -337 584 -337 800 0 69 -93 387 -154 524 -88 198 -200
338 -371 461 -44 32 -186 124 -315 205 -468 294 -604 397 -860 654 -176 177
-287 310 -448 540 -265 379 -404 540 -539 627 -95 62 -154 117 -183 173 -37
73 -33 79 102 151 67 36 233 127 368 204 756 427 1182 631 1423 682 44 9 129
14 237 14 96 0 181 5 197 11 15 6 88 10 161 10 73 0 169 7 215 15 198 35 331
29 577 -28 686 -156 1685 -544 3145 -1221 941 -436 1827 -828 2255 -999 678
-269 1701 -556 2670 -747 443 -88 1023 -157 1640 -196 135 -9 333 -22 440 -30
107 -7 263 -17 345 -20 83 -4 206 -11 275 -16 69 -5 211 -14 315 -19 245 -14
810 -65 990 -90 77 -11 196 -27 265 -35 205 -25 652 -111 905 -175 222 -56
270 -71 370 -116 55 -25 122 -55 148 -67 105 -46 291 -191 473 -369 148 -145
172 -158 207 -120 28 31 20 65 -38 156 -80 128 -152 216 -294 362 -126 129
-139 139 -387 299 -91 59 -206 117 -308 154 -45 17 -137 54 -206 84 -69 30
-179 73 -245 95 -66 22 -178 62 -250 87 -152 55 -656 201 -865 252 -80 19
-217 52 -305 74 -88 21 -243 57 -345 79 -320 68 -656 147 -1254 296 -785 196
-1015 261 -1322 377 -428 161 -994 426 -1124 526 -36 28 -70 50 -76 51 -44 1
-324 163 -578 333 -189 127 -260 185 -313 252 -35 45 -58 61 -135 99 -95 46
-213 134 -426 319 -158 137 -198 179 -230 243 -31 61 -41 69 -126 99 -69 25
-296 211 -520 425 -87 84 -114 117 -137 167 -30 66 -51 85 -116 102 -60 16
-138 78 -322 257 -222 215 -283 288 -317 377 -34 91 -67 126 -146 156 -58 21
-78 38 -263 225 -336 339 -411 434 -470 601 -24 67 -76 114 -166 149 -64 26
-86 41 -164 120 -154 155 -511 593 -580 711 -15 25 -37 86 -50 135 -33 130
-46 148 -145 198 -109 54 -151 97 -484 497 -342 410 -409 500 -447 600 -63
161 -82 184 -209 244 -105 49 -97 43 -560 425 -614 507 -683 572 -765 726 -27
50 -60 100 -75 110 -15 10 -62 29 -106 40 -145 39 -150 42 -544 314 -311 214
-712 479 -917 606 -116 71 -156 103 -249 197 -122 123 -111 118 -264 127 -105
7 -177 27 -406 111 -273 102 -717 259 -1144 405 -409 140 -490 175 -565 240
-25 22 -59 47 -75 55 -34 17 -110 20 -160 5 -46 -14 -188 -14 -275 0 -187 29
-1035 243 -1259 317 -75 25 -130 51 -171 80 -147 105 -145 105 -205 100 -30
-2 -91 -12 -134 -23 -76 -18 -85 -18 -270 -1 -105 10 -375 33 -601 52 -587 50
-595 51 -740 118 -119 55 -175 56 -294 8 l-83 -34 -382 7 c-209 4 -525 11
-701 16 -309 8 -322 9 -388 34 -89 34 -131 33 -203 -5 -72 -38 -184 -60 -439
-89 -104 -11 -278 -32 -386 -45 -334 -42 -438 -48 -513 -29 -79 20 -116 14
-182 -27 -71 -46 -157 -68 -690 -176 -471 -95 -481 -97 -623 -98 l-143 0 -42
-36 c-66 -57 -82 -65 -256 -124 -346 -117 -679 -212 -794 -225 -59 -7 -86 -16
-112 -35 -52 -40 -333 -144 -919 -341 -733 -247 -1038 -307 -1555 -308 -313
-1 -386 7 -590 65 -231 65 -355 113 -655 254 -159 74 -335 156 -390 182 l-100
46 4 431 c7 716 9 690 -95 1121 -108 449 -125 515 -166 640 -74 227 -151 361
-458 800 -294 421 -414 568 -588 719 -53 47 -115 109 -137 138 -110 145 -341
352 -661 590 -141 105 -207 143 -299 173 -44 14 -136 54 -205 90 -164 83 -203
93 -278 71 l-57 -18 -110 36 c-130 43 -169 45 -219 11 -20 -14 -41 -25 -45
-25 -5 0 -27 18 -50 40 -48 47 -72 50 -100 14z"/>
</g>
</svg>
