<?xml version="1.0" standalone="no"?>
<!DOCTYPE svg PUBLIC "-//W3C//DTD SVG 20010904//EN"
 "http://www.w3.org/TR/2001/REC-SVG-20010904/DTD/svg10.dtd">
<svg version="1.0" xmlns="http://www.w3.org/2000/svg"
 width="1777.000000pt" height="825.000000pt" viewBox="0 0 1777.000000 825.000000"
 preserveAspectRatio="xMidYMid meet">
<metadata>
Created by potrace 1.16, written by Peter Selinger 2001-2019
</metadata>
<g transform="translate(0.000000,825.000000) scale(0.100000,-0.100000)"
fill="#000000" stroke="none">
<path d="M2223 8190 c9 -63 -69 -120 -83 -61 -8 36 -34 49 -55 27 -16 -16 -18
-16 -37 1 -20 18 -20 17 -17 -7 2 -14 0 -31 -4 -37 -12 -19 -48 -16 -54 5 -3
12 -15 19 -37 20 -30 2 -35 -1 -49 -37 -11 -26 -22 -38 -34 -37 -13 1 -19 -7
-21 -26 -2 -14 -10 -32 -19 -39 -13 -11 -17 -10 -28 4 -11 15 -14 15 -25 2 -7
-8 -16 -13 -20 -10 -5 3 -22 -8 -38 -25 -41 -40 -61 -38 -52 5 1 6 -11 -2 -27
-17 -16 -16 -34 -28 -40 -28 -6 0 -21 -21 -33 -47 -12 -27 -29 -59 -38 -73
-14 -22 -16 -22 -22 -6 -5 15 -14 10 -55 -33 -27 -28 -58 -51 -68 -51 -10 0
-21 -9 -24 -20 -3 -11 -9 -20 -14 -20 -5 0 -19 -10 -31 -22 -13 -13 -25 -23
-28 -23 -3 0 -27 -22 -55 -48 -27 -27 -65 -56 -83 -64 -19 -9 -41 -27 -49 -40
-9 -14 -48 -47 -87 -74 -98 -67 -109 -76 -102 -87 7 -11 -16 -22 -45 -22 -11
0 -22 -7 -25 -15 -3 -8 -16 -17 -27 -21 -12 -4 -35 -17 -50 -30 -16 -13 -33
-24 -39 -24 -10 0 -127 -67 -196 -112 -15 -10 -38 -23 -52 -30 -37 -19 -183
-108 -200 -123 -8 -7 -20 -14 -27 -16 -6 -2 -49 -37 -96 -76 -64 -56 -86 -82
-95 -111 -16 -53 -15 -104 2 -127 8 -11 12 -24 9 -31 -5 -14 48 -54 71 -54 9
0 16 -4 16 -9 0 -5 16 -19 36 -30 34 -20 42 -21 113 -11 85 13 113 19 221 49
41 11 100 25 130 32 30 6 75 20 99 31 27 12 60 18 85 17 23 -2 58 5 80 14 42
19 73 21 126 9 19 -5 46 -6 59 -2 24 5 110 -2 165 -14 24 -6 27 -4 22 10 -5
13 -2 15 11 9 35 -15 63 -17 63 -6 0 14 53 14 67 0 13 -13 33 -4 33 15 0 9 9
12 25 8 16 -3 27 1 31 11 4 12 14 15 35 10 31 -6 41 10 12 21 -11 5 -13 10 -6
17 7 7 19 6 38 -3 25 -11 29 -10 43 10 8 12 25 22 38 22 12 0 26 5 29 11 5 6
27 8 59 5 57 -6 185 19 201 40 6 7 32 15 58 19 26 4 50 11 53 16 3 5 16 9 30
9 14 0 27 7 30 15 3 8 21 19 39 25 27 9 41 8 71 -5 25 -10 40 -12 42 -5 7 19
19 10 46 -30 27 -41 46 -51 46 -26 0 8 6 16 13 19 13 4 58 -21 70 -40 11 -18
27 -16 27 2 0 20 19 19 50 -3 44 -32 160 -148 160 -160 0 -6 9 -17 20 -24 11
-7 20 -18 20 -25 0 -7 14 -28 30 -46 19 -22 30 -46 30 -64 0 -29 26 -63 47
-63 6 0 14 -15 17 -33 3 -19 17 -44 31 -57 21 -20 25 -21 31 -7 8 21 24 12 24
-14 0 -10 4 -19 8 -19 9 0 16 -12 61 -112 18 -41 37 -69 50 -73 12 -3 26 -24
36 -53 10 -26 22 -59 27 -74 5 -15 16 -29 24 -32 8 -3 14 -12 14 -20 0 -19 60
-86 77 -86 6 0 17 -15 23 -34 10 -31 33 -52 53 -48 4 1 13 -10 19 -25 25 -58
40 -74 54 -62 8 7 14 7 14 2 0 -21 70 -101 87 -99 10 0 23 -11 31 -26 7 -16
21 -28 32 -28 10 0 48 -29 83 -65 36 -36 71 -65 79 -65 8 0 23 -9 33 -20 14
-15 21 -17 32 -9 19 16 48 -8 33 -27 -9 -9 -2 -19 27 -38 21 -14 42 -26 46
-26 5 0 22 -11 39 -25 16 -14 38 -25 48 -25 10 0 32 -14 49 -31 17 -17 36 -27
42 -24 6 4 20 -2 32 -12 36 -32 70 -50 108 -57 21 -3 42 -13 49 -21 7 -8 22
-15 34 -15 12 0 41 -14 64 -31 22 -16 47 -29 54 -28 7 1 31 -6 52 -15 31 -14
41 -15 47 -5 6 10 13 10 33 1 16 -7 28 -8 31 -2 4 6 20 0 38 -14 57 -42 101
-59 162 -63 93 -5 97 -6 139 -31 21 -13 46 -20 56 -17 10 3 21 1 25 -5 3 -5
16 -10 29 -10 13 0 31 -9 41 -20 19 -21 127 -80 146 -80 6 0 22 -9 36 -19 13
-11 30 -18 36 -15 7 2 26 -22 44 -54 30 -55 162 -206 183 -208 5 -1 16 -2 24
-3 7 0 16 -10 19 -21 4 -16 11 -19 29 -15 13 3 40 -1 60 -9 28 -12 37 -22 40
-43 3 -25 6 -28 38 -25 25 2 43 -3 59 -17 13 -12 32 -21 42 -21 9 0 34 -9 56
-19 59 -29 131 -53 142 -47 5 4 12 2 16 -4 3 -5 19 -10 36 -10 17 0 29 -5 29
-13 0 -34 146 -53 180 -22 21 19 37 18 159 -9 90 -21 132 -41 125 -61 -4 -10
3 -16 23 -20 61 -12 175 -56 186 -72 4 -6 20 -14 37 -18 16 -3 40 -15 53 -25
23 -18 24 -18 73 21 27 21 54 37 59 35 6 -2 33 5 62 16 42 15 69 18 140 14
169 -10 205 -15 230 -33 14 -10 33 -22 41 -28 21 -14 80 -78 130 -144 24 -31
68 -78 96 -106 29 -27 66 -68 82 -90 53 -74 312 -325 329 -319 10 4 13 2 10
-8 -4 -9 7 -24 29 -39 20 -13 36 -27 36 -31 0 -5 7 -8 16 -8 8 0 12 -5 9 -10
-3 -6 2 -13 12 -17 10 -3 32 -20 48 -38 17 -17 45 -41 63 -54 17 -12 32 -29
32 -37 0 -8 5 -12 10 -9 6 3 13 -2 17 -12 9 -24 32 -40 65 -47 20 -4 27 -12
30 -33 2 -18 9 -28 20 -28 9 0 34 -23 55 -51 21 -28 42 -53 48 -55 18 -8 55
-46 55 -58 0 -6 11 -16 25 -21 19 -7 25 -17 25 -38 0 -29 35 -72 58 -72 7 0
12 -7 12 -17 0 -9 17 -39 38 -67 35 -47 58 -87 92 -158 11 -24 11 -30 -3 -46
-21 -23 -21 -31 -2 -52 9 -10 19 -52 25 -100 5 -45 16 -93 25 -106 17 -26 20
-109 5 -119 -6 -3 -10 -28 -10 -55 0 -27 -4 -51 -9 -54 -5 -3 -11 -20 -13 -38
-3 -18 -15 -62 -28 -98 -13 -36 -30 -87 -40 -115 -9 -27 -22 -66 -29 -85 -7
-19 -14 -44 -16 -55 -12 -59 -39 -142 -50 -155 -14 -16 -42 -86 -54 -135 -4
-16 -13 -31 -21 -32 -72 -9 -92 -17 -134 -54 -35 -31 -46 -48 -46 -70 0 -32
22 -39 49 -15 13 11 81 31 81 23 -1 -8 -28 -76 -37 -93 -7 -12 -10 -24 -6 -27
3 -3 -9 -35 -27 -70 -28 -56 -36 -64 -61 -65 -24 -1 -29 3 -29 23 0 40 -17 72
-50 92 -17 10 -47 41 -67 70 -48 70 -174 139 -208 113 -16 -12 -65 -18 -71 -9
-3 5 -22 0 -42 -10 -20 -11 -62 -30 -92 -43 -94 -40 -111 -58 -140 -153 -15
-52 -10 -105 12 -119 13 -8 23 -5 43 14 14 13 25 29 25 36 0 22 79 84 108 84
15 0 36 3 48 6 32 8 61 -24 69 -77 6 -45 5 -47 -25 -57 -33 -12 -37 -23 -15
-42 23 -19 52 -72 60 -107 l7 -33 -92 0 c-73 0 -97 -4 -118 -19 -32 -22 -141
-28 -170 -10 -15 10 -24 9 -42 -4 -19 -13 -27 -14 -44 -4 -12 7 -59 11 -111
11 -79 -1 -96 -4 -136 -28 -51 -29 -139 -103 -139 -116 0 -4 27 -6 59 -3 113
11 187 -15 193 -66 3 -21 -6 -29 -52 -52 -68 -34 -191 -155 -166 -165 16 -6
99 9 146 27 30 11 97 -12 106 -36 3 -8 28 -28 55 -46 42 -27 54 -30 87 -23 47
9 88 12 242 16 100 2 132 7 153 21 18 11 42 16 74 15 27 -1 54 1 60 5 7 4 88
10 180 12 93 2 176 6 186 10 9 4 24 2 32 -5 12 -10 22 -8 53 14 21 14 45 26
54 26 8 0 21 7 28 15 7 8 18 15 25 15 6 0 33 23 59 50 26 28 56 50 67 50 11 0
23 8 27 18 6 15 24 17 167 17 183 0 216 10 265 77 25 34 29 50 34 136 7 123
21 236 47 382 39 225 51 276 89 395 21 66 43 152 49 190 7 39 18 90 25 115 8
25 19 70 26 100 6 30 18 80 25 110 8 30 24 100 35 155 12 55 38 147 58 205 32
93 36 115 35 197 -1 65 -6 99 -18 116 -8 13 -26 55 -38 93 -22 68 -48 110
-137 221 -60 75 -97 128 -203 288 -22 33 -50 71 -63 85 -12 14 -47 77 -77 140
-52 110 -76 179 -147 425 -18 61 -43 127 -56 147 -13 21 -24 43 -24 49 0 6 -6
23 -13 37 -48 96 -72 137 -88 153 -11 11 -19 28 -19 39 0 11 -4 20 -9 20 -14
0 -71 53 -71 67 0 7 -10 18 -22 24 -27 14 -121 90 -126 102 -2 4 -17 14 -33
22 -16 9 -29 22 -29 30 0 8 -9 19 -20 25 -34 18 -24 33 20 27 22 -3 40 -1 40
4 0 5 11 15 25 21 14 6 25 16 25 22 0 6 9 17 20 24 17 10 19 16 9 34 -10 18
-7 25 21 49 17 15 48 33 68 39 56 18 102 40 102 50 0 4 23 13 52 19 28 7 57
16 64 22 7 6 28 12 46 14 63 5 110 39 172 122 32 43 80 94 105 113 66 50 108
94 116 121 4 13 19 38 32 56 14 18 22 37 18 43 -4 6 -2 17 4 24 6 7 9 20 6 27
-3 9 10 24 36 39 27 17 42 34 46 53 3 15 20 39 37 52 26 21 28 27 16 35 -13 8
-12 11 4 23 15 11 16 16 6 22 -9 6 -6 11 11 21 13 7 24 18 25 26 3 39 18 58
50 64 19 3 39 14 44 24 6 10 20 20 32 22 30 4 34 26 6 37 -20 8 -17 10 24 16
26 4 55 16 64 26 9 10 23 19 31 19 7 0 16 7 19 15 4 10 13 13 26 9 10 -3 25
-1 32 5 6 6 31 9 54 7 24 -2 45 1 48 5 3 5 13 5 23 0 20 -11 92 17 87 34 -5
19 29 34 75 35 31 0 52 6 67 20 18 17 33 20 88 18 49 -2 69 1 77 12 9 11 31
15 77 15 36 0 110 8 165 17 55 10 117 17 137 16 20 -1 43 3 50 9 19 16 77 22
232 26 87 3 141 8 145 15 5 8 24 9 68 2 33 -6 88 -8 123 -5 34 2 71 0 82 -6
11 -6 27 -7 36 -3 9 4 21 6 25 5 5 -1 22 -3 38 -5 17 -2 32 -6 36 -9 3 -4 18
0 34 9 25 13 33 13 65 -1 20 -8 43 -15 52 -15 8 0 23 -7 32 -15 13 -12 23 -13
43 -6 18 7 47 6 98 -5 81 -17 99 -14 99 16 0 33 75 32 98 -1 13 -18 16 -19 31
-5 11 10 21 12 31 6 24 -15 32 -12 25 10 -6 17 -2 20 28 20 19 0 47 -7 64 -15
29 -15 93 -85 93 -104 0 -12 58 -61 72 -61 6 0 20 -8 30 -17 16 -14 21 -15 27
-4 7 11 13 9 30 -8 13 -13 34 -21 55 -21 19 0 38 -5 41 -10 12 -20 26 2 20 30
-6 29 -6 29 27 19 18 -6 43 -13 55 -16 12 -3 28 -11 34 -19 6 -8 16 -14 21
-14 5 0 24 -11 42 -25 34 -26 46 -24 46 6 0 32 18 30 39 -5 17 -27 26 -32 46
-28 26 5 35 37 13 45 -10 3 -10 7 0 20 13 15 18 14 65 -10 65 -32 121 -78 155
-124 15 -20 61 -62 102 -93 60 -45 82 -56 113 -56 30 0 39 5 46 23 5 12 7 25
4 30 -11 19 15 1 100 -70 50 -42 93 -84 95 -94 2 -10 23 -31 48 -46 25 -15 63
-41 86 -58 109 -80 149 -95 131 -49 -4 12 -3 15 6 10 8 -5 14 -1 18 13 5 21
23 30 23 11 0 -5 18 -21 40 -36 26 -17 43 -38 51 -63 7 -20 18 -45 25 -56 8
-11 14 -27 14 -36 0 -27 25 -42 40 -24 7 8 18 15 24 15 13 0 66 -74 66 -91 0
-5 7 -9 16 -9 10 0 14 -5 10 -15 -4 -11 8 -22 42 -37 26 -12 54 -30 62 -39 9
-10 37 -19 68 -23 47 -5 56 -2 82 22 29 27 29 27 14 70 -20 57 -11 78 11 27
10 -22 27 -53 39 -70 11 -16 20 -36 18 -43 -2 -7 11 -29 28 -49 17 -19 29 -41
26 -49 -8 -21 23 -86 45 -91 10 -3 19 -9 19 -14 0 -5 13 -9 29 -9 22 0 38 -10
60 -37 17 -21 31 -46 31 -56 0 -13 5 -17 16 -13 9 3 22 6 29 6 8 0 11 7 8 19
-4 16 -1 19 19 14 12 -3 36 -15 51 -26 17 -11 44 -19 67 -19 25 1 39 -4 37
-11 -1 -7 8 -11 24 -9 20 2 34 -8 69 -52 46 -57 74 -62 46 -8 -14 27 -14 31 0
43 12 10 20 9 40 -2 35 -18 49 -61 49 -141 -1 -64 1 -68 22 -68 13 0 23 6 23
13 0 8 9 22 20 32 15 13 19 26 15 44 -10 48 8 54 48 16 20 -19 49 -38 64 -41
50 -13 66 -53 36 -86 -14 -15 -14 -22 -3 -42 7 -13 10 -29 6 -34 -3 -6 12 -23
33 -39 22 -15 41 -37 43 -48 4 -25 33 -31 65 -14 22 12 27 11 44 -11 10 -14
19 -30 19 -36 0 -15 64 -74 80 -74 8 0 29 16 45 35 28 34 32 35 61 25 34 -12
80 -65 64 -75 -20 -12 -9 -34 32 -64 23 -17 37 -31 30 -31 -19 0 -14 -15 19
-56 17 -22 35 -49 40 -62 11 -28 42 -26 47 3 3 11 10 24 18 28 8 4 14 16 14
26 0 11 7 22 16 25 15 6 15 9 -5 29 -11 13 -21 30 -21 38 1 11 4 10 14 -3 12
-17 14 -17 28 0 9 9 13 23 11 30 -9 23 9 12 48 -30 22 -24 39 -52 39 -63 0
-12 10 -39 21 -60 12 -22 33 -60 46 -85 31 -59 62 -90 89 -90 12 0 34 -7 50
-15 26 -13 30 -13 51 7 13 12 28 36 35 55 7 18 15 33 19 33 4 0 28 -9 53 -19
38 -17 47 -26 57 -60 14 -47 84 -131 109 -131 9 0 25 7 36 15 10 8 26 14 34
14 14 0 64 -68 82 -111 11 -26 15 -23 38 22 11 22 24 40 28 40 4 -1 18 -15 32
-32 122 -155 200 -180 200 -66 0 26 4 48 10 48 5 0 24 -13 42 -28 18 -16 46
-35 63 -43 18 -9 43 -36 62 -69 41 -72 69 -104 83 -95 18 11 10 133 -12 190
-22 57 -110 235 -139 281 -11 18 -23 61 -27 97 -7 58 -13 71 -55 120 -25 30
-44 56 -42 59 2 2 -14 24 -35 48 -25 28 -38 51 -35 61 5 16 -20 62 -65 121
-25 33 -120 216 -120 232 0 6 -16 27 -36 45 -19 19 -42 44 -50 56 -8 13 -29
25 -45 29 -22 4 -29 10 -26 20 4 10 1 13 -9 9 -12 -4 -15 0 -12 18 2 19 -2 25
-19 27 -13 2 -23 10 -23 18 0 8 -11 19 -24 24 -13 4 -26 20 -30 34 -3 14 -12
26 -19 26 -6 0 -23 16 -36 35 -13 19 -27 35 -32 35 -5 0 -16 12 -25 26 -13 19
-14 28 -6 33 8 5 -3 19 -33 40 -25 18 -43 36 -40 40 2 5 -14 21 -38 37 -23 16
-65 49 -93 74 -28 25 -65 57 -81 73 -17 15 -35 27 -40 27 -14 0 -67 59 -60 66
8 8 -11 34 -25 34 -5 0 -6 -4 -3 -10 11 -18 -7 -11 -31 13 -12 12 -41 40 -63
62 -23 22 -60 63 -83 92 -23 29 -56 58 -73 64 -16 7 -59 29 -95 49 -36 21 -79
41 -97 45 -18 3 -63 32 -100 62 -62 51 -152 103 -179 103 -6 0 -17 7 -24 15
-7 9 -18 14 -25 12 -17 -7 -84 29 -107 58 -16 21 -23 23 -34 14 -8 -7 -15 -10
-17 -8 -1 2 -7 13 -13 24 -7 12 -20 19 -33 18 -12 -2 -21 3 -21 10 0 8 -13 13
-32 13 -22 0 -43 9 -63 28 -16 15 -42 30 -58 33 -15 3 -32 14 -38 24 -5 11
-18 19 -28 19 -16 0 -91 30 -316 127 -83 36 -129 52 -205 73 -25 7 -72 23
-105 36 -33 12 -81 26 -108 30 -26 3 -50 10 -53 15 -3 5 -10 7 -15 4 -5 -4
-21 3 -35 14 -15 12 -34 21 -43 21 -9 0 -25 7 -35 15 -11 8 -34 15 -50 15 -17
1 -58 16 -91 35 -33 19 -80 44 -105 57 -25 12 -66 42 -92 65 -38 35 -54 43
-85 43 -53 0 -113 18 -113 34 0 8 -20 19 -47 25 -26 7 -66 21 -89 32 -24 10
-50 19 -59 19 -9 0 -24 4 -33 9 -9 5 -44 11 -77 13 -33 3 -78 12 -100 22 -22
10 -80 24 -130 31 -100 14 -125 22 -125 39 0 15 -68 36 -73 23 -2 -6 -11 -7
-23 -3 -22 10 -26 11 -149 30 -49 7 -92 15 -95 16 -3 1 -8 2 -12 1 -4 0 -47 6
-95 15 -85 15 -161 23 -268 27 -28 2 -56 6 -63 11 -8 5 -18 2 -26 -9 -11 -15
-16 -16 -35 -5 -13 6 -58 13 -100 15 -183 9 -243 16 -264 29 -12 8 -47 18 -77
21 -81 10 -89 13 -66 30 17 13 17 14 -10 20 -16 3 -51 12 -79 20 -36 10 -117
15 -290 16 -187 1 -248 5 -275 16 -32 14 -33 16 -15 23 23 10 17 12 -40 15
-22 1 -74 8 -115 15 -41 7 -102 12 -135 12 -33 0 -64 2 -69 5 -5 4 -23 7 -40
9 -17 1 -51 11 -76 21 -45 19 -80 20 -80 2 0 -5 -4 -9 -10 -9 -5 0 -10 7 -10
15 0 12 -13 14 -66 12 -36 -2 -67 0 -70 4 -2 4 -13 5 -24 2 -11 -3 -26 -1 -33
4 -6 6 -27 15 -46 22 -29 9 -37 8 -52 -5 -10 -9 -22 -13 -27 -10 -6 3 -33 1
-62 -4 -38 -7 -73 -6 -137 5 -47 8 -89 13 -93 10 -4 -3 -37 -5 -74 -6 -37 -1
-69 -6 -72 -11 -3 -5 -15 -1 -26 9 -17 15 -39 18 -144 19 -99 1 -124 -1 -124
-12 0 -26 -108 -21 -131 5 -8 10 -28 19 -45 19 -16 1 -46 2 -68 3 -21 0 -50
-5 -63 -12 -20 -11 -26 -11 -33 1 -5 8 -24 15 -41 16 -18 1 -58 5 -89 8 -40 5
-67 2 -93 -9 -27 -11 -43 -13 -57 -5 -10 5 -26 7 -34 4 -9 -3 -39 1 -67 10
-28 9 -59 14 -70 11 -10 -4 -19 -2 -19 3 0 18 -76 30 -153 23 -42 -3 -83 -4
-90 0 -6 4 -82 6 -167 5 -126 -2 -161 -6 -187 -20 -18 -9 -38 -14 -43 -11 -6
4 -22 -1 -36 -10 -13 -9 -30 -12 -37 -8 -7 4 -19 8 -27 8 -8 0 -16 8 -18 17
-3 18 38 35 56 24 5 -3 16 1 23 10 10 13 10 17 0 24 -18 11 -89 1 -131 -19
-27 -12 -48 -15 -90 -9 -30 4 -62 5 -71 2 -8 -2 -43 -6 -77 -9 -34 -3 -79 -12
-99 -20 -43 -18 -47 -16 -34 18 15 40 -4 42 -41 4 -56 -56 -90 -76 -123 -70
-39 7 -55 21 -55 45 0 17 -5 20 -30 15 -16 -4 -32 -2 -35 3 -3 6 -14 6 -28 0
-12 -5 -71 -13 -132 -19 -93 -8 -114 -7 -142 6 -35 16 -32 17 -128 -22 -42
-17 -121 -32 -179 -34 -27 -1 -58 -7 -70 -13 -11 -6 -46 -11 -77 -12 -39 -1
-64 -7 -77 -19 -11 -10 -26 -15 -36 -11 -10 4 -32 -4 -56 -21 -36 -25 -55 -30
-160 -39 -24 -2 -34 -8 -32 -18 1 -11 -17 -21 -60 -34 -35 -10 -71 -19 -80
-19 -9 0 -40 -23 -70 -51 -69 -66 -104 -87 -127 -81 -12 3 -27 -3 -37 -14 -11
-12 -25 -17 -38 -13 -15 3 -30 -4 -51 -26 -16 -16 -33 -30 -38 -30 -5 0 -21
-9 -37 -20 -15 -11 -30 -16 -34 -13 -3 4 -12 -7 -18 -25 -8 -20 -21 -33 -37
-37 -15 -3 -34 -8 -44 -11 -10 -3 -16 -2 -15 3 7 21 -23 4 -91 -51 -61 -50
-118 -86 -137 -86 -2 0 -4 7 -4 15 0 23 -10 18 -49 -22 -20 -21 -45 -45 -56
-54 -28 -24 -65 -69 -65 -80 0 -5 -7 -9 -17 -9 -23 0 -73 -59 -66 -78 5 -12 2
-14 -12 -9 -9 4 -24 2 -31 -4 -8 -6 -29 -15 -47 -18 -23 -5 -33 -13 -35 -29
-4 -28 -27 -39 -47 -22 -12 10 -23 3 -63 -38 -26 -27 -59 -53 -73 -57 -13 -4
-45 -18 -71 -31 -30 -15 -65 -24 -95 -24 -57 0 -163 24 -172 38 -3 5 -26 15
-51 22 -25 7 -50 16 -57 22 -7 5 -25 11 -40 13 -68 7 -126 24 -147 44 -12 11
-26 21 -30 21 -5 0 -19 10 -32 23 -12 12 -36 32 -52 44 -19 14 -37 44 -52 85
-12 35 -29 67 -36 71 -8 4 -14 13 -14 20 0 7 -13 25 -30 40 -16 16 -30 35 -30
43 0 7 -15 29 -32 48 -50 53 -76 90 -83 119 -4 14 -15 33 -26 43 -10 9 -19 25
-19 36 0 10 -4 18 -9 18 -14 0 -46 93 -33 98 19 6 14 27 -13 52 -15 14 -27 39
-31 66 -3 24 -12 49 -20 55 -8 6 -14 22 -14 35 0 13 -13 38 -29 56 -32 37 -49
78 -32 78 28 0 7 33 -28 47 -48 19 -59 40 -31 60 25 18 25 29 1 36 -35 9 -51
47 -40 96 11 48 7 60 -14 43 -17 -14 -27 -6 -27 21 0 14 5 18 20 14 27 -7 46
26 26 43 -11 9 -17 7 -25 -7 -8 -14 -12 -16 -22 -5 -7 6 -22 12 -34 12 -12 0
-26 5 -33 12 -17 17 -15 48 3 48 8 0 15 4 15 9 0 16 -23 25 -56 22 -21 -1 -33
3 -37 13 -4 9 -16 16 -27 16 -16 0 -19 5 -14 24 5 23 4 24 -40 19 -36 -4 -47
-2 -52 11 -4 10 -18 16 -39 16 -40 0 -49 10 -31 36 21 29 -6 64 -50 64 -22 0
-33 4 -32 13 3 13 -4 13 -39 2 -27 -8 -31 12 -6 30 9 7 13 17 9 24 -5 8 -12 9
-20 2 -6 -5 -31 -7 -54 -4 -33 4 -42 9 -37 21 4 11 0 13 -21 8 -23 -6 -25 -4
-19 11 10 24 8 54 -4 66 -8 8 -11 3 -11 -16 0 -40 -24 -33 -45 13 -12 26 -25
40 -37 40 -10 0 -21 7 -24 15 -10 24 -25 17 -18 -9 4 -17 0 -25 -13 -31 -34
-15 -40 -13 -40 14 0 14 -3 40 -7 56 -7 26 -9 27 -17 12 -6 -10 -8 -26 -4 -36
4 -13 -2 -23 -19 -34 -21 -14 -26 -14 -36 -2 -7 8 -23 15 -36 15 -20 0 -22 4
-18 33 4 21 0 39 -11 52 -16 20 -16 20 -12 -5z"/>
<path d="M16526 3751 c-3 -5 1 -14 9 -21 12 -10 15 -10 15 3 0 19 -16 31 -24
18z"/>
</g>
</svg>
