<?xml version="1.0" standalone="no"?>
<!DOCTYPE svg PUBLIC "-//W3C//DTD SVG 20010904//EN"
 "http://www.w3.org/TR/2001/REC-SVG-20010904/DTD/svg10.dtd">
<svg version="1.0" xmlns="http://www.w3.org/2000/svg"
 width="592.000000pt" height="284.000000pt" viewBox="0 0 592.000000 284.000000"
 preserveAspectRatio="xMidYMid meet">
<metadata>
Created by potrace 1.16, written by Peter Selinger 2001-2019
</metadata>
<g transform="translate(0.000000,284.000000) scale(0.100000,-0.100000)"
fill="#000000" stroke="none">
<path d="M810 2806 c-25 -7 -74 -24 -110 -38 -87 -35 -125 -41 -140 -23 -7 8
-24 13 -38 11 -64 -9 -175 -37 -203 -51 -16 -9 -67 -21 -112 -27 -105 -13
-123 -20 -147 -60 -38 -61 -45 -102 -26 -143 10 -20 20 -34 23 -31 3 3 19 -4
35 -16 16 -11 43 -21 58 -22 16 -1 36 -10 43 -20 14 -18 15 -18 24 -1 7 12 13
14 17 6 11 -17 36 -13 37 7 0 10 3 12 6 5 9 -23 31 -15 27 10 l-5 22 12 -22
c12 -24 39 -32 39 -12 0 8 4 8 15 -1 17 -14 38 -4 29 13 -5 8 -3 8 7 0 18 -17
29 -16 29 2 0 10 7 15 17 13 10 -2 18 3 18 12 0 17 27 24 61 16 28 -7 64 -71
64 -114 0 -42 -133 -181 -155 -162 -12 10 -16 9 -21 -3 -3 -9 -3 -21 1 -27 3
-5 2 -10 -4 -10 -5 0 -11 5 -13 12 -7 19 -30 -3 -25 -23 5 -20 -7 -26 -18 -9
-12 19 -25 10 -25 -17 -1 -25 -2 -26 -14 -10 -17 22 -26 22 -26 -3 0 -13 -5
-18 -15 -14 -9 4 -18 -2 -23 -17 -6 -15 -11 -18 -16 -11 -11 18 -26 4 -19 -16
6 -15 5 -15 -10 -4 -14 12 -19 12 -32 -1 -30 -31 -29 -69 5 -104 37 -40 52
-41 110 -8 101 58 189 94 264 110 44 9 83 18 87 21 5 2 50 -2 101 -9 51 -8
113 -15 138 -16 77 -3 109 -26 176 -128 73 -112 85 -125 152 -175 28 -21 52
-45 52 -52 0 -27 50 -125 81 -161 44 -50 139 -96 211 -103 l58 -5 -5 -36 c-8
-43 -28 -99 -62 -166 -21 -44 -23 -54 -12 -80 l12 -30 7 25 c6 23 7 23 13 -12
10 -50 37 -60 37 -13 0 38 15 47 25 15 14 -43 23 -16 27 78 3 91 5 100 37 145
27 40 37 48 55 43 89 -26 179 -38 291 -40 l130 -3 115 -72 c238 -150 310 -209
310 -254 0 -34 -60 -113 -124 -163 -85 -67 -89 -80 -91 -279 -1 -110 -6 -182
-15 -203 -21 -55 16 -202 51 -202 6 0 9 10 6 23 -3 12 -2 30 2 41 6 15 10 11
23 -23 22 -55 48 -56 41 -1 -4 28 0 50 16 80 15 29 21 59 21 104 0 72 21 131
55 158 13 10 26 32 30 48 7 34 8 34 35 18 22 -14 39 -3 22 14 -18 18 -14 71
10 135 16 45 40 76 105 143 111 114 121 167 40 216 l-32 19 60 6 c33 3 74 9
92 14 28 6 33 4 47 -23 26 -51 87 -103 156 -134 36 -16 78 -39 95 -52 16 -12
84 -55 150 -96 165 -102 212 -138 240 -186 13 -23 40 -60 59 -83 24 -29 45
-73 66 -137 28 -89 29 -96 15 -125 -9 -16 -19 -55 -23 -87 -7 -57 -7 -57 -59
-83 -29 -15 -64 -30 -78 -33 -21 -5 -65 -57 -65 -76 0 -3 99 -5 220 -5 l220 0
25 47 c24 45 24 48 9 84 -13 31 -14 45 -5 75 19 65 14 84 -44 156 -71 88 -93
135 -111 233 -17 100 -22 110 -82 154 -83 61 -127 116 -152 192 -38 114 -59
157 -99 199 -78 82 -87 112 -45 156 27 29 43 80 44 141 0 47 43 98 122 145 42
26 81 37 193 57 230 41 309 46 611 39 633 -14 1111 45 1443 178 50 20 0 29
-210 39 -317 14 -454 37 -944 159 -110 27 -252 59 -315 71 -63 12 -194 37
-290 55 -304 59 -503 88 -713 104 -95 7 -137 17 -270 60 -174 57 -318 91 -387
90 -25 0 -79 -6 -122 -13 -82 -15 -111 -12 -316 33 -135 30 -365 54 -452 48
-91 -6 -188 -40 -273 -96 -120 -78 -170 -58 -307 125 -100 133 -181 204 -260
231 -84 29 -163 35 -220 19z"/>
</g>
</svg>
