<?xml version="1.0" standalone="no"?>
<!DOCTYPE svg PUBLIC "-//W3C//DTD SVG 20010904//EN"
 "http://www.w3.org/TR/2001/REC-SVG-20010904/DTD/svg10.dtd">
<svg version="1.0" xmlns="http://www.w3.org/2000/svg"
 width="4886.000000pt" height="2287.000000pt" viewBox="0 0 4886.000000 2287.000000"
 preserveAspectRatio="xMidYMid meet">
<metadata>
Created by potrace 1.16, written by Peter Selinger 2001-2019
</metadata>
<g transform="translate(0.000000,2287.000000) scale(0.100000,-0.100000)"
fill="#000000" stroke="none">
<path d="M36815 22853 c-33 -1 -143 -8 -245 -13 -102 -6 -302 -17 -445 -25
-336 -18 -857 -53 -914 -61 -24 -3 -91 -9 -150 -14 -164 -13 -406 -39 -511
-55 -52 -8 -147 -20 -210 -26 -63 -6 -170 -20 -236 -30 -67 -10 -137 -19 -155
-19 -19 0 -50 -5 -69 -10 -19 -6 -91 -17 -160 -26 -69 -8 -138 -19 -155 -24
-16 -5 -95 -18 -175 -30 -80 -11 -206 -32 -280 -45 -75 -14 -171 -29 -213 -35
-43 -5 -82 -12 -87 -15 -9 -6 -142 -31 -235 -45 -33 -5 -103 -17 -155 -28 -52
-11 -120 -24 -150 -30 -69 -13 -347 -71 -505 -106 -66 -15 -163 -36 -215 -47
-52 -12 -149 -34 -215 -49 -261 -61 -434 -100 -510 -116 -44 -9 -152 -34 -240
-55 -88 -21 -189 -43 -224 -49 -35 -6 -80 -17 -100 -25 -20 -7 -83 -25 -141
-40 -163 -42 -423 -122 -740 -225 -47 -16 -121 -38 -165 -50 -89 -25 -359
-111 -445 -141 -90 -32 -360 -118 -435 -139 -38 -10 -95 -26 -125 -35 -30 -8
-170 -44 -310 -80 -140 -35 -284 -72 -320 -81 -36 -9 -118 -27 -183 -40 -65
-13 -122 -26 -126 -28 -15 -9 -453 -100 -536 -111 -27 -4 -75 -13 -105 -20
-92 -23 -290 -47 -600 -74 -69 -6 -165 -15 -215 -21 -92 -10 -188 -16 -465
-29 -175 -8 -1115 -6 -1405 2 -104 3 -332 8 -505 10 -173 3 -493 9 -710 13
-637 14 -1039 11 -1225 -9 -158 -18 -375 -53 -510 -82 -38 -9 -105 -22 -147
-31 -43 -8 -97 -21 -120 -30 -24 -8 -79 -24 -123 -35 -111 -27 -242 -68 -430
-134 -88 -31 -198 -69 -245 -85 -47 -16 -141 -49 -210 -75 -163 -60 -411 -148
-690 -245 -124 -42 -301 -106 -395 -140 -93 -35 -210 -78 -260 -96 -49 -17
-139 -51 -200 -74 -60 -24 -145 -55 -187 -71 -42 -15 -103 -41 -135 -57 -32
-16 -76 -35 -98 -42 -22 -7 -67 -25 -100 -41 -33 -15 -89 -39 -125 -54 -72
-29 -323 -144 -385 -176 -22 -12 -152 -77 -290 -147 -300 -151 -838 -431 -915
-477 -30 -18 -127 -73 -215 -122 -367 -206 -696 -410 -939 -581 -65 -47 -142
-101 -171 -121 -29 -20 -105 -76 -169 -126 -64 -49 -136 -104 -159 -120 -23
-17 -121 -89 -217 -161 -96 -72 -196 -146 -223 -165 -26 -19 -69 -50 -96 -69
-54 -39 -241 -183 -340 -263 -247 -198 -686 -623 -851 -822 -79 -96 -163 -193
-246 -284 -28 -31 -78 -92 -111 -136 -33 -44 -85 -106 -115 -138 -30 -31 -101
-123 -158 -205 -57 -81 -151 -211 -209 -290 -115 -155 -212 -292 -316 -443
-36 -52 -99 -132 -140 -177 -40 -44 -93 -107 -117 -139 -23 -32 -89 -107 -146
-167 -56 -59 -109 -122 -116 -140 -7 -18 -40 -54 -72 -82 -69 -59 -79 -68
-122 -119 -63 -75 -207 -217 -233 -231 -15 -7 -60 -49 -101 -94 -104 -111
-145 -139 -235 -157 -153 -31 -319 14 -748 206 -88 40 -180 83 -205 97 -25 14
-130 63 -235 109 -104 46 -237 105 -295 131 -223 100 -566 222 -740 263 -531
125 -746 152 -1065 131 -235 -15 -409 -41 -603 -90 -393 -99 -605 -201 -987
-475 -49 -35 -121 -86 -158 -112 -38 -26 -74 -52 -81 -57 -8 -6 -30 4 -63 28
-45 32 -74 45 -188 84 -37 12 -193 32 -260 33 -66 1 -228 -26 -340 -56 -50
-14 -129 -33 -176 -43 l-86 -18 -38 33 c-95 82 -206 103 -312 60 -34 -14 -82
-39 -107 -56 -24 -17 -49 -31 -54 -31 -11 0 -316 -103 -352 -118 -14 -6 -97
-38 -185 -70 -88 -33 -189 -73 -225 -90 -36 -17 -101 -37 -145 -46 -206 -41
-385 -84 -740 -182 -262 -71 -672 -244 -840 -353 -97 -63 -250 -187 -310 -252
-45 -48 -148 -196 -201 -286 -10 -18 -22 -33 -27 -33 -4 0 -17 -19 -28 -42
-12 -24 -27 -55 -35 -70 -13 -24 -46 -123 -74 -223 -5 -16 -19 -59 -30 -95
-12 -36 -28 -87 -36 -115 -8 -27 -21 -66 -29 -85 -7 -19 -21 -62 -30 -95 -9
-33 -21 -73 -26 -90 -25 -71 -51 -221 -50 -294 0 -19 14 -63 32 -99 35 -71 68
-93 145 -96 55 -3 110 -40 133 -92 20 -43 77 -114 93 -114 6 0 7 20 3 53 -5
40 -4 49 5 40 7 -6 16 -51 22 -100 17 -163 56 -280 111 -341 29 -32 51 -29 43
5 -10 47 -19 297 -12 344 6 43 8 45 36 41 25 -4 30 -10 40 -56 16 -68 54 -136
100 -181 57 -55 71 -45 54 42 -7 37 -13 96 -14 131 0 58 1 62 23 62 22 0 25
-7 41 -86 21 -110 55 -193 106 -260 75 -99 104 -91 76 20 -18 72 -41 299 -32
321 3 9 18 15 34 15 25 0 30 -5 41 -42 7 -24 23 -59 35 -78 12 -19 28 -57 35
-85 16 -67 52 -143 85 -182 50 -59 54 -49 49 125 -4 153 -4 156 14 136 25 -29
70 -57 76 -47 3 5 -1 35 -8 68 -24 113 -26 135 -7 134 48 -3 63 -15 86 -70 39
-97 151 -239 188 -239 21 0 21 -7 3 105 -19 115 -19 165 -1 165 7 0 19 -14 26
-30 7 -17 31 -46 52 -65 31 -26 46 -50 67 -112 29 -85 74 -159 118 -193 14
-11 30 -17 35 -12 4 4 0 41 -8 82 -10 44 -17 127 -18 200 l-1 125 54 0 54 0
15 -44 c23 -69 142 -178 142 -130 0 6 -7 38 -16 71 -8 33 -14 74 -12 90 l3 30
32 -46 c42 -59 63 -61 63 -3 l1 42 21 -40 c38 -75 131 -154 143 -122 3 7 -1
31 -9 54 -8 23 -18 62 -21 87 -9 57 9 62 43 11 29 -45 57 -48 49 -5 -11 53 20
35 49 -30 27 -61 119 -160 148 -160 22 0 27 15 16 44 -5 15 -6 26 0 26 30 0
75 -129 115 -331 22 -112 62 -272 109 -439 9 -30 29 -88 46 -129 55 -134 85
-287 121 -621 30 -267 30 -511 1 -800 -13 -124 -27 -252 -32 -284 -14 -90 -60
-176 -162 -304 -21 -26 -38 -50 -38 -53 0 -4 -16 -27 -37 -51 -20 -23 -44 -62
-54 -84 -11 -23 -26 -47 -35 -55 -18 -15 -64 -102 -64 -122 0 -8 -8 -22 -19
-31 -10 -9 -31 -45 -46 -79 -16 -34 -39 -76 -51 -93 -13 -16 -31 -46 -39 -65
-9 -18 -32 -59 -51 -89 -19 -30 -38 -66 -41 -79 -3 -14 -16 -40 -29 -58 -12
-19 -28 -51 -35 -71 -13 -42 -45 -98 -70 -123 -9 -9 -19 -34 -23 -55 -9 -44
-56 -154 -67 -154 -4 0 -10 13 -14 30 -4 17 -11 30 -15 30 -21 0 -34 -52 -38
-152 -4 -96 -7 -109 -28 -129 -21 -20 -24 -20 -24 -5 0 10 -6 16 -12 14 -8 -3
-17 -36 -23 -79 -7 -52 -17 -84 -35 -107 l-24 -33 -23 46 c-13 25 -28 45 -33
45 -13 0 -13 -125 0 -169 7 -25 6 -38 -7 -57 -8 -13 -19 -24 -23 -24 -4 0 -21
32 -38 71 -17 39 -36 68 -41 65 -20 -13 -24 -118 -7 -197 16 -74 16 -80 0
-104 l-17 -26 -19 28 c-10 15 -30 49 -44 76 -13 26 -28 47 -33 47 -27 0 -28
-104 -1 -180 34 -97 17 -123 -28 -42 -13 23 -28 42 -33 42 -15 0 -15 -88 1
-148 10 -38 -10 -91 -51 -134 -40 -43 -83 -137 -91 -202 -5 -34 -12 -83 -16
-111 -15 -105 30 -169 182 -257 39 -22 95 -56 124 -75 85 -55 257 -133 345
-155 71 -18 92 -19 160 -11 128 17 226 78 462 287 44 39 113 98 153 130 251
203 511 486 867 945 83 107 173 221 200 255 28 33 61 77 74 96 30 43 46 61
170 186 94 94 107 103 183 132 169 64 338 98 593 122 207 20 340 41 490 80
173 45 254 72 299 98 17 11 52 24 78 31 26 6 117 47 202 91 120 62 182 87 273
111 220 58 318 86 378 109 33 12 112 35 175 51 115 28 187 52 394 128 123 46
207 64 283 62 29 -1 96 7 150 18 116 23 238 25 307 5 27 -8 84 -14 126 -14 42
0 121 -7 176 -15 54 -9 146 -22 204 -30 58 -8 120 -19 138 -24 18 -5 67 -15
110 -21 42 -6 138 -25 212 -41 74 -17 187 -42 250 -55 63 -14 156 -36 205 -49
317 -84 1027 -100 1310 -29 19 5 22 -2 33 -66 29 -171 129 -277 381 -406 l113
-58 -5 -71 c-3 -38 -17 -142 -32 -230 -61 -381 -71 -546 -36 -638 14 -37 15
-317 1 -392 -6 -33 -14 -76 -17 -95 -6 -35 -66 -163 -117 -250 -60 -103 -80
-155 -79 -200 4 -113 22 -304 33 -352 20 -90 83 -208 148 -278 75 -83 143
-121 226 -127 l62 -5 11 -61 c20 -105 76 -202 167 -292 109 -108 169 -140 261
-140 76 1 110 14 170 67 42 36 71 86 58 99 -6 6 -38 5 -80 -3 -62 -10 -76 -9
-115 5 -58 23 -103 68 -116 116 -9 39 -9 40 33 67 72 45 101 123 126 346 11
93 10 125 -6 247 -19 151 -17 208 13 325 18 68 18 68 31 40 26 -57 39 -110 46
-182 l7 -73 117 -119 c129 -132 188 -174 268 -190 51 -11 58 -10 109 15 30 15
54 33 54 41 0 16 -5 17 -75 18 -62 2 -124 32 -149 75 -16 29 -17 34 -3 49 21
23 31 136 18 197 -16 70 -67 202 -123 318 -26 54 -48 108 -48 121 0 12 -7 45
-15 72 -8 27 -15 61 -15 75 0 14 -9 60 -19 101 -21 79 -20 84 10 185 10 34 21
108 25 165 4 64 14 120 25 148 11 25 41 110 68 190 l48 145 34 -1 c19 -1 115
-16 214 -34 99 -17 227 -40 285 -50 58 -11 191 -27 295 -36 169 -15 228 -16
530 -5 216 7 365 17 409 26 129 27 286 45 395 45 209 0 419 32 831 126 276 62
300 67 303 63 1 -2 0 -67 -3 -144 -3 -77 -2 -174 1 -215 5 -53 2 -89 -9 -125
-8 -29 -14 -82 -13 -125 1 -69 -12 -130 -28 -130 -4 0 -20 28 -36 62 -56 117
-69 71 -24 -86 11 -37 19 -69 17 -70 -2 -2 -28 -21 -58 -43 -64 -46 -131 -117
-154 -161 -31 -61 -16 -159 33 -216 15 -18 15 -19 -12 -12 -69 17 -105 52
-157 157 -51 100 -69 115 -81 68 -5 -22 -7 -21 -35 25 -16 26 -37 59 -47 72
-75 97 -30 -123 60 -298 77 -151 302 -375 443 -442 71 -34 129 -38 262 -20 78
11 109 34 142 104 31 66 53 97 121 175 67 77 115 153 115 182 0 27 40 143 50
143 10 0 80 -256 120 -434 63 -283 83 -444 84 -651 1 -186 0 -192 -27 -257
-19 -48 -31 -100 -38 -175 -11 -103 -10 -113 16 -213 86 -339 109 -470 102
-605 -18 -344 -113 -690 -243 -883 -27 -40 -63 -96 -81 -125 -37 -60 -115
-162 -174 -227 -68 -75 -114 -141 -160 -230 -37 -72 -44 -95 -45 -147 -2 -88
-37 -133 -210 -264 -150 -115 -176 -129 -232 -129 -27 0 -73 -7 -103 -16 -43
-14 -99 -17 -284 -17 -161 0 -242 -3 -270 -12 -22 -7 -68 -20 -102 -29 -155
-39 -283 -143 -358 -292 -22 -43 -59 -101 -83 -129 -61 -71 -104 -164 -100
-218 3 -38 7 -44 41 -60 30 -15 43 -17 67 -9 20 7 38 7 58 0 36 -14 72 -5 110
27 25 21 31 22 36 10 16 -42 44 -44 747 -52 371 -4 1013 -7 1427 -6 l753 2 54
25 c78 36 90 63 89 206 0 98 -5 135 -36 255 -93 360 -97 445 -27 568 38 68 84
126 92 116 2 -2 13 -51 26 -109 28 -126 43 -158 118 -246 167 -195 252 -266
368 -304 107 -36 111 -15 18 84 -73 77 -169 236 -160 264 3 10 13 35 21 57 20
52 20 152 0 228 -9 34 -43 129 -77 212 l-61 150 -4 134 c-6 210 16 286 165
557 138 253 201 377 271 534 38 85 99 214 135 285 106 214 155 388 152 545 -4
172 -62 447 -165 780 -165 532 -212 733 -247 1063 -20 195 -22 538 -4 687 15
129 80 452 131 660 21 85 55 224 75 307 20 84 41 156 46 159 5 3 53 10 107 15
225 23 300 31 357 39 33 5 113 16 177 25 65 8 153 26 195 39 43 13 94 27 113
31 97 20 327 107 515 197 116 55 215 102 220 104 6 3 46 -55 90 -128 237 -400
478 -718 841 -1110 238 -256 543 -633 707 -870 265 -386 405 -683 505 -1073
69 -268 88 -400 72 -485 -16 -87 -14 -321 3 -377 9 -26 21 -73 27 -103 6 -31
40 -123 76 -205 77 -176 110 -276 129 -400 46 -299 46 -779 0 -1043 -24 -143
-79 -354 -104 -400 -6 -11 -11 -30 -11 -42 0 -11 -9 -33 -20 -48 -33 -45 -73
-169 -64 -200 12 -45 4 -76 -29 -104 -18 -15 -37 -27 -43 -28 -6 0 -33 -11
-60 -25 -27 -14 -53 -25 -58 -25 -4 0 -30 -11 -58 -25 -27 -14 -63 -25 -79
-25 -17 0 -51 -9 -77 -19 -26 -10 -62 -25 -81 -32 -18 -7 -45 -22 -60 -34 -14
-13 -46 -26 -71 -30 -25 -4 -60 -13 -79 -21 -18 -8 -48 -14 -65 -14 -17 -1
-42 -7 -56 -15 -14 -8 -52 -14 -84 -15 -56 0 -100 -11 -251 -62 -33 -11 -100
-29 -150 -39 -54 -12 -126 -37 -181 -64 -78 -38 -103 -57 -173 -130 -97 -103
-168 -234 -178 -327 -8 -78 0 -101 42 -121 67 -32 91 -23 183 66 57 57 62 60
62 36 0 -44 19 -84 48 -101 22 -13 68 -16 270 -17 133 -1 291 -4 350 -6 93 -4
666 -5 1612 -3 151 0 383 -1 515 -3 276 -4 284 -2 336 79 29 44 30 52 25 113
-6 73 -71 367 -115 529 -42 151 -43 156 -26 250 33 177 45 303 55 555 12 310
24 446 51 580 12 55 23 103 24 106 10 15 133 599 170 804 36 198 67 330 90
385 24 57 36 244 23 367 -6 59 -11 185 -12 278 -3 232 -17 291 -110 475 -41
80 -97 203 -125 274 -29 70 -69 163 -90 205 -21 42 -54 117 -74 166 -19 50
-47 115 -60 145 -74 166 -172 502 -211 720 -42 242 -37 618 15 1080 24 213 29
312 30 590 2 333 -19 522 -81 745 -38 137 -147 365 -233 485 -176 249 -259
391 -303 515 -44 123 -50 170 -32 232 15 49 110 200 178 283 62 75 213 293
362 525 119 185 248 448 434 885 58 135 124 290 148 345 66 150 231 580 257
665 20 66 34 89 123 198 56 68 127 155 160 195 32 40 85 100 117 135 33 34 59
67 59 72 0 5 26 38 58 74 32 35 73 90 91 122 32 58 70 114 214 309 40 55 86
120 103 144 16 24 58 69 93 100 35 31 74 66 85 79 12 13 75 69 140 125 66 56
145 125 175 152 31 28 109 88 175 135 143 103 392 277 460 322 27 18 90 61
140 95 50 35 141 97 201 138 156 106 311 216 445 316 197 146 398 289 570 403
91 60 199 135 240 166 41 31 118 86 170 122 92 63 232 162 374 264 69 49 374
262 476 332 30 20 111 78 179 127 68 50 199 144 290 210 92 66 194 141 227
166 32 25 93 69 134 97 76 52 178 127 304 224 37 29 108 80 156 113 48 33 149
105 225 160 170 123 243 175 365 259 52 36 119 82 148 103 148 106 305 207
467 300 39 22 108 63 155 90 47 28 170 97 275 153 104 56 208 114 230 128 22
14 78 45 125 69 91 47 124 66 210 121 30 20 114 66 185 102 72 37 148 78 170
92 74 47 899 458 919 458 3 0 83 39 178 86 153 76 322 157 543 259 39 18 109
51 157 74 91 42 404 175 523 222 39 15 147 57 240 94 94 36 222 86 285 110 63
24 138 53 165 65 106 46 415 159 590 216 441 144 998 294 1480 399 160 35 380
84 490 109 110 25 212 46 227 46 15 0 64 9 110 20 46 12 119 27 163 35 44 7
121 21 170 30 151 27 346 57 420 65 39 4 113 13 165 19 237 26 297 32 475 46
105 8 244 19 310 25 666 58 1447 88 1850 71 327 -15 611 -35 835 -61 52 -6
131 -15 175 -19 44 -5 134 -17 200 -26 66 -9 152 -21 190 -26 137 -18 362 -59
495 -90 47 -10 97 -19 111 -19 15 0 39 -4 55 -10 16 -5 56 -14 89 -19 33 -5
87 -16 120 -24 33 -8 114 -27 180 -42 66 -15 131 -31 145 -36 14 -5 61 -17
105 -28 235 -58 343 -90 615 -185 288 -99 313 -109 490 -181 30 -13 73 -28 95
-35 22 -7 53 -19 69 -28 16 -8 57 -25 90 -37 34 -13 99 -40 146 -60 47 -20
112 -48 145 -61 33 -14 71 -31 85 -39 14 -7 48 -22 75 -33 54 -21 321 -147
345 -163 8 -5 53 -29 100 -53 47 -23 123 -65 170 -91 47 -26 103 -58 125 -70
22 -12 57 -34 78 -48 21 -14 48 -29 60 -33 12 -4 38 -19 57 -34 19 -15 56 -38
82 -50 26 -12 52 -28 59 -36 6 -8 17 -14 24 -14 7 0 29 -13 50 -30 21 -16 42
-30 47 -30 6 0 23 -10 38 -22 15 -13 40 -31 56 -40 16 -10 49 -31 74 -48 25
-17 58 -38 74 -48 15 -9 45 -30 66 -47 21 -16 61 -46 90 -65 28 -19 71 -51 95
-70 24 -19 62 -48 85 -65 22 -16 59 -47 81 -67 22 -21 44 -38 48 -38 4 0 24
-15 43 -32 108 -100 173 -123 218 -78 20 20 19 61 -3 105 -22 43 -121 158
-229 265 -474 472 -1112 940 -1853 1362 -1173 667 -1983 1009 -3235 1368 -634
181 -1166 299 -1765 390 -110 17 -240 37 -290 45 -294 47 -502 75 -755 100
-85 8 -193 19 -240 25 -47 5 -128 14 -180 20 -52 5 -135 14 -185 20 -49 5
-139 14 -200 20 -60 6 -153 15 -205 20 -101 10 -264 21 -685 45 -392 23 -462
26 -560 31 -116 5 -1561 12 -1640 7z m-25358 -18535 c-3 -13 -9 -44 -12 -71
-4 -26 -11 -49 -15 -52 -10 -6 -60 52 -60 70 0 7 3 27 6 44 6 28 10 31 46 31
37 0 40 -2 35 -22z"/>
</g>
</svg>
