<?xml version="1.0" standalone="no"?>
<!DOCTYPE svg PUBLIC "-//W3C//DTD SVG 20010904//EN"
 "http://www.w3.org/TR/2001/REC-SVG-20010904/DTD/svg10.dtd">
<svg version="1.0" xmlns="http://www.w3.org/2000/svg"
 width="4620.000000pt" height="1747.000000pt" viewBox="0 0 4620.000000 1747.000000"
 preserveAspectRatio="xMidYMid meet">
<metadata>
Created by potrace 1.16, written by Peter Selinger 2001-2019
</metadata>
<g transform="translate(0.000000,1747.000000) scale(0.100000,-0.100000)"
fill="#000000" stroke="none">
<path d="M5455 17433 c-16 -8 -38 -23 -48 -31 -21 -19 -85 -44 -107 -43 -8 0
-34 4 -58 7 -25 4 -55 1 -71 -6 -25 -10 -39 -8 -102 15 -133 48 -135 48 -208
30 -36 -9 -77 -22 -90 -29 -17 -10 -33 -11 -56 -3 -49 15 -98 1 -157 -44 -36
-27 -59 -38 -73 -34 -11 3 -54 8 -96 11 -64 6 -81 4 -108 -12 -17 -10 -31 -21
-31 -25 0 -18 -59 -61 -98 -71 -26 -6 -62 -26 -83 -45 -73 -66 -243 -169 -301
-182 -45 -9 -68 -23 -117 -68 -67 -60 -88 -68 -216 -83 -38 -4 -87 -15 -107
-24 -45 -19 -109 -62 -108 -72 0 -4 -17 -8 -39 -10 -28 -3 -41 0 -45 12 -4 12
-10 13 -26 4 -28 -15 -36 -7 -43 44 -14 101 -43 148 -166 272 -30 31 -61 54
-70 52 -9 -2 -25 -17 -36 -34 -11 -16 -43 -50 -72 -74 -29 -24 -51 -46 -48
-48 6 -6 -51 -52 -64 -52 -6 0 -11 -4 -11 -10 0 -5 -11 -12 -25 -16 -14 -3
-22 -10 -20 -15 3 -4 -12 -19 -33 -33 -53 -33 -129 -120 -137 -156 -4 -17 -13
-30 -20 -30 -8 0 -25 -11 -39 -25 -15 -15 -31 -22 -40 -19 -9 3 -16 2 -16 -3
0 -5 -15 -17 -32 -28 -18 -10 -37 -24 -41 -32 -5 -8 -17 -11 -32 -7 -19 5 -31
-1 -53 -25 -23 -25 -42 -34 -99 -45 -73 -14 -133 -46 -133 -72 0 -8 -13 -17
-30 -21 -17 -3 -33 -10 -36 -14 -3 -5 -14 -9 -25 -9 -10 0 -19 -4 -19 -8 0 -4
-19 -18 -42 -30 -85 -45 -105 -58 -158 -107 -27 -24 -69 -35 -134 -35 -48 0
-67 -4 -84 -20 -12 -11 -25 -20 -29 -20 -4 -1 -24 -14 -43 -30 -19 -17 -41
-30 -49 -30 -26 0 -85 -24 -126 -51 -31 -21 -53 -27 -93 -27 -58 -1 -97 -24
-97 -57 0 -11 -9 -35 -20 -53 -11 -19 -29 -50 -40 -70 -20 -36 -51 -57 -152
-98 -63 -25 -88 -57 -89 -113 0 -27 -7 -58 -17 -71 -9 -14 -17 -30 -17 -37 0
-7 -3 -13 -7 -13 -5 0 -17 -14 -28 -30 -11 -16 -25 -30 -32 -30 -7 0 -17 -9
-23 -20 -6 -11 -8 -20 -6 -20 3 0 -6 -16 -19 -36 -14 -20 -25 -42 -25 -49 0
-7 -12 -17 -27 -23 -16 -5 -44 -25 -64 -43 -49 -47 -159 -189 -159 -205 0 -8
-4 -14 -9 -14 -5 0 -12 -16 -15 -35 -4 -19 -11 -35 -16 -35 -6 0 -10 -11 -10
-24 0 -14 -4 -27 -9 -30 -4 -3 -12 -20 -16 -38 -9 -40 -8 -35 -28 -82 -24 -55
-47 -137 -42 -147 3 -4 1 -10 -3 -13 -5 -3 -7 -18 -4 -32 3 -19 1 -25 -7 -20
-16 10 -5 -69 14 -97 23 -36 81 -212 116 -352 6 -22 26 -68 44 -101 19 -34 40
-84 45 -112 11 -50 30 -75 72 -96 15 -7 31 -36 49 -88 31 -88 109 -221 171
-291 43 -49 68 -60 159 -72 117 -17 286 -24 309 -13 8 4 40 14 70 24 52 15 79
26 159 60 18 8 36 12 39 10 3 -3 10 -1 17 4 6 5 29 12 51 16 21 3 46 10 55 15
9 4 27 10 40 13 13 2 74 16 134 29 160 36 360 66 548 82 29 2 72 6 97 9 25 3
92 8 150 11 58 4 119 8 135 10 17 2 62 7 100 11 39 4 84 8 100 11 104 13 748
5 820 -11 11 -2 54 -7 95 -11 52 -5 98 -17 152 -41 99 -44 175 -60 204 -41 6
3 24 -5 39 -19 15 -14 71 -58 124 -98 122 -93 184 -122 381 -180 91 -26 106
-30 290 -76 83 -21 145 -49 158 -72 7 -12 22 -49 33 -82 25 -68 76 -129 133
-158 92 -46 172 -108 201 -155 17 -27 57 -77 91 -113 52 -55 78 -97 167 -275
58 -115 113 -235 122 -265 52 -172 102 -257 217 -365 144 -135 198 -213 239
-342 21 -64 49 -113 49 -85 0 19 28 14 40 -8 13 -24 30 -26 30 -5 0 26 28 17
47 -15 17 -29 43 -41 43 -19 0 24 17 -3 40 -66 14 -36 33 -75 43 -86 19 -20
20 -20 37 -2 9 11 23 29 29 41 10 19 15 20 31 10 10 -7 17 -14 15 -16 -2 -3 7
-13 20 -24 14 -11 25 -28 25 -39 0 -11 4 -17 10 -14 6 3 7 -1 4 -9 -4 -10 -1
-16 9 -16 8 0 23 -12 33 -27 9 -15 27 -35 38 -44 17 -14 20 -27 19 -88 -1 -52
2 -71 12 -71 7 0 15 10 19 23 5 19 10 15 37 -35 47 -85 69 -87 92 -8 l12 43
29 -53 c29 -54 82 -120 94 -118 4 1 16 -3 26 -7 13 -6 21 -4 24 4 3 8 15 2 33
-19 17 -18 36 -30 43 -27 8 3 17 -1 20 -9 9 -23 28 -5 20 19 -12 40 12 4 30
-44 20 -55 53 -90 65 -70 6 9 14 -2 26 -35 33 -89 51 -97 52 -23 1 28 3 53 6
55 2 2 16 -18 31 -46 47 -87 92 -84 88 6 -1 39 1 44 19 44 15 0 19 -5 15 -15
-3 -9 0 -15 9 -15 8 0 16 -7 16 -15 4 -42 29 -83 60 -97 20 -9 27 -18 23 -30
-3 -11 8 -27 35 -48 44 -36 81 -104 81 -149 0 -16 5 -31 11 -33 8 -3 12 -38
14 -98 1 -91 14 -140 36 -140 5 0 7 11 3 25 -4 15 -2 25 5 25 6 0 11 -13 11
-29 0 -40 31 -92 50 -86 10 4 10 1 -2 -9 -21 -16 -24 -30 -4 -23 18 7 13 -96
-7 -127 -14 -21 -12 -46 2 -46 4 0 21 11 37 25 26 22 29 23 36 7 3 -9 7 -37 7
-60 1 -35 5 -45 21 -49 12 -3 20 -14 20 -27 0 -31 24 -61 43 -53 11 4 22 -9
41 -48 35 -70 52 -84 70 -59 16 22 15 23 50 -33 14 -24 34 -43 44 -43 9 0 25
-14 34 -30 12 -22 25 -30 44 -30 15 0 38 -9 50 -21 12 -11 42 -25 66 -30 46
-11 98 -52 98 -79 0 -9 9 -25 20 -35 13 -11 20 -14 20 -6 0 15 40 5 55 -13 26
-30 99 -85 106 -80 5 3 9 1 9 -4 0 -5 28 -26 63 -47 34 -21 73 -48 87 -61 68
-62 331 -224 495 -304 260 -127 373 -180 384 -180 25 0 28 -55 25 -395 -4
-417 -7 -498 -29 -694 -9 -78 -14 -146 -11 -149 3 -3 1 -11 -5 -19 -6 -7 -9
-26 -6 -42 3 -16 3 -32 -1 -36 -6 -6 -9 -22 -15 -102 -1 -17 -5 -34 -9 -38 -3
-4 -3 -19 1 -33 10 -37 3 -62 -17 -63 -11 0 -12 -2 -4 -6 15 -6 15 -62 1 -123
-12 -51 -27 -149 -35 -230 -3 -30 -12 -62 -20 -71 -8 -9 -12 -24 -8 -33 3 -9
1 -16 -6 -16 -6 0 -8 -4 -5 -10 3 -5 -1 -23 -9 -39 -9 -16 -27 -109 -41 -207
-39 -269 -62 -365 -122 -524 -75 -194 -111 -309 -123 -389 -10 -57 -44 -248
-55 -306 -13 -63 -20 -265 -19 -520 1 -236 6 -339 28 -555 29 -281 54 -431 73
-437 14 -5 29 78 39 217 6 76 10 126 18 195 2 28 7 79 11 115 8 89 24 210 40
305 8 44 19 129 25 188 6 60 15 120 21 133 5 14 9 40 9 57 0 59 23 137 41 137
9 0 30 7 45 15 63 31 194 158 194 186 0 10 4 19 9 19 5 0 11 12 14 27 3 16 12
54 20 86 10 38 14 87 11 145 -7 137 -6 144 27 184 16 21 34 48 39 60 7 16 8
-22 3 -117 -9 -160 -9 -267 1 -445 6 -90 3 -153 -7 -225 -26 -178 -6 -438 43
-568 21 -53 64 -107 88 -107 22 0 11 -573 -16 -825 -12 -104 -23 -221 -26
-260 -3 -38 -10 -90 -15 -115 -24 -119 -24 -120 -8 -120 9 0 19 10 22 23 4 12
13 36 20 53 28 61 77 201 96 274 11 41 24 84 29 95 9 22 24 95 22 108 -1 4 4
20 12 35 7 15 19 59 26 97 7 39 18 102 26 140 7 39 22 169 34 289 15 152 26
224 36 233 8 8 19 23 25 34 11 22 29 215 24 258 -2 14 -6 69 -10 121 -4 52
-10 122 -13 155 -9 78 1 501 11 512 11 10 72 -223 87 -329 13 -96 26 -144 49
-195 38 -81 75 -131 106 -145 18 -8 29 -30 48 -92 34 -110 148 -516 182 -646
31 -123 42 -153 53 -146 12 7 14 233 3 328 -6 45 -13 124 -16 173 -3 50 -8
101 -11 115 -2 14 -6 50 -9 80 -7 76 -14 123 -32 208 -8 40 -13 82 -10 95 9
37 -32 288 -63 387 -6 19 -13 46 -16 60 -3 14 -12 48 -20 75 -14 49 -58 256
-68 325 -9 54 -17 270 -20 535 -3 223 -5 248 -30 345 -26 97 -27 114 -21 230
9 160 24 242 65 360 13 36 24 72 24 81 1 8 7 28 13 45 20 55 33 100 42 145 15
69 32 132 42 154 9 20 22 77 34 145 3 19 13 55 21 80 8 25 16 58 17 73 1 14 7
27 12 27 13 1 112 -300 120 -364 5 -35 9 -45 16 -35 7 11 9 11 9 -3 0 -9 -4
-20 -10 -23 -5 -3 -10 -11 -10 -16 0 -6 4 -7 10 -4 5 3 7 0 4 -8 -2 -7 10 -40
27 -73 18 -32 35 -77 40 -99 31 -161 103 -406 140 -474 10 -20 19 -45 19 -56
0 -12 4 -25 9 -31 5 -5 19 -45 31 -89 27 -98 53 -179 73 -225 11 -26 15 -85
16 -230 2 -130 7 -215 17 -258 17 -72 62 -191 104 -272 16 -30 39 -91 53 -135
60 -192 263 -628 402 -860 89 -151 191 -299 229 -334 14 -14 26 -29 26 -35 0
-6 11 -16 25 -23 14 -6 25 -7 25 -2 0 11 -65 191 -80 224 -37 78 -131 357
-192 565 -29 103 -127 513 -128 538 0 6 7 12 16 12 8 0 24 20 36 48 18 38 22
70 24 166 2 65 -1 126 -6 135 -4 9 -21 57 -36 106 -20 64 -37 99 -58 121 -29
29 -30 33 -19 65 21 59 15 166 -12 253 -14 43 -23 81 -20 84 2 3 0 11 -6 19
-9 9 -8 13 0 13 6 0 11 -4 11 -9 0 -4 16 -28 35 -52 19 -24 35 -48 35 -53 0
-15 141 -220 177 -257 19 -20 48 -56 66 -81 18 -25 50 -68 72 -96 78 -99 134
-179 235 -332 56 -85 110 -166 120 -180 9 -14 27 -45 39 -69 12 -23 47 -68 77
-98 30 -30 54 -59 54 -63 0 -9 106 -157 172 -239 73 -92 154 -177 276 -289
124 -114 125 -115 242 -192 41 -27 81 -55 88 -61 7 -6 36 -22 65 -35 29 -14
64 -32 79 -40 15 -8 43 -17 63 -19 29 -4 35 -2 35 14 0 11 -13 29 -30 41 -34
24 -260 277 -299 334 -8 12 -31 40 -50 62 -55 63 -281 373 -316 432 -5 10 -20
31 -31 47 -17 24 -22 44 -21 93 0 42 -6 78 -20 110 -12 26 -29 67 -39 92 -11
24 -33 68 -50 97 l-32 52 32 -6 c17 -3 51 -25 77 -50 111 -107 335 -251 490
-314 41 -16 83 -34 94 -39 83 -39 282 -66 273 -38 -2 6 -11 15 -19 20 -265
148 -461 298 -673 516 -42 43 -49 56 -51 97 -9 123 -41 192 -124 260 -26 22
-66 65 -87 95 -46 65 -112 132 -176 180 -26 19 -55 51 -63 70 -9 19 -24 50
-33 69 -9 19 -64 82 -120 140 -88 90 -111 121 -153 204 -27 53 -49 103 -49
110 0 7 -30 50 -67 97 -38 46 -84 105 -103 131 -65 87 -124 164 -129 169 -14
12 -31 52 -26 60 10 17 -6 80 -21 80 -7 0 -20 12 -27 28 -17 32 -29 112 -17
112 7 0 61 -20 105 -40 11 -5 52 -20 90 -35 39 -14 93 -34 120 -45 28 -10 100
-35 160 -55 61 -19 119 -39 130 -44 11 -5 40 -16 65 -24 70 -24 437 -155 515
-184 88 -33 278 -131 357 -184 33 -23 90 -66 127 -97 128 -109 170 -142 179
-142 5 0 17 -9 27 -19 16 -19 124 -75 230 -121 125 -54 376 -131 505 -156 161
-30 185 -36 221 -55 21 -10 44 -29 51 -42 7 -13 29 -48 49 -78 31 -47 38 -69
53 -169 15 -106 19 -117 49 -146 28 -28 36 -49 66 -170 18 -77 41 -157 51
-179 9 -22 30 -69 45 -105 46 -109 163 -334 213 -412 26 -40 53 -85 60 -99 8
-15 24 -37 36 -50 12 -13 51 -64 86 -114 36 -49 72 -97 80 -105 8 -9 60 -67
116 -130 146 -166 405 -407 670 -623 391 -319 651 -631 735 -882 37 -113 25
-293 -27 -393 -21 -40 -17 -86 13 -178 24 -75 26 -86 14 -122 -9 -26 -11 -57
-7 -86 8 -48 9 -43 -69 -211 -13 -27 -33 -74 -46 -102 -12 -29 -33 -63 -47
-75 -13 -13 -62 -79 -107 -148 -78 -119 -163 -209 -184 -196 -9 6 -39 -23 -40
-39 -1 -5 -5 -11 -11 -11 -5 -1 -14 -2 -19 -3 -5 0 -11 -10 -14 -21 -3 -11
-20 -27 -39 -35 -18 -8 -28 -15 -23 -15 6 0 2 -5 -7 -11 -10 -5 -19 -9 -20 -8
-2 1 -46 -26 -98 -58 -53 -33 -134 -80 -180 -103 -47 -23 -123 -65 -169 -92
-77 -47 -85 -55 -112 -112 -16 -33 -29 -75 -29 -93 0 -61 -14 -78 -72 -91 -29
-7 -70 -14 -90 -16 -56 -7 -116 -25 -124 -37 -3 -6 -17 -8 -30 -5 -13 4 -24 3
-24 -2 0 -12 -179 -46 -229 -44 -33 2 -48 -2 -63 -18 -20 -21 -38 -26 -38 -10
0 14 -61 12 -160 -5 -47 -8 -98 -14 -115 -14 -77 2 -185 -5 -185 -11 0 -10
-26 -10 -255 0 -118 6 -223 16 -255 25 -70 19 -239 20 -305 1 -131 -37 -232
-82 -290 -128 -33 -27 -64 -47 -70 -44 -13 5 -36 -20 -27 -30 4 -4 2 -4 -4 -1
-18 10 -184 -209 -184 -243 0 -13 47 -32 80 -32 80 0 122 6 127 17 2 8 23 26
46 42 23 15 46 34 50 40 4 7 15 13 23 13 8 0 27 9 42 20 15 10 38 21 52 24 14
2 36 6 50 9 14 3 57 9 95 12 l70 6 -42 -42 c-45 -44 -83 -111 -83 -147 l0 -22
1650 0 1650 0 55 27 c52 26 57 31 71 80 9 30 13 66 10 81 -3 15 -8 50 -11 77
-12 104 -22 180 -25 190 -1 6 -2 23 -1 39 l1 29 44 -41 c70 -65 211 -118 261
-98 19 7 9 33 -15 41 -64 20 -170 191 -170 274 0 45 1 47 38 60 73 26 99 78
109 219 4 63 2 87 -9 105 -9 12 -12 28 -8 37 110 217 114 225 128 233 6 4 12
14 12 22 0 7 3 15 8 17 4 2 25 26 47 53 22 28 45 55 51 60 7 6 42 48 79 95
115 146 128 159 175 166 31 5 54 18 89 52 25 24 61 51 80 59 48 21 63 39 76
92 10 37 20 52 53 74 23 16 42 33 42 39 0 6 6 19 13 27 17 20 77 220 77 254 0
15 -10 34 -25 45 -30 24 -30 26 -8 48 25 25 21 99 -12 232 -32 129 -61 172
-113 172 -35 0 -62 22 -62 51 0 11 -35 54 -80 99 -303 305 -453 687 -450 1148
2 248 11 407 26 485 6 29 14 30 69 8 36 -14 89 -32 140 -47 28 -8 106 -32 175
-53 117 -37 246 -71 350 -93 25 -5 68 -16 95 -23 28 -7 102 -25 165 -40 63
-14 160 -38 215 -51 54 -14 131 -30 170 -35 71 -9 99 -14 240 -44 44 -9 89
-19 100 -21 87 -16 380 -121 498 -178 273 -133 493 -302 674 -518 61 -73 65
-81 79 -160 9 -46 22 -90 30 -99 9 -10 14 -39 14 -78 0 -58 2 -64 41 -106 23
-25 52 -48 64 -51 19 -5 24 -15 29 -62 30 -248 36 -523 16 -677 -7 -55 -13
-110 -14 -122 -1 -12 -4 -25 -8 -29 -5 -4 -8 -17 -8 -29 0 -11 -11 -60 -25
-109 -15 -48 -27 -104 -29 -124 -1 -20 -8 -38 -14 -40 -7 -2 -12 -12 -12 -23
0 -10 -4 -19 -9 -19 -7 0 -19 -30 -22 -57 -1 -11 -50 -95 -66 -114 -7 -8 -13
-24 -13 -35 -1 -22 -23 -54 -38 -54 -15 0 -23 -28 -9 -34 9 -3 9 -5 0 -5 -7
-1 -13 -10 -13 -21 0 -11 -4 -20 -9 -20 -17 0 11 -182 36 -234 9 -20 33 -42
59 -57 36 -19 44 -29 44 -53 0 -16 8 -43 19 -60 10 -17 19 -52 20 -79 1 -26 6
-79 11 -117 7 -49 7 -90 -2 -137 -6 -38 -12 -87 -12 -110 -2 -39 -5 -44 -61
-81 -33 -22 -77 -45 -97 -51 -21 -7 -40 -17 -43 -22 -4 -5 -33 -9 -65 -9 -33
0 -78 -7 -101 -16 -32 -13 -43 -14 -49 -5 -5 10 -9 9 -13 -2 -7 -20 -180 -16
-205 5 -27 23 -332 18 -392 -6 -25 -10 -53 -18 -64 -18 -10 1 -63 -23 -118
-53 -54 -30 -107 -57 -116 -60 -24 -9 -116 -118 -137 -162 -10 -21 -20 -56
-23 -79 -5 -49 1 -52 90 -44 35 4 63 12 70 21 16 20 92 70 132 87 22 10 164
42 184 42 2 0 -10 -18 -27 -39 -37 -47 -64 -108 -57 -127 5 -12 166 -14 1021
-14 1081 0 1050 -1 1104 47 76 66 154 152 167 182 15 35 11 91 -7 91 -5 0 -9
5 -9 10 0 6 9 10 20 10 11 0 20 6 20 14 0 8 4 16 10 18 15 5 49 180 57 285 6
94 -11 185 -41 216 -7 8 -11 55 -11 137 0 69 -3 145 -7 170 -13 91 -30 175
-38 191 -5 9 -12 31 -15 50 -9 51 -27 112 -38 127 -13 16 -13 16 56 37 34 10
79 35 105 57 26 21 50 38 54 38 5 0 8 4 8 10 0 10 -66 7 -77 -4 -10 -9 -81 -7
-87 3 -3 4 -18 6 -32 3 -19 -3 -25 -1 -20 7 4 7 0 11 -11 11 -34 1 -100 38
-122 68 l-22 31 32 61 c28 54 31 67 27 123 -4 54 -12 74 -67 165 l-62 102 4
113 c5 105 29 225 56 275 6 11 11 30 11 41 0 12 4 29 9 39 17 33 41 117 41
143 0 14 11 40 25 59 14 19 25 40 25 47 0 7 9 18 20 25 11 7 20 18 20 25 0 7
4 13 10 13 24 0 60 120 60 200 0 30 7 68 15 84 19 36 19 126 1 152 -8 10 -12
30 -9 45 3 15 -7 58 -25 105 -16 43 -34 102 -41 129 -13 55 -68 119 -134 157
-21 12 -40 33 -43 45 -4 13 -23 36 -43 51 -20 15 -56 47 -81 72 -27 27 -65 53
-95 64 -27 11 -104 45 -170 76 -66 31 -133 60 -149 64 -15 4 -26 10 -22 13 7
8 -90 62 -119 67 -11 2 -19 9 -18 15 3 12 -56 46 -74 43 -7 -2 -13 3 -13 10 0
7 -9 19 -20 25 -16 11 -18 10 -14 -2 14 -36 -49 3 -93 57 -18 22 -33 37 -33
33 0 -5 -9 0 -20 10 -11 10 -17 23 -13 29 3 6 3 8 -2 4 -11 -10 -85 50 -85 68
0 9 -4 13 -9 10 -11 -7 -171 160 -171 178 0 7 -12 35 -26 62 -93 173 -154 299
-154 319 0 38 -23 125 -33 125 -5 0 -6 7 -3 16 3 9 3 21 -1 27 -4 7 -8 18 -8
27 -4 42 -18 109 -30 145 -7 22 -21 69 -31 105 -9 36 -21 69 -26 74 -4 6 -8
19 -8 31 0 12 -4 25 -8 31 -5 5 -19 38 -32 74 -12 36 -53 127 -91 203 -38 75
-69 141 -69 146 0 6 8 9 18 9 21 -1 93 21 187 57 39 15 79 28 90 30 11 2 56
18 100 35 44 17 94 35 110 40 34 8 100 33 160 60 22 9 51 21 65 25 14 4 33 14
43 23 9 8 17 12 17 9 0 -3 30 9 66 28 37 19 77 35 90 35 13 0 24 5 24 12 0 6
2 9 5 6 15 -15 138 25 240 79 102 53 172 86 265 124 58 23 110 46 115 50 6 4
62 19 125 33 219 51 334 90 356 124 8 12 23 22 34 22 10 0 22 5 25 10 3 6 27
10 53 11 26 0 70 4 97 9 68 13 338 50 400 56 28 2 84 8 125 14 41 5 107 11
145 15 98 8 175 15 210 20 17 2 82 7 145 10 63 3 183 10 265 16 83 6 182 12
220 15 39 3 99 7 135 9 126 9 228 14 495 20 149 4 315 9 370 11 160 7 1125 7
1415 -1 447 -11 540 -13 675 -19 72 -4 186 -9 255 -12 69 -3 150 -7 180 -9 30
-2 116 -6 190 -10 198 -9 237 -12 435 -29 99 -8 236 -18 305 -21 68 -4 134 -9
145 -11 11 -2 58 -6 105 -9 47 -3 108 -7 135 -10 28 -3 79 -7 115 -10 36 -3
85 -7 110 -10 75 -8 340 -34 415 -40 39 -3 81 -7 95 -9 14 -2 71 -9 127 -15
56 -7 110 -13 120 -15 10 -2 45 -7 78 -10 33 -4 110 -14 170 -22 61 -8 134
-17 163 -19 59 -5 101 -10 222 -30 47 -7 110 -16 141 -19 31 -3 182 -26 335
-51 154 -25 308 -50 344 -55 98 -13 135 -19 245 -40 55 -11 165 -31 245 -44
242 -42 420 -74 520 -96 52 -11 185 -39 295 -61 109 -22 202 -42 206 -45 4 -2
53 -13 108 -24 56 -11 146 -31 199 -45 127 -32 502 -125 572 -141 95 -22 203
-52 245 -68 22 -8 52 -15 67 -16 15 0 37 -4 50 -9 13 -6 57 -19 98 -31 41 -12
118 -34 171 -51 53 -16 104 -29 113 -29 9 0 24 -4 34 -9 16 -10 83 -31 207
-66 59 -17 271 -85 330 -106 17 -6 82 -28 145 -49 63 -21 153 -53 200 -70 47
-17 135 -48 195 -70 152 -53 295 -108 470 -180 39 -16 102 -41 140 -55 39 -15
93 -38 120 -50 89 -41 144 -65 148 -65 4 0 85 -36 202 -90 11 -5 27 -11 35
-12 8 -2 17 -5 20 -8 3 -3 39 -21 80 -42 119 -58 544 -264 670 -325 63 -31
122 -60 130 -64 21 -13 241 -120 325 -159 39 -18 120 -56 180 -85 61 -29 162
-75 226 -103 63 -28 129 -58 145 -67 16 -8 32 -15 36 -15 4 0 46 -18 93 -40
47 -22 89 -40 92 -40 3 0 38 -16 78 -35 40 -19 139 -61 221 -95 82 -33 187
-78 234 -99 47 -21 108 -46 135 -56 28 -9 65 -24 83 -32 18 -8 42 -16 52 -18
11 -2 26 -7 33 -12 6 -4 17 -8 22 -10 6 -1 60 -23 120 -48 61 -26 126 -51 145
-57 19 -5 49 -16 65 -23 53 -23 117 -46 220 -80 55 -18 143 -49 195 -68 126
-47 147 -54 200 -67 94 -25 196 -63 230 -86 20 -13 51 -26 70 -30 19 -3 53
-12 75 -19 120 -40 285 -88 394 -115 69 -18 134 -38 145 -45 12 -7 66 -26 121
-43 55 -17 144 -45 198 -62 54 -16 108 -30 119 -30 11 0 68 -16 127 -35 156
-50 247 -74 331 -85 116 -16 233 -44 480 -116 47 -13 148 -37 225 -53 77 -16
153 -34 168 -40 16 -6 42 -11 59 -11 16 0 85 -14 151 -31 67 -16 142 -34 167
-40 25 -5 110 -23 190 -40 237 -50 300 -60 400 -64 52 -2 131 -13 175 -24 44
-12 103 -21 130 -21 28 0 98 -11 156 -24 97 -22 168 -33 404 -66 44 -6 136
-15 205 -20 69 -5 181 -16 250 -24 69 -8 163 -15 210 -14 47 0 110 -4 140 -11
87 -17 228 -30 453 -42 l209 -11 48 23 c29 14 49 31 50 40 0 25 -64 76 -112
91 -24 7 -49 18 -57 25 -9 9 -37 13 -85 12 -39 -1 -96 3 -126 10 -30 6 -84 13
-120 15 -36 3 -76 7 -90 10 -23 5 -156 17 -190 18 -22 0 -285 35 -440 58 -277
40 -336 50 -370 60 -64 19 -264 60 -295 60 -17 0 -75 11 -128 25 -54 14 -143
32 -199 41 -55 8 -117 22 -137 30 -20 9 -92 29 -161 45 -69 16 -165 40 -215
54 -49 14 -103 25 -119 25 -16 0 -48 9 -71 20 -23 11 -93 31 -156 44 -63 13
-130 31 -149 39 -152 69 -358 137 -412 137 -14 0 -89 24 -165 53 -76 30 -185
71 -243 91 -128 46 -368 137 -470 178 -41 17 -117 46 -169 65 -52 19 -181 74
-285 123 -105 48 -214 95 -241 103 -28 8 -71 28 -95 44 -25 16 -83 47 -130 68
-84 39 -273 134 -675 340 -115 59 -254 130 -308 157 -54 28 -109 61 -122 74
-13 13 -31 24 -40 24 -8 0 -15 4 -15 9 0 5 -15 14 -32 21 -18 6 -40 15 -48 19
-41 21 -110 61 -150 88 -43 29 -97 60 -193 110 -23 12 -50 22 -59 22 -10 1
-23 11 -30 22 -8 13 -77 52 -166 96 -85 41 -174 90 -198 108 -24 19 -59 38
-77 43 -18 5 -64 30 -103 54 -39 25 -85 53 -103 63 -18 9 -60 38 -93 65 -33
26 -85 62 -116 80 -31 17 -88 51 -127 75 -38 24 -105 65 -147 92 -43 26 -131
84 -195 129 -65 44 -150 99 -189 121 -40 23 -96 58 -125 80 -30 21 -90 59
-134 82 -44 24 -96 58 -115 76 -19 19 -81 58 -136 88 -56 30 -124 72 -150 94
-44 36 -245 156 -524 313 -52 29 -156 88 -230 130 -74 43 -167 93 -206 113
-39 20 -113 62 -165 95 -52 33 -122 73 -156 91 -74 37 -203 122 -256 168 -20
18 -72 50 -115 71 -67 33 -193 101 -485 264 -81 45 -273 156 -412 237 -44 26
-106 60 -139 75 -32 15 -82 42 -112 61 -30 19 -104 59 -164 89 -61 30 -130 69
-152 85 -23 17 -46 31 -51 31 -4 0 -23 11 -41 25 -18 14 -38 25 -45 25 -6 0
-30 13 -53 30 -22 16 -48 30 -57 31 -9 0 -43 16 -76 35 -33 19 -98 52 -145 74
-47 22 -112 55 -145 73 -33 17 -108 57 -167 87 -60 30 -174 95 -255 144 -80
49 -189 109 -242 133 -53 25 -145 75 -205 111 -60 36 -145 80 -190 97 -86 35
-150 64 -206 95 -19 11 -93 48 -165 82 -71 34 -164 84 -205 112 -41 28 -79 49
-84 48 -21 -7 -74 21 -84 43 -18 39 -67 62 -146 70 -39 4 -80 14 -91 21 -11 8
-27 14 -36 14 -9 0 -20 7 -23 16 -4 9 -13 14 -21 10 -8 -3 -15 0 -15 7 0 9 -3
8 -9 -1 -7 -11 -9 -11 -14 1 -6 17 -67 29 -156 31 -59 2 -78 19 -46 42 30 22
7 33 -61 29 -56 -3 -65 -1 -62 14 2 9 14 17 26 19 13 2 21 9 19 15 -3 9 -36
11 -116 8 -84 -2 -117 0 -134 11 -12 8 -49 22 -82 32 -33 9 -82 24 -109 32
-26 7 -56 14 -65 14 -10 0 -26 7 -37 15 -13 10 -44 14 -96 15 -45 0 -78 4 -78
10 0 6 9 10 21 10 11 0 18 4 15 9 -6 9 -93 36 -113 34 -7 0 -13 8 -13 18 0 11
-4 19 -10 19 -5 0 -10 6 -10 13 0 9 -23 19 -57 27 -32 7 -62 17 -68 22 -5 4
-20 8 -35 8 -14 0 -47 9 -75 19 l-50 19 54 4 c53 3 54 4 36 21 -13 13 -27 17
-47 13 -20 -4 -28 -2 -28 9 0 22 -12 24 -73 16 -31 -4 -60 -4 -65 1 -5 5 -30
9 -56 10 -33 0 -44 4 -37 12 12 15 -24 59 -68 81 -19 9 -62 19 -95 22 -64 4
-158 29 -190 49 -10 7 -33 10 -52 7 -26 -4 -35 -2 -40 11 -9 23 -57 46 -97 46
-19 0 -46 9 -60 20 -14 11 -30 20 -37 20 -6 0 -38 8 -70 17 -44 14 -60 23 -62
38 -2 16 -12 21 -43 23 -170 13 -214 13 -234 3 -19 -10 -21 -9 -22 14 -3 46
-4 49 -25 60 -11 5 -19 15 -17 21 2 6 -11 18 -29 27 -26 13 -69 17 -193 20
-176 4 -191 8 -273 76 -25 21 -51 35 -63 33 -10 -2 -19 0 -19 5 0 4 -30 8 -68
7 -111 -1 -142 5 -152 32 -5 13 -15 24 -22 25 -17 0 -89 7 -157 13 -29 3 -59
11 -67 17 -14 12 -65 26 -124 34 -19 3 -37 10 -40 16 -4 5 -34 9 -66 8 -33 -1
-69 3 -80 9 -12 6 -23 10 -25 8 -2 -3 -35 -7 -73 -11 -66 -7 -69 -6 -90 19
-20 25 -26 27 -101 27 -84 0 -149 13 -176 36 -8 7 -28 13 -43 13 -15 0 -38 7
-51 16 -13 9 -29 13 -34 10 -6 -4 -15 3 -21 14 -6 11 -14 19 -18 19 -40 -6
-70 3 -80 27 -11 23 -16 25 -57 21 -25 -3 -48 -1 -51 5 -3 5 -17 7 -30 4 -14
-4 -24 -2 -24 4 0 6 -33 10 -82 10 -55 0 -87 4 -97 14 -9 7 -40 16 -69 19 -29
3 -59 10 -65 15 -14 11 -78 16 -154 14 -46 -1 -53 1 -53 18 0 31 -35 43 -107
35 l-63 -7 -11 31 c-9 25 -17 31 -40 31 -16 0 -29 5 -29 11 0 7 -17 9 -51 4
-38 -5 -54 -4 -60 6 -13 21 -156 20 -220 -1 -56 -19 -69 -15 -69 21 0 23 -21
29 -95 29 -45 0 -64 4 -68 14 -9 23 -73 36 -151 31 -42 -2 -75 0 -83 7 -9 7
-51 9 -128 5 -111 -5 -114 -5 -117 16 -2 12 -9 21 -16 20 -6 -2 -12 1 -12 6 0
5 -10 9 -22 10 -76 2 -88 3 -88 10 0 7 -37 14 -137 24 -12 1 -25 5 -29 10 -4
4 -40 5 -80 1 -40 -4 -80 -4 -90 0 -16 6 -16 8 1 26 16 18 15 19 -25 30 -23 6
-65 10 -93 7 -31 -2 -61 2 -76 10 -15 7 -45 13 -68 13 -23 0 -45 5 -48 11 -4
6 -31 9 -61 8 -29 -2 -56 -1 -58 2 -2 2 -65 4 -140 3 -107 -1 -136 2 -136 13
0 7 8 13 18 13 9 0 28 9 42 20 l25 19 -28 10 c-16 6 -39 11 -53 11 -13 0 -24
5 -24 11 0 8 -16 9 -47 5 -38 -5 -43 -4 -24 4 17 8 21 14 14 21 -8 8 -22 8
-48 -1 -109 -36 -365 15 -365 72 0 20 -39 40 -55 29 -17 -12 -98 -3 -124 13
-8 5 -44 11 -80 12 -278 12 -391 25 -391 46 0 5 9 12 20 15 22 6 22 30 0 25
-7 -1 -17 1 -24 6 -6 5 -44 10 -85 11 -41 1 -79 4 -83 7 -5 3 -79 7 -164 9
-86 2 -159 6 -161 9 -3 2 15 17 39 33 l43 28 -130 5 c-93 4 -139 10 -160 21
-18 10 -69 19 -125 24 -52 4 -106 13 -120 20 -35 18 -181 55 -271 70 -41 6
-81 15 -87 19 -20 12 -121 36 -152 36 -16 0 -52 9 -80 20 -28 11 -60 20 -71
20 -30 0 -140 39 -170 61 -15 10 -41 22 -58 25 -17 4 -28 10 -25 15 3 5 1 16
-4 26 -7 12 -27 17 -78 20 -38 2 -87 8 -109 14 -22 5 -79 11 -127 12 -65 2
-84 5 -76 14 7 8 4 12 -9 11 -35 -1 -228 15 -253 22 l-25 6 26 26 c14 14 32
27 40 30 37 14 -13 21 -134 21 -93 0 -140 4 -159 13 -15 8 -38 14 -51 14 -14
0 -44 9 -68 20 -24 11 -65 20 -91 20 -40 0 -52 5 -82 35 -27 27 -46 36 -87 41
-29 4 -64 13 -78 20 -14 8 -36 14 -49 14 -13 0 -35 6 -50 14 -16 8 -59 14
-101 15 -83 1 -104 11 -72 34 21 14 21 14 -10 21 -17 3 -54 6 -81 6 -33 0 -57
6 -76 20 -17 13 -51 22 -92 26 -69 7 -195 37 -214 52 -19 16 -148 51 -224 62
-40 6 -87 17 -104 26 -23 12 -46 14 -92 10 -84 -9 -121 3 -121 38 0 14 -7 31
-15 36 -23 15 -73 12 -109 -6 -29 -14 -40 -15 -89 -3 -32 7 -88 14 -127 17
-74 4 -97 14 -88 38 4 11 -6 14 -44 14 -27 0 -75 7 -106 15 -32 8 -81 15 -108
15 -52 0 -86 12 -105 39 -9 12 -36 16 -115 18 -122 3 -149 8 -149 28 0 10 -10
15 -29 15 -38 0 -62 10 -55 21 9 15 -16 19 -121 24 -159 6 -226 17 -261 44
-30 22 -35 23 -125 13 -61 -7 -100 -7 -112 0 -22 11 -164 29 -263 33 -40 1
-77 6 -84 10 -6 4 -33 8 -60 10 -26 1 -58 10 -71 19 -29 20 -71 20 -128 0 -30
-10 -47 -12 -54 -5 -8 8 -1 14 21 22 38 13 41 35 8 51 -19 8 -34 7 -65 -5 -34
-14 -39 -14 -35 -2 4 8 10 12 15 9 5 -3 9 0 9 5 0 6 7 11 15 11 8 0 15 5 15
10 0 15 -67 12 -122 -4 -27 -9 -76 -13 -117 -12 -64 3 -151 -11 -166 -26 -3
-3 -15 -4 -25 -1 -18 5 -18 7 6 25 35 28 18 44 -32 28 -46 -16 -267 -16 -272
-1 -2 6 -12 21 -22 33 -16 21 -21 22 -69 12 -47 -10 -51 -9 -51 8 0 17 -6 18
-62 14 -35 -3 -80 -8 -100 -12 -23 -4 -38 -2 -38 4 0 5 -21 12 -47 15 -26 3
-52 12 -58 20 -8 12 -33 14 -123 12 -90 -1 -112 1 -112 12 0 22 -23 25 -62 9
-28 -12 -42 -13 -66 -4 -24 9 -45 9 -90 0 -87 -18 -102 -16 -99 11 1 16 -3 22
-18 22 -11 0 -33 12 -48 28 -16 15 -32 25 -36 23 -4 -3 -23 -8 -42 -11 -19 -3
-60 -13 -91 -22 -55 -15 -58 -15 -104 8 -43 20 -52 21 -103 11 -32 -7 -87 -9
-127 -5 -53 4 -84 1 -122 -11 -38 -13 -56 -15 -71 -7 -11 6 -31 11 -45 11 -16
0 -26 6 -26 14 0 21 -17 28 -37 17 -13 -6 -26 -5 -43 5 -33 18 -64 17 -100 -1
-22 -11 -35 -12 -60 -4 -23 8 -47 8 -88 1 -31 -6 -81 -13 -110 -16 -45 -4 -53
-3 -48 9 8 21 -36 47 -66 40 -13 -3 -36 0 -51 8 -28 15 -48 12 -112 -14 -11
-5 -48 -15 -82 -24 -34 -8 -69 -18 -76 -21 -10 -4 -17 5 -21 30 -8 39 -16 42
-104 37 -24 -2 -48 2 -55 7 -22 18 -103 20 -92 2 8 -12 3 -13 -29 -1 -15 6
-37 6 -57 1 -23 -7 -39 -5 -60 5 -35 18 -72 18 -123 0 -33 -12 -41 -12 -53 1
-15 14 -30 19 -48 13 -35 -10 -112 -2 -127 13 -22 22 -38 16 -91 -33 -41 -38
-117 -93 -117 -84 0 10 25 62 38 77 20 24 -3 34 -33 14 -13 -9 -30 -16 -37
-16 -16 -1 -58 -35 -58 -48 0 -12 -85 -36 -98 -28 -6 3 -8 15 -5 26 9 33 -13
47 -71 49 -37 0 -56 -3 -59 -13 -5 -13 -35 -22 -99 -29 -15 -2 -48 -23 -77
-50 -28 -26 -52 -47 -55 -47 -3 0 -14 10 -25 22 -14 14 -19 29 -15 45 7 27 7
27 -52 12 -32 -8 -48 -8 -58 0 -17 14 -75 4 -101 -19 -30 -27 -65 -35 -65 -16
0 23 -8 20 -42 -14 -29 -29 -32 -30 -54 -16 -14 10 -25 12 -29 6 -4 -6 -11 -8
-16 -5 -5 4 -9 1 -9 -4 0 -6 -20 -20 -45 -32 -39 -18 -55 -20 -118 -14 -91 8
-229 8 -327 0 -115 -11 -150 -9 -220 9 -36 9 -103 24 -150 32 -94 17 -109 26
-91 48 18 22 4 37 -32 34 -20 -2 -32 2 -33 10 -1 6 -2 18 -3 25 0 8 -29 29
-63 47 -146 75 -184 111 -227 212 -11 26 -32 54 -48 64 -30 19 -93 81 -93 92
0 4 -15 30 -33 57 -19 28 -37 61 -40 75 -3 14 -15 35 -25 46 -11 11 -23 30
-26 42 -4 11 -17 35 -29 54 -12 18 -33 78 -46 133 -13 55 -29 114 -36 130 -7
17 -19 61 -26 99 -6 38 -24 92 -38 120 -15 28 -33 78 -40 111 -7 33 -33 97
-57 142 -26 48 -44 96 -44 115 0 17 -9 50 -19 72 -10 23 -22 61 -25 86 -3 25
-10 70 -16 100 -5 30 -15 88 -20 129 -12 82 -26 114 -72 166 -19 22 -34 53
-39 82 -5 25 -16 59 -24 76 -8 17 -15 46 -15 65 0 29 -8 43 -45 79 -25 24 -45
52 -45 63 0 29 -16 57 -62 109 -33 39 -38 50 -38 95 0 61 -25 108 -71 131 -17
9 -44 32 -61 50 -16 19 -39 37 -51 41 -32 9 -77 54 -93 94 -20 48 -40 66 -104
101 -31 16 -64 43 -73 58 -23 40 -79 64 -132 59 -39 -5 -43 -3 -58 26 -8 17
-18 48 -22 69 -5 29 -15 44 -47 67 -35 26 -50 30 -103 30 -41 0 -75 7 -103 20
-22 11 -50 20 -62 20 -12 0 -32 12 -45 28 -21 25 -31 28 -117 34 -137 10 -165
17 -183 45 -29 43 -74 63 -144 63 -50 0 -69 4 -85 19 -26 24 -149 71 -185 71
-14 -1 -39 -8 -56 -17z m2235 -7213 c0 -5 -2 -10 -4 -10 -3 0 -8 5 -11 10 -3
6 -1 10 4 10 6 0 11 -4 11 -10z m89 -137 c0 -25 -1 -25 -8 -8 -5 11 -7 23 -4
28 8 14 13 7 12 -20z m198 -495 c-3 -7 -5 -2 -5 12 0 14 2 19 5 13 2 -7 2 -19
0 -25z m1810 -2480 c-3 -7 -5 -2 -5 12 0 14 2 19 5 13 2 -7 2 -19 0 -25z m522
-1892 c1 -67 -5 -55 -12 24 -4 42 -3 58 3 45 5 -11 9 -42 9 -69z"/>
<path d="M19705 12410 c3 -5 8 -10 11 -10 2 0 4 5 4 10 0 6 -5 10 -11 10 -5 0
-7 -4 -4 -10z"/>
<path d="M9685 6630 c-3 -5 -1 -10 4 -10 6 0 11 5 11 10 0 6 -2 10 -4 10 -3 0
-8 -4 -11 -10z"/>
<path d="M9680 6599 c0 -5 5 -7 10 -4 6 3 10 8 10 11 0 2 -4 4 -10 4 -5 0 -10
-5 -10 -11z"/>
</g>
</svg>
