<?xml version="1.0" standalone="no"?>
<!DOCTYPE svg PUBLIC "-//W3C//DTD SVG 20010904//EN"
 "http://www.w3.org/TR/2001/REC-SVG-20010904/DTD/svg10.dtd">
<svg version="1.0" xmlns="http://www.w3.org/2000/svg"
 width="1536.000000pt" height="1401.000000pt" viewBox="0 0 1536.000000 1401.000000"
 preserveAspectRatio="xMidYMid meet">
<metadata>
Created by potrace 1.16, written by Peter Selinger 2001-2019
</metadata>
<g transform="translate(0.000000,1401.000000) scale(0.100000,-0.100000)"
fill="#000000" stroke="none">
<path d="M3606 13942 c-49 -81 -66 -124 -66 -168 0 -30 -3 -35 -17 -29 -45 17
-170 45 -206 45 -22 0 -54 -9 -72 -20 -28 -17 -38 -19 -81 -9 -27 5 -148 13
-270 16 -182 5 -235 3 -302 -11 -76 -15 -104 -15 -419 1 -186 9 -444 17 -573
17 -215 1 -243 -1 -328 -22 -53 -14 -96 -30 -99 -38 -8 -23 5 -58 33 -89 l26
-28 -149 9 c-329 20 -423 8 -423 -51 0 -39 121 -119 244 -160 45 -15 62 -24
46 -25 -14 -1 -149 -5 -300 -10 -333 -11 -460 -34 -490 -90 -18 -34 -3 -57 61
-93 l60 -34 -63 -7 c-75 -7 -195 -39 -211 -55 -9 -9 -6 -23 11 -55 34 -64 78
-100 166 -139 l78 -35 -68 -11 c-82 -15 -132 -35 -140 -56 -4 -9 -1 -35 5 -57
11 -37 19 -43 86 -74 41 -19 110 -46 155 -61 l81 -27 -62 -23 c-115 -43 -159
-77 -159 -124 0 -66 185 -137 415 -159 61 -5 114 -10 118 -10 5 0 -6 -18 -23
-40 -82 -104 -25 -201 138 -235 48 -10 130 -15 239 -15 l165 0 -50 -39 c-76
-60 -92 -86 -92 -144 0 -46 4 -54 40 -88 45 -43 52 -45 161 -54 l77 -6 -24
-24 c-28 -28 -29 -36 -9 -75 26 -50 127 -97 233 -109 l53 -6 -77 -50 c-85 -55
-124 -103 -124 -151 0 -28 5 -34 40 -48 22 -9 71 -21 109 -27 l69 -12 -71 -51
c-80 -57 -90 -80 -58 -132 22 -35 101 -77 179 -95 l49 -12 -34 -30 c-65 -57
-79 -117 -43 -188 17 -32 28 -41 65 -51 25 -7 45 -16 45 -20 0 -4 -9 -22 -20
-40 -30 -49 -26 -81 15 -117 20 -17 45 -31 56 -31 16 0 19 -4 14 -17 -36 -95
-47 -249 -19 -277 20 -20 74 -20 121 -1 19 8 37 15 38 15 2 0 4 -49 7 -109 4
-136 16 -156 91 -148 26 2 55 11 65 21 20 17 32 12 32 -14 0 -22 31 -50 56
-50 10 0 43 11 72 25 30 14 56 25 58 25 3 0 -2 -12 -10 -27 -25 -50 -29 -89
-10 -108 24 -23 58 -15 141 36 37 23 72 44 76 46 5 3 8 -10 7 -28 -4 -72 -2
-79 28 -79 23 0 62 14 161 57 11 5 11 2 2 -15 -6 -11 -11 -34 -11 -51 0 -65
63 -84 179 -53 42 11 82 22 90 24 9 2 18 -10 24 -30 15 -49 48 -67 125 -67 63
0 64 0 82 -36 11 -20 30 -43 44 -52 13 -9 27 -29 30 -45 11 -50 42 -89 75 -95
17 -4 31 -12 31 -18 0 -18 70 -92 99 -106 14 -7 39 -12 55 -13 24 0 27 -3 23
-23 -8 -29 -1 -38 56 -71 34 -19 69 -30 115 -34 l67 -7 5 -52 c4 -36 12 -57
25 -68 29 -22 60 -28 83 -16 34 18 42 13 42 -28 0 -42 46 -113 99 -150 39 -28
49 -27 88 11 l34 33 -7 -81 -7 -82 43 -46 c36 -39 48 -46 80 -46 21 0 57 7 81
15 29 11 45 12 47 5 9 -25 85 -112 108 -122 46 -21 234 41 319 106 l31 24 13
-30 c18 -40 66 -68 119 -68 35 0 63 13 163 73 152 91 354 268 538 472 57 64
71 74 65 52 -3 -15 -1 -33 4 -40 7 -8 7 -18 2 -27 -22 -35 -9 -67 24 -61 5 1
5 -6 1 -16 -16 -40 -26 -83 -45 -193 -18 -105 -19 -128 -8 -283 10 -133 9
-179 -1 -225 -6 -31 -23 -113 -36 -182 -13 -69 -36 -156 -50 -193 -39 -106
-29 -206 28 -264 35 -37 62 -41 110 -17 65 34 99 70 204 213 58 80 127 171
153 201 25 30 78 98 118 151 40 53 109 132 155 175 89 86 230 253 261 311 16
29 20 60 22 182 3 212 24 297 97 393 31 40 73 93 94 117 33 38 35 44 15 39
-33 -9 -18 6 28 27 31 14 39 22 34 37 -4 15 0 18 25 18 16 0 42 10 58 24 15
13 45 29 65 35 29 10 37 18 40 39 3 25 6 27 43 23 52 -4 66 -15 125 -99 49
-70 70 -87 70 -58 0 35 23 22 66 -36 64 -87 90 -102 79 -45 l-6 32 41 -45 c23
-25 50 -62 61 -82 13 -25 29 -40 47 -44 15 -4 43 -25 64 -48 28 -31 39 -38 48
-29 21 20 70 -40 70 -85 0 -20 2 -73 4 -118 5 -78 4 -82 -25 -117 -16 -19 -42
-38 -57 -42 -41 -9 -76 -40 -77 -69 -1 -14 -12 -33 -24 -43 -12 -10 -26 -34
-30 -53 -6 -30 -13 -37 -49 -48 -23 -8 -42 -18 -42 -23 0 -5 -13 -15 -30 -24
-16 -9 -30 -22 -30 -30 0 -10 -11 -15 -34 -15 -24 0 -39 -7 -49 -20 -11 -16
-30 -22 -83 -27 -74 -6 -94 -15 -94 -43 0 -13 -18 -27 -54 -43 -32 -15 -57
-33 -61 -46 -3 -12 -18 -23 -33 -27 -135 -29 -198 -62 -190 -101 3 -15 12 -18
51 -16 26 1 47 0 47 -3 0 -2 -24 -15 -53 -29 -65 -30 -89 -65 -63 -94 11 -12
14 -21 7 -26 -17 -10 -13 -52 6 -59 15 -6 12 -12 -20 -42 -39 -37 -47 -68 -21
-78 12 -5 5 -16 -36 -53 -41 -37 -50 -51 -46 -69 4 -15 -2 -35 -19 -60 -14
-20 -25 -41 -25 -46 0 -18 33 -20 66 -4 55 26 61 19 15 -20 -39 -34 -42 -40
-36 -71 4 -22 1 -40 -10 -55 -23 -34 -19 -75 10 -94 19 -12 23 -22 19 -40 -4
-15 1 -32 15 -50 12 -15 21 -37 21 -49 0 -30 20 -45 45 -34 47 19 48 -4 2 -49
-29 -28 -34 -40 -35 -82 -1 -41 5 -56 32 -92 l34 -44 -39 -32 c-42 -35 -51
-71 -21 -79 13 -3 19 -14 19 -34 0 -37 33 -83 62 -87 12 -2 21 -7 19 -10 -48
-89 -45 -117 11 -109 30 4 40 1 50 -15 11 -18 9 -24 -17 -52 -81 -85 -106
-160 -56 -172 14 -4 36 -1 48 6 13 6 32 10 44 8 18 -3 10 -15 -54 -83 -62 -67
-74 -85 -72 -110 3 -29 5 -30 49 -29 31 0 56 7 78 23 32 23 54 21 36 -3 -52
-70 -68 -101 -73 -141 -4 -43 -3 -46 25 -56 29 -10 30 -11 22 -52 -15 -78 -11
-152 10 -179 16 -20 20 -44 22 -129 3 -100 2 -107 -35 -199 -42 -105 -44 -157
-7 -208 16 -24 17 -33 8 -79 -7 -36 -8 -65 0 -96 9 -41 7 -50 -19 -98 -32 -62
-34 -78 -12 -125 16 -33 16 -36 -4 -57 -11 -12 -34 -48 -52 -80 l-33 -58 11
-122 c11 -138 18 -114 -87 -286 -58 -96 -71 -133 -71 -212 0 -31 -7 -78 -15
-105 -8 -27 -18 -81 -21 -121 -6 -63 -4 -76 15 -106 12 -20 27 -37 34 -40 8
-3 12 -38 12 -119 0 -105 2 -118 22 -140 21 -22 26 -56 34 -208 1 -14 -15 -78
-36 -144 -43 -139 -42 -171 9 -213 29 -25 34 -35 39 -90 3 -34 12 -76 21 -93
14 -30 14 -35 -3 -69 -34 -67 -91 -323 -97 -439 -7 -114 10 -218 42 -267 19
-29 72 -48 108 -39 20 5 27 2 32 -12 26 -84 85 -156 149 -185 l30 -14 5 -144
c5 -137 6 -144 30 -163 16 -13 35 -18 56 -16 l31 4 6 -81 c3 -44 14 -105 24
-135 15 -47 24 -58 58 -75 22 -11 42 -21 44 -22 2 -1 -6 -42 -18 -90 -43 -180
-17 -263 84 -263 35 0 36 0 29 -34 -9 -53 4 -91 50 -140 36 -39 48 -46 81 -46
23 0 55 10 80 25 23 13 45 21 49 18 3 -3 6 -38 6 -77 0 -99 14 -143 53 -166
18 -11 41 -20 51 -20 40 0 108 43 144 91 21 26 40 48 44 48 4 1 26 -28 49 -64
48 -76 118 -135 161 -135 56 0 125 45 140 92 2 6 27 -5 58 -27 68 -48 117 -68
146 -61 28 7 67 58 84 109 6 20 15 37 18 37 4 0 20 -14 36 -31 76 -77 157 -42
186 79 6 26 15 63 20 82 4 19 14 63 21 96 l12 62 33 -14 c48 -20 79 -17 112
11 34 29 112 172 112 207 0 54 10 66 57 73 56 8 88 38 103 96 18 66 7 134 -45
265 -26 65 -62 162 -80 215 l-32 96 29 24 c36 30 52 89 37 139 -6 19 -38 75
-71 125 -48 72 -58 92 -49 105 22 30 41 80 41 108 0 17 -11 60 -25 96 -34 90
-33 96 14 96 48 0 87 29 100 76 8 28 6 50 -9 97 -29 97 -52 198 -47 203 3 3
14 1 25 -5 53 -28 112 7 112 67 0 66 -188 369 -297 478 l-58 58 38 9 c55 13
73 44 58 103 -20 80 -67 167 -125 234 -51 59 -102 149 -155 273 -19 45 -19 48
-3 53 9 3 32 12 51 20 33 14 33 16 27 62 -4 28 -38 110 -83 202 -42 85 -84
174 -94 198 -11 24 -34 62 -53 85 -27 33 -32 46 -25 60 17 29 -15 77 -141 218
-65 72 -142 168 -170 213 -28 44 -78 122 -110 173 -39 61 -73 102 -102 122
-107 75 -132 109 -143 197 -6 47 25 308 38 321 8 7 63 -15 77 -31 7 -9 -1 -25
-30 -57 -73 -81 -76 -128 -13 -221 96 -142 174 -204 292 -233 83 -20 134 -51
321 -197 199 -154 240 -207 240 -304 0 -16 4 -34 9 -40 8 -8 4 -71 -15 -205
-13 -91 40 -204 105 -227 l29 -10 -30 42 c-55 79 -48 216 12 216 10 0 31 15
46 34 l28 34 18 -24 c11 -13 31 -29 45 -36 18 -9 32 -28 42 -60 9 -26 33 -64
54 -86 20 -21 37 -46 37 -57 0 -30 59 -119 96 -144 19 -13 34 -30 34 -38 0 -8
11 -25 25 -39 14 -14 25 -32 25 -41 0 -23 46 -88 76 -107 18 -12 29 -13 50 -6
32 13 50 1 59 -40 8 -38 -15 -89 -67 -146 l-43 -48 64 35 c56 31 69 43 99 97
l33 61 43 -5 c27 -4 46 -2 50 5 4 6 21 11 38 11 41 0 103 -64 118 -122 11 -38
9 -46 -22 -110 -19 -37 -31 -68 -27 -68 4 0 23 19 43 41 69 81 85 188 41 275
-14 28 -35 60 -48 71 -46 42 -130 93 -153 93 -22 0 -24 4 -24 50 0 30 -10 75
-26 115 -22 55 -35 72 -83 108 -90 67 -225 212 -279 300 -88 142 -129 181
-257 241 -83 40 -119 62 -139 89 -15 20 -62 62 -104 94 -177 133 -274 218
-363 314 -91 99 -92 101 -50 80 37 -19 47 -21 66 -11 13 7 28 9 35 5 6 -4 19
0 29 9 14 13 24 14 45 6 39 -15 92 -12 106 5 8 9 21 13 36 9 19 -5 26 -1 35
20 7 14 20 28 30 31 10 3 21 15 24 26 5 14 15 19 39 19 21 0 40 8 52 21 10 12
31 27 46 35 17 9 28 23 28 34 0 16 5 19 23 15 27 -7 43 8 49 45 2 20 9 25 33
25 40 0 55 11 55 41 0 17 5 24 19 24 12 0 25 11 33 27 7 15 24 30 38 33 18 4
26 14 28 33 2 15 13 32 25 39 39 20 87 80 87 108 0 15 9 35 20 45 11 10 20 24
20 32 0 7 8 13 19 13 24 0 38 18 43 55 3 27 7 30 40 33 31 3 38 8 47 34 6 17
11 39 11 50 0 15 3 16 19 6 15 -9 23 -9 35 1 9 8 16 20 16 27 0 8 5 14 10 14
6 0 10 -4 10 -10 0 -5 4 -10 9 -10 12 0 28 45 37 100 8 58 11 62 36 49 27 -14
41 3 65 78 9 29 22 53 28 53 12 0 24 20 50 85 9 21 25 47 35 57 21 20 26 58
10 87 -8 16 -5 18 26 16 19 -1 43 -10 53 -19 22 -20 45 -20 76 0 22 14 23 14
18 -5 -15 -57 69 -170 159 -215 43 -22 66 -26 134 -26 94 0 280 -47 501 -126
176 -63 318 -111 378 -127 47 -12 50 -15 57 -54 4 -23 12 -52 18 -63 21 -39
82 -100 100 -100 9 0 24 -8 33 -17 19 -22 67 -130 67 -152 0 -9 5 -23 11 -31
12 -18 7 142 -6 175 -5 11 17 -8 48 -41 38 -42 66 -63 88 -68 22 -4 65 -38
143 -114 167 -163 229 -197 282 -157 42 32 95 13 133 -49 27 -44 26 -89 -4
-153 -13 -29 -20 -53 -16 -53 15 0 90 88 97 114 7 30 1 124 -10 148 -6 14 -1
18 29 24 22 4 42 16 52 30 8 14 25 24 38 24 26 0 92 -49 117 -88 25 -39 38
-110 28 -162 -4 -25 -7 -47 -5 -48 9 -10 56 80 66 127 14 68 2 112 -46 169
-59 68 -86 82 -201 103 -58 10 -110 21 -115 25 -6 3 -39 33 -74 66 -66 63
-129 104 -250 162 -104 51 -261 141 -335 194 -148 104 -191 132 -203 132 -7 0
-21 6 -32 14 -11 7 -45 19 -75 26 -30 7 -68 16 -85 20 -50 13 -525 209 -595
246 -36 19 -80 47 -99 63 -30 25 -33 31 -24 57 9 27 14 29 59 29 59 1 74 9 74
40 0 31 17 75 29 75 5 0 13 -9 16 -20 3 -11 15 -20 26 -20 15 0 19 7 19 39 0
22 6 44 15 51 8 7 15 21 15 31 0 15 5 17 30 13 25 -5 31 -2 41 19 6 14 21 27
32 29 25 4 40 55 31 106 -5 30 -3 33 14 28 18 -6 21 -1 25 41 3 26 5 57 6 68
0 90 9 246 16 272 4 18 14 38 21 44 21 17 17 68 -12 128 -22 48 -23 56 -9 63
13 8 15 25 11 103 -2 51 -7 98 -11 104 -3 6 -1 11 4 11 18 0 12 35 -14 84
l-25 46 27 -6 c26 -7 26 -6 20 32 -4 21 -22 61 -41 88 -25 36 -32 54 -26 66 6
11 4 25 -7 40 -10 13 -16 39 -15 58 2 22 -6 50 -23 78 l-26 44 25 0 c36 0 40
14 17 59 -14 26 -47 58 -97 95 -42 31 -80 56 -85 56 -13 0 -80 105 -70 108 25
8 114 -53 172 -118 34 -39 92 -92 128 -117 36 -26 88 -68 116 -93 28 -25 73
-61 100 -80 27 -19 78 -56 114 -83 69 -50 128 -71 223 -83 77 -8 108 0 108 29
0 13 -5 28 -12 35 -17 17 -3 26 20 13 27 -14 130 -14 171 0 33 12 48 42 36 78
-8 27 -7 26 60 -6 50 -25 59 -26 97 -16 99 27 101 28 95 81 -2 26 -8 55 -12
64 -6 16 -3 17 24 12 17 -4 55 -3 86 1 44 5 59 12 72 32 23 35 21 114 -4 179
l-20 51 61 -25 c80 -32 176 -41 199 -18 24 24 22 40 -19 131 -19 44 -38 85
-40 92 -4 8 5 9 33 2 59 -13 126 -11 151 7 45 31 46 47 2 134 -22 44 -40 81
-40 82 0 2 32 3 71 3 63 0 73 3 91 25 17 21 20 35 15 90 -2 36 -14 86 -25 113
-12 26 -17 47 -12 47 5 0 12 -5 16 -11 12 -19 147 -79 179 -79 57 1 87 47 100
150 5 45 2 67 -19 123 -14 37 -26 70 -26 72 0 3 17 5 38 6 20 0 62 6 92 12 45
10 57 17 74 46 17 30 18 39 7 80 -7 25 -25 63 -42 83 -16 20 -29 39 -29 42 0
3 36 6 79 6 111 0 258 47 319 103 26 24 27 41 8 79 -16 29 -7 38 37 38 34 0
124 46 136 69 6 11 11 36 11 56 0 30 3 35 18 32 100 -28 186 -12 237 44 42 46
51 80 38 131 -10 37 -10 38 16 30 45 -12 222 -6 304 11 112 24 217 96 217 149
0 29 -19 53 -75 95 l-30 22 100 1 c116 1 198 11 349 45 148 33 180 50 184 95
4 53 -43 114 -116 146 -31 14 -73 33 -92 42 l-35 16 57 13 c31 7 99 19 151 27
114 17 213 62 223 101 14 57 -53 92 -233 125 -68 12 -123 25 -123 29 1 3 33
21 73 39 105 48 210 114 223 140 6 12 9 33 6 47 -5 28 -37 41 -127 53 l-60 8
35 18 c81 42 93 79 33 95 -155 39 -408 82 -511 88 l-93 6 38 21 c36 20 92 101
93 134 0 35 -197 72 -383 72 l-109 0 21 34 c44 70 23 92 -121 126 -99 23 -504
64 -568 57 -54 -6 -332 26 -415 47 -32 9 -73 16 -90 16 -17 0 -63 16 -101 34
-39 19 -104 46 -145 59 -76 25 -357 90 -441 102 -30 5 -54 16 -69 31 -23 25
-107 55 -187 69 -38 6 -42 9 -35 28 23 63 -4 206 -42 220 -10 4 -9 -1 2 -24 8
-16 15 -54 16 -84 1 -51 -2 -58 -36 -92 -30 -31 -46 -38 -94 -44 -105 -13
-170 -10 -223 11 -64 25 -92 25 -158 0 -28 -11 -76 -22 -106 -24 l-54 -4 15
42 c25 71 2 141 -58 172 l-31 16 32 -40 c46 -58 46 -105 0 -144 -44 -36 -74
-44 -115 -29 -17 6 -45 11 -62 11 -33 0 -234 -85 -293 -124 -37 -24 -162 -49
-305 -60 -108 -9 -237 -40 -406 -99 -164 -58 -239 -76 -239 -58 0 6 15 18 33
27 17 10 66 40 107 68 41 29 131 76 200 105 252 108 323 159 353 252 36 110
16 176 -70 242 -53 39 -67 33 -23 -11 51 -50 66 -105 42 -150 -10 -19 -37 -49
-61 -66 -39 -28 -51 -31 -122 -33 -46 -1 -87 -8 -98 -15 -10 -7 -41 -41 -69
-75 -36 -43 -72 -73 -119 -99 -38 -20 -90 -51 -118 -70 -27 -18 -103 -57 -167
-87 -125 -59 -340 -199 -398 -258 -19 -20 -61 -86 -92 -145 -47 -90 -61 -109
-80 -109 -13 -1 -33 -4 -45 -8 -20 -7 -22 -6 -16 27 6 41 -9 66 -39 66 -17 0
-19 4 -14 27 8 29 -5 43 -41 43 -17 0 -22 7 -25 32 -2 24 -10 36 -31 46 -38
18 -52 56 -32 85 17 24 20 57 6 57 -5 0 -11 -6 -13 -12 -3 -7 -21 -13 -40 -13
-33 0 -37 3 -47 37 -12 38 -35 53 -65 42 -22 -8 -86 49 -111 100 -14 28 -29
42 -49 48 -35 9 -66 40 -66 67 0 21 -83 83 -138 102 -27 9 -30 13 -20 29 6 9
8 25 4 35 -5 14 -14 16 -46 11 -32 -5 -44 -2 -60 14 -16 16 -25 18 -45 10 -37
-14 -40 -13 -53 15 -6 14 -18 25 -27 25 -8 0 -21 14 -30 30 -17 34 -48 39 -93
16 -34 -17 -146 0 -138 21 13 32 -31 21 -80 -20 -13 -11 -24 -14 -28 -9 -11
19 -47 -1 -84 -46 -25 -31 -56 -54 -97 -72 -35 -16 -69 -39 -79 -54 -28 -44
-54 -66 -77 -66 -26 0 -116 -79 -145 -126 -23 -38 -110 -116 -155 -140 -16 -8
-29 -19 -29 -24 0 -5 -19 -14 -42 -20 -24 -6 -67 -22 -96 -35 -29 -14 -62 -25
-73 -25 -11 0 -38 -9 -61 -21 -39 -20 -43 -20 -75 -5 -48 23 -62 20 -76 -13
-12 -27 -14 -28 -37 -15 -33 18 -75 18 -90 -1 -8 -9 -21 -13 -32 -9 -11 3 -27
-1 -36 -9 -25 -22 -175 -97 -194 -97 -8 0 -32 -15 -51 -33 -34 -31 -36 -35
-33 -92 1 -33 6 -68 11 -79 5 -12 2 -28 -8 -45 -10 -18 -15 -45 -13 -75 2 -34
-3 -54 -16 -71 -10 -13 -18 -27 -18 -32 0 -5 -18 -20 -41 -33 -81 -50 -89 -59
-89 -100 0 -29 -5 -42 -20 -50 -14 -7 -20 -21 -20 -43 0 -21 -7 -36 -20 -45
-24 -15 -26 -47 -4 -69 27 -28 0 -38 -50 -19 -65 25 -94 52 -106 97 -14 50
-12 503 2 538 6 15 12 62 13 106 2 44 6 104 9 134 3 29 2 81 -4 115 -9 60 -11
63 -102 151 -54 53 -145 126 -218 175 -231 155 -375 278 -436 370 -23 36 -53
75 -67 88 -23 22 -28 23 -66 11 -41 -12 -42 -12 -76 21 -18 18 -43 55 -55 82
-20 47 -20 51 -5 111 11 44 24 70 45 90 34 30 24 35 -26 11 -46 -22 -100 -85
-113 -131 -16 -57 -13 -133 8 -178 31 -69 165 -174 222 -175 17 0 155 -137
146 -146 -11 -11 -118 49 -138 78 -16 22 -56 47 -138 85 -64 30 -118 58 -121
62 -3 5 -16 14 -29 21 -13 6 -44 27 -68 46 -25 19 -51 34 -59 34 -8 0 -36 20
-63 45 -40 37 -50 54 -60 101 -8 34 -23 67 -38 82 -25 25 -38 26 -131 6 -38
-7 -66 12 -77 53 -9 38 11 77 53 102 l37 22 -40 -6 c-57 -9 -94 -34 -119 -80
-11 -22 -22 -42 -23 -44 -2 -2 -11 3 -20 12 -10 8 -30 19 -45 22 -21 5 -28 13
-28 30 0 14 -13 34 -31 49 -25 21 -41 26 -85 26 -30 0 -71 -7 -91 -15 -34 -14
-41 -14 -101 6 -91 30 -120 60 -132 133 -10 63 -7 87 16 150 22 59 10 54 -30
-12z"/>
</g>
</svg>
