<?xml version="1.0" standalone="no"?>
<!DOCTYPE svg PUBLIC "-//W3C//DTD SVG 20010904//EN"
 "http://www.w3.org/TR/2001/REC-SVG-20010904/DTD/svg10.dtd">
<svg version="1.0" xmlns="http://www.w3.org/2000/svg"
 width="4320.000000pt" height="1295.000000pt" viewBox="0 0 4320.000000 1295.000000"
 preserveAspectRatio="xMidYMid meet">
<metadata>
Created by potrace 1.16, written by Peter Selinger 2001-2019
</metadata>
<g transform="translate(0.000000,1295.000000) scale(0.100000,-0.100000)"
fill="#000000" stroke="none">
<path d="M24540 12920 c0 -11 16 -30 38 -45 l37 -26 -35 5 c-19 3 -91 8 -160
11 -69 3 -249 17 -400 31 -151 13 -327 27 -390 30 -101 5 -113 4 -97 -9 9 -8
17 -19 17 -25 0 -14 46 -38 114 -62 l51 -17 -60 -6 c-198 -21 -367 -29 -389
-19 -15 7 -60 7 -142 1 -65 -6 -278 -9 -472 -7 -302 3 -354 1 -362 -12 -5 -8
-12 -11 -16 -8 -4 4 -14 3 -24 -2 -30 -16 -896 -37 -1125 -27 -16 0 -129 -4
-250 -11 -121 -7 -417 -17 -658 -22 -666 -15 -783 -19 -902 -30 -60 -5 -171
-14 -245 -20 -74 -5 -228 -19 -342 -30 -114 -11 -218 -18 -230 -15 -13 3 -61
1 -108 -4 -47 -6 -260 -17 -475 -26 -214 -8 -451 -19 -525 -25 -74 -5 -196
-14 -270 -20 -74 -5 -232 -25 -350 -44 -285 -46 -435 -66 -492 -66 -26 0 -110
-7 -185 -15 -76 -8 -235 -24 -353 -35 -118 -12 -296 -34 -395 -49 -189 -30
-365 -51 -500 -57 -44 -3 -183 -22 -310 -44 -400 -69 -477 -80 -620 -91 -77
-5 -212 -21 -300 -35 -181 -29 -405 -56 -640 -79 -300 -29 -517 -55 -534 -64
-14 -8 -136 -23 -471 -58 -30 -3 -60 -9 -66 -14 -20 -16 -155 -39 -227 -39
-40 0 -119 -4 -177 -10 -58 -5 -159 -14 -225 -20 -147 -13 -338 -35 -425 -49
-36 -5 -137 -17 -225 -26 -88 -8 -189 -22 -225 -30 -36 -8 -166 -21 -290 -30
-124 -9 -286 -22 -360 -30 -172 -18 -312 -29 -324 -26 -5 1 -70 -5 -145 -13
-75 -9 -390 -25 -701 -37 -875 -32 -1937 -17 -2633 36 -176 14 -322 23 -326
20 -10 -6 -503 33 -566 45 -64 12 -203 27 -380 40 -77 6 -165 15 -195 21 -30
5 -125 16 -210 24 -187 18 -281 29 -420 50 -58 8 -208 28 -335 45 -126 17
-250 37 -275 45 -25 8 -81 20 -125 26 -196 27 -812 161 -960 209 -56 18 -244
67 -430 112 -117 28 -208 58 -610 198 -27 10 -96 36 -153 59 -56 22 -107 41
-113 41 -16 0 -209 85 -354 155 -247 120 -260 125 -340 125 -72 0 -107 -11
-138 -42 -21 -21 -22 -42 -2 -58 8 -7 13 -16 10 -20 -3 -4 8 -16 23 -26 15 -9
50 -36 77 -59 74 -63 213 -155 274 -182 30 -13 74 -38 98 -55 25 -16 88 -50
141 -75 176 -81 196 -90 334 -157 75 -37 165 -77 200 -91 58 -22 156 -64 375
-158 44 -20 195 -74 335 -121 139 -47 296 -102 348 -122 245 -93 531 -190 690
-235 96 -27 276 -78 400 -114 124 -37 311 -88 415 -115 105 -28 264 -73 355
-101 91 -28 248 -66 350 -86 167 -32 680 -153 920 -216 52 -14 203 -46 335
-72 132 -25 267 -52 300 -60 75 -19 237 -51 330 -65 92 -14 247 -43 365 -68
52 -11 127 -25 165 -31 39 -6 133 -22 210 -35 77 -14 205 -32 285 -40 80 -9
177 -20 215 -25 86 -12 570 -57 760 -71 77 -6 192 -17 255 -25 63 -8 185 -19
270 -25 85 -5 254 -21 375 -35 121 -14 263 -30 315 -35 52 -5 121 -14 154 -20
88 -14 610 -39 961 -45 171 -3 333 -7 360 -10 28 -3 210 -14 405 -25 195 -11
425 -27 510 -35 85 -8 164 -12 175 -9 12 3 174 -4 360 -15 1037 -63 1403 -80
2045 -91 492 -9 640 -15 990 -40 69 -5 244 -16 390 -25 146 -8 335 -21 421
-27 86 -6 188 -8 225 -5 38 3 114 2 169 -4 55 -5 242 -18 415 -29 731 -45
1575 -173 2240 -340 624 -158 1091 -321 1865 -650 88 -38 174 -72 190 -76 17
-4 39 -13 51 -20 11 -8 44 -18 73 -24 41 -8 62 -19 95 -51 28 -27 99 -69 221
-130 99 -50 204 -109 233 -131 28 -22 112 -102 185 -177 72 -75 168 -170 212
-212 44 -41 101 -98 128 -127 26 -28 75 -70 108 -93 l60 -41 -58 -34 c-32 -20
-76 -53 -98 -74 -108 -104 -233 -192 -388 -270 -88 -44 -165 -80 -172 -80 -7
0 -23 -8 -36 -19 -13 -10 -55 -28 -94 -40 -38 -12 -86 -27 -105 -33 -112 -36
-160 -40 -465 -45 -243 -4 -351 -1 -495 12 -102 9 -233 18 -293 19 -59 2 -110
6 -114 9 -10 11 -98 8 -109 -3 -6 -6 -25 -5 -53 2 -56 14 -141 -11 -185 -54
-25 -25 -38 -30 -85 -32 -67 -2 -169 -48 -231 -106 -34 -32 -40 -42 -34 -64 5
-20 2 -26 -11 -26 -23 0 -39 -18 -80 -92 -39 -71 -42 -93 -20 -125 14 -20 14
-23 -5 -36 -38 -27 -63 -129 -89 -372 -17 -151 -60 -349 -113 -518 -28 -89
-54 -167 -59 -173 -5 -6 -20 -44 -34 -84 -30 -87 -172 -306 -239 -368 -45 -42
-46 -42 -125 -42 -72 0 -86 -3 -158 -40 -66 -33 -97 -58 -191 -154 -82 -83
-121 -116 -144 -121 -47 -10 -105 -41 -170 -91 -31 -24 -66 -44 -78 -44 -36 0
-182 -81 -235 -130 -36 -34 -69 -53 -120 -70 -38 -12 -77 -29 -85 -35 -8 -7
-35 -23 -58 -35 -86 -43 -266 -239 -247 -269 3 -6 1 -20 -5 -31 -9 -16 -7 -28
5 -52 14 -29 14 -33 -1 -49 -9 -10 -37 -28 -63 -40 -71 -34 -182 -101 -178
-108 2 -3 9 -21 17 -40 l13 -34 86 7 c47 3 111 13 141 21 30 8 97 23 147 34
51 11 123 36 160 54 38 19 73 32 80 30 18 -7 144 61 217 117 111 85 306 186
536 278 8 3 1 -12 -16 -33 -45 -57 -64 -99 -64 -140 0 -30 -3 -35 -23 -35 -78
0 -317 -409 -317 -543 0 -36 -4 -44 -29 -59 -21 -11 -41 -40 -66 -95 -58 -122
-127 -331 -129 -390 -1 -36 -8 -59 -22 -75 -37 -41 -74 -154 -120 -367 -16
-75 9 -280 40 -320 23 -30 90 -71 118 -71 27 0 28 -1 28 -52 0 -53 -32 -183
-65 -269 -17 -43 -17 -47 0 -82 14 -29 23 -37 44 -37 86 0 260 152 325 284 47
97 74 181 88 273 6 43 17 88 25 100 8 12 29 80 48 151 18 71 47 156 63 188 16
33 32 72 36 88 l7 30 17 -26 c49 -73 105 -92 186 -63 l39 14 -7 -53 c-3 -29
-18 -93 -32 -142 -35 -118 -35 -123 4 -139 32 -14 34 -14 78 27 43 39 117 156
117 184 0 7 4 11 8 8 22 -13 61 237 58 367 -2 74 3 133 18 204 57 274 151 437
347 603 50 42 96 82 101 88 6 6 28 24 50 40 35 26 45 29 80 23 28 -5 45 -3 56
7 8 8 25 14 35 14 26 0 61 38 107 115 33 56 40 80 87 340 60 329 89 446 163
655 63 175 216 486 295 600 173 248 197 273 317 329 50 23 108 46 130 51 22 4
90 20 150 34 260 60 701 64 1095 11 58 -8 155 -19 215 -26 61 -6 198 -33 305
-59 107 -27 218 -51 245 -55 52 -6 156 -30 510 -114 247 -58 416 -92 615 -123
125 -19 185 -22 436 -22 237 -1 295 2 309 14 10 8 34 13 64 11 27 -1 77 5 112
14 35 9 73 19 84 21 11 2 21 8 23 14 2 5 18 10 37 10 18 0 38 7 45 15 7 9 26
15 44 14 17 -2 42 1 54 5 20 7 23 5 18 -11 -31 -104 -55 -295 -66 -533 -6
-124 -15 -250 -20 -280 -5 -30 -12 -80 -16 -110 -6 -54 -57 -206 -136 -410
-22 -58 -102 -229 -178 -380 -122 -243 -175 -334 -264 -457 -13 -18 -27 -49
-31 -69 -4 -22 -19 -49 -40 -68 -39 -37 -90 -179 -74 -208 7 -13 4 -26 -8 -45
-15 -22 -18 -49 -18 -154 0 -116 2 -129 21 -151 16 -17 20 -32 17 -60 -7 -56
15 -134 48 -169 16 -17 29 -39 29 -49 0 -11 17 -39 39 -63 43 -51 161 -212
161 -221 0 -4 42 -59 93 -124 51 -64 115 -148 142 -187 27 -38 89 -122 138
-185 48 -63 118 -161 155 -217 37 -56 85 -130 107 -163 71 -108 86 -145 89
-223 1 -40 9 -83 16 -97 9 -15 13 -47 11 -82 -2 -41 2 -65 15 -87 14 -24 15
-33 5 -45 -7 -8 -14 -49 -15 -92 l-3 -78 -58 -53 c-32 -29 -71 -58 -86 -65
-16 -7 -31 -18 -34 -25 -6 -16 83 -18 134 -3 19 5 36 8 38 6 2 -1 8 -38 13
-82 18 -145 48 -213 106 -242 19 -10 21 -18 17 -56 -4 -33 1 -57 19 -98 27
-56 115 -168 133 -168 7 0 22 -11 35 -25 l23 -25 1343 0 1342 0 27 32 c19 22
26 40 23 60 -5 31 0 33 54 18 34 -10 141 -69 162 -90 14 -14 69 -12 91 3 15
11 17 23 12 63 -5 44 -11 54 -69 109 -159 149 -353 209 -713 220 -483 15 -624
30 -807 86 -280 86 -427 213 -523 451 -23 57 -23 57 -3 75 35 32 49 69 42 115
-10 61 -25 87 -101 171 -88 96 -171 191 -197 225 -11 15 -58 68 -104 117 -46
50 -90 103 -98 118 -8 15 -58 87 -111 159 -53 72 -118 169 -144 215 -27 47
-76 126 -109 177 -105 162 -207 402 -209 489 0 21 -5 54 -10 75 -5 20 -13 77
-17 125 -5 76 -4 90 11 107 13 15 16 29 12 57 -5 27 2 67 23 137 17 55 30 110
30 122 0 44 47 153 126 291 143 251 274 418 480 611 90 85 450 357 632 477 39
26 72 51 72 55 0 9 182 145 280 210 129 85 237 181 383 335 81 86 160 175 174
196 29 45 32 45 153 24 101 -17 295 -36 400 -40 41 -1 130 -6 197 -10 l121 -8
-48 -24 c-58 -29 -197 -146 -212 -177 -5 -13 -28 -34 -50 -47 -51 -31 -131
-92 -185 -140 -23 -21 -74 -54 -115 -74 -59 -29 -174 -114 -198 -146 -3 -4
-34 -19 -70 -34 -112 -47 -210 -122 -210 -161 0 -8 -14 -26 -32 -41 -17 -16
-71 -64 -120 -108 -156 -140 -302 -334 -374 -499 -43 -97 -51 -126 -36 -126 4
0 52 48 107 107 102 109 367 347 483 435 47 36 67 46 77 38 31 -26 180 29 264
99 48 39 121 84 182 112 19 9 64 42 99 74 36 31 78 63 95 71 23 12 19 5 -23
-33 -52 -47 -132 -156 -132 -180 0 -7 -25 -24 -55 -38 -32 -16 -73 -47 -101
-78 -44 -49 -125 -166 -135 -195 -2 -7 -27 -29 -54 -50 -38 -28 -59 -54 -87
-112 -21 -41 -42 -80 -47 -86 -6 -8 -5 -19 4 -31 13 -19 9 -26 -41 -89 -30
-38 -67 -89 -81 -114 -14 -25 -38 -61 -53 -80 -14 -19 -36 -51 -47 -70 -34
-59 -191 -304 -203 -318 -21 -24 -169 -263 -175 -283 -19 -58 23 -27 195 142
69 68 168 171 219 229 52 58 136 150 187 205 50 55 116 129 146 164 29 36 76
78 103 94 67 39 110 81 154 148 39 61 249 299 320 364 81 73 152 149 233 250
45 55 85 102 90 104 19 7 -20 -54 -52 -83 -33 -28 -73 -108 -104 -203 -9 -28
-24 -54 -32 -57 -7 -3 -14 -10 -14 -17 0 -6 -14 -30 -31 -54 -31 -43 -41 -75
-59 -185 -5 -31 -20 -80 -34 -111 -22 -52 -37 -107 -86 -334 -27 -120 -43
-376 -37 -555 7 -201 64 -430 107 -430 4 0 10 56 13 125 7 131 22 240 63 465
43 233 88 395 166 597 37 96 42 104 87 133 61 40 86 85 116 206 16 65 32 105
48 123 31 34 77 113 77 134 0 9 30 51 66 94 36 43 80 107 99 143 18 36 65 112
105 170 39 58 92 135 116 172 40 61 224 270 329 374 36 36 48 42 104 48 35 4
65 5 68 2 3 -3 0 -19 -6 -37 -23 -65 -7 -107 28 -75 30 28 32 18 6 -34 -29
-57 -31 -73 -10 -90 13 -10 6 -23 -49 -84 -117 -131 -122 -187 -12 -141 l36
15 0 -40 c0 -37 -8 -84 -47 -290 -9 -47 -26 -108 -39 -137 -12 -28 -20 -53
-18 -56 4 -4 -27 -82 -98 -242 -27 -59 -52 -137 -62 -190 -27 -137 -50 -196
-146 -370 -48 -88 -103 -194 -122 -235 -19 -41 -60 -112 -90 -156 -31 -45 -86
-133 -123 -195 -37 -63 -85 -140 -106 -171 -22 -31 -43 -67 -48 -80 -5 -13
-39 -59 -75 -102 -36 -43 -66 -84 -66 -90 0 -6 -24 -58 -54 -116 -55 -107
-105 -232 -158 -395 -24 -72 -31 -114 -35 -210 -6 -132 0 -139 37 -45 30 78
173 350 230 440 27 41 65 91 85 110 30 29 41 34 74 31 46 -3 109 26 139 63 22
29 34 59 56 138 11 39 22 59 36 63 33 10 96 92 118 153 14 37 32 66 52 80 16
12 39 39 49 60 13 23 20 30 21 19 0 -10 -7 -32 -16 -49 -27 -52 -63 -167 -70
-222 -4 -28 -20 -78 -37 -111 -41 -82 -76 -178 -79 -216 -1 -17 -6 -33 -11
-36 -5 -3 -26 -42 -48 -86 -32 -67 -39 -91 -39 -143 0 -46 5 -68 20 -86 l19
-25 -33 -114 c-33 -114 -69 -281 -107 -504 -11 -66 -27 -158 -35 -205 -16 -95
-30 -330 -20 -330 11 0 65 126 101 235 19 55 39 114 44 130 6 17 42 125 80
240 98 300 160 455 181 455 39 0 104 119 119 220 7 41 18 81 25 90 41 46 84
168 103 288 3 18 14 37 24 43 10 5 27 26 38 47 24 49 68 205 77 273 4 32 16
69 31 91 14 21 27 38 28 38 1 0 -2 -26 -7 -58 -4 -31 -8 -109 -8 -172 0 -63
-3 -154 -6 -201 -5 -66 -3 -94 9 -120 9 -19 18 -52 21 -74 2 -22 9 -78 15
-125 6 -47 24 -143 41 -215 17 -71 39 -171 49 -220 11 -50 25 -103 31 -119 6
-16 13 -45 16 -65 10 -64 104 -313 150 -398 64 -118 78 -123 64 -23 -5 36 -12
91 -14 123 -3 32 -10 66 -15 76 -5 9 -17 66 -25 127 -9 60 -27 186 -40 279
-24 167 -61 515 -54 519 2 1 15 10 30 19 15 10 36 34 47 55 25 50 34 173 18
236 -11 43 -11 56 5 102 14 43 16 62 8 105 -12 64 -13 213 -1 237 15 31 29 86
36 147 4 33 13 75 20 95 7 19 16 47 19 63 4 15 18 53 32 83 14 31 32 93 40
137 45 244 101 475 146 602 28 77 57 167 66 199 11 44 17 54 22 40 11 -29 73
73 188 309 96 198 97 199 106 163 9 -38 28 -44 35 -10 2 10 16 33 31 51 15 17
37 60 49 95 26 78 51 200 44 211 -6 9 25 47 39 47 4 0 32 16 61 34 50 33 113
52 297 86 25 5 117 29 204 54 151 44 203 54 137 26 -17 -7 -36 -18 -42 -26 -9
-12 -5 -14 27 -14 22 0 61 7 89 15 44 14 50 14 58 0 11 -20 36 -19 99 5 29 11
57 20 62 20 14 0 -15 -30 -61 -61 -46 -32 -55 -49 -25 -49 25 0 187 55 284 95
43 18 78 30 78 25 0 -7 -53 -58 -140 -132 -43 -37 -43 -38 -16 -38 41 0 170
46 271 98 76 39 108 64 208 162 64 64 117 113 117 110 0 -9 -116 -178 -157
-228 -36 -45 -38 -69 -3 -37 11 10 20 15 20 11 0 -9 74 30 130 67 25 17 78 62
119 101 69 66 74 69 68 41 -21 -116 -38 -257 -33 -271 5 -13 9 -14 21 -4 8 7
15 20 15 30 0 9 14 34 30 55 17 21 54 76 82 122 28 46 53 82 55 80 6 -7 -36
-91 -62 -122 -35 -43 -15 -55 32 -20 21 16 92 74 158 130 178 149 197 163 308
219 94 48 309 126 384 140 26 4 31 3 26 -10 -5 -14 1 -15 48 -9 136 18 408 67
546 99 84 20 159 33 166 30 14 -5 93 21 176 58 98 44 228 90 262 94 20 2 78
19 130 37 52 19 103 38 114 42 14 5 12 1 -7 -15 -62 -49 -10 -68 79 -29 26 11
64 22 83 24 19 1 108 32 197 69 89 36 167 66 173 66 7 0 -1 -12 -18 -28 -16
-15 -33 -38 -37 -51 -12 -40 8 -45 66 -16 52 25 53 25 27 3 -16 -13 -28 -27
-28 -31 0 -9 93 37 132 65 16 11 40 21 55 24 35 5 72 13 98 21 16 4 18 3 8 -8
-16 -16 -17 -49 -3 -49 6 0 27 7 48 16 24 10 33 11 25 3 -7 -7 -13 -17 -13
-21 0 -18 42 -6 116 32 95 49 246 112 252 105 3 -2 -8 -12 -24 -20 -181 -100
-211 -122 -189 -144 11 -11 159 18 220 43 47 20 51 20 34 0 -20 -24 7 -36 66
-29 l50 5 -37 -31 c-62 -51 -47 -74 27 -43 20 8 40 13 43 10 3 -3 0 -6 -6 -6
-7 0 -12 -7 -12 -15 0 -27 32 -16 164 59 72 41 139 78 149 81 29 12 19 -11
-18 -39 -40 -31 -99 -112 -90 -125 12 -21 59 1 192 87 86 56 157 95 184 101
24 6 69 21 99 34 100 44 101 41 22 -40 -70 -71 -183 -236 -170 -248 3 -3 43
23 89 58 46 35 120 83 164 107 44 24 92 52 107 62 48 33 40 19 -26 -48 -70
-71 -136 -185 -136 -235 0 -34 4 -35 38 -8 36 27 151 99 159 99 4 0 -8 -16
-27 -35 -32 -33 -33 -35 -12 -35 25 0 97 34 107 50 3 5 10 10 15 10 5 0 -2
-24 -14 -52 -41 -93 -58 -212 -35 -235 9 -9 23 0 56 35 25 26 42 39 39 30 -13
-44 94 -1 223 89 66 46 85 51 51 15 -27 -28 -11 -28 60 1 69 28 139 76 208
141 l53 50 -30 -63 c-16 -34 -37 -71 -47 -82 -9 -10 -13 -19 -7 -19 14 0 71
46 174 140 51 47 90 81 88 75 -2 -5 -27 -55 -55 -110 -47 -91 -71 -130 -172
-276 -50 -74 -40 -94 32 -64 14 6 17 5 12 -3 -13 -21 20 -13 60 14 21 14 67
53 102 87 34 34 62 59 62 55 0 -3 -18 -37 -40 -76 -39 -67 -48 -92 -32 -92 12
0 110 77 221 173 85 74 117 111 180 205 72 110 76 114 79 83 8 -80 -53 -326
-84 -338 -9 -3 -12 -14 -8 -32 4 -14 8 -27 9 -29 8 -9 151 141 186 195 23 35
43 62 45 60 2 -1 -5 -27 -15 -57 -43 -125 -59 -180 -51 -180 8 0 154 183 209
263 18 26 47 80 65 120 18 39 38 83 45 97 22 47 3 -191 -25 -328 -15 -70 -27
-144 -28 -164 -1 -35 0 -36 16 -21 10 9 31 43 48 76 25 50 37 63 77 82 77 36
137 111 185 229 l29 71 -5 -65 c-4 -62 -4 -63 7 -27 14 43 29 40 20 -4 -3 -17
-1 -29 5 -29 18 0 42 79 49 158 l7 77 17 -58 c21 -69 41 -103 67 -109 18 -5
19 4 26 181 3 102 10 204 14 225 7 39 7 39 25 -40 23 -97 60 -177 94 -204 14
-11 29 -20 33 -20 4 0 6 46 3 103 l-4 102 76 146 c97 187 175 285 326 406 63
51 117 93 120 93 3 0 -5 -32 -19 -70 -14 -39 -22 -73 -20 -76 3 -3 30 19 59
49 101 100 221 165 345 187 97 17 364 87 379 100 10 9 183 13 637 15 767 4
798 8 880 105 36 42 68 122 68 171 0 16 9 43 20 61 32 53 53 169 48 261 -7
107 -59 232 -123 292 -54 51 -213 134 -333 174 -52 17 -155 56 -230 87 -75 31
-226 87 -334 124 -108 38 -205 73 -216 79 -11 6 -34 13 -52 16 -18 3 -72 21
-119 39 -104 40 -312 103 -476 145 -66 17 -158 42 -205 56 -82 25 -157 42
-305 70 -61 11 -253 84 -355 135 -23 11 -42 15 -56 10 -37 -14 -69 0 -89 38
-26 49 -160 188 -210 217 -53 32 -105 51 -87 34 6 -7 12 -17 12 -21 0 -5 -33
16 -73 47 -41 30 -77 55 -81 55 -4 0 -5 -9 -1 -20 6 -18 2 -17 -40 7 -25 14
-60 27 -77 28 -21 1 -50 20 -92 57 -94 84 -275 228 -286 228 -5 0 -16 16 -25
36 -14 35 -35 39 -35 6 0 -9 11 -43 24 -74 l24 -58 -27 19 c-47 34 -234 123
-340 163 -57 21 -120 47 -140 57 -44 23 -237 91 -257 91 -29 0 -12 -31 36 -67
27 -20 48 -38 47 -40 -2 -1 -32 7 -67 18 -156 49 -320 77 -452 78 -162 0 -179
-16 -56 -55 32 -10 56 -19 54 -21 -2 -3 -70 3 -151 12 -177 21 -554 18 -593
-4 -28 -15 -24 -21 20 -31 31 -7 30 -8 -17 -9 -258 -7 -486 -39 -300 -42 84
-1 219 -15 173 -18 -103 -5 -409 -96 -416 -123 -2 -10 -30 -29 -61 -43 -31
-14 -106 -55 -168 -91 -62 -36 -140 -76 -174 -90 -34 -14 -112 -50 -172 -80
-145 -73 -285 -129 -492 -198 -143 -47 -188 -57 -285 -66 -278 -24 -603 -3
-853 55 -187 43 -230 63 -407 183 -125 85 -207 158 -281 249 -46 56 -66 73
-83 71 -19 -3 -21 -9 -21 -76 l0 -74 -70 79 c-38 43 -115 125 -170 183 -55 58
-120 127 -143 155 -34 39 -45 46 -52 35 -10 -15 -18 -66 -22 -133 l-3 -38
-109 127 c-144 167 -260 288 -319 336 -52 41 -81 50 -70 21 14 -36 -21 4 -116
130 -54 73 -141 175 -195 227 -53 52 -123 127 -154 165 -73 91 -121 139 -130
130 -4 -4 -6 -36 -5 -71 2 -56 7 -86 30 -169 3 -11 -36 19 -88 71 -52 50 -116
108 -144 129 -27 22 -93 78 -146 125 -111 99 -249 200 -332 242 -90 45 -104
49 -117 33 -10 -12 0 -27 51 -81 35 -37 57 -63 49 -59 -8 5 -62 40 -120 78
-105 70 -232 137 -258 137 -8 0 -12 -6 -8 -15 4 -10 -1 -15 -14 -15 -25 0 -26
-24 -2 -58 35 -50 37 -56 17 -48 -10 4 -76 45 -147 92 -70 47 -132 83 -138 79
-19 -12 -10 -34 25 -55 19 -12 35 -26 35 -32 0 -11 -60 22 -200 107 -185 114
-589 296 -875 395 -125 43 -183 49 -105 12 54 -26 107 -68 99 -76 -4 -4 -40
11 -80 33 -41 23 -80 41 -86 41 -28 0 -10 -29 31 -51 25 -13 43 -25 42 -27 -2
-1 -57 13 -122 33 -131 40 -281 75 -319 75 -35 0 -31 -16 5 -23 16 -4 49 -21
72 -38 24 -17 34 -29 23 -26 -190 53 -537 127 -781 166 -168 27 -453 52 -507
45 -51 -7 -297 26 -777 106 -377 62 -688 101 -792 99 -35 0 -133 8 -218 20
-242 32 -509 52 -970 71 -135 6 -315 15 -400 20 -403 27 -444 31 -461 45 -23
21 -49 19 -49 -5z"/>
</g>
</svg>
