<?xml version="1.0" standalone="no"?>
<!DOCTYPE svg PUBLIC "-//W3C//DTD SVG 20010904//EN"
 "http://www.w3.org/TR/2001/REC-SVG-20010904/DTD/svg10.dtd">
<svg version="1.0" xmlns="http://www.w3.org/2000/svg"
 width="6293.000000pt" height="3772.000000pt" viewBox="0 0 6293.000000 3772.000000"
 preserveAspectRatio="xMidYMid meet">
<metadata>
Created by potrace 1.16, written by Peter Selinger 2001-2019
</metadata>
<g transform="translate(0.000000,3772.000000) scale(0.100000,-0.100000)"
fill="#000000" stroke="none">
<path d="M61776 37693 c-1 -1 -35 -5 -76 -8 -41 -3 -118 -18 -170 -32 -160
-42 -172 -44 -265 -48 -79 -3 -100 -8 -168 -39 -43 -21 -107 -62 -145 -95 -37
-32 -79 -62 -92 -66 -14 -4 -52 -20 -85 -35 -33 -15 -70 -30 -83 -34 -12 -4
-22 -10 -22 -14 0 -4 -25 -20 -55 -37 -30 -16 -55 -33 -55 -37 0 -4 -5 -8 -11
-8 -5 0 -36 -17 -67 -38 -31 -21 -77 -50 -102 -64 -25 -15 -55 -36 -67 -48
-13 -11 -23 -18 -23 -15 0 3 -11 -4 -25 -17 -27 -26 -21 -21 -136 -110 -47
-37 -103 -84 -125 -105 -21 -21 -53 -48 -70 -61 -34 -25 -209 -194 -209 -202
0 -3 -51 -56 -113 -119 -61 -62 -112 -117 -112 -120 0 -4 -8 -16 -18 -27 -10
-10 -64 -76 -120 -145 -56 -70 -109 -132 -117 -139 -8 -7 -15 -17 -15 -22 0
-5 -12 -23 -27 -39 -16 -16 -36 -39 -45 -51 -9 -13 -38 -47 -63 -77 -25 -30
-45 -60 -45 -66 0 -6 -16 -30 -35 -52 -19 -23 -35 -45 -35 -50 0 -4 -16 -26
-35 -48 -54 -63 -55 -64 -55 -69 0 -8 -62 -96 -83 -121 -10 -11 -27 -37 -38
-57 -11 -21 -24 -38 -30 -38 -5 0 -15 -13 -20 -29 -6 -16 -17 -32 -25 -35 -8
-3 -14 -15 -14 -26 0 -11 -4 -20 -8 -20 -5 0 -19 -20 -31 -43 -12 -24 -33 -56
-47 -70 -13 -14 -24 -28 -24 -31 0 -9 -65 -112 -107 -169 -24 -31 -43 -63 -43
-71 0 -8 -12 -27 -27 -44 -16 -16 -37 -47 -48 -68 -11 -21 -35 -58 -52 -81
-18 -24 -33 -47 -33 -51 0 -4 -16 -31 -35 -59 -19 -29 -35 -56 -35 -60 0 -5
-18 -32 -40 -62 -22 -29 -40 -62 -40 -72 0 -10 -4 -19 -8 -19 -5 0 -19 -19
-32 -42 -13 -24 -36 -62 -51 -84 -16 -23 -39 -61 -52 -85 -36 -68 -51 -91 -70
-113 -10 -11 -20 -31 -23 -43 -4 -13 -9 -23 -13 -23 -4 0 -13 -10 -19 -22 -6
-13 -27 -50 -47 -83 -20 -33 -45 -79 -56 -102 -11 -23 -24 -45 -29 -48 -6 -3
-10 -15 -10 -26 0 -10 -4 -19 -9 -19 -8 0 -26 -30 -74 -122 -10 -21 -23 -38
-28 -38 -5 0 -9 -6 -9 -13 0 -19 -40 -91 -56 -100 -8 -4 -14 -16 -14 -26 0
-10 -7 -24 -15 -31 -8 -7 -15 -18 -15 -25 0 -7 -7 -18 -15 -25 -9 -7 -13 -15
-11 -18 3 -2 -6 -22 -20 -43 -13 -21 -24 -43 -24 -48 0 -5 -4 -11 -8 -13 -4
-1 -18 -24 -30 -50 -12 -27 -26 -48 -32 -48 -5 0 -15 -18 -21 -40 -7 -22 -15
-40 -18 -40 -4 0 -15 -17 -25 -37 -10 -21 -22 -45 -27 -53 -5 -8 -15 -26 -22
-40 -6 -14 -20 -34 -29 -44 -10 -11 -18 -24 -18 -29 0 -17 -61 -135 -81 -156
-10 -11 -19 -29 -19 -39 0 -11 -7 -25 -15 -32 -8 -6 -17 -21 -21 -33 -3 -11
-21 -43 -39 -71 -18 -28 -35 -61 -39 -73 -4 -11 -13 -27 -21 -33 -8 -7 -15
-21 -15 -31 0 -11 -4 -19 -10 -19 -5 0 -10 -5 -10 -11 0 -6 -7 -17 -15 -25 -8
-9 -18 -27 -22 -42 -3 -15 -9 -29 -12 -32 -4 -3 -21 -34 -39 -70 -17 -36 -45
-87 -61 -115 -17 -27 -43 -75 -58 -105 -14 -30 -32 -62 -38 -70 -6 -8 -22 -40
-34 -70 -13 -30 -29 -62 -37 -71 -8 -8 -14 -23 -14 -32 0 -9 -3 -17 -7 -17 -5
0 -13 -10 -19 -23 -20 -39 -64 -121 -73 -137 -5 -8 -14 -26 -20 -40 -18 -38
-36 -68 -54 -88 -10 -10 -17 -24 -17 -30 0 -6 -11 -31 -24 -56 -14 -26 -22
-46 -19 -46 3 0 1 -6 -5 -12 -26 -33 -122 -219 -122 -237 0 -6 -3 -11 -7 -11
-8 0 -30 -42 -58 -113 -9 -21 -20 -35 -25 -32 -6 3 -10 -5 -10 -19 0 -14 -5
-28 -10 -31 -6 -3 -26 -39 -45 -78 -19 -40 -42 -85 -51 -102 -21 -38 -23 -41
-80 -155 -26 -52 -57 -108 -68 -125 -12 -16 -21 -32 -22 -35 -1 -6 -41 -95
-56 -127 -6 -13 -15 -23 -20 -23 -4 0 -8 -8 -8 -18 0 -10 -6 -26 -13 -37 -7
-11 -20 -36 -27 -55 -8 -19 -31 -63 -52 -97 -21 -35 -38 -69 -38 -77 0 -8 -4
-18 -10 -21 -5 -3 -10 -13 -10 -22 0 -9 -6 -24 -14 -32 -7 -9 -28 -45 -46 -81
-17 -36 -36 -72 -41 -80 -5 -8 -14 -26 -20 -40 -6 -14 -16 -32 -23 -40 -7 -8
-18 -34 -26 -58 -7 -23 -19 -47 -27 -53 -7 -6 -13 -19 -13 -29 0 -10 -7 -23
-15 -30 -8 -7 -15 -19 -15 -26 0 -8 -4 -14 -10 -14 -5 0 -10 -5 -10 -11 0 -8
-30 -73 -95 -200 -5 -10 -13 -19 -17 -19 -4 0 -5 -7 -2 -15 4 -8 2 -15 -2 -15
-9 0 -32 -44 -35 -65 -1 -5 -10 -22 -20 -37 -10 -14 -19 -35 -19 -47 0 -11 -6
-24 -12 -28 -15 -9 -58 -92 -58 -110 0 -7 -4 -13 -9 -13 -5 0 -12 -13 -16 -30
-4 -16 -10 -32 -15 -35 -7 -4 -142 -266 -228 -443 -13 -26 -29 -58 -37 -72 -7
-14 -23 -45 -36 -70 -22 -46 -43 -88 -87 -175 -14 -27 -26 -52 -27 -55 0 -3
-7 -16 -15 -30 -17 -31 -74 -143 -75 -150 -4 -15 -32 -67 -42 -78 -7 -7 -13
-20 -13 -29 0 -8 -15 -40 -33 -71 -18 -31 -39 -73 -47 -92 -7 -19 -17 -40 -23
-47 -14 -19 -73 -136 -81 -160 -4 -13 -23 -48 -42 -80 -19 -32 -39 -74 -44
-93 -5 -20 -19 -46 -30 -58 -11 -12 -20 -23 -20 -24 1 -2 -3 -16 -9 -31 -6
-16 -11 -32 -11 -37 0 -4 -7 -11 -16 -14 -9 -4 -14 -13 -10 -21 3 -8 1 -15 -4
-15 -6 0 -10 -5 -10 -11 0 -18 -53 -119 -63 -119 -5 0 -7 -6 -4 -14 3 -8 -1
-20 -9 -26 -8 -7 -14 -21 -14 -31 0 -10 -8 -22 -17 -28 -10 -5 -15 -13 -11
-17 4 -4 -1 -19 -10 -33 -10 -14 -25 -42 -34 -61 -43 -96 -54 -119 -82 -164
-17 -27 -31 -51 -32 -55 -2 -18 -47 -110 -91 -191 -14 -25 -26 -49 -28 -55 -5
-22 -19 -51 -38 -78 -10 -15 -20 -33 -21 -40 -6 -27 -37 -87 -45 -87 -5 0 -11
-13 -14 -29 -3 -16 -13 -36 -22 -44 -8 -9 -15 -20 -15 -25 0 -14 -60 -131 -71
-138 -5 -3 -7 -10 -4 -15 7 -10 -25 -69 -37 -69 -4 0 -8 -7 -8 -16 0 -15 -28
-72 -40 -84 -3 -3 -12 -25 -20 -50 -7 -25 -23 -55 -34 -68 -12 -13 -20 -25
-19 -28 3 -5 -9 -38 -17 -44 -3 -3 -14 -25 -25 -50 -10 -25 -24 -52 -31 -60
-8 -9 -23 -36 -34 -60 -11 -25 -24 -52 -29 -60 -39 -73 -65 -124 -88 -177 -10
-23 -24 -43 -30 -43 -7 0 -13 -11 -13 -25 0 -14 -4 -25 -8 -25 -4 0 -16 -20
-26 -45 -11 -25 -23 -45 -28 -45 -4 0 -7 -3 -6 -7 2 -11 -17 -51 -47 -98 -14
-22 -27 -47 -31 -55 -3 -8 -12 -26 -20 -40 -8 -14 -26 -49 -40 -77 -14 -29
-29 -53 -33 -53 -4 0 -13 -16 -20 -35 -7 -19 -16 -35 -20 -35 -8 0 -19 -29
-19 -47 0 -3 -4 -9 -9 -12 -19 -14 -59 -79 -72 -116 -8 -22 -21 -45 -30 -52
-9 -7 -12 -13 -8 -13 5 0 -1 -12 -12 -26 -12 -15 -21 -33 -21 -40 0 -8 -4 -14
-8 -14 -4 0 -18 -19 -30 -42 -12 -24 -27 -52 -34 -63 -7 -11 -29 -47 -50 -81
-21 -33 -38 -63 -38 -67 0 -3 -13 -26 -30 -50 -16 -25 -30 -50 -30 -56 0 -6
-4 -11 -10 -11 -5 0 -10 -6 -10 -13 0 -7 -8 -22 -17 -33 -10 -10 -29 -39 -42
-64 -13 -25 -29 -49 -36 -55 -11 -10 -27 -36 -62 -105 -9 -19 -24 -43 -33 -53
-8 -11 -26 -38 -40 -62 -14 -24 -59 -94 -101 -157 -42 -62 -119 -179 -171
-259 -53 -80 -102 -152 -110 -160 -7 -8 -22 -30 -32 -49 -11 -19 -34 -53 -51
-75 -18 -22 -38 -51 -45 -65 -15 -30 -102 -144 -112 -148 -5 -2 -8 -10 -8 -17
0 -8 -7 -21 -16 -30 -19 -18 -64 -83 -64 -91 0 -3 -9 -15 -20 -27 -32 -36
-120 -156 -120 -164 0 -4 -14 -22 -30 -40 -17 -18 -30 -36 -30 -40 0 -5 -20
-30 -45 -57 -25 -27 -45 -52 -45 -56 0 -3 -16 -25 -35 -47 -19 -23 -35 -46
-35 -51 0 -5 -7 -12 -15 -16 -8 -3 -21 -18 -28 -33 -6 -15 -19 -35 -27 -44 -8
-10 -26 -32 -40 -49 -14 -18 -35 -43 -47 -57 -13 -13 -23 -28 -23 -33 0 -6 -4
-10 -10 -10 -5 0 -10 -4 -10 -10 0 -11 -28 -47 -72 -93 -16 -16 -28 -31 -28
-33 0 -5 -15 -24 -42 -55 -10 -10 -18 -23 -18 -29 0 -5 -4 -10 -9 -10 -5 0
-26 -24 -47 -52 -20 -29 -46 -59 -56 -66 -10 -7 -18 -19 -18 -26 0 -7 -16 -25
-35 -40 -19 -16 -35 -33 -35 -38 0 -6 -10 -21 -22 -35 -13 -13 -32 -34 -43
-47 -30 -32 -85 -97 -125 -145 -19 -23 -45 -53 -57 -66 -13 -13 -23 -27 -23
-30 0 -3 -18 -24 -40 -47 -23 -24 -54 -57 -70 -74 -17 -17 -30 -34 -30 -37 0
-3 -24 -30 -52 -60 -29 -29 -89 -93 -133 -141 -157 -175 -181 -200 -247 -267
-38 -37 -68 -72 -68 -77 0 -5 -11 -14 -23 -21 -13 -7 -30 -22 -38 -33 -23 -33
-192 -202 -227 -227 -18 -12 -29 -27 -26 -33 5 -7 2 -8 -5 -4 -8 5 -14 0 -18
-13 -3 -11 -9 -18 -14 -15 -5 3 -9 0 -9 -6 0 -10 -164 -180 -174 -180 -3 0
-55 -49 -115 -110 -60 -60 -114 -110 -120 -110 -6 0 -11 -7 -11 -15 0 -8 -3
-15 -7 -15 -5 0 -42 -31 -83 -69 -118 -109 -120 -111 -120 -105 0 2 -19 -16
-42 -41 -23 -25 -48 -45 -55 -45 -7 0 -17 -9 -23 -20 -12 -22 -80 -89 -91 -90
-4 0 -31 -22 -60 -50 -29 -27 -57 -50 -61 -50 -4 0 -8 -7 -8 -15 0 -8 -7 -15
-15 -15 -8 0 -15 -4 -15 -10 0 -5 -7 -10 -15 -10 -8 0 -27 -16 -42 -35 -15
-19 -31 -35 -35 -35 -4 0 -18 -10 -31 -22 -53 -51 -118 -108 -123 -108 -2 0
-17 -13 -33 -29 -15 -16 -37 -32 -48 -35 -11 -3 -39 -26 -64 -50 -24 -23 -75
-66 -112 -95 -38 -28 -85 -67 -105 -86 -21 -19 -41 -35 -45 -35 -5 0 -21 -11
-35 -24 -15 -14 -42 -38 -60 -55 -19 -17 -51 -41 -73 -53 -21 -12 -39 -25 -39
-30 0 -4 -4 -8 -10 -8 -5 0 -20 -10 -34 -22 -72 -67 -175 -145 -232 -176 -13
-7 -24 -18 -24 -23 0 -6 -4 -8 -9 -5 -5 3 -11 0 -14 -7 -3 -7 -35 -33 -71 -58
-36 -24 -66 -47 -66 -51 0 -5 -7 -8 -15 -8 -8 0 -15 -4 -15 -8 0 -4 -14 -16
-31 -26 -18 -10 -40 -27 -50 -37 -11 -11 -26 -19 -34 -19 -8 0 -15 -4 -15 -9
0 -10 -85 -71 -99 -71 -5 0 -19 -11 -32 -25 -13 -13 -28 -25 -32 -25 -5 0 -15
-6 -22 -14 -8 -7 -70 -51 -139 -96 -69 -46 -126 -87 -126 -92 0 -4 -6 -8 -14
-8 -8 0 -27 -11 -43 -24 -16 -13 -47 -34 -70 -46 -23 -12 -47 -28 -54 -36 -6
-8 -18 -14 -26 -14 -7 0 -16 -6 -19 -14 -3 -8 -19 -20 -35 -26 -16 -7 -29 -17
-29 -22 0 -5 -13 -14 -30 -19 -16 -6 -30 -15 -30 -20 0 -5 -18 -17 -40 -26
-22 -10 -40 -21 -40 -25 0 -5 -5 -8 -11 -8 -6 0 -32 -15 -58 -33 -25 -18 -58
-39 -73 -47 -15 -7 -37 -21 -47 -32 -11 -10 -23 -18 -26 -18 -4 0 -21 -11 -39
-25 -18 -14 -36 -22 -39 -18 -4 3 -7 1 -7 -5 0 -7 -6 -12 -14 -12 -8 0 -21 -6
-28 -12 -8 -7 -38 -26 -68 -42 -30 -16 -57 -33 -60 -36 -3 -4 -27 -20 -55 -35
-27 -14 -68 -39 -90 -55 -22 -16 -41 -27 -43 -25 -2 2 -12 -4 -22 -13 -11 -8
-26 -17 -35 -18 -9 -1 -24 -9 -33 -17 -10 -8 -36 -24 -59 -36 -40 -20 -106
-61 -129 -80 -6 -5 -21 -12 -34 -16 -13 -4 -55 -27 -94 -50 -139 -83 -269
-155 -280 -155 -7 0 -16 -4 -21 -9 -11 -11 -73 -45 -198 -108 -48 -25 -90 -49
-93 -54 -3 -5 -13 -9 -22 -9 -10 0 -29 -8 -42 -17 -14 -10 -31 -18 -38 -20 -8
-1 -21 -8 -30 -16 -15 -13 -221 -116 -239 -119 -5 -1 -28 -13 -53 -28 -25 -14
-85 -46 -135 -69 -49 -24 -103 -50 -120 -59 -36 -19 -49 -25 -100 -48 -22 -9
-57 -26 -77 -36 -21 -11 -38 -16 -38 -12 0 4 -7 -1 -15 -12 -8 -10 -15 -16
-15 -12 0 7 -43 -12 -102 -43 -10 -5 -23 -9 -30 -9 -7 0 -24 -9 -38 -20 -14
-11 -32 -20 -40 -20 -19 0 -143 -63 -176 -89 -13 -10 -40 -19 -59 -19 -36 0
-89 -21 -135 -52 -14 -9 -31 -15 -37 -13 -7 3 -13 0 -13 -6 0 -6 -6 -11 -12
-11 -7 0 -41 -13 -76 -30 -34 -16 -64 -30 -67 -30 -7 -1 -73 -29 -120 -49 -22
-10 -60 -24 -84 -32 -26 -8 -61 -30 -88 -58 -42 -42 -46 -44 -76 -33 -18 6
-43 9 -57 7 -50 -8 -165 -38 -175 -45 -5 -4 -44 -16 -85 -25 -75 -18 -135 -49
-125 -65 9 -15 -14 -21 -36 -9 -16 8 -32 8 -65 -1 -24 -7 -44 -17 -44 -21 0
-5 -6 -9 -13 -9 -7 0 -23 -9 -36 -21 -17 -16 -25 -18 -36 -9 -10 8 -24 9 -42
4 -16 -4 -33 -8 -40 -9 -6 0 -15 -4 -19 -8 -4 -4 -20 -7 -35 -7 -15 0 -30 -4
-33 -9 -3 -4 -34 -14 -68 -22 -35 -7 -65 -14 -68 -15 -31 -6 -67 -18 -75 -24
-10 -7 -54 -21 -195 -62 -36 -10 -86 -25 -113 -34 -26 -8 -52 -12 -57 -9 -6 3
-10 1 -10 -5 0 -6 -5 -8 -10 -5 -9 5 -35 -1 -100 -23 -8 -3 -21 -4 -27 -3 -7
1 -13 -3 -13 -8 0 -6 -17 -4 -41 4 -40 15 -41 14 -70 -15 -20 -20 -57 -37
-117 -56 -89 -27 -113 -30 -169 -18 -44 9 -79 -2 -105 -31 -11 -13 -25 -22
-30 -19 -4 3 -8 0 -8 -5 0 -6 -11 -11 -24 -11 -14 0 -28 -5 -32 -11 -3 -6 -15
-9 -25 -6 -10 3 -22 1 -25 -4 -8 -14 -41 -11 -56 5 -38 37 -89 27 -106 -21 -7
-22 -19 -31 -56 -41 -46 -12 -48 -11 -93 19 -58 40 -92 33 -108 -23 -13 -47
-12 -46 -78 -58 -56 -11 -57 -11 -119 30 -64 42 -70 44 -103 40 -26 -3 -23 2
-36 -66 -6 -32 -16 -62 -22 -66 -21 -13 -94 -9 -106 6 -16 19 -135 76 -159 76
-34 0 -45 -24 -37 -81 5 -39 4 -54 -6 -60 -21 -13 -61 -11 -78 5 -9 8 -40 26
-68 41 -73 36 -93 25 -93 -49 l0 -54 -72 -10 c-69 -11 -72 -10 -101 14 -31 26
-95 58 -134 67 -37 8 -56 -24 -50 -82 6 -56 1 -61 -63 -61 -25 0 -40 5 -44 16
-3 8 -10 13 -15 9 -5 -3 -12 -1 -16 4 -9 16 -66 41 -105 47 -47 8 -65 -13 -62
-71 l1 -43 -62 -12 c-34 -7 -77 -13 -94 -13 -18 -1 -33 -5 -33 -9 0 -11 -53 2
-65 16 -15 17 -107 64 -130 66 -58 6 -82 -22 -66 -77 11 -38 5 -44 -51 -51
-36 -4 -44 0 -77 34 -67 71 -132 115 -166 112 -29 -3 -30 -5 -30 -53 1 -27 3
-68 5 -90 l5 -40 -66 -8 -66 -9 -46 46 c-78 76 -154 115 -171 87 -9 -14 -9
-50 -1 -103 7 -44 6 -48 -16 -56 -50 -18 -89 -22 -89 -8 0 30 -158 126 -207
126 -45 0 -54 -51 -22 -127 7 -18 10 -35 6 -39 -3 -4 -28 -9 -55 -12 -48 -4
-49 -4 -102 52 -29 31 -58 56 -65 56 -7 0 -18 7 -25 15 -22 26 -102 56 -132
50 -32 -7 -33 -14 -13 -70 8 -22 15 -47 15 -57 0 -9 4 -18 8 -20 5 -1 12 -17
15 -34 6 -29 4 -32 -25 -38 -59 -12 -70 -6 -146 69 -60 60 -79 74 -96 69 -12
-4 -22 -8 -24 -9 -2 -1 -8 -41 -15 -89 l-11 -86 -37 0 c-28 0 -41 6 -53 25
-25 38 -96 105 -112 105 -8 0 -14 3 -14 8 0 7 -40 27 -137 67 -35 15 -45 15
-58 5 -23 -19 -18 -60 20 -165 38 -106 39 -102 -40 -109 -27 -3 -63 -8 -80
-11 -24 -5 -33 -2 -45 16 -31 48 -113 119 -167 145 -52 26 -56 27 -68 10 -11
-15 -10 -27 6 -74 11 -31 21 -77 22 -102 3 -73 -20 -66 -133 41 -22 21 -113
84 -120 83 -3 -1 -14 5 -25 12 -29 19 -103 44 -130 44 -43 0 -41 -35 9 -165
37 -95 44 -134 24 -136 -21 -2 -63 -7 -73 -9 -23 -5 -33 1 -39 25 -11 42 -105
128 -181 165 -38 18 -78 37 -87 42 -28 13 -68 9 -74 -7 -3 -8 11 -45 33 -81
77 -135 104 -186 101 -190 -2 -2 -14 -5 -26 -7 -12 -2 -28 -9 -34 -15 -7 -7
-27 -12 -45 -12 -18 0 -33 -4 -33 -10 0 -5 -6 -7 -14 -4 -8 3 -17 0 -21 -6 -8
-14 -35 6 -35 26 0 22 -82 97 -135 123 -28 13 -62 30 -77 38 -14 7 -33 13 -41
13 -8 0 -28 7 -43 15 -35 18 -56 19 -72 3 -24 -24 -10 -65 73 -216 19 -35 35
-66 35 -68 0 -10 -71 -34 -81 -28 -6 3 -19 -2 -29 -11 -26 -23 -62 -13 -81 22
-23 46 -90 102 -159 134 -36 17 -73 35 -82 40 -10 5 -26 9 -36 9 -9 0 -26 6
-37 14 -25 16 -88 27 -104 17 -19 -12 -17 -72 2 -83 10 -5 17 -14 17 -21 0 -7
29 -57 65 -112 63 -96 75 -127 56 -139 -5 -4 -31 -8 -58 -10 -47 -4 -49 -4
-85 44 -20 26 -49 54 -65 62 -15 8 -50 27 -78 42 -61 34 -171 76 -196 76 -12
0 -21 -10 -25 -26 -5 -20 0 -33 23 -57 59 -63 83 -92 83 -99 0 -4 14 -22 31
-40 17 -18 37 -45 45 -61 14 -26 13 -28 -11 -37 -14 -5 -37 -13 -50 -16 -14
-3 -25 -10 -25 -15 0 -5 -9 -9 -20 -9 -11 0 -20 5 -20 11 0 18 -62 78 -107
103 -23 13 -63 32 -90 41 -26 10 -63 24 -81 32 -33 14 -88 21 -97 11 -3 -3 -8
-15 -10 -27 -4 -21 3 -37 59 -131 15 -25 33 -59 41 -77 8 -17 19 -34 24 -38
14 -8 2 -35 -15 -35 -8 0 -24 -6 -35 -12 -18 -11 -23 -10 -37 12 -10 13 -41
48 -70 76 -48 46 -73 61 -177 104 -65 28 -105 19 -105 -24 0 -23 9 -40 61
-117 58 -87 81 -128 77 -140 -5 -14 -116 -52 -128 -44 -6 4 -10 13 -10 21 0 8
-5 14 -11 14 -6 0 -9 7 -5 15 3 9 0 15 -8 15 -7 0 -19 12 -26 26 -8 14 -32 40
-55 57 -22 18 -44 37 -50 43 -5 6 -26 20 -45 30 -19 11 -46 27 -59 37 -13 9
-39 17 -57 17 -44 0 -52 -26 -23 -77 34 -58 69 -132 69 -144 0 -6 13 -29 28
-52 51 -76 50 -84 -22 -105 -46 -13 -61 -5 -69 36 -6 28 -86 114 -147 156 -57
40 -197 116 -213 116 -23 0 -39 -27 -32 -52 4 -13 20 -42 36 -66 16 -24 29
-48 29 -55 0 -7 9 -23 20 -37 11 -14 20 -29 20 -34 0 -5 6 -17 13 -25 13 -16
37 -87 37 -110 0 -6 -11 -11 -24 -11 -12 0 -38 -5 -57 -12 -31 -11 -34 -10
-54 17 -36 51 -109 116 -150 135 -92 42 -121 51 -144 45 -22 -6 -23 -9 -18
-63 3 -31 8 -68 11 -82 3 -14 9 -46 12 -73 l7 -47 -39 -1 c-54 -1 -86 -5 -104
-12 -21 -9 -31 0 -64 63 -16 30 -39 67 -50 82 -12 14 -31 39 -43 55 -30 39
-61 71 -105 110 -42 36 -74 35 -89 -4 -12 -31 -12 -86 0 -98 5 -6 12 -41 14
-80 3 -38 8 -89 12 -112 7 -39 6 -43 -18 -52 -42 -16 -66 -3 -79 43 -6 22 -18
50 -25 61 -7 11 -13 27 -13 36 0 10 -3 19 -7 21 -5 2 -24 23 -43 48 -19 25
-42 53 -50 64 -24 30 -138 146 -144 146 -24 0 -56 -23 -56 -40 0 -11 4 -20 8
-20 5 0 7 -17 5 -38 -1 -20 4 -55 11 -77 8 -21 13 -49 11 -62 -1 -13 1 -23 5
-23 4 0 7 -6 8 -12 5 -50 10 -83 12 -85 1 -2 4 -15 5 -30 2 -16 6 -38 10 -49
6 -19 2 -22 -34 -26 -35 -3 -81 14 -73 27 4 9 -60 130 -74 138 -8 4 -14 12
-14 17 0 13 -86 100 -99 100 -6 0 -11 8 -11 17 0 9 -3 14 -6 10 -3 -3 -20 7
-38 23 -35 33 -70 38 -97 14 -14 -12 -16 -21 -8 -41 5 -13 7 -28 4 -33 -3 -5
-1 -11 5 -15 5 -3 10 -16 10 -28 0 -13 8 -39 19 -59 10 -20 21 -56 25 -79 4
-24 11 -48 16 -54 5 -5 10 -23 12 -40 3 -27 1 -29 -39 -33 -26 -2 -43 1 -43 7
0 23 -69 160 -97 192 -16 19 -32 42 -36 52 -4 9 -12 17 -19 18 -7 0 -29 20
-48 44 -19 24 -40 44 -46 44 -6 1 -19 10 -29 21 -20 22 -51 19 -72 -9 -16 -20
-17 -51 -2 -51 6 0 8 -7 5 -17 -4 -9 -1 -20 6 -24 7 -5 13 -23 14 -41 1 -18 7
-34 13 -36 9 -3 9 -8 1 -17 -7 -9 -8 -15 -1 -20 10 -5 30 -65 37 -110 18 -106
19 -103 -19 -110 -49 -9 -78 -3 -91 19 -6 11 -19 29 -28 40 -10 11 -18 23 -18
27 0 4 -13 12 -30 18 -16 5 -30 14 -30 19 0 5 -20 15 -45 22 -25 7 -45 17 -45
22 0 14 -53 3 -64 -14 -11 -18 11 -138 26 -138 5 0 6 -5 3 -10 -4 -6 -2 -17 4
-24 9 -10 5 -16 -19 -26 -34 -14 -80 -6 -80 14 0 13 -87 108 -125 136 -22 16
-78 48 -135 77 -19 10 -37 21 -40 24 -3 4 -24 10 -47 14 -24 4 -43 11 -43 16
0 5 -13 9 -29 9 -36 0 -51 -32 -28 -58 8 -9 20 -34 27 -55 6 -20 16 -35 21
-32 5 4 6 -1 3 -9 -7 -18 14 -59 27 -51 5 4 9 -1 9 -9 0 -9 5 -16 11 -16 5 0
7 -5 3 -11 -4 -7 3 -19 14 -28 12 -9 28 -32 36 -53 13 -31 14 -38 1 -48 -18
-15 -95 -26 -95 -14 0 5 -14 25 -30 44 -16 19 -30 38 -30 42 0 11 -101 82
-174 121 -72 38 -113 50 -176 51 -31 1 -35 -2 -38 -28 -2 -19 8 -47 32 -86 20
-32 36 -61 36 -65 0 -4 9 -19 19 -33 10 -15 20 -31 21 -37 1 -5 11 -27 22 -49
21 -40 19 -46 -23 -63 -33 -14 -36 -12 -99 67 -43 54 -67 73 -142 113 -50 27
-103 49 -119 49 -16 1 -29 4 -29 7 0 3 -18 6 -40 6 -59 0 -79 -41 -41 -82 11
-12 17 -24 14 -27 -4 -3 8 -19 25 -34 18 -16 32 -38 32 -49 0 -12 7 -23 15
-27 8 -3 15 -12 15 -21 0 -8 7 -15 15 -15 9 0 15 -9 15 -24 0 -13 6 -26 13
-29 20 -7 -11 -31 -67 -52 l-49 -18 -26 30 c-14 16 -35 42 -45 57 -10 14 -21
24 -24 21 -2 -2 -13 6 -23 19 -49 62 -282 131 -325 95 -25 -21 -16 -63 23
-109 20 -24 44 -56 53 -73 9 -16 19 -28 22 -26 9 6 48 -47 48 -64 0 -9 6 -17
13 -20 14 -4 -34 -31 -75 -41 -21 -5 -31 -2 -40 14 -7 11 -16 20 -19 20 -4 0
-39 31 -78 69 -41 40 -100 84 -140 105 -39 20 -73 41 -76 46 -3 6 -17 10 -30
10 -13 0 -26 4 -29 8 -3 5 -28 10 -57 11 -28 1 -55 3 -59 6 -10 6 -50 -33 -50
-50 0 -7 6 -20 13 -27 7 -7 21 -25 31 -40 10 -16 27 -28 38 -28 10 0 16 -4 13
-10 -3 -5 1 -10 9 -10 9 0 16 -6 16 -14 0 -8 7 -16 15 -20 8 -3 14 -11 13 -18
-2 -7 3 -12 10 -10 6 1 12 -1 13 -5 3 -33 12 -49 39 -76 17 -16 28 -32 26 -35
-3 -2 1 -11 9 -18 21 -21 7 -48 -33 -66 -36 -15 -38 -15 -68 11 -17 14 -29 31
-26 36 3 6 2 7 -2 3 -5 -4 -25 3 -45 16 -20 13 -65 34 -101 49 -111 44 -251
24 -247 -35 0 -13 9 -30 19 -39 10 -9 18 -21 18 -26 0 -6 7 -16 15 -23 8 -7
12 -16 10 -21 -3 -4 1 -11 8 -16 7 -4 23 -25 35 -46 21 -37 21 -38 3 -54 -21
-18 -86 -43 -112 -43 -10 0 -33 16 -52 35 -19 19 -40 35 -45 35 -6 0 -12 3
-14 8 -10 23 -208 95 -326 118 -96 18 -115 18 -142 -4 -22 -18 -22 -19 -6 -50
12 -22 21 -30 33 -25 11 4 14 2 9 -5 -4 -6 5 -17 22 -26 16 -8 32 -22 35 -31
4 -8 13 -15 22 -15 8 0 15 -5 15 -11 0 -6 19 -30 43 -53 23 -22 41 -44 40 -47
-1 -4 9 -10 23 -13 17 -5 24 -12 20 -21 -3 -8 -1 -15 4 -15 27 0 -8 -29 -61
-50 -47 -18 -62 -21 -68 -11 -8 12 -37 31 -71 47 -8 4 -21 12 -29 18 -7 5 -20
11 -29 12 -9 2 -25 7 -37 12 -59 28 -118 37 -232 37 -101 0 -125 -3 -139 -17
-15 -15 -16 -19 -2 -40 9 -13 26 -34 39 -48 14 -14 31 -37 38 -52 8 -15 17
-25 22 -23 4 3 12 -9 18 -25 5 -17 21 -34 34 -39 13 -5 27 -20 30 -33 9 -33 8
-40 -3 -33 -5 3 -10 2 -10 -4 0 -11 -36 -29 -116 -59 -51 -19 -78 -16 -95 11
-8 12 -108 68 -129 72 -3 0 -14 6 -25 12 -11 6 -29 13 -40 14 -11 2 -22 7 -25
10 -3 4 -27 9 -55 13 -27 4 -70 9 -95 12 -35 5 -49 2 -59 -9 -16 -20 -10 -62
9 -62 8 0 15 -6 15 -12 0 -7 3 -12 7 -10 3 1 17 -8 30 -21 14 -12 28 -19 31
-15 4 3 7 1 7 -5 0 -7 7 -12 15 -12 8 0 15 -6 15 -14 0 -8 8 -17 18 -20 9 -3
23 -19 30 -35 7 -16 22 -31 32 -34 31 -8 25 -44 -10 -62 -16 -8 -33 -16 -37
-17 -28 -5 -43 -12 -43 -19 0 -16 -35 -10 -52 9 -22 23 -46 42 -53 42 -6 0
-13 6 -58 45 -15 14 -36 26 -45 27 -31 2 -37 4 -47 9 -19 12 -80 19 -168 20
-72 1 -92 -2 -108 -17 -21 -19 -22 -59 -2 -59 6 0 20 -10 31 -23 11 -12 24
-22 29 -22 6 0 21 -10 34 -22 14 -13 29 -25 34 -27 6 -2 16 -6 23 -8 6 -3 12
-11 12 -19 0 -8 9 -14 21 -14 11 0 18 -4 15 -8 -3 -5 8 -19 24 -31 39 -28 38
-45 -2 -62 -18 -7 -35 -15 -38 -18 -26 -29 -120 -53 -120 -31 0 15 -91 100
-101 95 -4 -3 -11 1 -16 8 -10 17 -90 47 -124 47 -14 0 -28 3 -32 6 -5 5 -78
15 -127 16 -8 1 -17 4 -20 8 -10 15 -50 -10 -56 -35 -6 -26 20 -70 36 -60 3 2
14 -5 23 -16 9 -10 24 -19 32 -19 8 0 15 -5 15 -11 0 -6 6 -9 14 -6 16 6 40
-16 29 -26 -3 -4 -1 -7 6 -7 6 0 27 -16 45 -35 19 -19 41 -35 49 -35 16 0 47
-31 47 -49 0 -6 -12 -17 -27 -24 -16 -6 -31 -17 -36 -24 -4 -6 -23 -17 -42
-23 -32 -11 -39 -9 -68 12 -69 52 -205 92 -292 86 -48 -3 -50 -4 -53 -33 -2
-23 4 -37 24 -55 l27 -25 -13 25 c-12 23 -12 24 3 12 9 -8 19 -24 23 -35 4
-12 26 -41 50 -64 24 -23 41 -48 39 -55 -9 -23 -99 -60 -128 -53 -15 4 -27 11
-27 16 0 12 -93 99 -107 99 -7 0 -13 5 -13 10 0 6 -3 9 -7 8 -5 -1 -17 3 -28
9 -26 15 -128 40 -184 47 -47 6 -111 -15 -111 -35 0 -21 41 -79 56 -79 8 0 14
-7 14 -15 0 -8 4 -15 9 -15 5 0 12 -14 16 -30 4 -17 13 -30 21 -30 8 0 14 -7
14 -15 0 -18 40 -56 51 -49 5 3 11 -7 15 -21 3 -14 10 -25 16 -25 5 0 7 -4 3
-9 -3 -5 -1 -12 5 -16 19 -12 10 -24 -28 -43 -43 -21 -72 -14 -92 22 -16 30
-86 77 -145 98 -27 10 -59 22 -70 28 -11 5 -31 11 -45 13 -14 2 -34 8 -44 12
-25 11 -71 -15 -70 -38 3 -36 4 -39 19 -33 10 3 15 -1 15 -13 0 -9 12 -28 26
-42 15 -13 42 -46 60 -74 19 -27 34 -46 34 -42 0 14 25 -16 38 -47 11 -25 10
-30 -5 -42 -29 -22 -46 -16 -77 26 -17 22 -35 40 -42 40 -6 0 -14 7 -18 15 -3
8 -11 15 -17 15 -7 0 -20 6 -28 14 -13 11 -92 41 -156 60 -50 14 -131 27 -157
24 -27 -2 -33 -7 -31 -26 2 -12 -3 -22 -9 -22 -7 0 3 -11 22 -25 19 -14 30
-25 24 -26 -5 0 0 -4 11 -8 11 -5 20 -14 20 -22 0 -8 11 -16 24 -17 13 -2 26
-12 28 -23 3 -10 9 -16 14 -13 5 3 9 1 9 -5 0 -5 9 -13 20 -16 12 -4 19 -14
18 -23 -2 -11 5 -18 21 -20 17 -3 20 -6 11 -12 -9 -6 -4 -13 19 -24 17 -9 29
-21 26 -26 -3 -5 -1 -11 5 -15 17 -10 11 -25 -10 -25 -11 0 -29 9 -40 20 -11
11 -27 20 -35 20 -8 0 -15 5 -15 10 0 6 -8 10 -18 10 -10 0 -22 4 -27 9 -16
14 -131 42 -148 35 -8 -3 -17 -14 -20 -24 -5 -20 38 -100 54 -100 5 0 9 -5 9
-11 0 -7 8 -19 19 -28 46 -40 33 -75 -44 -117 -19 -10 -35 -22 -35 -26 0 -19
-36 -5 -67 27 -51 53 -145 113 -189 121 -21 3 -44 11 -51 16 -6 5 -37 11 -68
13 -31 2 -73 6 -93 10 -50 8 -92 -8 -92 -36 0 -23 63 -89 85 -89 7 0 15 -9 18
-21 3 -12 10 -18 16 -14 6 3 11 3 11 -2 0 -4 10 -19 21 -33 16 -20 20 -21 15
-6 -7 19 -6 19 13 2 11 -10 18 -23 15 -27 -3 -5 2 -6 10 -3 9 3 17 -2 20 -14
4 -11 15 -22 26 -25 11 -3 24 -16 29 -30 5 -14 15 -28 20 -32 12 -7 -43 -58
-67 -61 -8 -2 -26 9 -41 22 -14 14 -44 34 -66 45 -22 11 -56 28 -75 39 -19 10
-55 27 -80 36 -25 9 -66 25 -92 35 -26 10 -59 19 -74 19 -49 0 -75 -64 -31
-76 14 -3 36 -25 52 -50 16 -25 37 -50 47 -55 10 -5 18 -16 18 -24 0 -8 7 -18
16 -23 9 -5 16 -13 16 -18 1 -19 11 -34 22 -34 6 0 21 -18 34 -40 l23 -40 -36
-17 -35 -17 -33 32 c-31 30 -146 75 -171 66 -12 -4 -93 -12 -141 -13 -38 -1
-61 -32 -44 -62 17 -33 42 -59 56 -59 7 0 13 -5 13 -11 0 -12 15 -28 50 -52
16 -11 19 -17 10 -18 -8 0 -5 -4 8 -10 34 -13 24 -38 -33 -81 -58 -44 -64 -45
-96 -17 -46 40 -143 92 -199 107 -34 9 -147 7 -180 -2 -41 -13 -53 -26 -38
-43 8 -10 7 -13 -3 -13 -10 0 -10 -2 0 -12 6 -7 15 -13 19 -13 4 0 17 -10 30
-23 12 -12 27 -20 32 -17 6 4 10 0 10 -8 0 -8 11 -18 25 -21 14 -4 25 -11 25
-16 0 -6 7 -10 15 -10 9 0 12 -6 9 -15 -4 -10 0 -15 16 -15 11 0 19 -4 16 -9
-3 -4 6 -19 19 -31 16 -15 25 -19 25 -10 0 7 3 11 6 7 8 -8 -5 -47 -17 -47 -5
0 -17 -8 -27 -18 -11 -9 -29 -25 -41 -35 -25 -20 -25 -20 -83 36 -10 9 -23 17
-30 17 -6 0 -21 9 -32 19 -12 11 -47 34 -79 51 -47 25 -73 32 -140 36 -96 6
-132 -7 -132 -46 0 -15 5 -24 13 -22 6 1 12 -5 12 -13 0 -8 5 -15 10 -15 6 0
10 -7 10 -15 0 -8 9 -24 20 -35 11 -11 20 -25 20 -32 0 -6 3 -9 6 -5 7 7 34
-17 34 -31 0 -4 12 -19 26 -33 14 -13 32 -37 40 -52 8 -15 19 -25 24 -22 19
12 19 -14 -1 -39 -36 -46 -56 -51 -90 -22 -17 14 -37 26 -45 26 -8 0 -32 11
-53 24 -21 13 -69 32 -107 41 -38 10 -74 21 -80 26 -6 5 -13 6 -17 3 -3 -3
-14 -1 -25 5 -14 7 -29 8 -50 0 -54 -19 -52 -59 4 -85 19 -9 34 -23 34 -31 0
-8 4 -12 9 -9 5 3 16 -5 25 -19 9 -14 22 -25 30 -25 21 0 67 -59 69 -88 1 -15
8 -27 15 -27 6 0 12 -3 12 -7 0 -5 0 -12 0 -18 0 -5 -12 -16 -27 -24 -16 -8
-43 -28 -61 -45 -18 -17 -37 -31 -41 -31 -4 0 -29 21 -56 46 -27 25 -70 54
-95 65 -25 11 -54 24 -65 29 -39 17 -67 24 -136 35 -58 9 -74 -6 -58 -56 6
-19 21 -42 33 -53 11 -10 22 -22 22 -27 1 -5 2 -13 3 -19 0 -5 8 -10 16 -10 8
0 15 -9 15 -20 0 -11 6 -20 14 -20 8 0 18 -9 21 -20 3 -11 11 -20 16 -20 6 0
7 -4 4 -10 -3 -6 1 -10 10 -10 9 0 13 -4 10 -10 -3 -5 -2 -10 4 -10 6 0 7 -7
4 -17 -4 -10 -2 -14 5 -9 6 4 12 -3 14 -16 3 -23 -17 -45 -76 -82 -27 -17 -30
-17 -41 -2 -7 9 -17 16 -24 16 -6 0 -11 3 -11 8 0 4 -17 18 -38 31 -20 14 -46
33 -58 43 -33 29 -142 69 -192 70 -26 0 -50 5 -53 11 -4 5 -12 6 -20 1 -8 -5
-23 -7 -35 -6 -52 7 -54 -58 -2 -99 17 -13 47 -39 67 -56 20 -18 39 -33 44
-33 4 0 7 -9 7 -19 0 -12 9 -21 25 -25 14 -4 24 -12 22 -18 -1 -6 9 -17 23
-25 14 -7 21 -13 16 -13 -6 0 -4 -6 3 -12 6 -7 17 -13 24 -13 26 0 17 -43 -16
-78 -49 -50 -69 -53 -104 -20 -65 62 -117 93 -156 93 -13 0 -27 3 -30 7 -4 3
-40 7 -79 8 -96 2 -134 -25 -90 -64 11 -9 24 -26 31 -39 7 -12 16 -20 21 -17
6 3 15 -5 22 -19 6 -14 17 -26 24 -26 8 0 16 -11 20 -25 3 -13 15 -27 25 -30
11 -4 17 -10 14 -15 -3 -4 4 -10 15 -13 33 -9 25 -57 -15 -90 -34 -28 -35 -28
-59 -10 -14 10 -30 28 -37 40 -7 13 -22 26 -33 29 -11 4 -48 19 -81 34 -33 15
-82 31 -110 35 -27 4 -58 11 -68 17 -17 9 -86 -8 -88 -22 -5 -34 -4 -50 3 -50
15 0 97 -82 95 -94 -1 -6 4 -10 11 -8 6 1 12 -5 12 -15 0 -9 3 -13 7 -10 3 4
11 -3 17 -15 6 -11 19 -25 28 -30 10 -4 25 -12 34 -16 9 -4 17 -12 17 -17 0
-6 7 -15 16 -21 13 -10 13 -16 3 -38 -6 -14 -17 -26 -24 -26 -7 0 -19 -9 -26
-20 -16 -27 -40 -25 -98 7 -109 60 -138 73 -160 73 -13 0 -25 4 -28 9 -10 16
-146 1 -181 -20 -40 -24 -61 -72 -39 -90 8 -6 14 -8 14 -5 0 4 7 1 15 -8 8 -8
15 -20 15 -26 0 -6 4 -9 8 -6 5 3 25 -9 45 -25 20 -17 42 -27 47 -24 6 4 20
-3 30 -15 10 -12 24 -19 29 -15 6 3 11 0 11 -7 1 -7 11 -22 24 -32 22 -18 22
-21 7 -35 -49 -48 -73 -65 -79 -56 -4 6 -28 20 -53 32 -61 28 -160 38 -351 34
-58 -1 -65 -6 -74 -58 -2 -14 43 -46 68 -48 10 -1 19 -4 20 -6 2 -2 8 -13 14
-24 7 -13 19 -19 34 -17 12 2 20 -1 16 -6 -6 -11 18 -35 26 -27 3 3 16 -6 29
-20 13 -13 31 -25 40 -25 30 0 14 -35 -37 -82 -28 -27 -56 -48 -62 -48 -16 0
-142 81 -142 91 0 5 -4 9 -10 9 -5 0 -39 13 -74 30 -59 27 -73 29 -148 26 -82
-4 -144 -22 -166 -48 -16 -19 7 -62 36 -66 12 -2 22 -8 22 -13 0 -12 25 -39
36 -39 4 0 17 -11 30 -25 15 -16 24 -20 28 -12 3 7 7 3 11 -10 4 -13 12 -20
21 -16 8 3 14 0 14 -5 0 -6 9 -13 19 -17 10 -3 21 -15 24 -27 4 -13 11 -19 20
-15 17 6 57 -32 57 -54 0 -9 -11 -21 -24 -28 -20 -11 -27 -11 -44 5 -40 37
-50 43 -93 55 -24 7 -49 16 -56 21 -14 11 -263 26 -263 16 0 -5 -6 -8 -14 -8
-8 0 -17 -8 -21 -17 -5 -13 4 -27 31 -50 20 -18 40 -30 44 -28 5 3 22 -9 40
-25 18 -16 37 -27 43 -23 5 3 7 1 3 -5 -6 -10 10 -27 27 -27 4 0 16 -15 27
-32 11 -18 27 -33 36 -33 25 0 13 -49 -18 -68 -25 -15 -28 -14 -60 10 -83 63
-228 79 -336 37 -46 -17 -64 -30 -69 -47 -6 -24 11 -52 33 -52 7 0 17 -6 21
-12 10 -17 60 -43 96 -52 15 -3 27 -11 27 -16 0 -5 13 -16 30 -25 37 -19 38
-31 4 -62 -25 -23 -28 -24 -60 -8 -18 8 -36 20 -39 25 -11 17 -97 50 -159 60
-81 13 -276 13 -276 0 0 -5 -6 -10 -12 -10 -7 0 -18 -11 -24 -24 -13 -29 -2
-46 31 -46 12 0 28 -6 37 -12 35 -27 132 -115 166 -151 19 -20 42 -37 49 -37
20 0 7 -39 -21 -62 -26 -21 -30 -22 -46 -3 -37 45 -236 98 -280 75 -8 -4 -19
-8 -23 -8 -26 0 -66 -27 -70 -48 -4 -24 26 -54 56 -54 8 0 20 -7 27 -15 7 -8
19 -15 27 -15 8 0 11 -5 8 -10 -4 -6 7 -15 24 -21 17 -6 29 -14 26 -19 -3 -4
9 -10 26 -14 25 -5 30 -10 27 -28 -2 -13 -9 -22 -17 -20 -7 1 -15 -6 -18 -17
-8 -30 -40 -32 -72 -5 -16 13 -33 24 -39 24 -6 0 -12 5 -14 10 -2 6 -16 13
-33 16 -16 3 -34 9 -40 13 -19 15 -140 21 -200 10 -63 -11 -85 -23 -85 -45 0
-16 60 -87 68 -79 9 9 32 -17 32 -36 0 -11 7 -19 15 -19 8 0 15 -7 15 -15 0
-8 10 -17 23 -21 12 -3 29 -21 39 -41 16 -35 16 -35 -13 -64 -38 -37 -66 -52
-74 -39 -3 5 -36 32 -73 59 -37 28 -71 54 -77 58 -27 22 -76 35 -150 40 -70 5
-86 3 -123 -16 -31 -16 -42 -27 -42 -45 0 -25 22 -51 33 -39 4 3 7 -1 7 -9 0
-16 49 -54 63 -50 5 1 6 -2 3 -7 -4 -5 8 -20 26 -33 18 -12 45 -36 61 -53 15
-16 33 -30 40 -30 6 -1 11 -7 9 -14 -2 -8 5 -22 13 -32 16 -16 15 -19 -11 -41
-15 -13 -36 -31 -46 -41 -18 -17 -20 -16 -61 11 -23 15 -53 33 -67 40 -14 6
-32 16 -40 21 -37 21 -90 32 -155 32 -102 -1 -125 -8 -125 -39 0 -17 41 -72
54 -72 4 0 13 -6 21 -13 7 -6 27 -23 44 -36 17 -13 28 -27 25 -32 -3 -5 1 -9
8 -9 7 0 18 -10 23 -23 6 -12 15 -22 22 -22 7 0 17 -5 23 -11 8 -8 2 -19 -23
-40 -59 -52 -99 -79 -116 -79 -17 -1 -73 36 -106 69 -50 52 -158 89 -255 88
-49 -1 -67 -5 -77 -18 -23 -32 10 -90 45 -77 10 4 13 2 8 -5 -4 -7 -3 -12 3
-12 6 0 8 -7 5 -15 -4 -9 0 -15 10 -15 9 0 16 -6 16 -14 0 -8 9 -18 20 -21 11
-3 20 -15 20 -26 0 -10 7 -19 15 -19 8 0 15 -9 15 -20 0 -11 9 -28 19 -37 11
-9 18 -20 15 -25 -3 -5 0 -7 8 -6 15 3 12 -30 -4 -49 -15 -18 -22 -16 -65 13
-103 70 -195 90 -269 59 -29 -12 -34 -19 -31 -40 3 -28 32 -54 60 -55 10 0 16
-4 13 -9 -3 -5 1 -14 9 -21 8 -7 15 -9 15 -4 1 5 8 -4 17 -21 9 -16 16 -32 16
-35 -1 -3 3 -13 9 -24 8 -14 4 -24 -18 -47 -15 -16 -32 -29 -36 -29 -9 0 -70
-45 -112 -82 -28 -26 -49 -22 -87 14 -29 27 -101 67 -134 74 -5 1 -30 8 -55
16 -67 19 -173 9 -199 -19 -29 -31 -26 -41 14 -60 19 -9 35 -23 35 -30 0 -7 7
-13 15 -13 8 0 16 -4 16 -10 1 -5 2 -16 3 -22 1 -7 9 -12 19 -10 12 2 19 -6
24 -28 4 -22 8 -28 14 -18 8 13 10 10 13 -22 0 -8 8 -15 16 -15 28 0 24 -46
-7 -72 -45 -38 -164 -113 -179 -113 -2 0 -9 6 -16 13 -24 23 -115 77 -130 77
-8 0 -30 8 -49 17 -23 11 -59 17 -109 18 l-75 0 2 -28 c2 -24 0 -27 -13 -17
-11 10 -14 10 -14 0 0 -6 8 -14 18 -17 10 -2 26 -20 37 -39 10 -19 24 -34 32
-34 8 0 12 -4 8 -9 -3 -6 4 -15 15 -21 12 -6 20 -21 20 -35 0 -14 5 -25 11
-25 6 0 8 -9 4 -20 -4 -11 -2 -20 4 -20 20 0 -10 -44 -44 -67 l-34 -21 -38 26
c-65 46 -96 59 -148 61 -27 2 -56 6 -65 11 -16 8 -116 -14 -136 -31 -6 -5 -14
-23 -16 -40 -4 -24 -1 -30 19 -35 13 -4 23 -11 23 -16 0 -13 25 -33 67 -54 18
-9 33 -23 33 -30 0 -8 6 -17 14 -20 12 -5 12 -8 -2 -24 -8 -11 -19 -17 -22
-15 -4 3 -15 -4 -25 -15 -10 -11 -23 -20 -28 -20 -6 0 -32 -14 -60 -32 l-49
-31 -32 34 c-18 19 -59 47 -92 63 -32 16 -67 33 -76 37 -10 5 -27 9 -37 9 -11
0 -22 4 -26 9 -3 6 -13 10 -23 10 -9 0 -33 3 -52 7 -55 10 -69 7 -90 -18 -13
-16 -15 -25 -7 -30 7 -4 8 -8 3 -8 -5 0 1 -9 13 -19 12 -11 21 -23 20 -28 -1
-4 10 -15 24 -23 28 -17 77 -72 77 -88 0 -6 11 -19 25 -29 36 -26 37 -64 3
-77 -23 -8 -32 -6 -53 14 -32 30 -84 48 -158 57 -46 5 -61 3 -76 -11 -30 -28
-32 -54 -5 -83 13 -14 24 -30 24 -35 0 -5 11 -19 25 -32 14 -13 25 -26 25 -30
0 -3 -18 -14 -40 -23 -22 -10 -40 -21 -40 -25 0 -5 -9 -8 -20 -8 -11 0 -20 -4
-20 -10 0 -5 -11 -10 -25 -10 -14 0 -25 5 -25 11 0 25 -85 78 -160 100 -63 17
-67 18 -145 25 -76 7 -85 3 -100 -45 -6 -20 -4 -23 9 -18 10 4 15 3 11 -3 -3
-6 1 -10 10 -10 10 0 15 -7 13 -17 -2 -10 2 -17 9 -16 7 2 10 -4 7 -12 -4 -8
1 -17 10 -21 9 -3 16 -12 16 -19 0 -8 7 -21 16 -29 8 -9 13 -20 10 -25 -4 -5
1 -16 9 -24 11 -12 12 -17 2 -20 -9 -4 -9 -7 1 -15 17 -11 3 -23 -55 -45 -40
-16 -42 -16 -56 6 -47 70 -84 91 -184 102 -11 2 -30 6 -41 9 -11 4 -37 0 -57
-8 -35 -15 -36 -17 -31 -58 3 -24 5 -44 5 -45 1 -1 11 -3 23 -5 16 -2 23 -10
24 -27 1 -14 8 -29 15 -35 8 -6 15 -23 17 -37 3 -28 -28 -53 -94 -76 -29 -10
-34 -8 -90 43 -32 30 -64 54 -70 54 -7 0 -14 4 -16 8 -1 4 -35 19 -73 33 -77
28 -109 24 -119 -14 -6 -23 20 -71 33 -62 5 2 14 -2 21 -10 7 -8 9 -15 4 -15
-5 0 -2 -5 6 -10 8 -5 15 -17 15 -27 0 -10 5 -17 12 -16 22 5 49 -61 35 -83
-7 -11 -148 -69 -193 -79 -20 -5 -34 0 -60 24 -18 17 -39 31 -45 31 -6 0 -30
14 -52 30 -23 17 -48 30 -55 30 -7 0 -18 5 -24 11 -5 5 -34 9 -63 7 -51 -3
-53 -4 -66 -40 -7 -21 -9 -38 -4 -38 5 0 11 -15 15 -33 10 -49 27 -91 42 -100
7 -4 13 -17 13 -28 0 -11 -4 -18 -9 -14 -5 3 -12 1 -16 -5 -3 -5 -15 -10 -26
-10 -10 0 -28 -5 -38 -12 -17 -10 -31 -6 -93 25 -67 35 -81 38 -162 40 -89 2
-89 2 -97 -25 -4 -15 -4 -28 0 -30 14 -6 46 -84 43 -104 -2 -17 -14 -24 -53
-31 -49 -10 -50 -10 -64 17 -8 15 -29 39 -47 54 -18 14 -38 31 -45 36 -7 6
-20 10 -30 10 -10 0 -31 7 -47 15 -29 15 -93 19 -134 9 -28 -8 -30 -55 -3 -93
11 -15 23 -39 26 -54 4 -15 10 -27 14 -27 3 0 7 -16 9 -36 2 -29 -1 -35 -15
-33 -10 2 -28 -2 -40 -9 -21 -11 -24 -10 -36 20 -17 40 -71 94 -112 113 -37
17 -134 35 -153 28 -19 -8 -36 -54 -22 -63 6 -4 12 -18 14 -31 6 -44 18 -79
28 -79 5 0 6 -5 3 -10 -4 -6 -1 -18 6 -26 15 -18 9 -24 -36 -39 -31 -11 -37
-10 -67 15 -18 14 -46 31 -63 37 -32 12 -123 26 -165 25 -34 0 -63 -39 -54
-71 19 -68 15 -78 -35 -100 -26 -11 -78 -23 -114 -27 -64 -6 -68 -6 -87 19
-25 32 -110 72 -170 81 -25 3 -54 8 -65 11 -47 12 -67 -39 -30 -79 14 -15 25
-31 25 -36 0 -5 9 -18 20 -28 l21 -19 -33 -16 c-39 -19 -138 -21 -138 -4 0 35
-119 107 -177 107 -41 0 -51 -29 -28 -83 14 -34 14 -39 -1 -61 -15 -24 -38
-33 -100 -38 -25 -2 -40 7 -84 50 -56 55 -84 68 -125 58 -33 -8 -43 -37 -35
-93 7 -41 5 -45 -17 -54 -41 -15 -53 -11 -101 40 -76 79 -114 75 -137 -15 -14
-55 -37 -74 -95 -74 -28 0 -45 9 -85 48 -38 36 -57 48 -80 48 -32 -1 -54 -31
-55 -76 0 -38 -11 -46 -67 -53 -45 -5 -56 -3 -90 21 -113 80 -193 78 -193 -5
0 -19 -5 -33 -12 -34 -106 -8 -99 -9 -139 32 -21 22 -51 42 -66 45 -26 5 -32
1 -56 -35 -15 -22 -27 -44 -27 -49 0 -4 -26 -8 -57 -9 -56 -2 -59 -1 -106 48
-57 59 -111 85 -144 70 -13 -6 -23 -14 -24 -18 -8 -94 -14 -103 -69 -103 -40
0 -52 4 -69 26 -11 14 -23 33 -26 43 -3 9 -23 22 -46 28 -46 12 -64 1 -75 -45
-10 -41 -21 -49 -60 -46 -23 1 -45 12 -64 31 -42 41 -53 49 -98 72 -63 32 -80
28 -102 -23 -20 -47 -45 -62 -82 -50 -13 4 -38 7 -56 7 -25 0 -37 6 -54 31
-31 44 -90 96 -109 96 -18 0 -79 -63 -79 -81 0 -8 -87 -7 -97 1 -2 2 -7 3 -13
4 -5 0 -27 18 -48 38 -51 49 -97 58 -123 25 -14 -19 -27 -24 -55 -23 -22 2
-40 8 -43 17 -5 13 -25 36 -101 119 -31 33 -50 40 -73 28 -14 -7 -18 -20 -16
-51 3 -62 1 -69 -18 -63 -130 36 -127 34 -168 86 -47 59 -83 67 -111 24 -15
-23 -21 -25 -58 -18 -23 3 -45 10 -51 14 -5 4 -22 10 -37 14 -15 3 -37 21 -49
39 -27 37 -43 51 -82 73 -26 14 -29 13 -53 -11 -25 -25 -27 -25 -80 -13 -38 9
-56 18 -60 32 -9 28 -71 86 -92 86 -10 0 -27 -8 -37 -18 -31 -29 -81 -8 -117
48 -62 99 -82 110 -137 71 -40 -29 -101 -11 -101 30 0 30 -46 96 -67 96 -10 0
-31 -11 -46 -25 l-28 -26 -44 24 c-35 19 -49 35 -66 74 -35 81 -79 106 -120
65 -12 -12 -27 -18 -38 -14 -32 10 -79 64 -78 90 0 30 -39 75 -64 75 -10 0
-25 -9 -33 -21 -14 -21 -15 -21 -40 -3 -13 11 -36 42 -51 69 -31 60 -49 85
-61 85 -5 0 -22 -7 -39 -16 -25 -13 -31 -13 -40 -1 -5 8 -20 17 -32 21 -12 4
-24 19 -28 34 -18 73 -76 124 -114 100 -23 -14 -70 17 -71 48 0 12 -9 31 -20
44 -11 13 -20 27 -20 32 0 12 -34 10 -47 -3 -8 -8 -17 -7 -34 3 -26 14 -33 21
-84 91 -29 37 -42 47 -65 47 -22 0 -45 14 -85 50 -30 28 -59 50 -63 50 -4 0
-26 17 -49 38 -50 45 -137 120 -178 155 -16 14 -57 50 -90 80 -33 31 -79 73
-101 94 -75 68 -448 438 -478 474 -16 19 -59 66 -95 104 -66 71 -238 270 -269
313 -9 13 -28 35 -42 51 -14 15 -34 40 -45 55 -11 16 -26 34 -33 41 -6 8 -12
17 -12 21 0 4 -7 14 -15 23 -32 34 -75 89 -75 95 0 3 -16 23 -35 43 -19 20
-35 40 -35 44 0 3 -16 26 -35 50 -19 24 -35 49 -35 55 0 7 -7 14 -15 18 -8 3
-15 11 -15 17 0 7 -12 28 -27 48 -16 19 -47 65 -70 101 -23 36 -48 74 -57 85
-24 29 -86 136 -86 147 0 5 -6 11 -14 14 -8 3 -17 16 -20 30 -4 13 -11 24 -16
24 -6 0 -10 6 -10 14 0 8 -6 21 -13 28 -7 7 -18 24 -25 38 -7 14 -21 39 -32
55 -10 17 -28 48 -39 70 -36 72 -100 190 -110 201 -4 6 -12 21 -16 35 -4 13
-13 31 -19 39 -7 8 -22 46 -35 84 -14 41 -33 77 -46 88 -13 10 -24 26 -25 36
-5 78 -9 103 -19 134 -7 20 -22 40 -36 46 -14 7 -25 18 -25 27 0 8 -6 15 -14
15 -13 0 -38 94 -28 105 15 14 20 104 10 144 -9 33 -10 33 -54 27 -37 -5 -44
-3 -44 12 0 9 -7 26 -15 36 -8 11 -15 29 -15 41 0 12 -3 25 -7 29 -5 4 -8 34
-8 67 0 54 -3 62 -32 89 -37 35 -52 82 -55 166 -1 43 -8 67 -24 90 -12 16 -23
43 -25 60 -2 16 -6 34 -10 39 -23 34 -14 154 14 181 25 25 -8 94 -45 94 -9 0
-21 7 -28 15 -18 22 -20 110 -4 141 8 15 14 35 14 45 0 11 4 19 8 19 11 0 32
69 32 101 0 39 -15 52 -58 52 -45 0 -51 7 -58 73 -4 35 -2 42 18 51 38 17 98
75 98 95 0 10 5 18 10 18 6 0 10 8 10 18 0 10 4 22 9 28 5 5 12 30 15 56 7 45
6 48 -20 54 -16 4 -41 2 -58 -5 -51 -21 -98 -33 -103 -27 -11 11 8 55 26 61
22 7 31 26 38 76 5 42 -15 69 -51 69 -21 0 -24 6 -29 65 -6 63 -5 67 23 94 17
15 30 33 30 40 0 6 5 10 12 8 6 -1 16 13 21 31 5 17 13 32 18 32 4 0 10 19 14
43 3 23 8 49 11 58 5 19 -47 45 -71 35 -8 -3 -29 -3 -45 1 -31 6 -31 6 -15 73
6 20 5 22 -5 10 -9 -12 -10 -10 -4 10 8 32 23 50 40 50 7 0 15 8 19 18 3 9 21
28 40 42 18 14 36 33 38 43 3 9 12 17 20 17 11 0 24 22 27 48 0 1 9 11 20 22
11 11 20 29 20 39 0 11 4 22 9 25 4 3 6 17 4 30 -7 36 -45 45 -118 30 -102
-22 -105 -21 -103 33 1 35 7 51 26 67 14 12 30 27 38 33 7 7 17 13 22 13 11 0
52 43 52 56 0 5 9 17 19 26 19 16 19 52 0 63 -4 3 -35 6 -68 6 -67 1 -65 -2
-61 84 2 47 15 75 35 75 8 0 15 5 15 10 0 6 7 10 15 10 8 0 15 4 15 9 0 5 11
12 24 15 14 3 27 14 30 24 4 11 17 25 31 32 13 7 31 29 40 49 9 20 20 44 25
53 16 29 12 44 -15 56 -21 10 -38 7 -101 -14 -41 -15 -78 -23 -81 -20 -10 10
-12 57 -2 51 5 -4 9 10 9 29 0 23 5 36 13 36 7 0 23 11 35 25 13 14 27 23 31
20 11 -6 121 99 121 115 0 6 7 13 15 16 20 8 20 77 0 94 -9 7 -52 16 -98 19
l-82 6 2 30 c2 17 4 45 5 63 1 24 9 37 30 50 15 9 28 19 28 23 0 4 13 21 28
37 16 17 29 39 29 49 0 24 -26 53 -47 53 -30 0 -43 26 -31 60 13 38 31 57 64
65 14 4 34 15 46 26 12 11 21 17 21 13 0 -4 13 7 28 24 16 18 33 32 39 32 13
0 53 35 53 46 0 5 9 15 20 22 11 7 20 21 20 31 0 33 -22 41 -101 34 -149 -12
-154 -11 -152 17 6 83 21 108 86 142 21 10 40 25 44 33 3 8 11 15 19 15 8 0
14 4 14 10 0 5 18 28 40 51 42 45 52 86 26 109 -12 9 -30 7 -86 -8 -69 -19
-72 -19 -93 -1 -13 11 -17 18 -9 19 9 0 11 7 7 20 -5 16 2 25 32 42 21 13 44
22 50 20 7 -2 13 2 13 8 0 6 5 8 10 5 6 -3 10 -2 10 3 0 5 14 15 30 22 17 7
30 16 30 21 0 5 5 9 11 9 7 0 20 10 31 23 11 12 30 34 44 49 13 15 24 32 24
36 0 5 11 18 25 30 21 19 24 26 15 43 -21 38 -33 37 -181 -12 -30 -11 -69 -19
-86 -19 l-30 0 8 51 c4 27 6 56 3 63 -6 16 32 46 58 46 9 0 24 7 32 16 9 8 16
13 16 10 0 -3 16 6 36 19 20 14 43 25 50 25 8 0 14 5 14 10 0 6 13 24 30 40
16 16 30 35 30 43 0 7 5 18 12 25 12 12 38 79 38 100 0 6 -9 21 -21 33 -19 19
-22 19 -45 4 -14 -9 -29 -13 -34 -10 -6 4 -13 -1 -16 -9 -3 -9 -10 -14 -15
-11 -4 3 -25 -1 -45 -10 -20 -8 -39 -13 -42 -10 -2 2 -14 0 -24 -6 -25 -13
-40 -1 -44 37 -5 48 11 71 55 78 23 3 41 11 41 17 0 5 4 8 9 4 12 -7 81 55 81
72 0 7 4 13 9 13 5 0 14 14 20 32 18 50 -2 62 -106 65 -47 1 -89 7 -92 12 -3
5 -4 34 -3 65 3 50 7 57 28 62 13 3 24 10 24 16 0 5 9 7 20 3 13 -4 27 2 44
18 14 14 27 23 30 20 3 -3 13 2 23 11 61 57 93 92 93 104 0 7 9 30 19 51 29
55 37 133 17 150 -19 16 -91 1 -175 -35 -29 -13 -71 -24 -92 -24 -38 0 -39 1
-39 35 0 44 2 50 17 49 7 -1 13 2 13 7 0 5 7 6 15 3 8 -4 15 -1 15 6 0 6 4 8
10 5 15 -9 44 10 95 61 32 33 45 54 45 75 0 42 -27 51 -131 47 l-89 -3 -10 29
c-5 15 -8 32 -5 36 3 5 1 19 -4 33 -16 41 -4 62 43 75 27 7 50 21 60 37 9 14
22 25 29 25 11 0 53 56 55 73 0 5 7 14 15 20 14 13 47 107 47 137 0 10 -6 22
-12 27 -17 13 -76 6 -93 -10 -7 -8 -28 -19 -47 -26 -18 -7 -41 -17 -50 -22
-10 -5 -31 -9 -46 -9 -27 0 -29 2 -28 41 1 46 4 48 80 75 60 22 136 93 163
154 4 8 10 17 13 20 16 12 19 58 5 70 -13 11 -27 10 -78 -5 -34 -9 -73 -20
-87 -24 -14 -4 -48 -5 -77 -3 -41 3 -53 8 -58 23 -3 10 -8 28 -11 39 -4 15 -1
20 15 20 11 0 23 5 26 11 4 6 13 8 21 5 8 -3 14 -1 14 5 0 6 5 7 11 4 6 -4 21
3 35 16 13 12 24 19 24 15 0 -14 70 68 70 82 0 7 7 15 15 18 8 4 15 14 15 24
0 10 7 20 15 24 18 7 13 55 -7 68 -15 9 -80 1 -88 -12 -7 -11 -107 -38 -155
-42 -38 -3 -40 -2 -47 32 -4 19 -10 46 -13 60 -6 22 -2 27 28 38 19 7 42 24
51 37 9 14 21 25 28 25 11 0 58 50 58 63 0 4 6 7 14 7 8 0 18 9 21 20 3 11 11
20 16 20 6 0 8 4 5 9 -3 5 1 12 10 15 9 4 14 9 10 13 -3 3 1 15 11 25 9 10 14
18 11 18 -3 0 -2 19 3 41 8 33 6 47 -6 65 -21 33 -44 30 -99 -12 -25 -21 -49
-34 -52 -31 -3 3 -22 -6 -41 -19 -20 -13 -44 -24 -54 -24 -10 0 -21 -5 -24
-10 -10 -17 -35 -11 -35 8 0 10 -3 22 -7 26 -9 9 -13 46 -7 68 3 9 15 20 27
24 12 3 41 22 64 40 23 19 45 34 50 34 15 0 53 49 53 67 0 9 3 13 7 10 3 -4
17 17 31 45 18 37 22 56 15 67 -14 23 -53 26 -88 7 -16 -8 -68 -25 -114 -36
-74 -19 -86 -19 -99 -6 -17 17 -22 92 -6 89 6 -1 34 21 61 50 28 29 61 61 74
73 49 43 99 132 99 174 0 10 6 21 13 23 8 4 8 6 1 6 -8 1 -9 12 -4 36 11 48
-6 70 -47 61 -17 -4 -39 -16 -49 -28 -11 -11 -48 -34 -84 -50 -36 -16 -81 -38
-101 -48 -38 -18 -51 -16 -57 10 -9 39 -11 47 -20 75 -11 35 1 75 22 75 7 0
16 9 19 21 3 12 10 18 17 14 13 -8 80 63 80 86 0 9 6 19 14 22 20 8 75 130 82
181 5 32 2 46 -11 59 -22 23 -38 21 -72 -6 -38 -32 -106 -72 -116 -69 -4 1 -7
-2 -7 -6 0 -5 -18 -15 -40 -22 -22 -7 -40 -16 -40 -20 0 -4 -8 -10 -19 -13
-15 -3 -21 4 -30 33 -17 57 -14 64 34 98 25 17 45 39 45 48 0 10 3 14 6 11 10
-9 54 45 54 66 0 9 5 17 10 17 6 0 10 7 10 15 0 8 4 15 9 15 5 0 9 10 9 23 1
12 2 29 3 37 10 80 -16 98 -94 66 -30 -12 -62 -28 -70 -34 -17 -15 -82 -42
-100 -42 -7 0 -21 23 -30 52 l-16 52 34 35 c19 19 35 40 35 48 0 7 5 13 10 13
6 0 10 9 10 20 0 11 3 20 8 20 8 0 42 73 42 90 0 6 5 10 11 10 16 0 6 52 -13
64 -18 11 -96 -4 -153 -30 -58 -26 -78 -23 -89 16 -5 19 -12 37 -15 40 -3 3
-7 10 -7 15 -1 6 -5 19 -8 31 -4 14 1 29 18 47 13 15 27 36 31 47 4 11 10 18
14 15 7 -4 42 65 46 90 1 6 5 20 9 32 11 34 14 97 4 122 -6 17 -14 22 -35 19
-16 -2 -34 -10 -40 -19 -7 -10 -34 -29 -60 -45 -27 -15 -53 -34 -59 -42 -17
-23 -41 -8 -64 39 -25 53 -25 64 0 99 11 15 17 30 13 34 -3 3 -2 6 4 6 9 0 22
26 27 53 0 4 7 11 14 16 7 4 12 12 11 17 -1 5 1 31 5 57 7 39 5 51 -9 67 -23
25 -40 25 -65 0 -11 -11 -23 -20 -26 -20 -4 0 -24 -18 -45 -39 -40 -42 -48
-41 -68 12 -9 23 -7 31 14 53 14 15 25 31 25 36 0 6 9 23 21 39 19 26 32 76
45 171 4 32 0 42 -22 65 l-27 27 -51 -55 c-29 -30 -61 -61 -72 -69 -11 -8 -28
-21 -37 -29 -15 -12 -19 -12 -32 5 -15 20 -20 60 -7 66 4 2 15 18 25 36 36 65
31 192 -8 192 -18 0 -118 -51 -124 -63 -4 -11 -51 33 -51 49 0 7 6 25 14 41
55 107 63 156 39 236 -19 67 -42 92 -77 83 -30 -7 -69 -43 -62 -55 6 -9 -58
-71 -73 -71 -6 0 -15 9 -21 21 -11 19 1 57 41 132 28 51 2 167 -37 167 -20 0
-75 -41 -68 -52 3 -4 -6 -12 -21 -18 -14 -5 -28 -17 -31 -25 -10 -24 -38 -17
-73 19 -30 31 -32 36 -23 72 26 103 22 185 -11 231 -12 17 -67 -9 -67 -32 0
-3 -5 -11 -10 -18 -6 -7 -19 -24 -31 -39 l-20 -27 -32 20 c-158 96 -252 100
-271 12 -9 -38 11 -73 58 -102 50 -32 235 -225 236 -246 0 -6 11 -19 25 -29
14 -10 25 -25 25 -32 0 -8 5 -14 10 -14 6 0 10 -6 10 -12 0 -7 13 -26 28 -43
15 -16 31 -37 35 -45 15 -29 32 -56 50 -75 24 -26 90 -132 135 -215 19 -36 39
-67 43 -70 5 -3 32 -53 60 -110 28 -58 54 -107 59 -110 7 -5 68 -128 125 -255
15 -33 35 -78 45 -100 10 -22 29 -65 43 -95 62 -136 77 -171 77 -178 0 -7 92
-254 111 -297 17 -40 89 -270 89 -286 0 -9 8 -34 17 -55 9 -22 18 -44 19 -51
1 -7 16 -56 34 -110 17 -54 33 -107 36 -118 2 -11 11 -43 19 -70 29 -91 45
-156 45 -180 0 -13 4 -26 9 -29 5 -3 11 -20 14 -38 3 -18 12 -62 21 -98 8 -36
21 -90 27 -120 6 -30 18 -84 26 -120 9 -36 17 -74 19 -85 1 -11 17 -96 34
-190 18 -93 33 -177 33 -185 0 -8 8 -62 19 -120 10 -58 25 -159 33 -225 9 -66
17 -126 20 -133 3 -7 7 -47 10 -90 3 -42 8 -95 10 -117 3 -22 8 -71 11 -110 3
-38 8 -73 10 -76 1 -3 6 -68 9 -145 4 -76 8 -145 11 -152 10 -31 19 -395 18
-722 -1 -473 -15 -835 -40 -1025 -2 -16 -6 -70 -9 -120 -3 -49 -10 -121 -16
-160 -6 -38 -12 -95 -15 -125 -2 -30 -6 -65 -8 -76 -2 -12 -5 -43 -7 -70 -1
-27 -5 -53 -7 -58 -3 -5 -6 -31 -8 -57 -1 -26 -7 -64 -13 -86 -5 -21 -13 -76
-16 -123 -4 -47 -11 -89 -16 -94 -5 -6 -9 -24 -9 -40 0 -17 -4 -47 -9 -66 -5
-19 -12 -60 -15 -90 -9 -77 -36 -241 -41 -250 -8 -13 -43 -236 -60 -385 -4
-33 -10 -64 -13 -69 -3 -5 -6 -39 -8 -76 -1 -37 -7 -91 -13 -121 -5 -30 -13
-90 -17 -134 -3 -44 -8 -98 -9 -120 -2 -22 -6 -67 -9 -100 -16 -185 -23 -704
-11 -930 16 -318 24 -429 41 -560 7 -60 16 -132 19 -160 3 -27 8 -63 12 -80 3
-16 7 -41 9 -55 1 -14 8 -59 14 -100 7 -41 13 -86 12 -100 0 -14 4 -32 9 -42
5 -9 11 -34 14 -55 3 -21 8 -45 11 -53 3 -8 12 -46 19 -85 21 -109 52 -245 69
-300 9 -27 16 -62 16 -76 0 -14 3 -29 8 -33 4 -4 7 -11 8 -14 0 -4 6 -20 12
-35 7 -16 12 -39 12 -53 0 -13 5 -24 11 -24 5 0 9 -8 8 -17 -2 -19 7 -65 21
-98 31 -77 63 -165 96 -260 20 -60 50 -141 66 -180 15 -38 28 -74 28 -80 0 -5
6 -21 13 -35 7 -14 21 -47 31 -75 11 -27 39 -92 63 -142 23 -51 43 -95 43 -98
0 -6 72 -160 104 -225 38 -76 127 -242 155 -289 18 -29 45 -79 61 -110 17 -31
41 -74 55 -96 14 -22 32 -55 42 -72 9 -18 20 -33 24 -33 4 0 9 -8 13 -18 6
-19 18 -38 63 -103 18 -26 33 -52 33 -57 0 -6 14 -27 30 -45 17 -19 30 -38 30
-41 0 -4 28 -48 62 -97 35 -50 78 -114 97 -143 18 -28 38 -53 42 -54 5 -2 9
-9 9 -15 0 -7 13 -26 28 -44 36 -41 49 -57 102 -128 25 -33 53 -67 63 -77 9
-10 17 -22 17 -27 0 -5 12 -22 28 -39 38 -41 62 -70 101 -122 19 -25 41 -52
50 -60 9 -8 29 -31 45 -50 71 -86 244 -272 436 -469 74 -76 173 -177 219 -224
46 -48 87 -87 91 -87 4 0 35 -27 68 -60 34 -33 66 -60 70 -60 5 0 17 -10 29
-23 21 -24 113 -102 147 -127 31 -21 66 -51 91 -77 12 -13 27 -23 33 -23 6 0
12 -3 14 -8 1 -4 32 -30 67 -57 36 -28 73 -58 83 -68 10 -9 21 -17 26 -17 4 0
19 -11 33 -24 14 -13 40 -31 57 -40 17 -9 38 -26 46 -38 9 -12 16 -19 16 -14
0 5 12 -4 27 -19 15 -15 41 -34 58 -42 16 -9 46 -29 65 -44 19 -16 38 -29 42
-29 4 0 29 -15 55 -33 27 -19 56 -37 65 -40 10 -4 18 -11 18 -16 0 -5 15 -16
33 -25 40 -20 63 -35 104 -63 17 -13 36 -23 41 -23 5 0 41 -25 80 -55 40 -30
76 -55 82 -55 11 0 86 -41 137 -75 19 -14 40 -25 46 -25 6 0 31 -13 56 -29 44
-27 123 -70 306 -165 44 -23 87 -46 95 -51 8 -5 23 -11 33 -12 9 -2 34 -14 55
-27 20 -14 49 -28 65 -31 15 -4 27 -11 27 -17 0 -5 5 -6 10 -3 6 3 10 1 10 -4
0 -6 6 -11 13 -11 8 0 27 -6 43 -14 16 -8 45 -21 64 -29 19 -8 58 -25 85 -38
28 -12 52 -23 55 -24 7 0 81 -34 102 -45 10 -6 24 -10 32 -10 7 0 24 -8 37
-18 21 -17 63 -33 94 -37 10 -2 22 -6 90 -36 17 -7 41 -14 55 -16 14 -2 37
-13 52 -23 15 -11 41 -20 58 -20 16 0 30 -4 30 -10 0 -5 10 -10 23 -10 12 0
32 -7 43 -15 12 -8 24 -12 27 -9 2 3 22 -4 43 -15 21 -12 48 -21 59 -21 11 0
40 -7 64 -15 24 -9 57 -17 73 -19 16 -2 34 -8 40 -14 6 -6 16 -8 23 -6 7 3 16
1 19 -5 4 -6 13 -8 21 -4 8 3 15 1 15 -4 0 -6 12 -10 27 -10 16 0 46 -6 68
-12 22 -7 51 -15 65 -18 14 -2 32 -7 40 -11 8 -3 22 -6 30 -7 39 -5 197 -44
215 -54 5 -3 22 -4 37 -2 16 1 28 -2 28 -8 0 -6 12 -10 28 -10 25 0 114 -8
153 -14 10 -2 24 -9 33 -16 9 -7 27 -11 41 -9 14 3 25 1 25 -4 0 -5 14 -7 30
-4 17 2 30 1 30 -3 0 -4 17 -8 37 -8 75 -3 99 -6 183 -20 47 -9 118 -16 158
-16 39 0 72 -4 72 -9 0 -5 8 -8 18 -6 9 1 22 -1 29 -5 6 -4 23 -3 37 3 17 6
27 6 32 -1 3 -6 17 -8 29 -5 13 3 26 2 29 -2 3 -5 30 -8 61 -7 31 0 58 -2 61
-6 2 -4 22 -6 44 -5 22 2 40 -1 40 -5 0 -5 5 -9 11 -9 5 0 8 4 5 9 -6 9 35 7
146 -7 37 -5 74 -4 83 0 8 5 15 5 15 1 0 -4 108 -8 239 -8 133 0 237 -4 234
-8 -3 -5 4 -6 16 -2 37 11 100 14 107 4 3 -5 14 -7 24 -4 11 3 41 8 67 10 26
2 58 7 70 11 13 4 23 2 23 -4 0 -6 13 -7 38 -1 42 9 40 9 69 -2 14 -5 23 -4
26 4 3 9 10 9 32 -1 23 -11 30 -11 36 0 7 10 9 10 9 -1 0 -11 10 -12 48 -7 26
4 72 10 102 12 30 3 71 7 90 9 19 2 82 6 140 10 58 3 119 7 137 8 17 1 35 6
39 10 11 11 44 9 44 -3 0 -5 7 -10 15 -10 8 0 15 5 15 11 0 6 6 9 14 6 8 -3
17 -1 20 6 3 9 8 8 15 -3 9 -12 13 -12 19 -3 7 11 99 20 219 23 12 0 34 5 48
10 14 5 25 6 25 1 0 -5 21 -3 46 5 26 8 58 11 71 8 16 -4 29 -2 35 7 7 11 11
11 15 1 2 -6 10 -9 16 -5 6 3 40 7 75 9 38 1 68 7 72 14 4 7 13 9 19 6 6 -4
11 -3 11 2 0 4 21 8 48 7 26 -1 52 1 57 6 6 4 21 6 35 5 14 -2 34 3 46 10 12
7 26 9 34 4 8 -5 18 -6 23 -3 4 3 18 6 30 8 43 5 103 16 165 29 35 7 74 11 88
8 14 -2 24 0 24 8 0 7 8 9 20 5 12 -4 27 -1 35 5 8 7 24 10 35 7 11 -3 20 -2
20 3 0 9 122 38 170 39 19 1 54 1 77 1 36 -1 42 2 36 16 -5 14 -3 14 16 2 18
-11 23 -11 30 0 4 7 26 15 49 17 23 2 47 7 53 10 10 7 57 15 92 16 9 0 15 4
12 10 -4 5 0 9 9 9 8 0 16 -6 18 -12 3 -9 10 -8 22 5 10 9 21 15 26 12 4 -3
20 2 36 10 15 7 31 12 35 9 4 -2 43 5 86 17 43 11 98 22 122 24 24 2 47 8 51
14 3 7 14 9 22 6 8 -3 44 3 79 14 35 11 75 22 89 23 14 2 30 7 36 11 7 4 28 8
48 9 20 2 36 7 36 12 0 4 7 6 15 2 8 -3 15 -1 15 5 0 6 4 8 8 5 5 -3 42 4 83
15 41 11 88 22 104 25 17 3 37 8 45 11 8 4 20 5 27 4 6 -1 27 8 47 20 19 11
40 18 46 14 5 -3 10 -1 10 5 0 6 10 8 25 4 14 -3 31 -2 38 4 6 6 15 11 20 11
4 1 8 1 10 2 1 0 9 2 17 4 37 8 45 10 51 18 3 4 24 9 47 11 24 2 51 11 60 20
11 9 38 16 66 18 26 1 50 6 52 12 3 7 14 13 27 14 12 1 31 3 42 5 10 1 28 10
38 21 15 14 21 15 27 6 6 -10 19 -7 56 11 27 13 56 24 64 25 46 5 90 17 125
34 23 11 76 29 118 40 43 10 85 26 93 35 9 8 21 15 27 15 7 0 6 -4 -3 -10 -9
-6 -10 -10 -3 -10 7 0 16 6 20 13 4 7 37 19 73 26 36 7 67 17 70 21 8 13 61
31 71 24 6 -3 19 2 29 11 11 10 26 15 35 12 10 -4 15 -1 15 11 0 15 2 15 10 2
5 -8 10 -10 10 -5 0 9 57 33 90 38 8 1 18 6 21 10 3 5 23 10 43 12 20 2 43 11
52 19 9 10 24 14 38 10 16 -4 25 0 29 9 4 10 13 13 26 10 15 -4 21 -1 21 11 0
9 3 15 8 14 16 -4 79 15 111 33 19 11 40 18 48 15 8 -3 12 -2 9 2 -3 5 9 9 25
9 17 0 35 6 40 14 5 8 9 10 9 5 0 -5 7 -3 15 4 8 7 15 10 15 6 0 -3 16 3 35
14 20 11 45 20 57 20 11 0 27 8 35 18 8 9 12 11 8 5 -10 -21 11 -15 26 7 8 11
30 22 49 25 19 3 37 10 40 14 3 4 17 11 33 15 15 3 39 9 54 13 15 3 34 12 41
20 8 7 18 11 23 7 6 -3 21 2 35 11 14 9 34 18 44 20 18 3 95 40 160 75 19 11
43 18 53 15 26 -5 47 4 47 22 0 11 7 14 22 10 13 -4 32 2 48 13 14 10 38 22
53 25 15 4 27 11 27 17 0 5 9 6 20 3 13 -4 22 -1 26 9 3 9 14 16 24 16 9 0 34
11 54 25 21 14 46 27 56 28 11 2 22 6 26 9 3 4 12 4 20 1 9 -3 14 1 14 12 0 9
4 14 9 10 5 -3 16 2 24 10 9 8 23 12 32 9 10 -4 24 2 36 15 11 11 28 21 38 21
10 0 30 9 44 20 14 11 32 20 40 20 20 0 105 38 112 50 3 6 17 10 31 10 15 0
24 6 24 15 0 11 7 14 25 9 19 -5 25 -2 25 11 0 10 5 13 12 9 6 -4 16 -1 22 7
6 8 40 25 76 38 36 13 70 28 75 34 7 7 6 7 -4 2 -9 -5 -12 -4 -8 2 4 6 18 8
32 5 18 -3 25 0 23 8 -2 8 28 26 72 44 41 17 77 34 78 39 2 4 10 7 18 7 8 0
14 5 14 11 0 5 4 7 10 4 11 -7 71 22 82 39 4 6 13 12 20 12 7 1 19 2 26 3 7 0
10 6 6 13 -4 6 -3 8 4 5 11 -7 72 23 72 36 0 4 7 7 15 7 8 0 15 4 15 10 0 5 6
7 14 4 7 -3 16 2 19 10 4 9 15 16 26 16 11 0 23 5 26 10 4 6 10 8 15 5 5 -3
17 2 27 12 10 10 36 24 58 32 22 8 47 22 57 33 12 14 17 15 21 6 4 -8 6 -7 6
5 1 9 4 17 9 18 4 0 17 2 30 3 13 2 30 13 38 25 8 12 20 18 26 15 6 -4 17 1
25 11 7 11 13 13 13 7 0 -12 61 24 68 41 2 4 9 7 17 7 7 0 18 6 24 14 7 8 27
17 46 20 18 4 35 10 37 14 2 4 21 17 43 29 22 13 39 27 38 33 -2 5 6 10 16 10
24 0 91 38 91 52 0 6 6 8 14 5 9 -4 21 5 31 19 9 14 20 22 25 19 5 -3 33 11
62 32 28 21 60 36 70 35 12 -2 18 3 18 14 0 10 3 14 7 11 3 -4 13 -1 22 7 15
14 21 16 39 16 4 0 26 17 48 37 23 21 76 54 118 73 41 19 76 41 76 47 0 7 11
15 25 19 14 3 25 11 25 16 0 6 6 8 14 5 8 -3 16 2 19 14 3 12 14 19 29 19 13
0 29 9 36 20 7 12 17 18 22 15 6 -4 13 1 16 9 3 9 13 16 21 16 7 0 26 12 40
26 14 14 31 27 37 28 30 7 66 31 66 45 0 14 2 14 10 1 6 -10 10 -11 10 -2 0 6
7 12 15 12 8 0 15 7 15 16 0 10 6 14 15 10 10 -3 15 1 15 11 0 9 3 14 6 11 3
-3 19 7 37 23 17 16 41 29 52 29 11 0 25 10 30 23 6 12 19 22 30 22 11 0 21 8
23 18 2 12 9 16 19 13 10 -4 27 5 44 24 16 16 29 27 29 24 0 -2 11 5 24 18 42
41 62 54 73 51 7 -3 20 4 31 15 10 10 26 21 35 25 9 3 17 11 17 17 0 5 9 10
20 10 11 0 20 7 20 15 0 8 23 26 50 40 28 14 50 29 50 33 0 4 18 18 40 32 22
14 40 28 40 32 0 5 7 8 15 8 8 0 15 5 15 10 0 6 12 16 28 23 15 6 33 17 40 24
7 7 20 13 28 13 8 0 14 5 14 10 0 6 7 10 15 10 8 0 15 7 15 15 0 8 3 15 8 16
30 3 47 10 54 23 5 9 13 16 19 16 10 0 24 10 59 42 13 12 20 13 24 5 2 -7 5
-5 5 4 1 18 27 33 41 24 4 -3 10 5 13 16 4 15 11 20 22 15 10 -3 27 5 45 24
16 17 36 30 45 30 9 0 18 7 21 15 4 8 12 15 20 15 8 0 22 8 32 17 10 10 34 27
55 38 20 11 37 23 37 28 0 4 4 6 9 3 13 -8 41 4 41 18 0 12 87 56 111 56 12 0
12 2 1 9 -10 6 -6 11 17 19 17 6 31 16 31 21 0 6 7 8 15 5 9 -4 18 1 21 11 4
9 13 14 21 11 8 -4 27 7 44 24 17 17 36 27 44 23 8 -3 15 0 15 6 0 6 7 11 15
11 8 0 15 7 15 15 0 8 6 12 14 9 8 -3 22 3 32 13 18 17 44 31 129 67 46 20
115 65 131 85 6 8 16 11 22 7 7 -4 12 -1 12 7 0 9 14 17 34 21 19 4 45 15 57
25 27 20 132 71 148 71 6 0 11 5 11 10 0 6 6 10 14 10 8 0 16 5 18 11 2 5 10
12 18 14 38 8 60 18 60 26 0 5 4 9 10 9 5 0 35 12 67 26 32 14 74 33 93 42 19
8 43 24 53 34 10 10 26 18 37 18 10 0 23 6 27 13 4 6 13 12 18 13 41 3 75 18
71 30 -3 9 2 14 13 14 10 0 32 7 49 16 18 8 36 13 42 9 5 -3 10 0 10 8 0 15
30 32 73 42 40 8 107 38 107 47 0 4 6 5 14 2 7 -3 16 2 20 11 4 10 12 15 22
11 8 -3 12 -2 9 4 -6 10 5 13 41 11 12 -1 28 4 35 11 8 8 42 23 77 34 35 12
63 25 63 30 0 5 7 8 15 6 8 -2 14 2 14 8 0 5 3 9 8 8 4 -1 21 6 39 15 18 9 39
17 48 17 8 0 15 4 15 10 0 5 7 6 17 3 12 -5 14 -3 8 7 -6 10 -4 12 8 7 9 -3
18 0 21 9 3 8 17 14 31 14 14 0 25 5 25 11 0 5 5 7 10 4 6 -3 17 1 26 10 9 9
23 14 31 11 8 -4 26 3 40 14 14 11 39 20 54 20 17 0 37 9 46 19 9 11 20 18 25
15 5 -3 20 1 33 10 13 9 32 16 42 16 10 0 26 7 36 15 11 7 25 11 33 8 9 -3 14
1 14 12 0 14 3 15 14 6 12 -10 19 -8 36 9 12 12 28 19 35 16 8 -3 20 0 27 7
19 18 68 38 78 32 5 -3 11 -1 15 5 4 6 10 8 15 5 4 -3 11 2 14 11 3 8 10 13
14 10 9 -5 74 13 127 35 17 6 39 14 50 16 10 2 29 10 42 18 12 8 30 12 39 8
13 -5 15 -3 9 7 -6 10 -4 12 8 7 9 -3 19 -2 22 4 4 5 11 7 16 4 5 -4 9 -2 9 4
0 14 39 25 103 30 10 0 15 5 12 11 -4 6 7 10 26 10 18 0 38 7 46 18 8 9 12 11
8 5 -3 -7 -1 -13 5 -13 6 0 13 6 16 14 3 7 26 16 52 20 26 3 64 15 84 26 21
11 44 17 53 14 8 -4 21 -2 28 4 6 5 37 17 67 27 30 10 60 21 65 25 6 4 21 8
35 8 14 0 46 9 70 21 24 11 51 21 59 21 9 0 30 7 46 16 17 9 47 16 67 16 21
-1 44 6 52 13 7 8 17 11 20 7 4 -3 11 0 17 8 7 12 11 13 18 2 7 -11 9 -11 14
1 5 13 26 20 102 31 26 4 168 50 218 71 10 4 17 3 17 -4 0 -9 6 -8 23 1 12 7
26 11 31 10 4 -2 13 2 20 7 6 5 27 12 47 15 20 3 49 10 64 16 15 6 44 13 64
15 87 12 161 29 161 37 0 5 5 6 11 2 6 -3 14 -2 18 3 6 9 129 35 164 34 9 0
17 8 18 17 0 11 3 12 6 5 4 -10 10 -10 26 2 28 19 47 20 21 0 -28 -21 -5 -18
39 5 21 11 42 18 47 15 6 -4 10 -2 10 3 0 6 9 8 20 5 11 -3 35 2 52 10 18 9
48 14 66 13 17 -1 32 3 32 8 0 6 5 4 10 -4 6 -9 10 -10 10 -3 0 14 67 36 117
39 35 2 118 17 126 23 1 1 17 4 36 7 19 2 51 8 70 13 20 4 49 9 65 10 17 0 33
7 38 14 6 9 8 9 8 0 0 -8 9 -9 33 -2 17 6 41 12 52 13 11 2 36 6 55 10 61 11
114 19 143 20 15 0 27 3 27 6 0 6 -2 6 125 15 49 4 92 11 95 15 7 11 72 21
156 25 34 1 67 5 73 9 6 4 11 2 11 -3 0 -6 5 -11 11 -11 5 0 8 4 5 9 -9 13 31
20 43 8 8 -8 11 -8 11 1 0 6 10 12 23 11 12 0 52 2 90 5 39 3 67 1 67 -5 0
-10 31 -7 64 7 13 5 17 4 13 -3 -7 -11 70 -33 114 -33 12 0 33 -6 47 -14 15
-7 38 -18 52 -23 14 -6 54 -24 89 -42 35 -17 69 -31 76 -31 7 0 22 -9 35 -20
13 -11 34 -20 47 -20 12 0 23 -4 23 -10 0 -5 5 -10 12 -10 6 0 40 -13 75 -30
34 -16 69 -30 76 -30 6 0 26 -7 42 -16 17 -9 46 -18 65 -21 19 -3 51 -12 70
-21 19 -8 39 -14 44 -13 4 1 14 -3 21 -9 8 -6 29 -12 47 -12 18 0 38 -4 43 -8
6 -3 25 -7 44 -8 19 -2 52 -7 74 -11 22 -5 46 -7 53 -4 8 3 22 2 32 -2 21 -10
27 -11 77 -19 103 -15 169 -23 267 -32 32 -2 69 -9 82 -14 13 -5 33 -6 45 -3
12 3 27 0 35 -6 7 -6 20 -9 28 -6 8 3 20 0 27 -8 7 -9 25 -13 51 -11 21 2 42
-1 45 -6 4 -6 10 -8 14 -5 5 2 34 -2 65 -10 31 -8 60 -14 64 -13 4 1 18 -4 30
-11 13 -7 26 -10 29 -7 4 3 12 1 20 -5 9 -9 13 -8 13 0 0 8 5 9 19 1 11 -5 37
-12 58 -15 55 -8 70 -11 148 -30 39 -9 86 -18 106 -19 20 -2 43 -7 50 -12 8
-5 25 -10 39 -12 13 -2 30 -8 36 -13 7 -5 23 -7 37 -4 14 4 30 1 38 -7 8 -7
25 -13 39 -11 14 1 40 -5 58 -13 18 -9 43 -14 55 -12 12 1 27 0 32 -4 6 -3 48
-15 95 -27 47 -12 104 -29 128 -37 24 -8 47 -12 52 -9 32 20 96 -126 116 -264
3 -20 11 -58 19 -86 31 -118 42 -635 21 -1045 -5 -98 -16 -409 -20 -585 -2
-111 6 -355 19 -535 15 -214 20 -595 9 -670 -5 -34 -14 -139 -16 -190 -1 -30
-36 -320 -44 -370 -3 -19 -12 -62 -20 -96 -8 -33 -17 -81 -20 -105 -3 -24 -13
-71 -21 -104 -8 -33 -18 -76 -23 -95 -5 -19 -10 -44 -13 -55 -3 -11 -10 -39
-17 -63 -6 -24 -13 -58 -15 -75 -2 -18 -11 -48 -18 -67 -8 -19 -27 -82 -43
-140 -15 -58 -31 -109 -35 -115 -4 -5 -10 -28 -14 -50 -4 -22 -12 -46 -18 -53
-5 -7 -7 -15 -3 -19 3 -3 0 -13 -7 -22 -13 -15 -47 -112 -47 -133 0 -10 -15
-48 -49 -123 -10 -22 -24 -67 -31 -100 -7 -33 -16 -64 -20 -70 -7 -9 -22 -57
-25 -80 -1 -5 -7 -23 -13 -38 -7 -16 -12 -34 -12 -41 0 -7 -3 -16 -7 -20 -5
-4 -8 -11 -9 -14 0 -4 -4 -16 -8 -27 -4 -11 -13 -33 -18 -50 -6 -16 -17 -43
-24 -60 -30 -72 -46 -135 -50 -205 -2 -41 -7 -82 -11 -90 -3 -8 -7 -43 -9 -77
-1 -34 -9 -77 -17 -95 -20 -44 -31 -101 -31 -168 -1 -44 5 -64 27 -98 16 -24
27 -53 25 -65 l-3 -22 1194 -3 c913 -1 1196 1 1202 10 6 9 16 9 47 0 22 -7 82
-12 135 -12 l96 0 3 68 c2 54 6 66 18 63 77 -20 96 -27 103 -38 4 -7 19 -13
32 -13 16 0 25 -6 25 -16 0 -9 9 -18 20 -21 11 -3 20 -9 20 -13 0 -3 21 -5 48
-3 70 6 81 24 77 126 -3 89 -25 158 -82 257 -38 67 -223 250 -251 250 -11 0
-22 3 -24 8 -5 11 -90 50 -125 57 -18 4 -33 11 -33 17 0 16 -275 3 -332 -15
-35 -12 -55 -13 -80 -6 -18 6 -62 15 -97 20 -36 5 -78 16 -94 24 -17 8 -36 15
-44 15 -7 0 -13 5 -13 10 0 6 -7 10 -15 10 -9 0 -28 11 -43 25 -15 14 -31 25
-36 25 -14 0 -96 92 -96 108 0 5 -11 18 -25 30 -22 19 -23 25 -14 49 16 41 21
111 9 133 -10 20 -15 42 -26 140 -3 30 -10 60 -16 67 -5 6 -5 14 0 16 4 3 7
40 6 81 -1 42 2 76 7 76 5 0 7 23 5 50 -1 28 1 53 6 56 5 3 6 21 2 40 -4 21
-2 40 6 49 7 8 8 15 3 15 -5 0 -8 13 -5 30 2 16 8 28 12 25 3 -2 7 10 7 28 0
37 13 105 44 227 11 47 23 95 25 108 2 12 11 22 19 22 9 0 15 10 15 25 0 14 4
25 10 25 10 0 35 77 31 98 -1 6 2 12 7 12 6 0 13 16 16 36 4 19 13 37 21 40 8
3 11 12 8 20 -3 8 0 14 6 14 6 0 11 9 11 19 0 11 7 26 15 35 8 8 15 19 15 25
0 6 5 11 11 11 6 0 9 7 5 15 -7 19 3 47 15 39 5 -3 9 1 9 9 0 8 9 22 20 32 11
10 20 26 20 35 0 10 7 23 15 30 8 7 12 17 9 22 -4 6 0 14 7 19 8 4 14 14 15
21 3 33 5 38 18 38 7 0 19 15 26 33 8 17 20 40 29 51 9 10 15 21 15 25 -2 11
10 36 28 55 10 11 18 28 18 38 0 10 7 21 16 25 8 3 13 11 10 19 -3 7 -2 14 2
16 12 5 55 97 55 116 0 9 10 31 22 47 25 34 40 73 37 95 -2 9 7 26 18 38 11
12 17 22 13 22 -4 0 -2 4 6 9 7 5 14 22 16 39 1 17 8 38 15 47 12 15 16 31 19
83 0 12 10 31 20 41 11 11 22 39 25 66 3 26 12 55 20 64 9 10 13 21 9 24 -3 4
-1 7 6 7 7 0 11 7 8 15 -4 8 -2 17 4 21 5 3 7 14 4 24 -3 10 -1 21 5 25 5 3
10 14 10 25 0 10 7 20 15 24 8 3 15 17 15 31 0 14 5 25 10 25 6 0 10 7 10 15
0 8 4 15 10 15 5 0 7 7 4 15 -4 10 -2 13 8 10 8 -3 21 1 28 10 7 8 10 15 6 15
-3 0 2 9 11 19 9 11 20 18 24 15 7 -4 15 13 26 51 17 61 35 135 38 155 2 14 4
26 5 28 1 1 3 5 4 10 1 4 5 12 9 19 4 6 5 17 3 25 -3 7 -7 33 -10 57 -3 25
-10 49 -15 54 -12 12 -2 39 20 55 15 10 18 26 17 92 -1 44 -5 80 -8 80 -11 0
-3 102 8 109 6 3 12 27 15 53 3 25 10 56 17 67 10 19 11 50 7 139 -1 17 -5 32
-9 32 -4 0 -6 8 -6 17 1 10 -2 52 -6 94 -5 52 -4 79 3 84 6 3 11 11 11 16 0 6
-6 7 -12 3 -9 -5 -9 -2 1 9 7 9 10 17 6 17 -4 0 -3 6 3 13 6 7 9 23 5 35 -3
14 -1 22 7 22 7 0 9 8 5 20 -4 12 -1 27 5 35 6 8 10 18 7 22 -3 4 0 19 6 33
15 36 18 51 18 91 l0 36 47 -5 c26 -3 49 -8 52 -12 3 -4 22 -10 43 -14 20 -4
37 -12 37 -18 0 -5 7 -7 16 -4 9 3 21 3 27 -1 7 -4 14 -8 17 -8 21 -3 77 -19
90 -25 21 -11 103 -34 113 -32 4 1 14 -4 22 -12 10 -10 27 -12 55 -9 26 4 40
2 40 -6 0 -6 9 -11 21 -11 11 0 29 -5 41 -11 11 -6 34 -12 52 -14 17 -2 85
-15 151 -30 66 -15 138 -29 159 -31 22 -2 44 -9 51 -14 6 -5 26 -10 43 -12 18
-1 32 -5 32 -9 0 -3 19 -6 43 -5 23 0 51 -4 62 -8 25 -11 48 -15 105 -19 25
-2 62 -9 82 -16 21 -7 42 -10 48 -6 5 3 15 3 22 -1 14 -9 30 -11 145 -18 45
-3 90 -9 100 -15 10 -5 52 -53 93 -107 41 -53 88 -111 103 -127 15 -17 35 -46
44 -64 8 -18 19 -33 24 -33 5 0 26 -24 48 -52 92 -122 126 -165 165 -209 71
-79 130 -151 154 -186 12 -18 26 -33 30 -33 4 0 22 -23 41 -50 19 -28 38 -50
43 -50 4 0 8 -6 8 -12 0 -7 13 -27 29 -44 29 -31 156 -213 204 -294 15 -25 32
-52 37 -60 62 -97 190 -344 190 -367 0 -7 4 -13 8 -13 5 0 14 -19 21 -42 7
-23 26 -70 42 -105 16 -35 29 -66 29 -69 0 -3 6 -20 14 -37 24 -53 76 -231 96
-324 36 -172 39 -189 44 -248 3 -33 7 -67 10 -75 3 -8 7 -61 10 -118 4 -89 8
-108 32 -150 26 -45 28 -54 31 -192 3 -145 19 -233 50 -271 7 -8 13 -22 13
-30 2 -58 126 -93 319 -89 138 2 156 5 205 31 13 7 16 7 11 0 -3 -6 -1 -11 4
-11 6 0 11 5 11 11 0 6 7 9 15 6 8 -4 17 -2 19 2 3 5 24 8 46 8 22 0 46 5 53
12 8 6 17 8 20 4 4 -3 7 -2 7 4 0 6 15 10 33 9 17 -2 50 4 72 11 21 7 45 11
52 9 7 -3 16 1 20 8 11 17 102 45 136 42 16 -2 31 3 36 11 4 8 11 14 15 13 15
-5 99 11 124 24 44 22 92 35 108 29 9 -3 29 4 45 16 16 12 34 19 39 16 6 -3
10 -1 10 5 0 6 4 9 9 6 12 -8 113 29 104 38 -4 4 0 4 10 0 9 -3 17 -2 17 4 0
9 36 24 65 27 36 4 75 18 85 30 6 8 17 12 24 9 8 -3 20 2 29 10 9 9 20 16 25
16 6 0 13 7 16 16 3 8 11 12 17 8 6 -3 15 -1 19 6 5 8 19 15 32 17 13 2 25 8
26 13 2 6 10 10 18 10 8 0 14 4 14 8 0 4 10 9 22 9 13 1 24 7 26 13 2 5 10 10
18 10 8 0 17 7 20 15 5 11 23 15 75 15 38 0 69 4 69 9 0 4 19 5 42 1 75 -14
121 22 103 81 -7 22 15 49 40 49 20 0 122 -48 130 -61 14 -22 88 -7 145 29 9
6 0 89 -14 131 -9 23 -25 56 -37 72 -12 17 -19 32 -17 34 10 10 81 -15 109
-39 32 -27 101 -37 114 -16 4 6 10 8 14 5 5 -2 16 1 25 8 14 10 16 22 10 65
-3 29 -10 52 -15 52 -5 0 -9 8 -9 19 0 10 -7 24 -15 31 -8 7 -15 20 -15 30 0
9 -9 25 -20 35 -11 10 -20 23 -20 29 0 18 -139 145 -166 152 -13 3 -24 9 -24
13 0 5 -19 14 -42 21 -24 8 -49 18 -56 23 -13 10 -177 11 -223 2 -13 -3 -53
-10 -89 -16 -35 -5 -70 -15 -77 -21 -7 -6 -13 -8 -13 -4 0 4 -12 0 -27 -7 -52
-26 -98 -29 -140 -8 -33 16 -57 19 -176 16 -133 -2 -228 8 -350 36 -44 10 -63
21 -80 44 -12 16 -33 39 -46 50 -64 55 -72 65 -70 97 2 18 -5 47 -14 64 -14
28 -96 104 -112 104 -13 0 -122 89 -137 112 -24 36 -105 118 -117 118 -6 0
-11 6 -11 13 0 6 -15 28 -34 48 -18 20 -36 43 -40 50 -17 34 -35 62 -43 68 -5
3 -24 38 -42 76 -19 39 -40 82 -47 96 -7 14 -11 29 -8 32 3 3 -3 23 -15 44
-18 32 -63 201 -76 280 -2 11 -10 46 -19 76 -9 31 -18 75 -21 99 -5 54 -12 85
-20 99 -4 6 -8 27 -10 47 -1 20 -8 55 -14 77 -11 40 -40 194 -46 250 -3 17 -7
46 -10 65 -3 19 -7 54 -9 77 -3 24 -7 47 -10 51 -3 5 2 18 10 30 11 17 21 20
44 16 16 -4 42 -2 59 4 22 8 31 7 34 -1 3 -9 7 -9 17 0 7 6 19 9 28 6 11 -5
13 -3 7 6 -5 10 -2 11 14 6 13 -4 21 -2 21 5 0 7 6 8 18 2 20 -11 44 -5 54 13
4 7 19 10 33 7 14 -2 31 0 38 5 6 6 31 10 55 9 23 0 43 2 45 6 1 5 26 10 55
12 30 3 64 12 78 21 15 9 35 13 54 10 19 -3 30 -1 30 6 0 6 7 9 15 5 8 -3 15
-2 15 3 0 4 12 6 28 4 22 -4 24 -2 12 7 -12 9 -9 10 13 5 20 -4 27 -2 22 6 -5
8 -1 9 13 5 11 -4 29 -3 39 2 33 17 89 32 119 32 16 0 47 9 69 20 22 11 49 20
62 20 12 0 25 4 28 10 3 5 17 10 31 10 13 0 24 5 24 11 0 6 9 8 20 4 12 -4 31
0 43 8 24 16 85 32 105 28 7 -1 15 5 18 13 3 9 9 14 13 11 11 -6 81 17 81 26
0 5 7 5 17 2 12 -5 14 -3 8 7 -6 10 -4 12 9 7 20 -8 136 30 136 44 0 5 7 5 17
2 11 -4 14 -3 9 6 -6 9 0 10 20 5 17 -4 25 -3 21 3 -6 10 44 27 69 24 6 -1 19
7 28 18 10 11 25 17 37 14 10 -3 19 0 19 6 0 6 11 11 25 11 16 0 25 6 25 16 0
10 8 15 23 13 12 -2 36 4 52 13 17 9 49 21 73 27 23 7 42 17 42 24 0 9 3 8 9
-1 6 -10 15 -6 39 17 17 17 37 31 44 31 8 0 20 6 27 12 11 10 13 10 7 0 -4 -6
-2 -12 3 -12 6 0 11 7 11 16 0 10 5 14 15 10 9 -3 18 1 22 10 5 13 7 13 14 2
7 -11 10 -10 21 1 11 12 10 13 -2 7 -8 -4 -6 0 4 8 11 9 30 16 43 16 13 0 26
7 29 15 4 10 13 13 26 9 14 -4 18 -2 14 5 -4 7 1 11 12 11 25 0 124 45 116 53
-3 3 5 9 18 13 23 8 31 10 56 12 7 1 11 6 7 11 -3 5 0 13 6 17 8 4 9 3 5 -4
-13 -22 10 -12 34 13 13 14 25 23 28 20 9 -9 75 26 96 50 13 14 36 27 54 29
38 5 54 14 47 27 -9 14 11 11 22 -4 7 -8 0 -57 -19 -147 -16 -74 -37 -178 -49
-230 -11 -52 -26 -117 -34 -145 -16 -54 -41 -174 -57 -270 -5 -33 -14 -64 -19
-69 -5 -6 -9 -20 -9 -33 0 -13 -4 -31 -10 -41 -5 -9 -21 -64 -35 -122 -13 -58
-31 -134 -41 -170 -9 -36 -24 -96 -34 -135 -9 -38 -27 -95 -39 -125 -40 -100
-51 -135 -51 -160 0 -14 -9 -44 -21 -65 -18 -35 -21 -59 -22 -205 -2 -154 -1
-168 21 -209 13 -24 29 -50 37 -58 9 -9 15 -34 15 -64 0 -27 5 -49 11 -49 5 0
17 -17 26 -37 16 -40 38 -62 63 -63 8 -1 28 -28 44 -60 27 -56 91 -150 146
-214 51 -61 86 -99 108 -119 13 -12 38 -35 56 -52 18 -16 52 -46 76 -65 23
-19 54 -45 69 -58 14 -12 51 -39 81 -59 30 -21 67 -49 81 -63 34 -33 82 -70
91 -70 4 0 18 -10 32 -23 42 -37 93 -77 100 -77 4 0 19 -11 34 -25 15 -14 32
-25 39 -25 7 0 13 -5 13 -10 0 -6 8 -14 18 -17 9 -4 28 -18 42 -32 14 -14 42
-35 63 -46 20 -11 37 -25 37 -31 0 -7 16 -19 35 -28 19 -9 35 -21 35 -27 0 -5
11 -14 25 -21 16 -7 29 -26 40 -57 15 -47 63 -279 70 -341 2 -19 11 -89 20
-155 9 -66 17 -129 17 -140 0 -11 4 -36 9 -55 5 -19 11 -55 13 -80 12 -110 47
-352 61 -425 8 -43 20 -111 26 -150 6 -38 19 -115 30 -170 29 -144 30 -152 36
-243 3 -49 1 -99 -6 -125 -14 -49 -19 -78 -26 -129 -6 -45 -48 -250 -76 -373
-11 -49 -25 -125 -31 -167 -9 -75 -9 -78 19 -130 l29 -53 537 -3 537 -2 10 27
c6 16 15 37 20 48 5 11 11 43 13 71 6 65 -30 146 -95 213 -29 29 -56 130 -60
221 -2 47 -8 91 -12 98 -4 7 -2 19 4 27 7 8 10 20 7 27 -2 7 0 24 5 37 5 13
10 36 12 50 3 14 9 49 15 78 6 29 8 79 5 112 -2 33 0 62 4 65 5 3 24 1 43 -5
45 -13 168 -20 174 -9 3 5 12 7 20 3 8 -3 15 0 15 5 0 6 19 10 45 9 25 -1 45
1 45 5 0 21 95 30 142 13 57 -20 94 -18 147 5 23 11 46 18 50 15 5 -2 18 5 30
16 12 12 25 19 27 16 3 -3 14 3 25 14 10 10 25 16 34 13 8 -4 15 -1 15 5 0 6
6 11 13 11 7 0 23 9 35 20 12 11 24 20 27 20 10 0 80 50 78 55 -7 12 -2 35 10
47 38 41 18 165 -37 226 -71 78 -106 120 -106 128 0 5 -9 15 -20 22 -11 7 -20
18 -20 25 0 8 -11 24 -25 37 -13 12 -23 25 -22 29 2 8 -36 71 -43 71 -3 0 -14
20 -25 45 -11 25 -23 45 -27 45 -5 0 -8 11 -8 24 0 14 -4 28 -10 31 -5 3 -10
19 -10 35 0 16 -4 31 -10 35 -5 3 -7 12 -4 19 3 8 1 17 -4 20 -6 3 -8 15 -5
26 5 20 -20 151 -39 202 -6 15 -8 34 -4 43 3 8 1 15 -5 15 -6 0 -7 4 -4 10 8
13 -35 109 -65 144 -53 61 -123 126 -136 126 -8 0 -14 4 -14 9 0 9 -107 81
-121 81 -4 0 -14 8 -21 18 -7 9 -42 41 -77 71 -35 30 -89 82 -121 115 -148
155 -173 193 -165 256 2 17 0 30 -3 30 -4 0 -7 57 -8 128 -1 70 -4 150 -7 177
-4 28 -9 86 -12 130 -3 44 -10 112 -16 150 -5 39 -12 88 -14 109 -2 22 -7 46
-10 55 -3 8 -9 76 -12 150 -11 245 -2 408 27 487 18 49 20 61 20 117 0 12 4
31 10 42 5 11 16 56 24 100 19 100 41 200 55 244 6 19 8 37 6 42 -3 4 -1 9 5
11 5 1 10 21 11 43 1 22 8 59 15 83 8 23 14 56 14 72 0 15 4 30 9 32 12 4 19
39 28 128 3 36 10 68 16 71 5 4 10 25 11 48 0 22 4 41 8 41 5 0 8 7 8 15 0 8
-6 15 -12 15 -9 0 -8 3 2 10 10 6 16 27 17 62 0 29 4 71 8 93 4 22 8 48 8 58
1 9 5 17 9 17 4 0 7 3 7 8 -1 4 0 9 1 12 1 3 3 16 4 30 7 66 18 120 27 125 5
4 9 14 9 23 0 10 9 35 20 57 11 22 20 47 20 57 0 9 5 20 11 23 6 4 8 13 5 21
-7 19 12 67 23 59 5 -3 9 9 9 26 -1 20 5 35 16 41 10 6 15 16 11 28 -6 18 17
50 36 50 5 0 9 6 9 13 0 6 14 25 30 40 17 16 30 35 30 43 0 8 7 14 15 14 8 0
19 9 25 19 5 11 19 23 30 26 12 4 36 21 55 38 42 40 88 75 109 83 8 3 18 14
21 24 3 10 15 20 26 23 13 4 18 10 13 18 -4 8 -3 10 5 5 7 -5 23 5 38 23 15
17 33 31 41 31 7 0 15 7 18 15 4 8 13 15 21 15 8 0 20 13 26 30 7 17 18 29 26
27 8 -1 21 10 29 26 7 15 18 27 25 27 18 0 82 58 74 66 -10 11 23 44 44 44 11
0 21 10 25 25 3 14 12 25 18 25 15 0 74 60 60 61 -5 0 1 4 14 10 13 5 20 13
17 19 -3 5 -1 10 5 10 6 0 16 11 22 25 6 14 15 25 21 25 13 0 57 43 57 57 0 6
10 20 23 30 13 10 24 22 24 28 1 5 10 12 20 16 10 4 12 8 5 8 -10 1 -10 5 0
21 7 10 14 17 17 15 10 -10 41 30 41 52 0 13 4 22 8 19 12 -7 47 55 44 77 -2
9 4 20 12 23 9 3 14 10 11 14 -3 5 -1 11 4 15 6 3 8 12 4 20 -3 8 0 15 5 15
10 0 17 25 26 83 1 10 8 22 16 27 7 4 10 15 6 25 -3 9 -3 22 1 28 3 5 8 24 10
41 6 50 9 61 16 73 4 6 9 36 11 67 2 30 7 59 11 65 3 6 4 15 0 20 -3 5 -1 31
5 57 6 26 11 63 12 83 1 20 6 40 12 44 8 6 8 10 -1 13 -8 4 -9 11 -3 22 12 22
23 87 23 137 0 22 5 43 11 47 7 5 7 8 -2 8 -7 0 -11 4 -8 9 5 7 16 77 19 124
1 9 5 17 10 17 5 0 8 15 7 33 -1 17 -1 34 0 37 3 10 9 75 10 102 0 16 3 28 8
28 5 0 8 23 7 50 -1 28 2 53 6 55 4 3 5 14 2 25 -3 11 0 27 7 35 6 8 9 19 5
25 -3 5 -1 10 6 10 7 0 9 3 6 7 -4 3 -2 11 3 18 5 6 11 20 13 31 2 10 9 32 16
48 6 16 9 31 7 34 -5 4 21 59 34 72 14 14 40 70 33 70 -4 0 0 5 10 11 9 5 17
19 17 29 0 11 6 20 13 20 18 0 57 34 57 48 0 6 9 16 20 22 11 6 20 17 20 25 0
8 9 15 19 15 11 0 23 9 26 20 4 11 15 20 26 20 11 0 22 7 25 15 4 8 15 15 25
15 10 0 24 9 31 20 7 11 21 20 31 20 11 0 21 9 24 21 4 14 12 19 24 16 11 -3
17 -2 14 3 -5 8 24 37 40 41 22 4 55 23 55 31 0 4 7 8 15 8 8 0 15 7 15 15 0
8 6 12 14 9 8 -3 24 5 36 19 12 14 28 23 35 20 8 -2 21 7 30 21 10 14 23 26
30 26 6 0 20 9 29 19 10 11 28 22 42 25 13 4 24 13 24 21 0 8 9 15 20 15 11 0
20 7 20 15 0 9 6 15 13 13 18 -3 58 22 52 33 -6 8 7 12 21 7 3 -2 10 5 15 15
6 9 14 17 20 17 14 0 71 41 87 63 7 9 20 17 28 17 8 0 14 6 14 13 0 9 2 9 8
-1 7 -10 13 -6 28 13 10 14 27 25 37 25 10 0 15 4 12 10 -3 6 1 10 9 10 9 0
15 6 14 12 -2 7 7 14 20 16 12 2 22 7 22 12 0 4 10 10 23 14 13 3 36 19 53 35
16 17 35 31 42 31 6 0 12 4 12 10 0 5 14 17 30 25 17 9 28 19 26 24 -3 4 13
13 34 20 22 6 40 16 40 21 0 5 9 11 19 15 12 4 18 12 14 21 -3 9 1 14 15 14
11 0 25 7 32 15 7 8 19 15 27 15 7 0 16 7 19 15 4 8 12 15 20 15 8 0 14 7 14
15 0 8 7 15 15 15 8 0 15 5 15 11 0 6 7 9 15 5 8 -3 15 -2 15 2 0 4 20 21 45
37 24 17 45 35 45 41 0 7 17 19 38 27 20 9 51 29 69 45 17 16 34 27 37 24 3
-3 6 2 6 11 0 9 10 17 22 19 12 2 27 12 33 24 6 11 16 19 23 16 14 -4 59 37
54 50 -1 5 2 9 8 9 5 1 15 3 20 4 6 1 15 3 20 4 6 0 10 9 8 18 -2 10 3 18 12
18 23 0 60 24 60 39 0 16 42 46 64 46 10 0 13 6 10 15 -5 11 3 17 26 21 18 4
40 19 53 35 11 16 29 29 39 29 10 0 18 7 18 15 0 8 7 15 15 15 8 0 35 20 61
45 25 25 50 45 55 45 4 0 17 10 29 22 11 12 20 19 20 15 0 -4 9 -3 20 3 11 6
19 15 17 19 -1 5 1 10 5 11 4 0 21 14 39 31 17 16 37 29 45 29 8 0 14 4 14 9
0 5 12 14 28 20 35 13 56 31 65 54 4 10 12 15 18 12 6 -4 13 2 16 14 3 12 13
21 24 21 11 0 19 7 19 15 0 8 8 15 19 15 11 0 21 9 24 21 3 12 10 18 16 14 6
-3 11 -1 11 5 0 6 5 8 10 5 6 -3 10 -1 10 4 0 6 7 11 15 11 8 0 15 5 15 11 0
15 93 100 105 96 11 -4 40 22 40 35 0 12 27 28 37 22 4 -3 8 1 8 9 0 7 11 20
25 27 14 7 25 17 25 21 0 4 11 10 25 13 14 4 25 13 25 20 0 8 9 16 20 19 11 3
19 11 18 18 -2 8 7 15 19 17 13 2 31 14 42 28 10 13 23 24 28 24 5 0 24 12 41
28 18 15 43 35 57 45 14 10 25 24 25 32 0 8 5 15 10 15 19 0 69 43 63 53 -3 6
-1 7 4 4 6 -4 19 5 29 18 10 14 27 25 36 25 10 0 18 7 18 15 0 8 6 15 13 15
20 0 38 16 41 36 2 10 9 18 15 16 6 -1 11 3 11 9 0 5 4 8 8 5 5 -3 19 6 30 19
12 14 26 25 32 25 5 0 10 7 10 15 0 9 6 12 17 8 12 -5 15 -2 11 9 -5 11 6 22
38 38 24 13 44 29 44 37 0 7 8 17 17 20 10 4 32 22 51 40 18 18 37 33 42 33 6
0 10 6 10 14 0 8 13 20 28 27 16 7 33 22 38 33 5 12 15 21 23 21 8 0 17 9 22
20 4 11 8 16 8 10 1 -5 22 13 48 40 26 28 53 49 60 47 7 -2 13 1 13 6 0 14 36
52 43 45 4 -3 9 2 13 11 3 9 12 16 20 16 8 0 14 7 14 16 0 8 5 12 10 9 9 -6
14 8 11 28 -1 6 25 10 32 5 8 -6 72 67 69 79 -2 7 2 14 8 14 5 1 15 2 21 3 6
0 17 12 24 26 8 14 14 21 15 17 0 -4 9 -3 20 3 11 6 18 15 15 21 -4 5 1 9 9 9
9 0 16 7 16 16 0 8 14 20 31 26 22 7 27 13 18 19 -9 5 -5 10 15 15 16 4 31 17
37 31 5 13 22 29 39 34 27 10 35 20 31 42 0 4 6 7 14 7 18 0 75 52 75 69 0 6
6 11 13 11 17 1 93 74 111 108 9 15 15 21 16 13 0 -17 40 21 40 39 0 5 5 10
11 10 13 0 49 38 49 52 0 4 7 8 15 8 8 0 15 5 15 10 0 17 44 57 58 52 7 -2 12
3 12 12 0 9 7 16 15 16 8 0 15 7 15 15 0 8 5 14 11 12 6 -1 19 12 28 29 9 17
29 36 44 42 16 6 27 15 24 19 -8 13 20 46 32 38 6 -3 11 0 11 8 0 8 11 22 25
31 14 9 25 23 25 31 0 8 5 15 11 15 16 0 39 27 39 47 0 15 2 16 10 3 8 -13 10
-12 10 3 0 9 6 17 14 17 8 0 17 7 20 16 3 8 11 12 17 8 7 -4 9 -3 6 3 -4 6 12
30 36 54 23 24 41 48 39 53 -2 5 5 6 14 2 11 -4 18 0 21 14 3 11 9 20 14 20 5
0 6 7 3 15 -5 11 -2 13 10 9 14 -6 21 5 17 29 0 4 4 7 10 7 17 0 84 72 81 87
-2 7 4 13 13 13 8 0 20 11 25 25 5 14 12 25 15 25 4 0 3 -4 0 -10 -3 -5 -2
-10 4 -10 6 0 13 11 17 25 3 14 10 25 14 25 5 0 11 8 15 18 3 11 17 24 31 31
14 6 22 16 19 21 -4 6 11 28 33 50 21 22 36 42 33 46 -3 3 -1 5 4 4 23 -5 35
1 35 18 0 9 11 26 25 36 14 10 25 24 25 30 0 6 9 17 21 24 12 7 18 16 15 19
-3 4 7 14 22 23 16 10 36 34 46 53 9 20 30 45 46 57 17 12 30 28 30 36 0 8 11
20 25 26 14 6 25 17 25 25 0 7 6 13 13 13 8 0 7 4 -3 10 -13 8 -11 11 8 16 12
4 22 13 22 20 0 8 5 14 11 14 5 0 8 4 5 9 -4 5 10 19 29 31 19 12 35 26 35 31
0 6 -5 7 -12 3 -7 -4 -8 -3 -4 5 4 6 11 9 16 6 5 -3 21 12 35 35 14 22 29 40
34 40 5 0 12 11 15 25 4 14 11 23 16 20 6 -3 10 1 10 9 0 9 15 32 34 51 19 20
37 44 41 54 3 11 12 22 20 25 8 3 15 12 15 20 0 9 6 13 13 10 8 -3 18 9 26 31
7 19 17 35 22 35 5 0 9 7 9 15 0 8 6 15 14 15 8 0 17 13 21 28 3 15 21 41 40
57 19 15 35 33 35 39 0 6 16 28 35 49 18 20 31 37 27 37 -4 0 1 5 11 11 9 5
17 15 17 22 0 7 9 18 19 24 11 7 22 25 26 41 3 17 19 43 35 58 16 16 30 34 30
41 0 6 11 20 25 31 14 11 30 34 36 52 7 20 16 29 25 26 13 -5 18 5 15 32 -1 6
5 12 14 12 8 0 15 7 15 15 0 8 5 15 10 15 6 0 10 9 10 19 0 11 9 23 20 26 11
3 23 18 27 33 3 15 17 35 29 45 13 10 23 22 21 26 -1 5 11 24 28 42 16 19 31
41 32 49 1 8 10 20 20 28 10 7 18 21 18 30 1 9 6 16 13 14 7 -1 16 6 19 15 4
10 15 26 24 37 10 10 21 31 24 47 4 16 11 27 17 26 6 -1 12 6 13 17 2 10 17
32 34 48 17 17 31 36 31 42 0 6 9 17 21 24 11 7 18 19 16 26 -3 7 2 20 11 29
30 28 42 46 45 67 2 11 12 27 23 35 10 8 15 15 10 15 -5 0 3 10 18 21 15 12
25 28 22 35 -3 8 -1 14 4 14 6 0 10 5 10 10 0 6 9 20 20 32 10 12 17 25 14 30
-3 4 9 21 27 37 20 18 29 34 24 42 -5 8 -4 10 3 5 7 -4 12 -3 12 2 0 5 9 19
20 32 11 13 20 32 20 42 0 10 7 21 15 24 8 4 15 13 15 20 0 8 7 17 16 21 8 3
13 12 10 19 -3 8 0 13 6 11 5 -1 12 7 14 18 1 10 13 27 25 36 12 9 19 21 15
28 -4 6 -2 11 3 11 6 0 11 7 11 15 0 8 6 15 13 15 6 0 13 11 13 24 1 14 19 41
43 64 27 26 39 45 35 56 -3 9 -1 16 4 16 6 0 14 10 18 22 4 12 18 31 31 41 14
11 22 26 19 34 -3 8 5 25 18 38 14 14 28 34 31 46 4 13 16 32 26 43 11 11 19
25 19 32 0 7 6 17 14 21 8 4 16 17 18 28 1 10 11 27 21 37 9 10 17 25 17 34 0
8 5 12 11 8 7 -4 9 0 5 12 -4 13 2 25 19 38 14 10 25 25 25 33 0 8 9 23 20 35
11 12 20 28 20 35 0 7 5 13 11 13 6 0 9 5 7 12 -2 6 9 25 24 42 15 17 28 38
28 47 0 9 11 28 25 43 13 14 22 33 19 40 -3 8 3 19 15 26 12 6 21 17 21 25 0
8 5 15 11 15 6 0 8 7 5 15 -3 9 1 18 9 21 8 4 15 14 15 24 0 10 6 20 14 23 9
4 12 14 9 28 -5 17 -3 21 9 16 16 -6 23 5 38 63 3 14 11 24 18 23 10 -3 17 17
13 40 0 4 4 7 9 7 6 0 10 7 10 15 0 8 5 15 12 15 6 0 9 3 5 6 -3 3 3 15 14 27
10 11 19 31 19 44 0 13 10 29 24 39 14 8 23 21 20 28 -3 7 2 19 11 26 8 7 15
19 15 26 0 8 4 14 10 14 5 0 14 18 20 41 6 22 18 43 26 46 7 3 14 16 14 29 0
13 9 28 20 34 11 6 20 20 20 31 0 11 4 18 9 14 9 -5 27 34 22 44 -2 2 4 8 13
13 9 5 14 14 10 19 -3 6 4 19 16 29 12 10 19 24 15 29 -3 6 -1 11 4 11 6 0 11
13 11 28 0 18 9 36 24 50 14 11 30 39 37 61 7 23 18 41 24 41 7 0 13 11 13 25
0 15 11 36 26 50 14 13 26 34 26 45 0 14 4 19 12 14 7 -5 9 -2 5 9 -3 9 0 18
9 21 8 3 14 15 14 26 0 12 9 31 21 43 11 12 23 35 26 50 3 16 12 31 20 34 8 3
12 12 9 20 -4 8 4 24 16 35 13 11 17 17 11 13 -7 -3 -13 -2 -13 3 0 6 7 12 15
16 8 3 15 14 15 25 0 11 9 25 20 31 11 6 20 21 20 35 0 32 10 56 21 50 5 -3
11 6 15 20 3 14 10 25 16 25 5 0 8 6 6 13 -4 22 13 58 24 51 8 -5 9 -1 5 10
-4 10 -1 19 8 22 8 4 15 12 15 19 0 6 9 20 21 31 13 12 19 27 16 41 -2 13 0
23 4 23 5 0 9 9 9 19 0 10 6 21 14 24 8 3 17 19 21 35 3 17 13 33 22 36 9 4
13 13 9 21 -3 9 1 18 10 22 9 3 14 13 11 24 -3 10 5 27 19 40 16 15 22 29 18
41 -3 10 -1 18 5 18 6 0 11 7 11 15 0 8 5 15 11 15 5 0 8 4 5 9 -3 5 1 12 10
15 8 3 13 10 10 15 -4 5 -3 11 1 13 16 7 43 67 43 96 0 30 19 57 21 30 0 -7 5
2 10 20 6 18 19 42 30 53 11 11 17 24 14 29 -4 6 -2 10 3 10 5 0 12 14 16 32
3 17 14 40 23 50 9 10 17 27 18 38 1 11 11 31 22 44 12 13 18 27 15 31 -4 3
-1 9 5 13 6 4 13 16 15 27 1 11 9 26 16 33 11 12 16 35 13 55 -1 4 6 10 14 13
8 4 15 12 15 20 0 8 4 14 10 14 5 0 12 17 16 38 4 20 12 44 20 52 7 8 14 20
15 25 4 19 34 80 42 83 4 2 7 10 7 18 0 8 4 14 9 14 5 0 15 17 21 38 6 20 14
44 17 52 4 8 7 19 7 23 1 4 8 12 16 17 8 5 11 10 7 10 -5 0 3 21 17 48 13 26
37 76 51 112 39 93 58 130 68 130 5 0 7 6 5 12 -3 7 4 22 14 33 11 11 17 28
14 38 -2 11 -2 26 1 34 5 12 7 12 14 1 7 -10 9 -8 10 7 1 11 1 23 0 28 0 4 4
7 10 7 5 0 8 4 5 9 -7 11 22 71 34 71 5 0 12 17 16 38 4 20 10 39 13 42 12 10
41 68 41 82 0 7 8 29 18 48 11 19 17 41 15 47 -5 14 20 43 37 43 7 0 9 8 5 19
-3 11 -1 22 5 26 6 4 9 14 5 23 -3 9 -3 13 1 9 10 -9 34 40 34 69 0 13 9 28
20 34 11 6 19 14 19 18 -1 4 0 9 1 12 1 3 3 14 5 25 5 27 26 66 48 91 10 12
17 25 16 30 -3 16 13 74 22 80 5 3 9 14 9 25 0 10 4 19 8 19 13 0 40 54 34 69
-2 8 1 19 9 25 22 17 49 84 42 102 -4 12 -3 15 6 10 9 -6 12 -2 11 10 -4 33 0
45 10 39 6 -3 10 3 10 13 0 11 7 25 15 32 9 7 14 19 11 25 -2 7 4 19 15 28 10
9 19 27 19 40 0 13 5 28 11 34 5 5 11 21 13 34 5 33 17 61 37 82 20 22 31 67
16 67 -6 0 0 11 13 25 13 14 20 25 16 25 -5 0 -3 7 4 15 7 9 10 18 7 21 -7 8
32 84 44 84 5 0 9 9 9 19 0 11 5 23 11 26 6 4 8 13 5 21 -3 8 -2 14 3 14 9 0
29 42 34 75 6 29 19 58 35 74 7 7 11 20 7 29 -3 8 3 21 12 28 15 11 15 13 3
14 -12 0 -11 4 4 15 11 8 16 18 13 22 -4 3 1 15 10 26 10 10 17 20 16 21 -7 4
11 46 19 46 6 0 8 12 5 26 -3 17 0 28 10 31 8 3 12 12 9 20 -3 8 1 21 9 29 8
9 15 26 15 40 0 13 5 24 11 24 5 0 8 4 4 9 -3 6 3 14 12 20 10 6 15 11 10 11
-4 0 -1 13 8 30 8 16 15 38 15 48 0 24 24 72 42 84 10 6 10 10 -2 18 -13 9 -7
14 13 11 7 -1 11 22 8 47 -1 6 3 12 9 12 6 0 8 5 5 10 -3 6 1 17 9 26 9 9 14
20 11 25 -4 5 -1 9 5 9 6 0 9 4 5 9 -3 6 10 39 30 75 19 36 35 76 35 90 0 13
5 26 10 28 6 2 12 13 13 25 0 13 7 25 15 28 7 3 10 10 7 15 -4 6 1 22 10 36 9
13 13 29 10 34 -3 5 2 21 11 35 9 14 12 25 8 25 -5 0 0 7 10 15 11 8 19 28 20
45 1 16 5 30 9 30 5 0 5 9 2 20 -3 11 -2 20 2 20 17 0 55 79 48 100 -4 11 -2
20 4 20 6 0 11 9 11 20 0 11 5 20 10 20 6 0 10 13 10 30 0 17 9 37 21 49 12
11 19 23 16 28 -3 4 2 24 10 43 9 19 15 39 14 44 -1 5 5 16 14 26 8 9 13 25 9
34 -3 9 -2 16 4 16 11 0 42 83 42 113 0 10 11 28 25 39 19 15 24 25 19 44 -4
15 -2 24 6 24 6 0 9 4 6 9 -4 5 -1 11 5 13 6 2 12 23 15 46 2 23 15 63 29 87
13 25 21 45 17 45 -4 0 -1 4 6 9 8 5 15 20 15 35 1 14 6 26 10 26 5 0 6 9 2
19 -4 12 1 24 13 33 10 7 26 43 36 81 10 37 23 67 28 67 5 0 8 8 7 18 -3 34 1
53 11 47 6 -4 10 5 10 19 0 14 4 26 9 26 4 0 6 12 3 26 -3 19 -1 25 7 20 7 -5
11 2 11 18 0 13 5 26 10 28 6 2 12 14 13 28 1 14 9 32 17 40 9 9 22 48 30 88
7 40 17 72 22 72 5 0 6 5 3 10 -3 6 -1 10 5 10 7 0 10 6 7 13 -2 6 1 21 6 32
6 11 13 31 15 44 2 14 10 30 19 36 9 7 13 17 10 22 -4 6 -1 13 7 16 9 4 12 14
9 28 -4 14 0 25 11 31 10 6 15 16 11 28 -3 10 1 25 10 34 9 9 14 20 11 24 -3
5 2 21 10 37 8 15 15 39 16 51 1 13 8 26 15 28 7 3 10 12 6 22 -3 9 -1 19 5
23 6 3 13 19 16 35 3 16 13 37 22 47 9 10 14 25 10 35 -4 11 1 22 14 31 22 16
26 39 8 45 -8 3 -4 9 10 17 15 8 22 21 22 41 0 17 5 30 11 30 6 0 9 6 6 13 -2
6 2 19 9 27 7 8 18 38 25 65 6 28 16 60 22 72 5 11 6 26 3 32 -4 6 -4 11 1 11
13 0 53 82 55 113 1 15 5 27 9 27 8 0 26 45 34 90 4 19 14 43 22 52 8 9 12 22
8 27 -3 6 -1 11 5 11 7 0 10 7 6 15 -3 8 -1 15 4 15 5 0 21 39 36 88 16 48 34
92 41 98 7 6 13 19 13 28 0 10 7 24 15 33 9 9 13 23 10 34 -4 10 -2 19 4 19 5
0 10 8 10 18 1 42 8 67 18 65 6 -1 14 11 18 27 4 17 11 30 16 30 6 0 8 9 4 19
-3 11 -1 22 5 26 12 8 33 51 35 75 1 8 3 26 4 40 1 20 3 22 11 10 8 -12 10
-10 10 9 0 13 8 30 18 38 12 10 14 16 5 19 -15 7 1 44 24 57 8 5 11 16 8 28
-4 11 -2 19 4 19 6 0 11 7 11 15 0 8 5 15 11 15 5 0 9 8 8 18 -2 9 4 33 13 52
9 19 22 53 29 75 7 22 22 58 35 80 12 22 24 51 25 65 2 14 12 31 22 39 10 7
16 19 13 27 -3 7 -1 16 5 19 5 4 7 10 4 15 -3 5 4 18 16 29 12 11 19 26 16 34
-3 8 1 24 10 36 8 12 16 28 17 34 6 31 18 57 28 57 6 0 8 9 5 20 -3 11 -1 20
4 20 4 0 6 7 3 15 -4 10 0 15 11 15 12 0 15 5 10 20 -4 11 -2 20 4 20 6 0 14
12 17 28 4 15 13 36 21 48 7 11 10 24 6 28 -4 3 3 13 15 22 14 10 22 26 22 45
0 16 5 29 10 29 6 0 10 6 10 14 0 7 8 24 19 37 10 13 16 30 13 37 -2 7 4 22
14 33 9 10 13 19 8 19 -5 0 -3 4 5 9 8 5 15 17 16 28 4 33 17 73 25 73 4 0 13
20 20 45 7 24 16 42 21 39 5 -2 11 7 15 21 3 14 10 25 14 25 13 0 20 44 8 51
-7 5 -4 11 10 20 11 7 18 18 15 25 -2 6 5 21 17 32 12 11 19 25 15 31 -3 6 -1
11 4 11 6 0 11 9 11 21 0 11 7 27 15 35 8 9 15 24 15 35 0 11 7 27 15 35 8 9
15 24 15 35 0 10 3 18 8 18 19 -3 26 2 12 11 -12 7 -11 13 10 34 13 15 20 26
16 26 -4 0 0 7 8 16 9 8 16 23 16 32 0 10 7 28 16 40 8 12 12 22 7 22 -4 0 0
5 10 11 9 5 17 19 17 29 0 11 5 20 10 20 6 0 10 9 10 21 0 11 7 27 15 36 8 8
13 18 10 23 -3 4 2 10 10 14 8 3 15 14 15 25 0 11 4 22 9 25 14 9 51 90 51
112 0 19 19 57 20 39 0 -5 12 11 25 38 13 26 22 54 19 62 -4 8 1 17 9 21 9 3
13 12 10 20 -3 8 1 14 11 14 9 0 16 7 16 15 0 8 5 15 11 15 6 0 9 7 5 15 -3 8
-1 15 5 15 6 0 9 6 6 14 -3 8 3 22 14 32 10 9 19 25 19 36 0 10 4 18 9 18 7 0
13 14 21 48 1 4 13 22 26 40 14 17 22 37 19 42 -3 6 -1 10 4 10 6 0 11 9 11
20 0 11 7 23 15 26 8 4 15 14 15 24 0 10 5 20 10 22 6 2 12 13 13 26 0 12 5
22 9 22 4 0 8 9 8 20 0 11 5 20 11 20 6 0 9 6 7 12 -3 7 4 21 14 32 10 11 18
28 18 37 0 10 5 19 11 21 5 2 11 10 13 18 6 31 26 70 36 70 5 0 10 9 10 20 0
11 9 25 20 32 11 7 20 19 20 26 0 15 25 64 53 101 9 13 17 34 17 48 0 13 7 26
15 29 8 4 15 12 15 19 0 7 3 15 8 17 11 5 42 67 42 84 0 9 5 12 10 9 6 -3 10
3 10 15 0 11 9 30 20 42 11 12 20 30 20 39 0 10 5 21 10 24 6 3 10 14 10 25 0
10 7 20 15 24 8 3 15 15 15 26 0 12 5 18 10 15 6 -3 10 3 10 14 0 12 6 21 13
21 10 1 66 98 60 106 -1 2 9 16 23 31 17 18 21 29 13 34 -8 5 -5 11 10 20 11
8 21 21 21 30 0 9 9 24 20 34 10 9 19 20 19 24 -2 14 14 51 21 51 5 0 16 14
24 30 9 17 24 45 33 63 9 17 23 38 30 45 7 7 13 22 13 33 0 11 7 22 15 25 8 4
15 10 15 15 0 6 9 20 20 31 14 15 16 24 9 29 -8 5 -7 9 3 15 22 14 58 66 52
75 -3 5 0 9 5 9 6 0 11 6 11 14 0 8 7 16 15 20 8 3 15 14 15 25 0 11 6 26 13
33 7 7 16 21 20 31 3 9 11 17 17 17 5 0 10 5 10 11 0 6 14 31 30 56 17 24 30
47 30 50 0 3 14 23 31 44 17 21 27 39 22 39 -4 0 0 5 10 11 11 7 16 17 12 29
-4 12 2 25 17 37 13 10 32 34 42 53 10 19 27 44 37 55 17 19 19 24 19 45 0 6
7 10 15 10 8 0 15 6 15 13 0 21 30 77 41 77 5 0 9 7 9 15 0 8 7 15 16 15 11 0
14 5 10 16 -3 9 4 25 20 39 14 13 23 29 19 34 -3 6 2 11 12 11 15 0 16 2 3 10
-13 8 -13 10 1 10 18 0 49 40 49 62 0 7 9 19 20 26 11 6 17 18 14 25 -2 7 9
26 25 41 17 16 28 32 26 36 -3 4 7 15 20 24 14 9 23 21 20 26 -4 6 -1 10 4 10
6 0 11 9 11 21 0 11 5 17 10 14 6 -4 13 7 16 24 4 17 11 31 16 31 16 0 38 28
38 49 0 11 7 24 16 29 9 5 15 12 15 15 -1 4 2 8 7 8 11 2 35 40 29 46 -3 3 7
16 24 30 16 14 29 30 29 37 0 7 13 26 30 42 16 16 30 35 30 42 0 6 5 12 11 12
5 0 7 5 4 10 -3 6 1 13 9 16 9 3 16 12 16 19 0 7 6 15 14 18 7 3 16 19 19 36
4 17 12 31 18 31 17 0 49 40 49 61 0 12 5 16 15 13 10 -4 15 0 15 15 0 12 11
32 25 45 14 13 25 27 25 32 0 5 23 34 50 63 28 30 50 64 50 74 0 13 5 17 15
13 9 -3 19 3 25 14 6 11 8 20 5 20 -3 0 3 10 15 22 11 12 20 28 20 35 0 8 4
11 10 8 5 -3 16 10 24 30 8 19 22 38 31 41 8 3 15 15 15 25 0 10 6 19 14 19 7
0 21 16 30 35 10 19 28 42 42 51 13 9 24 22 24 29 0 18 53 84 68 85 6 0 12 9
12 19 0 11 9 23 20 26 11 3 20 13 20 22 0 8 9 17 20 20 11 3 20 11 20 18 0 7
7 15 15 19 8 3 12 11 9 19 -3 8 6 21 21 31 14 9 23 21 20 26 -5 9 32 50 45 50
4 0 15 16 26 35 10 19 25 35 33 35 8 0 12 3 9 6 -3 3 9 20 27 38 18 18 35 42
39 52 3 11 16 24 28 29 12 6 26 19 32 29 6 11 23 31 39 44 15 13 27 28 27 33
0 5 23 30 50 56 28 26 50 51 50 56 0 12 103 112 112 110 4 -2 8 2 8 7 0 6 6
10 14 10 27 0 132 72 211 145 44 41 100 90 125 109 25 19 59 48 75 65 42 42
83 61 133 61 29 0 44 5 49 15 3 9 18 22 33 30 30 16 98 145 121 230 7 28 21
64 30 80 12 20 19 55 20 105 5 151 -20 212 -107 256 -25 13 -58 35 -73 50 -14
15 -38 31 -53 36 -16 6 -28 14 -28 19 0 5 -7 9 -15 9 -20 0 -95 40 -95 51 0 5
-6 9 -14 9 -7 0 -19 7 -26 15 -6 7 -35 26 -63 41 -142 72 -167 84 -208 99 -24
9 -51 17 -59 19 -14 2 -83 21 -120 33 -30 10 -256 24 -264 16z m-5513 -12578
c-3 -9 -8 -14 -10 -11 -3 3 -2 9 2 15 9 16 15 13 8 -4z m-1373 -3265 c0 -5 -5
-10 -11 -10 -5 0 -7 5 -4 10 3 6 8 10 11 10 2 0 4 -4 4 -10z m-27615 -9990 c3
-5 1 -10 -4 -10 -6 0 -11 5 -11 10 0 6 2 10 4 10 3 0 8 -4 11 -10z m13946
-6962 c3 -28 -2 -95 -11 -128 -4 -19 -14 -72 -21 -118 l-13 -82 -28 27 c-30
29 -36 61 -15 82 9 10 9 15 1 18 -7 2 -9 13 -7 24 4 14 8 17 13 9 5 -8 9 -4
13 9 3 12 0 21 -6 21 -7 1 -6 5 3 13 17 14 52 79 49 93 -1 5 -1 17 0 27 1 19
20 24 22 5z m-25431 -1098 c0 -5 -2 -10 -4 -10 -3 0 -8 5 -11 10 -3 6 -1 10 4
10 6 0 11 -4 11 -10z"/>
</g>
</svg>
