<?xml version="1.0" standalone="no"?>
<!DOCTYPE svg PUBLIC "-//W3C//DTD SVG 20010904//EN"
 "http://www.w3.org/TR/2001/REC-SVG-20010904/DTD/svg10.dtd">
<svg version="1.0" xmlns="http://www.w3.org/2000/svg"
 width="4467.000000pt" height="1943.000000pt" viewBox="0 0 4467.000000 1943.000000"
 preserveAspectRatio="xMidYMid meet">
<metadata>
Created by potrace 1.16, written by Peter Selinger 2001-2019
</metadata>
<g transform="translate(0.000000,1943.000000) scale(0.100000,-0.100000)"
fill="#000000" stroke="none">
<path d="M8209 19401 c-23 -18 -23 -22 -25 -222 -1 -212 -3 -226 -36 -296 -11
-23 -17 -47 -13 -53 3 -5 1 -10 -4 -10 -6 0 -25 28 -41 62 -17 34 -39 71 -49
82 -10 12 -21 33 -25 47 -8 36 -149 166 -206 192 -25 11 -52 23 -61 28 -9 4
-34 11 -55 15 -22 3 -44 11 -51 16 -6 5 -22 10 -35 11 -20 2 -67 18 -143 47
-49 19 -127 31 -205 31 -284 3 -438 2 -540 -5 -63 -4 -132 -9 -152 -9 -21 -1
-38 -4 -38 -7 0 -3 -12 -5 -27 -6 -44 -2 -107 -10 -123 -17 -14 -5 -49 -12
-125 -24 -16 -3 -31 -8 -33 -12 -1 -4 -18 -5 -37 -3 -20 2 -41 0 -48 -6 -6 -5
-30 -12 -52 -16 -104 -18 -195 -69 -195 -110 0 -24 36 -47 64 -40 35 8 68 -1
97 -29 13 -12 42 -28 64 -36 22 -7 68 -26 103 -42 34 -16 68 -29 76 -29 7 0
19 -7 26 -15 7 -8 18 -15 24 -15 7 0 48 -18 91 -40 43 -22 84 -40 90 -40 7 0
20 -9 30 -20 10 -11 24 -20 30 -20 16 0 51 -18 92 -47 17 -13 34 -23 38 -23
19 0 133 -87 152 -117 13 -18 28 -64 34 -101 6 -37 16 -73 22 -80 7 -9 5 -18
-7 -30 -9 -10 -16 -22 -16 -27 0 -4 -16 -30 -35 -56 -19 -27 -35 -52 -35 -55
0 -8 -29 -75 -41 -94 -5 -8 -11 -19 -13 -25 -11 -30 -65 -202 -68 -215 -2 -8
-9 -20 -16 -25 -11 -9 -24 -50 -64 -200 -19 -74 -13 -281 12 -345 10 -27 32
-106 36 -130 8 -52 142 -333 167 -351 5 -3 18 -23 31 -43 31 -51 128 -148 211
-211 39 -29 77 -60 84 -69 7 -9 19 -16 26 -16 7 0 24 -12 38 -26 l26 -26 -19
-37 c-25 -49 -64 -302 -47 -313 9 -6 9 -8 0 -8 -19 0 -16 -75 4 -141 9 -30 17
-83 19 -119 1 -36 3 -67 4 -70 1 -3 1 -35 0 -72 -1 -41 3 -69 10 -73 8 -5 8
-10 2 -14 -17 -11 -25 -51 -10 -51 10 0 10 -2 1 -8 -7 -4 -14 -28 -17 -52 -2
-25 -8 -56 -14 -70 -5 -14 -10 -28 -11 -33 0 -4 -11 -21 -23 -37 -27 -37 -30
-49 -31 -125 0 -36 7 -80 18 -110 14 -36 16 -50 7 -53 -7 -2 -12 -10 -12 -18
0 -8 -7 -14 -15 -14 -8 0 -15 -5 -15 -10 0 -6 -22 -33 -50 -61 -27 -27 -50
-56 -50 -64 0 -7 -6 -15 -12 -18 -10 -3 -10 -9 0 -26 7 -12 10 -26 7 -31 -7
-11 10 -42 52 -95 45 -59 91 -184 96 -264 1 -13 8 -26 15 -29 6 -2 12 -11 12
-20 0 -9 9 -40 19 -68 17 -43 18 -54 7 -70 -8 -10 -17 -33 -20 -51 -7 -30 -78
-110 -170 -190 -20 -18 -34 -33 -30 -33 3 0 1 -6 -5 -14 -9 -11 -9 -20 -2 -35
6 -11 11 -33 11 -49 0 -16 7 -47 16 -68 25 -59 8 -246 -25 -281 -22 -23 -32
-72 -38 -178 -10 -188 -12 -203 -33 -241 -58 -105 -94 -146 -133 -149 -5 0
-14 -8 -21 -17 -7 -10 -16 -15 -19 -11 -4 3 -7 2 -7 -4 0 -6 -26 -19 -57 -29
-65 -19 -89 -36 -99 -68 -3 -11 -18 -33 -32 -48 -14 -16 -22 -28 -18 -28 22 0
-49 -42 -110 -65 -171 -65 -261 -97 -289 -104 -17 -4 -39 -13 -50 -19 -11 -6
-54 -23 -95 -38 -41 -15 -95 -36 -120 -47 -42 -19 -157 -62 -280 -105 -30 -11
-81 -26 -113 -33 -46 -11 -62 -20 -75 -42 -13 -21 -14 -31 -6 -45 12 -18 172
-106 214 -116 14 -4 48 -18 75 -31 28 -13 85 -37 128 -55 58 -24 77 -37 77
-51 0 -34 63 -170 92 -200 16 -15 41 -34 56 -41 26 -13 27 -17 27 -88 0 -61 5
-86 27 -133 l27 -57 -35 -93 c-20 -50 -44 -111 -55 -133 -12 -26 -24 -85 -32
-153 l-11 -112 -71 -34 c-83 -41 -146 -90 -139 -109 7 -18 -69 -27 -172 -20
-45 3 -84 1 -87 -3 -3 -5 -7 -45 -8 -89 -2 -43 -5 -85 -7 -92 -3 -7 -19 3 -44
28 -25 25 -50 40 -65 40 -13 0 -21 4 -18 10 10 16 -48 12 -73 -6 -12 -8 -22
-22 -22 -30 0 -8 -7 -14 -15 -14 -8 0 -15 -4 -15 -9 0 -16 -33 -17 -63 -3 -29
14 -102 9 -112 -9 -4 -5 -16 -3 -28 5 -12 8 -47 16 -77 19 -30 3 -73 14 -95
25 -56 28 -156 53 -234 58 -36 3 -82 8 -101 11 -37 6 -42 7 -105 17 -22 3 -74
8 -115 11 -41 3 -118 9 -170 13 -156 14 -328 7 -440 -17 -67 -15 -189 -33
-240 -36 -25 -2 -61 -6 -80 -9 -19 -3 -96 -12 -170 -21 -74 -9 -142 -18 -150
-20 -8 -3 -48 -7 -88 -10 -41 -3 -77 -7 -80 -9 -25 -15 -677 -26 -701 -12 -6
4 -21 4 -33 1 -13 -3 -55 -1 -93 5 -39 6 -88 13 -110 15 -22 2 -80 9 -130 15
-49 6 -112 13 -140 16 -27 3 -84 12 -125 21 -41 8 -88 17 -105 19 -16 3 -52
10 -79 16 -27 6 -78 11 -112 12 -35 0 -64 4 -64 9 0 4 -21 6 -47 6 -27 -1 -66
1 -88 4 -22 4 -83 9 -135 13 -52 3 -111 8 -130 10 -89 9 -374 11 -455 3 -49
-4 -121 -11 -160 -14 -38 -3 -91 -10 -117 -16 -43 -10 -48 -14 -48 -38 0 -27
30 -51 64 -51 17 0 165 -48 189 -61 10 -5 41 -14 69 -19 28 -6 65 -17 81 -25
17 -8 36 -15 44 -15 7 0 25 -7 38 -16 14 -9 25 -13 25 -10 0 4 15 -4 33 -17
17 -13 55 -30 82 -37 94 -24 288 -90 327 -111 10 -5 34 -13 55 -18 21 -5 70
-19 108 -31 39 -12 75 -22 80 -23 6 -2 31 -14 55 -29 54 -31 179 -88 193 -88
10 0 75 -28 127 -54 14 -7 46 -19 73 -27 26 -7 47 -17 47 -20 0 -4 17 -13 38
-20 20 -6 96 -40 169 -75 73 -35 135 -64 138 -64 2 0 38 -15 77 -33 94 -43
150 -60 328 -96 174 -36 248 -49 315 -56 28 -3 61 -8 75 -11 13 -3 56 -9 95
-14 38 -5 123 -18 188 -29 64 -12 121 -20 125 -19 20 5 149 -26 214 -51 40
-17 93 -35 118 -41 25 -7 57 -18 71 -26 15 -7 40 -16 57 -19 62 -11 262 -90
262 -104 0 -5 11 -11 23 -15 13 -3 35 -15 50 -26 23 -19 25 -24 15 -53 -6 -17
-20 -42 -31 -54 -11 -13 -15 -23 -9 -23 6 0 9 -6 6 -14 -6 -17 27 -37 94 -56
23 -7 42 -16 42 -19 0 -3 -18 -26 -40 -49 -39 -42 -50 -82 -32 -107 19 -28
132 -84 197 -99 40 -9 48 -23 40 -72 -5 -27 -7 -55 -6 -63 1 -8 -3 -17 -9 -21
-7 -4 -14 -29 -17 -56 -4 -43 -1 -52 21 -73 20 -19 37 -24 80 -25 l54 0 33
-54 c18 -29 35 -74 39 -98 6 -38 3 -53 -21 -97 -39 -72 -50 -97 -56 -134 -7
-39 20 -126 51 -168 30 -40 39 -65 22 -65 -7 0 -13 -6 -14 -12 -1 -7 -5 -32
-10 -55 -6 -28 -6 -45 1 -52 8 -8 8 -11 0 -11 -13 0 -15 -70 -3 -85 4 -5 17
-38 28 -72 12 -34 29 -72 40 -83 12 -13 24 -50 32 -96 7 -42 18 -81 24 -87 20
-21 43 -81 61 -152 14 -58 45 -118 74 -145 4 -3 14 -22 23 -42 10 -21 23 -38
28 -38 6 0 8 -5 5 -10 -7 -11 45 -100 58 -100 4 0 7 -8 7 -18 0 -10 25 -56 55
-103 60 -93 137 -226 210 -364 98 -185 285 -448 372 -527 21 -18 73 -67 118
-109 44 -42 105 -98 135 -125 30 -27 57 -51 60 -54 13 -14 118 -89 136 -98 11
-6 42 -29 69 -51 27 -23 55 -41 62 -41 7 0 13 -5 13 -10 0 -6 12 -16 28 -22
15 -7 36 -19 47 -29 11 -9 40 -28 65 -42 25 -13 72 -40 105 -58 63 -36 86 -47
150 -74 22 -9 49 -20 60 -25 67 -30 94 -37 102 -29 9 9 91 -16 135 -41 10 -6
28 -10 40 -10 12 0 29 -6 37 -13 35 -30 361 -103 485 -109 97 -5 96 16 -3 157
-29 40 -74 162 -87 232 -4 21 -10 43 -15 48 -4 6 -12 29 -18 50 -5 22 -15 58
-20 80 -13 50 -14 105 -2 105 6 0 25 -9 43 -19 72 -43 221 -46 358 -8 30 8 58
13 62 11 4 -3 27 5 50 18 24 12 49 21 55 20 7 -2 33 6 57 18 25 11 51 20 59
20 8 0 25 9 39 19 13 11 37 23 52 27 15 3 30 12 33 20 2 7 11 10 19 7 8 -3 14
1 14 10 0 8 12 18 27 22 15 3 39 15 54 26 15 10 32 19 38 19 6 0 11 5 11 10 0
6 7 10 15 10 9 0 18 6 21 14 3 8 19 20 35 26 16 7 29 19 29 28 0 8 3 13 6 9
11 -10 84 39 163 111 27 23 53 42 59 42 5 0 70 57 142 128 116 111 155 155
195 221 5 9 20 32 33 52 12 20 22 40 20 45 -1 5 3 19 10 32 7 12 10 27 7 32
-3 6 1 10 9 10 9 0 16 5 16 11 0 6 11 25 25 43 14 18 22 36 18 39 -3 4 -1 7 4
7 18 0 95 141 101 183 4 35 7 38 29 32 20 -5 26 0 38 29 l14 34 54 -54 c85
-85 134 -70 178 55 12 35 21 45 35 43 23 -4 64 -3 104 1 17 2 44 4 60 5 17 1
40 12 52 24 15 15 32 21 50 19 16 -1 28 2 28 9 0 6 5 8 10 5 27 -17 95 119 83
165 -3 13 0 20 9 20 7 0 22 20 33 45 19 41 56 67 74 50 6 -6 27 -74 58 -185
20 -75 38 -93 85 -88 l38 4 0 -52 c0 -35 8 -66 23 -95 24 -45 88 -99 119 -99
21 0 74 25 80 37 1 5 16 18 32 31 l28 22 28 -20 c16 -11 44 -20 64 -20 40 0
99 33 116 66 16 28 70 28 70 0 0 -25 39 -106 51 -106 4 0 6 -6 3 -14 -7 -19
34 -61 77 -76 30 -11 43 -11 68 0 17 7 31 18 31 25 0 8 8 11 19 8 11 -3 27 3
38 14 14 14 24 17 35 9 12 -7 21 -5 33 8 16 16 21 13 84 -51 104 -107 167
-153 208 -153 19 0 32 4 29 9 -3 4 7 8 22 8 15 -1 32 1 37 2 6 2 21 3 35 2 23
-1 25 -4 25 -54 0 -89 34 -136 97 -135 30 0 44 -7 74 -38 61 -65 82 -104 93
-181 13 -87 22 -109 58 -150 30 -34 88 -48 115 -26 39 32 91 53 103 43 7 -6
26 -13 42 -16 15 -3 60 -16 98 -29 98 -34 128 -33 210 8 l70 34 20 -28 c11
-16 29 -32 40 -35 11 -4 27 -12 35 -18 20 -16 118 -56 138 -56 15 0 71 54 99
96 l14 22 50 -34 c42 -28 61 -34 108 -35 74 -2 104 1 116 11 6 4 29 14 53 21
50 14 70 6 135 -53 42 -38 109 -62 164 -57 15 1 36 -1 45 -5 23 -10 54 -3 51
12 -2 7 4 12 12 12 16 0 31 43 20 59 -3 6 -2 11 4 11 5 0 11 12 13 26 2 18 14
32 35 44 18 9 50 33 72 53 22 19 49 40 60 47 12 6 21 17 21 25 0 8 3 14 8 13
4 0 15 2 25 6 11 5 34 0 62 -13 25 -12 47 -21 51 -21 3 0 34 -21 70 -46 47
-34 77 -48 112 -52 80 -9 96 -8 100 9 3 15 121 145 125 138 31 -46 65 -83 86
-92 14 -7 32 -17 39 -24 7 -7 24 -13 37 -13 12 0 36 -7 51 -15 16 -8 36 -15
44 -15 26 0 77 -37 154 -111 41 -39 83 -76 94 -83 11 -6 28 -16 38 -22 15 -9
31 -6 83 18 36 17 65 38 68 48 6 21 22 18 64 -11 15 -10 41 -20 58 -21 18 -1
35 -6 37 -10 3 -4 16 -8 29 -8 14 0 60 -12 102 -26 94 -32 186 -34 433 -10 61
7 76 1 90 -37 7 -18 16 -41 20 -52 5 -11 14 -38 22 -60 7 -22 23 -57 35 -77
13 -21 23 -42 23 -47 0 -16 132 -271 141 -271 5 0 6 -7 3 -15 -4 -8 -1 -15 5
-15 6 0 11 -6 11 -13 0 -7 13 -34 30 -60 16 -26 28 -47 25 -47 -2 0 9 -23 25
-50 17 -28 30 -54 30 -59 0 -12 30 -71 65 -126 18 -27 41 -68 53 -90 22 -45
27 -7 -36 -335 -11 -58 -23 -145 -27 -195 -3 -49 -10 -128 -15 -175 -12 -112
-11 -409 1 -585 5 -77 12 -174 14 -215 3 -41 7 -106 10 -145 12 -171 2 -868
-13 -905 -10 -26 -17 -84 -27 -221 -3 -42 -15 -112 -26 -155 -11 -43 -27 -108
-35 -144 -7 -36 -21 -90 -29 -120 -9 -30 -20 -70 -25 -88 -4 -19 -15 -41 -24
-51 -9 -10 -16 -25 -16 -35 0 -9 -6 -27 -14 -39 -11 -17 -35 -97 -41 -137 0
-3 -7 -16 -14 -28 -7 -13 -10 -26 -7 -29 3 -4 1 -12 -4 -18 -7 -9 -6 -16 5
-25 9 -8 15 -29 15 -55 0 -37 6 -49 40 -84 32 -32 38 -44 31 -58 -6 -10 -19
-43 -30 -74 -11 -31 -33 -85 -50 -121 -17 -36 -31 -70 -31 -76 0 -7 -4 -12
-10 -12 -5 0 -10 -7 -10 -15 0 -8 -3 -15 -7 -15 -5 0 -15 -13 -24 -29 -9 -16
-52 -56 -95 -89 -44 -34 -91 -70 -106 -81 -14 -12 -31 -21 -38 -21 -6 0 -27
-12 -45 -26 -56 -43 -168 -83 -216 -79 -23 2 -60 -3 -83 -10 -24 -9 -80 -15
-136 -15 -52 0 -117 -7 -145 -14 -99 -29 -201 -69 -232 -92 -17 -13 -36 -24
-42 -24 -31 0 -231 -251 -231 -289 0 -7 12 -28 27 -48 27 -35 27 -35 93 -30
57 4 135 29 150 48 8 11 79 28 84 21 2 -4 7 -22 11 -39 l7 -33 1179 0 c779 0
1179 3 1179 10 0 6 7 10 15 10 14 0 70 51 113 104 17 21 22 24 22 10 0 -9 6
-22 14 -28 7 -6 20 -30 29 -53 15 -39 15 -42 -1 -46 -9 -3 123 -5 294 -6 l311
-1 24 26 c20 21 24 36 24 87 0 34 -3 78 -7 97 -4 19 -3 39 1 43 5 5 2 27 -6
49 -8 23 -13 52 -11 66 3 24 3 24 53 -17 27 -22 55 -41 61 -41 7 0 14 -3 16
-7 5 -12 81 -51 108 -57 14 -2 43 -12 65 -21 37 -16 106 -16 150 1 41 16 49
203 15 343 -32 126 -46 165 -94 255 -57 105 -72 134 -89 171 -8 17 -42 83 -76
148 -33 65 -61 124 -61 130 0 7 -8 28 -19 47 -26 50 -36 101 -21 110 18 11 21
103 4 135 -8 15 -12 39 -9 54 3 14 8 60 11 101 3 41 9 98 14 125 5 28 12 82
16 120 3 39 12 95 20 126 7 30 27 143 44 250 17 106 43 243 60 303 16 60 27
113 24 118 -3 4 -1 8 4 8 5 0 12 12 15 27 3 16 7 35 10 43 13 49 18 68 20 95
2 17 6 35 9 41 8 11 35 117 43 164 3 19 11 53 17 75 12 44 12 46 22 122 4 29
13 68 21 87 8 19 17 50 19 70 2 19 8 41 12 47 4 6 8 30 9 53 2 22 6 61 9 86 3
25 6 63 7 85 1 22 7 63 14 90 24 90 29 158 30 345 0 169 -9 321 -20 360 -3 9
-7 41 -9 71 -3 30 -8 67 -11 82 -4 15 -5 27 -1 27 9 0 46 -77 40 -83 -6 -6 83
-186 124 -252 36 -56 67 -131 82 -195 7 -30 40 -111 73 -180 81 -171 140 -319
138 -353 -1 -15 14 -76 33 -135 19 -59 37 -118 41 -132 54 -206 56 -216 65
-425 7 -166 13 -223 30 -273 11 -35 20 -71 20 -79 0 -27 84 -143 108 -149 26
-7 84 -121 122 -239 12 -38 33 -92 45 -120 25 -57 63 -214 63 -262 0 -18 0
-86 0 -150 0 -65 0 -131 0 -148 0 -16 -4 -32 -8 -35 -5 -3 -11 -32 -15 -65 -3
-33 -8 -73 -11 -90 -2 -16 -6 -41 -8 -55 -2 -14 -9 -51 -16 -83 -6 -31 -8 -61
-5 -66 3 -5 1 -12 -5 -16 -5 -3 -9 -22 -8 -42 1 -24 -4 -38 -15 -45 -10 -5
-17 -18 -17 -29 0 -11 -4 -28 -9 -37 -21 -39 -44 -376 -31 -455 22 -137 66
-246 139 -345 60 -80 112 -111 185 -111 93 1 95 3 95 122 0 103 23 241 42 252
5 4 9 17 9 30 0 33 17 41 42 18 11 -10 21 -16 22 -14 0 2 18 -4 39 -14 37 -17
39 -17 57 1 16 16 18 26 10 58 -11 51 -5 63 42 87 22 11 51 32 63 47 l23 26
-3 -118 c-3 -95 0 -129 15 -172 27 -76 90 -186 111 -191 10 -3 21 -13 24 -24
8 -24 30 -30 99 -25 64 5 75 14 77 61 0 17 3 39 5 50 3 11 9 45 13 75 5 30 17
73 26 95 10 22 22 51 28 65 6 14 11 34 13 44 1 11 9 25 18 31 9 7 16 23 16 37
0 18 11 33 40 52 22 14 40 33 40 41 0 8 8 15 18 15 22 0 63 42 87 88 30 61 65
183 66 232 1 42 6 53 40 86 42 41 61 88 52 132 -3 15 -5 32 -4 37 16 120 -1
309 -33 371 -13 23 -13 29 0 41 18 19 28 57 21 89 -6 35 10 17 26 -29 7 -21
17 -39 22 -40 32 -4 70 -79 95 -187 7 -30 24 -77 38 -105 14 -27 28 -57 32
-65 4 -8 16 -16 26 -18 11 -1 26 -17 33 -35 14 -31 81 -119 111 -145 66 -57
126 -76 152 -49 7 8 20 12 28 10 26 -7 37 17 48 102 16 115 8 506 -12 635 -22
134 -25 147 -48 193 -29 58 -18 62 39 12 28 -25 56 -45 62 -45 6 0 11 -4 11
-9 0 -7 46 -31 179 -95 32 -15 136 -12 186 5 38 13 40 16 48 68 6 42 4 58 -8
71 -8 9 -22 39 -30 67 -8 27 -26 67 -40 87 -14 20 -25 43 -25 51 0 8 -4 15
-10 15 -5 0 -10 7 -10 15 0 8 -15 39 -34 68 -18 28 -46 73 -62 99 -16 25 -69
92 -119 149 -49 57 -103 119 -118 139 -16 19 -45 53 -65 75 -21 22 -74 83
-119 135 -45 52 -103 114 -128 138 -25 24 -45 50 -45 57 0 8 -20 39 -44 69
-31 37 -43 60 -39 74 2 11 -1 31 -8 43 -26 47 -46 124 -53 201 -1 3 -4 10 -8
14 -5 4 -8 20 -8 35 0 15 -5 40 -12 56 -6 15 -13 37 -15 47 -2 11 -10 38 -17
60 -26 76 -34 121 -41 221 -9 124 -12 150 -14 150 -1 0 -4 23 -5 50 -2 28 -7
102 -11 165 -4 63 -12 147 -19 186 -6 40 -11 100 -9 135 3 77 -14 235 -32 304
-16 60 -39 204 -34 209 2 3 45 -4 94 -14 97 -20 128 -25 190 -35 22 -4 47 -9
55 -12 8 -3 38 -7 65 -9 52 -4 73 -7 165 -23 70 -12 103 -19 165 -35 102 -27
151 -37 180 -35 17 1 100 -10 185 -24 85 -15 188 -29 229 -32 41 -3 77 -7 80
-10 4 -2 50 -5 102 -6 105 -2 301 -23 318 -33 6 -4 11 -12 11 -18 0 -5 19 -35
43 -66 50 -67 75 -104 101 -146 10 -17 35 -49 55 -72 20 -22 55 -62 78 -90 43
-52 63 -72 366 -389 490 -510 532 -554 597 -646 34 -46 79 -120 99 -164 64
-135 71 -149 84 -171 7 -12 18 -28 24 -35 6 -8 17 -34 24 -59 7 -25 18 -54 25
-65 7 -11 15 -39 19 -62 4 -24 10 -43 14 -43 13 0 66 -182 76 -260 3 -24 12
-54 19 -65 8 -12 15 -37 17 -56 2 -19 5 -38 8 -44 6 -11 8 -45 12 -168 2 -68
7 -94 21 -112 22 -28 23 -36 4 -29 -19 7 -25 -4 -28 -56 -1 -23 -12 -63 -25
-88 -13 -25 -23 -53 -23 -61 0 -9 -21 -38 -46 -66 -26 -27 -75 -82 -110 -121
-38 -42 -85 -82 -116 -99 -29 -15 -61 -34 -70 -42 -18 -16 -65 -43 -118 -69
-19 -9 -45 -25 -59 -35 -13 -10 -32 -19 -42 -19 -20 0 -57 -17 -201 -93 -49
-26 -88 -44 -88 -41 0 2 -10 -4 -22 -16 -12 -11 -26 -20 -32 -20 -5 0 -41 -16
-80 -35 -61 -31 -77 -45 -114 -99 -30 -45 -43 -76 -45 -105 -2 -35 -8 -45 -41
-68 -29 -19 -38 -22 -33 -9 7 17 -8 21 -39 9 -16 -6 -16 -7 1 -13 15 -5 5 -17
-54 -63 -40 -31 -77 -54 -82 -51 -5 3 -9 -2 -9 -10 0 -9 -12 -18 -27 -22 -16
-3 -60 -22 -100 -40 -40 -19 -85 -36 -101 -38 -16 -2 -35 -7 -43 -12 -8 -5
-18 -9 -24 -10 -5 -1 -39 -9 -75 -18 -36 -8 -76 -18 -90 -20 -14 -3 -50 -10
-80 -16 -100 -20 -247 -40 -332 -45 -148 -10 -203 -16 -215 -27 -8 -7 -43 -8
-100 -3 -148 13 -275 15 -331 4 -89 -18 -310 -117 -360 -162 -10 -10 -23 -17
-28 -17 -11 -1 -74 -57 -74 -66 0 -4 -36 -41 -80 -82 -45 -41 -88 -88 -97
-106 -9 -17 -22 -35 -29 -39 -20 -11 -44 -73 -44 -112 0 -53 28 -69 128 -74
82 -3 87 -2 107 22 11 14 44 35 73 46 61 24 62 24 62 10 0 -6 7 -26 16 -45
l16 -34 2054 0 2054 0 12 28 c6 15 17 41 24 59 8 17 16 64 19 105 2 40 8 102
12 138 4 36 6 80 5 98 -1 20 6 45 18 62 11 15 20 31 20 34 0 3 12 18 26 33 14
15 46 57 70 93 50 75 138 170 182 196 17 9 35 28 41 41 6 13 18 26 26 29 8 4
15 13 15 20 0 8 30 43 67 77 37 34 94 88 127 120 32 31 62 57 66 57 4 0 18 16
31 35 13 19 28 35 32 35 5 0 20 11 35 24 77 70 104 93 128 111 14 11 58 49 97
86 40 36 86 73 103 83 55 32 69 69 69 176 0 73 5 103 19 130 10 19 22 42 26
50 4 8 7 90 8 183 1 124 -3 182 -15 225 -9 31 -21 92 -28 135 -6 43 -17 83
-23 89 -7 7 -12 20 -12 30 0 38 -82 252 -108 281 -8 9 -12 17 -9 17 4 0 -20
52 -53 116 -33 63 -64 136 -69 162 -5 26 -28 91 -50 145 -23 54 -48 126 -57
160 -9 34 -20 69 -25 79 -5 9 -12 117 -15 240 -3 123 -8 226 -10 229 -5 9 23
215 37 264 6 22 16 65 22 95 7 30 15 60 18 65 4 6 12 29 18 53 7 23 15 42 20
42 5 0 25 -11 45 -25 20 -14 41 -25 45 -25 5 0 15 -7 22 -17 8 -9 28 -22 44
-30 17 -7 44 -22 60 -33 33 -21 50 -30 140 -80 33 -18 69 -41 80 -51 11 -10
101 -58 200 -107 288 -143 350 -172 367 -172 9 0 20 -4 23 -10 3 -5 15 -10 26
-10 11 0 22 -6 25 -14 7 -18 43 -31 169 -63 137 -34 159 -39 243 -62 83 -23
189 -47 274 -61 31 -6 86 -19 121 -30 36 -11 87 -22 113 -25 65 -7 194 -26
219 -32 11 -3 52 -11 90 -19 124 -25 384 -104 462 -140 17 -7 34 -14 37 -14 3
0 31 -12 63 -26 32 -14 67 -30 78 -35 11 -4 47 -20 80 -35 33 -15 62 -28 65
-29 22 -6 263 -136 342 -184 37 -22 70 -41 74 -41 7 0 97 -62 105 -73 4 -5 15
-14 26 -20 47 -27 111 -74 149 -108 22 -20 45 -38 50 -40 10 -4 57 -64 171
-221 81 -111 117 -152 241 -274 56 -56 102 -105 102 -110 0 -5 14 -23 30 -41
17 -18 30 -35 30 -39 0 -3 13 -23 29 -43 32 -40 114 -191 126 -231 4 -14 16
-36 26 -49 10 -13 16 -27 13 -32 -2 -4 4 -26 15 -47 11 -21 22 -69 26 -107 4
-39 10 -73 14 -78 4 -4 6 -115 4 -247 -2 -157 0 -240 7 -240 5 0 10 -7 10 -15
0 -9 6 -18 14 -21 26 -10 27 -60 1 -108 -13 -25 -22 -46 -19 -46 2 0 -2 -13
-11 -30 -8 -16 -16 -33 -17 -37 0 -5 -7 -12 -13 -18 -7 -5 -25 -34 -41 -64
-16 -30 -36 -63 -44 -73 -40 -51 -135 -82 -340 -112 -58 -9 -115 -18 -127 -20
-39 -8 -180 -9 -192 -2 -6 4 -21 4 -33 0 -12 -4 -45 -6 -73 -6 -27 0 -78 -4
-113 -9 -34 -5 -79 -11 -100 -14 -73 -9 -88 -13 -142 -37 -30 -13 -74 -33 -97
-43 -24 -10 -43 -23 -43 -28 0 -4 -4 -6 -9 -3 -8 5 -80 -49 -172 -128 -47 -40
-124 -161 -133 -207 -8 -44 0 -69 23 -69 14 0 14 2 1 10 -8 5 -10 10 -5 10 15
0 29 -12 48 -43 22 -35 61 -36 111 -2 20 14 42 25 49 25 7 0 30 11 53 23 22
13 49 26 61 29 18 5 20 1 17 -37 -2 -31 2 -48 17 -64 l20 -21 1419 0 1418 0
22 35 c12 19 23 47 26 62 3 15 13 32 22 37 9 5 61 53 115 105 92 90 111 121
86 136 -7 5 -3 15 10 29 32 34 89 181 106 271 49 261 71 569 53 715 -9 70 -67
146 -153 201 -22 14 -58 52 -80 85 -22 32 -54 77 -72 99 -30 38 -52 82 -59
114 -1 7 -7 18 -13 24 -6 6 -11 21 -11 32 0 12 -16 66 -36 121 -20 54 -37 111
-40 127 -2 15 -10 40 -18 55 -8 16 -17 59 -20 98 -3 38 -11 94 -20 124 -35
134 -55 280 -57 425 -1 61 -7 133 -13 160 -7 28 -9 70 -5 95 6 38 2 55 -22
106 -19 41 -29 76 -29 108 0 54 -17 83 -87 156 -37 38 -113 168 -113 194 0 18
-61 59 -102 69 -15 4 -49 29 -75 56 -55 55 -73 66 -126 75 -43 8 -94 34 -147
76 -19 15 -55 40 -80 55 -25 15 -47 31 -50 34 -3 4 -30 26 -60 51 -30 25 -84
74 -120 108 -36 35 -70 67 -75 70 -6 4 -23 23 -39 42 -16 19 -41 44 -56 55
-15 11 -51 49 -80 85 -29 36 -68 80 -87 99 -18 19 -33 38 -33 43 0 5 -14 23
-31 40 -42 43 -99 130 -165 256 -31 59 -64 118 -74 132 -35 49 -72 117 -121
220 -83 173 -89 187 -89 201 0 8 -8 30 -19 49 -10 19 -26 62 -35 95 -19 66
-22 72 -90 225 -25 58 -46 108 -46 111 0 3 17 7 38 8 116 6 267 29 402 61 47
11 128 29 180 40 129 28 180 43 180 53 0 5 6 7 13 4 6 -2 26 1 44 8 17 8 34
11 37 8 3 -3 12 -1 19 6 8 6 21 9 30 6 8 -4 31 1 52 9 20 9 40 14 44 12 12 -8
143 21 150 33 4 6 18 11 32 10 35 -1 132 13 149 22 9 4 36 10 60 14 25 4 50 8
55 9 6 2 38 9 73 16 34 8 62 18 62 23 0 4 4 6 9 3 9 -6 290 37 351 54 34 9 81
14 225 26 88 7 165 23 165 35 0 5 8 9 17 9 10 0 42 17 71 37 53 36 54 36 80
19 62 -40 115 -56 185 -58 71 -1 190 8 215 17 6 2 12 1 12 -4 0 -8 121 -31
205 -39 28 -2 55 -8 60 -12 13 -10 73 -22 133 -25 26 -2 65 -8 87 -14 77 -21
689 -8 727 15 4 3 8 -2 8 -10 0 -18 26 -22 32 -6 2 7 18 5 43 -4 71 -26 140
-45 186 -52 24 -4 49 -10 54 -15 10 -7 84 -27 125 -34 8 -1 22 -5 30 -9 17 -7
111 -33 150 -42 14 -3 45 -14 70 -25 25 -11 81 -34 125 -51 44 -16 98 -36 120
-45 37 -14 147 -51 170 -57 6 -2 17 -6 25 -9 48 -18 158 -56 179 -62 18 -6 22
-4 16 6 -6 9 -1 8 11 -2 10 -9 42 -19 71 -22 28 -3 71 -15 94 -26 24 -12 49
-21 57 -21 8 0 28 -6 45 -13 33 -15 118 -45 224 -81 34 -12 65 -25 69 -29 4
-4 18 -7 32 -7 13 0 36 -7 50 -15 15 -8 66 -26 114 -39 48 -14 95 -29 105 -35
15 -8 106 -35 123 -36 3 0 10 -3 16 -7 6 -4 26 -10 45 -13 19 -3 52 -12 75
-20 22 -7 69 -21 105 -29 35 -9 95 -26 132 -38 37 -11 70 -18 74 -14 3 3 12 1
19 -5 7 -6 23 -12 36 -14 13 -2 59 -13 103 -24 44 -12 89 -23 100 -25 11 -2
54 -12 95 -21 138 -30 421 -76 431 -69 4 2 11 -1 14 -6 4 -6 17 -10 28 -9 12
1 33 -1 47 -4 14 -3 52 -8 85 -11 33 -3 78 -10 100 -15 68 -17 305 -49 405
-55 52 -3 127 -13 165 -21 39 -9 129 -18 200 -20 72 -3 186 -7 255 -11 69 -3
152 -6 184 -5 33 0 64 -3 70 -7 6 -3 70 -7 143 -7 72 0 135 -3 138 -7 4 -4 12
-5 18 -3 7 3 116 7 242 9 127 2 241 6 255 9 14 3 49 8 78 11 29 3 56 7 60 10
5 3 42 8 83 12 76 7 86 8 274 42 61 12 126 23 145 26 47 7 239 54 270 66 14 5
41 12 60 15 19 3 39 10 45 14 9 8 105 38 145 46 8 2 26 7 40 13 14 5 31 7 38
5 6 -3 12 0 12 5 0 10 62 29 130 39 19 3 42 11 50 18 8 7 44 21 78 30 35 9 71
20 80 25 28 15 85 38 112 45 25 6 252 99 345 140 47 21 83 36 95 40 28 7 67
23 128 51 40 19 78 34 85 34 7 0 22 6 33 14 11 8 28 16 39 18 11 1 37 13 60
25 44 25 204 103 248 121 15 6 27 17 27 23 0 7 9 9 21 6 17 -5 24 1 32 24 8
21 18 29 35 29 13 0 52 13 86 29 90 43 190 87 196 88 15 0 50 25 45 33 -6 10
79 70 100 70 8 0 18 6 22 12 8 12 27 15 116 18 20 1 37 6 37 11 0 5 6 9 13 8
22 -3 40 1 34 7 -3 4 0 13 8 21 8 8 15 32 15 54 0 38 1 39 28 32 56 -16 152 3
152 31 0 6 16 33 35 61 20 27 33 55 31 61 -8 22 33 47 90 56 32 5 70 18 86 29
25 18 28 25 22 53 -5 29 -3 34 18 39 12 4 36 7 52 7 33 0 106 38 106 56 0 7 5
14 11 16 5 2 11 10 13 18 2 8 13 37 24 63 12 27 22 61 22 77 0 24 5 30 33 35
42 10 104 41 135 70 23 22 29 44 35 131 2 17 7 38 14 45 35 44 57 179 33 203
-6 6 -36 10 -66 10 -41 -1 -71 -10 -127 -39 -39 -20 -77 -41 -83 -46 -7 -6
-22 -6 -35 -1 -34 12 -112 8 -117 -6 -2 -7 -8 -10 -13 -7 -4 3 -19 -10 -31
-29 -32 -49 -56 -57 -93 -35 -61 38 -98 24 -149 -56 -11 -17 -29 -39 -40 -51
-31 -30 -56 -63 -79 -101 -19 -34 -20 -34 -41 -16 -30 26 -74 19 -82 -13 -3
-13 -11 -24 -18 -24 -12 0 -146 -134 -146 -147 0 -5 -13 -17 -30 -26 -23 -14
-34 -16 -50 -7 -12 6 -30 8 -42 4 -13 -4 -18 -2 -14 4 3 6 -20 -3 -53 -18 -33
-16 -62 -33 -65 -39 -4 -5 -32 -22 -64 -36 -31 -15 -80 -38 -107 -51 -28 -13
-61 -24 -73 -24 -13 0 -36 -6 -51 -14 -24 -13 -31 -13 -56 0 -40 21 -66 17
-100 -14 -17 -15 -37 -28 -45 -30 -8 -2 -22 -9 -30 -16 -21 -17 -67 -36 -88
-36 -10 0 -35 9 -57 20 -49 25 -55 25 -85 -3 -14 -12 -41 -31 -60 -41 -19 -11
-37 -22 -40 -26 -3 -3 -25 -20 -49 -38 -52 -37 -83 -40 -174 -16 l-60 15 -21
-24 c-12 -14 -43 -40 -71 -58 -27 -18 -56 -39 -63 -46 -11 -11 -81 -19 -114
-14 -4 0 -29 3 -55 6 -27 3 -61 11 -76 17 -24 9 -33 8 -57 -11 -16 -11 -34
-21 -40 -21 -5 0 -10 -5 -10 -10 0 -6 -11 -15 -25 -20 -19 -7 -33 -5 -60 11
-40 24 -79 20 -119 -12 -37 -29 -81 -39 -118 -27 -18 5 -142 11 -276 14 -134
2 -271 9 -305 14 -34 6 -118 13 -187 15 -69 3 -163 7 -210 10 -47 3 -110 7
-140 9 -30 1 -62 5 -70 9 -8 3 -42 8 -75 11 -33 4 -73 9 -90 11 -16 2 -46 6
-65 9 -54 8 -158 27 -232 42 -37 8 -80 14 -97 14 -16 0 -33 5 -36 10 -4 6 -10
8 -13 6 -4 -2 -30 0 -57 5 -28 5 -62 12 -77 14 -15 3 -39 10 -53 15 -14 5 -44
12 -67 15 -62 8 -121 20 -268 55 -114 27 -299 88 -395 130 -22 10 -85 36 -140
59 -55 23 -107 46 -115 52 -19 12 -78 39 -85 39 -6 0 -147 75 -211 111 -22 13
-64 38 -93 54 -29 17 -78 45 -109 64 -31 19 -70 41 -86 49 -16 8 -58 35 -94
59 -35 24 -74 48 -86 53 -11 4 -30 16 -41 25 -11 9 -58 40 -105 70 -47 30 -90
59 -97 65 -7 5 -15 10 -19 10 -3 0 -34 22 -68 48 -33 26 -87 65 -118 86 -32
21 -58 41 -58 45 0 9 -78 61 -91 61 -4 0 -13 8 -18 19 -6 10 -35 35 -65 55
-29 19 -76 58 -102 85 -27 26 -69 61 -94 77 -25 16 -47 32 -50 35 -3 4 -36 30
-75 60 -38 29 -75 58 -81 64 -6 5 -28 24 -49 40 -58 45 -235 230 -235 245 0 8
-16 22 -79 69 -25 18 -38 71 -49 193 -3 25 -51 78 -73 78 -10 0 -19 4 -19 9 0
5 -29 12 -64 16 -40 4 -70 13 -80 23 -8 9 -34 36 -56 60 -22 24 -40 45 -40 48
0 3 -21 30 -46 60 -50 59 -59 98 -34 159 6 17 14 48 16 70 3 22 7 46 9 53 12
34 -31 91 -85 112 -19 7 -40 17 -47 22 -28 22 -150 78 -169 78 -11 0 -26 6
-32 13 -7 6 -16 12 -20 12 -4 1 -17 6 -28 13 -12 6 -24 9 -27 6 -6 -6 -77 69
-114 119 -13 18 -44 54 -69 81 -57 61 -105 166 -76 166 4 0 14 16 21 35 7 19
16 33 20 31 4 -3 15 4 25 16 15 17 16 24 5 50 -13 31 -144 168 -161 168 -6 0
-31 14 -56 31 -25 17 -56 35 -69 40 -17 6 -23 16 -23 39 0 42 -14 66 -47 79
-16 6 -35 15 -43 20 -8 5 -48 26 -89 46 -41 20 -82 45 -92 56 -20 23 -15 49 9
49 18 0 162 147 162 165 0 14 28 50 68 90 29 29 20 52 -27 65 -41 11 -189 41
-208 42 -7 1 -13 5 -13 10 0 4 -6 8 -14 8 -8 0 -54 13 -103 29 -51 16 -121 31
-166 34 -43 3 -81 8 -84 11 -8 8 17 36 33 36 7 0 17 6 21 12 4 7 17 18 28 25
11 6 19 16 18 22 -2 6 3 8 10 5 13 -4 67 41 67 56 0 3 11 13 25 20 13 7 27 21
30 30 3 9 19 32 35 50 17 19 28 40 26 46 -3 7 2 18 10 24 8 8 14 30 14 56 0
44 0 44 -62 75 -74 36 -214 89 -237 89 -9 0 -52 12 -96 26 -44 15 -89 28 -100
29 -11 2 -22 4 -25 5 -3 1 -9 3 -15 4 -5 1 -21 5 -35 9 -14 4 -52 9 -85 11
-33 3 -60 6 -60 7 0 1 -9 3 -20 5 -140 21 -223 47 -207 67 5 7 22 46 37 87 16
41 39 95 52 119 13 24 23 50 23 58 0 8 10 27 21 42 12 16 18 34 15 40 -4 6 -2
11 3 11 6 0 11 9 11 19 0 11 9 26 21 34 21 15 10 35 -13 21 -6 -4 -8 -3 -5 3
10 15 -188 49 -339 57 -39 2 -81 7 -95 12 -13 4 -31 9 -39 10 -84 17 -117 21
-127 17 -7 -3 -13 0 -13 6 0 6 -8 11 -17 11 -20 0 -81 20 -101 33 -7 5 -25 6
-40 2 -21 -4 -33 0 -47 15 -21 23 -29 2 65 175 21 39 49 90 64 115 14 25 26
54 26 65 0 21 -35 49 -50 40 -4 -3 -10 0 -12 7 -3 9 -34 13 -99 14 -52 1 -121
4 -154 7 -33 4 -96 9 -140 12 -44 2 -107 12 -140 21 -33 9 -67 17 -75 18 -8 0
-18 6 -23 13 -4 7 -23 15 -42 19 -28 5 -35 11 -35 29 0 17 -5 22 -18 18 -11
-3 -34 10 -60 34 l-43 38 1 120 c1 153 1 158 12 172 18 23 -22 51 -72 49 -25
-1 -51 -5 -57 -9 -8 -5 -13 -3 -13 5 0 10 -2 10 -9 -1 -6 -9 -11 -10 -15 -2
-4 6 -45 10 -106 10 -54 0 -125 5 -158 11 -33 6 -64 10 -69 9 -18 -5 -82 14
-77 22 3 5 -4 9 -15 9 -11 0 -33 11 -49 25 -17 14 -32 25 -35 25 -3 0 -29 14
-57 32 -33 20 -53 40 -57 57 -3 14 -9 31 -13 36 -5 6 -13 48 -18 95 -11 92
-19 103 -84 121 -39 10 -207 22 -312 21 -51 0 -68 5 -130 41 -40 23 -87 50
-106 60 -26 13 -50 43 -90 110 -30 51 -58 93 -62 95 -5 2 -8 8 -8 14 0 10 -43
106 -77 174 -9 17 -28 46 -43 64 -27 33 -28 34 -66 21 -22 -7 -46 -13 -54 -15
-8 -1 -24 -7 -35 -13 -11 -5 -26 -8 -33 -6 -7 3 -20 1 -30 -3 -9 -4 -30 -9
-47 -10 -16 -2 -46 -5 -65 -8 -102 -12 -216 -8 -252 10 -21 10 -38 21 -38 26
0 4 -5 8 -12 8 -6 0 -61 25 -122 55 -61 30 -129 61 -152 69 -81 28 -222 135
-208 157 3 5 0 9 -6 9 -6 0 -38 27 -70 59 -52 53 -63 59 -92 56 -18 -2 -60 -6
-93 -9 -33 -2 -79 -8 -103 -12 -36 -6 -54 -1 -115 26 -84 37 -119 52 -167 70
-19 7 -77 33 -129 57 -51 23 -99 43 -106 43 -7 0 -30 18 -51 40 -22 22 -44 40
-51 40 -6 0 -13 5 -15 11 -2 6 -37 12 -78 13 -59 2 -93 11 -160 38 -47 20
-128 50 -180 68 -52 18 -102 38 -110 45 -8 7 -24 15 -35 18 -11 2 -65 22 -120
42 -55 20 -120 43 -145 50 -50 16 -201 70 -300 108 -178 68 -287 107 -302 107
-9 0 -20 5 -23 10 -3 6 -17 10 -31 10 -13 0 -32 5 -42 10 -9 6 -55 22 -102 36
-154 45 -174 52 -260 83 -101 38 -229 72 -360 96 -46 8 -175 42 -200 52 -14 6
-28 11 -32 12 -10 2 -21 5 -108 34 -41 13 -113 34 -160 47 -47 12 -107 28
-135 36 -27 7 -95 23 -150 34 -55 12 -172 39 -260 62 -88 22 -164 41 -170 42
-5 1 -16 5 -24 10 -8 5 -41 14 -75 21 -101 20 -259 56 -292 66 -17 5 -51 9
-77 9 -25 0 -49 5 -52 10 -3 6 -18 10 -33 10 -15 0 -58 8 -97 17 -38 8 -82 17
-96 18 -14 1 -31 5 -37 9 -6 4 -49 16 -94 27 -46 11 -90 23 -98 26 -17 7 -16
6 -95 26 -125 32 -283 67 -365 81 -149 27 -234 47 -264 62 -16 8 -33 14 -37
14 -9 0 -33 19 -93 73 -17 15 -33 27 -37 27 -3 0 -11 11 -19 24 -17 33 -47 39
-72 14 -19 -19 -31 -21 -172 -19 -153 2 -295 10 -308 18 -5 2 -8 -1 -8 -7 0
-6 -4 -9 -9 -6 -7 5 -65 15 -186 32 -11 1 -22 3 -25 4 -3 1 -31 1 -63 0 -36
-1 -64 3 -74 12 -12 9 -15 9 -9 1 4 -7 3 -13 -3 -13 -5 0 -12 4 -15 8 -2 4
-22 7 -43 6 -24 0 -43 5 -51 15 -8 9 -11 10 -7 4 10 -20 -19 -15 -48 7 -14 11
-30 20 -36 20 -6 0 -11 4 -11 8 0 5 -20 19 -43 31 -54 28 -103 22 -162 -20
-45 -32 -75 -34 -408 -30 -98 1 -176 -2 -174 -6 10 -16 -258 22 -315 45 -14 6
-48 38 -75 71 -26 33 -53 60 -60 60 -7 1 -29 -9 -50 -21 -110 -63 -300 -148
-330 -148 -8 0 -11 -5 -7 -12 4 -6 3 -8 -4 -4 -6 3 -39 -1 -74 -10 -146 -36
-148 -37 -148 -60 0 -13 -20 -19 -45 -15 -5 2 -54 -3 -110 -8 -71 -8 -124 -8
-185 0 -47 5 -103 11 -125 11 -22 0 -54 4 -71 9 -17 5 -44 12 -60 14 -16 3
-59 11 -96 18 -38 8 -68 12 -68 10 0 -2 -10 2 -22 8 -13 7 -33 13 -46 15 -32
3 -105 39 -121 58 -8 9 -18 16 -23 16 -6 0 -19 11 -30 26 -25 31 -71 31 -76
-2 -2 -12 -14 -27 -28 -34 -13 -7 -24 -17 -24 -22 0 -4 -7 -8 -15 -8 -8 0 -15
-4 -15 -9 0 -5 -16 -19 -34 -31 -25 -15 -33 -26 -29 -37 4 -11 3 -14 -6 -9
-11 7 -35 -5 -123 -66 -15 -10 -32 -18 -38 -18 -6 0 -26 -11 -44 -25 -18 -14
-40 -25 -49 -25 -10 0 -17 -4 -17 -8 0 -5 -48 -23 -107 -41 -60 -18 -119 -37
-133 -41 -14 -5 -32 -9 -40 -9 -24 -1 -70 -9 -135 -24 -60 -14 -162 -13 -200
2 -11 5 -37 15 -57 24 -21 9 -44 14 -53 11 -8 -4 -15 -1 -15 5 0 6 -9 11 -19
11 -11 0 -22 4 -25 9 -3 4 -26 14 -50 21 l-45 12 -41 -43 c-22 -24 -58 -63
-80 -85 -22 -23 -40 -47 -40 -53 0 -6 -6 -11 -13 -11 -6 0 -26 -15 -44 -34
-29 -32 -119 -86 -142 -86 -6 0 -38 -13 -73 -29 -136 -62 -246 -91 -373 -98
-135 -7 -258 -8 -295 -1 -39 7 -91 37 -117 69 -24 28 -56 38 -67 20 -3 -5 -8
-27 -10 -50 -2 -23 -6 -44 -10 -48 -3 -3 -6 -13 -6 -21 0 -18 -40 -103 -56
-117 -31 -30 -82 -104 -76 -110 4 -5 1 -5 -6 -1 -8 5 -43 -20 -99 -69 -47 -42
-97 -82 -112 -88 -14 -6 -35 -18 -46 -28 -24 -20 -132 -81 -193 -110 -30 -14
-66 -21 -115 -22 -40 0 -75 -6 -79 -11 -6 -8 -11 -7 -16 2 -8 11 -162 36 -170
27 -5 -4 -121 53 -154 76 -28 20 -63 25 -72 10 -4 -5 -17 -8 -31 -6 -33 3 -37
-5 -26 -54 5 -22 6 -42 3 -45 -2 -3 -6 -24 -8 -48 -3 -23 -10 -49 -18 -57 -7
-9 -16 -24 -19 -33 -11 -31 -95 -152 -126 -182 -17 -17 -31 -36 -31 -45 0 -8
-3 -12 -6 -9 -3 4 -21 -4 -41 -18 -19 -13 -50 -29 -69 -36 -19 -6 -34 -16 -34
-20 0 -4 -7 -8 -16 -8 -8 0 -34 -8 -57 -19 -127 -56 -156 -63 -312 -65 -83 -2
-160 0 -170 4 -26 9 -75 -24 -75 -51 0 -10 -4 -19 -10 -19 -5 0 -10 -5 -10
-11 0 -6 -30 -40 -66 -76 -66 -64 -144 -108 -262 -148 -43 -15 -46 -15 -68 6
-16 15 -31 20 -51 16 -28 -5 -142 -49 -175 -67 -10 -6 -27 -10 -37 -10 -11 0
-22 -4 -25 -8 -5 -9 -42 -8 -74 2 -15 5 -25 18 -29 37 -3 16 -19 40 -35 54
-16 13 -27 26 -26 27 5 5 -56 70 -75 80 -14 7 -26 3 -53 -17 -19 -14 -34 -30
-34 -35 0 -14 -190 -199 -211 -205 -11 -4 -19 -12 -19 -20 0 -7 -13 -15 -29
-17 -25 -4 -30 0 -42 29 -25 64 -72 84 -113 48 -14 -12 -26 -27 -26 -34 0 -6
-3 -10 -7 -9 -5 1 -28 -8 -53 -19 -25 -12 -62 -27 -82 -34 -21 -7 -38 -16 -38
-20 0 -3 -12 -5 -27 -3 -16 2 -43 -6 -61 -17 -42 -24 -46 -24 -60 6 -6 14 -17
25 -24 25 -6 0 -22 10 -34 21 -29 27 -101 33 -158 12 -41 -14 -193 -19 -266
-9 -19 3 -66 8 -104 11 -38 2 -98 12 -133 21 -36 9 -67 14 -70 10 -3 -3 -12 1
-20 9 -8 8 -23 15 -34 15 -11 0 -27 4 -37 9 -9 5 -42 19 -72 31 -86 34 -98 44
-92 77 3 15 12 39 22 53 21 33 24 84 5 103 -8 9 -15 20 -15 25 0 6 -9 8 -20 5
-10 -3 -26 2 -34 10 -9 8 -19 17 -24 19 -14 6 -132 156 -156 200 -36 63 -67
129 -76 161 -11 36 20 91 58 105 15 5 39 21 54 35 15 14 29 23 31 21 5 -6 71
67 86 95 10 18 9 29 -9 64 -11 23 -26 49 -33 57 -11 15 -117 104 -167 142 -17
13 -20 21 -12 30 5 7 13 30 17 51 4 20 11 37 16 37 5 0 13 10 18 23 5 12 23
39 40 61 17 21 31 45 31 52 0 7 4 14 9 16 17 6 48 87 44 113 -4 20 -19 32 -70
56 -61 29 -70 30 -229 34 -91 2 -167 5 -168 7 -1 2 -8 21 -15 43 -8 22 -22 51
-32 64 -21 26 -25 51 -9 51 6 0 10 5 10 10 0 6 14 24 30 40 17 16 30 36 30 44
0 8 11 27 23 43 36 43 80 130 73 142 -4 6 -3 11 2 11 5 0 17 21 27 48 25 65
71 147 101 179 30 32 31 64 2 83 -27 17 -206 23 -225 8 -9 -7 -13 -7 -13 2 0
16 -181 4 -227 -15 -18 -8 -33 -12 -33 -10 0 2 -12 -3 -27 -10 -32 -17 -37
-12 -47 47 -4 22 -15 42 -26 48 -19 10 -24 48 -8 60 4 3 9 22 11 43 2 20 7 40
10 44 4 3 7 17 7 30 0 14 5 33 11 44 6 12 12 95 13 192 4 195 10 244 38 305
11 23 17 49 14 57 -3 8 -1 15 4 15 5 0 14 17 19 38 24 85 9 101 -91 95 -73 -4
-122 -21 -165 -57 -12 -10 -20 -24 -16 -29 3 -6 1 -7 -4 -4 -6 4 -16 1 -22 -7
-6 -7 -28 -16 -49 -20 -95 -16 -103 -18 -212 -70 -14 -7 -45 -19 -70 -26 -25
-8 -48 -19 -52 -25 -5 -6 -8 -6 -8 3 0 6 -4 11 -8 10 -20 -6 -126 127 -116
144 3 5 0 15 -6 23 -9 10 -9 15 -1 15 7 0 9 30 7 93 -2 50 -5 94 -6 97 -1 3
-1 10 0 15 1 6 4 30 7 54 3 24 11 50 19 58 8 8 14 21 14 29 0 8 11 37 25 64
14 27 26 58 28 69 2 11 10 28 18 38 23 28 49 80 49 96 0 8 7 21 17 28 9 8 22
28 30 44 28 60 43 81 98 136 60 61 68 90 37 128 -21 27 -56 29 -140 7 -35 -9
-72 -16 -83 -16 -11 0 -27 -4 -37 -9 -54 -26 -91 -40 -120 -46 -18 -4 -30 -10
-28 -13 2 -4 -10 -8 -27 -9 -17 -1 -35 -7 -41 -13 -5 -5 -20 -10 -33 -10 -13
0 -26 -6 -29 -14 -3 -8 -13 -12 -23 -9 -10 2 -25 -3 -34 -12 -9 -9 -21 -13
-27 -10 -5 3 -10 1 -10 -5 0 -6 -4 -9 -8 -6 -5 3 -21 -2 -37 -10 -16 -8 -42
-16 -59 -18 -35 -4 -142 -108 -151 -147 -5 -23 -53 -69 -71 -69 -3 0 -3 17 0
38 16 93 17 113 6 146 -6 20 -16 36 -21 36 -6 0 -8 4 -5 9 4 5 0 22 -8 38 -28
55 -57 129 -63 156 -1 10 -10 34 -20 55 -9 20 -15 40 -15 44 3 12 -49 110 -96
181 -51 77 -144 166 -184 174 -16 3 -28 9 -28 13 0 4 -15 13 -32 20 -58 23
-103 44 -108 51 -10 13 -90 49 -108 49 -11 0 -30 -8 -43 -19z m26546 -8551 c3
-5 1 -10 -4 -10 -6 0 -11 5 -11 10 0 6 2 10 4 10 3 0 8 -4 11 -10z"/>
<path d="M14500 260 c0 -5 5 -10 11 -10 5 0 7 5 4 10 -3 6 -8 10 -11 10 -2 0
-4 -4 -4 -10z"/>
</g>
</svg>
