<?xml version="1.0" standalone="no"?>
<!DOCTYPE svg PUBLIC "-//W3C//DTD SVG 20010904//EN"
 "http://www.w3.org/TR/2001/REC-SVG-20010904/DTD/svg10.dtd">
<svg version="1.0" xmlns="http://www.w3.org/2000/svg"
 width="4587.000000pt" height="1669.000000pt" viewBox="0 0 4587.000000 1669.000000"
 preserveAspectRatio="xMidYMid meet">
<metadata>
Created by potrace 1.16, written by Peter Selinger 2001-2019
</metadata>
<g transform="translate(0.000000,1669.000000) scale(0.100000,-0.100000)"
fill="#000000" stroke="none">
<path d="M5800 16608 c-167 -108 -166 -108 -255 -53 l-72 45 -136 -64 c-121
-57 -144 -65 -226 -73 l-91 -9 -26 28 -27 27 -76 -38 c-68 -34 -90 -39 -198
-50 -120 -12 -136 -17 -664 -196 l-542 -185 -112 -84 -112 -84 -78 163 c-59
124 -83 165 -99 168 -92 22 -778 149 -781 145 -3 -3 -39 -193 -80 -423 -41
-230 -76 -419 -77 -420 -2 -2 -57 -30 -123 -63 l-120 -60 -63 182 -63 181
-324 163 c-179 89 -331 162 -339 162 -8 0 -76 -138 -170 -342 l-156 -343 0
-220 0 -220 -300 -194 -300 -194 -20 -66 c-11 -36 -54 -181 -96 -321 l-76
-255 141 -535 c78 -294 144 -542 147 -551 4 -14 610 -421 649 -435 6 -3 250
11 542 31 l530 35 1061 -15 1061 -16 602 -204 c332 -113 605 -209 608 -213 3
-5 250 -355 549 -779 l543 -769 491 -455 c270 -250 511 -471 535 -492 38 -35
88 -54 485 -190 l443 -152 300 -603 300 -603 285 -180 c313 -198 302 -190 380
-278 30 -35 64 -73 75 -86 11 -12 49 -55 85 -96 36 -41 92 -103 126 -139 33
-36 74 -80 90 -99 16 -19 38 -44 49 -55 11 -12 52 -57 90 -101 39 -43 87 -97
108 -120 42 -45 53 -77 62 -185 3 -41 8 -91 10 -110 3 -19 7 -66 10 -104 3
-38 8 -86 10 -107 15 -115 15 -180 0 -221 -9 -24 -17 -47 -19 -53 -3 -10 -16
-42 -41 -100 -16 -38 -40 -98 -40 -105 -1 -3 -9 -20 -18 -38 -10 -17 -15 -32
-12 -32 4 0 0 -12 -9 -27 -18 -35 -67 -155 -68 -168 0 -5 -7 -19 -14 -30 -8
-11 -14 -27 -14 -36 0 -9 -10 -23 -22 -31 -13 -9 -37 -28 -54 -44 -18 -16 -42
-36 -54 -44 -12 -8 -32 -23 -43 -33 -104 -85 -118 -97 -152 -121 -14 -11 -36
-28 -47 -38 -12 -10 -24 -18 -28 -18 -6 0 -33 -53 -36 -70 0 -3 -9 -23 -19
-45 -10 -22 -24 -55 -31 -72 -25 -59 -41 -97 -55 -128 -51 -117 -41 -135 35
-64 28 26 80 75 116 108 36 34 73 62 83 62 9 1 20 2 25 3 35 8 91 19 109 21
12 2 34 6 50 9 58 13 73 15 73 9 0 -9 -61 -107 -71 -113 -4 -3 -48 -77 -99
-164 -50 -88 -97 -164 -104 -170 -25 -21 -109 -180 -113 -215 -4 -38 -9 -86
-17 -166 -3 -27 -8 -70 -11 -95 -2 -25 -7 -74 -11 -109 -3 -35 -12 -74 -20
-87 -16 -23 -7 -38 18 -29 8 3 31 35 51 70 21 36 41 65 46 65 5 0 14 13 20 28
6 15 23 41 37 57 14 17 34 46 45 67 10 20 22 38 27 40 4 1 19 21 32 43 13 21
30 46 38 55 7 8 31 40 52 70 37 51 73 96 125 155 11 13 40 47 65 76 25 28 54
62 65 75 12 12 36 41 55 64 19 23 51 59 70 80 19 22 45 51 58 65 l22 27 1 -74
c1 -40 2 -95 4 -123 2 -27 6 -225 9 -440 5 -283 10 -391 18 -396 12 -7 58 60
58 84 0 5 18 42 41 81 23 39 43 79 44 88 2 10 20 46 40 80 21 34 38 70 40 80
2 9 11 28 21 43 14 22 43 147 60 265 2 19 7 46 11 60 3 14 7 34 8 45 5 29 16
94 21 119 2 11 7 36 10 54 3 17 8 32 11 32 11 0 63 -32 63 -39 0 -12 48 -32
54 -22 3 4 8 86 11 182 8 224 11 252 30 288 8 17 15 35 15 42 0 6 14 35 31 62
17 28 32 56 33 62 2 11 108 234 149 310 11 22 26 51 32 65 7 14 24 49 39 78
15 28 24 52 21 52 -4 0 3 16 15 35 12 19 19 35 15 35 -3 0 3 17 13 38 11 20
34 73 52 117 18 44 39 95 46 112 8 18 21 50 30 70 9 21 22 51 30 66 8 16 14
34 14 40 1 45 17 38 695 -292 l678 -330 396 -62 396 -61 270 -158 270 -157 16
-59 c11 -41 45 -106 112 -210 l97 -151 143 -6 c78 -4 171 -7 207 -7 l65 0 54
-213 c30 -116 59 -221 64 -232 6 -11 166 -247 357 -525 190 -278 349 -510 353
-517 4 -6 20 -129 37 -274 l29 -263 -110 -440 c-60 -243 -114 -457 -119 -476
-8 -29 -99 -123 -475 -490 -257 -250 -483 -465 -503 -477 -20 -11 -164 -76
-319 -143 l-282 -122 -10 -49 c-6 -28 -11 -56 -11 -64 0 -17 40 -6 -465 -125
l-430 -101 -215 6 -215 7 -204 -76 c-112 -42 -205 -76 -206 -76 -7 0 -185
-278 -185 -288 0 -7 6 -12 13 -12 8 0 99 38 203 83 l189 84 55 -15 c30 -9 56
-16 58 -18 2 -1 -9 -25 -25 -53 l-28 -50 37 -37 36 -37 964 17 c530 9 1074 19
1211 23 l247 6 80 60 c90 67 86 52 66 212 -8 61 -14 110 -13 111 3 1 142 87
164 101 21 14 23 12 73 -86 27 -56 56 -101 64 -101 10 0 16 26 21 108 l7 109
461 416 c254 228 559 495 677 592 118 96 220 183 227 193 6 9 71 176 144 370
l132 352 -76 431 -75 431 194 565 193 564 42 267 c23 147 45 270 49 275 9 11
712 89 720 80 4 -5 55 -147 114 -318 58 -170 109 -312 114 -316 7 -7 1168
-800 1190 -813 7 -4 232 -66 499 -137 l487 -128 350 -211 351 -210 350 -376
c193 -207 372 -401 398 -430 47 -53 53 -66 213 -516 90 -255 164 -469 164
-476 0 -9 -202 -342 -225 -370 -1 -1 -132 -43 -291 -92 l-288 -90 -241 -20
-240 -20 -223 -102 -222 -101 -70 -132 c-39 -73 -70 -138 -70 -144 0 -21 28
-11 194 68 l165 80 115 -19 c63 -10 119 -21 124 -24 5 -3 26 -43 46 -90 22
-48 45 -86 52 -86 8 0 14 5 14 10 0 7 256 10 748 10 l747 0 450 410 c274 250
450 417 449 428 0 9 -33 61 -74 115 -41 56 -69 101 -64 106 5 5 113 34 239 65
316 78 305 75 305 91 0 8 -2 15 -4 15 -14 0 -345 72 -361 79 -13 5 -35 42 -59
95 l-39 86 -101 0 -102 0 -50 58 c-28 31 -60 71 -71 87 -13 18 -82 239 -168
540 -81 281 -153 526 -159 545 -7 19 -114 190 -239 380 l-227 345 -399 359
-399 359 -81 236 c-319 933 -319 934 -306 971 10 31 17 36 56 42 24 5 823 127
1774 273 1367 209 2061 310 3310 480 1214 165 2039 285 3561 515 l1980 300
2154 575 2154 575 1480 175 1480 176 621 -15 620 -15 1159 -215 c990 -184
1165 -219 1195 -240 20 -13 434 -296 920 -629 l884 -606 573 -813 c316 -447
579 -814 586 -816 13 -3 108 175 108 202 0 7 -215 447 -479 977 l-479 964
-832 745 c-457 410 -849 760 -871 778 -35 31 -142 64 -1271 398 l-1233 364
-1940 90 -1940 91 -2442 -95 -2442 -95 -2467 384 c-1568 245 -2492 393 -2535
407 -43 13 -69 27 -69 36 0 10 -7 12 -22 8 -15 -3 -93 17 -210 56 l-188 63 0
32 c0 18 -1 33 -3 33 -2 0 -24 -7 -50 -16 l-47 -16 -154 52 c-141 47 -155 54
-166 80 -14 34 -12 33 -64 19 -36 -10 -55 -5 -232 52 l-194 63 -15 53 c-13 43
-20 53 -33 49 -9 -2 -45 -12 -78 -21 l-62 -17 -115 38 -114 38 -6 64 c-4 36
-8 66 -10 68 -2 2 -44 -12 -93 -31 l-90 -35 -69 24 c-39 13 -69 28 -69 32 13
89 14 136 2 131 -7 -3 -52 -22 -100 -42 l-87 -38 -83 29 -83 29 -8 69 c-4 38
-9 71 -10 73 -2 2 -45 -15 -95 -37 l-91 -39 -107 37 -108 37 -23 69 c-12 38
-24 71 -26 72 -2 2 -43 -12 -91 -31 l-87 -35 -137 43 c-132 42 -138 45 -159
83 -13 21 -24 43 -26 47 -1 5 -32 1 -67 -8 -64 -17 -66 -16 -139 6 -49 16 -76
29 -79 41 -3 14 -95 92 -183 155 -14 11 -29 7 -91 -20 -72 -33 -74 -33 -120
-19 -53 17 -55 21 -33 82 8 24 14 44 12 46 -1 1 -85 24 -187 49 l-185 47 -35
-40 c-30 -33 -39 -38 -60 -31 -14 4 -80 22 -146 39 l-121 32 19 75 c10 41 18
77 16 79 -2 2 -80 15 -172 29 l-169 25 -111 -31 c-92 -26 -118 -30 -156 -23
l-45 9 -3 52 -3 52 -133 70 -133 70 -146 -46 c-126 -40 -152 -45 -185 -37
l-37 9 3 76 4 76 -128 56 -128 57 -107 -71 -107 -70 -43 11 c-24 6 -52 13 -61
16 -14 4 -18 16 -18 47 l0 43 -84 41 -84 42 -104 -29 c-105 -31 -144 -36 -165
-22 -7 4 -24 58 -38 119 l-26 111 -156 56 c-85 31 -160 53 -167 49 -6 -4 -61
-44 -122 -90 -109 -80 -112 -82 -148 -72 -39 11 -39 5 -14 103 5 21 8 40 5 42
-2 2 -100 24 -217 49 l-213 45 -70 -43 -69 -44 -61 17 c-60 16 -63 18 -77 61
-9 24 -18 50 -20 56 -3 7 -86 44 -185 83 l-180 70 -77 -54 -78 -53 -62 17 -62
17 -24 96 -24 97 -156 0 -156 0 -41 -40 -41 -40 -56 12 c-51 11 -57 14 -52 33
4 18 -14 35 -122 111 -70 49 -133 92 -140 97 -7 4 -84 0 -171 -8 -151 -15
-160 -17 -196 -47 -37 -29 -42 -30 -90 -22 l-52 9 -5 65 c-5 64 -7 68 -118
225 -62 88 -119 159 -125 157 -6 -2 -93 -48 -193 -103 l-182 -100 -21 -51
c-21 -50 -21 -50 -58 -44 -62 11 -68 15 -68 38 0 13 -36 79 -80 147 l-79 123
-211 -7 -210 -7 -109 -55 -109 -55 -89 17 -88 17 0 99 c0 55 -3 99 -7 99 -5 0
-102 9 -217 20 l-209 21 -90 -54 -91 -54 -85 18 c-47 10 -95 21 -107 24 -17 4
-22 15 -28 62 -4 32 -11 86 -17 121 l-11 62 -181 0 -181 0 -97 -55 c-53 -30
-106 -55 -117 -55 -12 0 -51 7 -89 16 -48 11 -89 14 -140 9 l-72 -7 -32 64
c-17 35 -32 64 -33 65 -1 1 -59 -16 -129 -38 -126 -40 -126 -40 -133 -74 -3
-20 -10 -37 -14 -40 -5 -3 -54 -10 -110 -15 l-101 -11 -83 75 -83 76 -118 -35
c-65 -19 -119 -35 -120 -35 -1 0 -18 -26 -38 -59 -39 -62 -57 -71 -148 -71
l-35 0 -12 61 c-6 34 -13 63 -15 66 -2 2 -49 -3 -103 -12 -85 -13 -102 -19
-123 -43 -97 -112 -97 -112 -137 -112 -34 1 -43 6 -72 44 -30 40 -38 45 -85
51 -29 3 -70 8 -92 11 -38 5 -43 2 -122 -70 -70 -65 -86 -76 -117 -76 -29 0
-37 4 -42 24 -4 19 -32 40 -107 82 -55 32 -106 57 -111 57 -22 0 -222 -136
-256 -173 -32 -35 -41 -39 -101 -45 l-67 -6 -32 45 -33 45 -98 -49 c-88 -45
-103 -49 -143 -44 -40 6 -45 9 -41 28 4 15 -7 35 -37 68 l-43 48 -69 -45 c-67
-44 -96 -51 -143 -39 -18 5 -23 14 -23 40 0 19 -3 34 -7 34 -5 0 -37 5 -72 11
-57 9 -70 8 -112 -11 -70 -30 -160 -24 -139 10 15 23 14 25 -53 69 -63 41 -64
41 -125 33 -59 -8 -61 -8 -81 18 l-20 27 30 29 29 28 -47 48 c-37 38 -56 49
-92 54 -46 7 -80 34 -81 65 0 8 11 26 25 39 l24 23 -27 49 c-30 55 -42 62
-120 73 -50 7 -56 11 -98 64 -24 31 -56 73 -70 93 l-26 37 29 38 c16 21 33 43
37 50 3 6 -8 41 -25 76 l-32 64 -113 56 c-94 47 -118 63 -139 97 -14 22 -25
42 -25 45 0 2 14 11 30 20 l30 16 -29 57 c-27 54 -35 61 -98 90 -57 26 -72 39
-92 75 -23 41 -23 45 -7 69 16 24 15 28 -20 107 -36 80 -38 82 -106 119 -57
30 -76 47 -104 92 -31 49 -33 56 -19 75 36 49 36 48 -25 151 -33 54 -63 99
-67 99 -5 -1 -27 -7 -50 -14 -35 -12 -50 -11 -99 1 -53 12 -59 17 -65 44 -4
24 -83 144 -94 144 -1 0 -46 -21 -100 -46 -89 -42 -101 -46 -139 -37 -44 9
-44 8 -32 85 l7 46 -106 7 -105 7 -48 -31 c-46 -29 -49 -30 -97 -17 -50 12
-50 13 -73 77 l-23 65 -85 42 -84 42 -102 -51 -102 -51 -72 18 -72 18 -7 45
c-13 93 -8 88 -107 110 -49 12 -90 21 -91 21 -1 0 -58 -37 -127 -82z"/>
</g>
</svg>
