<?xml version="1.0" standalone="no"?>
<!DOCTYPE svg PUBLIC "-//W3C//DTD SVG 20010904//EN"
 "http://www.w3.org/TR/2001/REC-SVG-20010904/DTD/svg10.dtd">
<svg version="1.0" xmlns="http://www.w3.org/2000/svg"
 width="4510.000000pt" height="1936.000000pt" viewBox="0 0 4510.000000 1936.000000"
 preserveAspectRatio="xMidYMid meet">
<metadata>
Created by potrace 1.16, written by Peter Selinger 2001-2019
</metadata>
<g transform="translate(0.000000,1936.000000) scale(0.100000,-0.100000)"
fill="#000000" stroke="none">
<path d="M39446 19136 c-341 -124 -622 -229 -627 -233 -4 -4 -180 -227 -391
-496 l-384 -487 -187 -435 -187 -435 -115 -588 c-83 -424 -150 -730 -240
-1102 l-125 -515 -197 -335 c-108 -184 -233 -397 -278 -472 l-80 -138 -167
-135 -168 -136 -336 -140 -336 -140 -417 11 c-229 5 -434 10 -456 10 l-40 -1
85 -80 85 -79 -80 5 c-44 3 -357 21 -695 41 l-615 35 -600 -86 c-330 -48 -607
-89 -615 -92 -8 -3 59 -22 150 -43 91 -21 158 -40 150 -43 -8 -3 -392 -67
-853 -141 l-838 -136 -601 -177 c-650 -192 -643 -189 -448 -194 41 0 101 -4
133 -8 54 -6 3 -18 -735 -179 l-793 -173 -1247 -361 c-686 -199 -1246 -363
-1244 -365 1 -2 85 1 186 7 101 5 185 9 186 7 2 -2 -487 -145 -1087 -320
l-1089 -317 -1548 -679 -1547 -679 -825 -407 c-454 -223 -827 -409 -830 -412
-3 -3 9 -3 25 1 20 4 25 3 15 -3 -8 -5 -504 -227 -1101 -494 -875 -391 -1537
-676 -3405 -1465 l-2319 -979 -1325 -442 -1325 -441 -1380 -160 -1379 -160
-900 20 -900 21 -780 154 c-429 85 -781 153 -783 151 -2 -1 87 -31 197 -66
110 -35 198 -65 196 -67 -2 -2 -293 77 -647 175 l-644 178 -885 599 -884 600
-358 480 c-197 264 -454 608 -570 765 l-213 284 -12 -69 c-6 -39 -12 -84 -12
-101 -1 -26 94 -174 495 -770 273 -407 511 -753 528 -770 17 -17 417 -325 889
-683 l857 -652 1243 -443 1242 -443 1443 -74 1442 -74 1118 127 1117 128 555
141 c305 78 571 143 590 144 19 2 51 10 71 19 20 8 549 146 1175 306 1000 255
1397 365 1747 480 l28 9 -19 -32 c-177 -288 -232 -381 -229 -383 2 -2 57 30
123 72 65 42 301 193 524 335 l406 258 689 214 c380 118 691 211 693 207 2 -5
-12 -58 -31 -119 -20 -61 -33 -111 -30 -111 3 0 95 78 206 172 l201 173 115
37 c63 21 117 36 119 34 2 -2 -6 -37 -18 -78 -23 -76 -110 -471 -105 -476 1
-1 110 113 241 254 l239 257 364 158 c201 87 366 157 367 156 2 -1 -90 -98
-203 -215 -112 -116 -202 -212 -198 -212 5 0 783 399 1105 567 69 36 121 62
117 57 -4 -5 -117 -86 -250 -179 l-242 -170 -107 -135 c-59 -74 -106 -136
-103 -138 2 -2 221 98 487 223 592 279 591 278 582 263 -4 -7 -110 -135 -236
-284 l-227 -272 -20 -118 c-11 -65 -19 -119 -18 -120 1 -1 277 221 612 492
336 271 613 493 616 494 5 0 -187 -697 -206 -747 -2 -7 -3 -13 0 -13 2 0 168
196 369 435 l366 434 83 25 c271 83 512 154 513 153 1 -1 -77 -184 -172 -407
-96 -223 -173 -408 -172 -412 2 -3 234 185 516 418 l512 424 448 99 c245 55
447 99 448 98 1 -1 -61 -139 -137 -307 -76 -168 -143 -315 -149 -328 l-10 -23
43 25 c23 13 230 130 459 260 l417 235 233 20 c127 11 234 18 236 16 2 -2 -50
-66 -116 -142 -66 -76 -119 -140 -117 -141 2 -2 193 82 425 188 232 105 424
190 425 188 2 -2 -147 -211 -330 -465 l-334 -461 -30 -178 c-17 -98 -29 -179
-28 -180 1 -1 280 196 619 437 l618 439 216 90 c119 50 218 90 220 87 6 -5
-125 -151 -469 -522 -173 -187 -313 -341 -312 -343 2 -2 158 77 347 176 188
99 375 196 415 216 l72 36 -80 -124 -80 -123 1 -212 2 -212 -88 -117 c-134
-179 -140 -188 -124 -176 8 6 75 57 148 112 73 56 136 102 141 102 5 0 15 -10
24 -23 8 -12 116 -134 240 -271 l225 -248 -23 -56 c-16 -40 -101 -156 -284
-389 l-262 -332 -217 -185 -217 -185 -52 -120 -52 -119 19 -188 18 -189 177
-475 c98 -261 181 -487 185 -502 5 -14 14 -120 20 -235 11 -174 16 -212 31
-235 l19 -26 -51 -61 -50 -60 11 -103 c6 -57 12 -103 13 -104 29 -13 67 -50
67 -65 0 -44 -53 -230 -96 -333 -24 -60 -43 -110 -41 -112 2 -2 58 52 125 119
116 117 123 126 161 217 23 55 42 89 45 80 3 -8 12 -38 20 -66 l14 -51 -65
-104 c-36 -57 -67 -109 -70 -116 -5 -12 248 -399 275 -420 9 -7 26 -13 39 -13
20 0 23 -5 23 -34 0 -32 11 -44 181 -185 153 -127 186 -151 214 -151 24 0 34
-5 38 -20 5 -20 14 -20 704 -20 l700 0 13 24 c10 19 10 32 1 57 -18 52 -18 52
81 44 103 -8 106 -9 200 -77 52 -38 75 -49 98 -46 l29 3 -49 92 -50 92 -144
75 -143 76 -159 10 c-87 5 -231 10 -319 10 -159 0 -162 0 -447 62 l-287 62
-56 92 c-51 84 -60 108 -96 254 -21 89 -39 169 -39 176 0 8 10 28 22 44 20 28
21 32 8 122 l-13 93 -189 283 -188 282 -126 448 c-108 384 -127 462 -134 555
l-9 109 54 126 c52 122 55 135 85 342 23 160 36 220 49 235 10 11 118 136 240
278 181 209 239 270 314 326 l92 70 58 -62 c94 -100 89 -85 60 -224 l-25 -121
35 -146 34 -145 -24 -37 c-18 -26 -24 -46 -21 -70 4 -31 2 -34 -23 -34 -22 0
-37 -16 -97 -107 -91 -138 -105 -172 -97 -233 6 -46 6 -47 -22 -53 -26 -5 -33
-17 -77 -126 l-48 -121 31 -35 c17 -20 31 -40 31 -45 0 -5 -19 -59 -41 -120
l-42 -111 -95 -89 -95 -89 28 -48 c15 -26 29 -50 31 -52 2 -2 66 41 142 95
l140 99 63 127 c55 111 66 127 91 132 32 6 26 -6 113 223 47 125 70 170 126
249 l68 96 3 -199 c3 -196 3 -198 30 -237 l27 -39 -25 -36 c-21 -32 -24 -46
-24 -136 0 -58 9 -149 21 -215 18 -100 25 -119 51 -147 l31 -32 -20 -25 c-20
-25 -20 -26 -2 -128 11 -57 27 -146 36 -198 9 -52 21 -100 27 -106 6 -6 60
-23 119 -39 101 -26 109 -27 120 -11 12 16 14 16 38 -3 25 -20 26 -23 32 -183
5 -131 11 -174 28 -218 11 -30 24 -58 27 -62 4 -4 24 18 46 48 39 56 39 56 63
254 l25 198 -46 149 c-25 81 -68 252 -95 378 l-49 230 -15 357 -15 358 99 276
c54 151 106 286 116 299 10 13 44 53 76 89 l59 65 -32 89 c-17 48 -34 93 -38
98 -4 6 -113 88 -242 184 -223 164 -374 293 -367 314 2 6 219 154 483 330
l479 321 313 387 312 387 51 193 c49 188 52 194 94 237 43 44 44 44 201 78 86
18 159 31 162 29 4 -5 -137 -451 -214 -678 -13 -38 -21 -68 -19 -68 2 0 105
124 230 275 l226 275 247 212 c136 116 256 218 266 227 11 9 -45 -109 -123
-262 -79 -153 -141 -280 -139 -282 1 -1 239 203 528 455 289 252 526 456 528
455 2 -2 -33 -88 -78 -192 -46 -103 -89 -203 -97 -222 l-14 -33 33 20 c53 33
669 392 718 419 33 18 -37 -56 -260 -275 l-305 -300 540 190 c297 105 785 273
1084 374 433 146 540 179 524 161 -18 -19 -47 -106 -39 -114 2 -2 25 6 52 18
99 43 96 42 80 11 -7 -15 -21 -43 -29 -63 -14 -35 -14 -36 5 -31 19 4 18 2 -6
-46 -14 -28 -79 -187 -144 -354 -91 -233 -129 -343 -162 -476 -23 -95 -41
-175 -39 -177 3 -2 35 49 73 113 93 158 369 602 373 598 5 -5 -150 -547 -228
-794 -44 -140 -79 -255 -77 -257 2 -2 56 73 121 166 108 154 126 187 218 396
56 125 143 338 195 473 51 135 93 240 94 233 0 -7 -7 -63 -16 -125 -24 -166
-14 -440 20 -568 24 -86 36 -119 36 -92 0 6 23 141 50 299 48 274 52 290 90
355 31 55 44 92 65 200 15 73 40 183 57 245 l30 112 64 25 c47 19 109 62 227
156 89 72 165 130 169 130 5 0 8 -7 8 -15 0 -8 49 -133 109 -278 l109 -264 6
-204 c3 -112 9 -253 12 -312 l6 -108 36 3 c35 3 35 3 57 83 l22 80 11 -55 c6
-30 30 -156 52 -280 23 -124 66 -319 97 -435 55 -208 56 -211 131 -333 41 -67
77 -120 79 -118 3 2 -9 69 -26 148 -34 159 -94 689 -89 790 l3 61 88 -219 c74
-185 102 -272 177 -554 79 -299 107 -396 109 -380 1 3 8 76 16 163 l14 157
-34 283 -34 282 -86 299 c-47 164 -84 300 -83 302 2 1 34 -34 72 -79 104 -124
186 -194 352 -299 131 -83 159 -97 218 -107 38 -7 70 -10 73 -8 3 4 -300 276
-325 293 -2 1 -6 29 -10 63 -7 59 -9 62 -100 161 -78 84 -107 125 -175 248
-80 147 -80 147 -107 297 -16 83 -44 206 -64 275 -20 68 -36 129 -36 136 0 6
117 103 259 217 l260 206 486 555 c268 306 488 556 489 556 2 0 -155 -593
-202 -762 -6 -21 -9 -38 -7 -38 2 0 78 87 169 194 l165 194 197 491 c108 271
198 490 200 489 2 -2 -1 -73 -7 -158 l-10 -155 108 -288 c91 -244 109 -284
115 -260 4 15 24 162 43 325 l35 297 220 578 219 578 1 -180 1 -180 58 -165
c33 -91 62 -158 65 -150 3 8 44 178 91 377 l85 362 270 460 c265 452 273 467
438 835 92 206 170 369 173 363 4 -7 12 -45 20 -85 7 -40 15 -75 18 -77 3 -2
109 269 234 602 l228 605 156 696 c86 384 160 701 163 705 4 5 31 -24 60 -63
29 -39 56 -68 60 -63 3 4 28 119 53 255 l47 247 246 503 c166 340 256 513 277
534 77 76 958 821 1017 859 l65 43 785 141 785 141 880 37 880 36 115 61 115
61 45 119 46 120 43 14 44 15 -6 105 -6 106 -98 98 -99 99 -709 209 c-707 208
-713 210 -1525 396 l-815 187 -188 -13 c-178 -13 -222 -12 -800 19 -337 17
-650 34 -697 37 l-85 5 -619 -225z m-4578 -10885 c-62 -132 -115 -240 -118
-241 -3 0 -20 54 -39 121 -33 118 -34 121 -15 139 33 33 279 229 282 225 2 -1
-48 -111 -110 -244z m-8588 -1861 c-12 -17 -32 -37 -43 -45 -28 -18 -268 -107
-274 -101 -4 4 315 174 330 175 5 1 -1 -13 -13 -29z m105 -727 c-4 -16 -18
-54 -33 -86 l-26 -58 -18 33 c-24 46 -23 52 16 73 19 11 40 29 47 42 16 30 21
29 14 -4z"/>
</g>
</svg>
