<?xml version="1.0" standalone="no"?>
<!DOCTYPE svg PUBLIC "-//W3C//DTD SVG 20010904//EN"
 "http://www.w3.org/TR/2001/REC-SVG-20010904/DTD/svg10.dtd">
<svg version="1.0" xmlns="http://www.w3.org/2000/svg"
 width="4801.000000pt" height="1815.000000pt" viewBox="0 0 4801.000000 1815.000000"
 preserveAspectRatio="xMidYMid meet">
<metadata>
Created by potrace 1.16, written by Peter Selinger 2001-2019
</metadata>
<g transform="translate(0.000000,1815.000000) scale(0.100000,-0.100000)"
fill="#000000" stroke="none">
<path d="M23145 18139 c-734 -12 -1405 -52 -1977 -119 -184 -22 -438 -58 -833
-119 -571 -88 -504 -84 -1685 -86 -1172 -2 -1477 -12 -2285 -75 -560 -44 -744
-79 -1430 -266 -833 -228 -1338 -428 -2579 -1023 -1336 -641 -1902 -1037
-2528 -1771 -96 -112 -115 -130 -185 -167 -103 -55 -178 -73 -299 -73 -154 0
-319 47 -515 146 -263 131 -406 239 -981 734 -454 392 -772 609 -1218 835
-436 220 -671 301 -1265 435 -126 29 -347 84 -490 122 -727 195 -1162 285
-1420 295 -314 12 -600 -50 -1305 -282 -537 -177 -701 -221 -1178 -319 -453
-94 -610 -152 -801 -299 -135 -104 -198 -256 -144 -349 13 -23 28 -34 48 -36
16 -2 35 -12 43 -23 16 -23 47 -26 38 -4 -10 28 23 16 38 -14 9 -16 26 -31 40
-33 23 -5 24 -3 19 30 -6 33 -5 34 16 23 11 -7 21 -18 21 -25 0 -17 29 -42 58
-49 21 -5 22 -3 16 29 -8 44 14 46 39 3 9 -17 23 -29 30 -26 6 2 22 1 34 -4
15 -6 23 -4 27 8 6 14 8 14 20 -2 12 -17 13 -17 19 4 8 32 27 25 27 -9 0 -37
25 -100 39 -100 6 0 11 5 11 12 0 9 3 9 12 0 22 -22 28 -13 28 37 0 79 28 78
49 -1 14 -50 54 -98 66 -78 5 8 11 8 21 -1 22 -18 27 -5 15 38 -16 56 -14 73
8 73 13 0 26 -15 41 -44 22 -46 50 -68 50 -39 0 15 2 15 18 0 10 -10 23 -17
28 -17 5 0 17 -14 26 -30 20 -35 38 -39 38 -8 l0 22 16 -22 c29 -41 43 -28 38
36 -5 56 -5 57 11 30 21 -38 39 -36 32 2 -4 17 -2 30 3 30 6 0 10 -6 10 -13 0
-16 87 -107 102 -107 6 0 7 11 3 27 -6 26 -6 26 27 -8 31 -32 33 -33 36 -12 2
15 8 20 19 16 12 -5 14 -1 8 18 -3 13 -9 32 -11 42 -9 30 10 18 31 -20 22 -41
45 -54 45 -27 0 16 2 15 16 -4 24 -34 35 -27 29 21 -5 37 -4 40 7 22 17 -27
100 -105 111 -105 5 0 6 12 3 26 -4 15 -9 40 -12 58 l-4 31 16 -35 c19 -42 53
-80 70 -80 10 0 11 6 4 26 -16 41 -12 49 11 20 28 -36 39 -33 32 9 -7 45 19
49 37 5 7 -17 25 -37 41 -45 36 -19 41 -19 35 3 -2 9 -7 27 -11 40 -9 30 20
30 36 0 14 -29 80 -98 92 -98 9 0 6 24 -9 84 -10 39 13 32 35 -11 10 -21 29
-47 41 -58 18 -16 23 -17 30 -5 6 8 7 30 4 48 -9 48 26 44 60 -8 33 -50 49
-52 40 -5 -6 32 -4 35 19 35 18 0 27 -7 31 -23 7 -31 45 -79 56 -72 5 3 4 20
-1 38 -12 44 -12 47 11 47 12 0 28 -13 40 -32 41 -71 65 -79 55 -18 l-7 40 34
-7 c18 -3 41 -17 51 -30 23 -29 37 -30 29 -1 -5 20 -3 21 39 14 174 -27 233
-108 260 -356 19 -168 -6 -446 -45 -505 -8 -13 -91 -63 -183 -113 -225 -120
-266 -140 -280 -135 -7 3 -13 0 -13 -6 0 -6 -14 -18 -32 -27 -29 -15 -32 -15
-40 0 -11 20 -28 12 -28 -12 0 -10 -14 -26 -32 -36 -29 -18 -32 -18 -43 -2
-15 20 -25 21 -25 1 0 -18 -43 -65 -60 -65 -5 0 -10 10 -11 23 0 21 -1 21 -12
3 -27 -43 -60 -77 -67 -69 -5 4 -10 17 -12 28 -4 16 -8 13 -24 -19 -23 -48
-50 -68 -64 -46 -5 8 -11 12 -12 10 -2 -3 -12 -17 -21 -32 -20 -32 -43 -36
-50 -10 -3 13 -8 9 -19 -16 -8 -18 -17 -30 -20 -27 -3 3 -11 -1 -18 -10 -16
-19 -30 -19 -30 0 0 24 -19 17 -26 -10 -3 -14 -12 -25 -19 -25 -7 0 -18 -7
-26 -16 -12 -14 -14 -13 -21 7 -8 19 -11 21 -18 9 -5 -8 -10 -24 -10 -35 0
-15 -2 -17 -9 -6 -11 17 -31 6 -32 -17 0 -10 -6 -5 -14 13 l-13 30 -11 -28
c-6 -16 -11 -33 -11 -39 0 -5 -6 -8 -14 -5 -8 3 -17 -1 -20 -10 -6 -14 -8 -14
-21 3 -13 18 -14 17 -21 -14 -5 -26 -10 -31 -25 -27 -14 5 -19 1 -19 -12 -1
-17 -1 -17 -11 0 -12 21 -29 13 -29 -13 0 -19 -31 -43 -47 -38 -4 2 -19 -8
-33 -22 -25 -25 -25 -25 -28 -3 -3 17 -9 21 -30 20 -21 -2 -28 -10 -37 -40 -8
-30 -13 -35 -23 -25 -9 9 -12 9 -12 -3 0 -12 -2 -12 -10 1 -8 12 -12 9 -22
-17 -15 -39 -28 -43 -28 -9 0 15 -7 26 -20 29 -25 7 -40 -18 -40 -70 -1 -34
-2 -36 -13 -18 -17 30 -41 25 -47 -9 -8 -44 -26 -42 -34 3 -4 27 -11 39 -21
37 -25 -4 -34 -20 -39 -66 -2 -31 -9 -46 -20 -48 -12 -3 -16 4 -16 27 0 24 -4
31 -19 31 -21 0 -31 -19 -31 -55 0 -25 -33 -51 -50 -40 -6 3 -10 23 -10 43 -1
91 -44 75 -60 -21 -5 -32 -12 -62 -15 -67 -14 -22 -35 -8 -45 30 -17 64 -40
47 -40 -30 0 -35 -4 -40 -57 -72 -51 -30 -58 -38 -56 -63 4 -53 54 -117 115
-148 77 -40 159 -46 264 -19 171 44 833 281 1269 454 801 320 839 330 1296
378 423 44 497 56 1044 171 33 7 105 13 160 13 124 0 152 -10 341 -126 77 -46
227 -133 334 -193 435 -241 664 -398 1096 -751 215 -176 374 -323 579 -534
365 -377 764 -769 906 -890 541 -463 982 -720 1540 -898 235 -75 478 -122 629
-122 45 0 48 -2 97 -62 28 -35 77 -81 108 -103 32 -22 65 -47 74 -55 20 -19
75 -215 136 -486 51 -225 96 -376 131 -447 14 -26 58 -97 99 -157 127 -186
204 -360 271 -610 18 -68 40 -121 62 -154 19 -28 50 -81 68 -119 46 -91 90
-136 198 -207 50 -33 101 -67 113 -75 15 -10 36 -60 74 -177 53 -165 87 -247
119 -283 9 -11 33 -47 53 -80 108 -181 329 -350 532 -406 76 -20 144 -22 147
-4 1 6 -42 37 -94 70 -53 33 -119 78 -148 100 -68 52 -182 185 -221 258 -28
54 -30 62 -20 101 20 79 0 143 -103 346 -51 102 -125 264 -164 360 -39 96 -91
220 -116 274 -25 54 -46 100 -46 102 0 1 23 -13 52 -31 92 -61 318 -129 318
-97 0 7 -24 24 -52 38 -73 37 -161 98 -204 141 -31 31 -35 40 -29 69 10 55
-11 105 -92 225 -92 137 -192 341 -227 462 -34 116 -43 235 -38 500 l4 218 71
-8 c91 -10 481 -9 827 3 511 17 982 -7 1993 -102 151 -15 177 -20 177 -34 0
-9 -12 -90 -26 -181 -41 -253 -38 -372 14 -629 80 -394 102 -585 102 -880 0
-238 10 -311 50 -397 28 -57 30 -70 30 -171 0 -119 -15 -214 -56 -359 -14 -51
-23 -100 -20 -109 9 -24 55 13 94 79 81 135 137 306 148 451 5 83 23 180 31
173 2 -3 8 -139 13 -303 6 -165 17 -378 25 -474 9 -96 18 -332 21 -525 5 -375
12 -442 50 -517 36 -70 47 -177 40 -368 -7 -182 -25 -318 -56 -425 -11 -38
-20 -76 -20 -82 0 -25 38 -13 68 22 109 123 166 337 199 745 20 239 19 316 -7
542 -23 203 -37 418 -50 813 -6 165 -13 323 -15 350 l-5 50 15 -50 c7 -27 31
-83 52 -124 37 -73 38 -75 37 -185 -1 -62 -9 -146 -18 -190 -10 -43 -15 -81
-12 -84 12 -11 50 35 76 93 47 105 59 169 64 345 4 147 2 179 -20 292 -75 389
-100 757 -63 953 13 71 65 175 140 281 36 50 78 119 93 154 23 51 31 61 40 49
64 -82 159 -216 188 -264 147 -244 301 -640 358 -916 85 -411 78 -663 -31
-1214 -82 -417 -140 -620 -313 -1092 -92 -253 -128 -364 -161 -493 -47 -182
-52 -363 -15 -500 50 -184 91 -361 130 -565 51 -265 139 -625 214 -870 128
-420 275 -799 351 -900 12 -16 48 -95 80 -175 97 -244 156 -352 234 -429 37
-36 105 -122 151 -191 96 -143 226 -280 311 -328 121 -69 227 -73 253 -10 8
17 11 38 9 48 -2 9 -42 59 -89 110 -108 120 -167 233 -172 330 -4 63 -2 67 39
129 76 112 67 157 -118 550 -131 278 -188 414 -249 591 -98 286 -186 667 -188
813 l-1 89 38 21 c31 19 39 20 46 8 5 -8 28 -89 51 -180 110 -445 215 -812
260 -914 12 -27 43 -72 69 -101 26 -29 74 -102 106 -162 81 -152 122 -210 201
-283 70 -65 149 -111 195 -111 37 0 79 36 79 67 0 14 -25 69 -56 124 -91 161
-124 283 -92 342 6 12 24 38 40 58 36 45 45 99 28 171 -6 29 -58 195 -115 368
-149 454 -170 542 -200 835 -32 325 -54 393 -217 677 -122 212 -185 339 -218
438 -43 128 -14 287 65 360 l27 25 21 -28 c12 -15 49 -94 82 -175 63 -151 141
-285 244 -420 92 -122 181 -194 181 -148 0 7 -18 51 -39 97 -52 111 -91 229
-91 276 0 56 -15 101 -95 288 -80 187 -143 371 -176 510 -16 69 -21 124 -21
235 -1 251 50 479 228 1023 124 379 138 448 131 642 -6 157 -22 264 -63 426
-54 218 -126 377 -299 669 -165 277 -246 442 -314 634 l-29 82 91 38 c51 21
187 85 304 141 l211 103 49 -27 c129 -71 281 -210 341 -313 83 -141 156 -355
253 -743 216 -861 433 -1385 815 -1967 124 -188 208 -299 454 -603 338 -416
466 -598 575 -820 130 -263 177 -473 205 -910 22 -349 56 -565 140 -915 84
-348 85 -354 84 -785 0 -241 -6 -475 -17 -640 -9 -143 -17 -325 -18 -405 -3
-325 -30 -560 -85 -755 -14 -49 -57 -171 -96 -270 -54 -135 -80 -189 -107
-218 -96 -103 -470 -307 -711 -388 l-125 -42 -196 7 c-163 5 -204 4 -242 -9
-24 -8 -82 -22 -128 -31 -57 -10 -116 -31 -184 -64 -79 -38 -115 -50 -170 -55
-214 -20 -331 -69 -446 -184 -81 -82 -109 -129 -109 -184 0 -35 20 -67 43 -67
6 0 68 27 138 60 138 64 198 83 249 78 28 -2 35 -9 45 -37 14 -41 44 -67 98
-83 33 -10 352 -13 1442 -13 770 0 1442 3 1493 6 111 8 185 39 219 93 68 106
69 306 3 697 -11 64 -24 181 -30 260 -5 79 -14 187 -19 240 -6 52 -17 223 -26
380 -8 156 -22 392 -30 524 -9 131 -15 383 -15 560 0 451 16 669 85 1151 42
292 45 440 14 661 -32 232 -62 368 -144 667 -134 489 -137 723 -20 1491 82
538 86 576 92 895 6 311 -3 478 -38 765 -43 353 -108 636 -244 1075 -166 536
-251 942 -285 1365 -31 384 -35 1131 -10 1685 12 250 39 611 49 627 15 27 505
397 819 617 388 272 773 441 1292 565 668 160 1155 232 2100 311 201 17 507
44 680 60 787 74 980 84 1569 77 456 -5 509 -8 1142 -72 799 -80 962 -107
1839 -304 866 -194 1545 -305 2465 -401 1385 -144 3121 -182 4925 -110 2390
97 4996 474 7225 1045 1756 450 3034 999 3604 1550 182 176 239 281 212 397
-28 128 -110 252 -193 292 -85 41 -173 49 -468 43 -525 -11 -1176 -87 -2525
-293 -1560 -238 -2292 -338 -3315 -453 -1322 -149 -2376 -234 -3490 -281 -414
-18 -1504 -24 -2105 -11 -1969 41 -3168 139 -4350 356 -610 112 -979 204
-1635 409 -553 172 -743 227 -1430 420 -206 58 -500 141 -654 186 -473 137
-709 192 -1281 299 -725 135 -1216 201 -1850 245 -503 36 -899 45 -1550 35z
m-8748 -9489 l0 -115 -8 85 c-4 47 -7 126 -7 175 1 87 1 88 8 30 4 -33 8 -112
7 -175z"/>
</g>
</svg>
