<?xml version="1.0" standalone="no"?>
<!DOCTYPE svg PUBLIC "-//W3C//DTD SVG 20010904//EN"
 "http://www.w3.org/TR/2001/REC-SVG-20010904/DTD/svg10.dtd">
<svg version="1.0" xmlns="http://www.w3.org/2000/svg"
 width="4955.000000pt" height="1757.000000pt" viewBox="0 0 4955.000000 1757.000000"
 preserveAspectRatio="xMidYMid meet">
<metadata>
Created by potrace 1.16, written by Peter Selinger 2001-2019
</metadata>
<g transform="translate(0.000000,1757.000000) scale(0.100000,-0.100000)"
fill="#000000" stroke="none">
<path d="M6235 17549 c-778 -72 -1272 -340 -1857 -1006 l-107 -121 -153 -78
c-84 -42 -260 -142 -391 -221 -132 -79 -262 -155 -289 -169 -69 -35 -135 -40
-271 -19 -181 27 -279 0 -364 -100 -49 -57 -153 -232 -234 -389 l-63 -123
-203 -97 c-111 -54 -248 -117 -305 -141 -57 -24 -122 -60 -146 -80 -59 -51
-116 -81 -192 -100 -87 -22 -111 -37 -187 -107 -46 -43 -92 -73 -158 -104 -80
-37 -101 -53 -154 -113 -34 -38 -81 -82 -103 -98 -67 -46 -362 -343 -426 -429
-32 -43 -110 -135 -173 -204 -220 -242 -309 -357 -377 -487 -91 -176 -94 -311
-13 -623 57 -220 150 -460 183 -472 7 -3 19 -22 27 -43 38 -107 147 -248 273
-352 101 -85 384 -298 453 -342 76 -48 105 -53 225 -35 218 32 871 178 1524
340 540 134 813 184 1009 184 51 0 187 -9 302 -20 462 -44 680 -21 1230 130
638 175 964 260 1050 276 142 25 341 29 465 10 156 -25 197 -39 410 -141 663
-318 1389 -620 1925 -800 319 -107 455 -168 610 -270 110 -73 183 -142 329
-308 279 -320 494 -493 869 -703 457 -257 1076 -510 1524 -624 l43 -11 -17
-37 c-26 -60 -110 -390 -121 -482 -20 -155 -25 -344 -12 -402 16 -70 91 -227
172 -360 36 -59 93 -171 128 -249 72 -165 69 -159 181 -310 89 -120 150 -178
212 -204 125 -52 237 39 237 193 0 23 -4 42 -8 42 -4 0 -28 -20 -52 -45 -24
-25 -51 -45 -60 -45 -24 0 -55 37 -84 100 -28 60 -30 91 -12 193 l12 69 62
-81 c222 -287 455 -524 556 -566 120 -50 189 25 191 207 0 116 -18 125 -76 38
l-16 -25 -23 44 c-15 30 -25 73 -30 135 -4 50 -17 114 -27 142 -31 79 -130
216 -260 359 -132 144 -179 204 -147 187 10 -6 55 -38 99 -71 162 -123 202
-150 321 -205 251 -117 378 -107 449 34 13 24 18 57 17 107 0 40 3 73 8 73 5
0 44 -11 87 -24 276 -87 410 -94 485 -27 27 24 32 36 36 88 7 97 -49 268 -88
268 -14 0 -17 -12 -35 -117 l-6 -38 -37 19 c-45 23 -70 50 -107 116 -15 28
-42 65 -59 83 -72 77 -230 149 -463 211 -186 49 -240 76 -428 208 -21 15 -61
40 -86 55 -49 28 -91 76 -103 115 l-7 21 88 -19 c48 -10 248 -53 443 -94 648
-138 939 -205 1620 -375 676 -169 855 -218 1266 -349 121 -38 362 -109 535
-156 279 -77 329 -94 454 -154 77 -37 172 -81 210 -96 39 -16 75 -33 82 -39 6
-6 68 -194 137 -418 185 -599 277 -837 482 -1248 229 -459 425 -796 734 -1265
282 -428 333 -525 385 -729 49 -194 54 -378 20 -705 -19 -176 -12 -228 55
-437 126 -390 123 -463 -47 -1034 -113 -381 -177 -523 -310 -688 -34 -42 -107
-133 -163 -202 -117 -145 -140 -184 -140 -240 0 -84 -44 -126 -226 -211 -227
-108 -468 -193 -640 -228 -222 -45 -328 -55 -634 -56 -406 -3 -514 -20 -655
-106 -108 -65 -243 -221 -260 -300 -11 -48 5 -53 66 -20 65 35 208 86 264 94
64 10 72 -1 52 -66 -28 -88 -19 -134 35 -184 48 -44 63 -44 966 -38 894 5
1399 17 1467 35 25 6 134 7 292 3 288 -7 318 -3 388 59 55 48 111 157 120 233
4 30 2 107 -5 170 -15 147 -15 435 -1 545 19 142 11 137 90 60 93 -92 213
-153 311 -158 37 -2 76 0 85 6 15 8 10 15 -36 49 -113 84 -219 216 -219 273 0
11 14 46 30 77 40 74 41 157 4 258 -34 93 -51 158 -59 227 -6 55 0 78 185 630
105 315 204 623 220 683 77 298 79 532 8 800 -12 44 -55 170 -96 280 -138 370
-157 458 -149 670 6 157 21 230 111 545 92 324 164 632 221 945 l8 40 23 -50
c27 -58 38 -109 53 -260 16 -165 14 -606 -4 -755 -14 -114 -20 -134 -64 -225
-27 -55 -66 -145 -85 -200 -20 -55 -50 -134 -66 -177 -60 -156 -72 -320 -35
-471 21 -81 130 -298 178 -353 22 -25 60 -53 87 -65 27 -11 55 -28 64 -38 23
-25 43 -161 71 -475 28 -313 35 -356 75 -471 15 -44 35 -117 44 -163 23 -114
54 -198 151 -402 46 -96 99 -210 118 -252 54 -119 155 -276 216 -335 102 -101
264 -176 407 -189 55 -5 73 -2 89 10 23 18 31 8 -100 120 -65 56 -145 159
-145 187 0 13 10 20 35 24 19 3 50 7 69 10 19 3 49 19 67 36 29 27 38 30 70
25 38 -6 89 7 89 22 0 5 -26 29 -57 54 -51 40 -62 55 -96 134 -21 49 -40 94
-43 100 -3 7 10 17 31 24 92 30 103 155 26 308 -22 43 -37 106 -65 267 -21
116 -48 261 -61 323 -28 134 -26 176 16 395 16 81 33 189 39 240 15 129 22
146 97 218 70 68 154 185 173 245 21 63 -18 169 -91 249 l-39 42 45 5 c47 6
99 33 90 48 -3 5 -29 16 -58 25 -71 24 -198 100 -244 147 -40 41 -42 50 -28
175 9 81 -8 130 -80 233 -31 43 -67 104 -80 135 -22 49 -25 66 -20 133 3 42
10 187 15 322 5 135 19 355 30 490 36 426 26 723 -31 931 -31 114 -118 282
-196 379 -124 154 -261 250 -571 401 -177 86 -282 151 -282 175 0 24 106 230
202 394 l85 145 519 192 c285 106 805 299 1154 429 890 331 963 356 1330 448
277 71 363 86 470 86 68 0 92 4 105 16 15 15 17 15 34 0 10 -9 26 -16 36 -16
49 0 287 57 420 100 311 101 363 108 1110 140 472 21 1215 68 1895 120 212 17
543 39 735 50 193 11 521 31 730 45 209 13 463 29 565 35 250 15 632 54 935
95 138 19 367 48 510 65 517 61 795 97 1583 206 320 44 698 107 1107 183 1395
262 1689 313 2250 390 160 22 430 60 600 85 609 88 991 134 1360 161 116 8
361 26 545 40 184 14 369 27 410 30 41 3 163 12 271 20 269 21 940 45 1254 45
143 0 388 -5 545 -10 157 -5 427 -14 600 -20 296 -10 538 -26 745 -50 50 -6
164 -17 255 -25 229 -21 395 -47 755 -115 658 -126 1015 -206 1272 -286 61
-19 190 -56 285 -84 181 -51 351 -107 484 -160 44 -18 147 -56 230 -85 214
-76 813 -316 968 -387 251 -115 352 -165 516 -258 697 -393 962 -582 1305
-936 143 -148 162 -158 212 -108 22 22 25 32 20 67 -6 47 -77 193 -134 279
-136 204 -434 529 -668 729 -439 376 -973 717 -1710 1095 -392 200 -829 396
-1085 486 -47 17 -148 55 -225 85 -305 120 -577 207 -1300 413 -351 100 -568
155 -775 195 -74 14 -243 48 -375 75 -287 58 -399 75 -870 134 -855 107 -1034
126 -1325 146 -85 6 -225 17 -310 25 -374 35 -798 56 -1520 76 -475 13 -1406
6 -2222 -16 -581 -16 -788 -28 -1448 -79 -1350 -106 -1774 -116 -2810 -65
-251 12 -541 31 -935 64 -165 13 -367 29 -450 35 -325 23 -666 69 -1020 135
-99 19 -295 55 -435 80 -258 47 -523 103 -910 194 -428 101 -574 143 -1575
456 -253 79 -658 204 -900 279 -242 74 -647 205 -900 291 -253 87 -541 184
-640 216 -204 67 -1236 379 -1635 494 -146 42 -522 152 -837 246 -1872 554
-2211 639 -3373 838 -954 165 -1050 177 -1620 216 -206 14 -472 32 -590 40
-658 45 -785 49 -1370 50 -899 0 -1388 -41 -2051 -175 -535 -108 -835 -198
-1395 -418 -498 -196 -616 -237 -1074 -371 -644 -189 -893 -197 -1225 -41
-237 112 -437 287 -872 760 -271 295 -632 609 -928 807 -293 195 -650 362
-982 457 -260 75 -536 100 -808 75z m7687 -9042 c29 -13 90 -36 136 -51 45
-15 82 -32 82 -38 0 -29 -26 -90 -46 -109 -22 -20 -27 -21 -65 -10 -64 19
-126 83 -145 150 -9 31 -19 62 -21 69 -7 17 -2 16 59 -11z"/>
</g>
</svg>
