<?xml version="1.0" standalone="no"?>
<!DOCTYPE svg PUBLIC "-//W3C//DTD SVG 20010904//EN"
 "http://www.w3.org/TR/2001/REC-SVG-20010904/DTD/svg10.dtd">
<svg version="1.0" xmlns="http://www.w3.org/2000/svg"
 width="1536.000000pt" height="954.000000pt" viewBox="0 0 1536.000000 954.000000"
 preserveAspectRatio="xMidYMid meet">
<metadata>
Created by potrace 1.16, written by Peter Selinger 2001-2019
</metadata>
<g transform="translate(0.000000,954.000000) scale(0.100000,-0.100000)"
fill="#000000" stroke="none">
<path d="M12375 9534 c-163 -12 -368 -49 -500 -90 -44 -13 -132 -39 -195 -58
-122 -36 -142 -42 -445 -137 -104 -33 -203 -64 -220 -69 -59 -18 -302 -80
-430 -109 -241 -55 -503 -101 -787 -136 -156 -19 -326 -41 -378 -50 -52 -8
-140 -19 -195 -25 -55 -6 -179 -22 -275 -36 -203 -28 -422 -54 -745 -90 -276
-30 -673 -86 -845 -119 -69 -13 -192 -34 -275 -45 -527 -74 -1009 -186 -1186
-275 -59 -30 -84 -53 -154 -139 -46 -57 -731 -329 -945 -376 -47 -10 -157 -42
-245 -70 -88 -28 -187 -55 -220 -59 -81 -11 -312 -79 -475 -141 -41 -16 -110
-38 -153 -49 -93 -25 -173 -64 -349 -171 -72 -44 -135 -80 -140 -80 -10 0
-145 -60 -193 -86 -138 -74 -316 -170 -395 -211 -265 -139 -382 -210 -537
-328 l-42 -32 -208 -2 c-186 -2 -210 -4 -239 -21 -17 -11 -38 -20 -46 -20 -19
0 -48 -32 -48 -52 0 -9 -9 -38 -21 -64 -13 -32 -21 -77 -24 -129 -5 -119 -25
-267 -40 -295 -32 -59 -45 -141 -49 -307 -2 -92 0 -179 6 -192 7 -21 2 -35
-39 -93 -26 -37 -63 -90 -81 -116 -18 -26 -89 -111 -159 -189 -91 -103 -138
-148 -170 -163 -24 -11 -110 -39 -191 -61 -200 -56 -270 -95 -392 -219 -103
-106 -123 -127 -190 -210 -25 -30 -49 -58 -54 -61 -20 -15 -78 -208 -87 -289
-5 -47 -12 -107 -15 -134 -9 -74 10 -147 49 -184 42 -40 80 -54 113 -42 14 6
50 10 79 10 58 0 116 19 178 57 40 25 57 28 237 41 92 7 114 12 182 45 43 20
84 37 92 37 8 0 28 11 44 25 17 14 34 25 39 25 18 0 181 -186 217 -246 19 -32
58 -81 86 -109 28 -27 58 -62 66 -77 8 -15 32 -37 53 -48 22 -11 58 -42 81
-69 23 -27 60 -62 81 -77 24 -16 47 -44 58 -70 12 -26 28 -45 42 -49 13 -4 61
-42 107 -84 163 -147 176 -162 195 -223 14 -44 31 -71 75 -115 31 -32 77 -84
102 -116 24 -32 62 -71 84 -85 52 -35 153 -202 195 -324 18 -49 45 -111 62
-139 28 -45 31 -55 24 -105 -3 -30 -18 -81 -32 -112 -19 -44 -24 -67 -20 -102
22 -181 38 -249 64 -281 20 -24 112 -72 155 -79 50 -10 156 19 208 55 22 15
56 52 76 81 25 39 49 61 84 79 48 24 152 103 178 134 29 36 55 99 78 187 44
175 50 184 183 266 64 39 148 92 186 117 67 43 142 84 435 239 124 65 144 73
254 92 66 12 169 37 229 56 149 47 233 68 464 114 109 23 248 54 309 70 61 16
210 50 330 75 301 62 346 76 491 149 71 35 176 87 235 114 93 44 118 61 180
125 40 41 102 95 138 121 35 26 137 123 227 216 139 143 174 174 236 206 155
80 265 149 330 208 37 33 103 93 145 131 52 48 93 77 127 88 28 10 73 27 100
39 28 11 87 31 133 44 45 14 107 35 136 48 30 13 69 27 87 31 39 8 125 50 134
64 14 24 98 71 115 66 27 -9 87 -74 101 -109 37 -98 47 -114 81 -119 18 -3 42
-8 53 -12 18 -5 27 5 62 67 54 95 60 137 37 255 l-18 96 35 28 c19 16 39 29
46 29 18 0 203 -202 203 -223 0 -11 15 -45 33 -76 49 -81 73 -131 108 -221 57
-150 135 -163 159 -27 5 31 15 83 20 114 19 101 24 254 11 328 -12 68 -47 177
-78 242 -8 18 -13 40 -9 48 3 9 36 30 72 47 78 36 75 38 122 -67 14 -33 41
-88 59 -123 23 -43 33 -76 33 -106 0 -33 8 -53 33 -87 17 -24 50 -79 71 -122
22 -42 45 -82 51 -87 33 -28 80 41 96 142 5 34 16 72 23 87 7 14 16 72 19 128
7 121 -11 250 -48 349 -14 37 -25 74 -25 83 0 13 59 71 73 71 6 0 137 -201
166 -255 12 -22 33 -58 47 -80 13 -22 42 -76 64 -120 71 -141 112 -165 170
-99 56 65 84 152 95 301 7 100 -7 192 -51 342 l-34 115 21 21 20 20 22 -27
c12 -14 33 -45 47 -69 14 -23 47 -65 74 -93 27 -27 55 -65 62 -82 8 -18 19
-36 25 -39 6 -4 19 -27 29 -51 11 -24 33 -58 49 -76 16 -18 68 -89 114 -158
46 -68 95 -133 109 -143 14 -11 46 -21 71 -24 42 -5 46 -3 60 23 24 47 41 214
34 348 -7 134 -36 262 -109 474 l-43 123 25 20 c14 10 30 19 37 19 7 0 30 -27
53 -60 22 -32 64 -87 93 -122 28 -34 70 -86 92 -115 206 -271 215 -280 278
-262 50 13 67 67 74 229 8 172 -11 243 -120 463 l-84 168 34 26 c19 14 52 28
76 30 l42 5 93 -131 c51 -72 97 -131 102 -131 5 0 19 -19 31 -42 24 -47 111
-175 189 -278 67 -87 97 -127 150 -200 42 -56 48 -61 80 -58 29 3 36 8 46 38
27 82 34 139 34 284 0 245 -26 354 -155 659 -37 86 -65 163 -62 170 2 7 27 25
55 40 l51 27 38 -46 c21 -26 64 -76 95 -111 65 -73 84 -103 164 -261 73 -144
104 -170 168 -141 28 13 36 30 67 144 16 60 22 109 22 195 1 123 -16 202 -71
337 -24 58 -24 63 -9 87 16 24 67 43 86 32 9 -6 38 -59 89 -161 13 -27 37 -63
52 -80 50 -55 180 -232 180 -245 0 -24 41 -79 82 -110 46 -33 97 -40 117 -16
7 8 17 71 24 140 9 109 9 140 -7 238 -24 151 -46 222 -112 353 -56 113 -65
156 -40 191 14 17 17 18 42 4 26 -15 57 -62 84 -129 7 -18 46 -92 87 -165 40
-72 78 -147 84 -166 6 -19 17 -42 23 -50 7 -8 23 -40 36 -70 13 -30 36 -71 50
-90 15 -19 32 -45 39 -57 8 -16 21 -23 41 -23 68 0 96 112 94 375 -1 170 -3
188 -37 323 -34 142 -36 175 -3 77 16 -47 59 -134 170 -346 27 -52 76 -147
107 -211 48 -98 62 -118 80 -118 37 0 58 29 86 119 26 81 27 97 27 266 -1 164
-3 188 -28 275 -15 52 -30 104 -33 115 -3 11 14 -9 38 -44 24 -35 58 -84 76
-110 18 -25 53 -76 78 -113 51 -75 78 -98 112 -98 33 0 50 35 63 130 11 79 7
260 -7 318 -3 15 -1 22 9 22 20 0 95 -155 112 -232 13 -59 91 -75 114 -23 16
36 15 136 -3 204 -16 62 -41 221 -60 381 -11 91 -10 109 3 135 8 17 21 34 29
38 19 12 73 122 73 150 0 21 -16 58 -58 132 -6 11 -20 38 -30 60 -33 67 -167
327 -198 381 -76 132 -149 218 -284 334 -104 89 -231 177 -267 186 -13 4 -23
10 -23 15 0 5 -6 9 -12 9 -7 0 -49 22 -93 50 -44 27 -100 60 -125 72 -25 13
-47 26 -50 29 -3 3 -45 25 -95 48 -90 43 -240 87 -395 115 -193 36 -585 62
-745 50z m221 -269 c211 -28 289 -43 344 -64 59 -22 159 -103 184 -149 44 -80
56 -111 56 -155 0 -42 -5 -53 -38 -89 l-39 -41 -273 -9 c-234 -8 -283 -7 -344
6 -123 27 -237 39 -376 40 -131 1 -137 2 -195 32 -33 18 -98 65 -145 106 -101
88 -114 103 -107 121 8 21 181 107 214 107 16 0 64 14 108 31 190 74 386 95
611 64z m-3501 -980 c271 -73 381 -147 510 -346 17 -25 40 -61 52 -79 12 -18
25 -55 28 -81 4 -27 11 -52 17 -55 15 -10 0 -294 -19 -374 -21 -86 -115 -298
-168 -380 -24 -36 -67 -90 -96 -120 -75 -76 -271 -252 -276 -246 -2 2 3 28 11
57 15 51 49 99 69 99 6 0 34 12 63 27 39 19 58 37 70 62 9 20 41 62 70 94 70
76 83 127 37 144 -10 4 -30 15 -44 26 -23 16 -40 19 -116 16 -87 -4 -94 -6
-202 -62 -106 -55 -116 -58 -214 -67 -116 -11 -297 -34 -374 -49 -56 -11 -138
-49 -188 -87 -16 -12 -55 -33 -85 -46 -30 -14 -91 -47 -135 -74 -44 -27 -95
-56 -112 -63 -24 -10 -33 -20 -33 -36 0 -36 -19 -46 -230 -120 -72 -26 -102
-42 -125 -68 -26 -29 -38 -35 -85 -39 -44 -3 -79 -17 -170 -67 -63 -34 -129
-71 -147 -82 l-31 -20 -87 77 c-56 50 -92 91 -102 115 -8 22 -38 58 -69 84
-30 26 -57 58 -61 73 -3 15 -19 52 -35 83 -15 31 -28 64 -28 74 0 21 -47 132
-111 260 -27 55 -49 106 -49 114 0 7 -14 75 -31 150 -38 167 -36 230 8 319 55
109 73 125 236 211 111 57 196 93 312 130 88 29 180 58 205 67 25 8 80 24 123
35 43 12 103 31 132 44 66 30 209 65 262 65 51 0 152 26 333 86 133 44 160 49
330 65 255 24 425 19 555 -16z m1854 12 c69 -24 66 -20 98 -144 14 -56 -6 -91
-109 -199 -55 -57 -111 -107 -123 -110 -51 -13 -83 31 -106 144 -10 48 -9 66
5 117 23 77 72 171 104 196 31 24 52 24 131 -4z m-5119 -1106 c67 -49 242
-226 268 -271 23 -41 109 -150 276 -353 107 -130 144 -196 198 -349 27 -79 55
-166 63 -194 8 -28 24 -68 36 -88 l22 -37 -29 -31 c-16 -16 -50 -40 -75 -53
-25 -13 -52 -31 -59 -40 -8 -9 -58 -49 -113 -89 -54 -39 -129 -93 -167 -121
-38 -27 -88 -62 -112 -78 -24 -15 -70 -47 -103 -71 -33 -25 -80 -52 -105 -62
-108 -41 -256 -124 -295 -164 -40 -42 -110 -80 -230 -124 -71 -26 -192 -102
-256 -162 -26 -23 -78 -63 -115 -87 -38 -24 -96 -71 -129 -103 -83 -82 -175
-155 -186 -148 -5 3 -9 18 -9 33 0 27 -99 171 -148 215 -12 10 -31 38 -43 63
-12 24 -39 58 -61 76 -22 18 -68 57 -102 87 -33 30 -113 86 -177 123 -64 37
-124 76 -134 87 -17 18 -16 21 24 66 23 26 44 57 47 68 3 12 44 55 90 96 47
41 116 103 153 136 64 58 72 62 142 74 64 11 79 18 110 49 35 35 36 40 78 256
57 293 69 327 159 460 161 236 286 377 386 434 28 17 77 52 109 80 137 120
290 219 380 246 48 14 59 12 107 -24z m974 -1733 c15 -124 17 -194 4 -210 -13
-18 -68 -31 -179 -42 -70 -7 -102 13 -102 63 0 25 11 43 54 87 45 46 188 143
211 144 4 0 9 -19 12 -42z m-4204 -229 c36 -5 88 -20 116 -33 85 -39 247 -150
321 -219 52 -49 93 -77 157 -107 102 -47 124 -62 176 -127 26 -32 77 -72 157
-122 65 -41 143 -96 173 -121 30 -25 81 -65 112 -88 106 -78 198 -221 244
-380 26 -89 14 -276 -26 -412 -46 -155 -144 -331 -243 -437 -74 -80 -78 -86
-75 -125 3 -38 1 -42 -27 -51 -16 -5 -45 -23 -64 -40 -49 -42 -81 -53 -222
-76 -102 -16 -141 -18 -218 -10 -153 14 -221 67 -383 296 -67 94 -69 99 -178
458 -70 229 -150 371 -254 447 -41 30 -41 30 -126 22 -125 -13 -405 -6 -465
10 -27 8 -70 20 -93 26 -54 14 -128 80 -153 135 -32 70 -26 112 32 201 28 44
82 113 119 154 37 41 90 109 119 150 29 41 74 95 99 120 26 25 80 83 120 128
46 51 92 92 120 106 66 33 228 84 304 94 88 13 86 13 158 1z"/>
<path d="M13904 3278 c-4 -6 -11 -116 -15 -245 -4 -128 -10 -246 -13 -261 -3
-15 -17 -90 -32 -167 -14 -77 -31 -146 -36 -152 -12 -14 -56 -17 -76 -5 -8 6
-12 36 -11 98 1 76 -5 116 -46 274 -52 203 -69 243 -159 373 l-61 89 -49 -5
c-36 -3 -55 -11 -68 -27 -19 -23 -21 -77 -23 -665 -1 -190 -13 -229 -78 -238
-51 -7 -64 3 -72 56 -10 59 -73 272 -98 332 -29 69 -96 169 -161 239 l-54 59
-39 -15 c-63 -25 -64 -33 -70 -385 -5 -252 -9 -317 -20 -329 -18 -18 -117 -19
-130 -1 -5 6 -15 62 -22 122 -15 136 -44 225 -127 386 -52 101 -77 138 -132
192 -62 61 -69 66 -97 59 -62 -17 -84 -106 -86 -352 -1 -85 -4 -207 -8 -270
l-6 -115 -52 -3 c-63 -4 -66 1 -83 125 -25 182 -116 368 -239 486 -98 94 -162
133 -190 117 -37 -19 -41 -41 -31 -172 5 -67 10 -184 10 -258 1 -74 5 -169 10
-210 6 -56 5 -78 -4 -88 -7 -7 -52 -15 -107 -19 l-96 -6 -12 48 c-15 61 -43
114 -73 142 -13 13 -66 50 -118 83 -92 59 -116 65 -144 39 -5 -5 -4 -42 2 -91
7 -46 12 -104 12 -130 0 -62 -18 -72 -121 -66 -83 5 -109 17 -109 52 0 34 -78
255 -118 335 -43 86 -92 139 -217 235 -129 100 -147 109 -171 92 -26 -19 -23
-104 6 -206 43 -153 101 -492 87 -507 -3 -2 -17 1 -33 8 -16 6 -67 14 -114 17
l-85 7 -17 100 c-26 150 -72 325 -104 388 -15 32 -46 80 -70 107 -24 28 -52
64 -64 80 -26 37 -124 103 -146 98 -34 -6 -39 -32 -25 -135 36 -280 61 -626
45 -636 -12 -7 -146 18 -172 32 -16 9 -21 26 -26 108 -11 154 -60 311 -103
328 -10 4 -62 9 -115 12 l-98 6 0 -69 c0 -138 -20 -178 -71 -149 -101 59 -91
58 -348 46 -354 -17 -552 -29 -688 -42 -180 -17 -614 2 -788 35 -44 8 -96 16
-115 16 -49 1 -112 32 -178 88 -118 100 -152 115 -304 133 -209 23 -345 12
-553 -45 -66 -19 -181 -48 -255 -66 -200 -48 -292 -76 -425 -130 -178 -71
-246 -90 -392 -105 -138 -15 -135 -14 -438 -135 -115 -46 -442 -226 -539 -297
-128 -93 -303 -236 -422 -345 -113 -103 -289 -228 -348 -248 -24 -8 -72 -44
-131 -100 -139 -133 -212 -161 -316 -124 -65 23 -189 47 -232 46 -44 -2 -78
-22 -97 -58 -8 -14 -40 -41 -73 -60 -51 -30 -67 -34 -126 -34 -60 0 -73 -4
-107 -29 -79 -60 -104 -84 -132 -124 -16 -23 -40 -59 -54 -79 -49 -72 -44
-183 12 -249 27 -33 30 -34 101 -33 49 1 94 9 131 24 58 21 58 21 86 2 32 -23
122 -42 198 -42 104 0 428 49 542 82 67 19 76 20 105 6 39 -18 204 -8 367 22
165 30 253 40 365 41 100 1 107 -1 162 -32 155 -86 185 -100 268 -120 50 -11
133 -32 185 -45 227 -58 345 -78 770 -130 25 -4 122 -6 215 -5 94 0 206 -4
250 -9 309 -38 651 -55 815 -39 136 12 204 14 364 6 97 -5 126 -10 160 -29 37
-21 54 -23 186 -23 262 1 515 37 618 89 15 7 59 23 97 36 39 12 120 43 180 68
61 25 162 60 225 77 63 18 159 49 214 69 67 25 147 44 250 60 215 34 207 33
696 61 614 35 1092 48 1795 50 564 1 858 11 1075 36 47 5 146 14 220 19 136 9
292 41 399 81 30 11 131 35 225 54 94 19 205 42 246 51 60 13 104 15 221 9
168 -7 281 5 375 40 35 13 127 35 206 50 143 26 143 26 338 127 322 166 424
246 495 392 47 95 90 238 101 336 11 101 -34 189 -133 260 -20 14 -21 19 -10
85 6 39 11 118 12 176 l0 105 -40 52 c-36 48 -42 52 -70 46 -60 -13 -66 -19
-109 -119 -40 -95 -85 -177 -104 -188 -17 -12 -29 11 -46 92 -18 84 -58 186
-136 342 -52 103 -65 119 -101 119 -25 0 -59 -22 -59 -38 0 -38 -32 -314 -39
-337 -5 -16 -12 -48 -16 -70 -6 -40 -53 -134 -83 -167 -12 -14 -31 -18 -90
-18 l-75 0 7 128 c8 137 -5 280 -30 341 -8 18 -14 42 -14 53 0 57 -120 255
-185 306 -31 24 -118 31 -131 10z"/>
</g>
</svg>
