<?xml version="1.0" standalone="no"?>
<!DOCTYPE svg PUBLIC "-//W3C//DTD SVG 20010904//EN"
 "http://www.w3.org/TR/2001/REC-SVG-20010904/DTD/svg10.dtd">
<svg version="1.0" xmlns="http://www.w3.org/2000/svg"
 width="4031.000000pt" height="1223.000000pt" viewBox="0 0 4031.000000 1223.000000"
 preserveAspectRatio="xMidYMid meet">
<metadata>
Created by potrace 1.16, written by Peter Selinger 2001-2019
</metadata>
<g transform="translate(0.000000,1223.000000) scale(0.100000,-0.100000)"
fill="#000000" stroke="none">
<path d="M22291 12216 c-30 -16 -50 -52 -51 -88 0 -26 -3 -28 -42 -28 -24 0
-142 -7 -263 -15 -286 -19 -315 -19 -315 0 0 46 -51 95 -100 95 -53 0 -100
-49 -100 -104 l0 -22 -302 -17 c-359 -21 -328 -21 -328 -2 0 46 -51 95 -100
95 -52 0 -100 -49 -100 -102 l0 -24 -307 -17 c-393 -22 -356 -24 -372 18 -13
36 -53 65 -91 65 -51 0 -100 -49 -100 -100 0 -16 -7 -20 -34 -20 -38 0 -514
-27 -592 -34 -50 -4 -51 -4 -63 30 -13 35 -53 64 -91 64 -49 0 -100 -49 -100
-95 0 -9 -10 -15 -22 -15 -13 0 -165 -9 -338 -20 -173 -11 -323 -20 -332 -20
-10 0 -24 13 -32 28 -36 70 -145 66 -176 -8 l-12 -30 -334 0 -333 0 -15 28
c-15 29 -53 52 -87 52 -31 0 -77 -27 -84 -50 -6 -20 -14 -20 -396 -20 -374 0
-390 1 -409 20 -39 39 -102 38 -142 -2 -21 -21 -24 -21 -438 -16 -409 5 -417
5 -438 26 -40 40 -103 41 -142 2 -20 -20 -32 -20 -493 -18 -389 3 -478 6 -504
18 -29 13 -37 13 -65 0 -47 -21 -918 -15 -960 6 -35 18 -62 18 -100 -2 -29
-15 -61 -15 -332 -5 -187 7 -313 15 -333 23 -25 9 -40 10 -62 2 -21 -8 -361 0
-1305 33 l-1277 43 -1897 -130 -1897 -130 -1450 -389 -1450 -388 -1181 -591
-1181 -591 -312 -403 -312 -403 6 -70 c7 -75 16 -94 37 -78 7 6 180 143 385
306 204 162 382 302 395 310 12 9 530 207 1149 441 l1125 426 1444 160 1443
160 1716 -90 1716 -90 3031 -745 3031 -746 1838 -714 c1563 -608 1844 -720
1874 -748 20 -19 196 -181 391 -362 195 -181 369 -341 386 -357 24 -23 87 -47
300 -114 148 -48 273 -88 278 -91 4 -3 -61 -32 -145 -64 l-154 -59 -100 -102
c-56 -57 -218 -223 -361 -371 l-259 -267 -648 -140 c-356 -76 -651 -141 -656
-144 -5 -3 -89 -157 -186 -341 l-178 -336 8 -408 c7 -394 6 -414 -16 -576 -23
-167 -23 -167 -79 -268 l-55 -101 -106 -26 c-125 -32 -129 -34 -129 -65 0 -21
-4 -24 -27 -20 -44 8 -183 25 -198 25 -8 0 -19 -9 -25 -21 -10 -17 -4 -30 46
-91 32 -38 67 -73 78 -78 12 -4 58 -13 104 -20 45 -8 82 -18 82 -23 0 -20
-213 -722 -222 -732 -5 -5 -93 -57 -196 -115 l-187 -105 -3 -53 -3 -52 -169 0
c-119 0 -171 -3 -176 -12 -5 -7 8 -25 32 -46 93 -82 90 -80 268 -108 178 -27
174 -27 286 14 8 3 -39 -53 -105 -126 l-120 -131 -183 -82 c-100 -45 -185 -85
-187 -89 -2 -4 -9 -53 -14 -110 -5 -56 -12 -105 -16 -108 -3 -3 -114 -21 -246
-39 -223 -30 -269 -41 -269 -64 0 -5 49 -34 110 -64 l110 -55 276 0 277 0 302
155 303 155 275 328 c210 250 330 382 509 560 l233 232 104 30 c58 16 108 33
113 38 5 5 -16 155 -46 337 l-55 329 40 377 39 377 103 232 102 233 469 148
468 148 840 -115 840 -115 622 192 c341 106 628 195 637 200 8 4 129 181 268
392 l252 385 222 -120 c122 -66 241 -131 265 -144 l42 -25 0 -138 c0 -137 1
-142 120 -726 l120 -588 -40 -563 c-28 -397 -40 -627 -40 -781 l0 -219 354
-506 c217 -309 373 -542 401 -598 38 -77 55 -130 100 -320 l54 -228 -30 -78
c-31 -81 -31 -78 -1 -135 1 -4 -34 -32 -78 -64 -45 -31 -79 -62 -77 -68 2 -6
38 -27 80 -46 l76 -34 111 63 c94 53 114 68 132 104 l22 41 27 -204 c16 -112
34 -209 40 -217 10 -12 233 -14 1463 -12 l1451 3 40 73 c22 39 46 72 53 72 8
0 120 -27 249 -61 157 -40 239 -57 245 -51 7 7 -7 41 -42 102 l-53 93 -224
108 -224 108 -557 21 -557 20 -397 142 -397 142 -3 105 -3 106 -266 140 -266
140 -244 344 c-134 189 -248 350 -252 357 -4 7 -37 168 -72 358 l-64 344 357
753 358 754 384 560 c352 514 384 565 392 615 5 30 10 56 12 58 2 1 129 12
282 23 277 19 285 21 1249 190 534 93 976 172 984 175 14 4 14 -21 -4 -436 -5
-102 -23 -195 -45 -225 -4 -5 -24 -62 -45 -125 -21 -63 -42 -120 -46 -126 -17
-22 -77 -214 -85 -274 -2 -14 -10 -42 -18 -61 -8 -20 -13 -39 -10 -41 2 -3 -2
-24 -10 -46 -9 -23 -13 -42 -11 -42 3 0 0 -12 -6 -27 -15 -40 -36 -148 -44
-220 -3 -34 -8 -70 -10 -81 -19 -102 -25 -243 -10 -248 9 -3 70 115 145 281
17 39 36 80 42 92 6 12 35 39 64 60 43 30 57 48 70 86 8 26 18 47 21 47 3 0 2
-26 -2 -58 -4 -31 -9 -111 -10 -177 -2 -66 -6 -172 -10 -235 -6 -107 -4 -129
20 -210 7 -23 16 -60 19 -82 6 -36 14 -48 31 -48 13 0 22 30 41 135 6 37 17
68 91 257 19 50 37 77 66 100 l39 33 -7 115 c-4 63 -7 131 -7 150 -1 50 56
250 67 238 2 -2 7 -26 10 -54 3 -27 8 -67 12 -89 3 -22 6 -47 6 -55 0 -23 15
-38 46 -45 20 -4 27 -12 30 -33 4 -42 8 -67 10 -67 2 0 6 -25 14 -90 3 -22 10
-68 16 -103 13 -68 18 -45 -80 -357 -34 -104 -34 -105 -14 -105 12 0 190 224
238 300 19 31 20 31 37 190 6 57 13 117 16 134 10 71 17 154 18 206 0 55 -10
146 -19 160 -2 4 -6 22 -9 41 -6 49 -33 199 -40 224 -17 61 -20 129 -8 180 6
22 13 56 16 75 3 19 8 45 10 57 3 11 7 43 11 70 3 26 11 71 16 98 5 28 12 65
14 83 8 53 25 156 41 257 3 17 8 48 10 70 3 22 11 45 17 52 7 7 55 15 117 18
144 8 249 14 350 21 47 3 119 7 160 9 68 3 77 6 95 31 11 15 54 71 95 125 41
54 96 127 121 161 226 311 274 369 323 399 28 16 58 34 66 39 8 5 216 27 461
50 l445 40 1640 500 1639 500 860 354 c473 195 1130 474 1460 620 l599 266
523 70 523 71 376 -11 c217 -7 380 -8 385 -3 5 5 60 127 123 271 63 144 129
280 146 302 l32 41 -46 310 c-25 171 -51 318 -58 328 -19 25 -380 471 -382
471 -1 0 -123 43 -271 95 -240 85 -271 98 -296 129 -26 31 -34 34 -102 41
l-74 6 -74 75 -73 74 -58 0 c-56 0 -57 1 -88 45 -17 25 -36 45 -43 45 -7 0
-43 -5 -81 -10 l-70 -10 -51 50 -52 51 -57 -14 c-57 -15 -58 -15 -126 15 l-70
31 -59 -26 -59 -26 -541 246 -542 245 -172 -99 c-143 -82 -173 -104 -182 -128
-5 -17 -10 -32 -11 -33 -2 -2 -17 1 -36 8 -29 10 -45 7 -135 -23 l-102 -35
-59 16 c-53 14 -61 19 -66 44 -15 75 -112 102 -166 48 -20 -20 -23 -20 -73 -5
-46 13 -55 20 -66 50 -13 36 -53 65 -91 65 -28 0 -76 -26 -83 -45 -5 -10 -20
-15 -52 -15 -39 0 -47 4 -57 26 -13 28 -55 54 -88 54 -33 0 -75 -26 -88 -54
-10 -23 -18 -26 -62 -26 -44 0 -52 3 -62 26 -13 28 -55 54 -88 54 -33 0 -75
-26 -88 -54 -10 -23 -18 -26 -61 -26 -41 0 -51 4 -56 20 -7 23 -53 50 -85 50
-51 0 -100 -49 -100 -99 0 -12 -19 -25 -66 -44 l-65 -26 -11 25 c-13 28 -55
54 -88 54 -59 0 -105 -56 -98 -120 3 -31 2 -32 -82 -64 l-85 -34 -16 31 c-56
106 -199 54 -187 -68 l3 -38 -85 -33 c-101 -39 -107 -40 -115 -14 -7 23 -53
50 -85 50 -59 0 -108 -61 -97 -118 6 -28 3 -30 -63 -56 -54 -21 -74 -24 -89
-16 -65 34 -153 -31 -139 -103 4 -19 -5 -30 -47 -60 -36 -25 -55 -33 -66 -26
-55 34 -139 -23 -139 -95 0 -34 -94 -97 -133 -89 -55 11 -117 -38 -117 -94 -1
-25 -72 -73 -110 -73 -37 0 -85 -23 -94 -45 -5 -14 -18 -16 -88 -11 -46 3 -99
6 -118 5 -19 0 -141 -2 -270 -5 l-235 -5 -789 340 -788 340 -257 41 c-177 28
-268 48 -294 62 -30 15 -48 19 -80 14 -53 -9 -187 13 -194 31 -7 18 -56 43
-83 43 -12 0 -34 -7 -50 -15 -26 -13 -40 -13 -134 2 -100 16 -106 18 -117 45
-13 31 -55 58 -89 58 -27 0 -80 -27 -80 -42 0 -7 -19 -8 -61 -4 -80 9 -83 11
-98 51 -13 36 -53 65 -91 65 -32 0 -78 -27 -85 -51 -6 -17 -13 -20 -38 -15
-18 3 -62 10 -99 17 -47 8 -68 15 -68 26 0 44 -52 93 -100 93 -32 0 -71 -23
-85 -50 l-14 -26 -95 15 c-90 14 -96 16 -96 38 0 54 -48 103 -101 103 -34 0
-76 -28 -89 -60 -14 -35 -10 -34 -120 -15 -47 8 -104 15 -128 15 -32 0 -44 4
-48 18 -19 56 -30 74 -55 87 -57 30 -120 7 -141 -51 l-13 -36 -65 6 c-36 3
-111 8 -167 12 -93 6 -103 9 -103 26 0 50 -50 98 -101 98 -38 0 -77 -29 -91
-66 l-13 -37 -120 7 c-179 10 -205 15 -205 38 0 49 -50 98 -100 98 -49 0 -100
-49 -100 -95 0 -14 -8 -16 -47 -11 -27 3 -94 8 -150 12 -101 6 -103 7 -103 31
0 54 -47 103 -100 103 -49 0 -100 -49 -100 -96 0 -15 -13 -16 -137 -10 -161 8
-173 11 -173 36 0 51 -49 100 -100 100 -50 0 -100 -49 -100 -97 0 -13 -9 -15
-57 -10 -32 4 -109 9 -170 13 -110 6 -113 7 -113 30 0 55 -47 104 -100 104
-50 0 -100 -49 -100 -97 0 -14 -13 -15 -112 -9 -223 13 -238 16 -238 42 0 55
-47 104 -100 104 -51 0 -100 -49 -100 -101 0 -15 -5 -18 -22 -15 -13 3 -111
10 -219 17 l-196 12 5 24 c10 53 -41 113 -97 113 -52 0 -101 -48 -101 -100 0
-25 12 -25 -300 -4 -297 19 -290 18 -290 49 0 56 -47 105 -100 105 -52 0 -100
-49 -100 -102 0 -19 -4 -20 -62 -15 -35 3 -152 12 -260 19 -198 12 -198 12
-198 35 0 77 -82 126 -149 89z"/>
</g>
</svg>
