<?xml version="1.0" standalone="no"?>
<!DOCTYPE svg PUBLIC "-//W3C//DTD SVG 20010904//EN"
 "http://www.w3.org/TR/2001/REC-SVG-20010904/DTD/svg10.dtd">
<svg version="1.0" xmlns="http://www.w3.org/2000/svg"
 width="855.000000pt" height="1536.000000pt" viewBox="0 0 855.000000 1536.000000"
 preserveAspectRatio="xMidYMid meet">
<metadata>
Created by potrace 1.16, written by Peter Selinger 2001-2019
</metadata>
<g transform="translate(0.000000,1536.000000) scale(0.100000,-0.100000)"
fill="#000000" stroke="none">
<path d="M1059 15329 c-152 -22 -449 -113 -449 -137 0 -4 -23 -22 -50 -41 -91
-62 -135 -119 -164 -210 -50 -159 -66 -284 -66 -522 0 -213 -1 -220 -34 -351
-35 -141 -73 -227 -150 -341 -25 -38 -46 -77 -46 -87 0 -11 -12 -45 -26 -77
-21 -45 -28 -78 -31 -148 -6 -111 12 -183 61 -255 20 -29 36 -58 36 -66 0 -8
9 -14 20 -14 13 0 26 -12 37 -35 19 -40 43 -54 43 -25 0 23 22 39 28 20 3 -7
18 -26 33 -43 16 -16 29 -34 29 -38 0 -19 3 -25 27 -46 13 -13 25 -23 27 -23
2 0 28 -5 57 -11 82 -15 158 -12 222 10 64 22 80 33 172 118 34 32 77 69 95
83 41 30 106 85 146 124 16 15 46 39 67 52 20 13 37 29 37 34 0 6 5 10 10 10
6 0 27 17 48 38 21 21 56 49 77 62 22 13 62 41 88 62 27 21 55 38 63 38 19 0
111 -46 149 -75 17 -12 57 -36 90 -53 177 -89 442 -323 597 -527 102 -134 270
-404 336 -538 96 -195 133 -301 182 -522 89 -406 265 -1058 344 -1275 19 -52
82 -241 140 -420 126 -385 192 -554 326 -830 55 -113 149 -333 210 -490 61
-157 137 -352 170 -435 71 -181 96 -265 150 -511 23 -104 57 -238 75 -299 18
-60 40 -135 49 -167 17 -61 157 -348 263 -541 l66 -120 -18 -31 c-10 -17 -29
-44 -42 -60 -35 -42 -172 -329 -186 -389 -9 -40 -24 -64 -68 -111 -174 -189
-280 -313 -300 -355 -24 -50 -52 -113 -54 -121 -1 -3 -7 -18 -13 -33 -16 -39
-48 -137 -73 -224 -14 -49 -27 -74 -39 -78 -10 -3 -47 -24 -82 -47 -34 -23
-86 -54 -115 -69 -29 -14 -60 -32 -69 -40 -21 -17 -54 -37 -76 -45 -10 -3 -18
-12 -18 -19 0 -12 -43 -34 -46 -24 -1 2 -10 -3 -20 -12 -29 -24 -99 -58 -192
-91 -46 -17 -109 -47 -140 -68 -31 -21 -94 -57 -139 -80 -46 -23 -86 -46 -89
-51 -5 -9 -83 -48 -279 -139 -38 -18 -153 -68 -255 -112 -202 -86 -294 -131
-376 -184 -29 -19 -55 -34 -58 -34 -2 0 -28 -17 -58 -37 -30 -21 -97 -67 -149
-102 -92 -63 -246 -182 -403 -311 -129 -106 -262 -248 -338 -360 -39 -58 -83
-121 -98 -140 -42 -54 -110 -187 -110 -215 0 -19 9 -29 34 -41 30 -15 38 -15
88 0 30 8 91 40 134 69 43 30 97 65 119 78 86 51 108 65 142 87 20 13 72 42
117 64 44 23 119 65 166 93 151 92 443 235 612 300 51 20 102 40 113 44 11 5
38 15 60 24 22 8 70 26 106 40 153 59 427 137 549 157 41 6 89 16 105 21 17 6
78 19 137 30 59 10 119 24 134 29 15 6 68 13 118 16 50 3 113 10 139 16 26 6
50 8 53 5 9 -8 15 -51 18 -134 2 -45 7 -86 10 -92 4 -6 9 -75 12 -153 2 -79 7
-201 10 -273 10 -262 12 -501 2 -550 -12 -62 1 -283 33 -564 22 -197 22 -213
10 -450 -7 -135 -13 -250 -13 -256 -1 -12 13 -251 18 -325 9 -109 4 -193 -11
-210 -11 -12 -16 -45 -18 -116 -3 -99 -14 -137 -58 -204 -17 -26 -31 -68 -35
-109 -2 -13 -6 -31 -10 -40 -16 -40 7 -241 30 -260 8 -7 20 -6 37 2 36 18 174
13 194 -7 9 -9 23 -16 30 -16 8 0 30 -13 48 -30 42 -37 47 -37 86 -4 28 23 37
25 89 20 31 -4 75 -7 97 -9 34 -2 47 -10 84 -50 42 -45 45 -47 61 -30 10 10
16 21 14 25 -3 4 2 10 9 15 7 4 28 29 46 56 l32 47 31 -17 c16 -10 41 -30 53
-45 13 -16 28 -28 33 -28 6 0 36 -14 68 -31 32 -17 60 -27 61 -22 5 14 100 7
125 -9 13 -8 53 -18 89 -22 53 -5 74 -3 110 13 24 10 78 22 121 26 42 3 85 13
95 20 10 8 26 15 36 15 16 0 33 7 77 31 8 5 29 15 46 23 30 13 74 63 74 84 0
5 7 15 15 22 13 11 26 9 73 -10 69 -28 98 -52 112 -96 15 -43 36 -44 46 -2 9
41 9 57 -1 137 -11 90 -29 129 -90 187 -40 38 -67 78 -104 153 -27 55 -53 111
-57 123 -3 13 -19 41 -33 63 -37 56 -56 126 -43 163 10 30 -4 80 -34 113 -24
26 -29 293 -9 459 9 74 18 155 20 179 7 87 53 363 85 506 7 34 30 184 35 235
1 8 7 32 14 53 7 21 10 49 7 62 -3 13 -1 27 5 30 6 4 8 13 5 21 -3 7 -1 16 5
19 5 4 8 19 6 33 -2 15 2 47 10 72 7 25 18 68 24 95 6 28 18 73 27 100 9 28
15 54 14 59 -4 12 16 73 44 134 l24 53 31 -25 c16 -14 49 -30 72 -36 23 -6 55
-15 71 -21 25 -8 40 -4 90 21 102 50 150 79 163 96 7 9 19 14 28 11 8 -4 15
-2 15 3 0 5 39 35 87 66 49 32 104 70 123 86 53 43 63 38 56 -29 -3 -32 -8
-98 -11 -148 -9 -133 -16 -209 -22 -219 -3 -5 -7 -25 -9 -45 -2 -20 -7 -53
-13 -75 -5 -21 -7 -44 -5 -51 3 -6 0 -41 -6 -76 -6 -35 -14 -80 -16 -99 -3
-19 -15 -55 -27 -80 -16 -34 -21 -66 -23 -140 -1 -52 -3 -97 -4 -100 -1 -3 -1
-22 0 -42 1 -21 -5 -61 -14 -90 -8 -29 -22 -93 -30 -142 -8 -48 -19 -93 -24
-100 -4 -6 -9 -24 -11 -41 -1 -16 -9 -56 -17 -88 -8 -31 -17 -76 -20 -100 -3
-23 -9 -51 -13 -62 -5 -11 -14 -60 -20 -110 -6 -49 -14 -106 -16 -125 -3 -19
-7 -75 -10 -125 -16 -267 -15 -264 -44 -330 -19 -44 -71 -244 -78 -300 -9 -77
-9 -76 -23 -164 -10 -64 -10 -81 5 -130 22 -71 27 -76 83 -97 26 -10 55 -25
66 -33 22 -19 66 -103 67 -128 0 -10 3 -13 6 -6 2 7 32 26 66 43 75 38 96 54
125 102 23 36 23 37 83 34 58 -2 62 -4 95 -45 34 -44 63 -70 76 -71 4 0 15 15
23 32 38 78 35 76 97 80 84 4 99 -2 136 -57 36 -53 58 -62 76 -30 6 11 19 31
29 44 9 13 17 36 17 51 0 16 7 30 15 34 18 6 20 -19 6 -73 -6 -20 -15 -64 -22
-98 -13 -71 -24 -83 -94 -109 -133 -49 -235 -144 -256 -241 -7 -29 -10 -55 -7
-58 3 -3 31 8 63 25 69 36 88 37 186 5 99 -31 179 -35 241 -11 44 17 66 18
310 9 147 -6 371 -7 508 -3 214 7 253 10 307 30 34 12 67 28 74 37 17 20 13
85 -11 158 -11 33 -21 71 -24 85 -3 14 -12 59 -20 100 -8 41 -23 125 -32 185
-9 61 -21 140 -27 178 -9 60 -8 70 8 87 10 11 14 20 9 20 -5 0 -3 4 5 9 10 7
14 33 13 105 -1 53 -4 101 -7 105 -3 5 -10 53 -16 107 -6 55 -13 115 -15 134
-8 68 -11 759 -3 754 5 -2 6 48 4 113 -19 497 -21 887 -7 1078 9 130 9 154 -5
180 -17 34 -17 32 -33 240 -7 83 -13 152 -15 155 -2 3 -6 39 -9 80 -4 41 -11
118 -16 170 -5 52 -10 237 -11 410 -6 595 -4 699 12 776 5 23 11 108 14 190 3
82 8 156 10 164 7 27 18 262 17 365 0 55 -9 179 -20 275 -29 249 -76 388 -179
523 -29 39 -58 83 -65 99 -7 15 -16 28 -20 28 -5 0 -8 6 -8 14 0 8 -10 23 -22
33 -13 10 -29 29 -36 43 -7 14 -41 56 -75 93 -60 65 -64 73 -105 200 -53 168
-161 388 -240 493 -68 90 -124 145 -325 317 -171 146 -247 236 -367 429 -93
149 -322 469 -672 939 -96 130 -229 314 -295 410 -66 96 -199 289 -295 429
-96 140 -245 354 -331 475 -86 121 -173 253 -194 293 -39 75 -49 93 -96 176
-15 27 -27 54 -27 61 0 8 -11 22 -25 32 -16 11 -47 67 -83 148 -51 112 -116
229 -233 415 -16 25 -39 65 -51 90 -13 25 -26 46 -30 48 -5 2 -8 8 -8 13 0 13
-93 173 -102 177 -5 2 -8 7 -8 12 0 13 -62 113 -85 135 -11 11 -27 36 -37 55
-15 33 -145 217 -202 286 -14 18 -26 35 -26 38 0 4 -16 30 -35 59 -19 28 -35
56 -35 61 0 5 -11 23 -24 40 -13 17 -26 41 -30 54 -4 12 -11 22 -16 22 -4 0
-13 14 -19 30 -5 17 -14 30 -19 30 -6 0 -12 11 -16 24 -7 28 -155 278 -175
296 -3 3 -12 17 -20 32 -8 15 -31 44 -51 66 -21 21 -44 55 -51 76 -7 20 -21
45 -31 56 -10 11 -18 24 -18 30 0 5 -4 10 -9 10 -5 0 -13 9 -16 21 -4 11 -26
48 -49 82 -23 34 -53 83 -66 110 -14 26 -55 82 -92 125 -37 42 -70 90 -74 105
-3 17 -15 32 -29 37 -13 5 -36 26 -51 47 -31 41 -74 83 -86 83 -5 0 -8 9 -8
21 0 12 -5 19 -12 17 -20 -7 -128 109 -128 138 0 14 -4 23 -9 20 -5 -3 -7 -16
-4 -29 l5 -22 -16 21 c-8 12 -40 38 -71 58 -30 20 -59 46 -65 56 -6 11 -16 17
-25 14 -8 -4 -15 -2 -15 2 0 5 -17 20 -38 34 -20 13 -60 44 -88 67 -57 48
-311 173 -351 173 -8 0 -67 17 -131 38 -64 21 -135 44 -158 50 -23 7 -62 28
-88 48 -46 35 -104 75 -256 177 -55 37 -110 62 -205 94 -71 24 -130 42 -130
42 0 -1 -25 -5 -56 -10z m-292 -12190 c6 -6 19 -12 29 -13 31 -5 26 -23 -8
-29 -37 -5 -58 7 -58 34 0 21 20 25 37 8z"/>
</g>
</svg>
