<?xml version="1.0" standalone="no"?>
<!DOCTYPE svg PUBLIC "-//W3C//DTD SVG 20010904//EN"
 "http://www.w3.org/TR/2001/REC-SVG-20010904/DTD/svg10.dtd">
<svg version="1.0" xmlns="http://www.w3.org/2000/svg"
 width="4176.000000pt" height="1718.000000pt" viewBox="0 0 4176.000000 1718.000000"
 preserveAspectRatio="xMidYMid meet">
<metadata>
Created by potrace 1.16, written by Peter Selinger 2001-2019
</metadata>
<g transform="translate(0.000000,1718.000000) scale(0.100000,-0.100000)"
fill="#000000" stroke="none">
<path d="M39154 17136 c-10 -8 -29 -12 -41 -9 -12 2 -39 -1 -60 -8 -21 -8 -42
-14 -48 -15 -71 -5 -117 -18 -125 -35 -6 -10 -17 -16 -25 -13 -8 4 -15 1 -15
-7 0 -7 -3 -9 -7 -6 -3 4 -13 1 -22 -6 -9 -8 -38 -22 -66 -32 -27 -10 -74 -29
-104 -43 -56 -26 -66 -25 -162 10 -18 6 -33 6 -45 -1 -26 -13 -197 -66 -209
-64 -31 5 -56 13 -73 22 -11 6 -21 8 -24 6 -2 -3 -23 4 -45 15 -22 10 -52 21
-66 24 -14 2 -36 11 -49 19 -12 7 -41 19 -63 25 -22 6 -80 23 -130 38 -49 14
-126 28 -170 31 -44 3 -88 9 -97 14 -9 5 -37 9 -62 9 -25 0 -46 4 -46 8 0 5
-19 10 -42 11 -126 6 -636 -4 -713 -14 -27 -3 -77 -8 -110 -9 -33 -2 -105 -10
-160 -19 -55 -10 -112 -17 -127 -17 -16 0 -28 -4 -28 -8 0 -5 -14 -9 -30 -10
-17 0 -37 -8 -46 -16 -9 -9 -20 -14 -24 -11 -11 7 -126 -30 -157 -50 -12 -8
-31 -15 -43 -15 -28 0 -150 -50 -150 -62 0 -5 -4 -7 -8 -4 -14 9 -194 -91
-267 -148 -22 -17 -52 -37 -66 -45 -15 -7 -38 -24 -52 -37 -14 -13 -31 -24
-37 -24 -5 0 -10 -4 -10 -8 0 -5 -16 -17 -35 -28 -19 -10 -35 -22 -35 -26 0
-4 -13 -14 -30 -23 -16 -9 -30 -22 -30 -30 0 -8 -6 -15 -12 -15 -7 -1 -47 -37
-88 -81 -41 -44 -103 -108 -137 -143 -35 -35 -63 -68 -63 -75 0 -6 -5 -11 -10
-11 -17 0 -150 -141 -177 -187 -14 -24 -29 -43 -34 -43 -5 0 -9 -7 -9 -15 0
-8 -11 -25 -25 -37 -14 -12 -25 -28 -25 -35 0 -7 -5 -13 -11 -13 -5 0 -8 -4
-5 -9 3 -5 -15 -39 -39 -77 -25 -37 -45 -72 -45 -77 0 -5 -20 -40 -45 -77 -25
-38 -51 -83 -57 -102 -6 -18 -22 -49 -35 -68 -12 -19 -23 -39 -23 -43 0 -24
-39 -91 -72 -125 -9 -9 -19 -29 -23 -44 -4 -14 -14 -34 -24 -45 -9 -10 -25
-36 -35 -58 -11 -22 -25 -44 -32 -48 -8 -4 -14 -15 -14 -23 0 -8 -11 -27 -25
-42 -14 -15 -25 -32 -25 -38 0 -7 -7 -15 -16 -18 -8 -3 -13 -10 -10 -14 3 -5
-4 -18 -14 -30 -11 -12 -20 -25 -20 -31 0 -5 -3 -11 -7 -13 -5 -1 -30 -30 -57
-63 -56 -68 -190 -205 -200 -205 -4 0 -21 -13 -39 -30 -18 -16 -37 -30 -42
-30 -6 0 -16 -9 -23 -21 -7 -11 -27 -27 -45 -35 -18 -8 -50 -26 -72 -40 -22
-14 -48 -27 -57 -31 -10 -3 -18 -9 -18 -14 0 -5 -9 -9 -20 -9 -11 0 -20 -4
-20 -10 0 -5 -12 -13 -27 -16 -16 -4 -40 -15 -55 -25 -14 -11 -31 -19 -36 -19
-14 0 -86 -42 -90 -52 -2 -4 -9 -8 -16 -8 -7 0 -17 -5 -23 -11 -7 -7 -34 -20
-60 -30 -319 -117 -397 -141 -535 -159 -46 -6 -108 -16 -138 -22 -64 -13 -72
-14 -165 -24 -76 -8 -854 -12 -870 -4 -9 4 -112 6 -625 10 -184 2 -892 -9
-1065 -15 -159 -7 -178 -8 -295 -24 -41 -6 -102 -13 -135 -16 -33 -3 -73 -7
-90 -9 -79 -10 -146 -17 -210 -21 -81 -6 -198 -19 -305 -35 -41 -7 -86 -13
-100 -15 -14 -1 -63 -8 -109 -14 -47 -7 -98 -13 -115 -13 -17 0 -40 -5 -51
-11 -11 -6 -38 -12 -60 -13 -44 -3 -80 -10 -94 -18 -9 -6 -47 -10 -206 -21
-148 -11 -191 -15 -205 -21 -8 -4 -28 -8 -45 -10 -16 -3 -75 -11 -130 -20 -55
-8 -120 -17 -145 -19 -39 -3 -208 -30 -320 -51 -19 -3 -55 -13 -79 -20 -24 -8
-46 -13 -48 -10 -3 2 -20 -2 -38 -10 -19 -8 -67 -19 -107 -24 -40 -6 -100 -17
-133 -26 -97 -25 -99 -26 -125 -31 -14 -3 -44 -13 -67 -24 -23 -10 -50 -18
-60 -17 -48 4 -84 -3 -77 -14 5 -8 2 -9 -11 -5 -9 4 -24 2 -31 -4 -8 -6 -14
-8 -14 -4 0 4 -6 3 -13 -3 -7 -6 -22 -11 -32 -10 -11 0 -54 -8 -95 -17 -41
-10 -91 -20 -110 -23 -19 -2 -41 -9 -47 -14 -7 -6 -20 -8 -29 -4 -8 3 -23 2
-33 -4 -10 -5 -49 -14 -86 -20 -38 -6 -80 -17 -94 -24 -14 -8 -51 -19 -81 -25
-53 -12 -147 -38 -238 -67 -23 -8 -58 -14 -77 -14 -18 0 -37 -5 -40 -10 -4 -6
-10 -8 -14 -5 -5 2 -39 -2 -77 -11 -38 -8 -78 -16 -89 -18 -37 -6 -165 -36
-185 -43 -23 -9 -40 -11 -110 -18 -36 -4 -74 -10 -85 -15 -11 -5 -51 -16 -90
-24 -38 -8 -101 -22 -140 -31 -38 -9 -79 -18 -90 -19 -37 -6 -110 -28 -121
-37 -6 -5 -13 -7 -16 -4 -2 3 -20 0 -39 -5 -19 -6 -47 -13 -63 -16 -16 -2 -37
-9 -48 -15 -10 -5 -22 -8 -26 -5 -5 3 -31 -2 -58 -10 -27 -9 -60 -18 -73 -20
-14 -3 -29 -8 -35 -11 -5 -4 -24 -7 -41 -9 -17 -1 -45 -8 -61 -16 -16 -9 -69
-27 -119 -42 -49 -15 -112 -36 -140 -46 -42 -16 -83 -30 -105 -35 -3 -1 -18
-7 -34 -14 -16 -6 -34 -10 -40 -8 -6 2 -17 -2 -24 -9 -7 -8 -32 -19 -55 -25
-23 -6 -55 -17 -72 -25 -59 -26 -164 -64 -177 -64 -8 0 -18 -4 -23 -8 -14 -12
-126 -55 -142 -55 -7 0 -13 -5 -13 -10 0 -5 -9 -7 -20 -4 -11 3 -20 1 -20 -4
0 -4 -18 -13 -40 -19 -21 -6 -41 -14 -44 -19 -3 -5 -23 -11 -45 -15 -21 -3
-41 -12 -44 -20 -3 -8 -19 -17 -35 -21 -16 -3 -54 -19 -83 -34 -46 -24 -75
-35 -124 -47 -5 -1 -47 -16 -92 -33 -75 -28 -102 -40 -143 -63 -8 -4 -22 -11
-30 -14 -8 -3 -28 -11 -45 -19 -16 -8 -73 -30 -125 -50 -52 -20 -121 -49 -152
-65 -32 -16 -73 -32 -93 -36 -19 -3 -35 -10 -35 -15 0 -5 -6 -9 -13 -9 -7 0
-33 -10 -58 -22 -24 -12 -46 -22 -49 -23 -6 0 -207 -100 -230 -114 -8 -5 -43
-21 -77 -37 -35 -15 -63 -31 -63 -36 0 -4 -6 -8 -14 -8 -7 0 -19 -6 -26 -14
-6 -8 -18 -12 -26 -9 -8 3 -14 0 -14 -6 0 -6 -11 -11 -24 -11 -13 0 -35 -9
-49 -20 -14 -11 -34 -20 -44 -20 -10 0 -43 -9 -73 -20 -30 -12 -82 -30 -115
-41 -33 -11 -70 -27 -82 -34 -12 -8 -35 -17 -52 -20 -17 -3 -55 -16 -84 -29
-28 -13 -63 -27 -77 -31 -14 -4 -36 -15 -49 -24 -13 -8 -29 -16 -35 -17 -6 -1
-56 -19 -111 -39 -122 -45 -185 -66 -295 -100 -47 -14 -94 -29 -105 -34 -11
-5 -38 -14 -60 -20 -22 -7 -49 -16 -60 -21 -34 -15 -143 -56 -295 -109 -80
-29 -167 -61 -194 -71 -27 -11 -54 -20 -60 -20 -18 0 -275 -87 -289 -97 -7 -5
-41 -18 -77 -28 -36 -10 -132 -41 -215 -68 -82 -27 -154 -50 -160 -51 -5 -1
-31 -11 -56 -23 -62 -28 -115 -45 -131 -42 -21 5 -68 -11 -68 -22 0 -6 -4 -8
-8 -5 -5 3 -19 -1 -33 -7 -13 -7 -44 -19 -69 -27 -25 -7 -49 -16 -55 -20 -5
-3 -41 -18 -80 -33 -38 -14 -112 -42 -162 -62 -51 -19 -99 -35 -107 -35 -8 0
-18 -5 -21 -10 -4 -6 -10 -8 -15 -5 -5 3 -11 1 -15 -5 -4 -6 -11 -8 -16 -4 -5
3 -20 -1 -33 -9 -12 -8 -39 -18 -59 -21 -21 -3 -45 -10 -55 -16 -16 -10 -146
-50 -226 -71 -21 -5 -48 -16 -60 -24 -11 -8 -30 -15 -43 -15 -12 0 -24 -4 -27
-8 -3 -4 -38 -18 -78 -30 -123 -37 -321 -94 -358 -103 -19 -4 -89 -26 -155
-49 -66 -23 -132 -42 -147 -43 -16 -1 -28 -4 -28 -8 0 -3 -25 -12 -55 -19 -31
-7 -58 -17 -61 -21 -2 -5 -10 -6 -17 -3 -7 2 -29 -2 -49 -10 -19 -8 -38 -13
-40 -10 -3 2 -22 -3 -43 -11 -20 -9 -50 -15 -65 -13 -15 1 -43 -5 -61 -14 -95
-45 -130 -59 -137 -54 -5 3 -38 -4 -73 -15 -35 -11 -73 -22 -84 -24 -141 -26
-147 -27 -230 -50 -33 -9 -107 -27 -165 -40 -58 -13 -123 -28 -144 -34 -22 -5
-44 -8 -48 -5 -4 3 -14 2 -20 -2 -7 -5 -30 -10 -52 -12 -21 -2 -49 -10 -62
-18 -12 -9 -36 -17 -53 -20 -69 -9 -89 -13 -156 -30 -101 -24 -209 -43 -295
-49 -41 -4 -78 -9 -82 -11 -4 -3 -24 -7 -45 -10 -57 -7 -253 -54 -290 -70 -18
-7 -61 -16 -95 -20 -35 -3 -67 -11 -73 -18 -5 -7 -36 -15 -68 -19 -32 -3 -64
-10 -71 -16 -7 -6 -15 -8 -19 -5 -3 3 -29 -1 -59 -9 -71 -21 -327 -61 -458
-73 -19 -1 -60 -7 -90 -13 -30 -5 -70 -12 -89 -16 -19 -3 -42 -10 -53 -16 -10
-5 -22 -8 -26 -5 -4 2 -30 0 -57 -5 -28 -6 -60 -11 -73 -12 -12 -1 -26 -7 -30
-12 -4 -6 -18 -11 -32 -12 -81 -6 -128 -11 -155 -17 -16 -3 -43 -8 -60 -10
-16 -3 -37 -7 -45 -10 -8 -3 -44 -10 -80 -16 -36 -5 -101 -16 -145 -25 -101
-19 -168 -28 -222 -28 -24 0 -43 -4 -43 -9 0 -4 -18 -8 -40 -8 -22 0 -40 -4
-40 -8 0 -5 -21 -8 -47 -8 -27 1 -51 -3 -54 -8 -4 -4 -26 -10 -50 -12 -24 -2
-84 -8 -134 -14 -49 -6 -97 -11 -105 -12 -8 0 -44 -7 -80 -15 -35 -8 -77 -15
-93 -15 -15 -1 -30 -5 -33 -9 -2 -4 -20 -5 -39 -2 -24 4 -35 2 -35 -6 0 -7 -5
-9 -10 -6 -6 4 -16 2 -23 -3 -7 -5 -32 -10 -57 -11 -25 0 -67 -5 -95 -11 -92
-19 -268 -46 -359 -55 -33 -3 -72 -8 -86 -10 -14 -3 -45 -7 -70 -11 -25 -3
-54 -7 -65 -9 -118 -21 -299 -47 -380 -56 -55 -5 -107 -12 -115 -14 -8 -2 -53
-9 -100 -15 -47 -5 -101 -12 -120 -16 -19 -3 -42 -6 -50 -6 -8 0 -28 -4 -45
-9 -28 -8 -172 -27 -373 -50 -46 -5 -87 -11 -91 -14 -5 -2 -50 -7 -102 -11
-52 -3 -121 -12 -153 -20 -33 -7 -63 -11 -67 -8 -4 2 -10 0 -13 -5 -6 -8 -45
-16 -136 -26 -51 -6 -68 -9 -90 -18 -8 -4 -46 -12 -85 -18 -107 -16 -107 -16
-155 -29 -25 -7 -52 -14 -60 -15 -8 -2 -69 -13 -135 -25 -66 -11 -145 -26
-175 -31 -30 -5 -95 -19 -145 -30 -49 -11 -130 -26 -178 -34 -49 -8 -96 -19
-106 -25 -17 -9 -46 -16 -101 -25 -14 -2 -47 -9 -75 -15 -27 -6 -61 -12 -75
-14 -14 -2 -44 -6 -66 -10 -23 -3 -109 -22 -190 -42 -171 -41 -169 -40 -220
-48 -82 -13 -104 -18 -104 -26 0 -4 -17 -10 -38 -14 -20 -3 -50 -8 -67 -11
-16 -3 -47 -8 -67 -11 -21 -3 -38 -10 -38 -16 0 -5 -4 -6 -10 -3 -5 3 -19 1
-30 -5 -12 -6 -36 -12 -53 -12 -18 -1 -35 -5 -38 -10 -5 -8 -36 -13 -141 -25
-27 -3 -48 -8 -48 -12 0 -4 -17 -8 -37 -9 -20 -1 -39 -5 -42 -10 -3 -5 -25
-12 -49 -16 -24 -3 -51 -10 -60 -15 -52 -26 -121 -51 -202 -71 -25 -6 -54 -15
-65 -19 -11 -5 -47 -17 -80 -26 -33 -9 -71 -21 -85 -26 -14 -5 -34 -11 -45
-13 -36 -8 -138 -46 -150 -56 -7 -6 -17 -9 -21 -8 -5 2 -22 -2 -39 -9 -16 -6
-64 -21 -105 -34 -41 -12 -79 -24 -85 -28 -5 -3 -14 -6 -20 -8 -32 -6 -148
-44 -195 -63 -30 -12 -65 -24 -78 -27 -12 -3 -25 -9 -28 -14 -3 -5 -18 -9 -33
-9 -15 0 -32 -5 -37 -10 -11 -11 -34 -18 -89 -27 -16 -3 -34 -9 -40 -13 -5 -4
-28 -13 -50 -20 -22 -7 -46 -17 -53 -23 -6 -5 -12 -6 -12 -2 0 5 -9 0 -21 -11
-12 -10 -23 -18 -25 -17 -4 3 -63 -22 -154 -65 -36 -17 -123 -52 -195 -77
-119 -42 -191 -71 -237 -96 -10 -5 -25 -9 -33 -9 -8 0 -24 -4 -35 -10 -11 -5
-29 -14 -40 -20 -11 -5 -26 -10 -34 -10 -7 0 -27 -7 -42 -15 -16 -8 -36 -15
-44 -15 -8 0 -24 -7 -34 -15 -10 -8 -23 -12 -27 -9 -5 3 -9 1 -9 -5 0 -5 -13
-12 -30 -16 -16 -4 -45 -17 -65 -30 -19 -14 -70 -37 -112 -52 -43 -15 -80 -31
-81 -35 -2 -4 -10 -8 -18 -8 -8 0 -14 -4 -14 -8 0 -5 -16 -17 -35 -28 -19 -10
-35 -22 -35 -26 0 -5 -9 -8 -20 -8 -10 0 -23 -6 -27 -13 -4 -7 -23 -19 -40
-26 -18 -8 -33 -17 -33 -21 0 -4 -11 -11 -25 -14 -14 -4 -25 -11 -25 -16 0 -6
-7 -10 -15 -10 -8 0 -15 -4 -15 -10 0 -5 -7 -10 -15 -10 -20 0 -119 -49 -123
-61 -2 -5 -15 -9 -28 -9 -13 0 -33 -9 -44 -20 -11 -11 -25 -20 -30 -20 -14 0
-147 -73 -171 -94 -11 -9 -37 -22 -58 -29 -50 -18 -199 -115 -212 -139 -6 -10
-14 -16 -20 -13 -5 4 -9 2 -9 -4 0 -6 -17 -20 -37 -31 -21 -11 -58 -36 -83
-55 -25 -18 -48 -34 -52 -34 -4 -1 -22 -11 -41 -24 -19 -12 -52 -33 -75 -47
-23 -14 -42 -31 -42 -39 0 -8 -3 -12 -6 -8 -6 6 -36 -16 -63 -46 -8 -9 -23
-17 -32 -17 -9 0 -24 -11 -33 -25 -9 -14 -23 -25 -32 -25 -8 0 -27 -12 -42
-27 -15 -15 -43 -36 -62 -47 -19 -10 -42 -26 -50 -35 -27 -30 -146 -118 -168
-125 -12 -4 -29 -17 -39 -29 -10 -13 -34 -30 -53 -40 -19 -9 -57 -37 -85 -62
-27 -25 -74 -67 -103 -93 -30 -26 -68 -62 -85 -79 -16 -18 -36 -33 -42 -33 -7
0 -15 -9 -18 -20 -3 -11 -13 -23 -24 -27 -10 -4 -24 -13 -31 -19 -7 -7 -34
-30 -60 -51 -26 -21 -49 -41 -52 -44 -3 -3 -15 -11 -27 -18 -13 -6 -23 -17
-23 -24 0 -7 -17 -23 -37 -37 -43 -29 -123 -105 -123 -117 0 -4 -21 -30 -45
-56 -25 -26 -45 -49 -45 -52 0 -2 -36 -40 -80 -84 -44 -45 -80 -85 -80 -90 0
-5 -11 -16 -23 -24 -13 -8 -41 -34 -63 -58 -21 -23 -63 -66 -92 -96 -28 -30
-52 -61 -52 -68 0 -8 -6 -18 -14 -22 -7 -4 -20 -21 -29 -38 -9 -16 -46 -66
-83 -110 -37 -44 -83 -105 -102 -135 -19 -30 -50 -79 -70 -109 -51 -79 -52
-163 0 -228 6 -8 19 -9 39 -3 17 5 58 10 92 11 34 1 64 6 67 10 14 20 88 104
113 128 29 26 43 41 167 175 108 116 253 269 286 301 92 89 147 136 174 150
16 9 30 20 30 24 0 5 18 28 40 50 22 22 40 45 40 51 0 6 4 9 9 6 5 -3 34 18
64 47 80 74 120 106 135 107 6 0 12 4 12 9 0 5 20 19 45 31 30 14 45 28 45 41
0 12 15 26 40 39 22 11 40 25 40 30 0 6 6 10 13 10 6 0 30 16 51 35 22 19 43
35 47 35 12 0 99 60 99 69 0 10 92 79 161 121 32 19 90 55 131 80 40 24 75 47
78 50 3 4 31 21 63 39 31 18 57 36 57 40 0 4 38 26 84 50 47 23 96 51 110 62
31 25 135 80 160 85 10 2 23 10 30 18 17 22 272 146 327 159 14 4 48 19 75 34
27 15 89 44 137 63 48 20 96 43 106 51 17 14 31 19 61 24 28 5 80 29 80 38 0
4 5 5 11 2 5 -4 19 1 30 11 10 9 22 14 25 11 4 -4 19 3 35 13 22 17 150 71
169 72 10 1 35 10 50 17 21 12 82 25 98 22 6 -1 12 3 12 8 0 5 8 9 18 9 9 0
62 15 117 35 180 63 413 137 432 137 10 0 23 4 29 9 5 5 25 14 44 19 19 6 53
18 75 26 22 8 57 15 77 16 20 0 39 4 42 9 3 4 31 11 63 15 83 10 148 22 228
40 39 9 95 19 125 22 30 2 80 9 110 14 30 5 87 12 125 15 39 3 81 10 95 14 14
5 66 15 117 21 50 6 98 13 105 14 7 2 36 6 63 10 28 4 73 11 100 16 65 12 106
17 240 30 61 6 133 13 160 16 28 3 63 5 78 5 16 -1 33 2 40 6 6 4 25 8 42 9
68 6 204 16 260 19 180 12 1410 20 1560 11 159 -11 336 -17 630 -21 165 -2
410 -7 545 -11 135 -3 315 -7 400 -9 141 -2 516 -30 730 -55 47 -5 121 -12
165 -15 44 -4 121 -10 170 -15 50 -5 141 -9 204 -10 63 0 117 -3 120 -5 3 -1
65 -6 136 -9 72 -4 171 -11 220 -16 125 -14 394 -38 490 -45 44 -3 91 -8 105
-10 14 -2 61 -7 105 -10 78 -6 224 -22 275 -30 14 -2 59 -6 100 -10 41 -3 100
-8 130 -10 30 -3 93 -7 140 -10 47 -3 123 -10 170 -15 47 -5 123 -12 170 -16
47 -3 96 -7 110 -9 26 -3 109 -10 245 -21 44 -4 106 -7 138 -9 31 -1 60 -5 63
-8 3 -3 12 -3 20 0 8 3 49 0 92 -6 115 -17 667 -24 1582 -22 978 2 1130 4
1130 11 0 3 39 5 88 6 74 1 245 10 347 20 17 1 80 5 140 9 61 3 124 8 140 10
17 3 59 8 95 10 36 3 83 8 105 10 76 8 440 27 560 30 66 1 163 5 215 9 52 3
136 9 185 11 50 3 108 8 130 11 85 11 157 15 355 19 113 3 225 8 250 10 25 3
79 7 120 10 69 5 135 12 135 15 0 1 30 3 66 5 36 2 95 7 130 11 79 8 138 8
209 0 30 -4 105 -6 165 -6 61 1 117 1 125 1 189 -5 416 1 452 13 37 13 46 13
82 -3 32 -14 66 -17 156 -16 63 1 125 -3 137 -8 16 -7 27 -6 38 3 11 9 18 10
28 1 8 -6 17 -7 21 -3 4 4 87 7 184 8 161 0 179 -1 204 -19 21 -16 30 -18 41
-9 8 7 16 10 19 7 3 -3 36 -6 74 -6 38 -1 74 -5 79 -9 6 -4 37 -11 70 -14 33
-4 76 -9 95 -11 72 -9 136 -17 155 -21 11 -3 29 -6 40 -8 76 -13 103 -19 122
-28 l23 -11 -20 -36 c-10 -20 -27 -54 -36 -76 -10 -22 -24 -46 -31 -53 -7 -7
-13 -22 -13 -33 0 -10 -4 -19 -8 -19 -4 0 -8 -10 -9 -21 -2 -29 -35 -119 -43
-119 -4 0 -13 -19 -20 -42 -8 -24 -18 -48 -22 -55 -5 -6 -11 -24 -14 -40 -3
-15 -7 -36 -10 -45 -3 -9 -7 -25 -9 -35 -15 -75 -29 -122 -54 -185 -15 -40
-31 -97 -35 -126 -6 -47 -25 -108 -59 -192 -6 -14 -9 -29 -8 -34 1 -4 -3 -14
-9 -20 -5 -7 -8 -15 -5 -18 3 -3 -1 -11 -10 -18 -8 -7 -15 -21 -15 -31 0 -11
-4 -19 -10 -19 -5 0 -10 -9 -10 -19 0 -11 -4 -21 -9 -23 -14 -5 -62 -88 -56
-97 2 -5 -2 -14 -10 -21 -8 -7 -15 -17 -15 -22 0 -5 -13 -23 -30 -41 -16 -18
-30 -37 -30 -42 0 -6 -19 -31 -42 -55 -24 -25 -43 -47 -43 -50 -2 -23 -52 -94
-95 -135 -95 -91 -160 -158 -160 -165 0 -21 -81 -87 -157 -130 -24 -13 -43
-27 -43 -31 0 -4 -10 -11 -22 -15 -12 -3 -47 -31 -77 -60 -30 -30 -60 -54 -67
-54 -7 0 -14 -3 -16 -7 -7 -16 -86 -72 -132 -93 -25 -12 -62 -36 -81 -54 -95
-87 -118 -106 -136 -111 -10 -4 -19 -11 -19 -16 0 -13 -26 -39 -38 -39 -6 0
-13 -14 -17 -31 -7 -33 -16 -43 -84 -99 -61 -50 -111 -121 -111 -159 0 -17 -3
-31 -7 -31 -14 0 -74 -136 -88 -197 -7 -32 -14 -83 -14 -113 -7 -256 -10 -300
-37 -430 -9 -47 -18 -96 -20 -110 -2 -14 -10 -54 -18 -90 -9 -36 -16 -77 -16
-92 0 -16 -4 -28 -10 -28 -5 0 -10 -18 -10 -39 0 -22 -4 -42 -9 -45 -10 -6
-31 -108 -33 -160 -1 -20 -5 -39 -10 -42 -4 -3 -8 -16 -8 -28 0 -13 -6 -29
-14 -35 -7 -6 -26 -58 -41 -114 -15 -56 -34 -113 -42 -125 -8 -13 -12 -26 -9
-30 3 -3 -1 -16 -9 -28 -8 -13 -16 -31 -18 -41 -2 -10 -14 -38 -27 -63 -13
-25 -23 -48 -22 -52 1 -5 -2 -8 -6 -8 -5 0 -23 -22 -41 -50 -36 -56 -134 -156
-160 -165 -10 -3 -24 -17 -31 -30 -7 -14 -18 -25 -23 -25 -9 0 -46 -27 -94
-67 -14 -13 -32 -23 -39 -23 -8 0 -14 -4 -14 -10 0 -5 -13 -16 -29 -24 -16 -9
-45 -31 -65 -51 -20 -19 -41 -35 -46 -35 -14 0 -100 -88 -101 -103 -7 -78 -8
-125 -9 -262 -2 -180 0 -189 35 -261 23 -47 25 -57 15 -100 -11 -49 2 -166 22
-188 4 -6 8 -18 8 -27 0 -39 45 -131 89 -181 28 -32 47 -65 49 -83 6 -55 41
-155 67 -189 14 -18 25 -36 25 -40 0 -4 9 -16 19 -28 11 -11 17 -26 14 -34 -6
-17 15 -80 34 -99 11 -11 39 -15 113 -15 54 0 144 -5 201 -11 164 -19 452 -13
534 10 54 14 132 14 137 -1 4 -10 13 -9 45 1 33 11 46 11 77 0 30 -11 41 -11
57 0 27 16 642 14 674 -3 11 -5 96 -11 190 -12 94 -2 211 -3 260 -4 121 -3
250 8 307 27 61 19 87 54 91 122 2 43 5 51 26 56 14 3 30 0 40 -8 9 -8 37 -24
62 -36 25 -11 61 -35 79 -51 26 -23 40 -29 64 -25 17 3 40 6 51 7 28 4 37 44
20 86 -8 19 -15 43 -15 54 0 39 -110 178 -142 178 -5 0 -21 9 -36 20 -15 11
-38 22 -51 25 -13 2 -42 13 -65 24 -22 11 -75 24 -116 30 -68 9 -127 13 -395
25 -49 3 -85 0 -93 -7 -8 -6 -16 -7 -20 -1 -4 5 -41 10 -82 12 -198 8 -393 33
-463 58 -40 14 -88 30 -108 36 -71 19 -191 155 -221 250 -20 66 -18 128 5 128
26 0 76 65 88 115 7 33 22 59 41 77 24 22 28 32 22 50 -4 13 -9 28 -9 33 -1 6
-3 12 -4 15 -11 26 -6 78 10 98 11 15 16 34 14 50 -3 15 -7 62 -9 104 -3 60 0
78 10 78 22 0 27 20 31 128 4 97 6 108 28 128 14 13 25 27 26 31 1 4 3 46 5
93 3 53 9 87 16 92 7 4 19 12 27 17 8 5 18 31 22 58 17 111 22 128 47 149 21
17 27 35 36 99 9 60 16 80 31 89 31 18 45 39 41 64 -2 12 1 25 5 28 5 3 9 17
9 31 0 16 12 37 35 57 19 18 35 38 35 44 0 7 6 12 14 12 8 0 18 10 21 23 14
50 60 137 73 137 19 0 60 50 67 82 4 15 11 30 16 33 5 4 9 15 9 25 0 10 4 20
8 22 4 2 28 32 52 68 25 36 50 70 56 75 7 6 30 37 51 70 39 58 56 89 102 185
12 25 35 68 51 95 16 28 32 57 36 65 21 44 150 217 213 285 15 17 36 45 47 63
10 17 21 32 25 32 3 0 20 14 37 30 18 17 36 30 42 30 5 0 10 6 10 14 0 7 12
22 28 31 15 10 63 55 107 100 44 45 101 95 128 110 26 15 50 32 55 38 4 7 27
23 52 36 42 22 66 38 175 112 22 14 85 49 140 76 55 28 132 66 170 85 157 79
224 107 310 133 50 14 117 35 150 46 33 11 74 22 91 24 17 2 80 19 140 38 60
20 134 40 164 46 246 49 312 65 393 96 115 45 158 63 177 76 8 5 47 24 85 43
39 18 79 43 89 55 11 11 25 21 32 21 14 0 224 106 239 121 5 5 18 9 30 9 11 0
34 7 50 16 17 9 95 50 175 91 80 41 151 80 157 85 14 11 52 -26 53 -50 0 -8 7
-28 15 -45 14 -32 46 -114 91 -242 28 -76 41 -110 56 -138 5 -10 11 -31 13
-45 1 -15 11 -54 21 -87 10 -33 19 -63 20 -67 1 -5 3 -11 4 -15 1 -5 2 -10 2
-13 0 -3 8 -37 19 -75 46 -166 53 -227 54 -540 1 -165 -2 -343 -6 -395 -5 -52
-11 -133 -14 -180 -3 -47 -12 -131 -20 -185 -8 -55 -17 -122 -21 -150 -3 -27
-9 -54 -13 -60 -4 -5 -8 -22 -9 -37 -3 -42 -47 -240 -84 -373 -31 -112 -33
-129 -31 -254 2 -118 5 -137 21 -154 18 -18 18 -21 4 -50 -23 -45 -4 -145 43
-223 73 -123 134 -198 163 -202 23 -4 39 -40 29 -67 -7 -17 53 -92 95 -117 23
-15 33 -16 50 -7 19 10 26 6 58 -30 20 -22 40 -41 44 -41 8 0 76 -49 91 -66
14 -16 137 -94 148 -94 9 0 76 -48 92 -66 6 -6 39 -31 75 -55 136 -92 206
-146 266 -204 162 -158 241 -227 266 -232 22 -4 30 -14 38 -44 6 -22 14 -39
19 -39 4 0 28 -19 52 -43 24 -23 55 -52 69 -62 18 -14 30 -37 39 -77 10 -48
21 -67 65 -112 30 -30 60 -54 67 -54 56 3 59 0 59 -53 0 -57 -26 -181 -46
-221 -11 -21 -12 -33 -2 -53 15 -34 38 -32 78 10 19 19 39 35 45 35 16 0 92
82 100 108 3 12 10 22 15 22 4 0 11 16 15 36 6 33 7 35 24 20 23 -21 41 -97
41 -171 -2 -226 3 -260 40 -283 15 -9 383 -12 1623 -12 882 -1 1612 3 1623 6
30 12 54 45 54 75 0 27 1 27 33 18 17 -6 37 -12 42 -13 40 -11 56 -20 99 -50
25 -17 32 -18 82 -6 80 19 95 54 63 148 -21 60 -21 60 -112 130 -73 56 -115
80 -144 85 -10 1 -22 5 -28 8 -22 14 -87 30 -131 35 -26 2 -50 8 -53 12 -7 10
-180 30 -321 38 -58 3 -132 7 -165 10 -33 3 -78 7 -100 9 -134 11 -579 80
-675 104 -19 5 -60 15 -90 21 -30 7 -59 16 -65 19 -5 4 -43 18 -83 30 -40 13
-75 27 -78 32 -3 5 -12 9 -21 9 -22 0 -113 69 -113 86 0 8 -4 14 -8 14 -5 0
-30 20 -55 44 l-46 43 4 73 c4 59 0 82 -18 124 -25 58 -46 86 -64 86 -7 0 -13
4 -13 10 0 14 -79 53 -115 57 -16 2 -52 10 -78 19 -27 9 -50 14 -53 11 -10
-10 -90 15 -110 34 -13 12 -62 28 -137 44 -79 17 -125 31 -140 45 -12 12 -33
24 -47 27 -53 13 -126 53 -154 83 -15 18 -52 43 -81 56 -30 13 -62 35 -71 49
-10 15 -45 45 -78 67 -79 53 -106 78 -106 98 0 9 -21 29 -46 45 -25 16 -52 41
-59 56 -8 15 -32 40 -52 57 -21 17 -49 51 -61 76 -13 25 -28 46 -33 46 -15 0
-66 53 -73 77 -4 13 -20 30 -36 40 -18 10 -32 29 -36 47 -3 16 -25 50 -49 75
-47 52 -67 86 -86 148 -7 24 -16 43 -21 43 -6 0 -8 6 -5 13 2 6 -2 28 -10 47
-14 33 -42 117 -63 185 -17 56 -51 210 -61 275 -15 93 -29 335 -24 400 3 30 7
91 10 134 3 44 10 86 16 93 6 6 8 16 5 21 -6 10 22 180 34 202 5 9 12 45 15
80 4 36 13 84 21 107 7 24 16 57 19 75 3 18 10 37 14 43 9 11 45 113 47 130 0
6 12 34 27 64 15 30 27 63 27 72 0 10 4 20 9 23 5 3 12 18 16 33 12 48 49 128
117 250 25 44 54 102 64 128 9 26 23 53 31 60 7 8 14 23 16 34 2 11 11 29 22
41 10 11 15 20 10 20 -4 0 -3 6 3 13 12 14 52 112 58 140 2 11 19 51 39 91 19
39 35 76 35 82 0 6 27 63 60 127 32 65 57 117 54 117 -3 0 4 13 15 29 12 16
21 33 21 37 0 8 31 80 55 127 8 16 15 40 15 53 0 14 6 27 14 30 8 3 17 17 21
32 4 15 18 52 32 82 14 30 26 60 28 65 1 6 5 17 8 25 15 34 36 102 35 108 -3
13 25 133 32 137 4 2 35 6 69 8 33 3 67 9 74 15 6 5 26 12 42 15 17 3 43 8 60
12 16 3 43 8 60 10 58 8 241 44 350 70 61 14 127 28 148 30 21 2 43 7 49 11
13 8 119 33 166 38 18 2 43 10 55 18 12 8 36 15 52 16 39 3 163 38 179 51 7 6
16 8 19 4 4 -3 13 0 21 6 8 7 20 10 25 6 6 -3 24 1 41 10 17 9 35 13 40 10 5
-3 19 -1 30 5 12 6 34 12 51 12 16 1 34 7 40 14 6 8 14 12 18 10 7 -4 66 9
176 39 59 17 69 19 133 31 18 4 38 14 45 24 10 15 280 114 382 141 17 4 76 24
133 43 56 20 109 36 117 36 8 0 15 5 15 10 0 6 13 10 28 10 16 0 32 3 36 8 4
4 11 7 14 8 21 2 77 19 157 46 50 17 97 32 105 32 20 2 87 24 127 42 17 8 36
14 42 14 7 0 53 20 104 44 51 24 112 49 137 56 65 16 93 27 205 80 55 27 127
60 160 75 114 51 146 69 156 87 5 10 16 18 25 18 8 0 17 7 20 15 4 8 10 13 14
10 5 -3 28 8 52 23 59 40 148 90 179 103 14 5 31 21 37 34 7 14 18 25 27 25 8
0 23 9 32 20 10 11 32 25 50 31 18 6 33 15 33 20 0 5 7 9 15 9 7 0 18 6 22 14
4 8 10 14 13 13 3 0 24 9 47 22 28 16 43 32 46 51 4 18 16 31 36 40 17 7 31
15 31 19 0 4 15 15 33 26 17 10 35 24 39 31 4 6 20 15 35 19 15 3 33 15 41 26
18 26 27 24 29 -6 9 -105 -9 -309 -34 -395 -13 -47 -27 -96 -29 -110 -3 -14
-11 -32 -18 -40 -15 -17 -38 -86 -57 -170 -7 -30 -16 -62 -20 -70 -7 -13 -34
-121 -59 -235 -12 -54 -12 -139 0 -151 6 -6 3 -40 -8 -95 -29 -145 -14 -347
29 -370 27 -14 55 4 62 38 22 111 51 219 78 291 5 13 9 31 9 42 0 16 25 45 95
110 19 17 60 143 54 165 -2 6 1 37 6 70 5 33 10 65 11 70 0 6 3 17 6 25 20 59
38 119 42 140 24 143 40 204 61 236 28 42 30 40 45 -66 23 -164 28 -188 49
-228 10 -19 35 -47 56 -61 32 -22 41 -37 57 -91 10 -36 20 -78 22 -95 4 -38
17 -87 26 -100 4 -5 13 -31 20 -57 7 -27 16 -48 21 -48 4 0 10 -13 14 -30 8
-35 60 -94 75 -85 5 3 10 33 10 66 0 68 -28 348 -36 361 -5 8 -5 43 -1 168 2
41 -7 82 -34 161 -23 67 -40 136 -44 185 -4 43 -14 104 -22 134 -12 42 -14 85
-10 197 3 78 9 147 12 154 5 6 14 0 25 -18 10 -15 33 -44 50 -63 18 -19 39
-48 47 -65 9 -16 22 -35 29 -43 8 -7 14 -17 14 -22 0 -5 24 -33 53 -62 30 -29
71 -80 93 -113 21 -33 42 -62 45 -65 3 -3 25 -48 49 -100 23 -52 45 -102 50
-110 4 -9 11 -30 15 -49 4 -18 21 -62 38 -99 17 -37 32 -71 33 -77 1 -5 20
-55 42 -111 21 -55 42 -118 46 -139 4 -22 22 -64 38 -95 17 -30 36 -64 42 -75
6 -10 17 -25 24 -33 6 -7 12 -17 12 -22 0 -5 11 -15 25 -22 23 -12 37 -35 92
-138 16 -32 32 -52 88 -116 11 -12 31 -37 45 -54 35 -45 99 -90 127 -90 19 0
23 5 23 28 0 15 -5 33 -12 40 -7 7 -9 12 -5 12 4 0 -1 17 -12 37 -10 21 -33
79 -51 128 -18 50 -39 108 -47 130 -9 22 -15 70 -14 108 1 55 -5 82 -30 145
-18 42 -35 82 -39 87 -4 6 -10 25 -14 44 -3 19 -16 48 -29 65 -46 62 -107 186
-92 186 3 0 23 -20 45 -44 22 -24 53 -46 69 -49 34 -7 81 -46 230 -189 83 -79
119 -108 135 -106 16 2 21 9 19 32 -1 16 -8 36 -16 45 -8 9 -31 48 -51 86 -21
39 -44 77 -52 86 -8 8 -14 19 -14 23 0 4 -11 24 -25 44 -14 20 -34 65 -45 100
-11 34 -25 72 -31 85 -16 30 -90 126 -123 158 -30 30 -116 156 -116 170 0 5
-4 9 -8 9 -4 0 -13 12 -20 28 -6 15 -21 43 -33 62 -37 59 -96 183 -104 219 -4
18 -17 57 -30 86 -13 28 -29 72 -35 96 -7 24 -20 58 -30 74 -10 17 -21 44 -24
61 -4 18 -20 53 -37 78 -16 26 -29 50 -29 55 0 4 -13 25 -30 47 -16 21 -30 47
-30 57 0 9 -4 17 -10 17 -5 0 -12 11 -16 24 -6 26 34 110 64 133 10 7 13 13 9
13 -5 0 -2 7 5 15 33 36 39 46 44 75 4 16 9 30 13 30 3 0 18 11 32 24 14 13
36 27 48 31 13 4 60 45 106 91 46 46 87 84 92 84 18 0 93 110 93 136 0 9 8 28
19 42 10 15 33 55 51 90 20 38 65 96 111 145 44 44 79 86 79 93 0 7 9 15 19
19 11 3 34 22 50 41 17 19 31 32 31 28 0 -5 52 35 91 71 8 8 30 20 47 26 18 6
32 15 32 20 0 6 14 15 30 20 17 6 30 15 30 19 0 4 11 11 25 14 14 4 25 11 25
16 0 5 16 17 35 26 19 9 35 20 35 25 0 5 6 6 14 3 8 -3 23 3 33 13 10 10 31
24 46 30 15 7 27 17 27 22 0 6 6 8 14 5 7 -3 22 3 31 13 10 10 20 17 22 16 8
-7 23 -1 39 14 9 10 31 23 48 29 17 7 56 22 86 34 30 12 70 26 88 31 17 6 32
14 32 19 0 6 5 10 11 10 6 0 39 13 73 29 33 16 91 43 128 60 38 17 85 47 105
66 20 19 41 35 47 35 5 0 43 31 85 68 42 37 87 75 101 84 29 18 140 122 140
131 0 4 16 22 35 42 20 19 33 35 29 35 -4 0 10 17 32 39 55 54 84 88 84 96 0
7 111 115 119 115 2 0 13 10 25 23 12 12 39 31 60 41 27 15 36 25 33 38 -3 12
3 22 16 30 28 14 41 25 104 86 28 27 54 47 57 44 3 -3 6 0 6 6 0 7 8 12 19 12
23 0 45 25 35 41 -4 7 -3 9 2 6 5 -3 32 14 59 39 28 24 53 44 58 44 4 0 24 10
45 23 20 13 53 29 72 37 19 8 38 19 43 26 4 7 32 24 62 39 30 14 54 29 52 34
-2 9 41 51 53 51 11 0 120 107 120 117 0 4 11 20 25 35 14 15 25 32 25 38 0 5
5 10 10 10 6 0 16 12 22 28 7 15 20 36 29 47 10 11 24 32 31 46 32 62 108 148
154 173 16 9 47 28 69 42 22 13 56 31 75 39 19 8 48 22 63 30 16 8 33 15 39
15 6 0 16 7 22 15 11 15 21 18 99 35 21 4 44 13 50 19 6 6 19 11 30 11 10 0
28 5 40 12 12 7 31 13 42 15 11 2 21 8 23 13 2 5 19 12 37 16 19 3 46 17 59
31 14 14 29 22 35 19 5 -4 12 -2 16 4 3 5 16 10 29 10 12 0 26 4 32 9 10 9
122 54 164 66 40 11 80 29 80 37 0 3 15 9 33 13 17 3 41 10 52 14 21 9 94 30
107 31 4 0 29 12 55 26 27 14 69 28 96 31 26 3 47 10 47 15 0 5 4 7 9 3 10 -6
78 17 124 42 15 8 40 17 55 19 14 3 29 9 32 13 3 5 31 16 63 25 31 9 57 21 57
27 0 6 4 8 9 4 5 -3 12 -1 16 4 3 5 19 17 35 25 17 9 45 24 63 33 17 9 41 25
51 35 10 9 22 15 26 13 5 -3 10 1 13 9 3 7 18 17 33 20 15 4 39 16 53 28 14
11 41 26 59 33 17 8 32 18 32 23 0 5 14 15 30 22 17 7 35 21 41 31 5 11 25 26
44 33 19 8 44 24 57 35 12 12 37 31 55 44 18 12 33 28 33 35 0 6 6 12 13 12 7
0 33 20 59 45 26 25 50 45 52 45 3 0 29 23 58 50 29 28 63 53 74 56 12 3 26
16 33 30 6 13 15 24 20 24 6 0 26 16 45 35 20 19 40 35 45 35 6 0 25 14 43 31
45 42 178 130 266 174 39 20 72 41 72 45 0 5 17 12 38 16 20 4 47 14 60 22 13
9 58 17 110 20 48 2 90 10 94 16 4 6 8 8 8 5 0 -4 29 -1 63 7 35 7 90 16 122
19 32 4 69 11 84 17 14 5 51 16 81 24 60 16 180 79 180 94 0 6 6 10 13 10 12
0 127 103 127 114 0 9 64 100 79 112 22 17 33 260 18 387 -8 60 -35 83 -109
93 -24 3 -47 11 -53 18 -21 25 -61 46 -88 46 -26 0 -29 -3 -25 -27 3 -16 9
-36 13 -45 12 -30 -9 -20 -28 12 -23 38 -73 66 -92 50 -10 -8 -11 -19 -3 -46
16 -61 8 -87 -32 -96 -19 -4 -57 -5 -84 -1 -46 6 -48 5 -42 -15 5 -15 1 -24
-14 -32 -12 -6 -22 -10 -23 -8 -32 64 -70 97 -100 85 -13 -5 -17 -20 -18 -59
l0 -53 -23 51 c-23 50 -66 94 -92 94 -21 0 -28 -21 -34 -100 -5 -71 -6 -75
-30 -78 -19 -2 -29 5 -43 29 -22 39 -41 33 -45 -14 -2 -20 -9 -38 -15 -38 -79
-9 -79 -9 -93 60 -23 111 -93 180 -95 94 -1 -21 -2 -45 -3 -53 -2 -8 -3 -36
-4 -62 -1 -27 -6 -48 -10 -48 -4 0 -16 25 -27 56 -19 57 -73 113 -95 99 -5 -3
-10 -40 -10 -81 l0 -74 -49 0 c-66 0 -78 6 -97 46 -17 36 -51 46 -59 19 -3 -8
-7 -21 -9 -29 -3 -9 -15 -11 -40 -7 -28 5 -40 13 -54 41 -23 47 -47 51 -56 9
-6 -30 -7 -31 -45 -25 -59 9 -91 24 -91 40 0 9 -9 20 -21 26 -16 9 -24 8 -39
-5 -13 -12 -23 -14 -37 -7 -23 13 -85 37 -98 38 -5 0 -17 3 -25 6 -8 3 -40 13
-70 21 -30 8 -104 29 -165 45 -60 17 -141 34 -180 37 -101 11 -105 11 -160 29
-27 9 -65 19 -83 21 -58 9 -142 62 -142 90 0 17 68 61 132 86 97 38 188 34
451 -18 27 -5 28 -6 21 -59 -7 -68 5 -70 69 -14 56 50 83 46 72 -9 -14 -73
-12 -86 16 -89 21 -2 38 8 77 47 28 28 53 48 55 43 5 -7 -16 -119 -27 -147 -2
-7 1 -18 8 -24 10 -9 26 2 69 44 31 31 62 69 69 86 9 21 19 29 33 27 17 -3 20
-11 20 -52 0 -34 5 -51 14 -54 22 -7 73 25 99 61 l22 32 1 -63 c2 -84 2 -83
20 -95 28 -17 111 63 141 136 11 25 28 21 28 -7 0 -13 6 -28 13 -33 19 -16 74
12 92 47 22 43 45 39 46 -7 3 -115 14 -142 50 -120 10 6 30 34 45 61 25 45 28
48 35 28 5 -12 13 -22 18 -22 16 0 67 54 85 89 16 30 53 58 63 47 4 -3 9 -22
12 -43 3 -20 11 -38 17 -40 22 -7 73 48 89 96 14 44 21 51 66 71 28 11 55 20
61 18 6 -2 16 -19 22 -38 6 -18 16 -35 23 -37 15 -5 48 59 58 112 l7 39 17
-23 c16 -21 20 -22 39 -10 12 8 22 20 22 27 0 15 21 54 35 64 6 4 14 -10 20
-35 14 -55 40 -60 83 -16 21 21 33 46 38 74 4 32 12 45 30 54 33 15 31 15 39
-19 10 -44 44 -40 77 8 16 24 16 24 27 3 21 -37 74 3 85 64 4 19 15 39 26 45
10 5 28 26 40 45 18 29 21 48 19 108 -1 39 -6 82 -10 93 -4 12 -10 48 -13 80
-13 134 -18 163 -43 239 -40 126 -67 187 -98 218 -56 57 -160 144 -191 158
-18 8 -42 24 -53 33 -11 10 -27 16 -36 12 -9 -3 -32 1 -51 9 -19 8 -37 14 -39
14 -14 1 -62 31 -79 50 -29 32 -129 75 -202 86 -69 11 -130 28 -145 41 -8 8
-18 14 -21 14 -4 0 -25 18 -47 41 -34 33 -47 39 -71 36 -48 -8 -103 -29 -132
-50 -23 -17 -32 -19 -53 -9 -14 7 -37 12 -50 12 -13 0 -26 4 -29 8 -8 13 -147
5 -189 -11 -34 -12 -77 -14 -152 -4 -11 1 -30 8 -42 15 -28 16 -49 15 -123 -4
-34 -8 -68 -13 -76 -10 -8 3 -17 0 -20 -7 -3 -9 -25 -12 -77 -9 -99 4 -140 2
-147 -6 -21 -28 -114 -9 -127 25 -11 28 -35 42 -73 43 -25 0 -40 8 -53 26 -16
21 -18 39 -14 132 3 59 1 115 -4 124 -12 22 -38 23 -65 4z m-19091 -17073 c-7
-2 -19 -2 -25 0 -7 3 -2 5 12 5 14 0 19 -2 13 -5z"/>
</g>
</svg>
