<?xml version="1.0" standalone="no"?>
<!DOCTYPE svg PUBLIC "-//W3C//DTD SVG 20010904//EN"
 "http://www.w3.org/TR/2001/REC-SVG-20010904/DTD/svg10.dtd">
<svg version="1.0" xmlns="http://www.w3.org/2000/svg"
 width="4247.000000pt" height="1752.000000pt" viewBox="0 0 4247.000000 1752.000000"
 preserveAspectRatio="xMidYMid meet">
<metadata>
Created by potrace 1.16, written by Peter Selinger 2001-2019
</metadata>
<g transform="translate(0.000000,1752.000000) scale(0.100000,-0.100000)"
fill="#000000" stroke="none">
<path d="M3670 17444 l-475 -73 -284 -1 -284 0 -96 -59 -96 -59 -570 45 -570
45 -443 -202 -443 -203 -203 -301 -203 -301 23 -255 c13 -140 23 -255 24 -256
1 -4 697 269 706 277 6 5 35 65 64 134 l52 125 78 0 77 0 96 -235 95 -235 -72
-128 -72 -127 -90 0 c-87 -1 -94 -3 -284 -77 l-195 -75 -23 -63 c-12 -35 -21
-64 -19 -66 2 -2 92 5 201 16 189 20 197 20 221 3 13 -10 25 -21 25 -25 0 -5
-27 -8 -61 -8 l-61 0 -150 -110 c-82 -61 -155 -113 -164 -117 -8 -3 -92 -22
-187 -42 -94 -21 -172 -42 -172 -47 0 -6 43 -120 94 -253 72 -184 100 -245
115 -251 12 -5 163 -25 336 -45 l315 -37 187 90 187 90 713 -184 713 -185 617
-617 618 -617 194 -628 194 -628 49 -56 c26 -32 310 -363 631 -737 l582 -680
315 -209 315 -210 104 46 105 45 11 -51 c6 -29 25 -119 42 -202 17 -82 34
-153 37 -157 3 -3 64 65 135 153 71 87 131 157 133 156 1 -2 16 -88 32 -192
29 -182 31 -189 63 -224 28 -29 226 -248 259 -285 4 -5 119 63 257 153 137 88
252 161 256 161 11 0 91 -175 371 -811 142 -321 262 -590 267 -596 16 -20 367
-303 375 -303 5 0 37 -26 71 -58 l64 -57 112 -405 112 -405 232 -367 c164
-261 229 -373 225 -385 -4 -10 -93 -135 -199 -278 l-192 -260 -266 -653 c-146
-359 -266 -657 -266 -662 0 -4 -12 -16 -27 -26 -16 -9 -112 -82 -215 -161
l-188 -143 -207 0 -208 1 -115 -121 -115 -121 -705 -219 c-588 -182 -699 -219
-670 -224 19 -4 279 -36 578 -71 l543 -65 139 -111 139 -110 98 30 c53 17 99
29 100 27 2 -2 -2 -70 -8 -151 l-11 -148 -373 -496 c-206 -273 -484 -640 -618
-816 -135 -176 -243 -321 -242 -323 1 -1 126 -12 278 -23 l276 -20 191 120
c154 98 189 116 185 98 -5 -21 -95 -469 -95 -473 0 -1 49 -48 109 -103 l110
-102 240 160 240 160 101 -109 102 -109 118 100 c66 55 124 107 130 114 6 8
43 241 81 520 l69 505 127 175 c70 96 128 173 130 172 2 -2 -2 -138 -8 -303
l-11 -299 98 -382 c54 -211 101 -383 104 -383 4 0 32 85 63 190 l57 190 60
610 61 611 179 389 180 389 560 740 559 740 261 650 260 651 -19 117 c-11 65
-18 119 -16 121 1 2 94 -37 206 -86 l204 -90 12 -173 11 -174 160 -617 160
-618 -49 -322 c-27 -178 -50 -327 -52 -331 -1 -5 -99 -61 -217 -125 l-215
-117 -5 -135 -5 -135 -302 -566 c-270 -504 -419 -797 -411 -804 2 -2 218 185
481 415 l478 418 97 7 c146 10 140 6 181 118 19 53 38 97 41 97 3 0 35 -95 71
-211 l67 -210 -90 -502 -89 -502 16 -415 c10 -228 20 -434 23 -457 l7 -42 155
96 c85 53 157 100 160 104 3 4 48 144 100 312 52 168 97 303 100 301 3 -3 21
-80 41 -170 21 -91 39 -167 40 -168 10 -8 306 -251 321 -264 15 -12 36 -8 180
33 90 26 167 51 172 56 8 7 65 377 66 426 0 7 60 22 150 39 82 15 155 31 161
35 8 5 8 49 1 163 l-11 157 -159 278 -159 279 -17 163 c-9 90 -19 176 -22 191
l-5 27 60 -20 c58 -20 66 -27 258 -240 l198 -219 270 -139 c148 -77 271 -138
272 -137 9 9 -159 460 -185 498 -16 24 -124 177 -240 341 l-209 297 -91 362
-91 363 -6 685 c-3 377 -8 695 -11 707 -4 20 -2 20 26 10 26 -10 36 -28 90
-162 l61 -150 469 -608 c426 -552 470 -613 476 -655 4 -26 26 -164 50 -307
l42 -260 -80 -293 -80 -292 110 -260 110 -260 -50 -180 -51 -180 -238 -168
-238 -167 -1 -190 0 -190 -92 -92 -93 -92 -420 -30 -420 -30 -279 -100 c-153
-55 -279 -101 -281 -103 -1 -2 -65 -96 -143 -210 l-141 -208 169 0 168 0 216
99 215 99 88 -98 88 -98 903 -1 902 -1 325 311 c179 172 325 316 325 321 0 4
-31 49 -70 98 -38 49 -70 93 -70 96 0 4 46 129 102 278 l102 271 210 315 c190
286 211 320 217 370 4 30 15 210 24 400 l16 345 -130 409 -130 408 10 327 11
326 55 151 c61 168 63 170 128 115 17 -14 304 -204 638 -421 545 -354 677
-446 1282 -888 l674 -493 171 -241 c139 -197 170 -246 166 -267 -3 -14 -12
-105 -21 -201 l-16 -175 60 -207 60 -208 -106 -182 c-58 -101 -108 -186 -112
-190 -3 -4 -104 -25 -225 -47 -120 -22 -219 -41 -221 -43 -1 -2 -32 -47 -69
-101 l-67 -97 -82 0 c-45 0 -248 -5 -451 -10 l-370 -10 -350 -106 c-193 -59
-357 -112 -365 -119 -7 -7 -82 -129 -166 -272 l-154 -258 138 -3 138 -3 152
90 151 90 60 -90 61 -89 1429 0 c787 0 1430 1 1430 3 0 2 -18 92 -40 201 l-39
197 208 417 209 417 222 303 222 302 -81 342 -80 342 -311 311 -310 311 -130
317 -129 317 20 273 c11 149 19 288 17 308 l-3 36 140 7 c77 3 189 6 250 6
l110 0 1395 675 1395 675 1347 224 1347 224 1783 -689 1783 -689 1000 -602
c550 -330 1247 -749 1548 -931 l548 -329 1437 -479 1437 -480 1578 -150 1578
-151 1367 136 1367 135 560 251 c308 138 564 255 569 260 8 8 41 378 34 386
-2 2 -267 -84 -589 -191 l-584 -194 -1345 -60 -1345 -59 -1473 300 -1473 300
-1199 675 -1198 674 -831 820 -831 821 0 49 0 49 -49 0 -49 0 -200 196 -201
195 -16 77 c-9 42 -19 85 -22 95 -4 14 -16 17 -77 17 l-72 0 -44 46 c-25 25
-82 77 -127 116 -81 68 -83 71 -83 115 l0 44 -112 53 c-102 48 -129 67 -275
195 l-162 141 -11 57 c-20 101 -13 95 -88 88 l-67 -5 -187 164 -186 165 -15
66 c-9 37 -18 69 -20 72 -3 2 -50 19 -105 36 l-100 32 -155 134 -155 135 25
55 c13 31 25 60 26 65 1 5 -54 35 -123 67 -90 42 -137 58 -168 59 -41 0 -52 7
-188 126 -79 69 -144 131 -144 137 0 7 7 48 15 91 9 44 12 83 8 87 -5 4 -63
33 -130 63 -120 55 -123 56 -173 45 l-50 -11 -86 74 c-47 40 -102 87 -122 104
l-36 31 42 76 42 77 -150 100 -149 100 -59 -32 -59 -32 -146 128 c-81 70 -147
129 -147 132 0 2 11 57 25 121 13 65 21 120 17 123 -4 4 -76 28 -161 54 l-154
48 -35 -35 -35 -36 -199 100 c-165 83 -199 103 -193 117 4 9 20 52 35 94 l29
77 -52 15 c-29 8 -133 35 -231 61 l-179 46 -35 -35 -35 -35 -169 85 -169 85
19 32 c10 18 35 62 56 99 l36 66 -27 6 c-16 3 -124 22 -242 41 l-213 36 -34
-26 -33 -25 -200 99 c-110 55 -202 104 -204 108 -3 5 3 73 14 152 10 79 17
146 15 148 -2 2 -101 22 -220 44 l-217 40 -66 -55 -67 -54 -139 69 c-76 38
-140 75 -143 83 -3 7 9 93 25 191 17 99 29 180 28 182 -2 1 -118 7 -259 13
l-255 11 -55 -56 -54 -57 -105 52 c-57 29 -131 60 -164 70 l-60 17 -3 167 -2
168 -123 -6 c-67 -4 -171 -9 -230 -12 l-108 -6 -56 -72 c-35 -45 -61 -70 -72
-68 -13 3 -314 88 -385 109 -17 5 -18 15 -11 198 l7 193 -53 6 c-136 15 -401
36 -408 32 -4 -3 -40 -61 -80 -129 l-74 -125 -66 19 c-36 11 -108 31 -158 45
-59 17 -93 32 -93 40 0 8 16 80 35 161 19 81 33 149 31 151 -2 1 -89 -2 -192
-8 l-189 -11 -85 -84 -85 -85 -160 46 c-88 25 -161 47 -163 49 -2 2 2 67 8
145 6 78 9 144 6 147 -2 2 -105 22 -229 44 l-224 39 -76 -77 c-41 -43 -83 -88
-94 -99 l-18 -22 -150 46 c-82 24 -151 45 -152 46 -1 1 4 64 12 141 9 76 13
140 11 143 -3 2 -88 22 -191 43 l-185 40 -118 -84 c-64 -46 -123 -87 -130 -91
-8 -5 -88 14 -193 45 l-179 53 0 137 0 137 -57 6 c-32 3 -141 13 -242 22
l-184 15 -67 -66 -67 -66 -169 50 c-93 28 -174 53 -181 56 -8 3 6 59 47 181
33 98 58 179 57 181 -2 1 -129 -11 -283 -27 l-279 -30 -70 -68 c-104 -101 -85
-95 -231 -72 -70 11 -130 23 -133 25 -2 3 6 104 18 226 11 122 20 224 18 226
-5 5 -525 -54 -536 -61 -5 -3 -52 -67 -106 -141 -53 -74 -101 -135 -105 -135
-13 0 -324 50 -326 53 -1 1 11 94 27 207 15 113 28 209 29 214 0 8 -152 5
-663 -10 l-199 -6 -85 -117 c-47 -64 -88 -119 -92 -123 -6 -6 -231 29 -240 38
-3 2 1 106 7 231 7 124 10 228 8 230 -7 7 -770 -37 -777 -44 -3 -5 -27 -62
-52 -128 -25 -66 -48 -127 -52 -136 -6 -16 -38 -13 -254 26 l-34 6 7 220 c4
120 6 219 4 219 -2 -1 -145 -50 -318 -109 -262 -90 -317 -112 -328 -132 -7
-13 -28 -59 -47 -101 l-34 -78 -106 0 -105 0 0 70 c0 70 -1 73 -76 203 -41 73
-79 135 -82 139 -4 3 -126 -47 -272 -111 l-265 -118 -26 -79 -26 -79 -107 -3
c-98 -2 -106 -1 -106 16 0 32 -21 276 -24 279 -1 1 -108 -33 -237 -76 l-234
-78 -38 -66 -39 -67 -87 0 c-49 0 -115 -3 -148 -6 l-60 -7 -7 89 c-3 48 -8 89
-10 91 -4 4 -257 -46 -282 -56 -11 -5 -49 -47 -84 -94 l-63 -85 -101 -13
c-178 -22 -167 -25 -187 54 -9 38 -19 70 -21 72 -1 2 -86 -27 -188 -65 -182
-66 -185 -68 -188 -98 -3 -34 -8 -36 -112 -47 -30 -3 -67 -8 -81 -11 -24 -4
-30 1 -58 51 -34 60 -23 57 -121 35 -19 -4 -47 -11 -62 -14 -23 -5 -30 -15
-39 -51 -6 -25 -14 -45 -18 -45 -3 0 -92 22 -198 49 l-192 48 -81 -44 c-45
-24 -86 -40 -93 -37 -7 4 -51 41 -98 81 l-86 73 -85 0 c-80 0 -86 -1 -112 -29
l-29 -30 -128 67 -128 67 -60 -59 -59 -59 -30 60 -31 60 -288 108 c-276 105
-291 109 -360 107 l-71 -1 9 32 c5 17 9 41 9 53 0 12 -82 138 -181 280 l-182
259 -193 588 c-107 323 -194 590 -194 592 0 2 -196 176 -436 387 l-436 383
-466 127 c-257 70 -480 127 -497 126 -16 0 -244 -33 -505 -74z"/>
</g>
</svg>
