<?xml version="1.0" standalone="no"?>
<!DOCTYPE svg PUBLIC "-//W3C//DTD SVG 20010904//EN"
 "http://www.w3.org/TR/2001/REC-SVG-20010904/DTD/svg10.dtd">
<svg version="1.0" xmlns="http://www.w3.org/2000/svg"
 width="1536.000000pt" height="1084.000000pt" viewBox="0 0 1536.000000 1084.000000"
 preserveAspectRatio="xMidYMid meet">
<metadata>
Created by potrace 1.16, written by Peter Selinger 2001-2019
</metadata>
<g transform="translate(0.000000,1084.000000) scale(0.100000,-0.100000)"
fill="#000000" stroke="none">
<path d="M5474 10826 c-70 -17 -123 -50 -245 -152 -198 -166 -266 -198 -403
-188 -133 11 -339 -26 -746 -130 -344 -89 -506 -98 -940 -52 -457 49 -601 59
-850 59 -353 1 -422 -17 -536 -135 -148 -153 -236 -355 -288 -658 -51 -295
-67 -320 -259 -415 -153 -74 -299 -180 -450 -324 -113 -108 -236 -252 -286
-335 -72 -121 -118 -279 -106 -373 11 -92 48 -126 157 -148 15 -3 43 -19 62
-35 82 -72 105 -220 52 -340 -33 -74 -39 -157 -18 -231 19 -64 49 -97 107
-117 41 -15 54 -26 74 -61 61 -110 111 -442 143 -947 20 -322 -11 -664 -88
-974 -60 -241 -103 -348 -256 -642 -69 -132 -90 -215 -81 -324 7 -95 -1 -105
-83 -112 -182 -15 -356 -286 -421 -657 -42 -245 21 -396 186 -441 169 -46 292
-91 426 -158 305 -151 676 -427 1031 -767 138 -133 161 -144 296 -144 l107 0
-44 -23 c-35 -18 -45 -28 -45 -48 0 -59 113 -226 227 -335 333 -317 1334
-1005 1763 -1211 372 -178 879 -328 1320 -390 55 -7 186 -13 310 -13 316 0
350 15 440 187 25 48 46 86 47 84 1 -1 -9 -44 -22 -96 -14 -52 -25 -107 -25
-122 0 -65 59 -63 523 17 389 66 521 81 827 95 426 18 1079 12 3025 -30 2180
-47 3172 -70 3360 -75 l200 -7 90 106 c110 130 165 219 249 401 116 254 200
506 212 636 7 66 6 69 -23 98 -50 49 -177 76 -473 101 -195 16 -424 40 -429
46 -3 3 -1 8 5 12 40 26 68 151 68 312 1 130 -17 211 -49 224 -47 18 -148
-242 -162 -417 l-6 -77 -41 -13 c-57 -17 -872 -16 -1091 1 -461 37 -726 96
-833 187 -38 32 -57 65 -67 120 -15 87 -71 133 -120 101 -33 -22 -45 -54 -45
-122 0 -104 -21 -114 -190 -85 -142 25 -290 41 -368 41 -76 0 -122 9 -122 24
0 7 16 26 35 43 32 28 35 36 35 85 0 64 -38 175 -75 224 -79 103 -140 53 -156
-127 -9 -111 -28 -158 -71 -173 -74 -26 -149 44 -213 199 -35 85 -53 115 -70
115 -7 0 -38 -29 -70 -65 -79 -90 -131 -114 -187 -84 -28 15 -58 86 -58 140 0
96 -47 103 -125 17 -26 -29 -63 -70 -81 -91 -30 -32 -40 -37 -79 -37 -48 0
-157 33 -400 123 -218 80 -260 87 -542 87 -292 -1 -599 -15 -635 -29 -36 -14
-35 -37 3 -81 63 -73 89 -114 89 -140 0 -37 -59 -90 -235 -214 -714 -504
-1239 -932 -1461 -1192 -146 -172 -172 -185 -221 -112 -40 59 -79 79 -181 90
-177 19 -399 94 -632 215 -181 93 -304 179 -437 304 -167 157 -290 258 -423
349 -114 77 -200 150 -200 170 0 37 70 10 159 -60 124 -99 230 -118 791 -145
469 -23 743 -59 990 -131 173 -49 256 -88 425 -194 57 -35 178 28 469 246 272
203 501 369 674 488 141 98 212 162 212 192 0 22 -12 43 -75 126 -34 45 -62
94 -72 128 -24 81 -44 97 -246 190 -93 43 -22 60 85 20 30 -11 86 -39 124 -62
150 -91 262 -105 682 -87 239 9 300 15 290 24 -12 12 -308 187 -486 289 -138
78 -333 173 -457 221 -263 103 -526 165 -1480 349 -1785 344 -2156 429 -2584
596 -371 144 -524 173 -1056 205 -604 36 -795 65 -1001 156 -166 73 -193 70
-346 -38 -140 -98 -237 -128 -389 -121 -108 5 -181 34 -220 89 -29 41 -12 52
50 34 114 -33 213 -25 335 29 133 59 236 144 428 353 l142 156 631 -6 c346 -3
704 -11 795 -16 453 -29 763 -61 1125 -116 454 -68 722 -88 995 -74 339 18
607 87 1025 264 233 99 550 205 807 271 119 30 877 164 928 164 59 0 71 -15
81 -110 18 -163 85 -187 153 -55 37 70 82 105 137 105 76 0 100 -25 114 -120
7 -50 20 -70 46 -70 27 0 85 55 131 124 52 78 76 104 111 122 67 35 102 -34
125 -251 l16 -154 196 192 c107 106 210 199 227 206 48 20 77 7 154 -65 103
-96 146 -108 204 -54 41 39 134 72 201 73 111 1 124 -28 100 -236 -18 -156
-21 -309 -6 -338 15 -27 40 -24 75 8 120 111 262 371 279 513 9 68 36 113 80
134 45 21 81 20 130 -4 96 -47 121 -151 91 -392 -18 -155 -17 -250 4 -271 19
-19 63 5 104 58 21 28 81 137 133 244 130 264 184 341 240 341 54 0 72 -61 84
-295 10 -187 27 -286 53 -313 14 -14 18 -13 42 2 94 62 235 389 235 547 0 110
33 135 163 126 177 -12 199 -41 236 -297 31 -212 76 -331 130 -338 57 -9 182
195 236 383 14 50 30 128 34 175 9 96 33 153 81 194 37 30 70 33 93 8 21 -23
50 -149 77 -332 12 -80 27 -156 34 -170 19 -41 48 -36 108 19 89 81 151 218
188 413 22 115 49 182 81 198 30 17 112 14 148 -4 61 -32 122 -127 151 -237
25 -93 77 -169 115 -169 51 0 98 93 149 295 19 77 42 158 52 180 18 45 51 85
70 85 24 0 61 -59 89 -139 16 -45 34 -86 41 -92 17 -14 42 25 99 160 81 190
105 212 152 140 51 -77 99 -121 129 -117 42 5 63 43 73 135 10 92 29 131 92
188 70 63 157 84 207 49 32 -22 27 -41 -14 -48 -30 -6 -39 -14 -57 -54 -17
-38 -22 -72 -25 -182 -7 -222 -17 -218 127 -47 68 81 126 145 130 142 3 -4 8
-61 11 -128 3 -67 9 -122 14 -122 5 0 41 37 80 83 78 91 104 112 150 121 41 9
69 53 101 158 15 47 29 83 32 80 3 -4 9 -45 14 -94 15 -147 25 -142 130 72
163 331 188 440 154 670 -91 607 -218 902 -569 1313 -260 304 -850 752 -1281
972 -195 100 -256 117 -380 107 -26 -2 -30 2 -35 28 -7 42 -80 89 -260 169
-345 152 -898 342 -1665 571 -269 81 -605 185 -745 231 -367 121 -767 218
-1610 389 -1283 260 -2408 448 -2933 490 -222 18 -323 18 -393 1z m-329 -540
c81 -81 140 -162 125 -171 -12 -7 -145 119 -199 189 -81 105 -37 95 74 -18z
m-2893 7 c18 -10 44 -38 57 -62 13 -23 30 -45 38 -48 8 -3 37 10 66 30 69 47
127 57 320 57 188 0 373 -19 575 -59 135 -28 178 -43 167 -61 -13 -21 -102
-63 -172 -81 -63 -17 -126 -22 -329 -28 -267 -9 -306 -16 -312 -58 -4 -27 22
-78 55 -109 41 -38 103 -28 103 18 0 51 60 99 103 82 46 -17 -9 -80 -135 -155
-114 -69 -193 -97 -304 -108 -107 -11 -211 -39 -286 -77 -63 -32 -96 -32 -104
1 -3 14 -12 25 -19 25 -21 0 -112 -65 -194 -139 -107 -95 -177 -149 -233 -177
-51 -26 -107 -31 -126 -12 -17 17 -15 79 8 188 11 52 22 133 25 180 8 102 25
163 72 249 99 184 252 314 419 356 73 18 164 13 206 -12z m2159 -10 c70 -23
139 -87 139 -130 0 -63 56 -148 161 -245 57 -53 99 -99 99 -110 0 -31 -92 -68
-168 -68 -175 0 -463 100 -553 193 -20 20 -41 37 -47 37 -11 0 -22 -47 -22
-96 0 -21 -8 -42 -20 -54 -19 -19 -29 -20 -104 -14 -99 8 -116 -2 -116 -71 0
-73 -35 -104 -160 -139 -81 -23 -169 -86 -265 -191 -142 -154 -235 -188 -525
-188 -192 -1 -276 15 -323 62 -35 35 -49 92 -36 149 25 114 96 189 247 263 58
28 148 81 201 117 176 120 439 235 866 378 421 141 485 152 626 107z m1484
-202 c33 -14 -63 -25 -210 -25 -71 0 -152 4 -180 8 -91 15 -20 25 180 25 105
0 199 -4 210 -8z m364 -50 c27 -17 -6 -41 -55 -41 -64 0 -118 29 -81 43 21 9
121 7 136 -2z m236 -91 c60 -27 105 -62 105 -80 0 -33 -157 25 -212 77 -55 52
-1 54 107 3z m-741 -80 c41 -44 46 -54 46 -95 0 -29 -16 -92 -41 -163 -49
-141 -61 -245 -35 -306 9 -22 15 -41 12 -43 -2 -2 -24 16 -49 41 -69 67 -70
88 -11 264 55 165 64 258 31 320 -25 46 -7 40 47 -18z m2212 23 c157 -6 188
-9 149 -15 -68 -12 -882 -13 -975 -2 l-75 9 135 5 c221 9 554 10 766 3z m808
-63 c14 -14 -38 -30 -94 -30 -87 0 -137 34 -62 43 49 6 145 -2 156 -13z
m-1514 -79 c474 -42 740 -76 1120 -146 791 -146 1626 -393 2050 -608 452 -228
783 -587 876 -948 66 -257 -143 -567 -501 -747 -424 -212 -1841 -637 -2780
-833 -511 -107 -727 -134 -870 -110 -99 17 -291 75 -417 127 -450 183 -707
433 -951 926 -112 226 -137 301 -137 412 0 148 97 578 210 931 48 147 51 166
48 240 -3 72 -9 91 -55 190 -92 198 -93 247 -3 328 110 99 410 226 606 257 92
14 544 4 804 -19z m1796 17 c10 -16 -24 -38 -58 -38 -38 0 -101 27 -93 40 9
14 142 13 151 -2z m-4948 -37 c49 -34 104 -45 150 -32 56 17 110 -7 139 -62
21 -41 6 -50 -51 -31 -66 23 -131 14 -164 -21 -31 -33 -71 -51 -137 -59 -72
-9 -119 4 -123 33 -8 51 91 201 131 201 7 0 31 -13 55 -29z m5331 -62 c342
-99 871 -294 871 -321 0 -36 -1010 297 -1086 358 -18 14 -15 15 30 9 26 -4
110 -24 185 -46z m-7043 -45 c23 -89 -44 -419 -90 -449 -53 -35 -520 -125
-568 -109 -22 7 -54 -16 -178 -127 -125 -112 -240 -170 -240 -121 0 16 28 61
88 141 34 45 16 38 -57 -22 -79 -64 -107 -106 -91 -137 15 -29 -9 -105 -57
-177 -67 -101 -122 -121 -149 -56 -38 91 -23 318 26 398 79 128 489 308 790
346 47 5 97 15 111 20 35 14 52 51 35 74 -13 18 -47 18 -143 -1 -26 -5 -33 -3
-33 9 0 37 236 147 455 212 100 30 93 30 101 -1z m2137 -75 c51 -42 151 -196
246 -379 177 -342 186 -393 110 -638 -65 -210 -60 -271 43 -567 108 -313 129
-406 135 -616 6 -193 -2 -301 -47 -610 -90 -614 -188 -878 -342 -919 -63 -18
-147 -7 -207 26 -185 100 -585 659 -646 900 -44 178 -40 371 16 862 34 296 33
358 -6 437 -15 31 -69 96 -141 170 -240 247 -378 531 -391 809 -10 187 27 275
134 322 85 38 270 80 568 129 287 47 378 67 410 90 34 24 77 18 118 -16z
m6087 -250 c109 -29 203 -89 140 -89 -54 0 -322 72 -348 93 -41 33 77 31 208
-4z m590 -210 c70 -33 110 -64 110 -87 0 -26 -117 13 -192 65 -82 56 -23 72
82 22z m-8975 -63 c174 -41 260 -121 209 -194 -9 -13 -14 -25 -12 -28 3 -2 27
6 54 17 43 18 55 20 92 10 56 -16 107 -62 128 -118 15 -38 16 -52 6 -89 -19
-70 -16 -88 11 -79 60 18 67 18 67 -4 0 -12 -14 -60 -31 -109 -38 -107 -42
-186 -12 -253 11 -25 66 -114 121 -197 120 -180 174 -278 242 -437 256 -597
369 -1369 259 -1775 -41 -150 -101 -233 -204 -280 -127 -58 -339 -101 -591
-120 -251 -19 -401 3 -599 86 l-37 15 124 127 c211 217 317 368 398 569 68
171 84 254 85 443 0 191 -14 257 -91 420 -77 162 -76 188 1 361 56 123 85 240
85 339 0 130 19 291 50 418 35 143 36 152 14 152 -43 0 -194 -111 -194 -141 1
-8 15 -23 33 -34 38 -24 56 -67 38 -89 -10 -12 -26 -14 -71 -9 -51 5 -64 2
-110 -23 -50 -27 -118 -93 -190 -184 -31 -39 -22 -34 74 44 112 91 182 131
210 120 26 -10 30 -51 16 -149 -15 -112 -10 -135 30 -135 35 0 50 -23 50 -78
0 -53 -26 -77 -66 -61 -41 15 -94 4 -177 -36 -41 -20 -87 -35 -107 -35 -73 0
-241 103 -517 317 -229 177 -360 318 -404 433 -17 44 -20 71 -17 131 4 65 11
89 47 162 71 143 170 229 300 263 72 18 101 15 228 -21 96 -28 139 -26 171 8
58 62 41 113 -47 136 -30 7 -51 18 -51 26 0 25 80 74 145 88 45 10 184 6 240
-7z m9041 -137 c80 -24 224 -98 333 -171 42 -29 191 -136 331 -238 644 -471
913 -656 1059 -728 l94 -47 121 3 c116 2 123 1 184 -28 122 -58 210 -184 247
-352 22 -104 63 -183 135 -260 91 -96 131 -187 189 -433 29 -120 95 -256 163
-336 76 -90 105 -136 119 -192 33 -136 -106 -250 -441 -361 -429 -143 -1336
-335 -1985 -421 -599 -79 -975 -92 -1300 -44 -228 34 -301 24 -537 -75 -127
-53 -212 -69 -338 -63 -124 6 -173 20 -340 94 -159 71 -218 78 -336 40 -185
-60 -307 -71 -1216 -107 -239 -10 -483 -31 -522 -46 -9 -3 -21 -15 -27 -26
-10 -18 -17 -20 -63 -13 -89 14 -133 10 -175 -18 -56 -37 -186 -80 -354 -116
-82 -18 -150 -31 -152 -29 -1 2 31 54 71 117 85 131 131 241 144 345 14 113
39 159 103 193 44 22 60 72 52 159 -10 101 -4 118 43 132 42 13 213 124 402
261 63 46 156 104 205 128 l90 45 89 -6 c118 -7 224 13 373 68 148 55 292 90
452 111 156 20 309 60 485 125 229 85 272 94 426 95 74 0 156 -3 183 -7 26 -4
47 -4 47 0 0 4 -20 18 -45 30 -82 39 -59 62 121 121 135 44 333 94 444 111 77
12 192 10 223 -4 22 -11 23 12 0 52 -20 35 -12 62 20 62 13 0 69 -7 126 -15
56 -9 106 -13 112 -9 5 3 7 14 4 24 -21 67 124 200 219 200 44 0 68 -23 60
-57 -7 -25 -6 -26 27 -19 57 11 155 64 189 103 26 29 31 42 26 66 -6 27 -4 29
17 21 87 -31 357 55 462 147 73 64 31 66 -105 3 -158 -72 -185 -56 -176 101 2
50 16 158 29 240 48 285 46 358 -6 348 -34 -7 -39 15 -22 98 21 99 20 128 -4
122 -24 -6 -56 36 -115 152 -51 102 -96 230 -96 272 0 58 29 65 136 32z
m-10340 -64 c11 -18 19 -62 25 -145 9 -133 30 -199 76 -237 15 -12 24 -25 21
-29 -4 -3 -47 -10 -95 -15 -141 -14 -204 -51 -341 -197 -121 -130 -152 -153
-177 -132 -48 40 19 275 135 473 50 83 227 268 281 291 47 21 56 20 75 -9z
m12049 -155 c288 -46 326 -60 439 -160 83 -74 130 -105 184 -119 110 -30 374
-263 487 -431 71 -106 33 -186 -96 -203 -104 -14 -396 39 -608 109 -458 152
-901 506 -901 721 0 134 86 148 495 83z m-11928 -381 c45 -22 81 -62 126 -141
63 -110 251 -296 492 -487 66 -52 174 -138 240 -190 140 -112 318 -287 393
-386 73 -96 149 -253 168 -345 23 -107 14 -259 -20 -368 -73 -226 -186 -405
-475 -750 -266 -317 -383 -484 -492 -697 -76 -150 -104 -249 -94 -324 6 -44 3
-57 -26 -112 -61 -114 -229 -272 -347 -327 -105 -48 -241 -24 -322 57 -100
101 -95 262 15 451 57 98 85 161 128 295 92 281 155 629 176 963 30 475 -89
1309 -274 1918 -59 197 -77 324 -52 373 37 73 267 117 364 70z m-311 -730 c42
-82 55 -180 30 -215 -12 -15 -18 -17 -33 -8 -31 19 -43 56 -43 134 0 120 15
148 46 89z m4855 0 c21 -39 -6 -150 -32 -133 -10 6 -12 137 -2 147 11 12 22 8
34 -14z m-2173 -282 c132 -197 227 -355 218 -364 -3 -4 -12 0 -19 9 -188 234
-335 454 -382 573 l-16 40 46 -48 c25 -27 94 -122 153 -210z m-1024 216 c-21
-89 -77 -163 -123 -163 -36 0 -51 17 -51 56 0 43 42 84 112 112 69 27 70 27
62 -5z m3146 -453 c33 -199 101 -365 201 -489 28 -35 49 -65 46 -67 -7 -7
-182 179 -217 231 -77 113 -93 199 -83 448 l7 172 14 -90 c7 -49 21 -142 32
-205z m8334 175 c162 -86 310 -199 402 -306 99 -117 163 -273 150 -366 -14
-105 -90 -183 -177 -183 -106 0 -178 114 -239 378 -36 156 -95 281 -184 387
-55 65 -76 96 -76 112 0 24 57 14 124 -22z m-7666 -935 c149 -36 200 -56 184
-72 -17 -17 -168 -4 -234 20 -61 21 -118 57 -118 73 0 15 40 10 168 -21z m557
-110 c12 -19 -49 -32 -132 -27 -84 5 -108 12 -98 28 8 12 222 12 230 -1z
m8415 -56 c0 -20 -45 -74 -73 -88 -62 -29 -167 -33 -167 -7 0 5 46 29 103 54
96 43 137 55 137 41z m-350 -134 c13 -9 12 -12 -4 -25 -23 -18 -71 -19 -115
-4 -31 11 -37 19 -24 32 10 11 126 8 143 -3z m-8217 -288 c-17 -15 -94 -61
-169 -102 -182 -99 -379 -230 -486 -325 -49 -42 -88 -73 -88 -69 0 12 142 167
203 221 85 74 202 151 327 214 111 55 231 102 240 92 3 -3 -9 -17 -27 -31z
m-808 -502 c10 -16 -25 -59 -99 -119 -95 -77 -103 -81 -80 -42 28 47 143 171
159 171 8 0 17 -4 20 -10z m-195 -272 c0 -7 -44 -55 -97 -108 -145 -141 -343
-323 -343 -315 0 10 346 381 383 410 35 27 57 32 57 13z m-4830 -1358 c92 -92
284 -229 403 -286 157 -75 235 -73 1206 31 169 18 161 17 161 6 0 -45 -601
-134 -995 -148 -222 -7 -298 4 -403 58 -186 96 -493 356 -521 441 -19 58 -3
69 33 23 17 -22 69 -78 116 -125z m2286 -428 c65 -28 212 -93 326 -146 456
-210 521 -221 1603 -261 237 -9 444 -20 460 -24 28 -7 -885 -21 -1353 -21
l-205 0 -481 239 c-265 132 -492 249 -506 260 l-25 21 31 -9 c16 -5 84 -31
150 -59z m3064 -472 c212 -12 447 -36 550 -56 41 -7 76 -14 78 -14 1 0 2 -5 2
-11 0 -9 -43 -10 -157 -5 -249 11 -615 35 -768 51 -77 8 -143 15 -147 15 -5 0
-8 4 -8 9 0 21 188 26 450 11z m1165 -154 c0 -17 -69 -28 -137 -23 -72 6 -115
21 -88 31 43 15 225 9 225 -8z m-4746 -395 c24 -15 -32 -26 -134 -26 -49 0
-103 4 -119 8 -56 16 -6 27 119 27 66 0 127 -4 134 -9z m306 -81 c213 -47 279
-90 140 -90 -94 0 -230 45 -269 89 -19 21 -19 21 10 21 16 0 70 -9 119 -20z
m401 -116 c113 -46 264 -135 264 -154 0 -21 -57 -8 -146 34 -100 47 -204 112
-204 127 0 14 44 11 86 -7z m521 -199 c102 -20 273 -73 273 -85 0 -16 -134
-12 -213 6 -88 20 -187 62 -187 80 0 18 29 18 127 -1z"/>
<path d="M3512 9813 c-16 -6 -72 -120 -72 -146 0 -17 2 -17 31 3 75 54 108
170 41 143z"/>
<path d="M2775 9618 c29 -99 80 -164 104 -134 17 20 -8 74 -54 119 -44 42 -59
47 -50 15z"/>
<path d="M2590 9365 c-27 -32 43 -130 78 -109 26 17 28 78 3 103 -25 25 -63
27 -81 6z"/>
<path d="M2213 8912 c-55 -44 -94 -105 -77 -122 38 -38 171 90 150 145 -8 22
-19 19 -73 -23z"/>
<path d="M2211 8673 c-46 -56 -55 -139 -14 -131 20 4 59 78 69 131 8 50 -14
50 -55 0z"/>
<path d="M1501 8610 c-95 -44 -201 -144 -201 -192 0 -26 15 -23 95 17 39 19
92 39 120 44 83 15 133 93 87 134 -24 22 -47 21 -101 -3z"/>
<path d="M1933 8589 c-62 -31 -116 -96 -173 -208 -70 -141 -67 -153 22 -72 65
59 107 133 115 201 3 27 10 50 14 50 5 0 25 -36 45 -80 21 -44 42 -79 48 -77
18 5 48 76 54 123 9 80 -41 105 -125 63z"/>
<path d="M2463 8524 c-9 -23 26 -91 64 -124 18 -16 51 -34 72 -41 34 -10 44
-9 66 5 76 50 -32 175 -153 176 -29 0 -44 -5 -49 -16z"/>
<path d="M1896 7774 c-10 -26 60 -102 147 -158 26 -18 27 -18 27 1 0 10 -11
42 -25 70 -39 77 -132 132 -149 87z"/>
<path d="M11591 7944 c-47 -33 -71 -144 -31 -144 24 0 82 57 99 99 23 53 -18
80 -68 45z"/>
<path d="M12676 6834 c-22 -58 29 -154 81 -154 29 0 6 88 -37 143 -25 31 -35
34 -44 11z"/>
<path d="M13480 6780 c-22 -14 -2 -40 51 -66 67 -34 98 -39 105 -20 9 22 -21
54 -71 77 -45 21 -63 23 -85 9z"/>
<path d="M9783 6773 c-37 -14 17 -43 81 -43 49 0 82 24 55 41 -15 9 -115 11
-136 2z"/>
<path d="M13734 6639 c-10 -17 161 -179 190 -179 11 0 -54 87 -106 141 -46 48
-70 59 -84 38z"/>
<path d="M7458 6043 c-47 -12 5 -43 72 -43 47 0 70 8 70 25 0 21 -87 33 -142
18z"/>
<path d="M11397 6020 c-33 -39 -42 -67 -27 -85 29 -35 100 5 100 55 0 67 -32
80 -73 30z"/>
<path d="M10960 6038 c0 -13 105 -231 134 -276 47 -75 65 -18 21 69 -39 78
-153 230 -155 207z"/>
<path d="M12283 5983 c-25 -9 -12 -33 31 -58 89 -52 142 -53 119 -2 -19 40
-110 77 -150 60z"/>
<path d="M9297 5669 c-9 -34 -7 -190 3 -214 7 -19 9 -18 19 8 16 41 14 189 -2
212 -13 17 -14 17 -20 -6z"/>
<path d="M8647 5573 c-13 -13 -7 -21 24 -32 44 -15 92 -14 115 4 16 13 17 16
4 25 -17 11 -133 14 -143 3z"/>
<path d="M1365 6178 c-46 -103 -70 -295 -37 -306 32 -10 96 203 90 301 -4 69
-23 71 -53 5z"/>
<path d="M943 4878 c-31 -35 -43 -63 -43 -102 0 -51 27 -47 79 9 34 37 42 52
39 78 -2 26 -8 33 -28 35 -17 2 -33 -5 -47 -20z"/>
<path d="M1106 4824 c-3 -9 -6 -37 -6 -64 0 -79 17 -102 38 -55 22 48 13 135
-13 135 -7 0 -16 -7 -19 -16z"/>
<path d="M11724 2355 c-21 -32 -69 -271 -90 -448 -24 -200 -11 -231 108 -263
106 -28 174 -12 199 48 58 137 -87 688 -181 688 -11 0 -27 -11 -36 -25z"/>
<path d="M12224 2265 c-27 -42 -43 -110 -79 -350 -43 -284 -44 -327 -10 -360
23 -23 31 -25 130 -25 206 0 223 28 165 287 -69 308 -130 473 -175 473 -8 0
-22 -11 -31 -25z"/>
<path d="M10887 2173 c-4 -3 -7 -62 -7 -129 0 -176 30 -251 110 -274 27 -8 35
-6 57 16 24 24 25 31 20 91 -6 77 -54 180 -118 256 -40 47 -50 53 -62 40z"/>
<path d="M12646 2078 c-27 -43 -40 -141 -40 -298 -1 -138 1 -159 20 -190 33
-57 97 -75 173 -49 51 18 66 58 65 174 0 82 -5 114 -28 180 -56 165 -146 251
-190 183z"/>
<path d="M13151 2022 c-5 -10 -14 -79 -20 -153 -6 -74 -19 -168 -30 -209 -18
-66 -18 -78 -6 -97 18 -27 66 -37 141 -31 76 6 90 22 87 101 -4 120 -72 336
-122 386 -26 26 -37 26 -50 3z"/>
<path d="M14120 1768 c-20 -69 -35 -144 -38 -193 -4 -71 -2 -82 16 -98 48 -44
92 15 92 123 -1 65 -24 268 -33 276 -2 2 -19 -46 -37 -108z"/>
<path d="M13832 1644 c-47 -33 -79 -138 -49 -162 25 -20 57 -23 90 -7 55 26
73 94 42 155 -18 34 -48 39 -83 14z"/>
<path d="M14324 1633 c-28 -30 -48 -87 -42 -123 2 -14 15 -31 31 -40 27 -14
29 -14 53 13 17 20 24 40 24 68 0 38 -23 109 -35 109 -3 0 -17 -12 -31 -27z"/>
</g>
</svg>
