<?xml version="1.0" standalone="no"?>
<!DOCTYPE svg PUBLIC "-//W3C//DTD SVG 20010904//EN"
 "http://www.w3.org/TR/2001/REC-SVG-20010904/DTD/svg10.dtd">
<svg version="1.0" xmlns="http://www.w3.org/2000/svg"
 width="4508.000000pt" height="2290.000000pt" viewBox="0 0 4508.000000 2290.000000"
 preserveAspectRatio="xMidYMid meet">
<metadata>
Created by potrace 1.16, written by Peter Selinger 2001-2019
</metadata>
<g transform="translate(0.000000,2290.000000) scale(0.100000,-0.100000)"
fill="#000000" stroke="none">
<path d="M41403 22470 l-1742 -429 -1741 -931 -1741 -930 -2240 -1660 -2239
-1660 -1760 -1090 -1760 -1090 -1640 -630 -1640 -630 -2118 -405 c-1563 -299
-2963 -558 -5350 -990 l-3232 -585 -1548 -479 c-851 -263 -2003 -614 -2560
-780 l-1013 -301 -529 0 -529 0 -448 169 -448 168 -140 133 c-77 73 -397 375
-712 672 l-572 538 -660 210 -661 210 -592 -50 c-326 -27 -772 -63 -991 -80
l-398 -30 -684 -402 -685 -403 -495 -495 -494 -495 -16 -155 c-8 -85 -18 -176
-21 -203 l-6 -47 169 0 c92 0 220 5 283 10 63 5 116 8 117 6 2 -2 -41 -36 -97
-76 -55 -40 -104 -80 -109 -89 -5 -9 -23 -70 -40 -136 -18 -66 -34 -128 -37
-137 -5 -17 10 -18 226 -18 l231 0 118 70 118 69 501 70 502 71 570 -61 571
-60 769 -189 769 -190 761 -470 761 -471 961 -430 961 -430 699 -140 700 -140
409 -320 409 -319 1405 -140 c772 -77 1411 -140 1419 -140 24 0 74 -103 150
-309 41 -108 88 -234 106 -281 65 -172 78 -223 90 -363 11 -111 17 -145 35
-170 11 -18 32 -51 45 -75 l24 -42 -23 -53 c-12 -28 -30 -70 -38 -92 l-15 -40
55 -92 c79 -133 81 -157 22 -376 -26 -94 -51 -185 -56 -202 -14 -44 -1 -25
104 150 93 156 95 162 102 239 10 110 17 129 46 136 13 4 23 13 23 22 -1 8 -4
94 -8 189 l-7 174 64 -155 c40 -99 93 -261 146 -450 82 -289 85 -296 125 -335
37 -36 46 -58 117 -268 43 -126 80 -231 83 -235 3 -3 4 14 1 39 -3 24 -14 136
-25 249 -18 189 -19 208 -4 246 16 41 15 42 -45 247 -34 112 -93 298 -131 413
-39 114 -69 211 -68 216 5 13 36 -37 168 -266 98 -169 121 -203 156 -225 30
-19 52 -46 79 -96 60 -110 146 -259 155 -269 5 -5 3 18 -5 50 -7 32 -28 127
-46 209 -34 161 -25 139 -260 593 -21 40 -73 129 -116 198 -43 68 -108 173
-145 232 -37 59 -65 108 -63 111 2 2 50 -24 107 -58 l102 -62 18 23 c20 26 28
15 -123 173 -223 234 -203 206 -249 350 -22 72 -45 141 -51 154 -5 13 -7 26
-4 29 3 3 177 -11 388 -32 l382 -37 823 26 c452 14 859 25 905 25 l82 0 487
-565 487 -565 221 -540 220 -541 50 -320 50 -320 -61 -80 -60 -79 11 -80 11
-80 -363 -422 -363 -422 -455 -348 c-250 -191 -460 -354 -467 -361 -10 -10 -9
-35 7 -130 l20 -117 -131 -187 c-72 -104 -137 -194 -143 -201 -7 -7 -141 -44
-297 -82 -313 -75 -409 -87 -784 -99 l-190 -6 -145 -81 -145 -81 -42 -74 c-24
-41 -43 -77 -43 -81 0 -5 33 -8 74 -8 64 0 78 3 104 24 37 32 295 99 342 90
22 -5 29 -11 25 -21 -3 -8 9 -33 26 -54 l31 -39 721 1 722 0 295 257 c293 255
296 258 378 380 l83 123 -20 100 -21 100 248 317 248 317 440 383 c326 284
485 415 617 509 99 69 183 136 187 147 5 12 25 98 45 193 l36 171 -141 292
-140 291 -80 490 -80 489 100 818 c62 505 98 832 94 857 l-6 41 412 333 c226
183 413 331 415 329 1 -1 84 -129 184 -283 100 -154 189 -283 199 -287 9 -4
258 -76 552 -159 l535 -151 735 45 735 45 695 277 695 276 543 69 543 68 202
-83 c119 -49 259 -98 342 -119 77 -21 145 -42 151 -49 7 -7 145 -191 308 -411
l297 -398 211 -528 211 -528 126 -12 126 -12 112 41 112 42 408 -57 408 -56
315 -207 c547 -360 500 -325 550 -408 39 -64 58 -83 155 -153 l110 -80 213 0
214 0 59 52 c33 28 56 55 52 59 -5 3 -96 25 -203 48 -285 62 -260 52 -319 128
l-51 67 5 81 c3 44 8 103 10 132 l5 51 -63 40 c-34 22 -225 150 -425 284
l-362 245 -167 64 -167 63 41 12 c41 12 78 11 808 -30 39 -2 75 0 80 4 6 4 98
18 205 30 107 12 196 23 197 24 14 12 231 291 228 294 -2 3 -73 -21 -158 -52
l-154 -56 -126 0 -127 0 -47 64 c-42 57 -53 65 -88 70 -149 21 -932 76 -1149
81 l-259 5 -75 67 -74 67 -132 10 -132 11 -78 70 c-64 57 -100 104 -200 255
-271 412 -305 470 -530 906 l-231 446 -205 126 c-113 69 -212 125 -220 124 -8
0 -152 -40 -320 -88 l-304 -87 -496 30 -495 30 -592 323 -592 322 -298 68
c-164 37 -342 77 -395 90 l-98 22 0 71 1 72 267 171 c199 127 700 414 1961
1123 l1693 952 1829 1240 1830 1239 1507 1328 c829 730 2471 2161 3649 3179
l2143 1853 1680 990 1680 990 1669 509 1670 510 798 45 c439 25 835 48 881 52
l83 6 -92 99 -91 99 -877 -1 -876 -1 -1742 -428z"/>
</g>
</svg>
