<?xml version="1.0" standalone="no"?>
<!DOCTYPE svg PUBLIC "-//W3C//DTD SVG 20010904//EN"
 "http://www.w3.org/TR/2001/REC-SVG-20010904/DTD/svg10.dtd">
<svg version="1.0" xmlns="http://www.w3.org/2000/svg"
 width="1536.000000pt" height="1064.000000pt" viewBox="0 0 1536.000000 1064.000000"
 preserveAspectRatio="xMidYMid meet">
<metadata>
Created by potrace 1.16, written by Peter Selinger 2001-2019
</metadata>
<g transform="translate(0.000000,1064.000000) scale(0.100000,-0.100000)"
fill="#000000" stroke="none">
<path d="M15148 10626 c-21 -8 -68 -31 -105 -53 -38 -21 -79 -44 -93 -50 -14
-6 -77 -59 -140 -118 -269 -250 -527 -468 -598 -504 -20 -11 -73 -49 -117 -86
-313 -261 -1732 -1323 -1995 -1494 -52 -33 -144 -95 -205 -137 -615 -424
-1690 -1125 -2110 -1374 -217 -129 -634 -330 -716 -346 -38 -7 -92 -25 -121
-39 -29 -14 -89 -37 -133 -49 -44 -13 -127 -40 -184 -61 -90 -32 -122 -38
-235 -46 -72 -5 -198 -15 -281 -23 -294 -29 -529 -38 -810 -33 -154 2 -309 10
-345 16 -157 27 -186 34 -221 52 -20 10 -46 29 -56 42 -12 16 -34 26 -64 31
-26 4 -106 37 -183 76 -76 39 -144 70 -151 70 -8 0 -15 10 -17 22 -3 25 -5 26
-162 98 -63 29 -122 64 -141 83 -18 18 -65 50 -104 71 -40 21 -87 51 -106 67
-18 16 -40 29 -49 29 -32 0 -84 28 -91 49 -5 16 -15 21 -44 21 -37 0 -71 23
-71 48 0 6 -17 16 -37 23 -21 6 -177 71 -348 144 -170 73 -357 149 -415 168
-114 39 -254 77 -281 77 -10 0 -21 9 -24 20 -3 11 -14 20 -23 20 -9 0 -102 11
-207 25 -231 30 -292 31 -560 5 -369 -36 -545 -49 -762 -60 -204 -10 -213 -9
-245 10 -18 11 -57 25 -88 31 -57 13 -90 33 -90 56 0 7 -8 13 -18 13 -33 0
-99 57 -155 133 -30 41 -67 83 -81 94 -30 24 -31 30 -10 54 14 16 11 21 -45
65 -45 37 -57 52 -49 61 7 9 7 26 -2 58 -10 36 -10 61 0 125 16 105 9 153 -29
200 l-31 38 40 7 c38 6 53 26 30 40 -5 3 -10 15 -10 26 0 20 -15 26 -25 9 -12
-19 -25 -10 -25 16 0 15 -5 44 -12 65 -9 31 -16 39 -34 39 -13 0 -27 -7 -32
-17 -15 -25 -40 -8 -48 32 -4 22 -16 42 -30 52 -18 11 -24 24 -24 51 0 28 -3
33 -12 24 -19 -19 -56 -14 -104 14 -29 17 -43 32 -40 41 4 10 1 11 -14 3 -10
-5 -22 -15 -25 -20 -7 -11 -156 -14 -193 -3 -16 4 -22 11 -19 22 3 13 -4 17
-37 17 -23 1 -71 5 -107 9 -55 6 -73 4 -111 -13 -27 -12 -49 -29 -53 -41 -3
-12 -11 -19 -16 -16 -5 4 -41 3 -79 -1 -65 -6 -70 -8 -70 -31 0 -24 -3 -27
-55 -38 -17 -4 -48 -26 -71 -50 -36 -39 -42 -42 -56 -29 -13 13 -24 9 -97 -46
-90 -67 -133 -123 -151 -200 -12 -48 -12 -49 -35 -34 l-22 14 -5 -113 c-4 -85
-10 -125 -26 -160 l-21 -48 21 -21 c31 -31 20 -78 -55 -231 -55 -112 -74 -141
-122 -185 -31 -29 -74 -57 -96 -64 -52 -15 -145 -114 -155 -162 -14 -80 25
-160 109 -222 68 -51 65 -50 209 -18 63 14 72 20 154 100 48 46 91 84 96 84 5
0 35 24 66 54 74 71 158 121 253 151 78 24 257 55 324 55 32 0 36 -2 25 -15
-11 -13 -7 -15 29 -15 55 0 89 -19 144 -80 48 -53 57 -59 57 -35 0 8 5 15 11
15 7 0 9 -12 7 -31 -3 -20 0 -33 9 -36 15 -6 17 -45 3 -59 -7 -7 -4 -17 11
-30 16 -14 23 -15 26 -6 6 16 33 16 33 -1 0 -7 -4 -17 -10 -23 -6 -6 -2 -24
11 -52 17 -34 24 -40 35 -31 8 6 22 8 31 4 17 -6 17 -7 1 -16 -10 -6 -18 -15
-18 -21 0 -6 11 -3 24 6 30 19 47 3 23 -22 -15 -14 -11 -22 44 -84 l61 -68 18
22 c15 19 20 20 34 9 12 -10 13 -18 5 -32 -8 -15 -6 -19 7 -19 11 0 14 -5 10
-16 -19 -50 -18 -64 4 -64 17 0 21 -4 15 -17 -10 -23 -9 -28 6 -90 11 -42 17
-52 31 -48 18 7 34 -10 18 -20 -18 -11 -11 -35 10 -35 21 0 27 -15 10 -25 -5
-3 -10 -17 -10 -31 0 -19 5 -24 27 -24 25 0 25 -1 10 -18 -25 -28 -21 -50 9
-54 23 -3 26 -8 29 -49 4 -74 61 -160 128 -195 28 -15 36 -39 16 -46 -20 -7
13 -48 38 -48 12 0 30 -11 41 -25 11 -14 25 -25 31 -25 15 0 14 -23 -2 -40
-10 -12 -9 -12 7 0 16 13 20 12 35 -6 9 -11 24 -23 34 -27 21 -8 22 -43 1 -55
-13 -7 -5 -16 42 -44 33 -19 73 -40 90 -47 17 -7 41 -25 53 -42 15 -20 33 -31
60 -35 21 -3 43 -9 49 -13 6 -3 54 -78 106 -166 53 -88 104 -169 115 -180 10
-11 24 -30 30 -42 14 -28 13 -197 -2 -293 l-12 -75 -45 -5 c-56 -7 -80 -20
-152 -82 -77 -67 -155 -111 -267 -154 -124 -48 -305 -145 -354 -191 -48 -44
-57 -73 -57 -189 0 -121 21 -186 124 -388 106 -208 118 -253 124 -481 2 -99 8
-187 13 -196 5 -9 29 -25 54 -35 82 -34 86 -112 11 -239 -25 -43 -44 -81 -41
-83 15 -15 148 79 172 122 15 27 53 12 53 -21 0 -14 7 -52 15 -85 9 -33 15
-67 13 -76 -3 -23 50 -104 65 -100 7 2 28 35 47 74 19 39 50 88 69 109 18 21
40 54 48 73 14 34 11 50 -25 152 -5 13 -4 13 12 0 17 -13 21 -12 43 15 22 25
25 36 20 79 -3 38 -10 55 -31 71 -27 21 -33 40 -17 50 17 10 138 -118 146
-153 3 -18 12 -32 18 -32 7 0 26 -14 44 -30 30 -27 31 -31 21 -66 -7 -28 -7
-52 2 -90 15 -62 9 -74 -35 -74 -41 0 -53 -15 -24 -30 35 -19 86 -3 129 42 40
40 40 40 49 16 5 -13 14 -57 20 -98 14 -88 45 -161 91 -213 38 -43 69 -61 123
-71 33 -6 37 -10 37 -37 0 -16 -9 -47 -20 -69 -25 -50 -25 -82 0 -105 25 -23
25 -37 -1 -61 -15 -13 -34 -18 -66 -17 -43 1 -44 1 -28 -17 41 -45 139 -51
214 -12 l39 21 6 -24 c17 -69 323 -428 792 -931 88 -93 206 -223 262 -287 57
-64 107 -117 113 -117 5 0 12 -1 17 -2 4 -2 9 17 12 41 3 25 10 46 16 48 6 2
35 -21 64 -52 51 -52 55 -54 72 -38 43 39 115 5 182 -85 25 -35 45 -51 67 -56
22 -4 56 -31 113 -90 45 -48 93 -88 107 -91 15 -4 42 -25 59 -47 46 -56 134
-110 233 -143 67 -21 89 -25 105 -16 36 19 53 13 108 -39 35 -33 61 -50 78
-50 15 0 26 -6 26 -13 0 -26 38 -48 100 -58 61 -10 64 -9 91 17 60 58 60 125
-1 223 -16 25 -27 47 -25 49 2 2 19 -7 37 -21 18 -13 103 -64 188 -112 215
-122 273 -162 264 -183 -10 -22 -17 -92 -12 -123 3 -21 7 -18 37 29 62 97 103
110 131 42 11 -25 11 -41 0 -85 -7 -29 -10 -65 -6 -81 l7 -27 52 50 c86 84
122 98 254 98 109 0 112 -1 141 -28 43 -41 69 -33 114 33 93 135 117 162 176
206 79 58 102 101 136 259 22 96 32 124 52 143 29 26 44 21 44 -13 0 -40 25
-45 176 -35 77 5 153 10 169 11 17 2 64 -4 105 -11 51 -9 117 -11 208 -6 117
5 139 4 190 -14 67 -24 177 -27 227 -6 29 12 34 12 39 0 8 -20 50 -17 97 7 55
28 80 22 102 -24 22 -44 34 -46 62 -12 21 27 7 24 288 55 119 13 163 29 178
67 11 29 4 39 -47 69 -14 8 21 12 146 18 392 16 635 65 648 129 5 22 -57 77
-85 77 -13 0 -23 5 -23 11 0 21 75 40 266 65 108 14 220 33 248 42 64 21 72
46 22 67 -53 23 -46 42 22 55 191 38 372 102 426 151 29 26 30 29 15 45 -10 9
-38 19 -63 21 -25 3 -46 8 -46 12 0 3 21 19 48 36 96 60 202 179 202 227 0 24
-21 23 -27 -2 -6 -24 -23 -27 -23 -3 0 9 18 32 41 52 105 92 109 98 109 134 0
51 -44 61 -146 31 -58 -17 -105 -16 -111 2 -2 6 40 42 93 80 57 41 112 89 135
119 37 49 65 125 56 150 -11 27 -67 25 -161 -6 -56 -18 -109 -29 -131 -27
l-36 3 77 55 c104 74 164 134 164 162 -1 43 -43 101 -81 111 -32 9 -291 -6
-348 -20 -22 -5 -23 -4 -17 23 4 16 21 56 38 89 66 128 77 151 83 188 4 28 3
37 -8 37 -8 0 -17 -7 -21 -15 -8 -23 -26 -18 -26 8 0 17 -11 26 -45 41 -55 22
-77 17 -138 -29 -41 -32 -77 -45 -77 -29 0 3 11 19 25 36 14 16 25 36 25 44 0
30 -70 47 -203 52 -111 4 -128 7 -125 21 2 9 20 24 41 34 32 16 37 23 37 53 0
67 -91 81 -260 40 l-95 -23 -3 28 c-4 31 17 77 59 130 16 20 29 40 29 43 0 18
-122 3 -209 -25 -105 -34 -201 -49 -201 -31 0 6 19 21 43 34 32 18 45 33 57
66 14 41 14 44 -5 59 -42 31 -275 -7 -500 -82 -60 -20 -116 -39 -122 -42 -22
-8 -15 40 11 78 58 85 39 116 -62 103 -31 -4 -68 -15 -81 -25 -13 -11 -53 -28
-90 -39 -36 -11 -72 -24 -80 -29 -10 -7 -22 -1 -41 19 -16 17 -41 30 -67 34
l-41 7 -6 62 -7 62 -70 45 -69 45 7 40 c4 22 7 63 7 90 l1 50 -63 3 -62 3 26
34 c19 25 25 43 22 71 -3 37 -4 38 -63 51 -33 8 -88 15 -123 16 -58 2 -62 4
-57 22 3 11 8 52 12 90 7 85 -4 100 -58 85 -38 -11 -89 -13 -89 -4 0 4 12 29
27 56 l27 50 -24 20 c-23 19 -34 20 -126 14 -56 -3 -109 -8 -118 -12 -23 -9
-21 27 4 76 l20 39 -25 17 c-33 22 -97 29 -125 14 -16 -9 -25 -9 -33 -1 -6 6
-19 11 -30 11 -17 0 -17 2 -3 22 9 12 16 37 16 55 l0 32 -80 7 -79 7 15 29
c18 35 10 67 -19 72 -12 2 -46 9 -75 15 -77 16 -90 14 -118 -16 -28 -30 -39
-25 -39 20 0 30 -3 33 -50 45 -27 7 -106 15 -175 19 l-125 6 -15 31 c-21 44
-58 45 -169 1 -50 -19 -112 -36 -138 -38 l-48 -2 -3 35 c-5 44 -14 50 -87 50
-61 0 -103 -17 -152 -62 l-21 -20 -14 29 c-12 24 -19 28 -53 26 -24 -1 -85
-22 -150 -52 -184 -85 -273 -92 -301 -26 -22 53 -19 58 26 51 22 -3 58 -9 80
-12 46 -8 51 4 19 44 l-21 27 30 3 c45 5 54 22 43 73 -6 24 -6 48 -2 52 4 4
41 25 82 45 52 26 82 49 104 79 21 29 38 42 60 45 17 1 29 8 28 14 -2 9 11 8
44 -2 49 -15 242 -19 352 -8 48 6 59 10 50 20 -6 7 -25 16 -42 19 -51 10 -67
16 -67 23 0 4 19 6 43 4 24 -2 94 6 157 17 63 12 138 21 167 21 29 0 53 4 53
10 0 5 19 22 42 37 36 22 56 27 121 29 61 2 90 8 133 29 29 14 54 30 54 35 0
4 48 11 108 15 198 13 455 44 463 57 8 12 140 43 241 57 32 4 65 15 76 24 10
9 42 21 72 27 30 6 80 24 110 40 30 15 107 44 170 63 139 42 184 60 224 91 23
17 48 24 94 28 49 3 68 10 90 30 15 14 49 31 76 37 57 14 141 55 236 116 95
61 157 91 221 108 30 8 74 28 97 44 23 17 78 46 124 64 53 22 98 49 126 75 27
26 61 47 90 55 31 8 61 27 89 56 30 29 52 43 71 43 42 1 107 35 133 69 14 19
32 31 46 31 41 0 106 41 170 106 35 35 67 64 73 64 6 0 37 25 70 55 33 30 68
55 77 55 10 0 25 13 35 29 10 18 48 48 99 77 47 27 89 59 98 75 10 18 27 30
47 34 21 3 45 21 73 55 23 28 53 53 66 56 14 3 46 26 72 51 133 123 133 123
166 123 72 0 252 74 302 124 13 13 40 27 61 31 43 8 104 62 104 93 0 15 15 26
56 43 75 30 386 186 399 200 47 50 69 66 130 95 39 19 91 38 116 42 27 5 63
22 85 40 22 17 55 35 74 38 19 4 51 17 70 29 19 13 73 35 119 51 52 18 97 40
117 59 17 17 52 36 77 42 25 7 89 39 142 72 54 33 110 63 125 66 20 4 31 16
42 44 16 39 31 46 137 67 18 3 50 21 70 38 20 18 70 50 111 72 41 21 102 64
135 95 33 31 71 60 84 64 36 11 102 75 121 117 9 21 37 56 63 78 25 22 49 50
52 60 4 11 15 20 26 20 35 0 114 47 157 94 23 25 42 49 42 54 0 4 17 16 38 25
50 22 108 80 138 139 13 26 32 52 42 57 10 5 78 71 152 146 74 74 153 148 175
163 54 36 145 128 145 146 0 8 7 19 16 24 21 12 57 200 52 270 -4 42 -11 59
-36 85 -28 30 -30 33 -15 52 27 35 63 119 63 148 0 18 -13 42 -41 72 -38 41
-46 45 -88 45 -25 -1 -63 -7 -83 -14z m-10121 -6730 c13 -25 56 -75 107 -122
48 -43 100 -100 117 -126 19 -30 42 -52 63 -59 23 -8 36 -23 50 -55 15 -38 57
-84 139 -151 15 -13 27 -33 27 -46 0 -31 29 -56 71 -63 26 -5 40 -16 59 -46
14 -22 62 -74 108 -115 45 -42 94 -96 109 -122 42 -73 43 -74 64 -55 18 16 19
16 19 -15 0 -25 9 -41 40 -68 49 -45 51 -70 5 -106 -19 -15 -42 -41 -50 -57
-9 -18 -23 -30 -35 -30 -11 0 -38 -16 -60 -36 l-40 -36 -34 21 c-37 23 -97 86
-116 121 l-12 22 31 -23 c25 -18 33 -20 45 -10 23 19 30 74 15 118 -16 50
-111 143 -217 212 -45 29 -82 57 -82 62 0 4 5 20 11 35 15 42 5 67 -58 134
-55 60 -101 91 -155 104 -15 3 -29 14 -33 25 -3 10 -28 28 -57 40 l-52 22 29
24 30 23 -20 38 c-34 65 -88 114 -123 114 -32 0 -32 1 -32 50 0 39 -4 53 -20
62 -17 11 -20 24 -20 79 0 72 3 79 35 79 15 0 27 -12 42 -44z m1037 -1141 c-6
-16 -44 -41 -44 -30 0 4 5 15 10 26 13 23 42 26 34 4z m234 -635 c15 0 26 8
32 24 11 31 31 26 96 -23 27 -21 80 -61 117 -89 74 -57 105 -64 138 -31 30 30
83 20 274 -55 88 -35 168 -66 177 -69 10 -4 19 -21 23 -44 36 -245 65 -320
110 -283 20 16 23 6 28 -102 3 -75 7 -91 27 -113 23 -24 23 -26 11 -112 -7
-48 -15 -91 -18 -96 -3 -5 -15 0 -27 11 -37 35 -75 35 -217 2 -158 -37 -169
-42 -169 -78 0 -21 -8 -31 -38 -47 -41 -22 -63 -72 -77 -173 -8 -60 9 -73 20
-14 11 63 46 105 123 145 49 26 72 33 74 25 3 -9 34 -14 94 -16 49 -2 95 -9
102 -14 23 -19 12 -74 -30 -159 -27 -54 -43 -102 -46 -135 -4 -46 -2 -53 22
-72 15 -11 32 -22 38 -24 15 -5 -69 -116 -118 -156 -33 -28 -42 -30 -147 -34
-126 -6 -195 -27 -259 -78 -32 -26 -39 -28 -44 -15 -3 8 1 25 9 38 13 21 12
30 -14 101 -56 153 -151 298 -265 405 -35 34 -61 61 -56 61 4 0 55 -16 112
-35 107 -36 230 -65 275 -65 21 0 25 5 25 28 0 61 -105 224 -222 348 l-69 72
26 52 c28 56 27 85 -3 75 -16 -4 -25 7 -51 60 -32 64 -126 172 -196 224 -28
22 -29 23 -10 34 11 6 35 25 53 43 40 40 42 75 5 104 -25 20 -36 22 -108 17
-88 -5 -105 -2 -105 19 0 11 11 13 53 8 60 -7 170 17 199 43 32 29 22 63 -32
114 -37 34 -58 66 -79 117 l-28 70 71 -54 c39 -30 81 -54 94 -54z"/>
</g>
</svg>
