<?xml version="1.0" standalone="no"?>
<!DOCTYPE svg PUBLIC "-//W3C//DTD SVG 20010904//EN"
 "http://www.w3.org/TR/2001/REC-SVG-20010904/DTD/svg10.dtd">
<svg version="1.0" xmlns="http://www.w3.org/2000/svg"
 width="1462.000000pt" height="1536.000000pt" viewBox="0 0 1462.000000 1536.000000"
 preserveAspectRatio="xMidYMid meet">
<metadata>
Created by potrace 1.16, written by Peter Selinger 2001-2019
</metadata>
<g transform="translate(0.000000,1536.000000) scale(0.100000,-0.100000)"
fill="#000000" stroke="none">
<path d="M10705 15353 c-560 -34 -771 -64 -1060 -147 -226 -65 -301 -81 -460
-97 -130 -13 -263 -8 -440 16 -179 23 -282 -1 -437 -106 -250 -169 -322 -402
-243 -783 27 -133 28 -144 17 -235 -15 -119 -50 -277 -108 -487 -100 -365
-162 -761 -209 -1324 -42 -515 -56 -603 -129 -816 -80 -235 -140 -358 -372
-760 -192 -335 -599 -974 -1254 -1969 -145 -220 -344 -526 -443 -680 -434
-674 -502 -772 -717 -1030 -379 -454 -676 -752 -1245 -1250 -247 -217 -324
-279 -888 -717 -575 -446 -787 -616 -969 -775 -290 -253 -636 -588 -946 -913
-436 -458 -536 -605 -562 -831 -15 -132 -40 -223 -111 -406 -71 -184 -116
-352 -125 -467 -9 -114 -12 -112 190 -108 97 2 186 -2 223 -9 70 -14 128 -5
235 37 l61 24 56 -42 c31 -23 78 -48 105 -55 66 -17 208 -16 381 2 81 9 236
15 367 15 235 0 302 8 418 48 101 35 574 247 885 397 520 250 768 335 1195
409 643 112 1226 134 1760 66 138 -17 152 -21 260 -72 154 -73 278 -145 643
-375 409 -258 555 -340 950 -537 359 -178 616 -326 907 -523 334 -227 709
-521 962 -754 l106 -99 2456 0 2456 0 0 2300 0 2301 -88 92 c-250 260 -651
703 -1052 1162 -573 654 -1031 1074 -1551 1422 -335 225 -555 329 -847 403
-185 46 -281 75 -442 135 -63 23 -149 50 -190 60 -41 9 -95 30 -120 45 -79 49
-112 55 -285 54 -135 -1 -201 -7 -420 -42 -376 -59 -434 -65 -590 -66 -157 -1
-209 10 -257 53 -28 25 -32 34 -31 80 1 89 56 184 171 298 112 111 231 206
329 263 84 50 167 77 548 179 373 99 434 119 670 219 250 105 318 126 425 126
75 1 93 -3 150 -30 84 -40 167 -110 256 -215 97 -116 130 -166 176 -273 63
-146 80 -175 122 -213 52 -48 141 -86 304 -133 164 -47 259 -63 321 -54 194
26 267 108 292 332 13 115 9 200 -36 752 -51 625 -59 788 -46 900 17 133 40
217 135 488 334 950 471 1490 517 2040 31 369 -24 913 -122 1207 -105 318
-378 703 -669 947 -109 92 -312 236 -417 297 -302 175 -708 253 -1168 224z"/>
</g>
</svg>
