<?xml version="1.0" standalone="no"?>
<!DOCTYPE svg PUBLIC "-//W3C//DTD SVG 20010904//EN"
 "http://www.w3.org/TR/2001/REC-SVG-20010904/DTD/svg10.dtd">
<svg version="1.0" xmlns="http://www.w3.org/2000/svg"
 width="1330.000000pt" height="1536.000000pt" viewBox="0 0 1330.000000 1536.000000"
 preserveAspectRatio="xMidYMid meet">
<metadata>
Created by potrace 1.16, written by Peter Selinger 2001-2019
</metadata>
<g transform="translate(0.000000,1536.000000) scale(0.100000,-0.100000)"
fill="#000000" stroke="none">
<path d="M6008 15194 c-3 -2 -38 -6 -79 -9 -95 -8 -112 -10 -124 -16 -6 -3
-25 -6 -43 -7 -18 -2 -50 -8 -72 -16 -22 -7 -41 -10 -42 -5 -2 5 -15 3 -29 -5
-22 -11 -119 -47 -139 -51 -5 -1 -51 -23 -160 -75 -25 -12 -63 -33 -85 -46
-22 -13 -50 -28 -62 -33 -53 -24 -172 -103 -215 -142 -140 -131 -178 -169
-178 -176 0 -5 -17 -17 -37 -28 -46 -24 -62 -43 -63 -71 0 -29 -17 -41 -65
-47 -43 -5 -91 17 -132 60 -12 13 -27 23 -33 23 -5 0 -10 6 -10 13 -1 16 -46
67 -60 67 -5 0 -10 5 -10 10 0 6 -3 9 -7 8 -9 -3 -101 40 -122 56 -8 6 -29 12
-47 12 -56 2 -83 -66 -55 -137 5 -15 7 -30 4 -33 -4 -3 -1 -6 5 -6 7 0 12 -9
12 -19 0 -11 5 -23 11 -26 6 -4 8 -13 5 -21 -3 -7 -1 -16 4 -19 18 -11 10 -61
-12 -82 -37 -34 -168 -91 -192 -85 -5 2 -12 -1 -15 -6 -3 -6 -15 -12 -26 -14
-11 -1 -22 -6 -25 -9 -3 -4 -45 -19 -95 -35 -95 -29 -199 -36 -343 -21 -58 6
-179 50 -193 70 -4 5 -11 7 -17 3 -15 -9 -61 43 -87 101 -24 51 -26 53 -64 53
-30 0 -51 -9 -88 -37 -56 -43 -121 -58 -153 -36 -12 8 -26 13 -33 10 -14 -5
-47 19 -62 47 -6 10 -15 19 -20 19 -6 0 -16 8 -24 19 -7 11 -19 17 -25 15 -7
-3 -21 8 -31 23 -10 15 -33 36 -49 46 -17 9 -56 38 -86 64 -30 25 -78 60 -106
78 -27 17 -61 43 -75 58 -13 14 -45 35 -71 46 -27 11 -48 23 -48 27 0 4 -26
20 -57 36 -31 17 -66 38 -77 48 -11 9 -23 18 -28 18 -4 1 -11 2 -15 4 -52 14
-63 18 -63 26 0 5 -9 9 -20 9 -12 0 -34 7 -49 15 -39 20 -73 26 -166 30 -86 4
-146 -10 -223 -52 -23 -13 -42 -20 -42 -16 0 4 -4 3 -8 -2 -9 -14 -92 -67 -92
-60 0 3 -41 -33 -90 -82 -70 -68 -87 -90 -78 -99 19 -17 95 -44 102 -36 10 9
79 2 93 -9 7 -6 13 -6 17 -1 7 11 56 22 56 13 0 -5 36 -10 112 -13 16 0 28 -5
28 -9 0 -5 7 -9 15 -9 8 0 15 -5 15 -11 0 -6 9 -9 20 -6 13 3 20 0 20 -10 0
-8 5 -11 10 -8 6 4 23 -7 37 -24 15 -17 33 -31 40 -31 7 0 13 -4 13 -8 0 -5
11 -15 25 -22 14 -7 25 -19 25 -27 0 -7 5 -13 11 -13 14 0 69 -56 69 -69 0 -5
4 -11 8 -13 4 -2 18 -18 31 -35 23 -35 21 -38 -29 -33 -14 1 -64 4 -112 7 -77
4 -89 2 -107 -16 -27 -27 -36 -68 -23 -104 10 -25 8 -32 -12 -50 -24 -24 -64
-57 -88 -72 -73 -48 -99 -68 -138 -103 -25 -23 -48 -42 -52 -42 -4 0 -20 -13
-35 -28 -51 -51 -97 -80 -143 -87 -56 -8 -96 -23 -135 -49 -42 -30 -47 -36
-81 -91 -40 -66 -45 -81 -50 -140 -8 -94 -10 -110 -17 -132 -4 -11 -14 -24
-22 -27 -8 -3 -15 -12 -15 -20 0 -15 -42 -66 -54 -66 -4 0 -14 -6 -22 -14 -7
-8 -44 -17 -81 -21 -38 -3 -81 -9 -97 -13 -64 -16 -118 -152 -82 -206 8 -13
21 -49 30 -81 8 -32 21 -62 28 -66 7 -5 10 -9 5 -9 -4 0 -1 -10 7 -22 21 -33
47 -201 40 -249 -4 -22 -8 -50 -9 -62 -1 -12 -4 -23 -5 -24 -1 -2 -3 -8 -4
-13 -2 -17 -56 -80 -69 -80 -7 0 -25 -8 -42 -17 -21 -11 -58 -17 -120 -18 -57
-1 -98 -7 -113 -16 -24 -15 -62 -87 -62 -117 0 -11 -5 -33 -11 -50 -8 -22 -8
-41 0 -64 6 -18 12 -56 14 -84 3 -36 12 -62 35 -94 18 -23 32 -53 32 -66 0
-13 4 -25 9 -29 6 -3 10 -13 9 -23 0 -9 5 -41 11 -71 6 -29 9 -63 6 -75 -3
-11 -7 -41 -10 -66 -2 -25 -9 -46 -15 -48 -5 -2 -10 -13 -10 -24 0 -18 -18
-66 -41 -110 -76 -146 -85 -195 -48 -273 12 -25 25 -48 30 -50 4 -3 6 -12 2
-20 -3 -8 0 -15 6 -15 6 0 11 -9 11 -20 0 -12 7 -35 17 -53 10 -20 17 -62 19
-112 1 -49 10 -103 23 -139 11 -32 19 -62 16 -66 -3 -4 2 -43 10 -87 8 -43 16
-90 17 -105 1 -15 6 -24 10 -22 4 3 8 -1 8 -9 0 -7 11 -24 25 -37 32 -30 32
-40 -3 -40 -16 0 -38 -8 -48 -17 -22 -21 -20 -63 3 -63 8 0 13 -5 11 -12 -5
-13 60 -75 74 -70 4 1 8 -3 8 -10 0 -6 3 -8 7 -5 3 4 13 -3 22 -15 15 -23 23
-58 11 -58 -3 0 -21 -29 -40 -65 -71 -133 -68 -126 -55 -158 7 -16 20 -34 29
-39 20 -11 100 -13 117 -2 18 11 74 18 189 25 30 1 70 9 89 16 18 8 36 12 39
9 3 -3 11 -1 19 5 7 7 32 12 56 12 23 0 45 4 48 10 4 5 12 6 19 2 11 -7 57 -7
177 -1 12 1 24 3 27 6 6 7 157 2 209 -6 20 -4 37 -11 37 -17 0 -6 3 -8 6 -4 4
3 13 0 21 -8 8 -8 20 -18 26 -22 25 -16 77 -88 77 -108 0 -11 6 -27 13 -37 9
-11 12 -47 10 -110 -1 -51 -3 -93 -3 -93 -1 0 -3 -7 -5 -15 -6 -29 -48 -144
-56 -154 -52 -65 -139 -187 -139 -194 0 -5 -9 -21 -21 -36 -29 -37 -44 -89
-54 -189 -4 -34 -10 -66 -15 -72 -5 -5 -6 -23 -3 -38 8 -41 77 -73 180 -82 60
-5 86 -12 98 -25 9 -10 14 -23 11 -29 -3 -5 -2 -11 3 -13 14 -5 21 -66 8 -72
-9 -5 -9 -8 1 -12 6 -3 10 -9 8 -13 -3 -4 2 -30 10 -57 8 -27 17 -65 20 -84 3
-19 7 -52 10 -72 5 -27 3 -38 -7 -38 -7 0 -9 -3 -6 -7 4 -3 1 -13 -6 -21 -6
-8 -13 -29 -15 -46 -1 -17 -5 -56 -9 -86 -6 -50 -7 -188 -3 -300 1 -25 -1 -53
-5 -62 -4 -10 -3 -18 2 -18 6 0 10 -45 9 -107 0 -60 4 -115 9 -123 5 -8 10
-28 10 -45 1 -16 5 -47 9 -67 5 -26 3 -39 -6 -45 -8 -4 -22 -27 -32 -50 -11
-24 -22 -43 -26 -43 -9 0 -40 -73 -47 -110 -2 -13 -9 -30 -15 -37 -6 -7 -7
-13 -2 -13 4 0 3 -5 -4 -12 -7 -7 -12 -25 -12 -41 0 -15 -5 -37 -11 -48 -5
-11 -14 -39 -18 -62 -4 -24 -13 -41 -19 -39 -7 1 -12 -10 -13 -25 -1 -65 -15
-136 -39 -198 -4 -11 -6 -28 -4 -37 1 -10 -2 -18 -7 -18 -4 0 -6 -6 -3 -14 3
-8 -2 -28 -10 -44 -9 -17 -18 -55 -20 -84 -3 -29 -6 -53 -6 -53 -1 0 -3 -61
-4 -135 -1 -75 -5 -141 -9 -147 -4 -6 -3 -14 2 -18 5 -3 8 -15 5 -28 -3 -12
-7 -42 -9 -67 -3 -25 -7 -67 -10 -95 -10 -96 -13 -190 -5 -200 4 -5 0 -26 -8
-45 -19 -45 -26 -118 -12 -135 10 -12 8 -56 -5 -86 -3 -10 -1 -20 5 -24 8 -5
8 -11 -1 -21 -8 -10 -9 -18 0 -27 6 -8 8 -17 4 -20 -3 -4 -1 -17 5 -30 12 -25
21 -107 11 -107 -4 0 -5 -17 -4 -37 14 -168 19 -199 29 -205 8 -5 7 -8 -3 -8
-11 0 -11 -3 -1 -15 7 -8 9 -15 4 -15 -4 0 -3 -5 4 -12 7 -7 12 -20 12 -30 0
-10 4 -26 9 -36 6 -9 15 -44 20 -77 6 -33 15 -82 21 -110 6 -27 12 -63 15 -80
9 -58 28 -125 36 -125 5 0 6 -6 3 -14 -5 -12 31 -169 43 -189 3 -5 7 -37 9
-72 4 -57 2 -65 -18 -79 -12 -9 -18 -16 -13 -16 5 0 0 -7 -11 -15 -10 -8 -15
-15 -10 -15 5 0 2 -8 -6 -17 -8 -10 -18 -34 -22 -53 -3 -19 -17 -57 -30 -85
-14 -27 -35 -84 -47 -125 -12 -41 -25 -79 -29 -85 -4 -5 -8 -17 -8 -25 0 -8
-3 -26 -7 -40 -13 -53 -16 -78 -19 -165 -2 -49 0 -117 5 -150 5 -33 9 -80 10
-105 0 -25 7 -96 15 -159 15 -109 12 -226 -6 -290 -3 -14 -6 -39 -5 -56 1 -16
-1 -39 -5 -50 -4 -11 -11 -69 -14 -130 -4 -60 -9 -123 -12 -139 -4 -16 -2 -31
4 -35 5 -3 12 -48 15 -100 4 -69 2 -90 -6 -82 -6 6 -18 11 -27 11 -10 -1 -6
-8 14 -24 23 -19 28 -30 24 -55 -2 -17 -1 -31 4 -31 5 0 4 -9 -2 -19 -5 -11
-9 -30 -9 -43 2 -24 -7 -122 -17 -193 -13 -91 -61 -205 -86 -205 -13 0 -47
-82 -53 -129 -4 -23 -11 -54 -16 -68 -5 -14 -7 -28 -4 -33 3 -5 0 -12 -6 -16
-8 -4 -7 -9 2 -15 9 -6 10 -9 2 -9 -6 0 -15 -15 -19 -32 -3 -18 -13 -42 -20
-53 -12 -18 -18 -40 -44 -145 -15 -64 -18 -74 -59 -215 -22 -77 -43 -158 -46
-181 -13 -78 32 -137 126 -165 34 -11 37 -15 42 -55 7 -62 19 -74 65 -62 42
10 60 13 152 23 36 3 70 11 76 15 28 24 108 18 172 -13 16 -8 34 -8 61 -1 36
10 39 9 57 -17 11 -16 31 -30 49 -33 17 -4 47 -17 65 -31 21 -15 42 -23 57
-20 35 6 90 43 114 76 20 28 46 34 74 17 6 -3 26 -3 45 -1 56 9 119 6 132 -4
7 -6 21 -9 31 -8 9 2 17 -1 17 -7 0 -6 13 -8 30 -6 16 3 30 2 30 -1 0 -3 32
-6 71 -6 59 0 73 3 86 20 16 23 12 70 -13 138 -9 23 -23 60 -31 82 -11 29 -14
68 -11 145 l4 105 61 125 c132 271 153 341 176 585 6 54 -10 225 -22 239 -9
10 -40 94 -46 121 -1 6 -6 28 -12 50 -14 49 -25 171 -24 245 1 75 10 180 15
189 3 4 8 40 11 78 3 39 12 97 20 128 8 31 15 65 15 75 0 11 5 20 10 20 6 0
10 11 10 24 0 14 4 27 9 30 10 6 45 91 86 206 15 41 31 84 35 95 4 11 20 61
35 110 15 50 32 97 36 105 20 34 39 83 35 87 -3 3 3 19 13 36 10 18 21 49 25
69 4 21 21 72 37 113 17 42 32 81 33 88 2 7 9 26 16 42 26 62 53 131 67 175
20 63 52 145 80 208 13 29 21 57 18 62 -3 6 -2 10 4 10 12 0 32 95 36 169 1
31 7 74 13 96 6 22 12 49 12 60 2 79 0 166 -6 200 -3 22 -7 51 -9 65 -2 14 -8
42 -13 62 -6 21 -6 40 -1 45 13 13 132 -3 195 -26 52 -20 74 -15 58 11 -5 8
-2 9 12 4 28 -11 156 -38 182 -38 12 0 22 -4 22 -8 0 -5 9 -6 19 -3 23 6 38
-31 21 -52 -7 -8 -7 -16 -1 -19 5 -3 12 -30 16 -59 4 -28 9 -59 10 -67 2 -8 6
-44 10 -80 6 -63 17 -113 35 -155 12 -29 32 -106 37 -140 2 -16 7 -39 12 -50
11 -27 27 -75 58 -170 14 -44 29 -84 33 -90 17 -23 21 -68 7 -84 -24 -29 -40
-104 -43 -206 -1 -55 -6 -143 -9 -195 -4 -52 -9 -129 -10 -170 -4 -76 -12
-175 -20 -220 -2 -14 -7 -58 -11 -99 -3 -41 -7 -82 -9 -91 -2 -8 -6 -43 -10
-75 -4 -33 -9 -69 -11 -80 -2 -11 -9 -49 -15 -85 -11 -65 -13 -79 -24 -180 -3
-30 -8 -74 -11 -98 -5 -42 22 -202 36 -212 4 -3 20 -45 35 -93 47 -149 29
-229 -91 -414 -58 -90 -127 -156 -249 -241 -72 -50 -127 -113 -157 -179 -28
-63 -29 -68 -31 -136 -2 -45 2 -62 15 -74 10 -9 18 -13 18 -8 0 4 6 2 13 -4 8
-6 16 -9 18 -7 2 2 37 6 77 9 39 3 76 8 80 11 5 3 28 7 53 10 43 6 68 10 121
21 21 5 31 0 53 -29 15 -19 34 -37 43 -40 58 -17 94 -15 162 11 8 4 21 5 28 4
8 -1 20 3 27 9 36 30 105 17 105 -19 0 -6 11 -18 25 -27 25 -16 62 -16 140 1
44 10 75 11 75 3 1 -52 -1 -68 -7 -65 -5 3 -9 -13 -10 -36 -2 -22 -7 -45 -13
-51 -5 -5 -10 -21 -10 -36 0 -24 -19 -66 -20 -45 0 6 -5 2 -11 -8 -5 -9 -7
-22 -4 -28 4 -6 -1 -19 -11 -30 -9 -10 -14 -19 -11 -19 6 0 -13 -27 -40 -55
-7 -8 -13 -18 -13 -24 0 -6 -3 -11 -7 -11 -5 0 -19 -17 -33 -37 -14 -20 -34
-46 -45 -58 -29 -29 -128 -155 -148 -187 -20 -33 -38 -136 -24 -145 5 -3 4 -9
-3 -13 -8 -5 -10 -18 -6 -34 4 -15 10 -25 14 -22 5 3 7 -13 6 -36 l-2 -40 51
6 c29 4 75 9 102 11 92 9 170 20 215 32 36 9 60 8 105 -5 22 -7 56 -12 76 -12
35 0 37 -2 43 -39 6 -37 20 -52 56 -57 8 -1 20 -3 25 -5 6 -1 51 1 100 5 80 7
112 14 215 42 14 4 31 11 38 17 6 5 49 11 94 14 45 2 87 8 93 13 7 6 15 7 18
3 4 -3 7 0 7 7 0 7 3 10 6 7 4 -3 15 -2 25 3 15 9 33 -5 107 -78 87 -86 90
-88 138 -89 47 0 50 1 75 41 15 22 36 62 47 89 12 26 26 47 31 48 6 0 30 1 54
1 23 0 49 6 57 13 31 25 101 21 186 -11 77 -29 171 -35 242 -15 36 10 44 17
49 42 7 34 46 69 78 69 34 0 73 36 85 78 22 80 13 128 -41 234 -49 97 -51 105
-66 241 -17 143 -16 146 13 302 3 17 7 38 7 48 1 9 5 17 9 17 4 0 8 11 8 24 0
13 10 55 21 92 12 38 22 76 23 84 1 8 9 26 18 40 27 40 43 154 28 203 -6 22
-13 47 -16 56 -2 9 -11 45 -20 81 -16 66 -22 289 -8 332 3 11 7 40 8 63 2 23
6 47 10 53 4 7 5 12 2 12 -2 0 0 15 6 33 5 17 12 47 14 66 2 19 10 66 19 105
8 39 17 91 19 116 8 92 19 138 48 193 9 17 18 67 22 112 1 11 7 30 14 43 7 12
12 30 11 40 -1 9 1 24 4 32 3 8 7 24 9 35 2 11 6 22 10 25 4 3 9 17 12 30 2
14 14 60 25 102 12 43 23 97 26 120 3 24 9 63 15 88 5 25 11 59 14 75 2 17 8
41 14 55 5 14 15 50 22 80 7 30 21 73 31 94 10 21 26 66 34 99 13 52 64 152
84 167 10 7 29 60 35 101 6 32 1 44 -43 104 -27 37 -47 73 -45 80 3 7 1 16 -5
19 -5 4 -8 21 -5 39 3 17 6 52 7 77 1 31 6 45 16 45 8 0 15 -9 17 -19 2 -11 5
-30 9 -43 3 -13 6 -26 6 -30 1 -5 19 -41 40 -80 21 -40 36 -73 32 -73 -3 0 0
-7 7 -15 7 -8 10 -21 7 -29 -3 -8 1 -20 9 -27 8 -7 14 -19 13 -28 -1 -9 3 -29
9 -44 7 -16 12 -37 12 -47 0 -10 5 -20 11 -22 17 -6 39 -76 25 -81 -6 -2 -1
-9 12 -16 18 -10 21 -15 12 -26 -7 -9 -8 -15 -1 -19 6 -4 8 -13 4 -21 -3 -8 1
-15 8 -15 7 0 10 -2 7 -6 -3 -3 0 -26 8 -51 8 -25 11 -49 8 -54 -3 -5 -1 -9 3
-9 5 0 15 -21 22 -47 7 -27 20 -67 27 -91 8 -23 14 -49 14 -57 0 -8 5 -15 11
-15 6 0 9 -6 6 -13 -3 -8 -1 -20 3 -28 5 -8 4 -19 -2 -27 -7 -8 -8 -16 -2 -20
21 -15 33 -49 21 -61 -8 -8 -8 -11 0 -11 6 0 10 -12 8 -27 -2 -16 4 -36 12
-45 17 -19 22 -41 28 -128 8 -103 16 -175 21 -192 7 -24 6 -181 -2 -243 -3
-29 -25 -90 -52 -145 -43 -87 -47 -101 -47 -170 0 -85 8 -121 32 -145 18 -19
27 -135 10 -135 -6 0 -6 -5 0 -12 17 -24 8 -95 -36 -263 -35 -138 -57 -190
-107 -254 -27 -35 -53 -70 -59 -79 -14 -22 -49 -57 -132 -130 -40 -35 -76 -76
-80 -90 -13 -39 -8 -118 7 -114 6 1 27 -7 46 -18 18 -12 38 -19 43 -16 4 3 31
0 60 -8 28 -7 51 -9 51 -4 0 5 17 7 38 4 23 -2 51 3 74 14 22 10 41 14 50 9
21 -13 48 -10 48 5 0 28 35 10 38 -20 2 -16 12 -37 23 -47 10 -10 19 -22 19
-27 0 -8 38 -26 50 -23 4 1 30 4 60 8 30 3 59 9 65 14 5 4 23 8 39 9 16 1 34
6 40 10 36 27 181 45 195 24 9 -13 68 -29 133 -37 44 -5 62 -12 77 -31 23 -29
40 -30 67 -6 10 10 24 19 29 20 6 1 10 6 10 11 0 5 10 22 21 38 16 21 31 29
59 31 53 4 56 5 77 25 11 10 26 16 33 13 8 -3 17 -1 21 5 4 7 13 4 24 -6 15
-13 19 -13 29 -2 8 11 40 15 124 15 64 0 129 6 152 14 37 12 40 16 42 52 3 45
17 64 61 83 65 27 78 113 36 234 -23 65 -25 84 -20 159 5 78 12 135 16 135 1
0 3 43 5 95 1 52 9 129 18 170 51 242 53 306 12 370 -15 24 -29 51 -30 60 -1
8 -7 29 -15 45 -7 17 -14 37 -15 45 -1 8 -10 33 -20 55 -10 22 -19 43 -19 47
-1 4 -7 13 -13 20 -7 6 -13 18 -13 26 0 8 -6 26 -14 40 -15 28 -28 59 -31 77
-1 6 -3 12 -4 15 -9 20 -15 81 -26 305 -4 66 -8 138 -10 160 -2 22 -4 99 -6
170 -1 72 -6 138 -11 147 -5 10 -4 19 2 23 6 4 8 14 6 23 -16 49 -23 377 -12
562 13 231 18 335 18 345 -1 6 -3 60 -6 120 -3 61 -10 127 -15 147 -5 20 -7
39 -4 42 3 2 -1 15 -8 28 -7 12 -12 31 -10 40 1 10 -2 18 -7 18 -6 0 -9 8 -8
17 2 10 -8 41 -20 70 -13 29 -21 53 -19 53 3 0 0 10 -7 23 -7 12 -11 26 -10
30 1 5 -1 6 -5 4 -9 -6 -34 18 -27 26 2 2 -2 10 -11 17 -8 7 -15 19 -15 27 0
19 -52 83 -67 83 -6 0 -14 8 -17 18 -3 10 -19 26 -36 35 -28 17 -39 41 -22 49
4 2 27 43 52 92 25 49 60 111 78 138 17 27 32 60 32 72 0 12 4 26 9 32 5 5 25
54 45 109 20 55 43 114 51 130 48 107 88 229 77 239 -3 3 0 6 6 6 7 0 12 8 12
17 0 10 6 35 14 58 8 22 18 58 22 80 8 36 12 40 39 39 33 -1 127 -11 135 -14
3 -1 8 -2 13 -1 4 0 7 -3 7 -8 0 -7 33 -19 75 -26 6 -1 24 -7 40 -14 17 -7 41
-15 55 -18 14 -2 35 -11 48 -19 12 -8 27 -12 32 -9 6 3 10 2 10 -3 0 -11 77
-42 103 -42 9 0 17 -4 17 -10 0 -5 5 -10 12 -10 12 0 120 -51 128 -61 6 -7 37
-18 70 -24 12 -2 27 -11 34 -18 6 -8 38 -24 71 -37 33 -12 77 -34 97 -48 21
-13 44 -22 53 -18 9 3 15 0 15 -9 0 -14 14 -19 47 -18 7 1 11 -2 8 -6 -2 -4
21 -16 51 -26 30 -10 54 -21 54 -24 0 -8 91 -36 104 -33 5 2 16 -4 26 -13 9
-8 20 -12 23 -8 4 3 7 1 7 -5 0 -6 8 -11 18 -11 32 1 97 -14 103 -24 4 -5 37
-13 75 -17 38 -5 83 -13 99 -18 17 -5 40 -8 53 -7 13 1 25 -2 28 -6 2 -5 10
-6 17 -3 7 2 30 -3 51 -11 27 -12 82 -18 185 -21 80 -2 153 -7 161 -10 8 -3
94 -8 190 -10 96 -3 181 -7 188 -9 6 -3 12 -1 12 4 0 4 24 4 53 -1 28 -5 133
-6 232 -2 181 7 382 8 443 1 17 -2 32 0 32 4 0 4 9 5 20 2 20 -5 74 4 305 49
55 11 109 21 120 23 97 14 234 42 390 79 111 26 255 78 284 102 16 13 32 24
36 24 13 0 55 50 55 65 0 8 -16 22 -35 31 -19 9 -35 19 -35 23 0 7 -83 57 -87
53 -2 -1 -4 -2 -5 -1 -15 5 -67 11 -133 14 -115 7 -144 11 -152 18 -3 4 -21 7
-39 7 -18 0 -45 5 -61 12 -15 6 -35 10 -45 9 -9 -1 -19 3 -23 9 -3 5 -17 10
-31 10 -13 0 -24 5 -24 12 0 6 -3 9 -6 5 -4 -3 -19 0 -35 9 -16 8 -31 14 -34
14 -3 1 -10 2 -17 4 -7 2 -33 9 -58 16 -25 7 -49 14 -55 14 -5 1 -15 6 -23 13
-7 7 -29 15 -50 19 -20 4 -45 13 -54 21 -9 8 -32 16 -50 18 -18 2 -46 8 -63
14 -16 5 -57 18 -90 27 -33 9 -69 23 -80 30 -11 8 -29 14 -42 14 -12 0 -25 5
-28 11 -7 10 -51 31 -71 33 -6 1 -18 9 -28 18 -10 10 -26 18 -37 18 -10 0 -19
4 -19 9 0 5 -10 11 -22 15 -13 3 -35 16 -49 30 -14 13 -40 27 -57 31 -18 3
-32 10 -32 13 0 8 -66 38 -104 48 -14 3 -23 10 -20 15 4 7 -8 13 -18 8 -6 -3
-105 55 -125 74 -13 11 -29 17 -38 13 -9 -3 -13 -2 -10 4 4 6 -8 18 -25 28
-17 9 -41 25 -52 35 -12 9 -27 17 -35 17 -7 0 -22 9 -33 20 -11 11 -29 20 -39
20 -11 0 -23 5 -26 10 -4 6 -10 8 -14 5 -5 -2 -16 4 -26 15 -10 11 -26 20 -37
20 -10 0 -18 5 -18 10 0 6 -7 10 -16 10 -8 0 -13 4 -10 8 5 9 -113 92 -132 92
-6 0 -11 3 -10 8 4 11 -35 52 -44 46 -4 -3 -11 2 -14 10 -3 9 -12 16 -20 16
-8 0 -14 8 -14 17 0 9 -3 14 -6 10 -6 -6 -94 76 -94 88 0 9 -23 30 -38 33 -17
3 -52 39 -45 46 4 3 -1 6 -11 6 -9 0 -15 -4 -11 -9 3 -5 1 -12 -4 -15 -5 -3
-11 3 -14 14 -3 10 0 21 7 24 7 3 7 5 -1 5 -7 1 -13 6 -13 13 0 6 -17 28 -38
47 -21 20 -41 44 -45 53 -4 11 -12 15 -22 12 -10 -4 -13 -2 -10 8 4 9 -6 18
-30 27 -19 6 -42 19 -51 28 -9 9 -26 17 -37 18 -14 1 -24 11 -29 32 -4 16 -19
42 -32 56 -13 15 -27 36 -31 47 -3 11 -14 20 -24 20 -10 0 -27 11 -37 25 -10
14 -24 25 -31 25 -7 0 -13 10 -13 23 0 32 -62 114 -108 144 -22 15 -52 45 -66
67 -38 59 -71 93 -92 98 -10 2 -25 17 -33 33 -8 17 -18 32 -23 33 -4 2 -6 8
-2 13 3 5 0 9 -6 9 -7 0 -10 6 -7 13 6 15 -34 67 -51 67 -14 0 -62 44 -62 58
0 16 -67 111 -74 105 -3 -4 -6 1 -6 10 0 9 -8 21 -19 26 -20 11 -37 48 -45 95
-3 16 -10 33 -17 36 -8 6 -7 9 2 13 9 4 10 6 2 6 -7 1 -30 20 -52 42 -22 23
-44 39 -49 35 -5 -3 -13 4 -17 17 -4 12 -9 27 -11 32 -2 6 -8 30 -14 55 -17
72 -55 135 -77 128 -15 -5 -48 27 -48 47 1 25 -24 67 -36 59 -5 -3 -9 2 -9 10
0 8 -9 20 -20 26 -10 6 -17 16 -14 23 2 7 -4 24 -16 37 -11 13 -21 27 -21 32
-3 17 -5 24 -24 73 -10 28 -25 53 -31 58 -7 4 -11 17 -9 28 3 14 0 19 -9 16
-10 -4 -12 0 -9 14 3 10 0 19 -6 19 -6 0 -11 7 -11 15 0 8 -7 15 -15 15 -8 0
-15 7 -15 15 0 8 -6 15 -14 15 -8 0 -16 5 -18 11 -2 6 -19 14 -37 18 -19 3
-39 15 -45 26 -6 10 -19 28 -28 38 -10 11 -15 24 -12 28 8 14 -16 50 -29 43
-7 -4 -9 -3 -4 1 9 10 -21 45 -40 45 -7 0 -13 5 -13 10 0 6 -6 10 -13 10 -28
0 -128 88 -168 148 -24 35 -64 83 -91 107 -26 24 -48 46 -48 50 0 10 -64 91
-72 91 -4 -1 -17 7 -28 17 -11 9 -28 17 -38 17 -19 0 -57 30 -151 119 -29 28
-60 51 -67 51 -8 0 -14 4 -14 10 0 11 -53 26 -127 35 -29 4 -53 11 -53 16 0 5
-9 9 -19 9 -11 0 -21 5 -23 11 -2 6 -44 12 -103 15 -123 5 -135 7 -135 15 0 4
-12 9 -27 12 -16 4 -57 13 -93 21 -91 21 -152 26 -169 12 -12 -8 -13 -8 -7 2
7 11 -5 17 -27 13 -4 -1 -18 4 -30 11 -12 7 -26 13 -32 14 -5 0 -27 8 -49 17
-21 9 -46 17 -56 17 -9 0 -39 7 -66 15 -27 9 -67 18 -89 21 -64 9 -235 11
-235 3 0 -21 -51 -16 -110 12 -36 17 -76 32 -90 34 -79 11 -168 6 -232 -12
-11 -3 -18 1 -18 10 0 8 -10 17 -23 21 -17 4 -22 12 -22 31 1 13 4 27 7 30 6
7 -7 90 -29 172 -13 50 -13 65 -3 78 9 11 9 22 2 44 -7 21 -7 34 2 48 7 10 18
37 26 60 7 23 21 51 32 62 10 11 18 25 18 31 0 13 22 53 35 62 5 4 6 10 2 14
-4 4 -3 12 2 18 6 6 12 23 14 36 2 14 10 39 17 55 20 46 15 282 -6 316 -3 5
-7 17 -9 26 -1 10 -13 46 -24 81 -16 47 -19 67 -11 82 6 10 11 30 12 44 1 15
5 26 9 26 3 0 9 20 11 45 3 25 11 52 19 61 23 27 49 116 49 165 0 60 -10 86
-48 126 -16 18 -27 35 -24 38 3 3 0 5 -7 5 -7 0 -21 21 -33 47 -19 44 -27 132
-18 223 1 14 -1 75 -4 136 -5 98 -12 148 -32 219 -12 41 -10 130 3 155 7 14
13 39 13 57 0 20 7 36 18 42 15 9 15 10 1 16 -12 4 -16 17 -14 45 1 22 -2 37
-6 34 -5 -3 -9 1 -9 8 -1 36 -101 115 -167 132 -46 12 -48 14 -51 51 -5 60 7
104 34 127 13 12 24 27 24 33 0 7 7 26 16 44 9 19 13 39 8 49 -4 9 -8 20 -8
23 -2 10 -31 34 -68 56 -36 21 -49 25 -138 38 -89 13 -130 30 -176 71 -43 40
-45 44 -38 80 3 22 13 46 20 55 8 8 14 29 14 45 0 25 -7 34 -40 53 -21 12 -56
23 -77 24 -45 2 -55 27 -25 60 10 12 26 43 35 70 19 56 31 70 77 85 19 7 73
35 120 63 121 72 156 89 185 89 14 0 25 4 25 8 0 5 6 9 13 10 17 1 123 40 174
63 23 10 52 19 65 19 23 0 89 15 118 27 8 4 24 7 35 8 11 1 52 5 90 9 39 4 86
9 105 11 109 14 174 19 250 19 69 1 85 4 85 16 0 8 -4 15 -10 15 -21 0 -32 15
-30 39 2 14 -3 30 -11 37 -8 6 -14 18 -14 27 0 8 -3 13 -6 9 -4 -3 -12 0 -20
7 -7 7 -31 16 -53 20 -23 3 -41 11 -41 16 0 6 -6 9 -12 8 -7 -2 -12 3 -10 10
1 7 -8 12 -22 12 -30 0 -86 20 -86 31 0 4 -12 8 -27 8 -16 -1 -63 6 -106 14
-110 22 -309 41 -319 31z m-638 -10449 c7 -8 9 -15 5 -15 -4 0 -3 -6 2 -12 6
-7 13 -29 17 -49 3 -20 16 -56 28 -80 12 -24 24 -51 26 -59 8 -26 7 -84 -3
-105 -4 -11 -9 -23 -9 -27 -1 -3 -4 -10 -8 -14 -5 -4 -8 -14 -8 -22 0 -8 -12
-29 -27 -47 -24 -28 -105 -151 -108 -165 -12 -48 -40 -52 -50 -7 -12 49 -12
50 -3 75 5 15 4 22 -5 23 -9 0 -9 2 1 6 6 2 12 13 12 23 0 10 -6 21 -12 24 -7
3 -3 3 8 1 22 -6 40 17 28 36 -3 5 -1 9 5 9 23 0 67 249 62 354 -2 34 7 66 18
66 5 0 14 -7 21 -15z"/>
<path d="M12113 13960 c2 -8 16 -16 33 -17 25 -1 26 0 4 4 -14 3 -29 10 -33
17 -6 7 -7 6 -4 -4z"/>
</g>
</svg>
