<?xml version="1.0" standalone="no"?>
<!DOCTYPE svg PUBLIC "-//W3C//DTD SVG 20010904//EN"
 "http://www.w3.org/TR/2001/REC-SVG-20010904/DTD/svg10.dtd">
<svg version="1.0" xmlns="http://www.w3.org/2000/svg"
 width="1536.000000pt" height="1345.000000pt" viewBox="0 0 1536.000000 1345.000000"
 preserveAspectRatio="xMidYMid meet">
<metadata>
Created by potrace 1.16, written by Peter Selinger 2001-2019
</metadata>
<g transform="translate(0.000000,1345.000000) scale(0.100000,-0.100000)"
fill="#000000" stroke="none">
<path d="M11325 13439 c-677 -54 -1510 -244 -2196 -500 -935 -348 -1805 -770
-2579 -1252 -842 -524 -1738 -1276 -2690 -2258 -621 -640 -924 -982 -1725
-1944 -192 -231 -455 -544 -585 -695 -261 -305 -377 -448 -655 -810 -104 -135
-245 -315 -315 -400 -221 -272 -307 -396 -391 -562 -66 -132 -96 -213 -118
-327 -66 -325 -91 -879 -47 -986 23 -54 42 -73 106 -105 68 -34 772 -264 895
-292 123 -29 305 -28 482 1 185 30 205 28 294 -18 207 -109 390 -69 969 214
429 209 589 268 850 309 220 35 352 41 845 40 611 0 950 -23 2505 -163 l435
-39 195 -65 c720 -239 1381 -576 1915 -975 371 -278 530 -440 1188 -1207 297
-346 692 -804 876 -1017 l335 -388 1723 0 1723 0 0 3760 0 3759 -62 43 c-76
51 -600 426 -828 592 -675 491 -1173 872 -1632 1247 -315 258 -483 374 -730
503 -355 187 -766 302 -1073 300 -104 -1 -166 -21 -443 -146 -212 -95 -308
-132 -429 -162 -143 -36 -281 -49 -387 -36 -169 21 -248 59 -528 253 -76 52
-163 105 -193 118 -30 12 -55 28 -55 35 0 42 119 132 410 314 286 179 459 254
835 364 461 134 584 153 771 121 99 -17 875 -271 1042 -341 231 -97 395 -226
522 -413 22 -33 83 -138 136 -233 153 -275 214 -348 339 -408 100 -48 167 -61
330 -67 223 -8 597 34 779 88 171 50 325 147 404 253 117 158 219 474 252 786
18 158 16 370 -4 477 -62 343 -232 720 -444 983 -90 111 -350 374 -472 476
-333 280 -554 403 -971 539 -598 194 -1131 272 -1604 234z"/>
</g>
</svg>
