<?xml version="1.0" standalone="no"?>
<!DOCTYPE svg PUBLIC "-//W3C//DTD SVG 20010904//EN"
 "http://www.w3.org/TR/2001/REC-SVG-20010904/DTD/svg10.dtd">
<svg version="1.0" xmlns="http://www.w3.org/2000/svg"
 width="4424.000000pt" height="2103.000000pt" viewBox="0 0 4424.000000 2103.000000"
 preserveAspectRatio="xMidYMid meet">
<metadata>
Created by potrace 1.16, written by Peter Selinger 2001-2019
</metadata>
<g transform="translate(0.000000,2103.000000) scale(0.100000,-0.100000)"
fill="#000000" stroke="none">
<path d="M15057 20670 l-568 -360 -314 210 c-202 135 -317 206 -320 198 -3 -7
-83 -230 -180 -495 l-175 -483 -366 -542 c-202 -299 -378 -555 -393 -569 -14
-15 -471 -358 -1014 -763 l-989 -737 -898 -449 -899 -449 -690 -155 -691 -155
-429 -260 -430 -260 -270 -30 -270 -31 -201 70 -200 71 -158 -70 c-122 -54
-159 -66 -167 -56 -5 7 -82 143 -169 304 -88 160 -163 291 -167 291 -4 0 -122
-160 -263 -355 l-256 -355 -60 -327 c-33 -181 -65 -352 -71 -381 l-11 -53
-120 -80 c-69 -47 -118 -86 -115 -93 3 -6 39 -118 81 -249 l76 -236 -40 -111
-40 -110 59 -158 c55 -146 58 -158 43 -173 -9 -9 -140 -109 -289 -223 l-273
-206 -137 30 c-118 26 -142 34 -167 60 -17 16 -122 129 -235 252 l-206 222
-465 357 c-256 196 -466 355 -468 354 -2 -1 -25 -221 -53 -489 l-49 -486 226
-482 c124 -266 228 -486 231 -490 2 -4 -33 -26 -77 -48 l-81 -41 30 -54 c17
-30 45 -80 61 -110 l31 -54 -503 -333 c-277 -183 -611 -405 -743 -493 l-239
-160 -488 -828 -488 -827 39 -627 c32 -498 43 -630 55 -641 24 -24 741 -589
744 -587 1 1 -4 103 -13 226 -15 212 -15 224 2 240 10 9 152 136 315 283 l297
266 548 75 c301 41 556 77 566 79 10 2 233 135 496 296 l478 291 13 59 c11 53
15 59 34 55 31 -8 510 -95 519 -95 4 0 7 -35 7 -78 l0 -78 -220 -301 -221
-301 -297 -123 c-163 -67 -568 -243 -900 -390 l-602 -267 -336 30 c-184 17
-337 28 -340 26 -5 -5 211 -494 226 -513 5 -6 257 -112 560 -235 l550 -223
1053 121 1052 121 387 179 387 180 248 -175 c136 -97 252 -177 258 -179 6 -3
171 56 368 130 l357 134 302 -197 c210 -136 404 -251 630 -375 l327 -178 347
180 346 179 311 -134 312 -135 677 30 677 29 480 254 480 254 117 263 c65 145
122 265 126 268 5 3 169 -85 366 -195 196 -110 364 -202 372 -205 11 -4 64 60
180 216 l164 220 17 -48 c180 -529 393 -1132 402 -1141 21 -21 380 -154 387
-143 3 5 19 109 35 230 16 121 32 219 36 218 16 -6 79 -91 79 -106 0 -10 22
-213 49 -452 l49 -435 127 -535 c69 -294 128 -540 130 -547 2 -6 -176 -169
-396 -362 l-400 -349 -581 -764 c-319 -420 -634 -834 -700 -920 l-119 -157
-20 -368 c-10 -202 -19 -382 -19 -399 0 -26 -47 -85 -296 -375 -162 -189 -303
-352 -312 -361 -11 -11 -160 -56 -385 -117 -203 -55 -370 -101 -371 -103 -2
-2 -56 -77 -121 -168 -65 -91 -136 -189 -157 -217 l-39 -53 1243 0 1243 1 44
60 c42 58 43 63 62 197 30 218 21 197 102 249 47 30 75 42 84 37 6 -5 78 -85
159 -179 81 -93 150 -171 153 -173 4 -1 72 17 151 41 l145 43 3 105 c2 93 -3
130 -42 314 l-44 208 -66 66 -66 66 55 150 c31 82 61 155 68 161 6 6 532 388
1167 849 635 461 1156 839 1158 840 2 2 174 384 383 851 l381 849 -11 210 c-7
116 -14 245 -18 287 l-6 78 219 -121 c121 -66 222 -124 226 -127 9 -9 -132
-904 -311 -1979 l-141 -843 -109 -178 c-79 -128 -162 -288 -296 -568 l-186
-389 11 -94 12 -93 -89 -92 c-48 -50 -128 -133 -177 -184 l-90 -93 -575 -155
c-317 -85 -585 -158 -596 -163 -11 -5 -46 -58 -78 -120 l-58 -111 1253 0 1254
0 129 147 c149 169 135 171 155 -26 l13 -121 197 0 196 0 24 198 c12 108 26
205 30 216 5 15 37 -16 169 -163 89 -100 166 -181 170 -181 4 0 51 74 105 165
l96 165 -100 350 -100 349 290 681 291 681 469 789 470 790 80 591 c44 326 80
595 80 599 0 3 30 2 68 -4 44 -6 477 0 1292 18 674 14 1275 26 1335 26 l110 0
160 -103 c132 -84 250 -178 668 -526 l507 -423 377 -526 c213 -297 376 -534
376 -545 -1 -11 -18 -88 -38 -173 l-37 -154 40 -170 40 -171 -128 -267 -128
-267 -361 -280 -360 -280 0 -170 -1 -170 -203 -203 -202 -202 -665 -168 -665
-168 -103 -152 -103 -152 1710 0 1710 0 -5 32 c-3 18 -16 125 -29 238 l-24
205 181 499 181 499 162 251 162 251 190 160 189 160 82 195 82 195 0 258 0
258 -109 270 -110 269 -214 253 c-117 139 -219 261 -224 272 -6 11 -97 245
-203 520 l-192 500 5 128 c2 70 6 129 9 132 3 3 136 -69 296 -161 l291 -166
763 -49 763 -50 925 -130 925 -130 530 -241 c292 -133 549 -250 573 -262 38
-18 57 -42 173 -221 l130 -200 178 -118 179 -119 100 -241 101 -242 -11 -417
-11 -417 99 -140 99 -140 60 0 c33 1 116 4 185 9 l125 8 289 -122 288 -121
300 -360 c298 -358 301 -361 459 -488 l158 -128 267 -30 c146 -17 268 -28 270
-26 2 2 -13 50 -33 107 l-37 102 -156 105 -157 104 52 142 53 142 -43 60 c-23
33 -98 139 -167 235 -68 96 -127 180 -131 187 -4 7 43 -12 105 -41 l113 -53
202 23 203 23 160 86 c88 48 160 90 160 94 0 4 -74 33 -165 64 -157 54 -169
57 -264 57 l-99 0 -7 113 -7 112 -210 195 -211 195 -196 102 c-108 56 -199
104 -203 105 -4 2 -10 46 -14 98 l-6 95 -45 46 -45 47 78 6 c72 7 105 2 366
-52 l287 -59 243 48 c134 27 253 51 265 54 19 4 73 83 73 105 0 5 -118 48
-262 96 -145 47 -265 88 -267 90 -2 2 -14 62 -26 134 -12 72 -24 132 -27 135
-2 3 -114 55 -249 116 l-244 111 -257 59 c-141 32 -260 59 -265 59 -4 -1 -28
-28 -53 -61 -68 -92 -68 -92 -154 444 -36 219 -68 403 -74 410 -5 7 -112 147
-237 312 -126 165 -229 302 -231 303 -1 2 -204 24 -451 47 -246 24 -457 46
-469 48 -12 2 -208 117 -436 256 l-416 251 -316 678 -317 677 -175 184 c-96
102 -173 188 -172 192 3 6 1235 1139 1269 1166 8 7 373 98 810 203 437 104
806 196 820 204 39 20 986 713 1049 766 l55 48 1249 60 1248 60 1197 -399
c1193 -398 1200 -401 2596 -810 l1400 -411 1100 -130 1100 -129 809 -300 c445
-164 811 -297 813 -295 2 2 -31 74 -74 160 l-78 156 -670 364 c-368 200 -679
368 -690 374 -11 5 -483 157 -1050 336 l-1030 327 -115 69 c-63 39 -529 324
-1035 633 l-920 564 -40 133 -40 133 -253 190 c-139 104 -251 191 -250 192 2
2 91 -12 198 -30 107 -18 196 -31 198 -30 2 2 -12 52 -30 112 l-34 108 -617
339 c-339 187 -615 341 -614 343 2 1 226 -16 498 -38 272 -22 507 -38 522 -37
27 3 24 8 -123 208 -84 113 -158 210 -166 216 -7 6 -303 138 -658 295 -355
156 -644 285 -642 286 1 1 206 -18 456 -42 250 -25 460 -45 467 -45 16 0 -402
563 -425 572 -9 4 -246 16 -527 28 -280 12 -536 25 -568 28 -55 7 -36 12 363
96 231 49 417 93 413 97 -4 3 -502 192 -1107 418 l-1098 412 -101 81 -100 81
-281 -47 c-155 -26 -290 -50 -301 -52 -11 -3 54 67 145 155 91 88 163 161 160
164 -133 111 -853 673 -870 679 -14 4 -196 22 -405 38 -209 17 -396 33 -415
37 -26 4 39 20 268 63 166 31 304 59 307 61 2 3 -44 43 -103 89 l-107 84 -960
-86 c-528 -47 -961 -85 -962 -84 -2 1 347 104 775 228 427 124 776 230 775
234 -1 5 -283 134 -627 287 l-626 278 -402 -86 c-222 -48 -420 -90 -440 -95
-21 -4 -38 -7 -38 -5 0 2 110 83 245 181 l244 179 -59 27 c-33 14 -68 29 -78
32 -11 4 -368 -105 -862 -263 -465 -149 -845 -269 -847 -268 -1 2 310 153 692
337 382 184 691 337 687 341 -4 3 -80 38 -170 78 l-163 72 -672 -60 -672 -60
-1044 -236 c-575 -129 -1046 -234 -1047 -232 -1 1 235 85 526 187 291 102 525
186 521 188 -4 1 -394 -31 -866 -73 l-858 -75 -578 -125 -578 -125 -136 32
c-74 17 -135 34 -135 37 0 3 104 64 230 135 126 71 229 131 227 132 -1 2 -232
-23 -512 -55 l-510 -58 -1758 520 -1757 520 -1633 -251 -1632 -251 -830 -386
c-456 -213 -854 -397 -882 -410 l-53 -24 6 62 5 62 127 120 c70 66 157 149
195 185 l67 65 -44 250 c-25 137 -44 251 -42 252 2 2 194 28 427 58 233 30
441 57 462 61 38 6 38 6 127 184 l89 179 -77 53 c-42 30 -229 157 -415 283
-185 126 -334 232 -330 236 5 4 166 57 358 118 193 61 356 115 363 119 13 7
225 652 217 660 -2 2 -818 90 -855 92 -3 0 164 169 370 375 206 206 373 375
370 375 -3 0 -230 14 -505 30 -275 16 -504 30 -510 29 -5 0 -265 -162 -578
-359z"/>
</g>
</svg>
