<?xml version="1.0" standalone="no"?>
<!DOCTYPE svg PUBLIC "-//W3C//DTD SVG 20010904//EN"
 "http://www.w3.org/TR/2001/REC-SVG-20010904/DTD/svg10.dtd">
<svg version="1.0" xmlns="http://www.w3.org/2000/svg"
 width="4010.000000pt" height="2060.000000pt" viewBox="0 0 4010.000000 2060.000000"
 preserveAspectRatio="xMidYMid meet">
<metadata>
Created by potrace 1.16, written by Peter Selinger 2001-2019
</metadata>
<g transform="translate(0.000000,2060.000000) scale(0.100000,-0.100000)"
fill="#000000" stroke="none">
<path d="M7610 20498 c-201 -50 -367 -92 -369 -94 -2 -2 41 -113 97 -246 l101
-243 60 -905 c33 -498 58 -906 57 -907 -1 -2 -108 342 -237 764 l-234 767
-244 301 c-134 165 -246 302 -248 305 -5 6 -563 -133 -563 -140 0 -3 20 -105
43 -228 25 -127 39 -217 32 -210 -7 7 -61 74 -120 148 -60 74 -128 158 -152
186 l-43 52 -111 -28 c-61 -16 -113 -31 -117 -34 -3 -4 67 -156 156 -339 l162
-332 99 -985 c54 -542 98 -986 96 -988 -1 -2 -20 43 -42 100 -22 57 -156 405
-297 773 l-257 670 -345 455 c-189 250 -348 455 -352 455 -28 0 -135 -30 -138
-39 -2 -6 59 -285 135 -619 l138 -609 -514 514 c-282 282 -513 508 -513 502 0
-5 169 -374 375 -818 l375 -809 0 -258 0 -259 -307 262 c-170 144 -350 297
-400 341 l-93 79 -582 169 c-693 201 -648 189 -648 183 0 -3 267 -182 594
-398 l593 -394 193 -283 c107 -156 226 -332 267 -391 l73 -106 -52 13 c-29 8
-363 93 -743 191 l-690 177 -845 -27 c-465 -15 -1015 -33 -1222 -40 l-378 -13
-43 -34 c-185 -145 -355 -284 -351 -288 4 -4 739 -58 2079 -151 l750 -52 1382
-660 1382 -660 1878 -1579 1878 -1579 2043 -1161 2043 -1162 612 -274 c337
-150 840 -375 1118 -499 l506 -226 249 -184 c137 -101 252 -191 256 -201 10
-23 148 -742 148 -768 0 -11 -87 -270 -193 -576 l-193 -557 -355 -361 c-194
-199 -353 -366 -352 -371 1 -4 -11 -209 -28 -455 l-30 -446 91 -150 90 -151
202 -631 201 -631 -36 -209 -37 -209 80 -86 c44 -48 79 -90 78 -94 -2 -5 -77
-85 -167 -178 -90 -94 -162 -172 -160 -174 2 -2 85 16 184 40 99 24 183 43
186 43 9 1 33 -195 26 -211 -2 -7 -84 -62 -181 -123 l-177 -110 -247 -395
-247 -395 -77 -229 c-67 -198 -79 -244 -88 -337 l-10 -108 46 -43 c26 -24 51
-46 57 -50 8 -5 4 -35 -11 -101 -21 -85 -31 -105 -113 -228 l-89 -134 32 -3
c18 -2 69 -1 113 3 l80 7 130 102 c129 101 130 103 172 189 35 73 46 87 66 87
13 0 30 6 39 12 8 7 43 96 78 198 59 174 70 198 194 408 l131 224 65 38 c36
21 66 37 68 36 1 -2 23 -158 48 -347 l45 -343 227 -271 c124 -148 244 -291
267 -317 l40 -48 416 0 c474 0 441 -7 459 90 6 29 12 55 14 57 2 2 60 8 129
14 l125 10 139 -86 140 -85 133 0 c102 0 131 3 127 13 -2 6 -19 50 -37 97 -18
47 -40 92 -49 101 -9 9 -117 85 -240 169 l-225 153 -190 -6 c-174 -6 -203 -4
-330 18 -77 14 -142 25 -143 25 -2 0 -50 95 -108 210 l-105 210 85 328 c47
180 89 336 94 348 5 11 74 59 154 107 132 79 147 91 152 120 3 17 17 105 30
194 l25 163 -345 629 -345 630 -105 601 -105 601 120 134 c83 92 129 135 148
139 15 3 365 64 778 136 l750 129 1168 46 1167 45 201 115 c110 63 204 115
208 115 4 0 85 -129 178 -288 l171 -287 160 -562 161 -563 0 -299 c0 -209 -4
-308 -12 -326 -10 -22 0 -75 68 -366 l79 -340 321 -260 320 -261 221 -371 222
-372 7 -203 c4 -112 10 -217 13 -233 4 -18 131 -196 311 -435 l305 -404 1306
0 1305 0 43 80 42 80 143 0 142 0 96 -80 96 -80 187 0 187 0 -80 151 -79 151
-289 140 -289 140 -230 -16 -230 -17 -225 25 c-124 14 -390 49 -592 77 l-366
52 -150 279 -149 279 24 152 c12 84 25 175 29 202 l5 50 -330 189 -330 189
-227 281 c-126 155 -243 299 -261 322 l-33 41 0 223 0 224 -55 182 c-30 101
-55 191 -55 201 0 10 133 342 297 739 l296 722 146 188 c79 104 236 307 348
452 l204 262 72 0 c65 0 102 10 342 90 148 49 270 90 271 90 11 0 -82 -279
-231 -695 -100 -280 -226 -641 -279 -801 l-96 -290 -135 -93 c-74 -51 -138
-98 -143 -104 -5 -7 -30 -71 -55 -144 l-46 -132 199 69 199 69 -23 -52 c-13
-29 -98 -218 -190 -420 -160 -354 -169 -376 -235 -610 -37 -133 -66 -244 -65
-246 2 -2 92 63 201 145 l197 149 235 343 c129 188 235 341 237 340 1 -2 -25
-178 -57 -393 -55 -367 -59 -399 -56 -549 l2 -159 158 216 157 217 128 304
c70 167 128 303 129 302 1 -1 7 -94 13 -206 l11 -204 67 -123 c36 -67 69 -119
73 -115 3 4 27 97 53 207 26 110 92 366 147 568 l100 368 443 847 443 847 123
315 c68 173 126 319 130 323 4 4 222 44 484 88 l477 79 300 140 301 140 279
-20 279 -21 235 136 234 135 478 0 478 0 705 84 705 83 565 291 565 291 550
181 550 181 580 38 580 38 545 -72 c300 -40 799 -99 1110 -131 l565 -57 505
61 505 60 399 196 399 195 133 243 134 243 -182 3 -183 2 -226 86 -226 86 -22
136 c-12 76 -23 145 -24 155 -1 13 26 33 108 76 l110 59 260 -72 260 -71 215
-127 c118 -70 217 -124 221 -120 3 4 43 232 89 507 l83 500 -35 587 -35 587
-260 446 -260 445 -204 145 -204 145 -115 -1 c-63 0 -230 -4 -370 -9 -240 -7
-275 -6 -590 22 l-335 30 -275 85 -275 85 -165 -28 -165 -29 -144 -87 c-79
-47 -149 -85 -155 -83 -6 3 -130 32 -276 66 l-265 61 -950 10 -950 10 -595
-202 c-327 -111 -604 -207 -615 -215 -11 -7 -212 -183 -446 -391 -234 -209
-432 -385 -441 -392 -8 -6 -201 -79 -427 -160 l-412 -149 -360 81 -360 81
-429 324 -428 324 -768 339 c-423 187 -1115 492 -1539 679 l-770 340 -2575
341 -2575 341 -975 -102 c-536 -56 -1483 -156 -2105 -221 -1068 -112 -1158
-120 -1635 -145 -278 -14 -971 -50 -1540 -79 l-1035 -54 -495 136 c-272 74
-496 136 -497 136 -1 1 76 541 172 1201 166 1141 181 1264 155 1280 -4 3 -81
-128 -171 -290 -90 -162 -164 -293 -166 -292 -1 1 32 340 72 752 l74 750 -191
913 c-105 502 -195 909 -198 905 -4 -5 -15 -181 -23 -393 -13 -300 -28 -498
-68 -900 -29 -283 -55 -518 -58 -522 -4 -4 -54 365 -113 820 l-106 828 -172
529 c-95 292 -177 535 -184 541 -10 11 -626 188 -631 182 -1 -2 15 -151 35
-333 20 -181 37 -331 36 -332 -1 -1 -104 171 -230 383 -126 211 -234 388 -240
393 -10 8 -268 83 -272 78 0 -1 68 -398 152 -882 l154 -880 -178 -1069 c-140
-843 -179 -1061 -184 -1030 -5 21 -48 584 -98 1249 -49 666 -92 1237 -95 1270
-5 50 -64 199 -329 830 l-323 770 -289 82 c-159 45 -291 80 -293 77 -2 -2 39
-243 92 -536 l96 -533 -10 -240 c-5 -132 -23 -575 -39 -984 -16 -409 -31 -745
-33 -747 -1 -2 -65 308 -140 689 l-137 692 -230 624 c-126 343 -232 627 -236
630 -3 3 -3 -25 1 -64 3 -38 19 -269 35 -512 l29 -442 -108 -778 c-195 -1391
-205 -1462 -208 -1459 -1 1 6 424 18 939 l20 936 -186 758 c-102 417 -200 819
-218 893 -22 93 -37 136 -47 137 -8 1 -179 -39 -380 -89z"/>
</g>
</svg>
