<?xml version="1.0" standalone="no"?>
<!DOCTYPE svg PUBLIC "-//W3C//DTD SVG 20010904//EN"
 "http://www.w3.org/TR/2001/REC-SVG-20010904/DTD/svg10.dtd">
<svg version="1.0" xmlns="http://www.w3.org/2000/svg"
 width="1536.000000pt" height="386.000000pt" viewBox="0 0 1536.000000 386.000000"
 preserveAspectRatio="xMidYMid meet">
<metadata>
Created by potrace 1.16, written by Peter Selinger 2001-2019
</metadata>
<g transform="translate(0.000000,386.000000) scale(0.100000,-0.100000)"
fill="#000000" stroke="none">
<path d="M1416 3849 c-80 -13 -146 -38 -227 -85 -42 -24 -84 -44 -95 -44 -10
0 -31 15 -45 33 -32 40 -74 53 -194 62 -128 9 -196 -5 -342 -71 -150 -69 -245
-134 -303 -206 -56 -71 -75 -109 -100 -207 -14 -56 -31 -96 -55 -127 -54 -70
-70 -159 -41 -227 16 -40 81 -97 145 -129 74 -36 232 -32 486 15 133 25 254
41 365 47 177 11 204 15 435 63 141 29 164 31 365 31 343 0 426 -21 795 -200
255 -123 334 -155 620 -253 l211 -72 23 -62 c27 -70 77 -151 112 -184 13 -12
45 -31 71 -43 37 -16 423 -115 713 -182 76 -18 88 -37 80 -128 -3 -36 -16
-114 -29 -173 -19 -88 -28 -114 -52 -138 -28 -30 -28 -31 -10 -45 25 -18 40
-18 75 0 37 20 57 52 77 125 30 108 38 74 31 -139 -6 -188 -5 -200 12 -200 25
0 60 41 71 81 4 19 14 89 21 157 7 68 15 119 20 115 14 -16 49 -160 49 -207 0
-39 3 -47 16 -44 9 2 26 16 38 31 32 44 29 142 -7 232 -27 65 -58 237 -46 250
3 3 102 -17 220 -44 118 -27 243 -56 279 -63 l65 -14 9 -180 c10 -200 3 -275
-39 -419 -65 -222 -122 -327 -204 -375 -31 -19 -103 -81 -161 -140 -96 -98
-111 -109 -180 -135 -41 -15 -160 -61 -263 -102 -178 -70 -381 -127 -532 -148
-67 -10 -116 -36 -154 -82 -48 -58 -40 -92 14 -57 35 23 98 36 106 22 4 -7 27
-13 51 -14 41 -2 43 -3 46 -34 l3 -32 30 28 c29 28 35 29 147 34 64 3 126 10
137 16 11 6 50 14 87 17 53 5 67 3 72 -8 9 -25 23 -17 30 17 3 17 17 46 31 64
34 45 153 86 386 133 144 30 201 46 249 72 89 47 98 62 230 355 95 209 142
287 259 428 114 136 163 215 194 310 12 38 33 81 47 95 l26 25 294 1 c214 1
333 6 434 19 76 9 139 16 141 14 1 -2 16 -24 33 -49 43 -64 140 -151 220 -197
90 -53 173 -84 331 -127 159 -43 197 -58 343 -131 147 -73 177 -98 258 -218
68 -101 94 -130 180 -198 25 -19 79 -82 120 -138 197 -269 253 -341 323 -416
41 -44 99 -96 129 -116 29 -19 87 -57 128 -84 68 -45 79 -49 135 -49 44 0 69
6 90 19 l30 20 -34 7 c-18 4 -50 15 -71 24 -35 16 -38 20 -28 39 32 62 32 66
-15 66 -25 0 -48 18 -128 100 -55 54 -99 105 -99 112 0 7 -34 45 -77 85 l-76
71 36 16 c58 24 50 35 -33 51 -102 21 -158 87 -231 273 -23 59 -48 121 -57
137 -8 17 -92 109 -187 205 -185 189 -218 229 -315 390 -43 70 -90 131 -142
183 -59 58 -77 83 -73 97 7 21 109 106 204 170 197 132 439 198 836 230 312
25 713 73 955 115 525 92 1027 199 1555 332 771 194 871 215 1235 268 381 54
919 85 1159 66 201 -16 463 -77 723 -167 417 -145 755 -327 1033 -559 83 -70
115 -88 115 -66 0 19 -76 105 -153 172 -371 321 -819 541 -1530 748 -324 95
-695 145 -1157 158 -267 7 -503 -6 -870 -47 -364 -41 -927 -88 -1210 -101
-346 -16 -1007 -6 -1299 20 -583 52 -755 72 -1059 126 -248 45 -770 119 -967
139 -144 15 -245 22 -925 66 -542 35 -768 42 -1110 37 -444 -6 -670 -34 -1165
-144 l-250 -55 -195 5 c-321 9 -591 66 -1032 218 -496 171 -586 199 -685 214
-105 16 -257 18 -337 4z"/>
</g>
</svg>
