<?xml version="1.0" standalone="no"?>
<!DOCTYPE svg PUBLIC "-//W3C//DTD SVG 20010904//EN"
 "http://www.w3.org/TR/2001/REC-SVG-20010904/DTD/svg10.dtd">
<svg version="1.0" xmlns="http://www.w3.org/2000/svg"
 width="1022.000000pt" height="534.000000pt" viewBox="0 0 1022.000000 534.000000"
 preserveAspectRatio="xMidYMid meet">
<metadata>
Created by potrace 1.16, written by Peter Selinger 2001-2019
</metadata>
<g transform="translate(0.000000,534.000000) scale(0.100000,-0.100000)"
fill="#000000" stroke="none">
<path d="M5240 5239 c102 -49 230 -112 285 -139 99 -50 99 -50 53 -45 -57 6
-62 -7 -10 -28 20 -8 91 -41 157 -72 66 -31 134 -62 150 -70 17 -7 80 -37 140
-66 61 -28 209 -96 330 -150 147 -66 229 -109 250 -130 l30 -31 -40 18 c-400
171 -623 239 -887 268 -123 13 -148 10 -148 -19 0 -7 209 -117 465 -245 256
-127 463 -236 459 -241 -3 -5 -18 -9 -34 -9 -47 0 -151 -43 -207 -85 -29 -22
-53 -43 -53 -47 0 -28 112 -33 295 -12 37 4 80 -2 167 -25 103 -27 125 -37
201 -90 186 -130 292 -219 307 -257 5 -12 25 -47 45 -78 34 -53 65 -73 65 -41
0 8 4 15 10 15 11 0 167 -184 192 -228 l17 -29 -68 -46 c-37 -26 -78 -47 -90
-47 -23 0 -119 46 -185 88 -53 34 -176 126 -296 222 -217 173 -461 345 -559
394 -63 32 -334 129 -461 165 -209 58 -355 64 -660 23 -85 -11 -227 -28 -315
-37 -233 -23 -362 -48 -615 -120 -115 -32 -458 -144 -483 -157 -10 -5 -75 -29
-145 -53 l-127 -44 -65 63 c-36 35 -76 68 -90 75 l-25 12 25 -18 c45 -32 85
-72 73 -73 -6 0 -15 5 -18 10 -4 6 -11 8 -16 5 -5 -4 -9 -1 -9 6 0 7 -3 9 -7
6 -3 -4 -11 -1 -17 7 -20 24 -99 48 -158 47 -38 0 -57 4 -55 12 1 6 -4 11 -12
12 -7 0 -24 20 -38 45 -13 25 -21 36 -17 25 4 -11 7 -31 8 -45 1 -14 6 -31 10
-38 4 -7 2 -12 -6 -13 -7 0 -4 -4 7 -9 11 -5 15 -9 8 -9 -18 -1 -83 31 -83 41
0 4 -5 8 -12 8 -6 0 -26 12 -45 26 -19 14 -37 24 -39 21 -3 -3 8 -13 25 -23
21 -12 27 -21 19 -25 -14 -9 -6 -12 46 -24 15 -3 26 -8 23 -11 -11 -11 -89 16
-108 37 l-20 24 17 -27 16 -28 -56 0 c-51 0 -74 12 -43 23 6 2 3 3 -8 1 -10
-2 -28 4 -39 14 -11 9 -16 11 -12 5 9 -16 -8 -17 -36 -2 -11 6 -22 8 -25 5 -3
-3 6 -10 21 -16 15 -5 24 -15 21 -20 -5 -8 -11 -7 -21 1 -12 10 -15 10 -12 -1
3 -13 -2 -16 -38 -19 -8 0 -13 -5 -10 -9 3 -5 -4 -16 -14 -25 -12 -10 -22 -12
-26 -6 -3 6 -10 6 -17 1 -7 -5 -33 -9 -59 -8 -48 1 -48 1 -25 -17 22 -18 21
-18 -11 -2 -18 9 -30 20 -27 25 3 5 -3 15 -13 22 -9 7 -23 24 -30 38 -7 14
-10 17 -8 8 3 -10 0 -18 -6 -18 -7 0 -6 -5 3 -12 16 -13 49 -63 49 -73 0 -4
-5 -3 -10 0 -6 3 -13 -1 -17 -10 -9 -24 -59 -12 -97 23 -20 18 -27 21 -23 10
17 -45 19 -53 6 -33 -6 11 -19 28 -27 38 -15 17 -17 17 -34 -5 -10 -13 -17
-16 -15 -8 2 8 2 12 0 8 -3 -5 -14 -3 -26 3 -17 8 -16 5 6 -16 16 -14 34 -22
40 -19 9 5 9 4 1 -5 -19 -21 -70 -2 -88 32 -15 30 -15 20 1 -19 5 -15 0 -16
-45 -12 -29 3 -52 1 -52 -3 0 -5 18 -9 40 -9 22 0 40 -4 40 -9 0 -14 -37 -20
-49 -8 -8 8 -14 8 -21 -1 -6 -6 -7 -10 -4 -7 11 8 34 -16 34 -34 0 -13 -2 -13
-9 -2 -5 8 -22 15 -38 16 l-28 2 27 -10 c15 -6 30 -17 32 -24 4 -10 1 -11 -14
-3 -28 15 -37 12 -14 -5 17 -13 18 -14 1 -15 -28 0 -87 28 -93 45 -3 8 -11 15
-17 15 -5 0 -2 -10 9 -21 19 -22 19 -22 -6 -14 -14 4 -30 13 -36 21 -9 11 -13
12 -16 2 -5 -15 23 -46 38 -41 5 1 20 -6 34 -17 20 -15 22 -22 13 -31 -14 -14
-43 4 -43 28 0 8 -4 12 -9 9 -4 -3 -19 6 -31 19 -13 14 -19 25 -14 26 5 0 -1
4 -14 10 -13 5 -20 13 -17 19 4 6 -5 10 -22 9 -22 0 -24 -2 -10 -8 10 -4 19
-11 20 -16 1 -6 14 -21 29 -33 15 -13 28 -30 28 -38 0 -8 5 -14 11 -14 5 0 8
-4 4 -10 -3 -6 -15 -5 -31 2 -23 11 -24 13 -7 20 12 5 4 7 -22 6 -23 -1 -47 2
-55 7 -8 5 -11 4 -7 -2 9 -15 -13 -22 -49 -16 -20 3 -25 2 -15 -5 11 -8 11
-11 0 -16 -8 -3 -4 -3 8 0 13 3 32 -1 43 -9 20 -14 20 -15 -9 -19 -17 -3 -29
-2 -26 0 2 3 -12 13 -32 23 -21 11 -39 15 -43 10 -7 -12 -103 20 -133 45 -21
18 -21 18 1 -8 l24 -26 -79 -7 c-94 -8 -101 -10 -133 -35 -24 -20 -25 -21 -6
-35 17 -13 22 -13 42 0 27 18 34 19 34 5 0 -5 -11 -12 -25 -16 -27 -7 -34 -24
-10 -24 8 0 15 5 15 10 0 6 12 10 26 10 14 0 23 -4 20 -9 -8 -12 23 -23 37
-14 7 4 6 -1 -2 -10 -16 -20 -25 -21 -43 -4 -7 7 -37 13 -67 14 -29 1 -72 11
-95 23 -51 24 -78 26 -69 5 5 -14 2 -14 -23 -3 -16 7 -40 20 -53 30 -26 20
-41 23 -41 8 0 -5 15 -17 33 -26 44 -23 102 -74 83 -74 -8 0 -17 4 -20 8 -3 5
-22 9 -43 10 l-38 1 30 -13 c28 -12 29 -13 9 -20 -12 -4 -26 -6 -30 -5 -5 2
-27 -3 -50 -10 -36 -12 -45 -11 -70 3 -29 17 -12 17 31 1 34 -14 11 4 -27 19
-29 13 -36 13 -34 2 3 -20 32 -46 53 -46 15 0 14 -4 -7 -21 -14 -11 -19 -17
-11 -13 9 5 12 3 7 -4 -5 -9 -14 -7 -31 5 -16 13 -19 21 -11 26 7 6 6 7 -4 4
-8 -2 -28 2 -44 10 -15 8 -25 10 -22 4 4 -6 3 -11 -3 -11 -5 0 -13 5 -16 10
-10 16 -25 12 -19 -5 3 -8 13 -17 23 -20 9 -3 25 -20 36 -37 21 -38 28 -42
-90 57 -88 74 -117 94 -51 35 130 -116 123 -108 102 -116 -14 -5 -26 0 -44 22
-18 21 -24 23 -18 9 4 -13 -10 -3 -41 25 -26 25 -39 35 -29 23 25 -30 5 -30
-37 -1 -39 26 -26 12 31 -36 24 -20 48 -33 53 -30 5 3 9 0 9 -5 0 -6 -9 -11
-19 -11 -11 0 -22 -4 -25 -8 -3 -5 9 -7 27 -5 28 2 28 1 -6 -7 -33 -9 -43 -7
-70 12 -18 12 -35 26 -38 31 -3 4 -12 9 -20 10 -8 2 -21 6 -29 11 -8 4 3 -9
25 -29 l40 -37 -33 6 c-18 3 -48 17 -66 31 -18 14 -37 25 -42 25 -5 0 13 -16
40 -35 27 -19 46 -35 42 -35 -11 0 -70 31 -88 47 -9 8 -23 13 -30 11 -7 -3 5
-14 28 -26 43 -22 72 -66 52 -78 -7 -4 -8 -3 -4 5 8 12 -3 18 -51 25 -17 2
-37 7 -43 11 -7 4 -4 -4 5 -19 10 -14 25 -26 34 -26 14 0 14 -2 1 -10 -8 -5
-22 -10 -30 -10 -12 0 -12 2 -2 9 11 6 10 10 -4 15 -9 4 -22 2 -28 -4 -7 -7
-5 -10 4 -11 8 0 5 -4 -8 -10 -17 -6 -33 -4 -63 11 -21 11 -39 26 -39 32 0 6
-3 8 -7 5 -3 -4 2 -16 12 -27 16 -18 16 -20 2 -15 -27 11 -43 -6 -22 -22 17
-12 15 -13 -18 -13 -23 0 -44 7 -56 19 -11 11 -22 17 -25 14 -3 -3 -12 0 -21
7 -9 7 -18 11 -20 8 -3 -3 6 -10 19 -18 28 -14 43 -57 26 -74 -6 -6 -21 -11
-33 -12 -12 0 -35 -2 -52 -3 l-30 -3 30 -13 c17 -8 37 -14 45 -14 13 -1 13 1
0 10 -12 9 -11 9 5 4 45 -16 56 -17 69 -6 12 10 14 9 12 -6 -2 -10 4 -21 13
-24 11 -4 1 -11 -29 -20 -25 -7 -48 -13 -52 -13 -4 -1 -16 -9 -28 -18 -31 -27
-24 -3 12 39 18 21 25 32 15 24 -11 -9 -21 -10 -30 -4 -6 5 -32 15 -56 22 -23
7 -50 15 -60 17 -9 3 -5 -2 9 -10 14 -8 33 -15 43 -16 20 0 22 -11 5 -29 -8
-8 -3 -7 12 2 16 10 30 13 39 8 11 -7 10 -13 -5 -35 -11 -14 -26 -26 -34 -27
-8 0 -2 -5 14 -9 20 -7 35 -5 52 7 14 8 31 12 41 8 17 -6 17 -7 -1 -21 -11 -8
-28 -14 -39 -14 -10 0 -15 -5 -12 -11 4 -6 1 -10 -6 -8 -8 1 -34 0 -59 -1
l-45 -2 34 -8 c31 -7 58 -3 104 15 12 5 16 3 12 -6 -4 -11 5 -13 41 -10 32 2
44 0 40 -8 -4 -6 -3 -11 3 -11 5 0 11 4 13 9 1 5 17 12 33 16 23 5 26 4 15 -4
-12 -8 -7 -11 23 -11 20 0 37 -4 37 -8 0 -5 27 -6 60 -4 34 2 60 0 60 -5 0 -5
-14 -22 -31 -39 -17 -16 -44 -47 -61 -69 -17 -22 1 -7 39 34 l69 74 139 -11
c77 -6 277 -16 445 -22 300 -10 671 -28 740 -35 19 -2 134 -9 255 -15 121 -6
238 -16 260 -22 97 -25 295 -164 581 -408 90 -78 164 -142 164 -143 1 -1 9
-49 19 -107 l19 -105 -22 -14 c-11 -8 -50 -44 -86 -80 -49 -50 -86 -103 -149
-216 -104 -184 -141 -240 -223 -333 -35 -40 -81 -105 -101 -145 -45 -86 -47
-129 -17 -287 25 -131 25 -219 1 -337 -15 -73 -26 -101 -53 -133 -31 -40 -33
-47 -36 -135 -6 -143 9 -162 163 -214 105 -36 157 -39 203 -11 40 24 50 25 93
3 63 -33 231 -20 355 26 30 12 64 21 74 21 39 0 15 69 -54 153 -33 40 -43 46
-99 57 -65 13 -142 51 -221 109 l-46 35 0 157 c0 87 5 182 11 211 14 65 46 97
162 164 45 26 156 91 247 144 227 134 243 143 361 190 161 64 244 131 265 214
3 14 8 26 10 26 11 0 238 -96 253 -107 2 -2 -4 -12 -14 -23 -10 -11 -30 -57
-45 -102 -27 -80 -27 -84 -12 -138 20 -69 87 -154 179 -228 98 -77 143 -121
143 -137 0 -8 -12 -21 -27 -30 -38 -23 -103 -135 -103 -178 0 -27 9 -44 40
-76 22 -22 40 -45 40 -50 0 -5 20 -31 45 -59 48 -53 98 -72 138 -50 16 8 22 7
30 -8 16 -30 98 -104 115 -104 9 0 36 -10 60 -22 l45 -21 24 27 c25 30 49 30
120 1 38 -16 43 -8 43 66 0 76 -26 144 -71 182 -20 18 -41 45 -44 60 -4 15
-13 31 -21 35 -18 10 -44 86 -44 129 0 37 -26 103 -41 103 -5 0 -9 7 -9 15 0
9 -20 55 -44 104 -40 80 -53 94 -135 162 -82 68 -87 74 -63 77 15 2 72 17 126
33 l99 29 139 -20 c148 -21 457 -40 676 -40 115 0 134 -2 139 -17 7 -17 -20
-132 -82 -352 -50 -178 -75 -329 -75 -446 0 -84 3 -105 21 -135 28 -46 65 -82
116 -113 23 -15 44 -35 48 -47 8 -26 42 -34 115 -27 45 4 61 1 74 -12 21 -21
216 -24 216 -3 0 6 9 12 20 12 27 0 27 40 -1 97 -24 49 -59 77 -109 88 -19 4
-54 19 -78 32 -48 29 -47 7 -11 202 23 122 46 208 59 216 13 8 162 -91 300
-199 318 -249 383 -287 512 -294 64 -4 78 -8 83 -23 3 -10 24 -40 46 -66 21
-26 39 -58 39 -71 0 -30 41 -71 79 -78 17 -4 33 -16 40 -30 13 -30 68 -64 102
-64 14 0 29 -3 33 -7 4 -4 32 -9 61 -10 30 -1 72 -11 95 -22 32 -15 40 -16 40
-5 0 20 27 29 44 15 22 -18 30 4 30 79 0 49 -6 77 -22 108 -12 24 -22 56 -22
73 0 42 -15 65 -58 93 -51 33 -169 151 -177 177 -12 37 -126 141 -219 199
-160 101 -319 230 -531 433 -68 65 -137 160 -124 171 2 2 42 13 88 25 113 28
209 88 279 175 59 72 116 196 127 272 9 61 68 156 127 204 37 31 63 41 199 74
137 33 175 47 300 110 236 119 468 266 595 377 62 53 122 100 133 104 11 3 37
1 58 -4 21 -6 99 -11 173 -11 113 0 145 3 197 22 l62 21 88 -19 c72 -16 137
-20 357 -22 243 -2 277 -1 349 18 102 25 258 100 377 180 l93 63 44 -22 c24
-11 46 -21 48 -21 10 0 4 114 -11 217 -19 127 -53 242 -100 335 -44 87 -147
197 -211 225 -174 78 -238 106 -240 107 -1 1 9 36 23 77 43 126 102 359 124
489 11 69 25 150 30 180 35 200 13 710 -29 710 -5 0 -11 -42 -14 -92 -16 -269
-190 -664 -494 -1120 -116 -176 -104 -168 -217 -147 -145 26 -222 64 -351 174
-82 69 -102 74 -157 42 -35 -20 -67 -27 -172 -37 -143 -13 -195 -9 -335 26
-136 35 -305 111 -566 254 -112 62 -174 88 -268 116 -67 20 -156 48 -197 63
-41 15 -97 35 -125 44 -30 10 -70 35 -101 63 -74 68 -517 298 -789 409 -303
125 -833 286 -932 285 -19 -1 29 -29 157 -91z m-2475 -1330 c11 -17 -1 -21
-15 -4 -8 9 -8 15 -2 15 6 0 14 -5 17 -11z m409 -5 c4 -10 2 -13 -6 -8 -7 4
-8 3 -4 -5 4 -6 12 -9 17 -5 5 3 7 10 4 15 -11 16 25 22 64 10 44 -13 128 -82
128 -105 0 -9 -1 -16 -2 -16 -13 0 -95 34 -91 37 3 3 19 0 35 -7 42 -17 59 -8
26 14 -15 10 -24 12 -20 5 6 -9 3 -10 -11 -4 -10 4 -30 10 -44 13 -14 2 -34
12 -44 21 -11 9 -16 10 -12 4 8 -15 -10 -18 -19 -3 -3 5 -12 7 -19 4 -8 -3
-17 0 -21 5 -3 6 -11 9 -16 6 -5 -3 -6 1 -3 9 3 9 10 13 15 10 5 -3 9 0 9 5 0
16 7 13 14 -5z m-261 -14 c-5 -20 -23 -28 -23 -10 0 6 -7 10 -16 10 -8 0 -12
5 -9 10 3 6 17 10 30 10 18 0 22 -4 18 -20z m74 14 c-3 -3 -12 -4 -19 -1 -8 3
-5 6 6 6 11 1 17 -2 13 -5z m-302 -24 c3 -5 2 -10 -4 -10 -5 0 -13 5 -16 10
-3 6 -2 10 4 10 5 0 13 -4 16 -10z m-375 -35 c18 -22 4 -31 -18 -12 -10 10
-22 14 -27 10 -4 -5 -5 -2 -1 5 10 16 31 15 46 -3z m285 -6 c2 -9 -3 -16 -10
-16 -7 0 -11 6 -8 14 4 9 0 11 -13 7 -16 -5 -16 -4 -4 5 19 13 33 9 35 -10z
m89 14 c4 -5 13 -8 19 -8 5 0 12 -7 14 -15 4 -13 3 -13 -6 0 -8 12 -11 12 -11
1 0 -10 -3 -11 -13 -2 -8 6 -16 9 -19 6 -2 -3 -5 2 -5 10 0 16 9 19 21 8z
m714 -9 c11 7 35 -19 38 -40 3 -16 -43 13 -67 43 -13 16 -12 17 3 5 9 -8 21
-11 26 -8z m-763 -4 c3 -6 -1 -7 -9 -4 -18 7 -21 14 -7 14 6 0 13 -4 16 -10z
m515 -20 c8 -5 11 -10 5 -10 -5 0 -17 5 -25 10 -8 5 -10 10 -5 10 6 0 17 -5
25 -10z m-625 -10 c3 -5 -1 -10 -10 -10 -9 0 -13 5 -10 10 3 6 8 10 10 10 2 0
7 -4 10 -10z m-240 -10 c3 -5 2 -10 -4 -10 -5 0 -13 5 -16 10 -3 6 -2 10 4 10
5 0 13 -4 16 -10z m83 3 c-10 -3 -15 -10 -11 -20 5 -13 3 -14 -18 -3 -23 13
-23 13 -4 21 11 4 27 7 35 7 11 0 10 -2 -2 -5z m-153 -13 c3 -5 1 -10 -4 -10
-6 0 -11 5 -11 10 0 6 2 10 4 10 3 0 8 -4 11 -10z m253 -5 c3 -3 -4 -4 -16 -2
-12 2 -24 6 -28 10 -4 3 4 4 16 2 12 -2 25 -7 28 -10z m-48 -9 c0 -2 -7 -7
-16 -10 -8 -3 -12 -2 -9 4 6 10 25 14 25 6z m-195 -15 c-3 -2 0 -10 6 -18 9
-10 7 -13 -8 -13 -19 0 -43 17 -43 32 0 4 11 7 25 6 13 -1 22 -4 20 -7z m46
-13 c22 -27 24 -39 5 -32 -13 5 -41 54 -30 54 3 0 14 -10 25 -22z m24 2 c10
-11 16 -20 13 -20 -3 0 -13 9 -23 20 -10 11 -16 20 -13 20 3 0 13 -9 23 -20z
m-270 -38 c-6 -7 -34 11 -29 19 3 5 11 3 19 -4 7 -6 12 -13 10 -15z m160 10
c-3 -3 -11 0 -18 7 -9 10 -8 11 6 5 10 -3 15 -9 12 -12z m76 -19 c13 -17 13
-17 -6 -3 -11 8 -22 16 -24 17 -2 2 0 3 6 3 6 0 17 -8 24 -17z m-631 -22 c0
-5 14 -11 32 -15 17 -3 29 -9 25 -12 -10 -10 -65 7 -71 22 -3 8 -1 14 4 14 6
0 10 -4 10 -9z m216 0 c-3 -5 1 -12 10 -15 9 -4 14 -9 11 -12 -3 -3 -15 0 -26
8 -12 8 -18 18 -14 21 10 10 25 8 19 -2z m-241 -10 c3 -6 -10 -7 -32 -4 -50 8
-55 13 -10 13 20 0 38 -4 42 -9z m452 -7 c-3 -3 -12 -4 -19 -1 -8 3 -5 6 6 6
11 1 17 -2 13 -5z m-537 -21 c2 -2 -6 -6 -18 -10 -21 -5 -21 -6 -5 -19 25 -19
2 -17 -25 2 -12 8 -20 20 -17 25 4 5 -3 9 -14 9 -12 0 -21 -7 -21 -15 0 -8 -9
-15 -20 -15 -27 0 -25 18 3 30 20 8 105 3 117 -7z m403 5 c-2 -5 -10 -8 -18
-8 -8 0 -16 3 -18 8 -3 4 5 7 18 7 13 0 21 -3 18 -7z m297 -4 c0 -2 -7 -4 -15
-4 -8 0 -15 4 -15 10 0 5 7 7 15 4 8 -4 15 -8 15 -10z m-613 -16 c7 -6 20 -7
29 -4 14 5 15 4 4 -9 -13 -16 -45 -21 -36 -6 11 17 -49 20 -69 3 -20 -17 -20
-17 -2 4 9 11 15 23 12 26 -10 9 49 -4 62 -14z m-7 -44 c0 -2 -9 0 -20 6 -11
6 -20 13 -20 16 0 2 9 0 20 -6 11 -6 20 -13 20 -16z m-326 -3 c3 -5 15 -7 26
-4 20 5 57 -22 41 -31 -5 -3 -14 1 -21 10 -7 8 -19 13 -26 10 -6 -2 -20 2 -31
9 -10 8 -13 15 -6 15 6 0 14 -4 17 -9z m-35 -52 c24 -9 29 -14 19 -20 -9 -6
-6 -9 12 -9 20 -1 78 -30 58 -30 -19 0 -91 32 -110 50 -25 23 -23 24 21 9z
m191 1 c-8 -5 -22 -9 -30 -9 -10 0 -8 3 5 9 27 12 43 12 25 0z m-280 -25 c10
-12 10 -15 -2 -15 -8 0 -15 7 -15 15 0 8 1 15 2 15 2 0 8 -7 15 -15z m46 6
c-4 -5 0 -12 6 -15 7 -3 4 -5 -6 -3 -24 3 -34 27 -11 27 9 0 14 -4 11 -9z
m-236 -36 c7 -8 8 -15 2 -15 -5 0 -15 7 -22 15 -7 8 -8 15 -2 15 5 0 15 -7 22
-15z m150 -5 c-8 -5 -19 -10 -25 -10 -5 0 -3 5 5 10 8 5 20 10 25 10 6 0 3 -5
-5 -10z m-380 -100 c0 -5 -7 -7 -15 -4 -8 4 -15 8 -15 10 0 2 7 4 15 4 8 0 15
-4 15 -10z m107 4 c-3 -3 -12 -4 -19 -1 -8 3 -5 6 6 6 11 1 17 -2 13 -5z m13
-24 c0 -5 -2 -10 -4 -10 -3 0 -8 5 -11 10 -3 6 -1 10 4 10 6 0 11 -4 11 -10z
m-516 -92 c-3 -4 2 -8 10 -8 8 0 17 -4 21 -9 3 -6 -3 -9 -12 -9 -10 1 -29 -2
-43 -7 -23 -7 -23 -7 -6 10 14 14 15 20 4 26 -9 6 -6 8 9 6 12 0 19 -5 17 -9z
m110 -27 c4 -5 -3 -7 -14 -4 -23 6 -26 13 -6 13 8 0 17 -4 20 -9z m-100 -109
c2 -4 -4 -8 -14 -8 -10 0 -16 4 -14 8 3 4 9 8 14 8 5 0 11 -4 14 -8z m70 -34
c-6 -10 -4 -10 7 -2 21 15 72 17 67 1 -6 -15 -66 -19 -91 -5 -14 7 -17 7 -13
-1 9 -14 -15 -23 -51 -19 l-28 3 35 17 c42 21 85 24 74 6z"/>
<path d="M3230 3896 c0 -2 7 -7 16 -10 8 -3 12 -2 9 4 -6 10 -25 14 -25 6z"/>
<path d="M3270 3876 c0 -3 9 -10 20 -16 11 -6 20 -8 20 -6 0 3 -9 10 -20 16
-11 6 -20 8 -20 6z"/>
<path d="M3400 3836 c0 -2 8 -10 18 -17 15 -13 16 -12 3 4 -13 16 -21 21 -21
13z"/>
<path d="M3183 3963 c9 -2 25 -2 35 0 9 3 1 5 -18 5 -19 0 -27 -2 -17 -5z"/>
<path d="M2558 3927 c24 -13 41 -25 38 -28 -3 -3 4 -5 14 -6 33 -3 22 11 -29
35 -62 29 -79 28 -23 -1z"/>
<path d="M2400 3892 c0 -12 39 -60 40 -49 0 5 -9 20 -20 34 -11 14 -20 21 -20
15z"/>
<path d="M1973 3793 c9 -2 25 -2 35 0 9 3 1 5 -18 5 -19 0 -27 -2 -17 -5z"/>
<path d="M1775 3775 c-39 -17 -21 -18 25 0 19 7 28 14 20 14 -8 0 -28 -6 -45
-14z"/>
<path d="M1048 3578 c6 -6 18 -8 28 -6 14 3 12 5 -9 10 -19 3 -25 2 -19 -4z"/>
<path d="M1108 3563 c7 -3 16 -2 19 1 4 3 -2 6 -13 5 -11 0 -14 -3 -6 -6z"/>
<path d="M329 3346 c13 -16 12 -17 -15 -11 l-29 6 33 -18 c44 -23 65 -4 25 22
-25 17 -27 17 -14 1z"/>
<path d="M205 3269 c11 -7 26 -19 33 -26 16 -15 29 -17 36 -4 5 8 -8 15 -69
36 l-20 7 20 -13z"/>
<path d="M300 3175 c-7 -8 -19 -15 -26 -15 -8 0 -14 -4 -14 -10 0 -14 48 9 54
26 7 18 1 18 -14 -1z"/>
<path d="M138 3093 c7 -3 16 -2 19 1 4 3 -2 6 -13 5 -11 0 -14 -3 -6 -6z"/>
<path d="M21 3080 c9 -5 36 -12 60 -15 42 -5 41 -4 -11 10 -65 17 -70 17 -49
5z"/>
<path d="M88 3083 c6 -2 18 -2 25 0 6 3 1 5 -13 5 -14 0 -19 -2 -12 -5z"/>
<path d="M228 3029 c-22 -16 -31 -18 -48 -9 -12 7 -24 9 -28 6 -3 -3 0 -6 6
-6 6 0 17 -7 25 -15 13 -13 19 -11 48 15 39 34 37 39 -3 9z"/>
<path d="M421 2990 c1 -15 3 -18 6 -9 2 9 14 21 26 27 21 9 21 10 -5 8 -23 -1
-28 -5 -27 -26z"/>
<path d="M248 2993 c7 -3 16 -2 19 1 4 3 -2 6 -13 5 -11 0 -14 -3 -6 -6z"/>
</g>
</svg>
