<?xml version="1.0" standalone="no"?>
<!DOCTYPE svg PUBLIC "-//W3C//DTD SVG 20010904//EN"
 "http://www.w3.org/TR/2001/REC-SVG-20010904/DTD/svg10.dtd">
<svg version="1.0" xmlns="http://www.w3.org/2000/svg"
 width="6470.000000pt" height="3171.000000pt" viewBox="0 0 6470.000000 3171.000000"
 preserveAspectRatio="xMidYMid meet">
<metadata>
Created by potrace 1.16, written by Peter Selinger 2001-2019
</metadata>
<g transform="translate(0.000000,3171.000000) scale(0.100000,-0.100000)"
fill="#000000" stroke="none">
<path d="M55113 31342 c-425 -202 -779 -374 -787 -382 -7 -8 -212 -311 -455
-672 l-441 -657 -100 -1060 -100 -1061 330 -850 330 -850 409 -599 410 -599
11 -341 11 -342 -291 -299 c-160 -165 -299 -301 -308 -304 -9 -3 -1123 -271
-2475 -596 l-2458 -590 -2459 -410 -2459 -410 -1113 -276 c-612 -152 -1131
-285 -1153 -297 -22 -11 -932 -498 -2022 -1083 l-1983 -1064 -2895 -2670
-2895 -2670 -2910 -2115 -2910 -2115 -2520 -1125 -2520 -1125 -1740 -255
-1740 -255 -1621 195 -1620 195 -2084 480 -2083 480 -2041 60 -2040 60 -2146
-345 -2145 -345 -968 -401 c-532 -221 -973 -407 -980 -413 -13 -13 -151 -229
-148 -233 2 -2 508 98 1127 222 l1124 225 1978 -75 1979 -75 1979 -390 1980
-390 2190 -780 2190 -780 1739 -300 1740 -300 2010 105 2011 105 2774 630
2775 630 3809 1440 3810 1440 2040 915 2041 915 962 60 963 61 213 48 213 48
210 -174 c115 -95 209 -176 209 -179 0 -2 9 -141 20 -308 l20 -303 -120 -492
-120 -492 -50 -507 -50 -507 -91 -305 -90 -304 -432 -625 -431 -625 -407 -459
-406 -459 -13 -383 -13 -383 162 -221 163 -222 159 -477 159 -477 90 -500 90
-500 -60 -353 -60 -354 66 -74 66 -74 1582 0 1581 0 84 52 83 51 -5 37 -5 37
178 7 178 7 228 -66 c203 -60 234 -66 282 -60 l55 7 -139 139 -139 139 -300
100 -300 100 -218 9 -219 10 -71 54 c-40 29 -77 56 -84 60 -7 4 -197 41 -422
82 l-410 75 -360 172 -361 172 50 93 c28 52 50 98 50 103 0 4 -124 195 -275
424 l-275 415 -30 472 c-17 260 -27 476 -23 479 5 4 54 44 111 89 119 96 108
50 91 371 l-12 215 287 505 c158 278 297 514 309 526 12 12 311 231 664 487
l641 466 874 516 c480 284 878 521 885 528 6 7 199 396 427 865 l417 854 -21
385 c-11 212 -19 387 -18 389 2 1 77 -95 168 -214 189 -248 95 -165 840 -739
l465 -358 302 -452 303 -452 285 -797 286 -796 73 -355 c41 -195 78 -359 83
-363 4 -5 149 -88 321 -185 l313 -176 274 31 273 31 467 -16 c458 -16 469 -17
631 -49 91 -18 166 -35 169 -37 2 -2 41 -69 88 -148 l84 -145 124 -28 124 -29
49 21 c27 11 53 17 57 13 4 -5 31 -61 58 -126 43 -100 51 -129 52 -185 1 -37
4 -95 8 -129 l6 -62 84 146 83 147 -7 129 -7 130 84 -45 c45 -25 140 -76 211
-113 l127 -67 64 25 65 25 28 -82 28 -81 150 -53 150 -53 98 17 c87 15 98 20
103 41 4 12 10 23 15 23 5 0 47 -14 92 -31 79 -30 88 -37 222 -169 107 -105
155 -146 204 -170 34 -17 65 -29 67 -27 3 2 -10 57 -28 121 l-33 117 -153 192
-154 192 -90 48 c-49 27 -88 50 -86 52 2 1 46 -4 100 -12 95 -14 99 -13 258
16 90 17 165 32 167 35 3 2 13 37 23 76 10 39 20 73 22 75 2 1 47 -28 100 -66
l97 -69 248 40 c136 22 260 43 275 46 17 3 47 29 79 65 48 56 50 61 40 91 -6
17 -10 33 -8 34 2 2 95 13 208 25 l206 22 146 -36 c81 -21 155 -37 164 -37 10
0 51 11 92 23 l74 23 -115 80 -114 81 -250 63 -249 63 -223 12 c-219 12 -223
13 -250 38 -27 26 -31 27 -435 62 l-408 35 -447 169 -447 168 -85 141 c-47 78
-88 143 -91 146 -3 3 -116 -16 -251 -43 -229 -46 -270 -51 -603 -76 l-358 -26
-453 151 -453 151 -11 57 c-33 159 -38 184 -45 190 -3 4 -54 32 -113 62 l-106
55 -208 297 -208 297 -195 811 -195 811 45 793 45 793 -75 662 -75 661 -235
414 c-129 228 -238 421 -241 430 -5 13 127 82 698 365 l704 348 1605 1233
c882 678 1610 1237 1617 1243 13 10 66 -35 280 -240 l103 -98 65 -455 64 -455
-40 -744 -40 -743 30 -337 c24 -275 33 -463 50 -1031 l21 -695 51 -52 51 -52
44 -348 c39 -314 48 -368 96 -547 l54 -200 6 145 c4 79 7 254 8 389 0 135 4
286 7 335 l7 91 78 92 78 91 -21 190 -20 189 20 130 c17 109 20 182 21 444 l1
313 132 -520 132 -520 166 -340 165 -340 59 3 59 2 193 -313 192 -313 231
-209 c312 -283 300 -274 246 -184 -363 602 -516 872 -560 987 l-47 124 25 149
25 149 -160 190 -160 189 0 80 c0 78 -4 92 -130 441 l-130 360 30 130 30 130
-35 371 c-20 204 -35 381 -33 392 2 10 35 -116 75 -281 l72 -300 179 -399 179
-398 54 -29 54 -29 91 -187 91 -188 351 -281 351 -281 342 -85 c188 -47 343
-84 346 -82 2 2 -105 67 -238 143 l-241 139 -263 270 -263 270 -116 274 c-64
150 -116 282 -116 291 0 10 9 38 21 64 l20 46 -21 181 -20 180 -160 179 -160
179 0 201 c0 193 -1 208 -35 362 -20 89 -34 166 -32 171 2 6 123 -120 270
-279 l267 -289 276 -462 c213 -358 286 -472 324 -507 40 -38 59 -70 114 -191
65 -143 71 -151 278 -415 116 -148 213 -268 215 -267 1 2 -54 136 -123 298
-109 257 -184 465 -184 511 0 8 16 34 37 57 l36 43 -13 158 -12 157 -93 109
c-88 103 -97 118 -188 316 -88 189 -108 223 -226 388 -72 99 -128 180 -126
180 3 0 93 -65 200 -144 106 -80 382 -306 611 -503 402 -344 420 -358 465
-363 47 -5 53 -10 321 -271 l273 -266 195 -102 c107 -57 233 -123 280 -148
l85 -45 -352 349 c-198 196 -387 392 -432 450 l-81 102 0 78 0 78 -208 267
-207 268 -385 279 -385 280 -265 302 c-146 166 -266 305 -268 309 -2 4 113
-29 255 -74 l259 -82 236 -162 c145 -100 245 -162 259 -162 13 1 83 13 154 28
l130 27 3 78 c3 68 5 77 22 77 10 0 76 -5 146 -11 l127 -11 221 -150 c122 -83
228 -157 238 -165 9 -8 118 -172 244 -364 125 -192 229 -348 231 -346 2 2 -2
59 -7 127 l-11 123 -133 316 -134 316 -284 272 -285 272 -239 33 -239 33 -20
39 c-19 37 -30 43 -205 119 -102 44 -381 151 -620 238 -239 88 -442 167 -451
176 -85 92 -524 603 -591 689 l-87 112 -16 191 c-8 106 -12 198 -8 204 3 7 93
148 200 314 166 261 217 351 367 650 l175 348 153 73 153 73 94 142 c52 78
198 298 323 488 l229 346 193 614 c107 338 208 645 225 682 l31 69 -20 151
c-11 84 -20 168 -21 187 -1 26 43 138 164 417 l167 382 300 491 300 490 55
452 c30 249 58 470 61 491 5 34 17 46 125 127 101 77 120 95 128 128 6 20 42
165 81 321 l71 284 -90 269 -90 268 149 120 149 120 72 220 c39 121 74 218 78
216 3 -2 113 -52 244 -110 l238 -106 172 101 c94 55 175 103 179 107 3 4 -47
126 -112 272 l-118 265 149 3 149 3 2 170 3 171 672 -734 673 -733 297 -73
c164 -40 304 -72 312 -72 38 0 535 313 630 396 2 2 -22 43 -55 91 l-59 88 3
95 3 95 -45 -48 c-39 -42 -48 -47 -66 -37 -25 14 -25 18 4 61 23 34 100 259
88 259 -3 0 -26 -17 -51 -38 -25 -21 -82 -68 -127 -104 l-81 -67 -55 37 -56
37 19 48 19 47 -68 -34 c-65 -33 -69 -33 -134 -23 -74 11 -75 12 -58 81 l9 39
-47 -46 -47 -45 -190 103 -190 102 -3 38 -3 37 -25 -23 -24 -22 -36 19 c-34
18 -36 21 -30 62 3 23 3 42 -1 42 -4 0 -20 -12 -35 -27 -36 -35 -43 -31 -130
75 -73 89 -69 73 -43 189 l5 22 -47 -20 -48 -20 -47 53 c-26 29 -48 58 -48 64
0 6 7 28 15 47 23 55 18 62 -20 32 -28 -21 -39 -24 -50 -15 -8 6 -12 17 -10
23 2 7 6 25 9 40 7 28 6 28 -22 13 l-28 -14 -63 79 -63 80 15 37 c9 20 23 54
31 74 l16 38 -66 -33 -65 -32 -29 34 c-26 33 -27 37 -15 72 l14 37 -33 -13
-32 -13 -45 56 -46 57 18 65 c10 36 18 66 19 68 0 2 -23 -9 -51 -25 l-51 -28
-34 40 c-36 43 -41 64 -22 83 10 10 6 11 -20 6 -43 -9 -53 16 -23 57 l22 30
-28 -7 c-15 -3 -34 -7 -41 -10 -6 -2 -51 44 -100 102 -105 129 -106 129 -92
154 10 18 8 20 -19 20 -27 0 -52 27 -267 291 -130 160 -234 292 -233 293 2 2
47 17 99 34 l95 31 105 -41 c58 -22 141 -54 184 -72 l80 -31 350 -352 c192
-194 353 -350 358 -347 4 3 8 29 8 57 0 52 -2 56 -395 647 l-395 595 -115 75
c-63 41 -177 115 -253 165 -267 175 -461 301 -702 457 -47 30 -93 57 -102 61
-11 4 -18 17 -18 32 0 15 5 193 11 398 l10 371 151 271 c83 148 154 275 159
281 5 6 55 42 111 81 l103 71 360 45 c198 26 464 53 590 62 127 8 260 18 297
21 67 6 68 6 79 -22 l11 -29 14 27 c17 33 27 35 164 43 58 3 128 8 156 11 50
6 51 6 61 -28 l10 -33 12 31 c14 36 38 44 126 44 l53 0 7 -40 c4 -22 10 -42
14 -44 4 -3 19 17 34 44 27 48 27 48 92 55 70 7 533 -29 573 -45 17 -8 22 -18
22 -47 l1 -38 37 41 37 40 180 -17 c99 -10 192 -18 207 -18 l27 -1 3 -102 3
-102 42 56 c23 30 47 74 53 98 10 36 14 41 33 36 12 -3 37 -6 55 -6 32 0 32 0
32 -52 l1 -53 23 27 c13 15 30 36 38 46 9 14 31 21 80 26 l67 8 3 -146 3 -147
58 105 c31 58 57 115 57 128 0 54 10 65 58 71 26 3 48 4 48 4 1 -1 12 -67 23
-147 32 -217 27 -211 76 -80 34 89 44 129 44 178 l1 62 44 0 c51 0 46 11 76
-145 32 -164 29 -162 67 -50 28 81 33 112 31 165 -3 57 -1 65 16 68 23 5 32
-10 41 -65 6 -40 25 -62 25 -28 0 7 5 36 11 63 l10 50 224 56 c124 31 239 56
256 56 l32 0 -7 -65 c-4 -36 -3 -65 2 -65 16 0 80 75 89 105 9 27 14 30 56 33
54 4 52 12 32 -118 -8 -52 -13 -96 -11 -97 2 -2 28 25 59 61 44 49 59 75 68
115 9 44 14 51 35 51 19 0 24 -5 24 -27 l0 -27 33 32 c25 24 42 32 70 32 21 0
56 9 79 21 l41 21 -6 167 -7 168 -98 209 -98 209 -349 97 -350 97 -573 1 -572
0 -278 60 -278 60 -1043 -60 -1042 -60 -555 60 -555 60 -194 136 -195 135
-174 -145 c-127 -105 -196 -171 -255 -244 l-81 -99 -181 24 -180 24 -309 199
-309 199 -552 21 c-304 11 -557 20 -563 19 -6 0 -359 -165 -783 -367z"/>
</g>
</svg>
