<?xml version="1.0" standalone="no"?>
<!DOCTYPE svg PUBLIC "-//W3C//DTD SVG 20010904//EN"
 "http://www.w3.org/TR/2001/REC-SVG-20010904/DTD/svg10.dtd">
<svg version="1.0" xmlns="http://www.w3.org/2000/svg"
 width="3295.000000pt" height="3422.000000pt" viewBox="0 0 3295.000000 3422.000000"
 preserveAspectRatio="xMidYMid meet">
<metadata>
Created by potrace 1.16, written by Peter Selinger 2001-2019
</metadata>
<g transform="translate(0.000000,3422.000000) scale(0.100000,-0.100000)"
fill="#000000" stroke="none">
<path d="M7797 34196 c-20 -15 -78 -160 -102 -254 -8 -31 -19 -92 -25 -136
-12 -100 -32 -186 -42 -186 -5 0 -8 -26 -8 -57 0 -32 -5 -85 -10 -118 -5 -33
-13 -108 -16 -167 -4 -60 -10 -108 -14 -108 -3 0 -5 -13 -2 -30 3 -23 0 -30
-12 -30 -16 0 -16 -18 0 -67 2 -7 -1 -13 -6 -13 -6 0 -10 -18 -10 -40 0 -22
-4 -40 -10 -40 -5 0 -7 7 -4 15 4 8 4 15 1 15 -3 0 -10 -14 -16 -30 -6 -19 -6
-28 -1 -25 6 4 13 -1 17 -10 3 -10 1 -20 -4 -24 -12 -7 -37 -225 -30 -263 3
-15 2 -28 -2 -30 -5 -2 -16 -88 -25 -193 -10 -104 -20 -191 -24 -192 -4 -2 -5
-28 -4 -58 3 -37 0 -55 -8 -55 -8 0 -9 -14 -4 -46 4 -30 3 -49 -4 -53 -6 -4
-20 -108 -32 -246 -27 -300 -39 -419 -45 -470 -3 -22 -7 -60 -8 -85 -2 -25 -7
-53 -11 -63 -5 -10 -6 -36 -2 -57 4 -27 3 -40 -5 -40 -8 0 -10 -18 -6 -60 3
-33 1 -60 -3 -60 -4 0 -8 -42 -8 -92 0 -51 -5 -152 -10 -225 -6 -72 -8 -150
-5 -172 4 -31 2 -41 -8 -41 -12 0 -12 -2 0 -9 7 -5 11 -13 7 -19 -3 -6 -8 -58
-10 -118 -3 -59 -8 -110 -13 -113 -5 -3 -8 -22 -8 -41 0 -19 -3 -37 -7 -40
-12 -9 -25 -250 -13 -250 7 0 7 -3 0 -8 -7 -4 -9 -40 -5 -95 3 -49 1 -91 -3
-94 -4 -3 -3 -11 3 -18 8 -10 8 -14 -1 -17 -8 -3 -9 -9 -4 -18 12 -19 12 -641
0 -663 -6 -11 -6 -22 0 -33 6 -9 8 -55 4 -112 -3 -53 1 -176 8 -272 8 -96 11
-198 8 -226 -3 -28 -1 -98 4 -155 6 -57 18 -187 27 -289 9 -102 20 -187 24
-190 5 -3 13 -48 19 -99 6 -52 14 -97 19 -100 5 -3 12 -30 15 -60 4 -29 10
-58 15 -65 9 -11 34 -172 33 -211 0 -11 5 -23 12 -27 9 -6 9 -8 -1 -8 -10 0
-12 -8 -6 -32 4 -18 7 -43 6 -55 -1 -13 2 -23 7 -23 5 0 14 -53 21 -117 7 -65
16 -120 21 -123 5 -3 13 -45 18 -93 6 -47 14 -95 20 -105 5 -10 13 -46 17 -80
3 -34 10 -62 15 -62 4 0 10 -26 14 -57 3 -32 11 -66 16 -76 6 -10 13 -42 16
-70 3 -29 11 -55 18 -59 6 -4 12 -26 14 -50 1 -23 7 -46 13 -49 6 -4 8 -14 5
-23 -4 -9 -2 -16 3 -16 6 0 10 -18 10 -40 0 -22 4 -40 9 -40 6 0 13 -21 16
-47 3 -27 10 -56 16 -65 5 -10 14 -50 19 -90 6 -40 14 -75 19 -78 5 -3 12 -38
16 -77 4 -40 11 -73 15 -73 4 0 11 -27 15 -60 4 -33 11 -60 15 -60 5 0 11 -30
15 -67 3 -38 13 -86 20 -108 8 -22 18 -69 21 -105 4 -36 11 -68 17 -71 5 -4
11 -28 14 -55 3 -27 11 -63 19 -81 8 -17 14 -47 14 -67 0 -20 5 -36 11 -36 6
0 8 -9 4 -20 -4 -11 -2 -20 4 -20 6 0 11 -18 11 -39 0 -22 5 -41 10 -43 6 -2
15 -46 21 -98 6 -52 14 -97 19 -100 5 -3 11 -34 15 -70 4 -36 9 -72 12 -80 3
-8 5 -26 4 -39 -2 -13 2 -26 7 -30 6 -3 15 -51 22 -106 7 -55 16 -102 20 -105
4 -3 11 -41 15 -85 4 -44 11 -84 15 -90 4 -5 13 -49 20 -97 7 -49 18 -88 23
-88 5 0 4 -7 -3 -15 -9 -11 -10 -15 0 -15 6 0 11 -12 9 -27 -1 -16 1 -35 5
-44 4 -9 5 -39 3 -67 -3 -33 -1 -53 7 -56 7 -3 6 -8 -4 -15 -10 -7 -11 -11 -2
-11 6 0 12 -7 12 -15 0 -8 -5 -15 -11 -15 -6 0 -7 -5 -2 -12 4 -7 6 -24 4 -37
-1 -13 3 -28 11 -32 10 -7 10 -9 0 -9 -9 0 -11 -14 -6 -54 6 -47 -6 -221 -36
-516 -6 -62 -5 -87 3 -92 9 -6 9 -8 1 -8 -7 0 -14 -30 -18 -72 -23 -249 -39
-394 -45 -398 -4 -3 -13 -48 -20 -100 -7 -52 -16 -99 -20 -105 -5 -8 -19 -94
-33 -193 -1 -9 -6 -9 -22 3 -12 8 -78 51 -148 95 -144 92 -234 159 -256 192
-9 13 -36 48 -62 78 -25 30 -68 84 -94 120 -27 36 -92 108 -145 160 -68 66
-125 136 -190 232 -93 137 -187 248 -315 368 -38 36 -139 144 -225 240 -86 96
-192 213 -236 260 -45 47 -125 139 -180 205 -55 66 -144 167 -199 225 -54 57
-167 183 -249 280 -83 96 -210 240 -282 320 -72 80 -179 199 -237 265 -149
168 -207 227 -513 518 -275 261 -343 331 -525 542 -145 169 -181 206 -395 400
-207 188 -872 846 -920 910 -16 22 -44 55 -62 73 -18 18 -33 39 -33 47 0 8 -9
15 -20 15 -13 0 -20 7 -20 20 0 11 -7 20 -15 20 -8 0 -15 4 -15 10 0 5 -14 22
-30 37 -17 14 -30 33 -30 40 0 14 -23 43 -35 43 -8 0 -55 47 -55 55 0 6 -12
19 -115 128 -30 33 -55 61 -55 64 0 12 -38 52 -44 46 -3 -3 -6 1 -6 10 0 9 -7
17 -15 17 -8 0 -15 4 -15 10 0 5 -13 23 -30 38 -16 16 -30 37 -30 46 0 9 -8
16 -20 16 -11 0 -20 6 -20 13 0 15 -44 57 -59 57 -6 0 -11 7 -11 16 0 8 -4 12
-10 9 -5 -3 -10 3 -10 14 0 12 -5 21 -11 21 -11 0 -39 25 -39 35 0 3 -24 30
-52 59 -63 64 -129 141 -142 164 -5 9 -23 30 -40 47 -40 41 -76 84 -76 90 0 3
-15 21 -32 40 -60 63 -78 84 -78 90 0 7 -14 24 -47 60 -13 13 -23 27 -23 30 0
3 -11 18 -25 33 -14 15 -31 39 -38 55 -6 15 -20 27 -29 27 -11 0 -18 7 -18 18
0 9 -9 23 -21 30 -12 8 -18 19 -15 28 4 9 -1 14 -14 14 -11 0 -20 7 -20 15 0
9 -4 21 -10 28 -44 54 -60 76 -60 82 0 3 -6 12 -12 19 -7 7 -22 25 -33 40 -11
16 -26 34 -32 41 -7 8 -13 21 -13 29 0 9 -4 16 -8 16 -5 0 -17 16 -28 35 -10
19 -22 35 -26 35 -5 0 -8 9 -8 20 0 11 -4 20 -10 20 -5 0 -10 9 -10 20 0 11
-4 20 -10 20 -5 0 -13 12 -16 28 -4 15 -16 34 -26 43 -10 10 -18 21 -17 25 3
14 -13 48 -31 64 -9 8 -20 27 -24 43 -3 15 -11 27 -16 27 -6 0 -10 9 -10 20 0
11 -4 20 -10 20 -5 0 -10 11 -10 25 0 14 -4 25 -8 25 -5 0 -17 18 -28 40 -10
22 -22 40 -26 40 -5 0 -8 11 -8 25 0 14 -7 28 -15 31 -8 4 -15 18 -15 31 0 14
-8 33 -18 42 -11 9 -22 28 -26 44 -3 15 -11 27 -16 27 -6 0 -10 9 -10 20 0 11
-5 20 -11 20 -7 0 -9 10 -7 24 3 16 -2 28 -14 37 -10 8 -18 26 -18 41 0 15 -4
28 -9 28 -5 0 -12 14 -16 30 -4 17 -11 30 -16 30 -5 0 -9 11 -9 25 0 14 -4 25
-10 25 -5 0 -10 8 -10 18 0 10 -6 26 -13 37 -13 19 -19 43 -47 189 -15 72 -60
194 -178 481 -49 121 -111 279 -136 350 -63 177 -76 206 -102 234 -29 31 -72
31 -99 -2 -26 -29 -31 -86 -41 -452 -7 -253 4 -406 36 -526 11 -41 27 -123 36
-184 17 -127 43 -236 79 -331 14 -37 25 -74 25 -84 0 -10 4 -20 10 -22 8 -2
23 -73 32 -145 1 -7 5 -13 10 -13 4 0 8 -9 8 -20 0 -11 5 -20 11 -20 8 0 7 -5
-2 -16 -10 -12 -10 -17 0 -23 7 -5 15 -27 18 -50 3 -22 10 -41 14 -41 5 0 9
-7 9 -16 0 -9 6 -30 14 -47 8 -18 17 -43 19 -57 10 -44 32 -100 39 -100 5 0 8
-8 8 -19 0 -10 7 -32 15 -47 8 -16 15 -39 15 -51 0 -12 3 -23 8 -25 12 -5 57
-112 69 -165 3 -13 9 -23 14 -23 5 0 9 -8 9 -17 0 -10 7 -31 15 -47 8 -15 15
-37 15 -47 0 -11 5 -19 10 -19 6 0 10 -6 10 -14 0 -7 7 -19 15 -26 8 -7 15
-20 15 -29 0 -10 8 -26 18 -37 10 -11 22 -32 26 -47 3 -15 11 -27 16 -27 6 0
10 -9 10 -20 0 -11 5 -20 10 -20 6 0 10 -8 10 -18 0 -10 7 -27 15 -38 8 -10
15 -27 15 -36 0 -10 5 -18 10 -18 6 0 10 -12 10 -26 0 -14 7 -32 15 -40 8 -9
15 -24 15 -35 0 -10 5 -19 10 -19 6 0 10 -8 10 -18 0 -10 7 -27 15 -38 8 -10
15 -27 15 -36 0 -10 5 -18 10 -18 6 0 10 -9 10 -20 0 -11 4 -20 8 -20 5 0 17
-18 28 -40 10 -22 22 -40 26 -40 3 0 9 -18 13 -40 4 -22 11 -40 16 -40 5 0 9
-9 9 -19 0 -11 3 -21 8 -23 12 -5 42 -68 42 -89 0 -10 5 -19 10 -19 6 0 10 -4
10 -10 0 -17 34 -90 42 -90 5 0 8 -7 8 -16 0 -8 7 -22 15 -30 8 -9 15 -26 15
-40 0 -13 5 -24 10 -24 6 0 10 -7 10 -16 0 -8 7 -22 15 -30 8 -9 15 -24 15
-35 0 -10 5 -19 10 -19 6 0 10 -9 10 -20 0 -11 4 -20 8 -20 5 0 17 -18 28 -40
10 -22 22 -40 27 -40 4 0 7 -7 7 -15 0 -8 4 -15 9 -15 5 0 12 -13 16 -30 4
-16 11 -30 16 -30 5 0 9 -7 9 -16 0 -8 4 -13 9 -10 5 3 11 -7 14 -22 3 -15 15
-37 26 -49 12 -12 21 -29 21 -38 0 -8 5 -15 10 -15 6 0 10 -7 10 -15 0 -9 7
-18 15 -21 8 -4 15 -15 15 -25 0 -10 5 -19 10 -19 6 0 10 -9 10 -20 0 -11 5
-20 10 -20 6 0 10 -6 10 -13 0 -7 11 -24 25 -39 14 -15 25 -32 25 -38 0 -6 6
-18 13 -25 30 -34 37 -45 37 -56 0 -6 8 -19 19 -28 10 -9 21 -26 25 -38 4 -13
12 -23 17 -23 5 0 9 -8 9 -18 0 -10 9 -24 20 -32 11 -8 20 -20 20 -27 0 -6 11
-24 25 -39 14 -15 25 -31 25 -37 0 -5 8 -17 17 -26 10 -9 27 -32 37 -51 11
-19 28 -42 38 -51 10 -9 18 -20 18 -25 0 -5 11 -21 25 -36 14 -15 25 -32 25
-38 0 -6 10 -22 23 -35 37 -40 47 -54 47 -65 0 -5 5 -10 10 -10 6 0 10 -8 10
-18 0 -9 11 -26 25 -36 14 -10 25 -25 25 -32 0 -8 5 -14 10 -14 6 0 10 -7 10
-15 0 -8 5 -15 10 -15 6 0 10 -7 10 -15 0 -8 3 -15 8 -15 4 0 18 -16 32 -36
13 -20 37 -50 52 -68 44 -48 48 -54 48 -66 0 -5 5 -10 10 -10 6 0 10 -7 10
-16 0 -9 11 -25 25 -36 14 -11 25 -25 25 -32 0 -6 9 -18 20 -26 11 -8 20 -18
20 -23 0 -5 6 -15 13 -22 29 -33 37 -45 37 -54 0 -5 9 -13 20 -16 11 -3 20
-13 20 -21 0 -15 8 -27 47 -69 13 -13 23 -27 23 -30 0 -6 18 -27 77 -90 18
-19 33 -37 33 -40 0 -7 14 -24 47 -60 13 -13 23 -32 23 -41 0 -10 3 -15 6 -11
3 3 20 -11 37 -31 18 -20 35 -38 40 -40 4 -2 7 -10 7 -18 0 -9 5 -12 10 -9 6
3 10 -1 10 -10 0 -16 8 -27 48 -70 12 -13 22 -28 22 -33 0 -6 7 -12 15 -16 8
-3 15 -11 15 -18 0 -8 9 -20 20 -28 11 -8 20 -23 20 -33 0 -10 4 -16 8 -13 4
2 19 -10 32 -27 14 -17 35 -41 48 -53 12 -13 22 -28 22 -34 0 -6 11 -23 25
-38 14 -15 25 -31 25 -35 0 -5 13 -22 30 -37 16 -15 30 -35 30 -44 0 -8 11
-26 25 -40 14 -14 25 -30 25 -36 0 -5 4 -10 9 -10 5 0 11 -8 15 -17 7 -24 27
-54 47 -73 9 -8 24 -28 33 -45 29 -54 43 -74 81 -120 14 -16 25 -36 25 -42 0
-7 5 -13 10 -13 6 0 10 -5 10 -12 0 -6 11 -26 25 -44 14 -18 25 -37 25 -43 0
-6 5 -11 10 -11 6 0 10 -7 10 -15 0 -9 11 -27 25 -41 14 -14 25 -31 25 -39 0
-8 5 -15 10 -15 6 0 10 -7 10 -15 0 -8 3 -15 8 -15 4 0 16 -16 26 -35 11 -19
23 -35 28 -35 4 0 8 -7 8 -16 0 -8 6 -22 13 -29 31 -35 37 -45 37 -60 0 -8 5
-15 10 -15 6 0 10 -7 10 -15 0 -8 4 -15 8 -15 5 0 17 -18 28 -40 10 -22 22
-40 27 -40 4 0 7 -7 7 -16 0 -8 5 -12 10 -9 6 3 10 -3 10 -13 0 -11 7 -25 15
-32 8 -7 15 -18 15 -25 0 -8 3 -15 8 -17 4 -2 20 -28 36 -58 16 -30 32 -57 35
-60 4 -3 15 -22 26 -42 11 -21 23 -38 27 -38 5 0 8 -9 8 -21 0 -11 4 -17 10
-14 5 3 10 -3 10 -14 0 -12 3 -21 8 -21 4 0 16 -18 26 -40 11 -22 23 -40 28
-40 4 0 8 -6 8 -14 0 -17 32 -80 43 -84 4 -2 7 -12 7 -23 0 -10 4 -19 9 -19 5
0 12 -11 15 -25 4 -14 11 -25 16 -25 6 0 10 -9 10 -20 0 -11 4 -20 9 -20 5 0
11 -18 15 -40 3 -22 11 -40 16 -40 6 0 10 -15 10 -34 0 -19 5 -36 11 -38 6 -2
13 -25 16 -51 3 -26 9 -47 14 -47 5 0 11 -22 15 -50 4 -27 10 -50 14 -50 5 0
11 -22 15 -50 4 -27 10 -50 15 -50 4 0 10 -22 14 -50 4 -27 11 -50 16 -50 6 0
10 -15 10 -32 0 -18 7 -46 15 -62 8 -15 15 -42 15 -58 0 -16 7 -36 15 -44 8
-9 15 -32 15 -52 1 -20 7 -48 15 -62 8 -14 14 -37 15 -52 0 -14 5 -28 10 -30
6 -2 13 -27 17 -56 3 -28 9 -52 14 -52 4 0 10 -19 14 -42 3 -24 12 -70 20
-103 33 -135 78 -875 54 -875 -4 0 -4 -20 -2 -44 6 -50 -11 -287 -33 -451 -8
-60 -15 -120 -16 -132 -1 -13 -6 -23 -10 -23 -4 0 -8 -9 -8 -20 0 -11 -4 -20
-10 -20 -5 0 -10 -13 -10 -28 0 -16 -7 -37 -15 -48 -8 -10 -15 -27 -15 -36 0
-10 -4 -18 -9 -18 -5 0 -14 -14 -22 -31 -7 -18 -23 -42 -36 -55 -13 -13 -23
-28 -23 -34 0 -27 -52 -90 -74 -90 -9 0 -16 -4 -16 -10 0 -5 -9 -10 -20 -10
-11 0 -20 -4 -20 -9 0 -5 -9 -13 -20 -16 -11 -3 -20 -14 -20 -23 0 -15 -14
-17 -120 -18 -67 0 -120 4 -120 9 0 5 -19 6 -44 3 -24 -4 -47 -3 -50 2 -3 5
-32 13 -63 17 -32 4 -60 11 -63 16 -3 5 -38 11 -78 15 -42 4 -72 12 -72 18 0
8 -3 8 -8 0 -5 -9 -54 3 -167 41 -224 73 -254 82 -310 95 -90 21 -168 31 -280
36 -60 2 -150 10 -199 17 -112 17 -268 13 -371 -9 -48 -10 -139 -17 -225 -19
-80 -2 -148 -3 -152 -4 -19 -3 -122 -117 -122 -135 0 -12 -5 -25 -10 -29 -8
-6 -7 -10 2 -14 6 -2 10 -8 7 -13 -6 -10 13 -112 23 -119 10 -8 71 -196 74
-228 1 -7 4 -13 7 -13 3 0 7 -10 8 -23 1 -12 4 -31 7 -42 2 -11 5 -23 5 -27 1
-4 8 -14 17 -22 8 -9 11 -16 6 -16 -10 0 4 -48 27 -90 8 -14 14 -26 13 -28 -7
-8 14 -59 27 -69 9 -7 13 -13 9 -13 -3 0 5 -30 19 -68 13 -37 26 -74 28 -82 6
-26 44 -133 70 -195 13 -33 44 -123 69 -200 24 -77 62 -189 84 -250 24 -68 42
-138 46 -185 4 -41 10 -79 13 -84 27 -43 11 -417 -18 -451 -5 -5 -9 -17 -9
-26 0 -10 -16 -31 -36 -47 -24 -20 -34 -35 -29 -43 6 -9 3 -11 -9 -6 -10 4
-24 -1 -36 -13 -11 -11 -22 -19 -24 -17 -12 6 -161 -120 -270 -228 -155 -154
-356 -370 -356 -384 0 -5 -9 -13 -20 -16 -11 -3 -20 -10 -20 -15 0 -4 -14 -21
-32 -37 -17 -15 -50 -48 -72 -71 -23 -24 -63 -67 -91 -96 -27 -29 -72 -83
-100 -120 -27 -37 -71 -96 -97 -129 -109 -143 -158 -222 -244 -392 -50 -99
-121 -236 -157 -305 -37 -69 -67 -131 -67 -138 0 -15 -23 -70 -48 -117 -9 -16
-16 -32 -15 -35 1 -3 -5 -21 -14 -40 -17 -41 -63 -226 -63 -255 0 -11 -9 -49
-20 -85 -28 -92 -30 -119 -36 -455 -9 -514 -7 -633 10 -740 17 -105 21 -130
25 -173 0 -7 5 -11 10 -8 5 4 7 -3 4 -13 -3 -11 0 -51 7 -90 6 -39 13 -81 15
-93 1 -13 8 -54 13 -93 6 -38 16 -119 22 -180 14 -129 37 -241 79 -387 17 -58
31 -115 31 -127 0 -12 4 -29 9 -39 6 -9 22 -57 37 -107 14 -49 31 -96 36 -102
6 -7 8 -13 5 -13 -4 0 2 -20 13 -45 11 -25 21 -55 23 -68 6 -45 51 -156 60
-150 6 3 7 1 3 -5 -8 -14 36 -113 96 -215 23 -39 41 -77 41 -84 0 -7 3 -13 6
-13 3 0 15 -20 26 -45 11 -25 23 -45 27 -45 5 0 8 -7 8 -16 0 -8 6 -22 13 -29
28 -32 33 -41 30 -52 -2 -6 3 -18 12 -27 9 -9 13 -16 10 -16 -4 0 8 -21 27
-47 19 -27 58 -87 87 -135 29 -49 76 -116 104 -151 59 -71 250 -256 317 -307
25 -19 91 -80 148 -137 78 -78 119 -110 170 -135 49 -23 97 -61 178 -138 60
-58 137 -120 170 -139 32 -19 79 -48 103 -64 55 -38 137 -49 175 -23 34 22 42
61 56 270 10 158 20 226 34 226 2 0 4 -10 4 -22 0 -13 12 -58 26 -102 34 -100
81 -161 243 -314 159 -150 282 -249 444 -358 70 -46 133 -91 140 -100 28 -34
152 -114 222 -142 40 -17 134 -46 211 -66 76 -20 175 -53 220 -74 79 -36 83
-37 196 -36 84 1 146 8 230 27 63 14 147 28 187 31 39 3 84 11 100 18 15 7 33
12 38 13 6 0 19 6 30 12 11 5 74 32 140 58 66 27 171 75 233 107 199 103 513
209 692 234 58 8 143 24 190 35 86 21 257 76 275 89 6 3 32 15 58 24 49 18
160 77 252 134 28 17 86 50 130 73 358 185 561 300 682 385 34 24 66 44 72 44
6 0 11 4 11 9 0 8 37 24 52 22 3 0 45 34 93 77 201 179 234 205 320 259 133
84 308 165 353 165 20 0 47 6 60 14 119 77 371 185 517 222 44 11 121 36 170
55 50 18 122 40 160 47 39 7 140 30 226 51 104 25 192 40 260 43 135 8 202 14
324 32 135 19 168 29 465 135 63 22 140 49 172 59 31 10 89 36 130 58 40 22
154 67 253 101 l180 60 210 7 c334 10 339 11 358 19 10 4 20 5 23 3 2 -3 9
-81 14 -174 10 -180 30 -299 80 -484 17 -63 36 -135 42 -160 6 -25 14 -49 18
-55 4 -5 10 -27 14 -48 25 -136 163 -485 296 -744 54 -106 101 -211 105 -233
4 -23 22 -61 40 -85 57 -75 260 -497 321 -670 31 -88 78 -209 104 -270 30 -67
51 -133 55 -170 4 -33 9 -307 10 -610 2 -428 7 -577 19 -670 23 -183 46 -436
51 -575 7 -171 33 -401 57 -485 32 -117 40 -176 36 -263 -3 -57 -9 -88 -20
-98 -12 -12 -13 -25 -7 -62 5 -26 14 -57 21 -69 9 -18 8 -33 -5 -73 -9 -28
-23 -101 -32 -163 -34 -245 -58 -349 -132 -567 -64 -190 -66 -195 -171 -366
-82 -136 -163 -290 -202 -386 -29 -70 -67 -108 -150 -151 -42 -21 -70 -42 -80
-62 -21 -38 -73 -67 -180 -101 -46 -14 -89 -32 -95 -39 -5 -7 -31 -18 -58 -25
-26 -7 -68 -26 -93 -41 -24 -16 -68 -41 -97 -55 -54 -28 -191 -159 -181 -175
3 -5 0 -9 -5 -9 -6 0 -11 -9 -11 -20 0 -12 -7 -34 -15 -50 -18 -36 -10 -136
11 -144 8 -3 14 -15 14 -26 0 -11 7 -20 15 -20 13 0 20 -19 16 -43 -1 -5 8 -6
19 -2 11 3 20 2 20 -3 0 -5 11 -21 25 -36 17 -19 31 -25 47 -21 13 3 75 9 138
14 l114 10 106 -35 c133 -45 204 -47 305 -9 119 45 221 23 264 -59 13 -24 12
-30 -13 -73 -15 -27 -43 -82 -63 -123 -19 -41 -53 -100 -74 -130 -53 -77 -85
-164 -71 -193 6 -12 12 -33 14 -47 4 -35 69 -68 149 -76 84 -8 72 -9 170 14
47 12 113 21 145 20 94 0 186 39 272 117 28 25 58 38 117 53 44 11 132 41 195
67 63 25 129 50 147 55 18 4 50 22 72 39 49 39 96 56 197 71 94 14 124 28 159
74 16 21 52 47 88 64 38 18 93 57 142 103 44 41 99 87 122 102 23 15 50 42 59
59 9 18 20 35 23 38 20 15 62 109 66 147 5 60 48 133 116 200 68 67 82 75 186
108 43 13 100 38 126 55 27 17 66 37 86 44 21 7 57 28 80 46 48 39 121 131
125 157 2 15 14 18 64 20 33 2 80 9 104 18 24 8 57 15 74 15 33 0 70 27 185
136 36 35 79 66 95 70 54 13 150 78 159 107 18 59 16 165 -4 243 -28 111 -43
142 -97 199 -44 47 -179 286 -168 297 2 3 0 18 -7 34 -6 16 -12 37 -14 47 -2
10 -9 32 -14 50 -53 170 -82 301 -86 392 -6 114 -8 136 -18 152 -4 6 -3 14 3
18 5 3 10 12 10 18 0 7 -4 6 -10 -3 -5 -8 -10 -11 -10 -7 0 4 7 19 16 32 9 13
13 29 9 35 -3 5 -2 10 3 10 5 0 17 35 26 78 19 92 30 169 41 297 2 28 7 73 11
100 4 28 8 59 10 70 1 11 18 54 38 95 53 113 141 414 171 585 8 50 38 159 66
244 62 189 93 338 85 400 -3 25 1 97 10 160 17 125 15 379 -5 456 -5 22 -19
88 -31 147 -11 59 -32 140 -47 180 -14 40 -36 138 -48 218 -35 226 -73 411
-103 504 -26 80 -27 86 -10 86 17 0 17 4 -7 43 -14 24 -25 53 -25 65 0 12 -5
22 -10 22 -6 0 0 12 13 26 26 28 112 54 179 54 54 0 206 -37 353 -85 109 -37
148 -48 205 -60 44 -9 113 -16 156 -16 30 0 54 -4 54 -9 0 -4 27 -11 60 -15
33 -4 60 -10 60 -15 0 -4 28 -11 62 -14 35 -4 65 -12 68 -17 4 -5 41 -12 83
-15 42 -4 77 -10 77 -14 0 -3 18 -5 40 -4 22 1 40 -3 40 -8 0 -6 17 -8 40 -6
22 2 41 1 42 -3 5 -12 342 -36 350 -25 5 8 8 8 8 0 0 -8 87 -11 295 -10 162 1
295 -2 295 -5 0 -12 95 -16 103 -5 5 8 9 7 15 0 4 -7 21 -12 37 -11 17 0 38
-3 48 -8 10 -4 17 -3 17 4 0 6 9 11 20 11 11 0 20 -5 20 -10 0 -7 22 -8 60 -5
39 4 60 2 60 -5 0 -6 10 -8 25 -4 14 3 31 1 39 -5 9 -7 15 -8 18 -2 2 7 42 7
114 2 122 -9 254 -4 254 11 0 5 4 6 10 3 5 -3 18 -1 29 4 17 9 33 -5 127 -112
147 -165 239 -263 364 -385 58 -57 104 -107 103 -112 -2 -6 6 -10 17 -10 19 0
29 -23 46 -109 4 -18 13 -35 20 -38 7 -3 16 -21 20 -41 3 -21 21 -93 39 -162
56 -208 59 -230 39 -297 -9 -32 -20 -62 -24 -68 -51 -68 -98 -483 -71 -630 6
-33 16 -106 23 -161 l11 -102 -41 -153 c-23 -85 -53 -206 -66 -269 -14 -64
-38 -145 -55 -180 -17 -36 -31 -75 -31 -88 0 -15 -37 -63 -108 -140 -130 -142
-158 -178 -167 -215 -4 -16 -19 -35 -34 -44 -14 -9 -51 -32 -81 -52 -30 -20
-59 -38 -65 -40 -5 -2 -51 -37 -102 -77 -50 -40 -102 -76 -115 -79 -13 -4 -37
-17 -54 -30 -25 -21 -28 -26 -17 -44 17 -28 18 -27 -30 -50 -28 -13 -56 -19
-82 -17 -67 7 -122 -32 -271 -191 -138 -146 -153 -169 -159 -238 -2 -22 -8
-56 -13 -75 -12 -47 -2 -70 46 -109 62 -49 126 -70 261 -88 31 -4 42 -2 37 6
-4 6 19 0 51 -15 91 -40 171 -62 258 -68 44 -3 126 -14 182 -24 l102 -17 63
-61 c105 -101 206 -140 388 -152 l108 -7 -29 -90 c-16 -49 -34 -103 -40 -120
-6 -16 -13 -45 -16 -64 -5 -35 -30 -98 -103 -261 -36 -80 -55 -108 -121 -175
-43 -44 -123 -125 -176 -180 -98 -100 -159 -194 -155 -239 2 -26 -59 -136 -75
-136 -14 0 -14 -1 -18 -40 -2 -24 -35 -57 -199 -203 -62 -55 -176 -199 -181
-229 -2 -10 -7 -23 -11 -30 -5 -7 -3 -8 6 -3 11 7 11 -3 5 -51 -22 -149 -9
-187 85 -238 46 -25 71 -31 174 -39 209 -17 331 -10 476 24 47 11 128 27 180
34 53 8 102 16 110 20 26 9 19 -144 -9 -188 -28 -46 -117 -316 -126 -386 -16
-115 -15 -124 9 -145 12 -12 31 -38 41 -59 22 -42 71 -75 154 -102 72 -24 178
-16 258 18 32 14 83 31 113 38 94 21 268 87 328 125 93 59 172 144 263 284 34
53 107 132 196 212 23 20 47 48 55 61 42 77 53 95 75 124 13 18 33 33 44 33
21 0 26 9 32 54 4 30 27 50 27 23 0 -8 15 -68 34 -134 19 -65 37 -140 39 -168
3 -27 6 -52 7 -55 4 -12 -2 -100 -11 -158 -20 -134 34 -274 153 -396 38 -38
68 -75 68 -83 0 -7 8 -16 18 -19 36 -11 45 -21 64 -68 10 -26 31 -64 46 -84
26 -37 103 -136 122 -159 6 -7 10 -16 11 -20 1 -16 62 -57 122 -81 48 -20 83
-26 152 -28 86 -2 93 -1 135 27 58 39 150 129 150 147 0 8 13 40 29 71 20 40
34 93 49 184 16 105 26 138 51 178 17 27 28 56 25 64 -14 35 98 191 170 238
14 10 40 36 56 58 32 44 32 53 8 191 -9 53 -8 77 1 110 14 44 62 98 89 98 8 0
40 -14 71 -32 54 -30 60 -31 176 -31 69 0 129 4 141 11 11 6 28 28 39 49 10
21 27 54 37 73 11 19 34 64 51 100 l32 65 -2 160 c-1 88 -3 180 -5 205 -3 43
-2 45 26 48 22 3 26 6 15 13 -10 6 -5 8 18 7 17 -1 42 3 55 9 13 5 40 18 61
27 21 9 49 29 62 44 28 34 77 59 128 67 43 7 53 35 12 35 l-25 0 29 47 c16 27
32 65 35 85 8 45 -18 142 -43 160 -9 7 -30 31 -46 53 -90 123 -306 355 -329
355 -15 0 -185 140 -239 197 l-38 40 5 74 c3 41 9 95 12 121 l6 46 46 5 c26 3
71 6 99 6 29 0 72 5 95 12 96 25 272 140 314 204 30 46 28 111 -6 202 -18 46
-30 87 -27 90 3 3 -18 37 -48 77 -34 45 -51 74 -45 80 20 20 11 79 -16 107
-20 21 -28 42 -32 80 -5 50 -8 56 -80 123 -41 39 -80 85 -88 102 -7 17 -31 54
-54 83 -45 56 -45 59 -7 141 11 25 22 50 23 55 9 37 41 104 47 99 6 -7 11 10
8 29 -1 4 6 21 15 38 8 17 13 33 10 37 -3 3 0 12 6 20 7 8 13 19 14 26 1 6 6
22 12 36 5 14 11 30 12 35 1 6 7 16 13 24 7 7 12 19 12 25 1 6 7 25 13 41 7
17 15 37 19 45 3 8 7 22 8 30 3 16 22 70 38 110 6 14 11 30 12 35 2 6 12 31
23 55 11 25 23 62 27 82 4 21 13 42 20 48 8 6 12 17 9 25 -3 7 3 28 12 47 10
18 19 36 20 41 1 4 3 10 4 15 1 4 2 10 1 15 -1 4 8 26 20 48 11 23 16 38 10
35 -7 -4 -8 -1 -5 8 3 9 11 16 17 16 6 0 8 3 4 6 -3 4 0 22 8 40 8 19 14 37
15 39 0 3 0 6 1 8 0 1 2 9 4 17 2 8 22 74 44 147 22 73 52 187 66 255 50 238
86 423 96 492 5 39 12 87 15 106 6 42 7 248 1 310 -3 25 -12 63 -20 85 -16 43
-44 158 -51 215 -10 83 -93 332 -116 350 -4 3 -10 18 -14 33 -4 15 -11 25 -16
22 -6 -3 -10 1 -10 10 0 9 -8 29 -18 43 -55 80 -60 204 -12 272 15 21 31 29
67 35 50 7 279 80 523 168 80 28 210 85 290 125 80 40 208 102 285 137 77 34
200 93 274 129 144 71 188 80 285 55 39 -10 48 -8 101 20 33 16 63 27 67 25 4
-3 8 -20 8 -37 1 -18 12 -88 26 -157 36 -184 61 -346 100 -650 22 -170 49
-315 83 -440 16 -58 39 -143 51 -190 21 -86 32 -111 154 -345 37 -71 81 -170
98 -220 17 -49 42 -121 55 -160 13 -38 33 -113 44 -165 23 -110 38 -152 50
-144 5 2 11 -8 15 -23 3 -15 25 -86 49 -158 86 -259 89 -278 91 -570 0 -143
-2 -312 -7 -375 -4 -63 -11 -158 -14 -210 -3 -52 -19 -153 -35 -225 -15 -71
-38 -197 -50 -280 -24 -164 -40 -205 -133 -331 -24 -32 -92 -131 -152 -219
-117 -171 -173 -232 -329 -363 -88 -73 -140 -111 -324 -240 -68 -48 -138 -119
-179 -182 -20 -30 -54 -76 -75 -101 -21 -25 -38 -51 -38 -57 0 -7 -7 -24 -16
-38 -20 -30 -44 -125 -44 -176 0 -30 6 -42 36 -67 21 -16 62 -39 93 -50 67
-25 238 -41 226 -22 -5 9 -3 10 11 2 11 -6 55 -22 99 -36 66 -22 110 -28 250
-36 219 -11 240 -16 295 -67 91 -84 206 -128 356 -135 160 -7 252 14 387 90
48 27 70 33 118 33 32 0 77 7 99 16 30 12 44 13 54 5 7 -6 16 -8 19 -4 4 3 7
1 7 -6 0 -8 6 -6 17 5 15 14 31 16 116 11 70 -5 107 -11 126 -24 60 -40 90
-50 169 -57 45 -3 110 -14 145 -23 61 -15 205 -14 297 3 51 10 68 9 135 -11
103 -29 234 -30 350 -2 163 40 231 71 290 130 54 54 65 59 262 118 39 11 81
30 92 40 12 11 25 18 29 15 5 -3 19 -7 33 -10 82 -15 133 -31 202 -63 111 -50
222 -61 439 -45 205 16 246 25 337 75 87 47 206 155 220 200 23 70 -5 160 -87
282 -42 64 -62 119 -62 173 0 20 -13 52 -36 86 -32 49 -41 70 -43 103 -1 6
-15 24 -32 40 -65 59 -67 62 -59 97 12 55 -7 88 -122 210 -38 41 -72 91 -101
151 -24 50 -68 119 -97 154 -55 66 -125 203 -116 227 3 8 2 14 -2 14 -27 0
-141 332 -237 690 -100 369 -117 435 -118 448 0 6 -4 12 -9 12 -4 0 -8 14 -8
30 0 17 -5 30 -11 30 -7 0 -8 11 -4 31 5 20 4 29 -3 25 -6 -4 -8 2 -4 16 3 14
2 19 -6 14 -7 -4 -13 -1 -14 6 0 7 -2 18 -3 23 -2 6 -3 18 -4 28 -1 11 -6 15
-13 11 -7 -4 -8 -3 -4 5 11 17 -3 51 -20 51 -8 0 -12 5 -9 10 4 6 -7 38 -24
72 -17 34 -31 67 -31 74 0 7 -7 19 -14 27 -8 8 -17 32 -20 53 -2 22 -7 50 -10
64 -6 29 -13 94 -21 195 -4 39 -8 77 -11 85 -3 8 -5 85 -5 170 1 85 -3 178 -7
207 -7 38 -4 72 9 130 10 43 27 120 39 171 12 51 23 105 26 120 2 15 9 49 15
75 6 26 8 51 5 54 -3 4 0 16 7 27 8 12 13 30 11 41 -2 10 2 25 8 32 7 9 7 13
-2 13 -9 0 -9 4 -3 13 6 6 11 19 11 27 3 50 16 129 21 126 3 -2 6 19 5 47 -1
29 5 62 13 74 10 18 11 23 1 23 -10 0 -10 2 0 8 7 5 10 16 7 25 -4 8 -2 24 3
34 7 12 7 25 0 37 -8 14 -7 17 1 12 7 -5 9 2 5 23 -4 17 -3 38 2 48 4 10 9 34
10 53 2 19 6 55 10 80 5 41 9 73 18 150 1 14 5 41 9 60 14 73 18 91 42 240 29
172 47 258 81 365 19 61 37 121 39 135 3 14 16 70 31 125 14 55 32 127 39 160
7 33 24 110 39 172 14 61 28 131 31 154 3 23 7 45 9 48 4 6 14 63 22 121 1 14
5 36 8 50 12 65 35 273 40 360 2 30 6 78 9 105 3 28 9 84 12 125 3 41 10 98
16 125 5 28 13 84 18 125 5 41 25 138 44 215 20 76 34 141 32 144 -3 2 -1 9 4
15 17 20 72 294 95 469 8 62 17 128 20 147 2 19 9 69 15 110 5 41 13 98 16
125 3 28 9 82 15 120 5 39 12 102 15 140 3 39 8 84 10 100 2 17 15 113 29 215
31 226 53 372 66 425 5 22 10 58 10 80 0 38 3 42 43 59 96 43 142 57 176 54
26 -3 56 6 106 31 38 19 89 35 112 37 28 2 64 15 100 37 32 19 87 47 122 61
35 14 85 39 110 54 25 16 119 65 209 110 210 105 332 185 457 297 22 20 58 47
80 60 44 26 159 60 174 50 5 -3 12 -2 14 3 9 13 136 4 191 -14 28 -9 71 -28
96 -42 25 -15 48 -25 52 -24 4 1 58 -37 120 -84 108 -81 200 -174 256 -259 38
-58 211 -402 220 -439 5 -19 21 -39 40 -51 17 -11 34 -27 37 -36 6 -17 55 -15
55 2 0 5 6 6 14 3 16 -6 46 21 46 42 0 9 5 25 12 37 22 40 35 84 32 113 -1 16
-2 63 -1 104 5 253 1 338 -20 435 -12 55 -24 145 -26 200 -5 79 -13 121 -40
200 -95 275 -228 564 -327 709 -56 84 -79 109 -147 161 -27 20 -64 51 -83 69
-52 48 -215 131 -295 150 -5 1 -26 7 -45 14 -75 24 -165 32 -415 36 -237 3
-327 0 -484 -19 -29 -4 -124 -2 -210 4 -86 6 -185 13 -221 15 -36 2 -87 9
-115 15 -141 29 -268 50 -342 56 -51 4 -116 18 -170 36 -90 31 -109 37 -129
38 -6 1 -14 27 -18 58 -22 184 -142 531 -389 1118 -23 55 -42 103 -43 108 -1
4 -2 12 -3 18 0 5 -5 7 -11 4 -6 -3 -10 4 -10 17 0 39 -152 327 -185 350 -5 4
-6 8 -2 8 5 0 -6 14 -23 31 -17 17 -29 34 -26 36 4 4 -13 28 -42 59 -7 8 -11
14 -8 14 6 0 -83 98 -132 146 -19 17 -57 48 -85 68 -225 158 -292 209 -362
275 -67 64 -173 137 -315 217 -11 6 -29 23 -40 37 -12 15 -30 27 -41 27 -11 0
-18 4 -15 9 3 5 -17 23 -44 41 -28 18 -60 45 -71 61 -11 16 -46 47 -77 68 -31
22 -66 51 -76 65 -10 14 -27 26 -37 26 -11 0 -19 4 -19 9 0 5 -13 14 -29 19
-25 9 -49 25 -85 57 -24 22 -75 55 -85 55 -5 0 -21 10 -34 23 -13 12 -35 32
-50 44 -17 14 -24 28 -21 38 13 34 -98 109 -211 143 -22 6 -80 41 -130 78
-150 112 -360 246 -550 351 -279 155 -563 304 -750 393 -93 44 -192 92 -220
106 -245 127 -303 158 -320 174 -26 24 -95 54 -169 75 -33 9 -114 38 -180 64
-67 27 -220 81 -341 121 -200 66 -223 76 -256 110 -23 25 -50 42 -80 50 -24 6
-55 15 -69 20 -22 8 -93 23 -170 35 -14 2 -36 7 -50 11 -14 3 -35 7 -47 8 -13
0 -23 4 -23 9 0 4 -13 7 -29 7 -15 0 -48 10 -72 23 -49 25 -160 64 -199 70
-14 2 -32 7 -40 10 -8 3 -44 13 -80 22 -36 9 -69 20 -75 23 -5 4 -19 7 -30 8
-11 1 -38 6 -60 12 -22 7 -72 14 -110 18 -60 5 -76 11 -111 40 -23 18 -44 31
-47 27 -4 -3 -13 0 -22 7 -8 7 -15 9 -15 5 0 -4 -6 -2 -13 4 -8 6 -16 8 -20 5
-3 -3 -15 0 -27 6 -17 9 -21 9 -15 0 6 -9 2 -9 -15 0 -12 6 -31 10 -41 7 -10
-3 -19 -2 -19 2 0 4 -12 6 -27 4 -16 -3 -73 3 -128 12 -55 9 -115 19 -134 21
-19 2 -37 7 -41 9 -4 3 -29 7 -56 10 -26 4 -51 8 -54 10 -4 2 -33 7 -66 10
-32 4 -61 8 -64 10 -4 2 -28 6 -54 10 -27 3 -52 7 -55 10 -4 2 -34 9 -67 14
-32 6 -84 15 -114 20 -323 59 -652 115 -805 136 -51 8 -204 27 -235 30 -132
14 -229 27 -292 41 -40 8 -131 18 -203 21 -78 3 -136 10 -145 18 -33 26 -90
45 -137 45 -42 0 -123 16 -123 24 0 1 11 36 25 77 59 170 89 317 110 539 9 85
21 181 27 213 6 31 8 75 5 97 -3 22 -2 40 2 40 4 0 13 55 20 122 6 67 16 125
21 128 6 4 8 24 5 45 -2 21 -1 43 3 49 3 6 7 25 9 41 1 17 13 154 27 305 34
363 37 433 26 640 -8 162 -30 300 -60 373 -5 12 -23 69 -41 127 -80 263 -202
558 -277 666 -57 84 -92 118 -227 225 -256 203 -521 368 -720 449 -44 18 -168
76 -275 130 -107 53 -240 114 -295 135 -55 21 -161 65 -235 98 -215 95 -497
181 -675 207 -44 6 -161 24 -260 40 -203 33 -586 56 -665 40 -28 -6 -106 -5
-210 1 -215 14 -553 -9 -880 -61 -36 -5 -81 -13 -100 -16 -19 -3 -53 -9 -75
-14 -22 -4 -67 -14 -100 -20 -104 -21 -229 -50 -255 -60 -14 -5 -59 -18 -100
-30 -41 -12 -113 -35 -160 -50 -224 -75 -445 -126 -635 -146 -248 -25 -427
-51 -434 -62 -4 -6 -49 -18 -101 -27 -131 -22 -181 -31 -287 -55 -69 -15 -109
-19 -161 -14 -74 7 -106 -3 -116 -34 -4 -12 -24 -23 -59 -31 -28 -8 -70 -19
-92 -26 -65 -21 -142 -42 -285 -80 -445 -118 -711 -214 -885 -320 -114 -69
-358 -262 -580 -459 -22 -20 -46 -36 -52 -36 -7 0 -13 -7 -13 -15 0 -8 -6 -15
-12 -15 -7 0 -23 -18 -36 -40 -12 -22 -26 -40 -31 -40 -13 0 -46 -33 -49 -50
-2 -8 -14 -26 -26 -40 -13 -14 -28 -32 -34 -40 -37 -50 -107 -138 -121 -152
-51 -54 -178 -236 -234 -333 -47 -82 -187 -286 -237 -344 -24 -28 -30 -24 -77
46 -16 23 -60 83 -99 135 -76 101 -174 246 -174 259 0 4 -5 9 -11 11 -5 2 -11
10 -12 19 -2 13 -25 48 -57 86 -5 7 -10 19 -10 27 0 18 -32 76 -42 76 -5 0 -8
7 -8 15 0 8 -4 15 -10 15 -5 0 -10 7 -10 16 0 15 -28 73 -41 84 -12 11 -59
103 -59 116 0 8 -4 14 -10 14 -5 0 -10 9 -10 19 0 11 -7 26 -15 35 -8 8 -15
22 -15 30 0 9 -4 16 -10 16 -5 0 -10 7 -10 16 0 9 -6 28 -14 42 -22 41 -46 99
-46 110 0 5 -7 15 -15 22 -8 7 -13 16 -10 20 5 8 -33 119 -49 139 -9 12 -8 13
4 6 12 -6 13 -5 3 6 -7 7 -13 19 -13 27 0 8 -6 28 -14 45 -8 18 -21 52 -29 77
-9 25 -25 70 -37 100 -25 64 -125 390 -164 535 -15 55 -31 114 -37 130 -6 17
-15 55 -21 85 -5 30 -13 57 -17 60 -4 3 -11 30 -14 60 -4 30 -11 56 -17 58 -5
2 -10 17 -10 33 0 16 -6 44 -14 62 -7 18 -16 54 -20 80 -4 26 -11 47 -17 47
-5 0 -9 17 -9 38 -1 20 -7 48 -15 62 -8 14 -14 38 -15 53 0 15 -6 40 -14 55
-7 15 -16 47 -19 71 -3 24 -10 47 -15 50 -5 3 -12 24 -14 46 -3 22 -10 54 -16
70 -11 32 -30 104 -38 145 -3 14 -12 49 -20 77 -8 29 -21 79 -30 110 -9 32
-22 78 -30 103 -8 25 -14 55 -14 66 0 12 -7 35 -15 50 -8 16 -15 45 -15 64 0
19 -7 44 -15 54 -8 11 -15 35 -15 54 0 19 -6 48 -14 65 -8 18 -17 58 -21 89
-3 32 -10 60 -15 63 -5 3 -12 34 -15 70 -4 36 -11 63 -15 60 -4 -3 -11 23 -15
58 -3 34 -13 80 -20 102 -8 22 -16 67 -20 99 -3 33 -10 65 -15 71 -5 6 -12 45
-16 86 -4 41 -12 88 -19 105 -7 17 -16 64 -20 104 -4 40 -13 87 -20 104 -7 17
-16 65 -20 106 -3 41 -11 77 -16 80 -5 4 -12 35 -16 70 -3 35 -12 75 -20 90
-7 14 -13 37 -13 53 0 15 -4 27 -9 27 -5 0 -12 15 -15 33 -4 19 -16 53 -27 77
-11 23 -23 58 -26 76 -3 19 -9 34 -13 34 -5 0 -11 18 -15 40 -4 22 -11 42 -16
46 -5 3 -9 16 -9 28 0 13 -7 29 -15 36 -8 7 -15 23 -15 36 0 13 -4 24 -9 24
-5 0 -12 30 -16 68 -4 37 -11 69 -15 72 -5 3 -14 54 -21 113 -6 59 -15 107
-20 107 -4 0 -8 8 -7 18 1 39 -23 176 -31 181 -5 3 -12 42 -16 86 -4 44 -12
83 -17 86 -6 4 -13 33 -17 65 -4 33 -10 64 -13 70 -4 6 -12 67 -17 136 -10
118 -21 181 -102 593 -17 88 -33 198 -35 245 -3 47 -9 119 -14 160 -6 44 -7
115 -2 175 5 55 7 228 6 383 -2 280 -2 284 -25 308 -25 27 -64 31 -92 10z
m20360 -13988 c-3 -8 -6 -5 -6 6 -1 11 2 17 5 13 3 -3 4 -12 1 -19z m-22464
-5885 l39 -6 -3 -56 c-2 -31 -1 -61 3 -66 4 -6 3 -62 -1 -125 -4 -63 -6 -147
-3 -187 l4 -71 -93 -102 c-228 -248 -287 -331 -354 -495 -4 -11 -9 -26 -11
-33 -7 -34 -48 -102 -87 -144 -24 -25 -47 -60 -50 -76 -7 -35 -274 -574 -312
-630 -14 -20 -25 -42 -25 -48 0 -6 -32 -60 -72 -120 -81 -123 -212 -259 -329
-342 -136 -98 -442 -293 -609 -390 -390 -225 -401 -229 -711 -248 -90 -5 -117
-3 -183 15 -78 21 -157 57 -209 93 -21 15 -38 19 -66 14 l-37 -6 4 38 c3 20 8
42 12 47 21 28 74 227 120 450 31 148 42 188 63 232 6 13 7 26 4 30 -4 3 -3
11 2 17 5 6 16 34 24 61 23 76 41 115 102 214 30 50 55 92 55 95 0 3 18 32 40
65 22 33 40 63 40 66 0 4 14 26 31 50 32 45 107 94 264 172 44 22 136 72 204
112 68 39 132 71 142 71 10 0 19 4 19 9 0 5 26 12 57 16 39 5 63 14 75 28 10
11 18 17 18 13 0 -5 16 1 36 13 19 12 42 21 50 21 8 0 14 5 14 10 0 6 9 10 19
10 11 0 26 7 35 15 8 8 22 15 30 15 9 0 16 5 16 10 0 6 8 10 18 10 10 0 27 7
38 15 10 8 27 15 37 15 9 0 17 5 17 10 0 6 5 10 11 10 10 0 29 13 86 60 7 6
17 10 23 10 5 0 10 3 10 8 0 4 16 16 35 26 19 11 35 23 35 28 0 4 5 8 10 8 10
0 22 8 55 38 7 6 20 12 27 12 8 0 20 9 28 20 8 11 18 20 23 20 4 0 19 10 32
23 35 32 53 47 59 47 3 0 16 10 29 23 13 12 52 47 86 77 34 30 72 66 84 79 69
76 150 152 206 194 76 58 137 112 286 250 28 26 54 47 58 47 4 0 32 18 62 41
48 36 64 42 132 50 43 6 80 14 81 20 4 11 13 11 65 2z"/>
</g>
</svg>
