<?xml version="1.0" standalone="no"?>
<!DOCTYPE svg PUBLIC "-//W3C//DTD SVG 20010904//EN"
 "http://www.w3.org/TR/2001/REC-SVG-20010904/DTD/svg10.dtd">
<svg version="1.0" xmlns="http://www.w3.org/2000/svg"
 width="4953.000000pt" height="2072.000000pt" viewBox="0 0 4953.000000 2072.000000"
 preserveAspectRatio="xMidYMid meet">
<metadata>
Created by potrace 1.16, written by Peter Selinger 2001-2019
</metadata>
<g transform="translate(0.000000,2072.000000) scale(0.100000,-0.100000)"
fill="#000000" stroke="none">
<path d="M8680 20694 c-41 -7 -105 -13 -143 -13 -37 -1 -98 -9 -135 -19 -59
-16 -91 -17 -262 -11 -186 7 -199 6 -270 -16 -105 -32 -155 -38 -215 -24 -58
13 -76 7 -228 -80 -68 -38 -70 -39 -150 -34 -78 5 -85 4 -145 -28 -38 -21 -98
-70 -157 -127 -91 -90 -98 -94 -159 -107 -131 -28 -268 -120 -310 -210 -17
-34 -34 -56 -48 -60 -13 -4 -88 -73 -168 -154 -136 -138 -149 -148 -205 -165
-33 -10 -73 -25 -89 -33 -17 -9 -66 -24 -110 -34 -45 -9 -145 -34 -224 -55
l-143 -38 -51 19 c-64 23 -131 29 -183 16 -119 -29 -148 -38 -235 -78 -52 -23
-100 -43 -107 -43 -6 0 -27 9 -45 19 -54 32 -113 35 -208 12 -46 -12 -91 -27
-99 -34 -29 -24 -139 -85 -173 -96 -18 -6 -136 -25 -263 -42 -323 -43 -653
-111 -885 -180 -291 -87 -475 -145 -645 -204 -310 -108 -413 -144 -545 -190
-69 -24 -208 -73 -310 -108 -102 -35 -214 -76 -249 -91 -36 -14 -68 -26 -73
-26 -19 0 -428 -153 -511 -192 -89 -40 -178 -100 -245 -162 -60 -56 -251 -317
-296 -404 -10 -19 -32 -53 -50 -76 -18 -23 -38 -58 -46 -77 -7 -19 -24 -47
-37 -63 -13 -15 -42 -65 -64 -110 -23 -44 -51 -99 -64 -121 -13 -22 -45 -103
-71 -180 l-49 -140 0 -150 c0 -162 10 -218 65 -380 17 -49 40 -124 51 -165 11
-41 30 -93 42 -115 22 -39 24 -40 85 -45 l62 -5 29 -60 c28 -59 107 -145 134
-145 7 0 32 -20 56 -44 79 -81 160 -98 153 -32 l-3 27 51 -40 c84 -67 133 -70
138 -8 3 34 5 36 24 26 28 -15 68 -3 68 20 0 11 -15 59 -34 107 -54 142 -53
136 -16 132 29 -3 35 -9 51 -53 40 -104 144 -205 229 -221 19 -4 51 -18 70
-30 42 -28 89 -38 110 -25 12 9 12 21 -8 98 -12 48 -28 109 -36 136 l-15 47
32 -1 c73 -3 85 -11 133 -89 71 -116 114 -168 179 -217 119 -89 225 -126 225
-77 0 9 -18 47 -41 84 -37 63 -39 71 -26 85 17 16 12 40 -28 158 -21 62 1 42
52 -49 58 -104 133 -185 228 -246 91 -58 143 -78 173 -67 27 10 24 31 -14 91
-13 21 -24 40 -24 43 0 3 21 -5 48 -18 82 -42 132 -45 132 -8 0 9 -16 40 -36
69 -20 30 -34 55 -32 57 2 2 30 -13 62 -33 47 -29 70 -37 110 -38 40 0 72 -11
145 -47 101 -51 135 -57 150 -28 9 15 1 33 -39 95 -28 42 -50 78 -50 81 0 2
26 -12 57 -31 31 -19 65 -34 75 -34 25 0 33 26 18 58 -7 15 -19 42 -26 59
l-14 33 61 -40 c54 -35 155 -80 178 -80 5 0 14 7 21 15 11 13 7 24 -20 68 -75
118 -130 211 -130 220 0 6 13 -8 29 -30 57 -78 174 -145 258 -148 38 -1 63 -9
93 -29 53 -35 88 -48 111 -41 27 9 24 20 -22 116 -47 95 -89 202 -89 224 0 22
28 18 84 -10 30 -15 66 -25 93 -25 37 0 49 -6 83 -40 61 -61 221 -131 263
-114 25 9 21 30 -17 93 -19 31 -52 93 -75 138 -40 81 -40 83 -20 93 12 7 41 9
73 5 34 -5 62 -3 75 5 19 9 27 7 60 -19 56 -45 119 -71 172 -71 74 0 76 12 18
124 -28 54 -49 99 -47 101 1 2 31 14 66 29 71 28 75 28 172 -31 30 -18 81 -38
112 -44 50 -10 61 -9 83 5 14 9 25 20 25 25 0 4 -20 39 -45 77 -24 38 -45 72
-45 76 0 3 20 13 45 22 l46 15 44 -34 c50 -38 99 -52 120 -35 12 10 11 18 -5
56 -22 50 -21 51 62 28 202 -57 265 -300 179 -684 -36 -156 -73 -241 -169
-385 -78 -118 -180 -221 -422 -431 -96 -84 -220 -191 -275 -239 -55 -48 -110
-94 -122 -102 -12 -8 -52 -44 -89 -79 -36 -35 -70 -64 -74 -64 -5 0 -16 34
-26 75 -21 88 -26 98 -46 90 -31 -12 -74 -156 -61 -206 9 -34 -18 -118 -45
-139 -14 -11 -29 -17 -33 -13 -4 4 -23 59 -43 122 -40 128 -50 145 -75 131
-27 -14 -44 -85 -47 -187 -2 -82 -5 -96 -28 -126 -14 -19 -31 -48 -37 -66 -15
-41 -22 -33 -44 54 -25 96 -45 145 -60 145 -36 0 -63 -84 -67 -217 -3 -68 -4
-73 -25 -73 -15 0 -33 -14 -52 -40 -16 -23 -31 -37 -34 -33 -3 4 -10 42 -16
83 -19 120 -19 120 -46 120 -38 0 -104 -111 -105 -176 0 -17 -8 -38 -17 -45
-9 -8 -33 -40 -54 -72 -42 -64 -39 -66 -54 45 -3 26 -10 50 -16 53 -31 20 -82
-40 -106 -125 l-13 -45 5 76 c4 71 -3 99 -26 99 -4 0 -27 -16 -51 -35 -127
-104 -150 -150 -158 -317 -5 -108 -11 -140 -26 -126 -3 3 -12 43 -20 88 -17
98 -20 103 -49 96 -22 -6 -24 -2 -30 36 -3 24 -5 77 -3 118 l3 75 -27 3 c-24
3 -32 -5 -64 -55 -48 -74 -74 -157 -81 -260 -5 -69 -9 -84 -24 -88 -11 -4 -19
-11 -19 -16 0 -5 -4 -9 -9 -9 -5 0 -12 24 -16 53 -11 79 -21 99 -48 95 -37 -5
-87 -117 -94 -214 -7 -79 -20 -75 -22 7 -3 120 -91 68 -143 -86 -28 -83 -58
-62 -58 41 0 44 -16 84 -34 84 -21 0 -54 -51 -78 -118 -11 -31 -25 -64 -32
-72 -7 -8 -17 -24 -21 -35 -7 -19 -9 -18 -19 8 -16 43 -47 32 -64 -23 -13 -43
-17 -47 -113 -94 -127 -64 -193 -113 -197 -148 -4 -31 23 -86 88 -183 25 -38
57 -86 71 -106 31 -47 96 -126 171 -211 97 -108 274 -218 484 -302 112 -44
158 -46 330 -11 217 44 412 111 749 255 66 28 224 94 350 145 255 103 337 138
440 185 85 38 426 175 550 220 50 17 169 69 265 115 96 45 211 94 255 108 130
42 462 127 790 202 88 20 205 47 260 60 55 13 154 36 220 50 116 26 282 66
490 118 55 14 165 41 245 60 232 56 259 63 385 101 269 81 408 116 463 116 19
0 61 11 95 24 34 13 78 26 97 28 19 3 76 12 125 22 245 47 300 56 430 67 379
33 651 25 800 -23 33 -11 94 -22 135 -25 41 -3 100 -12 130 -19 30 -8 80 -14
111 -14 39 0 61 -5 70 -16 34 -41 162 -74 286 -74 62 0 86 -5 130 -27 30 -14
78 -28 106 -30 32 -3 79 -18 122 -39 39 -19 94 -39 124 -44 30 -6 109 -37 176
-71 114 -57 123 -63 153 -114 18 -30 61 -85 95 -123 108 -120 178 -214 217
-292 21 -41 52 -92 68 -113 17 -21 36 -55 43 -75 6 -20 24 -57 39 -82 21 -33
32 -68 40 -129 6 -46 21 -109 32 -139 39 -104 69 -237 83 -367 8 -71 21 -173
30 -225 13 -84 33 -232 66 -493 15 -122 56 -264 103 -362 24 -49 51 -112 60
-139 26 -82 134 -242 207 -310 36 -33 77 -81 90 -106 23 -43 24 -53 25 -275 2
-219 3 -233 28 -303 14 -41 34 -88 46 -106 13 -21 20 -51 20 -82 2 -209 205
-965 383 -1426 24 -62 56 -147 72 -188 57 -152 140 -300 225 -400 25 -30 56
-71 68 -90 25 -43 71 -86 134 -129 66 -44 97 -79 185 -211 124 -185 265 -344
339 -383 16 -8 80 -25 143 -38 l114 -24 38 -50 c64 -85 314 -385 403 -486 23
-25 70 -78 105 -118 65 -73 192 -176 261 -211 58 -30 124 -42 157 -29 15 6 77
17 137 25 162 20 246 48 348 116 175 118 312 320 384 571 38 134 41 182 10
182 -14 0 -44 -37 -103 -125 -94 -142 -190 -240 -267 -276 -86 -39 -95 -37
-118 24 -11 29 -35 68 -53 85 l-33 32 49 52 c59 62 104 153 124 251 26 123 2
133 -62 26 -51 -84 -112 -144 -148 -144 -22 0 -25 4 -25 34 0 47 -19 96 -49
129 -32 35 -136 89 -217 112 -32 10 -74 31 -92 46 -18 16 -37 29 -42 29 -5 0
-29 18 -54 40 -26 21 -54 43 -63 49 -17 9 -16 12 5 48 40 66 99 195 127 278
57 172 66 233 72 491 5 245 1 284 -32 284 -15 0 -21 -17 -90 -232 -26 -81 -61
-178 -80 -215 -34 -72 -126 -205 -178 -261 -29 -31 -109 -92 -120 -92 -3 0
-32 42 -65 94 -37 57 -84 114 -121 147 -43 38 -63 63 -67 85 -4 22 -38 69
-104 143 -133 149 -153 202 -165 436 -21 431 -56 703 -127 984 l-51 205 11
100 c9 72 9 120 2 166 -11 73 -25 178 -35 259 l-6 53 98 -6 c255 -18 444 -54
801 -155 118 -33 248 -67 290 -75 43 -8 131 -27 197 -41 66 -14 161 -32 210
-39 176 -28 283 -48 550 -106 149 -32 288 -61 310 -64 22 -4 52 -9 66 -12 l26
-5 -15 -92 c-19 -127 -10 -506 17 -722 18 -141 72 -397 130 -610 68 -257 144
-563 171 -695 52 -247 150 -690 166 -746 8 -28 26 -107 40 -175 13 -68 31
-158 40 -199 88 -437 97 -749 33 -1200 -30 -215 -109 -591 -143 -688 -30 -85
-66 -269 -77 -392 -14 -159 -5 -539 15 -635 21 -98 21 -444 0 -594 -46 -333
-211 -725 -436 -1036 -46 -63 -117 -164 -158 -224 -41 -60 -85 -120 -97 -133
-11 -13 -26 -40 -31 -61 -6 -21 -27 -56 -46 -78 -40 -44 -40 -42 -26 -87 7
-27 4 -50 -15 -111 -40 -124 -116 -227 -203 -272 -36 -19 -182 -117 -207 -140
-11 -9 -33 -21 -50 -24 -16 -4 -40 -14 -53 -22 -45 -28 -364 -75 -448 -65 -27
3 -61 -1 -87 -10 -94 -34 -153 -41 -269 -33 -62 5 -167 9 -233 9 -107 1 -129
-2 -202 -27 -46 -16 -86 -34 -90 -41 -5 -8 -24 -21 -43 -31 -28 -15 -55 -18
-140 -16 -57 1 -127 7 -154 12 -83 15 -313 -21 -339 -54 -7 -8 -38 -19 -69
-25 -74 -14 -192 -64 -265 -111 -172 -112 -306 -303 -359 -514 -21 -84 -16
-97 34 -97 43 0 75 19 172 100 98 81 264 170 319 170 15 0 19 -10 23 -58 7
-72 45 -150 94 -190 79 -66 279 -98 455 -73 70 10 94 10 130 -1 35 -10 238
-14 964 -16 506 -2 994 -4 1085 -4 91 -1 210 1 265 3 55 1 354 2 665 0 311 -1
627 2 702 7 121 9 143 14 189 38 112 62 165 162 156 298 -8 134 -58 479 -73
507 -17 35 -18 45 -5 323 13 290 25 376 66 457 25 49 76 99 100 99 34 0 91
-63 115 -127 20 -53 78 -288 100 -408 13 -69 48 -141 76 -155 13 -7 40 -42 61
-77 83 -143 259 -339 363 -405 52 -34 140 -61 163 -52 34 13 20 62 -39 137
-31 39 -83 127 -117 195 -55 112 -61 131 -65 200 l-4 77 36 38 c60 64 62 54
-42 362 -96 285 -96 282 -97 490 -1 161 -6 214 -30 345 -26 149 -27 160 -16
275 28 278 65 402 172 581 21 33 60 107 89 164 28 57 63 120 76 141 26 41 92
195 128 300 13 36 30 78 39 95 19 37 70 186 96 284 23 81 29 276 11 324 -13
35 -130 497 -175 696 l-38 165 12 210 c22 398 57 568 211 1025 113 339 200
530 390 856 368 631 479 932 511 1383 11 144 10 182 -4 285 -9 66 -15 121 -13
124 7 6 61 -91 145 -260 43 -87 89 -172 103 -190 15 -21 28 -59 36 -106 17
-105 44 -178 127 -348 80 -165 150 -255 222 -288 49 -22 108 -102 129 -174 33
-113 3 -257 -68 -323 -59 -56 -125 -79 -271 -95 -170 -19 -177 -20 -177 -43 0
-24 36 -41 190 -91 189 -62 330 -69 480 -24 82 24 127 50 188 107 172 164 229
451 153 772 -11 44 -18 81 -16 83 1 2 24 -25 51 -60 113 -149 187 -238 210
-253 14 -9 30 -28 37 -43 28 -67 169 -242 261 -324 57 -52 134 -80 228 -82 65
-2 81 -6 111 -29 57 -44 82 -93 81 -162 0 -68 -24 -122 -94 -215 -73 -98 -42
-124 79 -64 93 46 195 143 234 224 84 175 76 342 -28 594 -19 47 -35 98 -35
113 0 44 -36 102 -111 179 -66 66 -69 72 -59 98 17 45 12 147 -10 212 -11 32
-38 89 -60 126 -22 36 -40 76 -40 87 0 21 -4 25 -189 206 -325 317 -421 423
-534 592 -89 133 -124 176 -200 244 -51 46 -111 102 -134 124 -23 22 -65 60
-93 85 -35 30 -61 64 -79 105 -16 33 -53 100 -85 149 -31 50 -56 93 -56 98 0
4 10 10 23 12 12 2 54 11 92 19 39 9 142 29 230 46 88 17 205 39 260 49 l100
20 80 -48 c44 -27 129 -71 190 -100 198 -92 369 -213 442 -313 78 -106 212
-385 228 -472 3 -22 21 -89 39 -150 19 -60 37 -130 41 -155 4 -25 18 -83 31
-130 17 -59 28 -130 35 -240 19 -300 85 -532 213 -750 18 -30 57 -95 86 -145
135 -232 297 -463 452 -648 56 -67 344 -363 639 -657 548 -546 556 -556 665
-740 138 -236 231 -595 294 -1145 19 -163 30 -241 61 -419 20 -114 176 -378
355 -601 158 -196 236 -338 302 -545 64 -202 80 -293 92 -525 5 -115 15 -239
21 -275 5 -36 14 -96 20 -135 6 -38 17 -111 26 -161 23 -134 16 -176 -53 -312
l-59 -117 -1 -95 c-2 -112 -9 -132 -71 -211 -49 -63 -90 -95 -213 -170 -93
-57 -138 -74 -335 -129 -129 -37 -248 -42 -530 -23 -197 13 -236 9 -286 -24
-32 -22 -136 -139 -144 -161 -3 -9 -42 -37 -86 -61 -44 -25 -110 -72 -146
-105 -183 -168 -344 -490 -293 -586 17 -32 133 -44 191 -19 15 6 55 44 87 84
62 74 123 115 174 115 23 0 29 -9 56 -83 37 -97 53 -122 92 -142 76 -39 504
-45 675 -9 102 22 111 22 287 -5 161 -24 238 -26 748 -25 190 0 444 1 565 0
121 0 438 4 705 9 267 5 546 7 620 5 244 -9 643 -4 725 8 92 14 160 45 189 85
16 22 20 41 19 95 -2 88 -43 253 -82 330 -46 92 -175 286 -206 310 -41 32 -96
44 -147 32 -64 -14 -74 -13 -106 19 -16 16 -43 38 -60 49 -52 31 -121 101
-144 145 -82 157 -152 335 -148 377 9 85 3 178 -13 229 -24 70 -47 116 -142
286 -107 191 -145 271 -189 400 -52 153 -53 156 -71 285 -9 63 -21 144 -27
180 -11 63 -13 397 -3 615 3 55 7 207 9 337 2 130 7 242 11 248 12 20 15 509
4 570 -18 98 -31 134 -62 180 -43 65 -94 117 -155 157 -29 20 -66 54 -81 77
-16 22 -39 50 -51 61 -12 11 -33 36 -46 55 -12 19 -39 58 -59 85 -141 199
-310 482 -368 620 -70 165 -133 380 -236 805 -80 332 -103 487 -102 678 1 214
26 409 96 747 68 324 85 454 85 649 0 183 -33 403 -81 543 -17 48 -41 120 -53
158 -57 171 -202 422 -376 648 -107 138 -102 127 -110 251 -5 61 -15 143 -25
181 -9 39 -18 81 -21 95 -14 62 5 430 36 710 26 233 40 390 40 446 0 68 -7 62
115 111 87 35 358 119 461 143 49 12 152 38 229 60 77 21 172 43 210 49 383
59 621 106 795 156 47 13 139 36 205 51 128 28 417 115 630 188 72 25 256 86
410 136 257 83 432 147 685 250 122 51 255 101 405 155 265 96 572 221 775
315 174 80 436 199 553 250 54 24 167 82 250 128 255 142 345 191 515 278 90
46 176 92 190 102 15 10 35 21 44 25 9 3 92 54 184 113 92 58 186 114 208 124
118 51 709 348 794 398 170 101 278 143 637 247 127 37 286 84 355 105 226 70
637 165 864 200 77 11 143 23 147 26 4 2 60 11 126 19 214 27 347 45 362 49
17 5 565 53 616 54 571 11 1145 13 1315 3 250 -14 542 -38 630 -51 36 -5 97
-12 135 -16 39 -3 140 -15 225 -25 85 -11 189 -24 230 -29 270 -33 977 -141
1110 -169 25 -6 90 -17 145 -26 126 -20 250 -43 295 -55 19 -5 82 -16 140 -25
531 -83 1810 -388 2690 -641 943 -272 1285 -382 2020 -649 36 -13 157 -56 270
-95 265 -92 529 -189 705 -257 405 -159 536 -211 700 -278 1190 -488 1380
-572 2196 -973 316 -155 378 -179 430 -163 42 13 55 25 64 64 14 54 -64 111
-575 422 -375 229 -670 408 -855 522 -328 201 -697 409 -1372 771 -83 45 -154
82 -157 82 -2 0 -58 29 -123 63 -468 251 -1195 612 -1528 759 -49 21 -123 55
-163 74 -40 19 -74 34 -77 34 -2 0 -54 24 -117 54 -62 29 -214 99 -338 155
-124 55 -261 119 -305 141 -44 22 -109 50 -145 63 -36 14 -94 38 -130 55 -65
30 -448 193 -610 259 -47 19 -116 47 -155 63 -38 16 -144 58 -235 93 -317 124
-375 147 -415 166 -22 10 -65 26 -95 36 -30 9 -73 25 -95 34 -22 10 -67 28
-100 39 -122 42 -231 82 -251 93 -12 6 -59 24 -105 41 -46 16 -120 42 -164 58
-44 16 -129 46 -190 68 -236 85 -311 112 -365 127 -25 7 -97 32 -160 55 -63
23 -130 45 -148 50 -32 8 -127 39 -262 86 -36 12 -153 50 -260 84 -107 34
-240 77 -295 96 -55 20 -125 42 -155 50 -30 8 -71 21 -90 28 -30 13 -244 80
-320 101 -14 4 -59 20 -100 35 -41 15 -120 41 -175 58 -55 16 -145 44 -200 60
-55 17 -147 45 -205 62 -58 18 -132 41 -165 52 -33 10 -83 25 -111 33 -29 7
-87 24 -130 38 -44 14 -108 35 -144 47 -36 12 -84 25 -106 30 -23 5 -68 18
-100 30 -33 12 -79 25 -104 30 -25 4 -74 17 -110 28 -36 12 -108 30 -160 42
-138 30 -214 48 -310 71 -47 12 -107 25 -135 30 -27 5 -77 15 -110 23 -123 29
-156 36 -172 36 -10 0 -47 9 -83 19 -36 10 -101 27 -145 36 -44 10 -107 24
-140 32 -82 21 -200 42 -535 98 -52 9 -124 23 -160 32 -36 9 -94 19 -130 24
-184 22 -302 39 -360 53 -37 9 -193 30 -415 56 -44 5 -109 14 -145 19 -59 8
-122 16 -325 41 -106 13 -478 48 -680 64 -99 8 -220 18 -270 22 -49 4 -108 7
-131 5 -23 -1 -59 2 -80 8 -21 5 -122 13 -224 17 -102 3 -203 8 -225 10 -266
21 -539 25 -985 15 -267 -7 -546 -16 -620 -22 -74 -5 -169 -12 -210 -15 -41
-3 -109 -9 -150 -14 -41 -5 -136 -12 -210 -15 -74 -2 -184 -9 -245 -15 -571
-52 -1323 -40 -1985 30 -52 6 -133 10 -180 10 -47 0 -132 7 -190 15 -58 8
-152 19 -210 25 -58 6 -155 18 -216 25 -61 8 -153 17 -205 20 -52 3 -143 15
-204 25 -60 11 -193 29 -295 41 -102 11 -201 24 -221 30 -37 9 -125 24 -359
59 -69 10 -164 25 -210 33 -47 9 -134 21 -195 27 -60 7 -150 23 -200 36 -49
13 -155 34 -235 48 -80 13 -232 41 -338 60 -106 20 -212 36 -236 36 -24 0 -80
7 -124 15 -44 8 -133 22 -198 30 -194 23 -375 53 -434 71 -30 9 -109 38 -175
64 -289 117 -765 222 -1325 295 -511 66 -517 67 -925 110 -77 8 -225 19 -330
25 -190 11 -295 21 -435 39 -207 28 -370 44 -510 51 -85 5 -162 11 -170 14
-15 5 -320 29 -605 47 -147 9 -488 5 -543 -7 -13 -2 -148 -7 -300 -9 -286 -5
-614 -25 -832 -51 -69 -8 -145 -16 -170 -19 -330 -33 -903 -122 -1150 -179
-317 -72 -564 -143 -945 -271 -173 -58 -263 -91 -510 -185 -212 -82 -207 -80
-460 -165 -121 -40 -258 -87 -305 -105 -47 -17 -137 -47 -200 -66 -63 -20
-171 -53 -240 -75 -137 -43 -246 -54 -330 -32 -115 30 -170 50 -206 75 -21 15
-66 39 -99 53 -125 55 -173 81 -287 152 -65 40 -130 78 -145 84 -16 6 -37 19
-48 29 -11 10 -78 57 -150 106 -71 48 -152 106 -180 129 -315 260 -416 350
-566 509 -51 54 -115 110 -141 125 -26 15 -61 45 -76 67 -29 39 -96 99 -162
144 -19 13 -52 39 -74 56 -21 18 -74 52 -117 74 -44 23 -79 45 -79 50 0 8
-106 95 -234 191 -11 9 -55 33 -96 54 -96 48 -81 38 -197 126 -90 68 -109 78
-186 97 -48 12 -100 22 -116 22 -19 0 -44 13 -72 36 -85 71 -213 114 -337 114
-46 0 -70 6 -108 28 -45 25 -59 27 -159 28 -96 1 -115 5 -150 25 -36 21 -56
24 -210 31 -191 8 -243 16 -332 46 -71 25 -138 26 -253 6z"/>
</g>
</svg>
