<?xml version="1.0" standalone="no"?>
<!DOCTYPE svg PUBLIC "-//W3C//DTD SVG 20010904//EN"
 "http://www.w3.org/TR/2001/REC-SVG-20010904/DTD/svg10.dtd">
<svg version="1.0" xmlns="http://www.w3.org/2000/svg"
 width="1780.000000pt" height="1415.000000pt" viewBox="0 0 1780.000000 1415.000000"
 preserveAspectRatio="xMidYMid meet">
<metadata>
Created by potrace 1.16, written by Peter Selinger 2001-2019
</metadata>
<g transform="translate(0.000000,1415.000000) scale(0.100000,-0.100000)"
fill="#000000" stroke="none">
<path d="M1875 13834 c-11 -3 -62 -19 -114 -35 -52 -16 -98 -29 -104 -29 -24
0 -220 -97 -312 -155 -55 -34 -138 -81 -185 -105 -113 -56 -274 -172 -311
-223 -38 -52 -102 -188 -125 -264 -18 -62 -26 -274 -11 -325 6 -23 53 -58 78
-58 4 0 31 16 60 35 30 19 59 35 65 35 12 0 140 65 160 81 6 5 44 13 84 19 40
6 79 15 86 21 7 5 23 7 36 4 17 -4 29 0 43 15 12 13 25 18 37 14 12 -3 24 0
31 11 7 9 26 18 42 20 17 2 32 4 35 5 3 2 8 2 12 1 4 0 12 8 18 19 12 22 46
27 53 8 5 -17 -3 -48 -13 -48 -5 0 -11 -14 -15 -31 -7 -29 -8 -29 -25 -14 -17
16 -19 15 -29 -2 -5 -11 -25 -28 -45 -38 -19 -11 -36 -28 -38 -40 -2 -12 -10
-20 -23 -20 -14 0 -21 -8 -25 -30 -3 -20 -12 -31 -25 -33 -11 -2 -25 -10 -30
-17 -6 -7 -19 -14 -30 -16 -12 -3 -21 -14 -23 -27 -3 -17 -10 -22 -32 -22 -22
0 -29 -5 -32 -22 -2 -15 -11 -24 -25 -26 -12 -2 -25 -12 -28 -23 -4 -10 -12
-19 -19 -19 -7 0 -22 -9 -34 -20 -12 -11 -26 -20 -32 -20 -6 0 -14 -8 -17 -17
-4 -10 -15 -27 -25 -38 -15 -15 -17 -29 -13 -56 4 -22 2 -40 -4 -44 -22 -13
-10 -47 27 -80 55 -51 107 -49 193 6 98 64 177 96 332 134 97 24 158 33 192
31 28 -2 151 -7 274 -11 171 -5 242 -11 299 -26 41 -10 88 -19 103 -19 15 0
31 -5 34 -10 4 -6 23 -21 44 -34 55 -35 152 -127 145 -137 -7 -12 42 -59 62
-59 10 0 13 -7 8 -25 -5 -20 -1 -26 20 -35 64 -24 168 -148 196 -235 17 -51
42 -93 68 -111 11 -7 32 -44 47 -81 14 -38 51 -113 80 -168 29 -55 74 -149 99
-210 26 -60 50 -115 54 -121 4 -6 19 -30 35 -52 15 -23 35 -61 44 -84 9 -24
32 -61 50 -84 18 -23 33 -49 33 -59 0 -10 10 -32 23 -49 13 -17 31 -51 41 -76
10 -25 24 -52 31 -60 19 -23 71 -129 85 -176 7 -23 23 -53 36 -67 12 -13 41
-62 65 -108 57 -115 150 -276 204 -353 25 -35 45 -71 45 -79 0 -9 23 -47 52
-84 28 -37 68 -92 88 -121 49 -70 121 -160 190 -236 88 -97 206 -283 326 -516
61 -118 135 -258 166 -311 57 -98 108 -232 108 -282 0 -16 -9 -49 -19 -75 -24
-58 -39 -182 -47 -378 l-6 -149 37 -108 c30 -92 34 -114 26 -140 -6 -18 -12
-59 -14 -93 -5 -95 -38 -141 -258 -363 -41 -42 -94 -85 -117 -95 -23 -11 -42
-25 -42 -33 0 -15 -7 -16 -155 -14 -60 1 -183 -4 -271 -11 -176 -12 -258 -6
-395 31 -41 11 -137 32 -214 47 -80 15 -151 34 -166 45 -15 10 -53 25 -85 35
-33 9 -77 25 -99 35 -49 22 -198 59 -237 59 -37 0 -79 -22 -129 -67 -42 -38
-61 -74 -73 -135 -5 -30 -12 -39 -34 -44 -53 -11 -80 -26 -113 -60 -31 -32
-34 -41 -34 -94 0 -42 5 -63 18 -78 18 -20 20 -20 70 -3 35 12 62 15 82 10 17
-4 68 -15 114 -24 87 -18 171 -50 171 -65 0 -5 -21 -12 -47 -16 -56 -8 -70
-14 -131 -61 -64 -49 -85 -78 -78 -108 7 -27 21 -27 91 -1 17 6 73 10 133 8
l104 -3 -39 -34 -38 -33 24 -21 c27 -23 47 -26 87 -11 19 8 30 8 38 0 5 -5 36
-10 67 -10 39 0 61 -5 69 -16 8 -8 27 -22 44 -30 17 -8 48 -24 68 -34 43 -23
252 -80 292 -80 30 0 33 -7 9 -27 -36 -28 -71 -34 -201 -38 -77 -3 -154 -11
-184 -20 -39 -11 -60 -12 -92 -4 -60 15 -136 8 -150 -14 -9 -15 -3 -24 38 -60
50 -43 197 -112 269 -127 21 -4 45 -14 55 -22 28 -24 108 -51 159 -52 25 0 48
-6 50 -12 2 -7 -16 -26 -41 -42 -34 -23 -68 -34 -140 -47 -53 -9 -102 -15
-108 -14 -32 4 -49 -3 -78 -31 -17 -17 -38 -30 -48 -30 -48 -1 -40 -18 25 -57
178 -104 271 -129 372 -99 63 19 75 15 33 -10 -33 -19 -47 -65 -30 -98 9 -17
19 -18 92 -13 90 7 161 28 281 86 44 21 92 41 107 45 24 5 27 3 30 -21 5 -45
43 -42 115 9 133 95 165 122 183 158 21 41 83 100 106 100 8 0 40 11 72 24 56
23 64 23 387 24 311 1 468 8 489 20 5 3 37 4 70 3 34 -1 97 5 141 13 92 17 82
15 240 54 66 17 133 33 148 36 15 4 35 16 45 27 9 11 40 33 68 50 29 16 76 52
105 80 30 29 73 67 96 86 l42 35 42 -34 c22 -18 61 -52 85 -75 25 -24 66 -55
92 -70 26 -14 77 -48 113 -74 37 -26 91 -60 120 -74 30 -15 98 -59 153 -97 54
-38 121 -78 150 -89 28 -11 67 -28 86 -37 34 -17 35 -19 32 -72 -2 -30 -7 -72
-13 -92 -13 -50 -18 -264 -9 -428 5 -102 14 -157 34 -225 41 -136 75 -223 92
-229 9 -3 14 -12 11 -19 -2 -6 11 -41 29 -77 18 -36 66 -135 107 -221 86 -178
106 -206 271 -384 243 -261 333 -343 559 -503 17 -13 53 -44 78 -70 25 -26 67
-63 93 -82 71 -52 210 -170 219 -187 5 -8 4 -20 -3 -28 -9 -11 -7 -16 10 -25
52 -28 75 -165 49 -292 -20 -97 -79 -265 -100 -284 -11 -10 -29 -38 -40 -63
-24 -56 -46 -81 -70 -81 -10 0 -36 -17 -57 -38 -22 -20 -61 -50 -88 -66 -51
-31 -163 -122 -177 -143 -4 -7 -16 -13 -25 -13 -9 0 -28 -13 -42 -30 -25 -31
-40 -37 -120 -49 -48 -7 -71 -18 -167 -76 -35 -21 -63 -43 -63 -50 0 -7 -20
-15 -47 -19 -98 -13 -120 -18 -193 -43 -81 -27 -125 -50 -179 -88 -18 -14 -37
-22 -42 -20 -4 3 -32 -26 -61 -64 -51 -67 -87 -99 -74 -66 11 30 -3 14 -28
-32 -25 -43 -25 -48 -10 -70 11 -17 21 -22 32 -18 54 22 300 36 288 16 -19
-30 68 -101 123 -101 27 0 30 -9 16 -38 -8 -15 -17 -39 -20 -54 -8 -33 -7 -33
85 -13 35 7 69 11 74 7 6 -3 29 -5 52 -3 29 2 60 -7 105 -27 53 -25 77 -30
142 -31 43 0 86 4 95 9 29 17 201 80 216 80 8 0 17 -4 21 -9 3 -6 27 1 55 15
28 14 78 30 113 35 38 6 79 21 106 39 l45 29 50 -20 c112 -44 239 -52 313 -19
40 18 60 50 30 50 -23 0 -71 28 -113 65 l-39 35 24 17 c13 9 47 40 77 68 l53
51 11 86 c12 97 25 142 52 177 10 13 18 28 18 33 0 6 22 47 49 92 27 44 63
109 79 142 17 34 45 82 62 107 16 25 30 49 30 53 0 5 14 27 30 48 17 22 30 46
30 53 0 7 6 13 14 13 34 0 133 177 181 325 30 91 33 110 31 205 -2 85 -6 113
-23 145 -12 22 -24 52 -27 67 -4 15 -25 50 -49 77 -23 27 -57 71 -76 98 -62
86 -116 158 -134 178 -55 59 -168 271 -191 358 -8 28 -21 72 -30 96 -9 24 -16
54 -16 66 0 22 -39 182 -83 345 -32 114 -130 321 -186 393 -25 32 -61 76 -78
98 -37 46 -40 65 -16 127 13 35 25 48 57 62 38 18 41 18 85 0 41 -16 142 -36
309 -61 30 -4 56 -10 59 -13 3 -3 12 -65 20 -138 9 -96 23 -162 47 -238 19
-58 38 -123 41 -145 4 -22 22 -78 40 -125 18 -47 36 -101 40 -120 11 -49 130
-344 153 -377 10 -16 43 -64 73 -108 29 -44 70 -97 90 -117 20 -20 34 -40 31
-43 -3 -3 2 -5 11 -5 8 0 32 -20 53 -45 20 -25 59 -60 85 -78 42 -28 77 -67
129 -141 8 -12 31 -42 52 -67 40 -49 78 -120 98 -184 14 -44 34 -79 62 -111
17 -20 31 -67 48 -169 11 -65 20 -95 31 -95 14 0 11 -47 -4 -62 -13 -13 -24
-57 -51 -203 -8 -44 -33 -132 -56 -195 -22 -63 -47 -137 -55 -163 -7 -27 -33
-86 -57 -132 -52 -100 -130 -172 -246 -230 -78 -38 -124 -70 -218 -154 -86
-76 -129 -105 -142 -97 -5 3 -27 -4 -48 -15 -21 -11 -55 -19 -74 -18 -57 2
-68 0 -83 -16 -8 -8 -55 -33 -103 -56 -49 -22 -107 -55 -129 -73 -22 -17 -51
-39 -65 -48 -14 -9 -38 -27 -55 -41 -25 -23 -27 -27 -12 -33 10 -3 21 -4 24 0
4 3 17 -3 29 -15 19 -17 31 -21 64 -16 l40 5 -44 -50 c-23 -27 -53 -67 -65
-89 l-22 -39 89 0 c59 0 99 -5 118 -15 16 -8 38 -12 50 -9 12 3 39 -3 60 -14
38 -19 67 -20 131 -6 18 3 33 3 33 0 0 -4 -16 -32 -35 -62 -29 -45 -37 -69
-44 -136 -15 -130 12 -149 112 -78 78 54 98 64 91 46 -5 -12 4 -14 53 -10 149
12 257 26 301 39 64 18 208 30 216 17 3 -6 15 -8 26 -5 11 3 26 0 34 -6 20
-17 46 -102 46 -151 l0 -40 48 4 c26 2 70 14 97 27 120 54 142 66 173 92 18
15 38 27 45 27 7 0 32 13 56 29 32 21 52 46 73 88 15 31 28 64 28 71 0 7 13
26 29 42 43 44 61 90 61 162 0 113 17 176 85 314 36 72 65 135 65 140 0 5 6
21 14 35 30 59 77 227 82 294 4 62 12 86 71 205 64 128 68 139 69 210 1 41 5
100 9 130 10 67 8 203 -3 250 -5 19 -10 71 -11 115 -3 134 -25 223 -86 347
-20 39 -33 78 -31 85 3 7 0 26 -6 41 -16 38 -16 41 -29 102 -6 30 -14 60 -19
65 -4 6 -11 70 -14 144 -4 73 -8 136 -10 140 -11 17 -8 131 3 164 8 25 11 55
6 85 -12 78 -18 183 -16 258 2 85 -15 265 -30 314 -25 79 -114 268 -149 315
-31 43 -70 110 -70 122 0 1 8 3 17 3 31 0 248 71 289 95 30 18 72 28 160 38
226 28 349 9 529 -81 49 -24 106 -50 127 -58 21 -7 77 -36 125 -65 49 -28 120
-66 160 -85 88 -39 323 -174 378 -215 36 -27 190 -132 303 -206 23 -15 95 -67
160 -115 64 -48 143 -102 174 -118 32 -17 66 -42 75 -56 10 -13 47 -44 83 -69
36 -24 93 -71 128 -105 34 -33 79 -71 100 -84 20 -13 82 -68 137 -122 55 -55
110 -106 121 -114 19 -14 87 -87 169 -182 17 -19 71 -69 120 -110 85 -71 152
-141 184 -194 8 -12 25 -28 38 -35 13 -7 40 -33 60 -58 62 -78 244 -248 323
-303 41 -28 119 -93 172 -144 54 -51 132 -117 174 -146 154 -106 193 -134 257
-180 35 -26 81 -55 101 -64 20 -10 36 -21 36 -26 0 -4 5 -8 10 -8 11 0 93 -46
213 -120 17 -11 48 -27 67 -36 19 -8 62 -29 96 -45 75 -36 235 -95 329 -121
39 -11 102 -30 141 -44 39 -13 88 -24 110 -24 43 0 256 -26 344 -42 30 -5 96
-10 145 -10 103 -1 455 39 470 53 5 5 20 9 32 9 13 0 34 7 47 15 12 8 35 16
50 17 30 3 50 21 44 39 -3 8 -46 13 -144 14 -78 1 -174 8 -220 17 -86 17 -200
52 -218 67 -6 5 -27 14 -46 19 -52 15 -99 33 -150 55 -25 11 -55 20 -68 19
-27 -2 -145 52 -222 103 -30 20 -65 38 -77 41 -13 4 -23 10 -23 14 0 7 -95 50
-112 50 -17 0 -151 92 -226 154 -40 34 -90 74 -110 89 -71 54 -215 203 -268
277 -29 41 -92 115 -138 164 -47 48 -97 107 -112 130 -15 22 -56 70 -90 106
-110 115 -172 188 -200 232 -15 24 -59 84 -99 133 -39 50 -87 113 -105 140
-18 28 -43 63 -54 80 -11 16 -33 54 -48 85 -47 89 -99 173 -158 252 -30 40
-68 91 -83 113 -93 132 -162 223 -250 328 -18 21 -49 66 -69 100 -21 34 -41
67 -45 72 -4 6 -17 26 -27 45 -27 48 -248 323 -313 389 -29 30 -53 60 -53 68
0 8 -14 28 -30 45 -17 17 -63 73 -103 126 -40 52 -86 114 -103 136 -17 23 -33
46 -35 52 -2 6 -14 24 -27 40 -12 16 -41 54 -65 84 -23 30 -58 71 -77 90 -19
20 -80 87 -135 150 -115 131 -182 200 -279 285 -37 33 -106 97 -152 143 -46
45 -90 82 -98 82 -8 0 -27 21 -42 48 -15 26 -94 114 -176 196 -81 81 -148 153
-148 158 0 16 -318 328 -334 328 -8 0 -46 31 -85 69 -38 38 -97 88 -130 110
-33 23 -63 46 -66 52 -4 6 -24 23 -46 38 -39 28 -52 39 -215 175 -51 42 -97
76 -102 76 -6 0 -19 11 -29 23 -10 13 -27 29 -38 35 -23 12 -190 172 -196 187
-2 6 -22 25 -44 44 -22 18 -67 59 -100 90 -33 32 -100 85 -150 119 -88 60
-113 79 -252 193 -64 52 -91 69 -221 139 -68 36 -261 168 -355 242 -64 51
-485 269 -565 293 -26 8 -73 30 -106 50 -32 19 -77 41 -100 49 -23 8 -87 33
-142 56 -179 75 -651 225 -849 270 -77 17 -160 36 -185 42 -25 6 -74 18 -110
28 -36 10 -99 24 -140 30 -74 12 -216 46 -232 56 -5 3 -44 10 -86 15 -42 5
-108 14 -147 18 -38 5 -95 14 -125 21 -30 7 -73 15 -95 19 -22 4 -49 12 -60
18 -11 6 -58 16 -105 22 -47 6 -130 17 -185 25 -55 9 -122 17 -150 19 -27 2
-65 13 -83 24 -19 12 -74 30 -124 42 -103 24 -319 99 -427 148 -41 18 -97 53
-125 77 -28 23 -71 57 -96 75 -79 55 -305 272 -530 508 -52 55 -120 122 -150
150 -30 27 -93 92 -140 144 -47 51 -106 116 -131 144 -25 27 -85 96 -132 153
-47 57 -130 151 -185 210 -145 157 -272 314 -305 377 -8 17 -43 59 -77 95 -65
68 -192 232 -203 263 -4 9 -26 45 -49 79 -24 33 -53 78 -64 99 -12 20 -36 52
-53 71 -17 18 -42 49 -55 68 -36 54 -147 240 -169 285 -11 22 -38 67 -62 100
-23 33 -49 74 -58 91 -19 36 -127 171 -206 257 -31 34 -70 85 -86 112 -28 49
-271 298 -353 363 -55 43 -180 112 -257 142 -33 12 -69 27 -80 32 -32 14 -128
37 -135 33 -4 -2 -42 5 -86 16 -78 19 -334 35 -379 23z"/>
</g>
</svg>
