<?xml version="1.0" standalone="no"?>
<!DOCTYPE svg PUBLIC "-//W3C//DTD SVG 20010904//EN"
 "http://www.w3.org/TR/2001/REC-SVG-20010904/DTD/svg10.dtd">
<svg version="1.0" xmlns="http://www.w3.org/2000/svg"
 width="3467.000000pt" height="3008.000000pt" viewBox="0 0 3467.000000 3008.000000"
 preserveAspectRatio="xMidYMid meet">
<metadata>
Created by potrace 1.16, written by Peter Selinger 2001-2019
</metadata>
<g transform="translate(0.000000,3008.000000) scale(0.100000,-0.100000)"
fill="#000000" stroke="none">
<path d="M32688 29595 l-1227 -484 -218 -134 c-120 -74 -299 -184 -398 -244
-99 -61 -340 -208 -535 -328 -195 -120 -485 -298 -645 -395 -159 -98 -450
-276 -645 -395 -195 -120 -422 -259 -504 -309 -139 -85 -164 -105 -405 -331
-141 -132 -659 -616 -1151 -1076 -2206 -2060 -1961 -1825 -2263 -2174 -391
-450 -2365 -2726 -2619 -3020 -219 -253 -254 -300 -1447 -1923 -102 -139 -273
-371 -379 -515 -106 -144 -280 -381 -387 -527 -107 -146 -292 -398 -412 -560
-119 -162 -329 -432 -467 -600 -353 -430 -850 -1037 -1172 -1430 l-274 -335
-718 -372 -717 -372 -1610 -536 c-885 -295 -1689 -567 -1785 -605 -96 -37
-257 -100 -357 -139 -277 -107 -505 -196 -863 -336 -179 -70 -406 -158 -505
-197 -705 -274 -692 -269 -1124 -493 -228 -118 -416 -213 -418 -211 -3 2 5 22
17 45 11 23 19 41 16 41 -2 0 -482 -311 -1066 -691 -584 -379 -1067 -692
-1074 -695 -9 -3 -32 50 -75 173 -61 176 -64 182 -259 508 l-198 330 -417 316
c-331 250 -428 319 -470 331 -28 9 -151 46 -272 83 -121 37 -299 91 -395 120
-96 29 -223 67 -281 85 l-107 31 -643 8 -644 7 -355 -67 c-195 -37 -442 -84
-549 -105 l-194 -37 -286 -165 -286 -164 -340 -60 -340 -59 -300 -9 c-270 -9
-318 -14 -481 -43 l-180 -33 -92 -58 c-50 -32 -95 -63 -100 -70 -5 -6 -19 -92
-32 -191 -12 -99 -26 -184 -31 -190 -16 -17 -9 -35 25 -66 42 -36 52 -67 61
-179 6 -79 9 -88 53 -151 l47 -68 185 -60 c165 -54 206 -63 380 -85 394 -51
613 -76 655 -76 81 0 598 -89 635 -109 19 -10 157 -87 305 -171 149 -84 315
-177 370 -208 68 -37 196 -131 396 -288 163 -128 479 -377 702 -552 l406 -318
335 -425 c184 -233 498 -631 698 -884 l363 -459 245 -114 c135 -62 355 -164
490 -227 277 -128 741 -343 965 -447 376 -175 313 -155 602 -193 142 -19 431
-57 643 -84 371 -49 394 -53 620 -116 129 -36 321 -88 425 -116 105 -29 193
-57 197 -63 5 -8 8 -7 8 2 0 7 -18 44 -40 83 -22 39 -40 74 -40 78 0 4 84 -9
188 -29 103 -21 277 -54 387 -74 l200 -37 484 45 c266 25 485 47 488 49 2 3
-49 49 -113 103 -64 54 -112 99 -108 101 5 1 103 23 218 48 l210 46 40 -40 41
-40 85 6 85 6 90 -73 c50 -41 92 -77 95 -81 3 -4 39 -100 80 -213 41 -113 77
-200 81 -193 3 6 11 48 17 92 10 76 9 89 -27 262 -37 175 -39 183 -79 231 -23
27 -48 54 -56 61 -20 17 0 77 28 85 45 12 70 4 198 -68 232 -129 250 -140 413
-255 l160 -113 85 5 c124 6 91 34 503 -430 117 -132 117 -132 166 -260 127
-328 211 -554 211 -565 0 -6 -16 -40 -36 -75 l-36 -64 24 -143 24 -143 -168
-319 c-93 -176 -176 -333 -186 -351 -9 -17 -128 -171 -264 -342 -165 -207
-248 -318 -248 -334 0 -13 -12 -35 -28 -50 -26 -25 -38 -27 -222 -46 l-195
-19 -30 -36 -30 -36 -89 0 -90 0 -230 -136 c-127 -75 -236 -141 -242 -147 -7
-7 -30 -61 -52 -122 -22 -60 -61 -163 -85 -227 l-46 -116 24 -306 24 -306 142
-215 c78 -118 142 -215 144 -215 3 0 -115 381 -133 431 -6 16 4 123 27 309
l36 286 107 120 107 120 123 18 c68 10 131 20 140 22 10 3 18 -2 20 -12 2 -13
43 -30 156 -65 l154 -48 57 62 c31 34 75 82 98 106 l41 45 58 -17 c33 -9 81
-23 107 -31 l48 -15 17 30 c36 64 37 65 61 30 20 -28 28 -74 66 -380 l42 -349
-43 -288 -42 -289 23 -22 c24 -21 24 -22 11 -96 -12 -70 -11 -88 15 -253 l28
-177 70 -71 c39 -38 73 -68 75 -65 3 3 -5 73 -17 157 l-22 151 35 107 35 106
60 25 c33 14 65 30 71 36 7 7 33 137 58 290 l47 277 -10 297 c-6 163 -9 298
-7 300 7 7 100 -328 111 -402 7 -44 23 -168 36 -276 22 -191 23 -196 49 -211
25 -14 27 -22 39 -134 17 -168 15 -163 90 -259 49 -63 79 -92 109 -105 23 -11
42 -17 42 -13 0 3 -18 65 -41 138 l-41 133 12 112 c9 96 15 117 37 147 l26 34
-27 367 c-15 202 -32 394 -37 427 -4 33 -42 183 -83 334 -66 244 -77 277 -106
306 -22 23 -31 40 -28 59 l3 26 46 -40 46 -39 62 11 c33 6 61 14 61 18 0 4
-28 20 -62 36 l-62 29 -14 65 c-14 61 -13 66 7 105 l22 40 -30 107 -31 107 41
167 40 167 151 206 c112 152 203 261 346 414 l194 207 6 178 5 177 65 149 64
149 -36 186 c-21 102 -39 193 -42 203 -4 13 12 11 98 -17 57 -18 168 -45 248
-60 80 -14 291 -53 470 -86 179 -34 364 -68 412 -77 83 -15 88 -17 89 -41 0
-14 6 -156 13 -316 l13 -290 -147 -291 c-82 -159 -148 -297 -147 -305 1 -8
-31 -77 -72 -153 l-74 -140 7 -175 7 -176 49 -75 c28 -41 50 -73 50 -70 0 3 7
88 15 188 l15 182 106 125 106 125 67 0 66 1 166 297 166 297 59 293 c32 160
60 292 64 292 3 0 31 -73 63 -162 l57 -163 22 -260 c18 -227 23 -262 40 -277
15 -14 22 -45 34 -155 l15 -138 92 -147 92 -148 60 -18 c33 -10 61 -15 63 -12
1 3 -30 78 -69 166 l-71 159 12 115 c10 97 16 119 36 140 22 24 23 31 30 295
l7 270 -38 308 c-21 169 -35 310 -33 313 3 3 22 -5 42 -17 20 -11 36 -18 36
-15 0 4 -13 30 -30 59 -16 30 -30 58 -30 64 0 6 39 18 88 27 75 14 428 78 662
121 41 7 119 21 174 31 l98 18 57 70 c117 145 141 176 141 183 0 5 -96 7 -212
6 l-213 -3 105 39 c58 22 194 71 304 109 109 39 199 72 200 74 2 2 37 46 79
99 l77 96 -75 304 -75 304 20 110 c11 61 25 125 31 142 10 32 8 36 -60 115
l-70 83 42 19 c23 11 104 45 181 77 l138 57 70 142 c38 78 68 144 65 146 -2 2
-91 -16 -197 -41 -106 -25 -199 -45 -208 -45 -8 0 87 63 212 140 364 225 323
191 385 318 l55 111 -143 293 c-79 161 -147 297 -152 302 -7 8 -203 -40 -552
-136 -60 -16 -111 -27 -113 -25 -3 2 62 58 143 123 245 196 378 305 381 313 1
5 -17 51 -42 104 l-44 95 -94 -24 c-51 -13 -95 -24 -98 -24 -2 0 28 33 69 74
l73 73 -31 61 c-25 50 -36 62 -68 73 -39 13 -314 127 -320 133 -6 5 363 979
409 1082 25 54 44 101 42 103 -1 2 -103 -2 -224 -9 -122 -6 -223 -10 -225 -8
-1 2 145 106 325 232 l328 229 52 114 c28 62 50 117 48 122 -2 4 -110 -13
-241 -39 -131 -26 -232 -41 -225 -35 7 7 159 120 338 253 l325 241 104 233
c58 128 144 319 191 423 l87 190 414 558 c228 308 495 668 594 802 99 134 313
422 475 641 162 219 311 421 330 449 20 27 143 203 275 390 131 187 295 421
365 520 70 99 265 378 435 620 285 405 561 798 988 1408 92 130 241 343 332
472 167 238 392 558 628 895 71 102 157 214 191 250 33 36 322 337 641 670
320 333 911 949 1315 1370 404 421 920 959 1148 1197 228 237 435 446 459 464
l45 32 -74 28 c-40 16 -144 54 -231 85 -86 32 -156 59 -153 61 2 2 173 12 379
22 206 10 381 22 389 27 15 9 1430 1023 2188 1567 107 77 261 188 342 246 81
58 144 108 140 112 -4 4 -72 26 -152 49 -247 72 -266 78 -250 84 8 3 187 32
397 65 l382 61 66 47 c36 25 65 50 65 55 0 4 -12 8 -27 8 -61 -1 -1142 95
-1135 100 4 4 122 34 262 68 140 34 514 124 830 201 316 77 600 145 632 152
l56 12 189 215 c103 118 333 379 509 581 177 201 317 367 310 369 -6 1 -105
-18 -221 -43 -115 -25 -336 -73 -490 -105 -154 -33 -349 -75 -432 -93 -84 -19
-153 -31 -153 -28 0 3 65 34 143 67 78 34 473 207 877 384 l735 322 215 246
c362 413 671 765 712 810 33 36 39 48 33 70 -3 15 -13 97 -22 182 -8 85 -16
156 -17 157 -1 1 -296 -56 -656 -127 -360 -71 -656 -128 -658 -125 -4 4 32 27
512 335 529 339 629 405 630 413 1 5 -536 251 -539 246 0 0 -552 -218 -1227
-484z m-16643 -24635 c3 -5 -3 -10 -14 -10 -11 0 -23 5 -26 10 -3 6 3 10 14
10 11 0 23 -4 26 -10z"/>
<path d="M16670 2451 c0 -28 24 -45 40 -26 16 20 6 45 -20 45 -13 0 -20 -7
-20 -19z"/>
</g>
</svg>
