<?xml version="1.0" standalone="no"?>
<!DOCTYPE svg PUBLIC "-//W3C//DTD SVG 20010904//EN"
 "http://www.w3.org/TR/2001/REC-SVG-20010904/DTD/svg10.dtd">
<svg version="1.0" xmlns="http://www.w3.org/2000/svg"
 width="974.000000pt" height="392.000000pt" viewBox="0 0 974.000000 392.000000"
 preserveAspectRatio="xMidYMid meet">
<metadata>
Created by potrace 1.16, written by Peter Selinger 2001-2019
</metadata>
<g transform="translate(0.000000,392.000000) scale(0.100000,-0.100000)"
fill="#000000" stroke="none">
<path d="M8885 3899 c-22 -10 -57 -19 -77 -19 -20 0 -85 -9 -144 -21 -58 -11
-119 -17 -134 -14 -45 10 -198 -14 -300 -47 -129 -42 -216 -102 -319 -221 -85
-98 -129 -135 -193 -162 -53 -22 -82 -19 -225 20 -228 62 -425 103 -548 114
-66 6 -322 16 -570 21 -247 6 -477 15 -510 20 -160 25 -279 31 -419 20 -308
-24 -494 -55 -781 -130 -133 -35 -239 -56 -355 -71 -578 -70 -778 -79 -1185
-55 -379 22 -513 33 -765 63 -316 36 -547 35 -869 -7 -358 -46 -602 -106 -832
-203 -179 -77 -409 -205 -562 -315 -109 -78 -123 -113 -40 -97 49 9 330 100
423 137 116 46 420 119 560 134 69 8 242 18 385 23 426 16 597 -4 976 -113
290 -84 469 -128 694 -171 202 -38 413 -107 799 -259 121 -47 294 -109 385
-137 91 -29 178 -58 192 -65 15 -7 66 -64 114 -125 l87 -112 -18 -66 c-9 -35
-18 -101 -19 -145 -1 -50 -7 -90 -16 -104 -8 -13 -48 -45 -89 -71 -41 -27 -85
-60 -98 -74 -13 -13 -56 -113 -97 -221 -78 -209 -128 -316 -174 -375 -43 -55
-51 -76 -58 -147 l-6 -65 61 -57 c46 -43 75 -83 118 -162 111 -206 238 -375
313 -415 14 -8 42 -30 61 -51 62 -64 178 -106 235 -83 17 6 58 10 93 10 59 -2
65 0 93 30 29 31 37 32 83 14 17 -8 17 -6 2 22 -25 50 -79 65 -228 65 -122 0
-128 1 -142 23 -9 13 -39 38 -69 55 -42 26 -59 44 -85 94 -18 33 -81 130 -141
214 -60 85 -117 172 -126 194 -15 40 -15 41 7 65 13 14 111 89 218 166 107 78
227 168 267 199 86 69 190 188 238 273 19 34 50 74 70 89 39 30 65 73 65 109
0 16 22 49 66 96 l67 72 21 -30 c11 -16 34 -45 50 -66 39 -48 31 -65 -63 -145
-62 -53 -79 -75 -106 -134 -18 -39 -40 -107 -50 -151 -38 -181 -69 -284 -111
-375 -69 -152 -62 -209 34 -284 44 -33 74 -69 117 -138 122 -197 254 -347 342
-392 18 -9 40 -28 49 -42 21 -32 86 -70 155 -90 43 -13 60 -14 91 -5 21 7 59
9 86 5 53 -7 84 4 112 39 15 17 21 19 48 9 39 -14 44 4 10 36 -37 34 -73 42
-207 49 l-126 5 -36 35 c-20 19 -53 45 -72 56 -20 12 -53 49 -75 82 -22 33
-90 121 -152 195 -118 141 -160 201 -160 235 0 12 91 111 249 270 259 261 328
346 383 475 15 36 28 71 28 79 0 7 16 50 36 94 32 71 36 85 29 131 -16 121
-17 141 -10 202 l7 64 121 0 c242 0 494 35 797 111 107 27 197 45 201 41 48
-52 106 -131 101 -137 -4 -4 -20 -13 -37 -21 -30 -14 -91 -55 -110 -73 -77
-74 -89 -97 -35 -66 14 8 34 14 44 15 18 0 38 11 135 76 19 13 36 22 38 20 2
-1 -10 -28 -26 -58 -15 -31 -31 -71 -34 -89 -3 -19 -9 -43 -12 -54 -16 -43 56
52 89 118 19 37 39 74 46 82 7 8 12 38 12 66 0 42 3 49 17 44 9 -4 31 -9 49
-12 24 -4 31 -10 28 -22 -3 -9 -10 -36 -16 -61 -6 -25 -15 -58 -20 -75 -4 -16
-8 -59 -8 -95 l0 -65 15 35 c8 19 21 42 28 50 13 14 20 36 46 148 6 23 12 42
14 42 2 0 11 -26 20 -57 9 -32 21 -65 26 -73 5 -8 16 -30 24 -47 9 -18 17 -33
20 -33 10 0 -7 116 -26 177 -10 34 -19 71 -19 83 0 29 -74 100 -142 135 l-57
30 27 14 c38 19 105 74 192 157 86 81 136 117 237 167 92 47 190 130 318 268
55 60 117 120 136 134 57 38 151 58 237 50 48 -4 83 -3 101 5 24 9 39 7 102
-18 41 -16 119 -46 175 -66 55 -20 174 -74 263 -121 222 -116 246 -121 338
-69 49 28 73 62 53 74 -7 5 -10 15 -7 24 4 9 2 16 -2 16 -5 0 -12 -6 -14 -12
-3 -7 -6 -3 -6 10 -1 26 -16 29 -30 5 -9 -15 -10 -13 -11 12 0 23 -3 27 -10
15 -8 -12 -10 -12 -11 5 0 15 -3 13 -12 -10 l-11 -30 -6 35 -6 35 -16 -30
c-18 -31 -21 -28 -18 17 2 37 -17 44 -25 8 -10 -45 -24 -36 -18 13 4 39 3 41
-11 23 -9 -11 -16 -23 -16 -28 0 -4 -4 -8 -10 -8 -5 0 -10 17 -10 38 l-1 37
-17 -30 -17 -30 -3 38 c-4 41 -16 49 -25 16 -6 -22 -27 -17 -27 6 0 9 -6 12
-15 9 -11 -5 -15 2 -15 27 l0 34 -20 -25 -20 -25 0 27 c0 30 -17 47 -22 22 -2
-11 -12 -6 -38 21 l-35 37 115 -7 c100 -6 130 -13 235 -50 66 -24 121 -42 123
-40 2 2 -19 21 -47 43 -66 52 -139 79 -277 102 -61 11 -124 24 -140 31 -16 6
-39 15 -52 20 l-22 9 22 37 c13 21 37 66 53 101 l29 62 44 0 44 0 -4 -35 c-5
-40 10 -42 29 -4 l13 24 0 -30 1 -30 24 28 25 28 0 -25 c0 -34 13 -33 30 2
l14 27 6 -35 6 -35 19 35 c19 35 19 35 25 10 l6 -25 15 23 c19 30 27 28 22 -5
l-4 -28 24 27 c22 24 26 25 32 10 6 -15 9 -14 26 7 14 18 19 19 19 7 0 -23 16
-20 35 7 l17 22 -7 -25 c-7 -25 -7 -25 25 5 18 17 29 23 25 15 -5 -8 4 -4 18
9 25 23 27 23 27 5 1 -17 2 -17 20 5 11 13 20 17 20 10 0 -8 8 -5 19 8 11 12
25 23 31 25 9 3 10 23 5 72 -7 66 -9 68 -53 101 -40 29 -89 46 -168 59 -11 1
-25 6 -30 9 -10 5 -192 35 -267 42 -21 3 -43 7 -49 11 -7 4 -8 3 -4 -4 5 -8
-16 -10 -76 -5 -76 5 -85 8 -106 34 -27 33 -42 35 -97 8z"/>
</g>
</svg>
