<?xml version="1.0" standalone="no"?>
<!DOCTYPE svg PUBLIC "-//W3C//DTD SVG 20010904//EN"
 "http://www.w3.org/TR/2001/REC-SVG-20010904/DTD/svg10.dtd">
<svg version="1.0" xmlns="http://www.w3.org/2000/svg"
 width="1424.000000pt" height="1536.000000pt" viewBox="0 0 1424.000000 1536.000000"
 preserveAspectRatio="xMidYMid meet">
<metadata>
Created by potrace 1.16, written by Peter Selinger 2001-2019
</metadata>
<g transform="translate(0.000000,1536.000000) scale(0.100000,-0.100000)"
fill="#000000" stroke="none">
<path d="M9840 15349 c-25 -6 -82 -12 -127 -14 -46 -2 -109 -10 -140 -16 -32
-7 -89 -14 -128 -15 -38 -1 -86 -7 -105 -13 -19 -6 -51 -11 -71 -11 -20 0 -59
-6 -85 -14 -83 -25 -323 -83 -454 -110 -69 -15 -138 -32 -155 -37 -16 -6 -48
-14 -70 -18 -22 -4 -56 -13 -75 -19 -132 -43 -163 -52 -185 -52 -22 0 -89 -23
-245 -85 -19 -8 -46 -17 -60 -20 -14 -4 -45 -16 -70 -27 -25 -11 -54 -24 -65
-29 -11 -5 -42 -16 -70 -25 -54 -18 -181 -75 -285 -128 -36 -18 -94 -43 -130
-56 -36 -13 -72 -29 -80 -35 -8 -7 -35 -21 -60 -32 -168 -75 -401 -202 -480
-262 -44 -34 -227 -151 -246 -157 -21 -8 -183 -141 -226 -186 -14 -16 -32 -28
-40 -28 -7 0 -43 -28 -79 -63 -130 -122 -235 -219 -277 -255 -64 -55 -131
-125 -137 -143 -3 -9 -32 -38 -65 -63 -33 -26 -60 -51 -60 -56 0 -5 -22 -32
-49 -62 -26 -29 -55 -66 -64 -83 -8 -16 -57 -77 -107 -135 -51 -58 -102 -121
-115 -140 -12 -19 -30 -41 -39 -49 -9 -7 -39 -56 -68 -108 -39 -71 -68 -108
-115 -149 -41 -36 -63 -63 -63 -77 0 -12 -8 -44 -17 -70 -17 -47 -17 -50 2
-85 11 -20 32 -43 47 -52 25 -13 30 -13 60 3 18 10 53 42 78 72 37 44 52 55
87 60 43 7 76 34 87 72 4 12 34 50 67 84 37 40 59 71 59 86 0 17 10 28 35 40
21 10 35 24 35 35 0 20 119 148 138 148 6 0 17 10 23 23 13 23 76 91 189 204
68 68 292 246 345 274 45 24 190 112 271 163 39 26 79 46 89 46 11 0 33 13 50
30 39 38 142 102 225 141 36 17 92 47 125 69 33 21 74 41 92 45 17 3 37 13 44
21 6 8 15 14 20 14 5 0 71 30 146 66 76 36 167 77 203 90 36 14 79 32 95 39
72 32 135 55 153 55 11 0 44 11 74 25 29 14 61 25 71 25 10 0 38 11 61 25 32
19 51 24 75 19 17 -4 52 -1 76 6 43 12 47 11 69 -9 l24 -22 51 25 c30 16 67
26 92 26 23 0 56 8 73 19 17 10 55 24 85 31 31 7 67 25 86 41 36 32 55 35 85
17 18 -11 23 -10 43 14 38 45 63 52 197 54 69 1 150 7 180 13 63 13 504 19
536 8 13 -5 24 -19 28 -37 5 -28 8 -30 55 -30 38 0 51 4 63 21 19 29 165 44
275 29 43 -7 105 -13 139 -15 34 -1 72 -9 85 -16 13 -7 44 -16 69 -20 102 -15
227 -42 258 -55 49 -21 93 -18 99 6 10 38 65 27 212 -43 42 -19 45 -20 76 -2
31 16 37 16 112 0 198 -42 223 -50 364 -120 184 -92 244 -134 253 -177 5 -24
9 -29 18 -20 22 22 45 12 86 -37 23 -27 61 -60 84 -73 54 -30 56 -52 6 -56
-21 -2 -38 -7 -38 -11 0 -16 48 -51 71 -51 38 0 89 -36 89 -63 0 -31 35 -82
82 -120 33 -27 41 -29 63 -19 24 11 26 9 55 -55 16 -36 30 -72 30 -80 0 -7 17
-32 38 -56 90 -99 101 -130 62 -167 -29 -28 -30 -30 -16 -53 9 -12 24 -48 35
-78 10 -29 35 -85 55 -122 20 -38 36 -75 36 -83 0 -9 12 -36 27 -62 16 -26 32
-76 39 -116 6 -39 21 -116 33 -171 36 -169 61 -308 61 -346 0 -45 -35 -188
-49 -202 -18 -18 -13 -95 6 -105 23 -14 9 -46 -18 -39 -17 4 -24 -4 -44 -50
-31 -68 -31 -73 -2 -73 22 0 23 -3 17 -49 -3 -27 -13 -59 -21 -72 -8 -13 -21
-43 -27 -66 -7 -23 -30 -65 -52 -94 -22 -30 -52 -85 -67 -124 -31 -81 -58
-127 -131 -221 -90 -116 -287 -338 -361 -406 -8 -7 -44 -44 -80 -82 -108 -114
-158 -164 -321 -318 -218 -205 -241 -225 -291 -247 -24 -11 -62 -38 -84 -61
-22 -23 -55 -45 -76 -50 -20 -6 -56 -27 -80 -48 -62 -53 -178 -128 -246 -159
-32 -14 -74 -38 -93 -53 -19 -15 -60 -38 -90 -50 -30 -12 -67 -35 -82 -51 -35
-37 -151 -82 -263 -103 -49 -9 -112 -21 -140 -26 -27 -5 -74 -14 -103 -20 -71
-13 -212 -13 -269 2 -42 10 -47 9 -62 -9 -23 -30 -96 -37 -141 -14 -32 17
-134 41 -173 41 -9 0 -26 -11 -39 -25 -29 -31 -145 -50 -213 -35 -31 7 -52 7
-70 -2 -19 -8 -31 -8 -50 0 -40 18 -197 5 -288 -25 -43 -14 -88 -23 -100 -19
-11 3 -26 1 -33 -4 -15 -13 -228 -60 -271 -60 -18 0 -61 -7 -96 -16 -34 -9
-98 -25 -142 -36 -44 -11 -114 -33 -156 -49 -53 -20 -85 -27 -107 -23 -36 7
-118 -17 -182 -54 -25 -15 -63 -32 -85 -38 -22 -7 -78 -28 -125 -48 -57 -24
-94 -34 -112 -30 -29 6 -77 -15 -109 -47 -10 -10 -30 -19 -42 -19 -13 0 -32
-9 -42 -20 -9 -10 -49 -31 -89 -46 -39 -15 -85 -35 -102 -45 -17 -11 -43 -19
-58 -19 -55 0 -191 -83 -335 -205 -47 -40 -96 -77 -107 -83 -23 -12 -238 -171
-339 -250 -33 -26 -71 -53 -86 -60 -14 -7 -70 -47 -125 -88 -54 -42 -171 -123
-259 -181 -88 -58 -180 -119 -205 -136 -114 -78 -157 -105 -178 -111 -13 -4
-56 -34 -96 -67 -109 -87 -156 -99 -222 -54 -55 38 -136 57 -149 35 -20 -32
-85 19 -123 96 -11 22 -28 46 -37 54 -12 10 -15 23 -11 45 5 26 1 36 -25 61
-17 16 -58 83 -91 149 -32 66 -65 127 -72 135 -13 15 -43 68 -103 180 -147
272 -140 262 -236 352 -50 48 -96 88 -102 88 -5 0 -32 15 -60 32 -123 79 -206
97 -408 93 -85 -2 -127 -8 -172 -25 -33 -12 -71 -24 -85 -27 -14 -3 -32 -11
-40 -18 -8 -7 -69 -39 -134 -70 -65 -31 -141 -73 -168 -92 -41 -30 -59 -36
-126 -42 -161 -16 -276 -45 -398 -102 -34 -15 -79 -29 -100 -31 -34 -3 -39 0
-42 19 -2 14 10 40 32 69 20 26 36 53 36 61 0 24 -61 54 -100 49 -45 -6 -131
-29 -147 -39 -27 -17 -171 -87 -180 -87 -6 0 -18 -9 -28 -20 -10 -11 -22 -20
-28 -20 -16 0 -260 -152 -300 -187 -20 -18 -41 -33 -46 -33 -5 0 -48 -30 -97
-66 -49 -37 -96 -69 -104 -72 -8 -3 -28 -16 -43 -29 -16 -13 -33 -23 -38 -23
-6 0 -34 -19 -64 -42 -29 -24 -73 -56 -96 -73 -91 -65 -248 -199 -419 -360
-71 -66 -151 -138 -179 -160 -28 -22 -57 -45 -64 -52 -17 -14 -157 -431 -157
-467 0 -29 -16 -141 -32 -231 -10 -56 -28 -219 -30 -275 0 -14 3 -87 7 -163 8
-131 10 -139 32 -154 18 -12 27 -13 36 -4 18 18 22 14 52 -49 19 -41 34 -60
47 -60 14 0 18 8 18 34 0 49 14 52 47 10 66 -86 60 -80 83 -66 20 12 25 10 56
-24 27 -29 37 -35 47 -25 9 9 8 19 -6 42 -23 41 -23 89 1 89 39 0 96 -23 117
-47 34 -40 56 -26 48 32 -5 40 -4 45 13 45 11 -1 30 -7 44 -14 18 -10 30 -11
43 -4 16 8 24 4 49 -26 49 -59 71 -42 61 47 -7 57 8 66 49 32 20 -17 40 -25
57 -23 23 3 26 8 29 43 7 80 52 89 95 20 46 -72 86 -59 87 27 0 41 16 45 120
35 22 -2 25 2 22 25 -2 18 5 32 24 47 34 27 68 27 110 0 l34 -21 0 37 c0 40
36 85 68 85 17 0 72 -48 72 -63 0 -12 -87 -57 -111 -58 -13 0 -44 -16 -69 -34
-67 -51 -95 -65 -147 -72 -37 -5 -59 -16 -97 -49 -28 -24 -64 -46 -80 -49
-115 -22 -174 -40 -196 -61 -31 -28 -67 -42 -139 -54 -31 -5 -80 -17 -108 -26
-69 -23 -78 -48 -32 -86 36 -31 55 -34 93 -17 18 9 40 9 78 1 48 -9 58 -7 131
21 77 30 80 30 93 12 20 -26 18 -74 -3 -82 -9 -4 -29 1 -45 10 -44 25 -54 21
-64 -25 -11 -52 -38 -61 -83 -27 -44 33 -61 20 -61 -45 0 -37 -4 -56 -14 -59
-16 -6 -47 24 -69 69 -9 17 -22 36 -31 43 -12 10 -18 8 -32 -13 -9 -15 -19
-48 -22 -74 -4 -34 -13 -54 -34 -73 -46 -44 -38 -73 40 -155 l67 -70 75 -2
c41 -1 87 -5 101 -8 15 -3 55 2 90 11 35 10 82 19 104 22 21 2 57 13 80 23 22
10 67 21 100 25 68 8 88 15 194 68 41 20 84 37 96 37 12 0 52 16 89 35 37 19
75 35 85 35 10 0 36 13 58 29 46 33 133 81 148 81 16 0 154 88 213 137 30 23
59 43 66 43 7 0 37 17 67 39 69 49 129 85 204 121 33 15 76 39 96 53 20 13 67
43 105 66 38 23 98 60 134 83 36 22 87 52 115 66 27 13 61 33 74 43 13 11 31
19 41 19 9 0 25 9 35 20 10 11 29 20 41 20 20 0 65 18 128 52 29 15 108 38
135 38 14 0 36 -14 55 -34 18 -18 48 -38 67 -45 44 -14 146 -112 333 -321 175
-195 305 -330 315 -330 4 0 37 -34 72 -76 57 -68 287 -264 309 -264 5 0 62
-50 127 -111 158 -149 285 -250 361 -288 34 -17 88 -51 120 -74 108 -82 200
-123 328 -146 50 -10 60 -8 104 14 27 14 55 25 62 25 17 -1 83 -79 93 -110 4
-14 16 -37 27 -52 10 -15 36 -65 57 -112 21 -48 41 -89 44 -92 4 -4 14 -1 23
7 14 11 18 10 30 -6 49 -70 102 -129 126 -141 33 -17 35 -37 8 -82 -12 -19
-32 -84 -45 -145 -14 -62 -32 -132 -40 -156 -9 -24 -18 -64 -21 -90 -6 -45
-52 -198 -93 -311 -11 -30 -25 -81 -31 -113 -9 -46 -21 -69 -56 -108 -24 -27
-46 -62 -49 -77 -15 -73 -28 -105 -56 -137 -27 -30 -30 -39 -24 -77 5 -31 1
-61 -13 -103 -11 -33 -30 -96 -42 -140 -12 -44 -31 -97 -41 -117 -11 -20 -29
-63 -40 -95 -18 -55 -79 -155 -103 -171 -6 -4 -32 -30 -58 -59 -74 -80 -61
-118 23 -71 50 28 68 15 42 -29 -14 -26 -15 -33 -4 -47 7 -9 19 -16 26 -16 13
0 83 71 128 132 37 48 57 55 79 26 10 -13 18 -31 18 -41 0 -26 -32 -84 -84
-151 -41 -54 -60 -106 -37 -106 4 0 50 37 101 82 82 74 180 186 251 288 29 42
79 141 79 156 0 6 9 19 21 30 21 19 21 18 40 -5 11 -13 24 -44 31 -68 13 -55
44 -78 94 -70 76 12 183 107 233 204 11 23 30 47 41 53 15 8 20 21 20 50 0 31
5 43 25 56 18 11 24 22 20 35 -9 28 15 179 32 206 13 20 14 29 5 44 -15 24
-15 60 2 131 10 43 11 68 3 97 -8 31 -7 48 6 83 9 24 17 58 17 75 0 40 16 82
40 108 24 25 70 159 70 202 0 18 21 73 50 129 37 73 50 109 50 141 0 24 7 54
15 66 8 12 21 54 30 92 9 38 21 75 26 81 5 7 10 27 10 45 0 19 1 92 3 163 3
110 1 135 -15 170 -10 23 -19 53 -19 68 0 15 -5 30 -11 34 -7 4 -9 21 -5 45 3
21 2 48 -3 61 -4 13 -11 55 -15 94 -7 70 -6 72 17 78 28 7 77 43 77 57 0 18
-36 7 -70 -21 -19 -17 -37 -30 -41 -30 -11 0 -19 29 -12 46 6 16 139 84 163
84 7 0 23 9 37 20 28 21 59 25 83 10 12 -8 13 -14 3 -41 -12 -32 -3 -86 26
-162 6 -16 11 -41 11 -57 0 -36 38 -97 66 -104 23 -6 124 -195 124 -232 0 -13
14 -30 38 -45 22 -14 41 -37 47 -56 6 -18 20 -42 31 -55 12 -13 31 -40 43 -60
12 -20 38 -47 57 -58 18 -12 40 -30 47 -39 6 -10 28 -26 47 -36 19 -10 59 -35
90 -55 69 -48 145 -90 160 -90 7 0 47 -25 90 -55 43 -30 82 -55 87 -55 4 0 37
-28 73 -62 50 -49 92 -76 184 -121 65 -32 132 -61 150 -64 17 -4 60 -19 96
-35 36 -17 88 -33 117 -38 28 -5 67 -19 86 -32 18 -13 59 -40 91 -61 70 -47
84 -72 68 -126 -7 -21 -12 -56 -12 -77 0 -21 -9 -70 -19 -108 -10 -39 -36
-147 -56 -241 -21 -93 -48 -210 -61 -260 -31 -119 -38 -149 -70 -285 -14 -63
-37 -147 -50 -186 -35 -107 -74 -265 -74 -299 0 -16 -12 -73 -25 -125 -48
-181 -74 -319 -68 -354 4 -26 0 -44 -13 -63 -12 -18 -21 -56 -26 -108 -20
-220 -20 -261 -4 -367 9 -59 13 -114 10 -123 -19 -49 114 -379 172 -424 36
-29 87 -27 142 5 40 24 48 25 88 15 35 -9 51 -8 78 3 18 8 37 19 40 25 5 7 44
11 104 11 l97 0 146 143 c182 179 193 199 197 352 3 93 0 119 -17 165 -18 46
-21 77 -21 192 0 75 5 149 11 165 6 15 15 66 19 113 9 85 16 119 51 265 11 44
19 91 20 105 0 14 7 43 15 65 8 22 19 63 23 90 5 28 13 64 19 80 33 95 44 146
38 169 -4 15 0 41 9 63 9 21 20 83 25 138 11 120 46 315 59 328 17 17 40 -1
65 -50 20 -42 68 -127 96 -173 16 -27 80 -177 80 -189 0 -6 11 -43 24 -83 64
-192 86 -276 86 -329 0 -31 7 -78 15 -105 8 -27 15 -68 15 -91 0 -55 -63 -236
-106 -300 -19 -29 -34 -60 -34 -69 0 -9 -16 -56 -36 -103 -52 -126 -60 -147
-90 -246 -27 -90 -50 -125 -85 -125 -21 0 -59 -66 -59 -103 0 -14 -7 -43 -14
-66 -8 -22 -18 -69 -22 -103 -9 -77 -86 -238 -114 -238 -21 0 -39 -26 -69
-103 -39 -97 -116 -141 -116 -67 0 28 5 37 28 48 30 14 37 49 11 59 -8 3 -25
-4 -38 -16 -12 -11 -27 -21 -32 -21 -6 0 -23 -14 -40 -31 -16 -17 -43 -38 -61
-45 -23 -10 -35 -23 -41 -47 -5 -22 -19 -38 -44 -52 -54 -30 -162 -153 -186
-210 -27 -65 -35 -180 -15 -200 18 -19 73 -19 143 0 33 9 94 15 152 14 53 -1
113 4 134 11 28 9 66 10 143 4 141 -11 318 -6 345 11 13 8 58 13 116 14 52 1
131 5 176 10 45 4 147 6 227 3 123 -4 157 -2 209 14 45 13 98 18 186 18 119 1
123 2 129 24 3 12 18 29 33 37 36 19 70 89 70 146 0 24 -9 78 -20 119 -11 41
-20 91 -20 111 0 20 -8 47 -18 60 -33 44 -51 104 -62 214 -9 80 -9 126 -1 168
6 31 7 67 3 80 -4 12 -6 54 -5 92 2 84 2 98 0 245 l-2 115 27 3 c15 2 35 -1
46 -7 10 -5 53 -13 95 -17 68 -6 77 -5 77 10 0 9 -20 37 -44 61 -40 41 -45 51
-60 133 -13 73 -14 100 -5 146 11 53 10 58 -13 93 -46 70 -56 253 -18 340 11
27 31 91 44 143 21 82 23 106 16 175 -5 44 -9 125 -9 180 -1 73 -5 106 -16
122 -9 12 -19 41 -24 65 -20 96 -147 442 -264 718 -19 46 -47 135 -47 150 0 7
-6 26 -14 43 -26 59 -46 136 -46 176 0 31 -4 41 -20 46 -14 5 -20 15 -20 38 0
18 -9 47 -20 65 -12 19 -20 50 -20 76 0 31 -6 48 -21 62 -17 15 -20 27 -15 60
4 35 1 45 -19 64 -22 21 -25 32 -25 100 0 60 -4 83 -19 101 -10 13 -21 40 -24
59 -10 71 -36 169 -51 199 -9 16 -16 43 -16 58 0 16 -9 46 -21 67 -11 21 -18
45 -15 53 3 8 -2 31 -11 51 -18 40 -20 87 -31 517 -6 283 -6 282 2 365 8 71
21 128 42 175 11 27 11 34 -7 65 l-21 34 22 18 c17 13 21 25 16 43 -3 14 -9
36 -12 50 -5 20 -1 27 22 37 16 7 53 27 82 46 38 24 52 39 52 56 0 30 36 76
59 76 10 0 45 27 77 60 32 34 73 68 89 77 17 8 49 31 72 49 23 19 48 34 56 34
7 0 22 10 33 21 33 37 135 110 180 129 23 10 66 35 94 54 29 20 65 36 80 36
15 0 35 9 45 20 10 11 31 20 47 20 16 0 45 7 65 15 19 8 45 15 58 15 12 0 26
8 31 19 5 10 30 42 56 70 33 37 61 56 95 68 26 8 65 28 85 44 20 16 41 29 46
29 16 0 91 61 150 123 30 31 61 57 68 57 7 0 50 29 94 65 44 36 111 81 148 99
37 19 96 58 132 86 36 28 83 63 105 78 22 14 66 50 97 78 62 57 128 104 181
129 19 9 67 50 107 91 41 41 82 80 92 85 10 5 18 19 18 30 0 11 22 40 49 65
31 29 51 56 53 72 2 22 8 27 28 26 14 -1 35 -5 47 -9 16 -5 23 -2 29 17 4 12
7 33 5 46 -1 13 4 31 12 40 8 9 19 32 26 51 6 18 18 39 27 45 9 7 24 36 35 66
11 32 33 66 54 85 20 19 35 42 35 55 0 12 8 34 19 48 10 15 28 47 41 72 12 25
33 56 45 70 13 14 59 94 102 179 102 201 132 256 168 312 17 25 38 72 48 105
10 32 25 72 33 87 8 16 14 33 14 39 0 6 11 35 25 65 14 29 29 73 34 97 4 25
20 59 35 76 19 23 26 43 26 74 0 49 15 73 50 78 20 2 24 8 22 27 -2 17 6 32
23 45 16 13 27 34 30 55 2 18 11 41 19 50 10 11 16 37 16 72 1 71 21 145 44
162 13 10 17 21 13 38 -11 45 19 207 46 242 56 74 64 104 81 307 2 25 7 86 11
135 4 50 13 115 21 146 9 36 14 113 14 210 0 85 5 203 10 262 9 89 8 118 -4
160 -8 29 -20 90 -27 137 -6 47 -18 97 -25 112 -8 15 -14 41 -14 57 0 34 -30
138 -62 216 -11 28 -29 74 -39 104 -10 30 -23 59 -28 65 -15 18 -61 162 -61
191 0 14 -10 36 -23 48 -13 12 -45 69 -72 127 -27 58 -63 126 -81 152 -18 26
-44 79 -59 118 -15 40 -34 74 -41 77 -13 5 -56 87 -84 163 -7 19 -14 56 -14
81 -2 51 -15 71 -120 169 -32 30 -70 75 -84 100 -59 103 -141 209 -212 277
-48 45 -87 93 -106 130 -22 41 -41 63 -65 75 -19 9 -56 35 -84 57 -56 45 -216
146 -315 199 -36 19 -74 43 -85 53 -11 10 -45 31 -75 46 -30 16 -64 34 -75 40
-11 7 -32 14 -47 18 -25 5 -28 10 -28 45 0 48 -24 65 -77 55 -23 -4 -42 -1
-56 8 -12 8 -34 17 -49 21 -15 3 -32 15 -38 26 -6 11 -16 20 -23 20 -7 0 -61
15 -122 34 -60 20 -148 40 -195 46 -124 17 -241 39 -270 52 -14 7 -56 13 -95
13 -49 1 -93 10 -144 29 -53 20 -85 26 -111 22 -22 -3 -46 0 -63 9 -17 8 -40
12 -58 8 -17 -3 -47 1 -74 11 -32 13 -53 15 -77 8 -18 -5 -75 -5 -128 -1 -294
25 -406 32 -500 35 -58 2 -157 6 -220 8 -63 3 -135 0 -160 -5z"/>
<path d="M10670 14410 c0 -5 10 -10 23 -10 18 0 19 2 7 10 -19 13 -30 13 -30
0z"/>
</g>
</svg>
