<?xml version="1.0" standalone="no"?>
<!DOCTYPE svg PUBLIC "-//W3C//DTD SVG 20010904//EN"
 "http://www.w3.org/TR/2001/REC-SVG-20010904/DTD/svg10.dtd">
<svg version="1.0" xmlns="http://www.w3.org/2000/svg"
 width="4335.000000pt" height="1321.000000pt" viewBox="0 0 4335.000000 1321.000000"
 preserveAspectRatio="xMidYMid meet">
<metadata>
Created by potrace 1.16, written by Peter Selinger 2001-2019
</metadata>
<g transform="translate(0.000000,1321.000000) scale(0.100000,-0.100000)"
fill="#000000" stroke="none">
<path d="M17535 13193 c-33 -1 -211 -10 -395 -18 -725 -34 -984 -63 -1695
-195 -203 -38 -530 -94 -725 -125 -740 -118 -1270 -243 -1890 -447 -587 -193
-1140 -419 -2230 -915 -865 -394 -906 -412 -1390 -600 -496 -193 -588 -223
-805 -259 -145 -24 -373 -22 -495 4 -267 57 -449 155 -790 422 -85 67 -247
192 -360 278 -113 86 -263 206 -335 267 -71 61 -202 169 -290 241 -89 73 -186
159 -215 192 -66 72 -356 310 -466 382 -207 136 -559 269 -859 324 -443 82
-929 62 -1179 -48 l-53 -24 -32 83 c-46 121 -59 135 -130 135 -63 0 -62 1
-193 -107 -34 -29 -85 -80 -113 -112 -27 -33 -53 -60 -56 -60 -3 -1 -17 42
-29 95 -31 126 -52 158 -108 162 -34 3 -46 -2 -64 -21 -54 -57 -96 -118 -183
-261 -191 -316 -232 -357 -430 -419 -44 -14 -116 -30 -160 -36 -151 -22 -270
-44 -289 -54 -11 -5 -62 -44 -115 -86 -114 -92 -202 -143 -317 -181 -99 -34
-272 -130 -347 -193 -29 -24 -72 -58 -97 -74 -25 -17 -76 -56 -115 -87 -38
-31 -104 -80 -145 -108 -133 -91 -216 -177 -305 -313 -68 -105 -91 -163 -111
-276 -18 -101 -15 -311 6 -437 14 -81 54 -208 80 -249 18 -30 24 -33 70 -33
35 0 50 -4 50 -13 0 -7 15 -31 34 -54 31 -35 39 -40 80 -40 51 0 57 12 31 57
-22 39 -18 45 9 13 27 -32 102 -67 111 -52 3 4 -1 21 -8 36 -8 15 -18 39 -22
53 -6 20 -1 17 30 -18 39 -44 55 -52 55 -26 0 13 5 12 26 -5 35 -28 58 -28 51
0 -4 14 -2 19 8 15 22 -8 25 5 9 42 -21 51 -11 50 26 -2 17 -25 44 -53 61 -61
28 -15 30 -15 40 9 9 18 9 33 0 57 -25 73 -4 94 29 29 24 -48 54 -80 74 -80
22 0 27 44 11 90 -19 53 -19 50 9 50 16 0 27 -7 31 -21 9 -29 74 -99 91 -99
18 0 18 37 -1 90 -19 54 -20 50 14 50 25 0 31 -6 41 -36 15 -43 86 -122 100
-108 5 5 1 36 -10 78 -11 38 -17 73 -14 77 11 19 35 7 57 -29 14 -20 39 -52
56 -71 45 -48 58 -31 36 44 -16 55 -15 85 3 85 4 0 34 -31 66 -70 31 -39 64
-70 72 -70 17 0 17 3 -1 64 -19 62 -19 82 0 90 11 4 26 -9 48 -41 40 -58 72
-93 88 -93 12 0 10 13 -12 93 -12 42 -11 49 1 57 24 15 28 12 54 -37 30 -60
72 -101 87 -86 8 8 8 17 0 30 -5 11 -12 31 -15 44 -2 13 -7 36 -11 52 -6 24
-4 27 18 27 18 0 32 -11 52 -42 15 -22 39 -52 53 -65 26 -24 68 -32 59 -10
-39 92 -58 140 -55 142 2 2 15 6 29 10 20 5 27 2 36 -18 19 -41 74 -97 95 -97
15 0 18 4 13 18 -31 72 -45 114 -40 121 2 5 16 11 31 14 21 4 29 -2 51 -37 36
-58 64 -86 85 -86 23 0 23 4 -8 80 -20 50 -23 65 -12 71 25 16 48 9 62 -20 25
-47 66 -91 86 -91 18 0 18 4 -5 67 -17 50 -20 70 -12 75 26 16 47 7 66 -29 21
-41 65 -93 79 -93 19 0 19 13 1 71 -23 75 -23 76 1 82 41 11 94 -88 121 -224
16 -79 15 -429 -1 -579 -25 -225 -78 -321 -361 -651 -102 -118 -196 -229 -209
-246 -12 -17 -28 -29 -35 -26 -8 3 -16 -7 -20 -25 -7 -33 -46 -74 -65 -70 -8
2 -16 -10 -20 -30 -4 -18 -16 -42 -25 -52 -17 -19 -19 -19 -31 -2 -12 15 -15
15 -24 2 -5 -8 -8 -26 -5 -40 4 -19 -1 -32 -19 -49 l-25 -24 -12 26 c-16 36
-29 24 -29 -27 0 -49 -24 -81 -41 -55 -5 8 -9 20 -9 27 0 8 -6 12 -12 10 -8
-3 -14 -27 -16 -59 -3 -48 -22 -89 -41 -89 -4 0 -12 14 -18 31 -17 43 -35 27
-32 -27 2 -34 -2 -49 -17 -65 l-21 -20 -13 30 c-20 49 -33 37 -28 -24 4 -48 2
-57 -19 -77 -20 -19 -25 -20 -33 -8 -5 8 -10 21 -10 28 0 8 -6 12 -12 9 -8 -2
-13 -23 -13 -55 0 -61 -17 -86 -35 -52 -16 30 -30 10 -30 -45 0 -30 -3 -36
-10 -25 -9 13 -11 13 -20 0 -5 -8 -10 -25 -10 -37 0 -12 -20 -53 -44 -90 -91
-142 -96 -171 -39 -234 162 -179 468 -259 647 -170 34 17 126 85 206 152 482
404 759 621 902 707 145 87 157 91 356 122 103 17 212 37 243 45 54 14 64 14
183 -10 141 -28 216 -31 393 -13 105 10 140 10 250 -5 70 -9 193 -19 273 -21
157 -5 387 -46 474 -85 67 -29 168 -97 381 -254 648 -481 1129 -723 1745 -881
183 -47 350 -78 706 -130 566 -84 587 -93 704 -291 111 -188 155 -232 359
-362 251 -160 370 -203 694 -248 332 -46 526 -65 785 -75 240 -10 619 -33 775
-47 44 -4 67 -10 67 -18 0 -7 -18 -58 -40 -113 -62 -155 -112 -360 -161 -667
-20 -127 -22 -178 -23 -545 -2 -434 -2 -429 -58 -600 -18 -56 -22 -89 -22
-235 -1 -229 24 -312 99 -331 87 -22 156 63 239 295 l33 94 7 -135 c5 -85 3
-180 -4 -254 -10 -102 -10 -125 3 -159 8 -22 38 -103 66 -180 82 -226 111
-267 174 -251 43 10 57 44 73 177 8 68 24 164 35 214 25 115 25 117 -12 238
-30 96 -32 113 -34 277 -2 96 -1 157 1 135 18 -185 86 -429 143 -520 21 -33
51 -85 67 -115 32 -59 70 -84 102 -63 13 8 17 24 16 69 -3 163 -11 232 -41
324 -63 194 -78 294 -77 515 1 163 6 232 27 370 40 261 55 369 67 506 6 69 22
178 35 243 22 105 112 446 120 454 2 2 13 -29 25 -70 12 -40 62 -201 112 -358
84 -266 98 -302 213 -535 166 -337 209 -456 240 -660 12 -81 22 -112 64 -191
34 -65 45 -94 35 -94 -22 0 -17 -27 16 -89 42 -76 94 -147 126 -168 34 -22 89
-20 116 4 41 36 58 91 58 193 0 124 -17 302 -35 365 -8 28 -61 144 -119 258
-57 114 -98 203 -91 197 30 -25 160 -237 221 -362 37 -73 96 -178 132 -233 37
-55 92 -147 122 -205 l55 -105 100 -68 c55 -38 129 -93 165 -123 75 -60 110
-77 146 -68 63 16 69 84 18 199 -19 44 -56 131 -81 193 l-45 113 -88 74 c-96
81 -137 132 -194 240 l-38 70 33 -40 c108 -132 260 -253 366 -289 37 -13 85
-31 105 -40 21 -9 48 -16 61 -16 29 0 57 29 57 58 0 29 -151 192 -220 239 -71
47 -215 191 -267 268 -82 122 -146 270 -268 620 -40 116 -94 268 -119 338 -25
71 -57 172 -70 225 -26 103 -96 435 -96 456 0 9 70 17 263 29 144 10 422 31
617 47 195 17 451 35 568 42 239 13 225 17 237 -61 11 -74 92 -392 151 -596
31 -104 129 -410 219 -680 298 -889 356 -1142 342 -1480 -8 -170 -24 -274 -82
-515 -24 -102 -56 -248 -71 -325 -14 -77 -40 -183 -56 -235 -56 -177 -245
-508 -410 -717 -92 -116 -178 -203 -328 -331 -189 -161 -268 -239 -296 -295
-33 -63 -72 -90 -319 -214 -293 -148 -378 -173 -620 -188 -126 -8 -416 9 -520
31 -89 18 -270 18 -357 -1 -147 -31 -267 -96 -380 -206 -104 -101 -136 -174
-91 -210 24 -21 74 -11 178 32 85 36 111 43 172 43 92 1 106 -10 92 -74 -13
-57 -4 -105 27 -153 41 -63 63 -67 326 -67 165 0 250 4 293 14 52 13 61 13 68
0 7 -12 118 -14 750 -14 517 0 763 4 812 12 77 13 102 13 283 -1 280 -21 399
33 463 209 19 53 25 60 48 60 31 0 71 25 71 45 0 8 -20 23 -45 34 l-45 20 0
91 c0 52 -7 119 -16 154 -10 38 -15 89 -12 136 4 94 36 163 179 392 240 383
304 467 568 743 329 344 357 406 340 750 -14 279 -16 501 -8 815 14 549 42
681 278 1318 202 545 278 797 332 1097 11 66 22 121 23 122 1 1 20 -30 41 -70
140 -259 394 -564 732 -879 198 -184 375 -336 723 -623 376 -310 538 -452 705
-619 292 -292 414 -496 555 -926 32 -96 87 -246 123 -332 94 -225 123 -325
152 -515 30 -206 65 -577 65 -694 0 -112 -22 -181 -88 -283 -29 -43 -52 -84
-52 -91 0 -25 -54 -58 -275 -165 -324 -158 -399 -181 -640 -195 -126 -8 -416
9 -520 31 -89 18 -270 18 -357 -1 -147 -31 -267 -96 -380 -206 -104 -101 -136
-174 -91 -210 24 -20 74 -12 174 30 116 49 188 60 242 37 34 -14 37 -18 30
-43 -23 -85 1 -173 60 -217 27 -20 43 -21 271 -24 188 -2 258 0 307 12 55 12
65 13 72 0 7 -12 118 -14 750 -14 517 0 763 4 812 12 73 12 105 12 292 -1 219
-15 336 21 415 125 63 84 81 147 86 309 2 77 0 164 -6 192 l-9 53 51 29 c56
31 116 92 116 117 0 24 -23 26 -111 9 -45 -8 -90 -13 -99 -10 -32 10 -122 261
-158 440 -90 438 -93 746 -11 1245 15 94 22 179 23 280 0 174 -10 208 -109
352 -342 498 -594 915 -709 1175 -101 228 -147 394 -251 903 -152 747 -262
1068 -551 1612 -92 173 -154 301 -154 319 0 5 16 15 36 24 91 38 486 182 754
275 359 124 551 201 713 281 212 107 310 183 517 405 100 107 134 130 284 191
61 25 117 47 124 50 8 3 11 14 9 24 -5 20 7 26 18 9 20 -32 131 25 382 197
280 191 246 182 1264 328 684 97 1129 170 1567 256 843 165 1587 341 2557 603
1905 514 3200 789 4225 895 347 37 618 55 1820 123 345 19 1438 16 1820 -5
815 -46 1105 -76 1745 -183 933 -156 1370 -268 2290 -591 546 -192 759 -277
1245 -501 666 -306 1043 -510 1455 -786 485 -325 798 -649 1071 -1106 104
-176 157 -240 195 -240 47 0 75 42 64 98 -26 140 -171 429 -350 702 -230 349
-426 569 -763 858 -435 373 -721 571 -1473 1020 -605 361 -939 529 -1679 844
-732 312 -1278 503 -2181 763 -693 200 -1816 443 -2634 569 -491 76 -1385 177
-2125 241 -1217 104 -2608 81 -4650 -75 -1050 -80 -1274 -90 -1985 -91 -1028
0 -1790 49 -2763 176 -478 63 -668 95 -1372 230 -461 88 -778 141 -1316 219
-247 36 -586 85 -754 110 -376 55 -673 92 -849 106 -119 9 -746 11 -906 3z"/>
</g>
</svg>
