<?xml version="1.0" encoding="utf-8"?>
<svg xmlns="http://www.w3.org/2000/svg" viewBox="-425.531 514.0037 431.362 103.3706" width="431.362px" height="103.371px">
  <g id="g936" style="fill:#ff7f2a;fill-opacity:1" transform="matrix(1.1139199733734129, 0, 0, 1.1139199733734129, -222.19879481492626, 526.104927273168)">
    <path id="path1027" d="m -93.698446,31.51114 c 0,0 9.860638,13.82072 13.923156,21.25145 0.649122,1.18731 1.324383,2.6391 1.744345,3.92544 0.291774,0.89365 0.532963,1.82534 0.55451,2.76516 0.01706,0.74419 -0.143949,1.48882 -0.338284,2.20738 -0.368302,1.36183 -1.053908,2.61748 -1.554837,3.93629 -0.669856,1.76357 -1.401074,3.50876 -1.939613,5.31676 -0.490082,1.64533 -1.807306,5.13448 -1.807306,5.13448 0,0 -0.36829,1.6137 -0.491436,2.36497 -0.07686,0.4689 -0.290906,1.30035 -0.482259,2.04917 -0.104797,0.4101 -0.201805,0.84261 -0.44421,1.18961 -0.08315,0.11903 -0.235645,0.28348 -0.380843,0.28348 h -0.66265 c -0.12697,0 -0.303337,-0.10385 -0.397547,-0.18898 -0.10052,-0.0908 -0.23624,-0.33073 -0.23624,-0.33073 0,0 -0.26805,0.25771 -0.42522,0.35435 -0.11839,0.0728 -0.24378,0.16536 -0.38276,0.16536 h -7.389426 c -0.14455,0 -0.26541,-0.12191 -0.377967,-0.21261 -0.14767,-0.11899 -0.37798,-0.42522 -0.37798,-0.42522 0,0 -0.67498,-0.12441 -1.01581,-0.11812 -0.41422,0.008 -0.82423,0.0981 -1.22843,0.18899 -0.16584,0.0373 -0.40382,0.0714 -0.566949,0.0236 -0.10688,-0.0313 0.0403,-0.39286 0.118169,-0.47247 0.19953,-0.20397 0.42526,-0.38325 0.66146,-0.54334 0.36468,-0.24717 0.74594,-0.4808 1.15755,-0.63783 0.36231,-0.13822 1.13393,-0.25986 1.13393,-0.25986 0,0 0.18292,-0.0989 0.283477,-0.11812 0.54935,-0.10479 1.10315,-0.18488 1.65365,-0.28348 0.4143,-0.0742 0.83529,-0.17643 1.20479,-0.37798 0.10798,-0.0589 0.32318,-0.19024 0.41712,-0.26964 0.16635,-0.14059 0.21774,-0.22906 0.36246,-0.39182 0.42231,-0.47495 0.59024,-0.65902 0.77826,-1.26612 0.17591,-0.56796 0.19872,-0.84098 0.22472,-1.43498 0.0123,-0.28263 0.0121,-0.59698 0.0326,-0.87912 0.0206,-0.2835 0.0751,-0.34301 0.12862,-0.62217 0.19565,-1.02134 0.39495,-2.03778 0.582196,-3.06069 0.229401,-1.25319 0.366364,-2.49181 0.373939,-3.7658 0.0076,-1.27214 -0.395184,-2.52153 -0.418478,-3.79349 -0.01911,-1.04379 0.31947,-3.15143 0.31947,-3.15143 0,0 -3.369247,-2.9737 -5.102097,-4.40341 -1.791797,-1.47835 -3.770447,-2.73381 -5.472447,-4.31469 -1.837627,-1.70683 -3.484577,-3.61494 -5.081207,-5.54906 -1.50939,-1.82843 -4.24086,-5.71033 -4.24086,-5.71033" style="color: rgb(0, 0, 0); clip-rule: nonzero; display: inline; overflow: visible; visibility: visible; opacity: 1; isolation: auto; mix-blend-mode: normal; color-interpolation: srgb; color-interpolation-filters: linearrgb; fill-opacity: 1; fill-rule: evenodd; stroke: none; stroke-width: 0.264583; stroke-linecap: butt; stroke-linejoin: miter; stroke-miterlimit: 4; stroke-dasharray: none; stroke-dashoffset: 0; stroke-opacity: 1; color-rendering: auto; image-rendering: auto; shape-rendering: auto; text-rendering: auto; fill: rgb(0, 0, 0);"/>
    <g id="g1033" style="fill:#ff7f2a;fill-opacity:1;stroke:none" transform="translate(0,-131.73511)">
      <path style="color: rgb(0, 0, 0); clip-rule: nonzero; display: inline; overflow: visible; visibility: visible; opacity: 1; isolation: auto; mix-blend-mode: normal; color-interpolation: srgb; color-interpolation-filters: linearrgb; fill-opacity: 1; fill-rule: evenodd; stroke: none; stroke-width: 0.264583; stroke-linecap: butt; stroke-linejoin: miter; stroke-miterlimit: 4; stroke-dasharray: none; stroke-dashoffset: 0; stroke-opacity: 1; color-rendering: auto; image-rendering: auto; shape-rendering: auto; text-rendering: auto; fill: rgb(0, 0, 0);" d="m -26.479142,142.19112 c 0,0 1.840504,18.87306 5.301247,32.5701 0.46417,1.73884 1.115023,3.45883 2.058824,4.99122 0.621793,1.00956 1.507322,1.8335 2.32623,2.69096 1.663904,1.74222 3.564855,3.24593 5.244583,4.9729 1.5988207,1.64378 3.3052229,3.22403 4.5931039,5.12131 1.1410716,1.68098 2.0575306,3.53463 2.7148796,5.45704 0.302848,0.8857 0.274387,1.85923 0.550467,2.75362 0.189689,0.61451 0.6567797,1.4159 0.9172227,2.00393 0.236496,0.53397 0.469971,1.08083 0.572829,1.65569 0.1549301,0.86589 0.120173,1.76586 0.0082,2.63834 -0.0359,0.27975 -0.147719,0.55878 -0.316665,0.78461 -0.108765,0.1454 -0.421598,0.39019 -0.550729,0.51784 -0.1188317,0.11747 -0.2095237,0.26784 -0.3490277,0.35981 -0.251241,0.16565 -0.730652,0.28744 -1.019077,0.37329 -0.745003,0.22174 -1.538699,0.24212 -2.315105,0.27943 -0.8370186,0.0402 -1.6673946,0.0815 -2.5040936,0.12791 -0.7077922,0.0392 -1.4207069,0.0716 -2.1261159,0.14169 -0.31357,0.0311 -0.930766,0.16537 -0.930766,0.16537 0,0 -1.21623,0.13513 -1.951301,0.37798 -0.605269,0.19997 -1.176881,0.5111 -1.700894,0.87407 -0.472013,0.32695 -0.880174,0.74128 -1.275669,1.15755 -0.154176,0.16227 -0.321462,0.32139 -0.425223,0.51972 -0.05315,0.10159 -0.151835,0.23145 -0.09449,0.33073 0.08119,0.14057 0.310138,0.11691 0.47247,0.11811 0.517611,0.004 1.001304,-0.26936 1.511904,-0.35435 0.62451,-0.10394 1.256783,-0.19058 1.889882,-0.18894 0.451323,0.001 1.34654,0.14169 1.34654,0.14169 0,0 0.250352,0.39397 0.425223,0.54334 0.184935,0.15797 0.394615,0.35469 0.637834,0.35436 l 14.6182042,-0.0198 c 0.1362328,-1.8e-4 0.285045,-0.15196 0.289911,-0.28811 0.04935,-1.38071 0.08427,-3.98669 0.08427,-3.98669 0,0 0.2124279,-1.40196 0.2897149,-2.28506 0.08501,-0.97133 0.209699,-1.93934 0.354849,-2.90352 0.123783,-0.82228 0.242969,-1.65167 0.300418,-2.48124 0.0585,-0.84472 0.100028,-1.2824 -0.03013,-2.11911 -0.145272,-0.93386 -0.610094,-1.79415 -1.0226559,-2.64446 -0.522928,-1.07777 -1.3596113,-1.99116 -1.8306103,-3.09263 -0.80476097,-1.88198 -1.38840694,-3.88313 -1.65976486,-5.9119 -0.208934,-1.56207 -0.38833675,-3.15525 -0.49242667,-4.72779 -0.10414,-1.57325 -0.223047,-3.16885 -0.65989007,-4.68383 -0.32698,-1.13398 -1.448544,-3.23063 -1.448544,-3.23063 L 16.828748,149.45331" id="path1029"/>
      <path style="color: rgb(0, 0, 0); clip-rule: nonzero; display: inline; overflow: visible; visibility: visible; opacity: 1; isolation: auto; mix-blend-mode: normal; color-interpolation: srgb; color-interpolation-filters: linearrgb; fill-opacity: 1; fill-rule: evenodd; stroke: none; stroke-width: 0.213607; stroke-linecap: butt; stroke-linejoin: miter; stroke-miterlimit: 4; stroke-dasharray: none; stroke-dashoffset: 0; stroke-opacity: 1; color-rendering: auto; image-rendering: auto; shape-rendering: auto; text-rendering: auto; fill: rgb(0, 0, 0);" d="m -5.9882173,209.94375 c -0.601465,0.17902 -1.2449312,0.16023 -1.8690581,0.22559 -0.6728521,0.0704 -1.346141,0.0658 -2.0216334,0.10327 -0.5714242,0.0316 -1.1469832,0.0578 -1.7164812,0.11439 -0.253156,0.0251 -0.751437,0.13351 -0.751437,0.13351 0,0 -1.024782,0.14089 -1.611048,0.35747 -0.48274,0.17834 -0.935203,0.44543 -1.347804,0.75301 -0.371658,0.27706 -0.689342,0.62282 -0.996753,0.96979 -0.119838,0.13525 -0.250342,0.26835 -0.32849,0.43128 -0.04003,0.0834 -0.116006,0.191 -0.06695,0.2695 0.06946,0.11113 0.253516,0.0856 0.384526,0.082 0.417748,-0.0112 0.80033,-0.24544 1.209918,-0.32836 0.500961,-0.10142 1.008673,-0.18907 1.519531,-0.20553 0.364175,-0.0119 1.053981,0.0739 1.053981,0.0739 0,0 0.202117,0.31807 0.343296,0.43866 0.149304,0.12753 0.318587,0.28525 0.514944,0.28609 3.0536614,0.013 4.3618484,0.0425 7.4539637,0" id="path1031"/>
    </g>
    <path style="color: rgb(0, 0, 0); clip-rule: nonzero; display: inline; overflow: visible; visibility: visible; opacity: 1; isolation: auto; mix-blend-mode: normal; color-interpolation: srgb; color-interpolation-filters: linearrgb; fill-opacity: 1; fill-rule: evenodd; stroke: none; stroke-width: 0.264583; stroke-linecap: butt; stroke-linejoin: miter; stroke-miterlimit: 4; stroke-dasharray: none; stroke-dashoffset: 0; stroke-opacity: 1; color-rendering: auto; image-rendering: auto; shape-rendering: auto; text-rendering: auto; fill: rgb(0, 0, 0);" d="m -94.484728,31.58049 c 0,0 5.332159,16.1187 7.01536,24.4185 0.268947,1.32617 0.484645,2.91272 0.505394,4.26572 0.01443,0.93997 -0.03071,1.90131 -0.288072,2.80546 -0.203792,0.71595 -0.577818,1.37965 -0.975972,2.0086 -0.754576,1.19198 -1.780864,2.1887 -2.649414,3.30037 -1.161457,1.48658 -2.376094,2.93745 -3.425246,4.5053 -0.954754,1.42679 -2.832732,4.08321 -2.832732,4.08321 0,0 -0.54128,1.4233 -0.793412,2.14163 -0.15736,0.44834 -0.2909,0.90482 -0.44885,1.35296 -0.140697,0.39921 -0.201797,0.84261 -0.444207,1.18961 -0.0831,0.11903 -0.235637,0.28348 -0.380837,0.28348 h -0.662647 c -0.12697,0 -0.303337,-0.10385 -0.397547,-0.18898 -0.10052,-0.0908 -0.23624,-0.33073 -0.23624,-0.33073 0,0 -0.26805,0.25771 -0.42522,0.35435 -0.11839,0.0728 -0.24378,0.16536 -0.38276,0.16536 h -7.38944 c -0.14455,0 -0.26541,-0.12191 -0.37797,-0.21261 -0.14767,-0.11899 -0.37798,-0.42522 -0.37798,-0.42522 0,0 -0.67498,-0.12441 -1.01581,-0.11812 -0.41422,0.008 -0.82423,0.0981 -1.22843,0.18899 -0.16584,0.0373 -0.40382,0.0714 -0.56695,0.0236 -0.10688,-0.0313 0.0403,-0.39286 0.11817,-0.47247 0.19953,-0.20397 0.42526,-0.38325 0.66146,-0.54334 0.36468,-0.24717 0.74594,-0.4808 1.15755,-0.63783 0.36231,-0.13822 1.13393,-0.25986 1.13393,-0.25986 0,0 0.18292,-0.0989 0.28348,-0.11812 0.54935,-0.10479 1.10315,-0.18488 1.65365,-0.28348 0.4143,-0.0742 0.83529,-0.17643 1.20479,-0.37798 0.10798,-0.0589 0.32318,-0.19024 0.41712,-0.26964 0.16635,-0.14059 0.21774,-0.22906 0.36246,-0.39182 0.42231,-0.47495 0.76412,-0.99113 0.99624,-1.58277 0.21718,-0.5535 0.26731,-1.09377 0.35841,-1.68132 0.0433,-0.27956 0.0457,-0.60171 0.12791,-0.87239 0.0826,-0.27198 0.22835,-0.52122 0.362,-0.77208 0.48895,-0.91779 1.11029,-1.80035 1.59168,-2.72213 0.58976,-1.12928 1.08691,-2.27199 1.47092,-3.48675 0.383447,-1.213 0.368217,-2.52561 0.722137,-3.74756 0.290437,-1.00275 1.237191,-2.91598 1.237191,-2.91598 0,0 -2.339068,-3.83711 -3.571578,-5.71535 -1.27443,-1.94213 -2.79329,-3.7266 -3.95164,-5.74012 -1.25063,-2.17394 -2.25959,-4.48377 -3.21279,-6.80357 -0.90112,-2.19303 -2.36236,-6.70909 -2.36236,-6.70909" id="path1065"/>
    <g transform="translate(0,-131.76251)" id="g1071" style="fill:#ff7f2a;fill-opacity:1;stroke:none">
      <path id="path1067" d="m -28.159226,147.22693 c 0,0 11.226359,23.33523 18.331845,34.11236 0.9906422,1.50254 2.0318184,3.01304 3.3641011,4.22301 0.8777263,0.79714 1.9572599,1.34271 2.982101,1.93898 2.0823305,1.21154 4.32613307,2.1281 6.4194304,3.32059 1.992465,1.13505 4.0706339,2.17918 5.8347984,3.6441 1.5630621,1.29793 2.9583021,2.8241 4.1237261,4.4883 0.536929,0.76673 0.779982,1.70987 1.293611,2.49239 0.352903,0.53765 0.854932,0.96553 1.217582,1.49666 0.329305,0.48229 0.657976,0.97782 0.863261,1.52454 0.309211,0.8235 0.484513,1.70632 0.532438,2.58465 0.01537,0.28162 -0.04406,0.57629 -0.169304,0.82899 -0.08063,0.16269 -0.242023,0.27083 -0.358698,0.40996 -0.107369,0.12803 -0.183656,0.2862 -0.313983,0.39077 -0.234714,0.18833 -0.521138,0.3137 -0.809564,0.39955 -0.745003,0.22174 -1.542031,0.19847 -2.315105,0.27943 -0.833425,0.0873 -1.667394,0.0815 -2.504092,0.12791 -0.7077924,0.0392 -1.4207074,0.0716 -2.1261148,0.14169 -0.3135708,0.0311 -0.9307663,0.16537 -0.9307663,0.16537 0,0 -1.2162306,0.13513 -1.9513014,0.37798 -0.6052689,0.19997 -1.1768805,0.5111 -1.700893,0.87407 -0.4720136,0.32695 -0.8801741,0.74128 -1.2756697,1.15755 -0.1541756,0.16227 -0.3214618,0.32139 -0.425223,0.51972 -0.053149,0.10159 -0.1518344,0.23145 -0.09449,0.33073 0.081193,0.14057 0.310138,0.11691 0.47247,0.11811 0.5176108,0.004 1.0013041,-0.26936 1.5119047,-0.35435 0.6245094,-0.10394 1.2567824,-0.19058 1.889881,-0.18894 0.4513232,0.001 1.34654,0.14169 1.34654,0.14169 0,0 0.2503524,0.39397 0.425223,0.54334 0.1849349,0.15797 0.3946168,0.35333 0.6378347,0.35436 3.7824118,0.016 5.9319618,0.0527 9.7620038,0 1.631441,-0.0225 3.490059,-0.2672 5.080946,-0.62939 0.132843,-0.0302 0.269646,-0.17786 0.261805,-0.31387 -0.07951,-1.3793 -0.153981,-2.65474 -0.287565,-3.9772 -0.08909,-0.88199 -0.164093,-1.75478 -0.248046,-2.63727 -0.09234,-0.97066 -0.145057,-1.94524 -0.176957,-2.91976 -0.02721,-0.8311 -0.06023,-1.66836 -0.153997,-2.49461 -0.09548,-0.84135 -0.29412,-1.71081 -0.651539,-2.47844 -0.398932,-0.85678 -1.084408,-1.55412 -1.716904,-2.25638 -0.801701,-0.89013 -1.859153,-1.5352 -2.617546,-2.46251 -1.295808,-1.58442 -2.412301,-3.34474 -3.236459,-5.21831 -0.63457,-1.44258 -1.270233,-3.07023 -1.806993,-4.55198 -0.537005,-1.48243 -1.094404,-2.98223 -1.934835,-4.31627 -0.6290689,-0.99854 -2.2888392,-2.70119 -2.2888392,-2.70119 L 19.654762,146.47098" style="color: rgb(0, 0, 0); clip-rule: nonzero; display: inline; overflow: visible; visibility: visible; opacity: 1; isolation: auto; mix-blend-mode: normal; color-interpolation: srgb; color-interpolation-filters: linearrgb; fill-opacity: 1; fill-rule: evenodd; stroke: none; stroke-width: 0.264583; stroke-linecap: butt; stroke-linejoin: miter; stroke-miterlimit: 4; stroke-dasharray: none; stroke-dashoffset: 0; stroke-opacity: 1; color-rendering: auto; image-rendering: auto; shape-rendering: auto; text-rendering: auto; fill: rgb(0, 0, 0);"/>
      <path style="color: rgb(0, 0, 0); clip-rule: nonzero; display: inline; overflow: visible; visibility: visible; opacity: 1; isolation: auto; mix-blend-mode: normal; color-interpolation: srgb; color-interpolation-filters: linearrgb; fill-opacity: 1; fill-rule: evenodd; stroke: none; stroke-width: 0.213607; stroke-linecap: butt; stroke-linejoin: miter; stroke-miterlimit: 4; stroke-dasharray: none; stroke-dashoffset: 0; stroke-opacity: 1; color-rendering: auto; image-rendering: auto; shape-rendering: auto; text-rendering: auto; fill: rgb(0, 0, 0);" d="m 13.755344,209.97115 c -0.601465,0.17902 -1.244931,0.16023 -1.869058,0.22559 -0.672852,0.0704 -1.346141,0.0658 -2.0216332,0.10327 -0.5714245,0.0316 -1.1469833,0.0578 -1.7164813,0.11439 -0.2531557,0.0251 -0.7514373,0.13351 -0.7514373,0.13351 0,0 -1.0247814,0.14089 -1.6110474,0.35747 -0.4827403,0.17834 -0.9352025,0.44543 -1.3478035,0.75301 -0.371658,0.27706 -0.689342,0.62282 -0.996753,0.96979 -0.119838,0.13525 -0.2503423,0.26835 -0.3284907,0.43128 -0.040031,0.0834 -0.1160059,0.191 -0.066949,0.2695 0.069458,0.11113 0.2535162,0.0856 0.3845264,0.082 0.4177479,-0.0112 0.8003298,-0.24544 1.2099174,-0.32836 0.5009614,-0.10142 1.0086734,-0.18907 1.5195309,-0.20553 0.3641749,-0.0119 1.0539812,0.0739 1.0539812,0.0739 0,0 0.2021175,0.31807 0.3432962,0.43866 0.1493039,0.12753 0.3185867,0.28525 0.5149443,0.28609 3.053661,0.013 4.361848,0.0425 7.453963,0" id="path1069"/>
    </g>
    <g id="g965" style="fill:#ff7f2a;fill-opacity:1">
      <g style="fill:#ff7f2a;fill-opacity:1;stroke:none" transform="rotate(16.172001,342.86136,81.997399)" id="g1039">
        <path style="color: rgb(0, 0, 0); clip-rule: nonzero; display: inline; overflow: visible; visibility: visible; opacity: 1; isolation: auto; mix-blend-mode: normal; color-interpolation: srgb; color-interpolation-filters: linearrgb; fill-opacity: 1; fill-rule: evenodd; stroke: none; stroke-width: 0.264583; stroke-linecap: butt; stroke-linejoin: miter; stroke-miterlimit: 4; stroke-dasharray: none; stroke-dashoffset: 0; stroke-opacity: 1; color-rendering: auto; image-rendering: auto; shape-rendering: auto; text-rendering: auto; fill: rgb(0, 0, 0);" d="m -164.65588,170.96384 -3.96875,2.81592 -2.22061,2.03162 -0.11812,0.87407 -0.28347,0.63784 c 0,0 -0.84907,0.71363 -2.37319,1.6784 -0.47986,0.30375 -1.20869,0.78693 -1.20869,0.78693 0,0 -0.651,-1.24099 -0.79257,-1.83726 -0.0988,-0.41634 -0.15645,-0.67358 -0.18489,-1.10054 -0.0468,-0.7021 -0.0144,-1.42888 0.18898,-2.1025 0.21489,-0.71173 0.77022,-1.27739 1.06306,-1.96075 0.11084,-0.25865 0.21992,-0.52465 0.25986,-0.8032 0.0575,-0.40126 0.16537,-1.2048 0.16537,-1.2048 0,0 0.34753,-0.67323 0.42522,-1.03943 0.10955,-0.51633 0.0472,-1.58278 0.0472,-1.58278 0,0 0.65021,-0.91696 1.08668,-1.30334 0.44111,-0.39049 0.98731,-0.72708 1.39378,-1.1535 0.74466,-0.78122 1.15007,-1.83844 1.86626,-2.64584 0.71777,-0.80918 1.6634,-1.39032 2.4096,-2.17336 0.38605,-0.4051 1.06306,-1.29929 1.06306,-1.29929 0,0 0.46956,-0.11257 0.7087,-0.14174 0.17214,-0.021 0.3482,0.002 0.51972,-0.0236 0.31357,-0.0468 0.92132,-0.23623 0.92132,-0.23623 l 0.96857,-1.18117 c 0,0 0.67284,-0.24959 1.01581,-0.35436 0.29592,-0.0904 0.89769,-0.23624 0.89769,-0.23624 0,0 0.50871,-0.60031 0.74044,-0.99624 0.23045,-0.39377 0.62972,-1.34249 0.62972,-1.34249 0,0 0.78166,0.21006 1.13393,0.40161 0.34039,0.18509 0.92132,0.7087 0.92132,0.7087 l 0.0472,2.14974 0.56657,8.51723" id="path1035"/>
        <path style="color: rgb(0, 0, 0); clip-rule: nonzero; display: inline; overflow: visible; visibility: visible; opacity: 1; isolation: auto; mix-blend-mode: normal; color-interpolation: srgb; color-interpolation-filters: linearrgb; fill-opacity: 1; fill-rule: evenodd; stroke: none; stroke-width: 0.264583; stroke-linecap: butt; stroke-linejoin: miter; stroke-miterlimit: 4; stroke-dasharray: none; stroke-dashoffset: 0; stroke-opacity: 1; color-rendering: auto; image-rendering: auto; shape-rendering: auto; text-rendering: auto; fill: rgb(0, 0, 0);" d="m -164.60863,169.81101 c 0,0 -2.42612,2.54522 -3.6846,3.51897 -0.81529,0.63082 -2.55201,2.38117 -2.55201,2.38117 0,0 -0.1783,0.41554 -0.37882,0.55674 -0.39736,0.27981 -0.78499,0.57668 -1.20651,0.81855 -0.57049,0.32736 -1.7804,0.85079 -1.7804,0.85079 0,0 0.83755,0.45344 1.28972,0.59267 0.392,0.12066 0.80545,0.16178 1.21342,0.20412 0.22765,0.0239 0.68616,0.0276 0.68616,0.0276 0,0 0.56015,0.0819 0.82962,0.0195 0.82976,-0.19233 1.51446,-0.78003 2.26769,-1.1777 1.85815,-0.98099 3.69707,-1.99808 5.55441,-2.98058 1.1892,-0.62907 2.43787,-1.15304 3.57877,-1.86597 0.35443,-0.22148 0.73943,-0.42526 1.00837,-0.74517 0.58359,-0.69419 0.97817,-1.55847 1.21689,-2.43339 0.15556,-0.57022 0.19724,-1.18269 0.12227,-1.76897 -0.0429,-0.33549 -0.32246,-0.9621 -0.32246,-0.9621" id="path1037"/>
      </g>
      <path id="path1043" d="m -108.54188,7.8080816 c 0,0 -0.7484,-0.51414 -1.16189,-0.6948453 -1.01579,-0.4438758 -2.87302,-0.5925639 -2.87302,-0.5925639 0,0 -2.67794,2.0135744 -4.63763,5.0802306 -0.46911,0.734091 -1.31046,2.261246 -1.31046,2.261246 l 0.47565,0.516362 4.1485,-2.25967" style="color: rgb(0, 0, 0); clip-rule: nonzero; display: inline; overflow: visible; visibility: visible; opacity: 1; isolation: auto; mix-blend-mode: normal; color-interpolation: srgb; color-interpolation-filters: linearrgb; fill-opacity: 1; fill-rule: evenodd; stroke: none; stroke-width: 0.264583; stroke-linecap: butt; stroke-linejoin: miter; stroke-miterlimit: 4; stroke-dasharray: none; stroke-dashoffset: 0; stroke-opacity: 1; color-rendering: auto; image-rendering: auto; shape-rendering: auto; text-rendering: auto; fill: rgb(0, 0, 0);"/>
      <path id="path1045" d="m -106.19682,5.629414 c 0,0 0.1135,-0.5275646 0.25075,-0.7761043 0.48362,-0.8756014 1.22068,-1.5740376 1.89503,-2.3128236 1.27867,-1.4008703 3.9123,-4.1317045 3.9123,-4.1317045 0,0 3.96307,-0.3665747 6.174737,0.189003 0.286977,0.072241 0.743625,0.48478558 0.743625,0.48478558" style="color: rgb(0, 0, 0); clip-rule: nonzero; display: inline; overflow: visible; visibility: visible; opacity: 1; isolation: auto; mix-blend-mode: normal; color-interpolation: srgb; color-interpolation-filters: linearrgb; fill-opacity: 1; fill-rule: evenodd; stroke: none; stroke-width: 0.264583; stroke-linecap: butt; stroke-linejoin: miter; stroke-miterlimit: 4; stroke-dasharray: none; stroke-dashoffset: 0; stroke-opacity: 1; color-rendering: auto; image-rendering: auto; shape-rendering: auto; text-rendering: auto; fill: rgb(0, 0, 0);"/>
      <path id="path1047" d="m -89.513233,-2.3708997 c 0,0 0.16177,-0.5657875 0.322807,-0.8064063 0.266406,-0.3980838 0.665105,-0.6916351 1.029619,-1.0023708 1.423957,-1.2139172 5.117123,-3.3578313 5.117123,-3.3578313 0,0 3.265726,0.3315157 5.108941,0.6111919 0.837065,0.1270324 1.618602,0.2456365 2.368748,0.6381852 0.325757,0.1704721 0.716111,0.748939 0.716111,0.748939" style="color: rgb(0, 0, 0); clip-rule: nonzero; display: inline; overflow: visible; visibility: visible; opacity: 1; isolation: auto; mix-blend-mode: normal; color-interpolation: srgb; color-interpolation-filters: linearrgb; fill-opacity: 1; fill-rule: evenodd; stroke: none; stroke-width: 0.264583; stroke-linecap: butt; stroke-linejoin: miter; stroke-miterlimit: 4; stroke-dasharray: none; stroke-dashoffset: 0; stroke-opacity: 1; color-rendering: auto; image-rendering: auto; shape-rendering: auto; text-rendering: auto; fill: rgb(0, 0, 0);"/>
      <path id="path1049" d="m -71.172665,-6.2831687 c 0,0 0.435156,-0.7272558 0.733025,-1.0224191 0.319948,-0.3170536 0.703212,-0.5743805 1.105323,-0.7773489 2.614993,-1.3199321 8.336137,-2.7807183 8.336137,-2.7807183 0,0 1.971791,1.4623351 2.876124,2.2890822 0.427398,0.3907329 1.06711,0.6932205 1.199107,1.2570614 0.05226,0.2232693 -0.204539,0.6568214 -0.204539,0.6568214" style="color: rgb(0, 0, 0); clip-rule: nonzero; display: inline; overflow: visible; visibility: visible; opacity: 1; isolation: auto; mix-blend-mode: normal; color-interpolation: srgb; color-interpolation-filters: linearrgb; fill-opacity: 1; fill-rule: evenodd; stroke: none; stroke-width: 0.264583; stroke-linecap: butt; stroke-linejoin: miter; stroke-miterlimit: 4; stroke-dasharray: none; stroke-dashoffset: 0; stroke-opacity: 1; color-rendering: auto; image-rendering: auto; shape-rendering: auto; text-rendering: auto; fill: rgb(0, 0, 0);"/>
      <path id="path1051" d="m -51.252487,-7.5371937 c 0,0 0.937223,-0.4597606 1.422427,-0.6506005 1.45532,-0.5723981 2.966874,-0.9899996 4.452653,-1.4778921 0.89902,-0.2952305 2.650455,-0.5939637 2.650455,-0.5939637 0,0 1.527889,0.8491382 2.209342,1.4816038 0.449009,0.4167258 1.265516,1.3326416 1.265516,1.3326416 l -0.09702,0.3299821" style="color: rgb(0, 0, 0); clip-rule: nonzero; display: inline; overflow: visible; visibility: visible; opacity: 1; isolation: auto; mix-blend-mode: normal; color-interpolation: srgb; color-interpolation-filters: linearrgb; fill-opacity: 1; fill-rule: evenodd; stroke: none; stroke-width: 0.264583; stroke-linecap: butt; stroke-linejoin: miter; stroke-miterlimit: 4; stroke-dasharray: none; stroke-dashoffset: 0; stroke-opacity: 1; color-rendering: auto; image-rendering: auto; shape-rendering: auto; text-rendering: auto; fill: rgb(0, 0, 0);"/>
      <path id="path1053" d="m -158.28619,17.931272 c 0,0 0.28359,-1.644075 0.93702,-3.142229 0.21565,-0.494499 0.51796,-0.932799 0.98967,-1.470281 0.19851,-0.226132 0.51879,-0.385945 0.81958,-0.37825 0.77044,0.01961 1.46211,0.124676 2.25965,0.331184 0.62396,0.161201 1.31768,0.397924 2.09645,0.703446 0.56831,0.222895 1.11127,0.568159 1.5851,0.953059 0.15939,0.129616 -0.002,0.550969 -0.002,0.550969 0,0 -0.68962,0.749809 -0.98412,1.163706 -0.52504,0.737895 -1.38485,2.337361 -1.38485,2.337361" style="color: rgb(0, 0, 0); clip-rule: nonzero; display: inline; overflow: visible; visibility: visible; opacity: 1; isolation: auto; mix-blend-mode: normal; color-interpolation: srgb; color-interpolation-filters: linearrgb; fill-opacity: 1; fill-rule: evenodd; stroke: none; stroke-width: 0.264583; stroke-linecap: butt; stroke-linejoin: miter; stroke-miterlimit: 4; stroke-dasharray: none; stroke-dashoffset: 0; stroke-opacity: 1; color-rendering: auto; image-rendering: auto; shape-rendering: auto; text-rendering: auto; fill: rgb(0, 0, 0);"/>
      <path id="path1055" d="m -150.59578,18.600865 c 0,0 0.91441,-1.733426 1.76035,-2.752659 0.20676,-0.249077 0.56256,-0.377443 0.88553,-0.398708 1.31751,-0.08686 2.11845,0.03339 3.17462,0.108467 0.98259,0.07016 3.04117,0.55657 3.04117,0.55657 0,0 0.46591,0.535995 0.70601,0.907226 0.25322,0.391549 0.60359,0.679599 0.67129,1.140918 0.042,0.286476 -0.14815,0.560844 -0.24824,0.832412 -0.17552,0.474091 -0.62098,1.383765 -0.62098,1.383765" style="color: rgb(0, 0, 0); clip-rule: nonzero; display: inline; overflow: visible; visibility: visible; opacity: 1; isolation: auto; mix-blend-mode: normal; color-interpolation: srgb; color-interpolation-filters: linearrgb; fill-opacity: 1; fill-rule: evenodd; stroke: none; stroke-width: 0.264583; stroke-linecap: butt; stroke-linejoin: miter; stroke-miterlimit: 4; stroke-dasharray: none; stroke-dashoffset: 0; stroke-opacity: 1; color-rendering: auto; image-rendering: auto; shape-rendering: auto; text-rendering: auto; fill: rgb(0, 0, 0);"/>
      <path id="path1057" d="m -140.35379,20.847762 c 0,0 0.39271,-1.601168 0.90063,-3.044699 0.0819,-0.231269 0.31245,-0.475686 0.52319,-0.601123 1.07415,-0.639507 2.32997,-0.930547 3.54563,-1.221869 0.86725,-0.207786 1.75959,-0.315908 2.64981,-0.369427 0.44046,-0.02659 1.00215,0.142946 1.24367,0.512338 0.26045,0.398111 0.447,0.750862 0.60731,1.198767 0.23211,0.648458 0.33496,1.292819 0.3964,1.978815 0.0667,0.744479 -0.0476,2.253773 -0.0476,2.253773" style="color: rgb(0, 0, 0); clip-rule: nonzero; display: inline; overflow: visible; visibility: visible; opacity: 1; isolation: auto; mix-blend-mode: normal; color-interpolation: srgb; color-interpolation-filters: linearrgb; fill-opacity: 1; fill-rule: evenodd; stroke: none; stroke-width: 0.264583; stroke-linecap: butt; stroke-linejoin: miter; stroke-miterlimit: 4; stroke-dasharray: none; stroke-dashoffset: 0; stroke-opacity: 1; color-rendering: auto; image-rendering: auto; shape-rendering: auto; text-rendering: auto; fill: rgb(0, 0, 0);"/>
      <path id="path1059" d="m -129.2005,20.217965 c 0,0 -0.0936,-1.363122 -0.0595,-2.043867 0.0147,-0.290024 0.0125,-0.588847 0.17747,-0.827017 0.51512,-0.73811 0.87476,-1.10158 1.45242,-1.529176 0.81374,-0.602402 1.74896,-1.044781 2.68503,-1.430634 0.88332,-0.364167 1.70783,-0.647712 2.65155,-0.796764 0.67181,-0.106132 1.43362,-0.120913 2.11065,-0.05607 0.29266,0.02801 0.60533,0.141712 0.78309,0.3759 0.18128,0.238838 0.12668,0.58614 0.18772,0.879752 0.073,0.349049 0.12144,0.703531 0.2123,1.048322 0.17342,0.657937 0.63356,1.940365 0.63356,1.940365" style="color: rgb(0, 0, 0); clip-rule: nonzero; display: inline; overflow: visible; visibility: visible; opacity: 1; isolation: auto; mix-blend-mode: normal; color-interpolation: srgb; color-interpolation-filters: linearrgb; fill-opacity: 1; fill-rule: evenodd; stroke: none; stroke-width: 0.264583; stroke-linecap: butt; stroke-linejoin: miter; stroke-miterlimit: 4; stroke-dasharray: none; stroke-dashoffset: 0; stroke-opacity: 1; color-rendering: auto; image-rendering: auto; shape-rendering: auto; text-rendering: auto; fill: rgb(0, 0, 0);"/>
      <path id="path1061" d="M 194.8257,9.8791175 C 189.02212,7.7113972 183.10102,6.8846371 177.10524,6.2505349 166.84664,5.1655845 159.44183,5.1142966 148.35344,5.1666229 131.1344,5.2479099 113.32054,6.8179116 96.101396,6.758987 85.167519,6.7216123 74.323769,6.2308509 63.46161,4.9800285 55.379866,4.0493791 47.395554,2.2647076 39.344927,1.0950456 34.832456,0.43944125 30.300853,-0.0800171 25.789061,-0.74028519 7.4596425,-3.4226542 -10.311581,-5.5972594 -28.353645,-6.8923697 c -3.589919,-0.2576925 -7.17062,-0.6613673 -10.766266,-0.8202973 -4.82782,-0.2133939 -9.664278,-0.2327579 -14.496505,-0.1783039 -5.302801,0.059722 -10.636901,-0.09825 -15.899758,0.5541336 -6.138713,0.7609552 -12.180259,2.2532831 -18.142323,3.9015014 -1.497437,0.4139647 -2.974359,0.9130592 -4.41293,1.4997465 -4.15139,1.69304785 -8.256163,3.5542448 -12.129353,5.812299 -5.02824,2.9314419 -9.17247,7.2767204 -14.3241,9.9854394 -3.16953,1.666531 -6.56605,2.97856 -10.05662,3.778023 -1.52529,0.349346 -3.11047,0.396002 -4.67496,0.426315 -2.31975,0.04491 -4.6499,-0.06683 -6.95109,-0.363126 -1.80666,-0.232654 -3.58098,-0.678497 -5.35148,-1.106831 -2.85761,-0.691339 -5.59737,-1.884006 -8.49876,-2.359264 -1.90295,-0.311712 -5.77652,-0.311889 -5.77652,-0.311889 l -3.29599,3.033929 -12.29166,12.829114 -0.79091,2.008849 c 0,0 5.10012,-0.933173 7.67772,-1.177636 2.81735,-0.267206 5.66651,-0.576826 8.48423,-0.313387 3.32429,0.310797 6.49658,1.549124 9.76753,2.218736 3.57904,0.732679 7.15265,1.548059 10.78177,1.96736 3.89554,0.450075 7.82863,0.54402 11.74989,0.582908 5.23475,0.05195 6.90694,0.187414 12.84239,1.106808 3.01511,0.46704 4.94999,2.505534 7.84414,3.471458 7.460747,2.490018 19.312459,4.99376 27.076237,6.253413 13.293721,2.15686 23.05198,2.979906 34.893489,2.891836 18.684419,-0.138952 40.1523209,-2.942182 54.2323785,-4.984687 0.8683435,-0.125962 1.6383805,-0.645705 2.3995785,-1.082128 5.543722,-3.178417 11.735018,-8.628598 18.714864,-8.885457 13.277115,-0.488598 23.052322,-0.626919 34.302072,-1.846709 11.718839,-1.270651 23.602013,-2.638087 35.197121,-4.759218 16.4143,-3.002736 32.59163,-7.385295 49.01956,-10.312594 10.7253,-1.91114 16.98989,-3.780954 27.87605,-4.200506 5.83807,-0.224994 11.80058,-0.25369 17.49575,1.049665 2.47545,0.566505 5.97438,2.018509 8.23816,3.358976 0.61804,0.365966 1.29015,0.690148 2.00145,0.789973 0.71266,0.100008 0.18211,-0.679137 -0.812,-2.01903 -1.31776,-1.776116 -5.62315,-4.862323 -8.74381,-6.0279325 z" style="color: rgb(0, 0, 0); clip-rule: nonzero; display: inline; overflow: visible; visibility: visible; opacity: 1; isolation: auto; mix-blend-mode: normal; color-interpolation: srgb; color-interpolation-filters: linearrgb; fill-opacity: 1; fill-rule: evenodd; stroke: none; stroke-width: 0.264583; stroke-linecap: butt; stroke-linejoin: miter; stroke-miterlimit: 4; stroke-dasharray: none; stroke-dashoffset: 0; stroke-opacity: 1; color-rendering: auto; image-rendering: auto; shape-rendering: auto; text-rendering: auto; fill: rgb(0, 0, 0);"/>
      <path style="color: rgb(0, 0, 0); clip-rule: nonzero; display: inline; overflow: visible; visibility: visible; opacity: 1; isolation: auto; mix-blend-mode: normal; color-interpolation: srgb; color-interpolation-filters: linearrgb; fill-opacity: 1; fill-rule: evenodd; stroke: none; stroke-width: 0.258473; stroke-linecap: butt; stroke-linejoin: miter; stroke-miterlimit: 4; stroke-dasharray: none; stroke-dashoffset: 0; stroke-opacity: 1; color-rendering: auto; image-rendering: auto; shape-rendering: auto; text-rendering: auto; fill: rgb(0, 0, 0);" d="M 27.390875,0.73412625 25.279538,-1.1198913 23.520559,-1.8986474 21.517117,-2.3714272 21.190642,-2.7993797 20.0285,-2.8088497 19.084938,-3.7716083 17.810824,-3.5363441 17.351852,-3.9030474 15.522161,-3.652144 14.690848,-4.441672 13.008763,-4.532374 11.968596,-5.1127919 10.612985,-4.7755408 9.736058,-5.1419831 9.2312221,-5.5035605 8.0385934,-5.3702847 7.2431608,-5.8387206 6.0658986,-5.5678431 5.3470936,-5.7661781 4.3991884,-5.5209309 2.5692403,-5.6879935 1.1562427,-6.6643947 l -2.4226232,0.7241942 -1.0769602,-0.4742221 -2.2013938,0.4845616 -1.0856324,-0.7510297 -1.043724,0.5868427 -0.6257449,-0.8116167 -1.9202573,0.6142995 -1.0452789,-0.9370097 -2.149602,0.6237869 -1.366702,-0.9047171 -1.711149,0.1501334 -0.82412,-0.339788 -0.880509,0.1668951 -1.050194,-0.5751819 -2.468116,1.0581649 -0.723448,-0.7532419 -2.132983,0.4647794 -2.153987,-0.7821187 -2.043485,0.60509 -2.109702,-0.6888887 -0.74021,0.077399 -0.642327,-0.197625 -0.880507,0.1668949 -0.595249,-0.242843 -1.484142,0.3393675 -2.689449,0.4615732 0.153065,5.572283" id="path1086-5"/>
    </g>
  </g>
</svg>