<?xml version="1.0" standalone="no"?>
<!DOCTYPE svg PUBLIC "-//W3C//DTD SVG 20010904//EN"
 "http://www.w3.org/TR/2001/REC-SVG-20010904/DTD/svg10.dtd">
<svg version="1.0" xmlns="http://www.w3.org/2000/svg"
 width="2764.000000pt" height="808.000000pt" viewBox="0 0 2764.000000 808.000000"
 preserveAspectRatio="xMidYMid meet">
<metadata>
Created by potrace 1.16, written by Peter Selinger 2001-2019
</metadata>
<g transform="translate(0.000000,808.000000) scale(0.100000,-0.100000)"
fill="#000000" stroke="none">
<path d="M11575 8070 c-170 -3 -315 -8 -320 -12 -6 -3 -45 -9 -87 -12 -42 -3
-196 -24 -343 -46 -181 -28 -301 -41 -373 -42 -201 -1 -517 -18 -622 -33 -58
-9 -267 -45 -465 -81 -198 -35 -371 -64 -384 -64 -13 0 -99 -14 -193 -31 -160
-30 -170 -30 -188 -14 -16 14 -31 16 -104 10 l-86 -7 0 -29 c0 -23 -5 -30 -27
-35 -16 -4 -81 -29 -146 -55 l-119 -49 -38 20 c-22 11 -41 20 -43 20 -2 0 -14
-22 -26 -49 -20 -41 -31 -52 -75 -71 -28 -12 -69 -30 -92 -40 l-40 -18 -40 30
c-41 31 -56 32 -171 12 l-32 -6 2 -72 2 -71 -105 -42 -104 -42 -29 44 -29 45
-72 -40 -71 -39 -8 -53 c-4 -28 -8 -52 -10 -52 -1 -1 -28 -14 -60 -29 l-58
-27 -59 41 -59 41 -81 -32 c-44 -18 -80 -35 -80 -39 0 -3 8 -37 19 -74 l19
-68 -42 -26 c-22 -14 -62 -39 -88 -55 l-47 -30 -43 30 c-24 17 -54 40 -68 52
-64 57 -63 57 -137 6 -38 -26 -79 -55 -92 -65 l-23 -18 21 -40 c11 -22 29 -64
40 -92 l19 -52 -88 -59 c-49 -33 -93 -60 -98 -60 -9 0 -46 53 -71 103 -8 15
-19 27 -25 27 -9 0 -163 -125 -214 -174 -10 -10 -6 -20 18 -52 16 -21 30 -46
30 -55 0 -10 -40 -43 -101 -83 -56 -36 -104 -66 -108 -66 -4 0 -40 34 -81 75
-41 41 -78 75 -81 75 -4 0 -24 -30 -44 -66 l-37 -65 36 -60 c20 -33 36 -64 36
-69 0 -9 -51 -48 -104 -79 l-39 -22 -31 38 c-17 20 -38 46 -47 57 -15 19 -17
18 -87 -20 -40 -21 -72 -43 -72 -49 0 -6 20 -39 45 -73 l45 -62 -68 -49 c-37
-28 -70 -50 -73 -51 -4 0 -21 23 -39 50 l-33 51 -66 -63 c-36 -34 -67 -63 -69
-64 -2 -1 4 -28 14 -60 l17 -58 -29 -23 c-16 -13 -45 -37 -66 -54 l-36 -29
-61 67 -60 68 -76 -75 -76 -76 31 -68 c24 -53 28 -71 19 -82 -6 -8 -18 -14
-26 -14 -8 0 -27 -7 -43 -15 -34 -17 -39 -14 -94 58 -16 20 -33 37 -38 37 -23
0 -128 -54 -128 -65 0 -7 9 -32 20 -56 11 -24 20 -48 20 -54 0 -17 -82 -45
-131 -45 l-45 0 -13 58 c-19 88 -15 85 -120 77 l-91 -7 0 -54 0 -54 -60 0
c-41 0 -74 7 -100 20 l-40 20 0 84 0 83 -60 25 -59 26 -16 -53 c-8 -29 -15
-58 -15 -64 0 -17 -31 -12 -77 12 l-41 22 24 59 c13 33 24 63 24 67 0 4 -30
24 -66 44 l-66 37 -28 -27 -28 -27 -47 61 -47 61 53 71 c28 39 48 74 43 78
-24 20 -115 81 -122 81 -4 0 -23 -13 -42 -30 -19 -16 -40 -29 -46 -30 -16 0
-134 110 -134 126 0 8 12 32 26 54 l27 40 -28 66 -28 65 -61 -6 c-141 -13
-143 -14 -156 -45 l-12 -29 -59 30 -59 29 21 41 20 41 -41 63 c-40 61 -43 63
-105 79 -35 9 -66 16 -69 16 -3 0 -8 -32 -12 -70 l-7 -71 -41 6 c-22 4 -68 12
-101 19 l-60 12 -3 100 -3 101 -96 6 c-54 4 -101 3 -105 -1 -4 -4 -12 -38 -18
-77 -6 -38 -12 -71 -14 -72 -1 -2 -28 2 -60 8 -32 6 -70 8 -85 4 -27 -6 -28
-5 -34 46 -4 28 -8 54 -11 56 -2 3 -39 -3 -80 -12 l-76 -17 0 -53 0 -52 -76
-15 -75 -14 -28 35 -28 35 -52 -32 c-28 -18 -56 -32 -61 -32 -6 0 -10 -17 -10
-38 l0 -37 -262 -108 c-329 -135 -331 -136 -417 -191 -39 -25 -73 -46 -76 -46
-2 0 -39 -22 -82 -48 -43 -27 -121 -74 -174 -105 -86 -51 -98 -62 -119 -107
-13 -28 -27 -50 -31 -50 -4 0 -19 -36 -34 -80 -23 -68 -26 -90 -20 -144 l7
-64 56 -7 c46 -6 240 14 299 31 6 1 17 30 23 62 12 59 32 82 74 82 12 0 76
-87 76 -103 0 -4 -14 -29 -30 -56 -23 -36 -38 -50 -63 -56 -17 -4 -35 -7 -39
-6 -4 0 -42 -13 -85 -30 -43 -17 -109 -36 -148 -43 -69 -12 -70 -13 -68 -42 6
-82 11 -90 95 -153 l82 -61 106 0 c90 0 135 7 281 41 l174 41 180 -5 c127 -3
193 -9 225 -20 25 -9 155 -48 289 -86 226 -66 276 -85 308 -116 6 -7 85 -58
175 -114 148 -92 166 -106 188 -149 14 -26 96 -163 182 -304 87 -141 158 -261
158 -266 0 -6 81 -73 180 -149 99 -76 239 -184 311 -239 153 -118 102 -100
689 -248 201 -51 374 -97 385 -103 11 -6 52 -18 91 -27 67 -17 83 -16 395 7
178 13 349 24 380 25 47 2 104 -14 370 -104 173 -58 328 -112 344 -119 17 -8
147 -54 290 -103 l260 -89 154 -6 c176 -7 179 -8 282 -114 52 -54 77 -99 84
-156 1 -12 18 -71 38 -132 77 -236 78 -241 72 -334 -3 -47 -7 -157 -10 -245
-3 -137 -6 -161 -23 -180 -10 -11 -25 -36 -32 -54 -7 -18 -15 -30 -18 -27 -10
10 -32 -57 -32 -98 0 -33 -8 -50 -40 -88 l-40 -48 36 -25 37 -25 51 26 c28 15
65 26 82 24 29 -1 51 12 97 56 18 17 18 17 13 -7 -3 -14 -7 -34 -9 -45 -1 -11
-5 -24 -8 -30 -7 -11 -19 -70 -25 -120 -25 -199 -25 -187 -4 -210 16 -17 22
-39 25 -101 4 -75 36 -174 56 -174 4 0 23 19 42 43 27 32 38 58 47 107 6 36
18 85 27 110 8 25 17 54 18 65 2 11 10 40 18 64 9 25 14 48 11 52 -2 4 0 10 6
14 5 3 10 16 11 28 0 22 40 -125 53 -195 4 -21 11 -38 16 -38 6 0 10 -8 10
-17 1 -24 35 -64 52 -61 8 2 29 -31 54 -81 44 -90 47 -91 89 -27 19 29 32 136
16 136 -6 0 -2 9 9 20 19 19 20 30 16 230 -3 129 -1 210 5 210 5 0 9 -4 9 -10
0 -5 14 -17 31 -25 16 -9 39 -25 49 -35 16 -16 82 -42 115 -45 6 -1 19 -4 30
-7 72 -22 68 -24 63 21 -2 23 0 41 3 41 9 0 6 21 -4 38 -5 6 -6 12 -2 12 3 0
-6 18 -20 40 -14 22 -25 44 -25 50 0 5 -4 10 -8 10 -5 0 -17 18 -28 40 -10 22
-22 40 -25 40 -4 0 -10 7 -13 16 -5 14 -1 15 31 9 57 -11 123 -13 129 -3 3 4
13 8 22 8 37 0 46 16 32 50 -10 23 -28 39 -69 58 -31 15 -60 32 -66 38 -5 6
-19 16 -29 22 -18 9 -15 12 22 31 23 12 49 35 57 51 8 16 30 45 49 63 18 18
41 52 51 75 18 40 35 55 35 30 0 -6 27 -96 60 -198 51 -160 63 -188 84 -198
15 -7 37 -35 55 -70 25 -49 93 -122 114 -122 3 0 10 22 17 49 9 39 9 63 -1
108 -7 32 -12 66 -11 77 0 10 -10 77 -23 149 -14 72 -23 132 -21 134 2 2 40
-41 84 -95 77 -93 149 -151 172 -137 5 3 10 1 10 -4 0 -6 6 -11 14 -11 8 0 43
-25 78 -55 34 -30 66 -55 70 -55 7 0 28 65 28 88 0 7 -16 44 -35 82 -19 38
-35 77 -35 86 0 9 -31 78 -69 153 -38 75 -78 157 -90 184 l-21 47 26 -6 c45
-11 187 -9 246 4 l57 13 -24 52 c-22 47 -34 58 -130 119 -59 36 -109 68 -111
71 -3 3 26 14 63 25 49 15 78 31 102 56 33 34 34 36 17 55 -15 16 -37 20 -154
26 l-137 7 -58 69 c-31 37 -57 71 -57 75 0 4 -9 17 -20 29 l-21 22 238 8 c131
4 256 7 277 6 22 -1 173 5 335 14 163 9 337 16 386 16 134 1 617 27 715 40 47
6 142 20 211 30 69 10 132 19 141 19 16 0 34 -52 43 -132 3 -24 8 -50 10 -59
6 -19 -141 -452 -155 -457 -6 -2 -94 -68 -198 -146 -103 -78 -195 -145 -205
-149 -24 -9 -116 -212 -117 -256 0 -8 15 -32 34 -55 39 -48 43 -65 52 -212 l6
-110 -36 -72 c-20 -40 -46 -98 -58 -129 -23 -63 -155 -325 -167 -333 -18 -11
-32 -53 -27 -75 3 -13 0 -30 -6 -37 -60 -64 -130 -151 -132 -165 -2 -10 -7
-40 -10 -66 -4 -27 -10 -59 -12 -70 -21 -95 -20 -111 13 -211 18 -54 34 -101
36 -103 2 -2 19 3 38 11 28 12 37 23 48 63 8 26 15 53 17 58 2 6 6 23 9 39 7
33 19 59 38 78 7 7 28 34 46 60 35 49 66 67 122 72 19 2 63 17 97 33 61 28 62
30 105 119 76 154 198 357 241 399 40 38 43 46 66 155 13 63 25 110 27 105 2
-6 16 -55 32 -110 l28 -101 -12 -124 -13 -124 42 -110 43 -110 59 -13 c32 -7
63 -12 70 -9 16 6 24 59 11 75 -9 10 -7 16 5 25 9 7 28 50 43 97 14 46 31 93
36 104 12 26 17 97 19 272 1 78 6 143 11 145 5 2 16 81 25 175 l15 172 -27 63
c-40 95 -39 103 18 162 28 28 78 89 111 135 58 79 73 92 227 197 143 96 177
125 257 215 83 92 94 109 104 159 6 30 15 72 20 92 l9 36 73 -19 c39 -11 135
-40 212 -64 77 -24 159 -49 182 -55 29 -7 41 -15 37 -24 -6 -17 -16 -14 261
-61 116 -19 230 -41 255 -49 97 -31 248 -49 364 -41 61 3 231 8 377 10 l267 4
123 -90 124 -89 60 -113 c113 -212 128 -234 277 -390 143 -150 149 -155 316
-257 173 -107 182 -116 197 -187 2 -10 29 -83 59 -163 56 -144 57 -146 51
-225 l-6 -80 49 -95 c49 -94 55 -127 35 -180 -3 -8 -8 -26 -10 -40 -18 -118
-23 -143 -25 -145 -2 -1 -89 -22 -195 -48 -128 -31 -214 -47 -257 -47 -56 0
-78 -6 -161 -45 -53 -25 -113 -49 -133 -55 -54 -15 -55 -16 -106 -118 l-47
-94 78 6 c424 30 425 30 438 13 11 -15 42 -17 282 -17 l271 0 46 55 c26 30 58
81 71 112 l24 58 1 -43 c0 -28 12 -66 35 -112 l35 -70 65 0 65 0 0 37 c0 21
12 73 26 116 24 71 28 78 48 73 13 -4 45 5 88 26 l66 33 32 85 c30 80 32 95
37 260 3 96 0 283 -6 415 l-12 240 -52 53 c-35 35 -65 56 -92 63 -125 33 -124
32 -218 159 -57 76 -101 149 -124 202 -49 117 -112 278 -108 278 2 0 -14 41
-35 91 -34 79 -59 157 -127 405 -12 47 -26 62 -168 195 -85 79 -155 146 -155
150 0 4 -98 49 -217 100 -120 51 -231 100 -246 110 -46 27 -366 331 -404 383
-19 27 -46 69 -60 95 -14 25 -43 71 -65 100 -28 40 -35 57 -26 62 7 4 50 14
95 23 45 10 150 44 235 77 84 32 166 62 182 64 16 3 164 58 330 122 165 63
346 130 401 148 55 18 165 58 244 88 145 57 246 79 641 142 58 9 222 39 365
66 143 27 272 49 286 49 15 0 182 29 372 65 190 36 358 65 374 65 40 0 293 50
525 104 108 25 206 46 218 46 12 0 130 25 263 56 387 89 460 105 497 109 20 2
117 23 215 45 99 23 232 53 295 67 63 14 134 34 157 44 23 11 47 19 53 19 17
0 361 108 590 185 107 36 210 68 228 71 19 3 163 47 320 99 158 51 312 98 342
105 30 7 136 37 235 67 99 30 209 63 245 73 36 11 125 38 199 60 74 22 147 43
162 45 16 3 64 16 106 29 43 13 87 26 98 29 11 2 119 35 240 71 121 37 243 69
270 72 28 3 217 41 420 85 204 45 381 81 395 81 14 0 169 31 345 70 176 38
343 71 370 74 28 3 67 9 89 15 43 12 255 7 736 -16 168 -8 429 -20 580 -26
503 -22 460 -16 679 -92 107 -37 199 -71 205 -76 6 -5 56 -23 111 -41 461
-151 684 -243 865 -355 71 -44 451 -237 457 -232 3 3 2 28 -2 54 -7 57 -22 73
-245 264 -80 68 -168 145 -196 172 -41 38 -98 69 -280 156 -126 59 -283 135
-349 169 -268 136 -728 354 -780 370 -22 7 -213 37 -425 67 -212 31 -398 60
-415 65 -16 5 -172 30 -345 55 -173 25 -326 49 -340 54 -70 26 -196 32 -497
23 -170 -5 -337 -9 -373 -8 -36 0 -231 -3 -435 -8 -318 -7 -412 -13 -669 -42
-164 -18 -302 -31 -306 -29 -4 2 -161 -14 -350 -35 -188 -22 -402 -44 -474
-50 -72 -5 -232 -21 -356 -35 -124 -14 -279 -30 -345 -35 -66 -5 -275 -24
-465 -43 -190 -19 -366 -35 -391 -36 -26 0 -179 -14 -340 -30 -162 -16 -312
-30 -334 -30 -23 0 -160 -12 -305 -26 l-265 -27 -280 16 c-154 8 -352 18 -440
21 -287 9 -499 25 -580 44 -129 30 -496 130 -550 150 -27 10 -180 53 -340 95
-159 43 -303 83 -320 91 -16 7 -169 50 -340 94 -319 84 -335 89 -420 127 -27
12 -133 52 -235 89 -102 37 -212 78 -245 90 -33 12 -130 48 -215 79 -85 31
-177 67 -205 80 -27 13 -140 56 -250 96 -312 113 -458 169 -485 184 -14 8 -91
39 -172 69 -114 43 -193 65 -355 97 -114 23 -217 45 -228 50 -11 5 -78 20
-150 34 -115 22 -161 26 -390 28 -143 2 -399 1 -570 -2z m-3921 -5662 c21 -45
49 -107 63 -137 l24 -54 -17 -94 c-17 -88 -17 -95 -1 -128 14 -30 15 -43 6
-79 -8 -31 -8 -54 0 -82 15 -55 14 -56 -18 -40 -18 10 -31 26 -34 43 -6 33
-22 103 -42 188 -8 33 -17 121 -20 195 -2 74 -7 168 -11 209 -3 40 -2 71 3 68
4 -3 25 -43 47 -89z"/>
</g>
</svg>
