<?xml version="1.0" encoding="UTF-8" standalone="no"?>
<!-- Created with Inkscape (http://www.inkscape.org/) -->

<svg
   xmlns:svg="http://www.w3.org/2000/svg"
   xmlns="http://www.w3.org/2000/svg"
   version="1.1"
   width="1476.4867"
   height="473.07614"
   id="svg2">
  <defs
     id="defs4" />
  <path
     d="m 678.36549,0 -1.53125,0.28125 -13.25,20.46875 2.59375,14.84375 c -2.63908,-0.0618 -5.39082,-0.003 -8.21875,0.125 -1.11426,-4.71606 -2.42308,-9.11452 -4.09375,-13.1875 -4.54339,-11.07649 -11.375,-16.5625 -11.375,-16.5625 l -1.53125,0.28125 -13.25,20.46875 2.1875,12.625 c -0.38659,0.077 -0.76806,0.1396 -1.15625,0.21875 -3.16499,0.64532 -6.39522,1.36898 -9.65625,2.15625 -1.11565,-4.72616 -2.3887,-9.1069 -4.0625,-13.1875 -4.54339,-11.07649 -11.40625,-16.5625 -11.40625,-16.5625 l -1.53125,0.25 -13.25,20.46875 2.9375,16.875 c -4.03486,1.33349 -8.11563,2.7609 -12.1875,4.25 -1.61388,0.59019 -3.2273,1.19924 -4.84375,1.8125 -0.87985,-3.21911 -1.90464,-6.25729 -3.09375,-9.15625 -4.54339,-11.07649 -11.375,-16.5625 -11.375,-16.5625 l -1.53125,0.25 -13.25,20.46875 2.8125,16 c -5.07413,2.30417 -10.10341,4.71058 -15.0625,7.1875 -0.96374,-1.86854 -1.98413,-3.66012 -3.0625,-5.375 -6.3731,-10.13483 -14.0625,-14.375 -14.0625,-14.375 l -1.46875,0.53125 -9.53125,22.4375 3.59375,10.03125 c -1.18505,0.69469 -2.36278,1.39158 -3.53125,2.09375 -4.09919,2.46337 -8.10118,4.98758 -11.96875,7.53125 -6.48251,-8.61473 -13.4375,-12.09375 -13.4375,-12.09375 l -1.4375,0.59375 -8.59375,22.8125 1.8125,4.4375 c -0.99046,0.80271 -1.97879,1.60065 -2.9375,2.40625 -3.96989,3.33596 -7.65836,6.69912 -11.03125,10.0625 -0.54876,-0.89978 -1.13895,-1.76637 -1.71875,-2.625 -6.69988,-9.92183 -14.5,-13.90625 -14.5,-13.90625 l -1.46875,0.5625 -8.78125,22.75 5.09375,12.84375 c -0.38313,0.29412 -0.77556,0.58893 -1.15625,0.875 -6.92858,5.20635 -9.73269,6.24977 -15.0625,10.15625 -1.43594,-2.16735 -2.9286,-4.20691 -4.5,-6.125 -7.58711,-9.26104 -15.75,-12.5 -15.75,-12.5 l -1.375,0.6875 -6.65625,23.46875 5.90625,11.65625 c -3.49774,2.48965 -7.17793,5.07563 -10.875,7.59375 -1.53235,-2.69632 -3.12554,-5.23756 -4.90625,-7.5625 -6.25093,-8.16139 -13.5,-11.40625 -13.5,-11.40625 l -1.3125,0.5 -7.90625,18.90625 6.15625,13.5625 c -5.06597,3.04995 -9.54372,5.06611 -13.9375,6.625 -1.55878,-3.0491 -3.18844,-5.86877 -5.03125,-8.4375 -5.52345,-7.69925 -11.90625,-10.75 -11.90625,-10.75 l -1.1875,0.4375 -6.96875,17.84375 3.09375,7.3125 c -0.24801,0.0759 -0.46753,0.14071 -0.71875,0.21875 -6.9093,2.14631 -14.31925,4.26167 -22.15625,6.375 -1.27062,-1.83614 -2.59623,-3.58185 -4.03125,-5.21875 -6.61467,-7.54521 -14.28125,-10.53125 -14.28125,-10.53125 l -1.40625,0.4375 -8.34375,17.46875 2.25,4.34375 c -5.75859,1.34166 -11.68309,2.66014 -17.8125,3.96875 -1.96504,-3.64295 -4.03819,-6.96448 -6.40625,-9.9375 -5.8872,-7.39116 -12.6875,-10.3125 -12.6875,-10.3125 l -1.25,0.4375 -7.4375,17.125 3.65625,7.75 c -5.53914,1.16898 -11.33811,2.32753 -17.46875,3.46875 l -5.25,-5.71875 -12.25,-13.375 -5.46875,17.3125 -1.90625,6.03125 c -0.1843,0.0283 -0.34631,0.0655 -0.53125,0.0937 -5.97996,0.91479 -11.90677,1.71577 -17.6875,2.625 l -4.75,-4.75 -12.8125,-12.84375 -4.71875,17.53125 -1.28125,4.75 c -4.0096,0.91783 -8.03459,1.82195 -11.90625,2.71875 l -6.8125,-7.34375 -11.25,-12.125 -4.875,15.8125 -3.03125,9.8125 c -3.75049,0.90749 -7.4035,1.79995 -10.96875,2.6875 l -5.749997,-6.03125 -9.3125,-9.8125 -3.84375,13 -2.5,8.40625 c -0.9678,0.26165 -1.98966,0.52116 -2.9375,0.78125 -3.11128,0.85376 -6.10992,1.69348 -9,2.53125 l -5.125,-4.25 -12.71875,-10.5625 -2.8125,16.28125 -0.9375,5.4375 c -0.38161,0.13762 -0.78213,0.26897 -1.15625,0.40625 -8.99093,3.299 -15.80521,6.50825 -20.125,9.65625 -46.78616,34.0951 -36.02573,42.64605 18.59375,14.78125 56.700687,-28.9265 155.087667,-31.9787 276.687497,-8.5625 63.34054,12.1973 84.66557,11.31505 152.75,-6.34375 43.5253,-11.289 89.65052,-17.0524 102.5,-12.8125 12.84948,4.2399 29.94176,9.6732 37.96875,12.0625 10.07544,2.9991 5.52022,17.69105 -14.6875,47.46875 -32.26506,47.5452 -38.9973,114.0867 -19.34375,137 4.26161,4.9683 16.18347,4 23.0625,4 l 11.25,0 c 14.79715,0 12.56289,2.0582 17.40625,2.9375 12.99807,2.3602 10.70252,-19.3201 -2.9375,-27.75 -23.16565,-14.3171 -10.9067,-42.7884 37.71875,-87.6875 50.21536,-46.3673 67.90111,-50.1231 68.03125,-14.375 0.0398,10.9201 7.97805,35.0028 17.625,53.5 9.64695,18.4972 17.53125,40.83075 17.53125,49.65625 0,19.3662 43.41248,31.7584 89.59375,25.5625 l -0.125,-28.4375 c -31.56203,-13.42165 -36.70971,-18.7789 -45.875,-96.3437 -4.64245,-39.2886 -4.53263,-39.36465 37.53125,-32.40625 23.19815,3.8374 75.20111,7.02175 115.5625,7.09375 l 73.37501,0.15625 0,47.71875 c 0,48.3249 6.557,81.53745 27.5937,92.90625 9.9138,5.3576 23.7758,3.7667 40.3438,3.625 36.6896,-0.3142 13.6723,-7.05795 15.5937,-13.71875 4.8319,-16.7501 -9.2215,-25.96255 -14.8125,-50.15625 -7.9089,-34.2239 -7.5598,-68.7612 3.3438,-75.5 7.8722,-4.8653 42.332,21.4796 83.5625,63.875 30.5494,31.4124 34.5405,64.17325 49.125,74.96875 16.7933,12.4304 57.75,-2.1775 57.75,-14.0625 0,-5.1462 -39.721,-43.6925 -68.7813,-87.9375 -29.0602,-44.2449 -52.7423,-83.6141 -52.625,-87.5 0.1116,-3.8859 13.3108,-19.51085 29.3438,-34.71875 16.0329,-15.2079 29.1562,-32.1408 29.1562,-37.625 0,-5.4842 24.0884,-28.36245 53.5313,-50.84375 39.4739,-30.14063 70.3319,-42.95825 117.4375,-48.84375 69.8011,-8.721 81.3323,-26.4454 32.0937,-49.3125 -14.5673,-6.76529 -29.7456,-11.06022 -45.5,-12.875 -0.7346,-1.91197 -1.5414,-3.75467 -2.4687,-5.53125 -4.318,-8.27288 -10.625,-12.75 -10.625,-12.75 l -1.4063,0.0625 -11.6562,13.5625 0.9375,3.84375 c -5.3047,0.25142 -10.6656,0.76016 -16.0938,1.53125 -0.8449,-2.66985 -1.7926,-5.18514 -2.9687,-7.5625 -4.0526,-8.19211 -10.1563,-12.28125 -10.1563,-12.28125 l -1.375,0.21875 -11.8125,15.125 2,9.5625 c -5.6371,1.5417 -11.3328,3.33968 -17.0937,5.40625 -0.7275,0.26098 -1.458,0.5744 -2.1875,0.84375 -0.6431,-1.88893 -1.3638,-3.70236 -2.1875,-5.4375 -3.889,-8.19211 -9.75,-12.25 -9.75,-12.25 l -1.3125,0.1875 -11.3125,15.15625 2.3437,11.6875 c -0.8869,0.41813 -1.7665,0.82014 -2.6562,1.25 -3.9897,1.92758 -8.1565,3.80227 -12.375,5.65625 -0.4204,-1.17769 -0.8588,-2.3464 -1.3438,-3.46875 -4.0526,-9.3798 -10.1562,-14.03125 -10.1562,-14.03125 l -1.375,0.25 -11.8125,17.3125 1.7187,9.28125 c -5.519,2.06465 -10.8769,3.97184 -15.9687,5.625 -0.4582,-1.34376 -0.9114,-2.65489 -1.4375,-3.9375 -4.5434,-11.07649 -11.4063,-16.5625 -11.4063,-16.5625 l -1.5312,0.28125 -13.25,20.46875 1.125,6.4375 c -0.2351,0.0288 -0.4922,0.0696 -0.7188,0.0937 -5.8176,0.62025 -11.6335,1.58086 -16.7812,2.71875 -1.0475,-4.24907 -2.2568,-8.22105 -3.7813,-11.9375 -4.5433,-11.07649 -11.4062,-16.5625 -11.4062,-16.5625 l -1.5313,0.25 -13.25,20.46875 2.75,15.78125 c -4.1306,0.11563 -9.3797,-0.0233 -15.375,-0.375 -1.5604,-8.42642 -3.3043,-15.91438 -6.0312,-22.5625 -4.5434,-11.07649 -11.4063,-16.5625 -11.4063,-16.5625 l -1.5312,0.28125 -13.25,20.46875 2.7187,15.5625 c -3.1421,-0.39976 -6.353,-0.84355 -9.5937,-1.3125 -1.5067,-7.9621 -3.2088,-15.05849 -5.8125,-21.40625 -4.5434,-11.07649 -11.375,-16.59375 -11.375,-16.59375 l -1.5625,0.28125 -13.2188,20.46875 2.2188,12.75 c -3.8926,-0.56354 -7.8612,-1.10485 -11.875,-1.625 -1.2203,-5.52366 -2.6155,-10.61068 -4.5313,-15.28125 -4.5433,-11.07644 -11.4062,-16.5937 -11.4062,-16.5937 l -1.5313,0.28125 -13.25,20.46875 1.4688,8.375 c -3.5114,-0.28575 -6.9978,-0.70761 -10.4063,-1.53125 -1.372,-6.79034 -2.9677,-12.93608 -5.25,-18.5 -4.5433,-11.07649 -11.375,-16.5625 -11.375,-16.5625 l -1.5625,0.28125 -13.2187,20.46875 1.75,9.96875 c -2.2446,-0.0788 -4.39862,-0.16825 -6.40626,-0.375 -0.27678,-0.0285 -0.53615,-0.0652 -0.8125,-0.0937 -1.49339,-7.84676 -3.17721,-14.88396 -5.75,-21.15625 -4.54339,-11.07649 -11.375,-16.5625 -11.375,-16.5625 l -1.53125,0.28125 -13.25,20.46875 2.40625,13.875 c -2.60109,-0.28135 -5.22707,-0.56374 -7.78125,-0.84375 -1.51973,-8.07559 -3.20968,-15.26581 -5.84375,-21.6875 -4.54339,-11.07649 -11.375,-16.59375 -11.375,-16.59375 l -1.53125,0.28125 -13.25,20.46875 2.46875,14.1875 c -0.63368,-0.0735 -1.33875,-0.1454 -1.96875,-0.21875 -3.06713,-0.35711 -5.89624,-0.70881 -8.875,-1.0625 -1.51233,-8.01142 -3.19556,-15.18257 -5.8125,-21.5625 -4.54339,-11.07649 -11.40625,-16.5625 -11.40625,-16.5625 l -1.53125,0.28125 -13.25,20.46875 2.40625,13.75 c -0.61479,-0.0786 -1.29662,-0.17161 -1.90625,-0.25 -2.56542,-0.3299 -4.96463,-0.64331 -7.4375,-0.96875 -1.49621,-7.8713 -3.17062,-14.89913 -5.75,-21.1875 -4.54339,-11.07649 -11.375,-16.59375 -11.375,-16.59375 l -1.5625,0.28125 -13.21875,20.46875 2.25,12.90625 c -2.17793,-0.32227 -4.25017,-0.6218 -6.3125,-0.9375 -1.46876,-7.6322 -3.14145,-14.49408 -5.65625,-20.625 -4.54339,-11.07649 -11.375,-16.5625 -11.375,-16.5625 l -1.5625,0.2812 -13.21875,20.46875 1.96875,11.28125 c -3.27475,-0.65935 -6.15772,-1.26761 -8.65625,-1.875 -1.56042,-8.42642 -3.3043,-15.91437 -6.03125,-22.5625 -4.54339,-11.07649 -11.375,-16.5625 -11.375,-16.5625 l -1.53125,0.28125 -13.25,20.46875 1.71875,9.8125 c -2.27536,-0.49754 -4.66548,-0.99048 -7.125,-1.46875 -1.50938,-7.98582 -3.2024,-15.13675 -5.8125,-21.5 -4.54339,-11.07649 -11.375,-16.5625 -11.375,-16.5625 l -1.53125,0.28125 -13.25,20.46875 2.1875,12.5625 c -2.06716,-0.27229 -4.12985,-0.54803 -6.28125,-0.8125 -1.45998,-7.55564 -3.13101,-14.32606 -5.625,-20.40625 -4.54339,-11.07649 -11.375,-16.59375 -11.375,-16.59375 l -1.53125,0.28125 -13.25,20.46875 2.28125,13.125 c -2.00576,-0.18564 -4.00112,-0.38155 -6.0625,-0.5625 -0.0505,-0.004 -0.10574,0.004 -0.15625,0 C 694.02539,29.90868 692.32022,22.8517 689.74049,16.5625 685.1971,5.48601 678.36549,0 678.36549,0 z"
     id="path2957"
     style="fill:#000000;fill-opacity:1;fill-rule:evenodd;stroke:none" />
  <rect
     width="0.44590178"
     height="0"
     rx="0.11147545"
     ry="0"
     x="-83.866074"
     y="-372.79321"
     id="rect2973"
     style="fill:#c7c7ff;fill-opacity:1;fill-rule:evenodd;stroke:none" />
</svg>
