<?xml version="1.0" standalone="no"?>
<!DOCTYPE svg PUBLIC "-//W3C//DTD SVG 20010904//EN"
 "http://www.w3.org/TR/2001/REC-SVG-20010904/DTD/svg10.dtd">
<svg version="1.0" xmlns="http://www.w3.org/2000/svg"
 width="1536.000000pt" height="563.000000pt" viewBox="0 0 1536.000000 563.000000"
 preserveAspectRatio="xMidYMid meet">
<metadata>
Created by potrace 1.16, written by Peter Selinger 2001-2019
</metadata>
<g transform="translate(0.000000,563.000000) scale(0.100000,-0.100000)"
fill="#000000" stroke="none">
<path d="M1085 5623 c-199 -12 -371 -46 -557 -109 -91 -31 -159 -47 -218 -53
-154 -14 -208 -65 -235 -220 -8 -44 -26 -108 -40 -142 -36 -84 -43 -179 -19
-243 34 -89 68 -87 182 11 42 36 85 73 95 81 9 8 20 13 23 10 3 -4 -4 -67 -16
-142 -18 -109 -20 -140 -10 -151 22 -27 50 -16 109 40 31 30 73 61 92 69 49
20 176 39 212 32 18 -4 111 -44 207 -90 96 -46 193 -89 215 -95 68 -19 157
-13 280 19 131 34 208 38 298 14 90 -23 115 -39 185 -112 l64 -67 27 32 c24
29 30 31 61 24 50 -11 109 -41 119 -60 5 -9 12 -37 16 -64 8 -52 37 -97 63
-97 9 0 32 23 51 50 19 28 38 50 43 50 15 0 84 -38 96 -53 7 -8 11 -41 10 -81
-1 -38 3 -71 9 -77 17 -17 54 -4 101 36 l42 37 68 -37 c118 -65 127 -81 106
-181 -28 -138 -16 -148 96 -74 l80 53 110 -84 c67 -50 113 -92 116 -106 3 -12
2 -49 -4 -80 -17 -99 14 -119 86 -57 l42 36 63 -50 c103 -82 100 -77 92 -185
-12 -154 5 -169 102 -88 l58 49 52 -22 c97 -40 96 -38 101 -164 4 -109 5 -112
28 -112 13 0 45 19 74 45 28 25 54 45 58 45 5 0 24 -12 43 -26 19 -14 58 -39
87 -55 50 -29 52 -32 52 -73 0 -84 13 -168 27 -173 23 -9 57 5 102 43 l43 37
76 -37 77 -38 -3 -78 c-5 -126 25 -153 89 -78 34 39 39 41 62 31 35 -16 94
-70 139 -126 35 -45 38 -53 37 -109 -1 -49 2 -64 19 -81 21 -20 23 -20 56 -4
l35 16 115 -106 c64 -58 130 -129 148 -157 17 -28 52 -78 78 -111 25 -33 54
-73 63 -88 10 -16 38 -41 62 -55 l43 -27 6 -90 c3 -49 8 -160 12 -246 l6 -156
-50 -94 c-28 -52 -63 -134 -77 -184 -30 -98 -82 -209 -144 -305 -41 -64 -72
-145 -91 -242 -6 -32 -38 -109 -71 -174 -62 -121 -68 -144 -44 -164 8 -7 111
-31 229 -55 155 -31 234 -52 285 -75 105 -49 123 -31 76 80 -22 51 -25 75 -25
169 l0 110 50 98 c56 109 186 296 310 446 94 112 117 158 129 257 5 40 12 75
16 78 9 9 58 -48 92 -106 20 -34 29 -72 43 -185 10 -78 28 -205 39 -283 28
-190 36 -338 22 -391 -11 -40 -17 -45 -101 -89 -91 -47 -143 -93 -138 -123 2
-12 27 -19 103 -31 120 -18 505 -19 547 -2 15 6 35 26 45 44 16 30 19 75 25
438 4 223 11 428 17 455 15 75 13 203 -4 270 -9 32 -45 122 -82 199 -56 119
-66 149 -67 197 -1 32 2 60 6 64 7 8 320 -34 546 -73 107 -19 169 -34 180 -45
12 -13 18 -46 23 -134 7 -105 46 -323 133 -730 13 -60 14 -101 6 -244 -6 -120
-13 -175 -22 -180 -7 -4 -46 -15 -88 -24 -215 -46 -273 -69 -330 -131 -43 -47
-53 -93 -27 -128 42 -57 271 -91 514 -76 252 16 303 32 410 133 76 72 79 87
48 258 -17 89 -25 161 -21 189 7 60 117 415 144 465 12 22 22 56 22 76 0 51
29 202 42 214 6 7 18 -2 36 -25 59 -79 254 -268 357 -346 242 -185 421 -332
443 -364 18 -28 22 -46 22 -118 0 -84 -1 -87 -45 -158 -25 -39 -52 -88 -60
-108 -22 -52 -19 -124 8 -176 28 -57 59 -65 85 -21 9 17 20 31 23 31 4 0 9
-17 13 -39 3 -21 14 -48 23 -60 l18 -22 43 32 c24 17 44 30 46 28 1 -2 7 -22
12 -43 5 -21 17 -44 27 -50 22 -13 41 8 97 100 19 32 64 97 99 144 70 94 116
179 126 231 3 19 2 78 -4 131 -12 122 -29 155 -156 303 -52 61 -95 115 -95
121 0 6 -17 25 -38 42 -30 24 -60 72 -136 221 -54 104 -125 234 -158 287 l-61
98 -13 125 c-8 69 -10 129 -6 133 19 19 401 191 427 192 17 1 50 14 75 28 156
91 924 250 1358 280 171 13 490 0 546 -22 15 -5 66 -10 114 -10 48 0 146 -7
217 -15 252 -30 323 -34 685 -45 235 -6 426 -17 535 -30 267 -31 351 -38 820
-70 242 -17 530 -37 640 -46 428 -32 488 -35 720 -29 132 3 277 8 323 11 l83
6 -3 136 -3 136 -42 8 c-75 12 -354 37 -653 58 -308 21 -523 41 -700 65 -58 8
-206 26 -330 40 -256 29 -299 36 -431 69 -52 13 -164 33 -249 45 -269 37 -478
71 -710 116 -124 24 -272 51 -330 60 -249 38 -360 83 -360 146 0 57 -57 74
-151 46 -24 -8 -51 -12 -59 -9 -27 8 -60 45 -60 67 0 11 -7 31 -16 44 -16 22
-21 23 -78 16 -119 -15 -129 -10 -151 76 -19 70 -46 93 -100 85 -132 -20 -132
-20 -159 7 -20 20 -26 36 -26 71 0 57 -15 66 -112 66 -92 0 -108 10 -144 97
-15 37 -34 74 -43 81 -19 15 -88 16 -162 0 -99 -20 -141 11 -154 115 -11 95
-33 103 -162 62 -87 -28 -111 -30 -145 -14 -23 10 -24 14 -20 103 4 88 3 94
-19 115 -32 30 -71 24 -189 -28 -151 -67 -174 -58 -164 67 6 72 5 81 -14 100
-27 27 -45 21 -154 -49 -121 -77 -154 -67 -131 39 16 74 13 153 -7 177 -25 30
-65 17 -181 -61 -99 -67 -117 -75 -147 -70 -50 8 -62 22 -62 77 0 61 -13 94
-45 115 -25 16 -28 16 -95 -20 -102 -53 -110 -51 -124 34 -4 19 -15 46 -25 59
-23 30 -58 24 -132 -26 l-54 -36 -160 32 c-88 17 -232 40 -320 52 -88 11 -209
31 -270 45 -214 47 -360 56 -835 54 -268 -2 -506 2 -620 9 -165 11 -197 11
-297 -4 -94 -15 -160 -17 -430 -12 -296 5 -334 7 -553 40 -191 28 -294 50
-545 117 -587 155 -645 174 -935 310 -168 79 -530 225 -730 294 -125 44 -242
70 -425 96 -82 12 -181 30 -220 40 -232 63 -551 91 -840 73z m1018 -163 c77
-10 100 -16 108 -31 5 -10 35 -38 67 -61 75 -56 186 -167 207 -209 19 -36 55
-154 55 -180 0 -15 -6 -15 -62 -2 -67 16 -108 11 -108 -12 0 -14 28 -35 120
-88 25 -15 51 -30 58 -35 12 -8 48 -129 40 -137 -2 -2 -69 19 -148 46 l-145
50 -73 108 c-62 90 -73 113 -70 142 3 32 0 35 -50 62 -58 31 -66 45 -122 192
-20 53 -45 97 -75 132 -25 28 -45 53 -45 56 0 2 33 -2 73 -8 39 -7 116 -19
170 -25z m-711 -146 c39 -20 22 -34 -42 -34 -59 0 -77 11 -55 34 21 20 57 21
97 0z m-507 -50 l74 -26 -2 -36 -2 -36 53 -8 c29 -4 62 -13 72 -18 11 -6 105
-10 217 -10 223 -1 237 -4 330 -71 34 -24 110 -75 170 -114 121 -77 121 -82
-2 -84 -87 -1 -119 11 -188 75 -93 87 -126 98 -261 89 -91 -5 -123 -4 -171 10
-73 22 -199 22 -275 0 -137 -38 -146 -39 -220 -25 -38 7 -70 16 -70 19 0 3 13
28 28 55 18 34 40 57 66 70 50 26 58 46 19 46 -48 0 -56 13 -26 42 61 56 84
59 188 22z m2113 -70 c183 -72 285 -128 337 -186 91 -102 191 -294 233 -449
29 -107 31 -118 22 -124 -4 -2 -71 33 -148 79 -77 46 -192 111 -255 145 -63
34 -120 67 -126 75 -26 31 -162 310 -181 372 -22 71 -26 134 -10 134 6 0 63
-21 128 -46z m-2578 -231 c-18 -48 -39 -99 -46 -113 -12 -23 -13 -21 -8 25 10
81 23 122 51 155 14 17 28 29 30 26 3 -2 -10 -44 -27 -93z m817 -29 c113 -6
127 -9 178 -39 l57 -32 -39 -33 -38 -34 -3 34 c-5 46 -20 64 -39 49 -7 -7 -28
-12 -46 -13 -26 -1 -35 -7 -47 -33 -19 -41 -34 -43 -26 -3 4 24 2 30 -13 30
-9 0 -28 -11 -41 -25 -37 -39 -50 -32 -50 25 0 28 -2 50 -4 50 -2 0 -11 3 -20
6 -10 4 -27 -6 -47 -27 -29 -31 -30 -31 -36 -11 -4 16 -11 20 -27 17 -15 -4
-24 1 -32 19 -7 14 -9 28 -5 32 3 3 40 4 81 0 41 -3 130 -9 197 -12z m-322 -4
c-3 -5 -11 -10 -16 -10 -6 0 -7 5 -4 10 3 6 11 10 16 10 6 0 7 -4 4 -10z m603
-99 c3 -8 -1 -12 -9 -9 -7 2 -15 10 -17 17 -3 8 1 12 9 9 7 -2 15 -10 17 -17z
m1866 -495 l243 -165 12 -56 c7 -31 11 -59 8 -61 -6 -6 -184 128 -312 234 -49
42 -118 93 -152 116 -53 33 -63 44 -63 68 0 15 5 28 10 28 6 0 120 -74 254
-164z m1101 -591 c173 -70 185 -77 212 -113 13 -17 70 -86 128 -153 58 -67
103 -124 100 -127 -12 -12 -539 262 -583 302 -7 7 -16 42 -20 79 -8 60 -7 67
9 67 10 0 79 -25 154 -55z m5579 -409 c122 -46 135 -63 181 -236 25 -90 38
-118 98 -206 38 -57 66 -107 62 -113 -7 -12 -259 -16 -313 -5 -25 5 -35 16
-61 73 -52 114 -75 220 -75 357 -1 88 3 125 13 137 17 22 18 22 95 -7z m-651
-45 c41 -46 57 -74 90 -163 14 -35 36 -87 51 -116 14 -28 26 -54 26 -57 0 -3
-60 -5 -134 -5 -131 0 -134 0 -140 23 -10 41 -24 191 -21 217 13 87 18 103 36
121 29 29 53 23 92 -20z m-2196 -207 c14 -37 -109 -233 -179 -286 -74 -56
-186 -100 -293 -113 -51 -6 -163 7 -211 26 l-27 10 44 45 c83 86 153 130 256
165 112 36 175 66 253 119 66 44 75 48 118 49 21 1 35 -5 39 -15z m1273 -74
c154 -20 150 -19 150 -43 0 -36 -26 -64 -120 -127 -48 -32 -115 -82 -148 -109
l-60 -50 -61 20 c-34 12 -61 23 -61 25 0 12 74 233 87 257 17 35 47 48 93 42
19 -3 73 -10 120 -15z m241 -41 c-25 -21 -41 -24 -41 -9 0 11 53 41 60 33 3
-2 -6 -13 -19 -24z m2196 -1 c67 -24 114 -69 131 -124 7 -21 18 -60 26 -86
l14 -46 -78 5 c-89 6 -130 -1 -130 -22 0 -23 -47 -19 -60 5 -19 35 -23 114
-10 204 14 99 14 99 107 64z m-2862 -29 c3 -4 -10 -34 -30 -68 l-37 -62 -46
27 c-26 15 -69 43 -96 63 -42 30 -46 36 -30 43 22 9 229 6 239 -3z m1591 -93
c20 -14 51 -93 40 -103 -3 -3 -66 -18 -141 -32 -122 -24 -137 -25 -149 -11
-19 21 -56 93 -51 98 6 6 236 60 260 61 11 1 30 -5 41 -13z m-644 -103 c21
-26 48 -98 48 -132 0 -28 -2 -29 -87 -45 -113 -21 -126 -21 -120 2 3 9 13 49
23 87 9 39 21 74 25 79 4 5 25 12 46 16 21 4 41 8 44 9 3 0 13 -7 21 -16z
m1436 -74 c3 -35 2 -36 -37 -43 -74 -12 -218 -19 -244 -12 -28 7 -40 23 -51
69 l-7 27 168 -2 168 -3 3 -36z m-734 4 c3 -4 -58 -19 -136 -35 -90 -17 -146
-24 -152 -18 -12 12 -3 15 99 34 143 27 177 30 189 19z m-1995 -94 c167 -87
157 -76 144 -155 -6 -36 -14 -68 -17 -72 -9 -8 -141 85 -175 123 -56 64 -105
165 -80 165 6 0 64 -27 128 -61z m1352 -71 c6 -12 12 -44 13 -71 l1 -50 -61
-20 c-98 -32 -175 -4 -188 66 -10 51 0 67 43 68 20 0 61 7 91 14 80 18 88 17
101 -7z m-901 -102 c0 -41 -23 -155 -43 -211 -19 -53 -31 -51 -145 31 -4 2 87
184 100 202 6 6 28 12 49 12 38 0 39 -1 39 -34z m-2460 -20 l55 -22 -3 -99
c-1 -54 -5 -101 -8 -104 -5 -5 -183 80 -190 91 -5 7 32 143 43 161 5 9 25 4
103 -27z m150 -58 c0 -37 -35 -186 -43 -181 -9 5 0 169 10 186 7 11 33 8 33
-5z m1754 -230 c87 -55 276 -191 276 -199 0 -5 -12 -25 -26 -46 -14 -21 -37
-63 -50 -93 l-25 -54 -20 33 c-10 17 -58 78 -106 134 -47 56 -94 120 -104 142
-25 53 -25 115 -1 115 3 0 28 -14 56 -32z m-1925 -209 c70 -24 68 -18 40 -121
-12 -45 -35 -50 -86 -18 -43 26 -62 57 -69 113 -7 47 -7 47 23 47 16 0 57 -10
92 -21z m558 -236 c3 -10 23 -59 44 -110 22 -51 39 -97 39 -103 0 -19 -25 -5
-29 15 -2 11 -24 51 -50 90 -57 85 -66 106 -49 117 21 13 38 9 45 -9z m2157
-94 c36 -56 66 -108 66 -115 0 -10 -15 -14 -56 -14 -50 0 -59 3 -86 33 -31 31
-78 120 -78 145 0 13 57 52 76 52 7 0 42 -46 78 -101z m-2226 4 c17 -27 40
-63 52 -80 28 -42 11 -42 -35 -2 -40 35 -65 77 -65 109 0 32 15 24 48 -27z
m2395 -97 c28 -33 34 -45 20 -38 -12 7 -31 12 -42 12 -14 0 -26 13 -40 43 -11
23 -30 58 -42 77 l-22 35 42 -40 c24 -22 61 -62 84 -89z m-937 12 l43 -33 1
-103 c0 -124 -8 -127 -62 -25 -27 49 -40 88 -44 131 -8 74 -1 77 62 30z
m-1985 -38 c33 -18 39 -25 33 -43 -9 -33 -54 -107 -64 -107 -16 0 -49 52 -56
87 -8 40 9 83 31 83 9 0 34 -9 56 -20z m3171 -277 c61 -64 151 -173 146 -178
-2 -2 -37 5 -78 15 -41 10 -92 21 -113 25 -33 5 -43 15 -83 75 -28 42 -44 75
-40 85 8 23 37 5 119 -73 52 -50 71 -62 77 -52 12 19 -3 44 -63 107 -27 29
-43 53 -36 53 8 0 40 -26 71 -57z m-2373 -112 c23 -97 26 -131 12 -131 -6 0
-12 21 -16 48 -6 55 -25 151 -33 171 -3 9 -1 12 5 8 6 -4 21 -47 32 -96z m-89
69 c18 -33 30 -123 22 -154 l-8 -29 -37 35 c-43 41 -49 84 -17 136 23 38 26
38 40 12z m-1019 -300 c-48 -112 -96 -366 -89 -475 1 -30 1 -55 -2 -55 -21 0
-277 55 -284 61 -5 4 9 38 30 76 59 106 70 131 94 233 24 97 47 161 72 193 11
14 34 20 103 25 50 4 92 3 94 -1 1 -4 -6 -30 -18 -57z m2349 -5 c13 -15 8 -63
-11 -114 l-11 -26 -19 24 c-12 15 -19 39 -19 65 0 59 31 86 60 51z m1511 -91
c39 -35 49 -163 16 -208 -12 -16 -18 -12 -66 36 -43 43 -111 149 -111 173 0 3
10 5 23 5 12 0 29 5 37 10 19 13 80 3 101 -16z m-2887 -24 l65 -21 7 -48 c3
-27 10 -54 14 -61 13 -20 40 -3 40 25 0 29 27 45 41 24 13 -21 11 -51 -7 -107
-24 -72 -64 -115 -162 -173 -48 -28 -100 -60 -115 -71 -16 -11 -30 -19 -32
-16 -2 2 10 34 26 71 55 125 68 238 42 367 -7 36 -5 36 81 10z"/>
</g>
</svg>
