<?xml version="1.0" standalone="no"?>
<!DOCTYPE svg PUBLIC "-//W3C//DTD SVG 20010904//EN"
 "http://www.w3.org/TR/2001/REC-SVG-20010904/DTD/svg10.dtd">
<svg version="1.0" xmlns="http://www.w3.org/2000/svg"
 width="4952.000000pt" height="1596.000000pt" viewBox="0 0 4952.000000 1596.000000"
 preserveAspectRatio="xMidYMid meet">
<metadata>
Created by potrace 1.16, written by Peter Selinger 2001-2019
</metadata>
<g transform="translate(0.000000,1596.000000) scale(0.100000,-0.100000)"
fill="#000000" stroke="none">
<path d="M4668 15939 c-301 -32 -633 -127 -858 -246 -248 -132 -202 -118 -395
-115 -392 7 -627 -69 -860 -280 -301 -270 -516 -409 -878 -567 -66 -28 -149
-60 -185 -70 -37 -11 -85 -27 -107 -37 -22 -9 -62 -23 -90 -30 -68 -17 -195
-60 -280 -94 -38 -15 -86 -34 -105 -41 -69 -26 -217 -123 -312 -206 -94 -80
-190 -192 -252 -291 -16 -26 -46 -74 -67 -107 -21 -33 -43 -73 -49 -90 -6 -16
-24 -55 -40 -86 -38 -74 -113 -317 -139 -450 -72 -372 -48 -659 81 -971 31
-75 45 -98 61 -100 16 -2 22 -12 24 -38 10 -96 55 -202 131 -310 59 -83 173
-212 211 -239 37 -26 190 -61 426 -95 99 -15 191 -29 205 -32 14 -4 320 -9
680 -13 721 -7 663 -1 760 -76 94 -73 249 -142 529 -236 357 -121 677 -168
936 -138 66 8 174 14 240 13 110 0 141 -5 365 -58 441 -102 641 -154 930 -241
157 -47 312 -93 345 -101 101 -26 338 -101 570 -180 121 -42 279 -93 350 -114
216 -65 491 -164 665 -240 344 -151 690 -277 905 -331 108 -28 143 -31 360
-39 255 -10 394 -31 445 -68 17 -13 50 -76 101 -193 123 -284 166 -356 326
-546 201 -239 457 -425 833 -607 250 -120 451 -187 807 -267 363 -82 612 -120
1174 -179 211 -22 476 -52 589 -66 480 -58 1437 -158 2155 -224 817 -75 1046
-105 1360 -175 110 -25 313 -64 452 -87 l252 -41 5 -71 c19 -273 28 -355 47
-466 56 -329 191 -769 379 -1230 287 -707 310 -790 297 -1094 -11 -257 -59
-507 -137 -711 -23 -60 -48 -128 -55 -150 -23 -69 -65 -266 -76 -355 -27 -222
-97 -442 -246 -773 -51 -113 -295 -446 -551 -752 -160 -192 -259 -354 -292
-480 -33 -127 -60 -174 -125 -217 -90 -59 -266 -145 -361 -177 -173 -57 -554
-98 -804 -85 -202 9 -254 7 -291 -11 -16 -9 -87 -28 -159 -45 -71 -16 -159
-43 -196 -60 -115 -55 -265 -218 -296 -321 -19 -65 -1 -70 77 -19 120 78 286
121 346 90 17 -10 19 -20 17 -105 -3 -87 -1 -96 20 -117 l23 -23 1027 0 c817
0 1039 3 1087 13 48 11 66 11 90 1 42 -16 440 -25 529 -11 52 9 76 18 95 37
25 25 26 30 29 171 3 108 -3 203 -23 376 -32 284 -29 308 54 488 55 118 81
154 81 113 1 -31 22 -57 95 -119 104 -88 160 -122 236 -145 105 -32 114 -21
42 54 -85 88 -88 95 -68 173 16 66 15 96 -11 189 -7 28 -21 99 -29 158 l-16
108 94 157 c51 86 127 216 167 287 84 149 149 246 265 395 45 58 99 130 120
160 21 30 54 72 73 94 49 55 85 138 137 321 55 192 63 263 52 460 -5 83 -6
247 -3 365 4 199 7 223 34 325 17 61 45 151 62 200 74 208 281 632 527 1075
268 484 412 792 513 1094 l33 99 32 -59 c115 -205 248 -376 436 -559 349 -338
734 -589 1241 -806 212 -91 364 -147 771 -285 609 -206 703 -258 980 -539 222
-224 315 -342 392 -495 21 -41 50 -93 65 -115 41 -62 108 -200 130 -272 33
-108 50 -287 50 -534 0 -179 -3 -236 -15 -270 -15 -42 -43 -149 -79 -306 -10
-40 -31 -114 -47 -165 -53 -162 -61 -219 -66 -444 -5 -250 13 -445 52 -559 29
-83 32 -162 9 -208 -9 -18 -42 -72 -74 -122 -31 -49 -72 -116 -90 -148 -19
-31 -51 -73 -71 -93 -35 -34 -43 -37 -125 -45 -172 -18 -459 -15 -607 6 -117
16 -145 17 -180 6 -50 -15 -141 -35 -256 -55 -129 -23 -218 -70 -316 -169 -99
-98 -157 -202 -126 -221 5 -3 49 14 97 39 133 68 256 92 318 64 29 -14 35 -31
24 -79 -11 -50 -10 -118 3 -141 5 -11 20 -24 33 -28 27 -11 314 -32 485 -36
69 -1 180 -8 246 -14 150 -13 411 -14 490 -1 60 10 79 8 353 -30 45 -7 138
-10 205 -8 112 4 130 7 216 41 52 21 122 57 156 82 81 58 180 165 230 251 76
128 164 326 177 397 l13 68 119 107 c142 128 176 170 176 223 0 47 -38 96
-187 239 -351 339 -350 337 -357 377 -7 46 -8 213 -1 213 3 0 16 -6 28 -14 33
-21 235 -66 295 -66 66 0 148 18 162 35 9 11 -1 18 -57 34 -37 11 -84 32 -104
45 -30 21 -37 32 -41 68 -7 59 -29 104 -87 171 -26 32 -69 90 -95 131 l-47 75
16 178 c32 373 37 422 61 558 14 77 41 221 61 320 35 169 37 192 37 370 1 190
1 190 -32 285 -50 143 -124 286 -195 376 -64 80 -121 130 -388 334 -175 135
-311 272 -394 400 -123 188 -270 506 -595 1285 -75 182 -159 377 -185 435
-109 243 -296 591 -347 647 l-21 22 24 5 c13 3 94 17 179 31 185 31 463 85
850 166 339 71 479 94 660 109 74 6 153 16 175 22 22 6 60 10 85 9 25 0 88 8
140 19 335 72 429 84 2155 260 758 78 2109 224 2720 295 508 60 881 113 1596
229 321 52 787 127 1034 166 1359 215 2633 449 3448 635 749 170 866 196 1057
234 447 88 688 120 1295 171 198 17 515 44 705 60 622 53 924 67 1625 76 547
8 771 0 1420 -47 892 -64 1588 -140 2315 -255 652 -103 1673 -340 2350 -546
303 -92 780 -279 1180 -462 162 -74 710 -357 984 -508 251 -138 306 -154 306
-92 0 77 -204 266 -645 595 -402 301 -738 509 -1275 790 -613 321 -1512 697
-2222 928 -553 180 -1777 508 -2388 640 -991 214 -1483 301 -2220 390 -665 81
-909 102 -1640 141 -316 17 -692 37 -835 45 -336 20 -916 34 -1365 35 -727 1
-1313 33 -2440 135 -872 80 -1300 137 -2605 351 -1044 171 -1806 299 -2200
368 -1187 209 -3077 528 -3620 611 -624 95 -694 106 -855 136 -232 42 -414 81
-725 155 -344 83 -618 138 -1075 219 -1020 180 -1598 263 -2405 344 -864 87
-1231 114 -2580 191 -291 17 -591 35 -665 41 -209 17 -1182 23 -1582 10 -1216
-39 -1666 -87 -3378 -357 -1136 -179 -1373 -212 -1765 -244 -137 -11 -367 -32
-510 -47 -236 -25 -297 -27 -660 -28 -426 0 -506 6 -685 51 -264 67 -536 213
-837 451 -61 48 -181 142 -265 207 -84 66 -238 188 -343 271 -357 285 -585
446 -915 645 -555 334 -1094 535 -1585 590 -105 11 -445 11 -557 -1z"/>
</g>
</svg>
