<?xml version="1.0" standalone="no"?>
<!DOCTYPE svg PUBLIC "-//W3C//DTD SVG 20010904//EN"
 "http://www.w3.org/TR/2001/REC-SVG-20010904/DTD/svg10.dtd">
<svg version="1.0" xmlns="http://www.w3.org/2000/svg"
 width="1536.000000pt" height="577.000000pt" viewBox="0 0 1536.000000 577.000000"
 preserveAspectRatio="xMidYMid meet">
<metadata>
Created by potrace 1.16, written by Peter Selinger 2001-2019
</metadata>
<g transform="translate(0.000000,577.000000) scale(0.100000,-0.100000)"
fill="#000000" stroke="none">
<path d="M13014 5749 c-10 -11 -46 -36 -81 -55 -61 -35 -63 -35 -145 -28 l-84
6 -36 -44 c-39 -47 -49 -53 -161 -88 -38 -11 -85 -31 -106 -44 -20 -13 -66
-38 -101 -56 -36 -18 -107 -61 -158 -96 -53 -36 -117 -70 -148 -79 -51 -15
-56 -19 -82 -72 l-27 -55 -225 -115 c-194 -100 -226 -119 -232 -143 -7 -25
-14 -28 -85 -39 -43 -7 -88 -19 -99 -26 -16 -10 -31 -12 -56 -4 -54 14 -88 8
-88 -16 0 -37 -14 -47 -53 -40 -53 10 -84 -1 -102 -36 l-16 -30 -35 26 c-33
25 -36 26 -95 14 -36 -7 -73 -22 -89 -36 l-29 -24 -91 36 c-112 43 -146 45
-162 10 -13 -30 -26 -31 -99 -8 -52 16 -205 23 -304 13 -22 -2 -88 2 -146 9
-93 12 -114 11 -177 -3 -68 -15 -72 -15 -117 4 -26 11 -51 20 -56 20 -11 0 -1
-30 18 -51 18 -22 7 -29 -26 -16 -21 8 -43 5 -98 -11 -87 -27 -95 -27 -111 -2
-7 11 -23 20 -36 20 -12 0 -33 -9 -46 -20 -31 -27 -36 -25 -44 12 -10 52 -25
62 -53 37 l-23 -22 0 57 c0 53 -1 57 -21 51 -13 -4 -27 -1 -40 11 -18 16 -20
15 -39 -30 -12 -25 -24 -46 -29 -46 -13 0 -53 48 -48 57 3 5 2 15 -2 22 -6 9
-10 6 -15 -12 -5 -20 -11 -24 -27 -20 l-21 6 22 -44 c19 -41 19 -42 1 -21 -10
12 -26 22 -35 22 -25 0 -19 -15 11 -29 18 -8 23 -15 15 -23 -7 -7 -24 0 -58
26 -49 38 -81 44 -114 24 -17 -11 -22 -10 -30 2 -5 8 -10 25 -10 38 0 17 -6
22 -25 22 -21 0 -25 -5 -25 -28 l0 -28 -80 1 c-78 0 -80 1 -91 28 -17 40 -49
58 -116 64 -41 4 -70 1 -97 -11 -22 -9 -40 -15 -41 -14 -1 2 -10 26 -20 53
l-19 50 -9 -32 c-11 -38 -37 -46 -30 -9 3 13 0 27 -6 30 -7 5 -11 -2 -11 -18
0 -32 -5 -32 -105 0 l-81 27 -66 -27 c-37 -14 -83 -26 -103 -26 -35 0 -94 23
-106 42 -4 6 -9 6 -13 -1 -5 -8 -20 -1 -46 19 -27 21 -48 30 -69 28 -17 -1
-38 5 -49 15 -19 17 -20 17 -25 -12 -9 -45 -73 -77 -205 -102 l-111 -22 -43
21 c-76 35 -155 45 -335 40 -167 -5 -168 -5 -235 24 -83 35 -124 35 -191 2
-50 -26 -54 -26 -117 -14 -58 12 -192 16 -209 6 -3 -2 -76 3 -161 10 -85 8
-171 12 -191 9 -20 -2 -58 2 -85 10 -31 10 -106 18 -199 21 -82 2 -183 6 -222
8 -70 4 -72 4 -63 -15 6 -11 24 -25 40 -32 19 -7 27 -16 22 -24 -5 -9 -20 -8
-62 1 -30 7 -76 16 -102 20 -45 7 -49 5 -59 -18 -9 -20 -16 -23 -29 -16 -9 5
-49 6 -87 3 -47 -4 -72 -2 -77 6 -11 17 -136 14 -171 -5 -27 -14 -35 -14 -90
1 l-61 17 -30 -29 c-49 -49 -181 -93 -461 -153 -207 -45 -408 -108 -598 -187
-166 -70 -792 -380 -1045 -519 -1044 -570 -1702 -1100 -2011 -1617 -117 -196
-224 -437 -243 -547 -5 -33 -5 -34 10 -15 9 11 31 49 49 85 18 36 54 93 79
125 26 33 104 139 174 235 396 545 592 731 1017 965 767 421 1845 821 2613
970 93 18 219 31 467 46 297 19 363 20 525 10 309 -18 497 -55 720 -141 69
-27 181 -60 250 -75 275 -59 322 -73 445 -136 65 -33 154 -74 197 -90 43 -16
91 -35 107 -43 35 -19 181 -185 199 -228 18 -42 11 -63 -61 -197 -79 -147
-138 -211 -258 -281 -98 -57 -173 -125 -249 -225 -57 -74 -95 -93 -210 -106
-116 -13 -180 -37 -278 -102 -100 -67 -281 -242 -337 -327 -58 -88 -94 -119
-245 -214 -160 -101 -186 -121 -300 -231 -104 -101 -172 -149 -271 -190 -124
-52 -199 -97 -244 -147 -55 -62 -63 -98 -41 -192 51 -222 51 -222 33 -327 -27
-157 -80 -307 -140 -394 -29 -42 -62 -94 -75 -115 -29 -49 -48 -160 -33 -189
6 -11 56 -57 112 -101 102 -84 138 -127 159 -192 10 -34 14 -37 38 -32 40 10
80 51 114 121 39 81 35 113 -27 221 -44 75 -52 112 -26 112 6 0 28 -27 51 -59
60 -90 63 -91 221 -91 158 0 179 -9 201 -84 l13 -44 35 12 c80 26 102 122 50
221 -16 31 -30 66 -30 76 0 36 -40 99 -82 129 -23 17 -71 39 -106 50 -36 11
-72 26 -79 32 -26 21 -44 68 -50 131 -5 60 -4 64 20 80 14 9 46 43 72 77 44
57 47 66 65 174 36 211 67 262 224 364 56 35 121 82 144 104 57 52 140 89 397
178 286 99 402 143 497 191 47 23 111 46 154 55 86 16 135 35 180 69 17 13 64
40 105 60 40 19 101 53 134 75 42 27 93 48 171 69 128 35 195 60 278 104 l58
31 32 -19 c201 -121 350 -170 600 -199 77 -9 138 -22 152 -31 14 -9 49 -48 78
-88 81 -109 120 -138 203 -152 80 -13 106 -50 117 -173 6 -67 22 -106 54 -135
11 -10 48 -60 81 -110 49 -75 70 -121 112 -247 29 -85 55 -159 59 -163 4 -5
23 5 41 21 30 26 34 36 34 79 0 26 -3 63 -7 81 -10 45 12 42 61 -7 38 -38 71
-112 71 -159 0 -18 4 -23 16 -18 9 3 19 6 24 6 16 0 40 82 40 136 0 38 -10 81
-34 142 -18 49 -43 122 -54 163 -33 117 -85 237 -128 290 -44 55 -62 98 -63
147 -1 29 -4 32 -31 32 -29 0 -30 1 -30 48 0 66 -18 95 -63 106 l-38 10 7 52
c12 101 -32 165 -128 182 -29 6 -106 15 -171 20 -105 10 -128 16 -205 51 -96
45 -116 72 -66 91 15 6 63 38 107 71 116 88 265 150 403 170 82 11 192 -2 427
-52 242 -51 342 -49 584 11 152 38 178 38 197 3 7 -16 17 -43 21 -60 5 -28 11
-33 35 -33 16 0 48 -8 72 -18 39 -17 70 -18 343 -16 165 2 358 6 429 10 l129
7 -6 -129 c-4 -101 -11 -146 -31 -207 -34 -101 -48 -230 -36 -317 12 -85 24
-118 58 -152 45 -48 52 -39 52 65 0 109 15 167 62 239 l33 53 6 -50 c4 -28 12
-69 18 -92 8 -30 8 -55 1 -89 -19 -83 46 -322 106 -393 31 -36 80 -71 99 -71
10 0 5 45 -12 110 -15 61 -15 69 1 120 12 41 18 103 20 245 2 105 7 250 11
323 8 131 8 132 27 115 11 -10 33 -44 49 -75 40 -78 61 -95 159 -124 99 -29
136 -61 146 -124 6 -36 9 -40 37 -40 l30 0 -6 69 c-7 90 -34 141 -100 189 -73
55 -83 68 -121 161 -19 44 -66 134 -104 198 -38 65 -82 150 -96 188 -38 97
-63 118 -177 144 -52 12 -103 25 -113 28 -15 4 -4 14 50 49 191 119 217 138
264 195 27 33 94 135 149 228 102 171 121 193 232 269 26 17 145 124 265 237
283 268 411 363 579 434 64 28 41 26 450 34 193 4 237 12 325 58 64 34 79 34
235 13 138 -19 183 -13 303 39 65 29 92 35 177 39 65 4 141 16 215 36 168 44
260 52 605 52 385 1 479 11 556 62 43 29 79 100 86 172 5 47 2 64 -21 110 -57
117 -175 166 -549 226 -163 26 -202 36 -290 74 -141 61 -175 69 -231 54 -56
-15 -84 -3 -172 68 -114 94 -153 102 -260 54 l-67 -31 -31 30 c-51 49 -85 57
-158 35 -13 -4 -26 9 -48 45 -29 47 -32 49 -60 40 -21 -8 -42 -6 -81 5 -38 12
-55 13 -60 5 -4 -7 -12 -8 -19 -4 -10 6 -11 2 -7 -13 21 -69 21 -69 -17 -29
-39 39 -64 45 -112 26 -37 -13 -66 -5 -107 31 l-34 30 -19 -21z m406 -97 l-1
-37 -14 27 c-8 15 -12 34 -9 42 10 26 24 7 24 -32z m-7962 -761 c10 -6 7 -10
-12 -13 -25 -5 -33 1 -19 15 8 9 15 9 31 -2z m-490 -20 c10 -6 7 -10 -12 -13
-25 -5 -33 1 -19 15 8 9 15 9 31 -2z m3358 -108 c-10 -10 -42 8 -52 31 -18 38
-2 41 29 6 16 -18 26 -34 23 -37z m98 15 c9 -12 16 -28 16 -36 0 -20 -49 19
-50 41 0 24 16 21 34 -5z m2493 -2340 c-2 -13 -4 -5 -4 17 -1 22 1 32 4 23 2
-10 2 -28 0 -40z"/>
<path d="M13560 5659 c0 -11 4 -18 10 -14 5 3 7 12 3 20 -7 21 -13 19 -13 -6z"/>
</g>
</svg>
