<?xml version="1.0" standalone="no"?>
<!DOCTYPE svg PUBLIC "-//W3C//DTD SVG 20010904//EN"
 "http://www.w3.org/TR/2001/REC-SVG-20010904/DTD/svg10.dtd">
<svg version="1.0" xmlns="http://www.w3.org/2000/svg"
 width="1536.000000pt" height="885.000000pt" viewBox="0 0 1536.000000 885.000000"
 preserveAspectRatio="xMidYMid meet">
<metadata>
Created by potrace 1.16, written by Peter Selinger 2001-2019
</metadata>
<g transform="translate(0.000000,885.000000) scale(0.100000,-0.100000)"
fill="#000000" stroke="none">
<path d="M2024 8840 c-44 -18 -106 -106 -175 -250 -100 -210 -123 -252 -141
-264 -13 -8 -32 0 -88 37 -39 26 -84 50 -101 54 -59 11 -78 -24 -224 -422 -26
-71 -71 -181 -101 -243 -42 -89 -59 -116 -85 -130 -58 -32 -87 -62 -157 -165
-90 -133 -108 -170 -117 -241 -6 -47 -17 -73 -56 -130 -27 -39 -49 -81 -49
-94 0 -12 10 -42 21 -65 12 -23 28 -84 35 -140 8 -54 21 -112 30 -128 17 -33
63 -65 109 -75 53 -11 102 -42 114 -72 14 -33 8 -68 -24 -132 -29 -57 -47
-149 -85 -425 -58 -419 -99 -574 -180 -680 -28 -35 -74 -101 -103 -147 -61
-95 -119 -151 -185 -180 l-45 -20 -25 25 c-21 22 -26 38 -33 119 -4 51 -11
102 -15 113 -34 95 -143 92 -250 -8 -54 -50 -57 -56 -75 -137 -33 -151 -25
-224 37 -325 20 -33 65 -136 101 -230 127 -331 196 -446 286 -479 23 -9 84
-20 135 -25 115 -12 136 -24 364 -197 259 -197 305 -228 422 -282 66 -32 242
-117 391 -191 338 -167 509 -245 950 -431 193 -81 388 -164 435 -185 47 -20
168 -80 270 -135 104 -55 260 -127 355 -165 277 -108 310 -122 555 -246 244
-123 270 -133 540 -197 84 -19 141 -39 175 -60 28 -17 64 -34 80 -37 17 -4
118 -36 225 -70 629 -205 1051 -283 1655 -305 522 -20 1105 -95 1475 -191 85
-22 394 -101 685 -175 601 -153 1385 -365 1454 -394 25 -10 147 -49 271 -85
273 -81 417 -136 705 -271 256 -119 265 -123 536 -219 338 -120 450 -140 774
-139 178 0 226 4 313 22 238 52 359 120 489 275 43 50 124 139 180 197 72 75
107 118 118 149 8 24 40 79 71 123 31 45 69 109 85 143 32 68 31 87 -11 145
-11 16 -20 34 -20 40 0 7 19 53 41 104 57 125 85 296 50 296 -5 0 -24 -26 -41
-57 -32 -56 -179 -213 -200 -213 -16 0 -12 18 21 115 17 50 42 137 56 195 41
168 36 377 -8 333 -6 -6 -35 -71 -65 -144 -30 -73 -70 -162 -90 -196 -34 -61
-154 -227 -159 -221 -1 2 2 39 7 83 12 103 3 606 -11 665 -27 109 -53 130 -71
58 -87 -344 -180 -618 -253 -746 l-32 -57 -6 255 c-4 222 -8 266 -28 340 -27
100 -39 126 -53 112 -11 -11 -49 -159 -112 -435 -47 -204 -75 -292 -106 -329
l-19 -23 -1 68 c0 115 -43 279 -79 301 -16 10 -28 -18 -35 -79 -12 -101 -54
-261 -87 -329 -17 -35 -52 -84 -78 -110 l-46 -45 3 79 c3 47 -3 117 -13 173
-27 153 -39 154 -78 7 -26 -98 -86 -241 -114 -272 -19 -22 -52 -23 -59 -3 -3
8 2 47 11 87 31 132 18 330 -21 345 -24 9 -33 -8 -63 -109 -32 -109 -85 -230
-112 -254 -16 -14 -24 -15 -44 -6 -30 14 -30 17 -9 118 20 98 16 246 -8 270
-23 23 -33 12 -52 -58 -22 -78 -87 -217 -114 -241 -16 -15 -24 -16 -41 -7 -27
14 -27 16 9 121 37 106 48 226 30 312 -11 56 -25 68 -41 36 -4 -8 -28 -57 -53
-109 -47 -98 -134 -223 -162 -234 -25 -10 -54 12 -54 40 0 14 18 87 41 162 51
174 64 322 31 362 -29 35 -39 22 -107 -135 -57 -135 -140 -286 -160 -292 -6
-2 -19 3 -29 10 -18 13 -18 16 2 78 40 122 63 297 42 329 -13 21 -22 9 -95
-115 -63 -108 -128 -185 -154 -185 -10 0 -25 6 -35 13 -18 13 -18 17 8 82 18
42 28 89 29 126 3 95 -26 101 -80 16 -13 -21 -40 -56 -60 -77 -29 -33 -42 -40
-73 -40 -21 0 -47 8 -60 18 l-22 18 36 72 c48 95 66 169 65 262 -1 83 -9 122
-26 127 -6 2 -38 -31 -71 -74 -33 -43 -102 -120 -155 -170 -129 -127 -151
-126 -115 9 24 89 32 276 13 280 -5 1 -36 -38 -68 -86 -65 -98 -159 -200 -178
-194 -26 9 -34 36 -20 70 77 191 100 358 49 358 -7 0 -41 -46 -75 -103 -76
-126 -155 -236 -160 -221 -2 7 10 64 27 129 32 125 38 223 17 265 -19 37 -32
31 -64 -30 -39 -72 -142 -216 -186 -258 -41 -39 -73 -40 -71 -2 1 14 13 52 27
85 31 76 44 182 24 209 -13 18 -17 14 -69 -55 -67 -90 -170 -189 -196 -189
-42 0 -43 21 -6 134 28 88 34 121 32 174 -4 86 -21 91 -67 20 -96 -149 -153
-202 -213 -196 -26 2 -32 7 -30 23 10 74 14 135 8 135 -3 0 -33 -20 -67 -45
-65 -48 -95 -58 -86 -28 4 10 18 52 32 93 41 116 47 260 11 260 -7 0 -60 -63
-116 -140 -56 -77 -106 -140 -110 -140 -23 0 -100 34 -100 45 0 7 9 34 21 60
22 51 30 178 12 196 -6 6 -39 -26 -92 -91 -80 -98 -115 -127 -87 -72 22 43 38
132 34 192 -5 81 -24 76 -77 -19 -24 -44 -54 -90 -67 -102 -24 -22 -25 -22
-60 -6 -28 14 -34 22 -29 35 27 63 34 95 35 155 0 37 -4 67 -10 67 -5 0 -24
-21 -42 -47 -44 -65 -118 -143 -134 -143 -18 0 -18 5 7 70 12 32 23 90 26 136
10 147 -16 176 -62 69 -25 -59 -122 -201 -132 -192 -2 2 4 32 12 65 19 74 17
167 -4 167 -8 0 -31 -29 -53 -65 -50 -83 -81 -115 -103 -106 -12 4 -15 13 -11
29 23 85 14 177 -18 177 -8 0 -24 -21 -36 -46 -27 -54 -67 -104 -85 -104 -31
0 -37 27 -21 92 16 63 11 118 -10 125 -6 2 -34 -27 -64 -63 -30 -37 -56 -61
-58 -55 -2 7 4 40 13 74 18 69 17 188 -2 194 -6 2 -27 -29 -46 -69 -46 -94
-92 -150 -121 -146 -13 2 -20 9 -17 18 2 8 6 47 8 85 4 54 2 73 -9 83 -12 10
-24 0 -67 -53 -55 -70 -88 -86 -77 -38 4 16 9 56 12 89 8 72 -5 87 -38 48 -61
-74 -86 -97 -96 -90 -7 4 -8 17 -1 39 11 38 12 131 2 141 -4 4 -33 -21 -64
-56 -64 -71 -85 -71 -69 -3 12 50 12 66 1 84 -8 12 -18 7 -55 -27 -50 -46 -66
-51 -87 -25 -31 38 -409 203 -465 203 -13 0 -24 8 -27 19 -6 25 -140 90 -427
209 -473 197 -691 280 -1045 397 -203 67 -473 163 -600 212 -414 164 -734 265
-1295 409 -614 158 -669 173 -625 174 127 2 315 25 552 69 609 112 994 149
1680 158 317 4 465 2 703 -12 345 -20 761 -16 945 9 61 9 142 16 180 16 39 0
124 7 190 15 65 8 194 15 286 15 l167 0 7 -42 c13 -90 16 -98 35 -98 27 0 49
36 56 92 11 81 49 55 61 -41 3 -27 9 -55 14 -62 13 -22 47 17 70 83 12 32 26
58 31 58 14 0 25 -41 33 -121 9 -92 15 -105 42 -90 28 14 53 71 66 147 10 58
13 63 32 58 11 -4 22 -8 24 -11 3 -2 8 -63 12 -136 4 -73 7 -133 8 -134 5 -13
35 3 60 32 44 51 58 83 74 166 12 69 15 74 40 77 37 4 47 -25 57 -160 5 -59
11 -112 15 -118 3 -5 15 -10 26 -10 31 0 73 102 104 253 6 29 22 34 47 15 12
-10 19 -45 27 -141 6 -70 11 -149 11 -175 0 -48 16 -93 36 -99 18 -6 63 47 96
115 30 60 33 76 38 186 l5 121 38 3 c62 5 74 -13 82 -126 6 -102 17 -142 36
-142 6 0 31 19 54 43 40 40 61 87 80 179 4 21 12 28 40 34 54 10 102 -3 110
-29 3 -12 9 -83 12 -157 3 -74 9 -139 14 -144 29 -32 122 118 143 232 l12 67
52 9 c29 5 56 6 60 2 4 -4 7 -102 7 -216 0 -115 4 -212 7 -215 16 -16 51 11
92 74 71 106 126 250 126 328 l0 43 39 0 c47 0 46 1 62 -203 5 -78 12 -144 15
-149 12 -18 44 -6 74 29 52 59 72 116 78 220 l5 93 58 0 57 0 7 -73 c4 -40 2
-139 -5 -220 -6 -81 -8 -152 -5 -157 9 -15 81 28 122 74 54 59 101 168 114
262 l12 82 65 7 c47 5 67 3 72 -5 12 -19 21 -163 19 -293 -3 -168 13 -177 105
-55 64 85 111 180 126 255 10 46 15 53 35 53 40 0 52 -24 65 -129 12 -94 11
-187 -6 -348 -6 -60 -6 -63 15 -63 77 0 221 265 238 436 l6 62 71 4 c39 3 73
3 76 1 3 -3 6 -62 7 -131 0 -70 1 -133 2 -139 1 -8 16 -13 41 -13 30 0 48 7
75 32 39 33 78 102 90 156 12 58 37 53 136 -29 31 -26 49 -49 53 -70 9 -48
-12 -158 -60 -312 -38 -119 -43 -143 -31 -154 22 -22 66 -5 115 46 57 60 166
225 182 276 17 54 20 56 57 38 24 -11 34 -24 39 -48 8 -47 -12 -198 -40 -291
-35 -119 -39 -149 -21 -164 62 -51 245 188 278 362 l11 60 35 -7 c73 -13 85
-25 94 -90 7 -49 5 -183 -6 -370 -3 -43 28 -44 87 -3 75 51 141 177 186 356
19 75 30 47 30 -81 0 -85 -9 -184 -31 -327 -39 -258 -45 -335 -30 -345 17 -10
57 19 134 99 154 159 229 329 243 553 l7 104 31 -3 c29 -3 31 -6 53 -93 37
-150 54 -320 54 -551 -1 -178 2 -214 14 -224 26 -22 62 24 131 165 120 245
147 440 90 654 -15 57 -25 110 -22 117 8 21 30 17 53 -8 30 -35 186 -295 260
-434 35 -68 73 -134 83 -146 l19 -23 23 23 c22 22 23 29 23 175 0 134 -4 164
-27 249 -34 121 -75 214 -135 301 -53 76 -50 98 8 78 80 -28 182 -132 293
-301 92 -141 107 -160 121 -160 55 0 43 219 -21 389 -31 83 -103 206 -154 264
-42 47 -47 57 -29 57 22 0 70 -43 110 -96 22 -30 44 -52 50 -49 17 11 9 88
-16 168 l-25 78 32 39 c18 22 38 40 45 40 11 0 25 -40 35 -95 2 -12 11 -20 23
-20 15 0 25 13 40 58 19 56 28 64 53 49 10 -7 6 -29 -19 -105 -17 -53 -29
-103 -26 -112 19 -47 97 12 151 115 35 66 48 80 60 62 3 -4 -13 -78 -34 -163
-22 -84 -40 -160 -40 -166 0 -7 11 -13 24 -13 18 0 37 16 70 59 48 62 116 193
116 222 0 28 11 49 26 49 20 0 18 -25 -21 -218 -50 -248 -47 -276 24 -229 69
46 138 148 171 252 7 22 22 64 32 93 19 51 21 53 39 36 30 -27 15 -100 -91
-439 -38 -121 -70 -231 -72 -245 -14 -107 201 119 329 347 28 48 62 118 78
155 29 70 49 80 62 29 12 -49 -81 -384 -163 -583 -40 -98 -53 -148 -38 -148
32 0 197 154 270 252 25 34 44 54 40 42 -4 -13 -1 -26 7 -33 11 -8 23 -5 53
18 81 58 138 154 184 311 14 48 34 88 56 114 42 49 53 85 61 203 15 223 -69
517 -189 665 -24 30 -57 85 -72 123 -15 38 -37 83 -49 100 -35 50 -389 399
-440 434 -27 18 -92 53 -145 78 -53 25 -171 80 -262 123 -199 94 -273 118
-495 160 -93 18 -278 56 -410 86 -290 64 -498 103 -1010 189 -214 36 -425 76
-468 90 -88 28 -157 31 -284 13 -66 -10 -97 -9 -151 1 -39 7 -225 16 -452 21
-501 12 -842 36 -1350 95 -199 24 -717 104 -930 145 -58 11 -165 27 -237 35
-73 8 -204 26 -290 40 -245 40 -1114 183 -1243 205 -154 26 -881 230 -1210
340 -279 92 -374 134 -610 270 -156 90 -194 104 -260 98 -98 -10 -360 -167
-490 -293 -78 -77 -189 -153 -312 -216 -67 -34 -139 -24 -368 54 -107 36 -224
71 -260 77 -36 6 -207 15 -380 20 -173 5 -328 13 -345 17 -22 7 -36 21 -54 58
-49 101 -353 467 -453 545 -50 40 -74 46 -114 30z m2006 -1283 c132 -43 149
-51 195 -95 27 -27 83 -77 123 -111 40 -35 124 -128 187 -207 94 -118 137
-162 244 -249 224 -183 275 -256 383 -548 32 -89 70 -179 83 -199 14 -21 25
-39 25 -41 0 -2 -22 -18 -49 -34 -43 -27 -51 -38 -65 -85 -12 -42 -29 -68 -80
-120 -58 -60 -73 -70 -138 -90 -72 -23 -82 -23 -508 -22 -466 0 -524 5 -655
55 -78 29 -151 103 -230 232 -33 55 -67 103 -77 108 -10 5 -21 31 -28 66 -17
85 -29 120 -70 203 -20 42 -49 114 -64 160 -19 57 -41 103 -70 140 -57 74 -66
92 -66 138 0 43 -11 59 -149 229 -82 100 -121 181 -121 250 0 56 27 137 62
186 21 29 22 29 82 21 145 -20 399 1 521 41 61 21 86 24 195 21 118 -2 133 -5
270 -49z m-2229 -227 c194 -65 374 -178 555 -349 49 -47 139 -131 200 -187 60
-55 115 -113 123 -128 13 -24 13 -28 -9 -48 -20 -19 -22 -27 -17 -87 3 -37 18
-113 33 -171 63 -242 19 -462 -110 -549 -93 -63 -230 -134 -298 -156 -40 -13
-103 -35 -141 -49 -37 -14 -79 -26 -92 -26 -14 0 -51 -9 -82 -20 -43 -15 -84
-20 -168 -21 -60 0 -135 -4 -165 -9 -32 -4 -74 -4 -100 2 -44 9 -47 13 -125
131 -88 136 -81 114 -121 406 -28 206 -28 210 21 211 37 0 63 29 94 104 52
125 55 157 32 294 -23 135 -26 219 -11 357 20 176 61 278 125 310 51 25 155
19 256 -15z m4454 -28 c22 -6 81 -13 130 -17 50 -3 160 -15 245 -25 85 -11
234 -26 330 -35 387 -34 439 -42 921 -150 332 -75 480 -103 979 -185 201 -33
392 -67 424 -76 172 -45 285 -149 316 -288 24 -108 43 -147 116 -242 85 -113
110 -177 99 -252 -24 -163 -185 -260 -482 -291 -86 -9 -443 -16 -678 -14 -44
1 -120 10 -170 20 -108 22 -421 23 -857 3 -289 -13 -507 -8 -567 14 -20 8 -55
22 -79 31 -38 17 -51 17 -140 5 -107 -14 -133 -11 -314 37 -54 14 -98 31 -98
38 0 6 -36 44 -81 84 -44 41 -111 115 -149 165 -168 224 -340 388 -585 557
-164 112 -257 205 -309 309 -49 99 -50 156 -3 196 43 36 122 71 221 95 66 17
132 22 349 28 147 4 270 10 273 13 5 6 29 1 109 -20z m4825 -348 c404 -40 768
-108 1122 -210 182 -52 918 -301 933 -315 14 -14 -7 -25 -74 -38 -90 -18 -356
-41 -468 -41 -121 0 -354 -40 -415 -71 -40 -21 -42 -21 -137 -4 -129 23 -214
50 -287 91 -34 19 -94 40 -132 49 -86 18 -142 46 -197 99 -24 23 -87 66 -141
96 -55 30 -147 87 -206 126 -65 44 -133 81 -175 94 -37 13 -80 29 -95 36 -32
17 -88 74 -88 91 0 23 108 22 360 -3z m-6327 -3728 c75 -14 230 -49 345 -76
114 -28 272 -65 352 -82 168 -35 232 -57 289 -99 94 -68 107 -164 33 -242 -48
-51 -112 -61 -317 -52 -229 11 -288 9 -462 -15 -234 -33 -360 -23 -454 33 -24
14 -82 61 -129 104 -47 43 -106 93 -130 112 -25 19 -67 55 -93 80 -54 51 -151
187 -143 200 8 12 85 40 157 56 103 24 380 14 552 -19z"/>
</g>
</svg>
