<?xml version="1.0" standalone="no"?>
<!DOCTYPE svg PUBLIC "-//W3C//DTD SVG 20010904//EN"
 "http://www.w3.org/TR/2001/REC-SVG-20010904/DTD/svg10.dtd">
<svg version="1.0" xmlns="http://www.w3.org/2000/svg"
 width="1579.000000pt" height="956.000000pt" viewBox="0 0 1579.000000 956.000000"
 preserveAspectRatio="xMidYMid meet">
<metadata>
Created by potrace 1.16, written by Peter Selinger 2001-2019
</metadata>
<g transform="translate(0.000000,956.000000) scale(0.100000,-0.100000)"
fill="#000000" stroke="none">
<path d="M14996 9510 c-101 -13 -160 -28 -271 -72 -263 -104 -510 -278 -867
-612 -368 -344 -581 -617 -810 -1036 -145 -266 -233 -494 -496 -1285 -128
-383 -256 -639 -453 -900 -94 -126 -157 -196 -284 -317 -145 -137 -263 -225
-396 -293 -290 -149 -433 -181 -849 -195 -151 -6 -288 -12 -305 -15 -16 -2
-140 -16 -275 -30 -134 -15 -274 -32 -310 -40 -67 -15 -292 -99 -415 -155 -38
-18 -179 -74 -312 -126 -132 -51 -263 -104 -290 -118 -57 -28 -307 -130 -543
-221 -157 -61 -574 -229 -725 -293 -108 -45 -251 -119 -303 -156 -26 -19 -69
-45 -97 -59 -27 -14 -103 -56 -168 -95 -104 -62 -147 -79 -360 -150 -133 -44
-324 -112 -423 -150 -338 -131 -831 -367 -1104 -528 -162 -95 -329 -197 -388
-236 -158 -106 -431 -226 -687 -302 -49 -15 -166 -51 -260 -81 -293 -92 -366
-114 -510 -150 -77 -19 -189 -48 -250 -64 -124 -33 -178 -44 -350 -71 -394
-62 -438 -71 -705 -136 -289 -71 -389 -94 -585 -139 -343 -79 -444 -112 -945
-313 -69 -27 -136 -53 -150 -57 -32 -10 -51 -25 -44 -36 12 -20 64 -7 279 69
323 114 488 156 765 192 85 11 184 27 220 35 36 8 92 16 125 19 109 11 319 38
365 47 25 6 236 16 470 24 234 8 436 17 450 20 14 4 77 10 140 15 112 7 190
17 376 46 50 8 106 14 123 14 17 0 107 16 199 35 242 51 294 64 422 100 63 18
129 36 145 39 30 7 196 58 471 146 156 50 519 142 704 179 197 39 645 103 760
108 87 4 130 1 176 -11 76 -20 168 -20 254 -1 36 8 90 14 121 15 l56 0 9 -237
c12 -330 12 -333 -36 -628 -15 -92 -186 -500 -276 -660 -46 -82 -66 -128 -90
-209 -10 -32 -41 -106 -71 -164 -29 -58 -53 -112 -53 -119 0 -20 45 -44 118
-65 83 -23 345 -42 373 -27 14 7 25 6 41 -5 20 -14 24 -14 39 0 15 14 20 14
46 0 17 -8 35 -11 43 -6 7 4 26 3 43 -2 40 -15 49 3 29 60 -18 54 -86 126
-128 136 -16 4 -36 14 -44 21 -8 7 -31 15 -50 17 -31 3 -35 7 -38 34 -2 17 7
51 21 80 32 63 42 101 57 199 9 59 24 106 61 180 61 126 105 184 164 221 100
62 109 74 158 216 26 73 58 182 72 242 23 98 106 329 125 349 4 5 37 -29 72
-75 194 -250 238 -359 238 -593 -1 -157 -24 -410 -49 -533 -19 -96 -38 -232
-48 -365 l-6 -68 40 -38 c25 -23 60 -43 89 -52 68 -20 178 -17 241 6 l51 18
26 -29 c24 -27 27 -28 39 -12 13 16 15 16 34 -4 23 -23 43 -17 43 13 0 25 7
24 34 -8 15 -17 29 -24 39 -20 23 9 22 90 -2 143 -23 50 -88 116 -138 141 -53
25 -73 70 -61 135 10 52 2 99 -26 173 -10 27 -15 77 -16 159 0 144 24 262 80
386 38 84 39 88 50 268 6 100 13 196 17 212 l6 30 126 -5 c171 -7 431 12 636
47 66 11 232 64 395 126 58 22 150 52 205 67 133 35 168 47 245 83 36 17 67
29 69 27 4 -5 -16 -45 -102 -199 -36 -65 -69 -136 -72 -157 -5 -27 2 -62 24
-133 29 -91 36 -136 56 -391 3 -33 10 -121 16 -195 15 -182 11 -194 -93 -301
-63 -64 -100 -92 -153 -118 -38 -18 -77 -37 -85 -42 -8 -5 -23 -12 -33 -16
-24 -7 -37 -43 -37 -96 1 -106 104 -227 194 -227 25 0 81 55 115 112 33 56
158 164 217 188 34 14 56 31 69 53 10 18 40 52 67 77 48 44 49 46 58 125 32
285 44 373 62 475 12 70 23 191 27 310 7 179 10 201 35 265 34 89 71 154 161
285 40 58 85 128 100 157 26 49 32 54 94 74 36 12 72 26 79 32 7 5 15 8 17 5
9 -9 10 -463 1 -561 l-9 -98 42 -87 c34 -73 46 -116 72 -257 55 -309 87 -509
94 -595 5 -67 12 -93 31 -121 31 -46 42 -171 24 -269 -20 -103 -24 -232 -8
-253 11 -15 35 -19 169 -24 193 -7 199 -5 199 76 0 44 -6 70 -27 107 -49 92
-60 226 -27 340 14 49 14 61 0 131 -12 60 -16 140 -15 348 0 299 -9 413 -47
588 -23 105 -25 134 -20 250 3 73 8 272 11 442 8 367 -9 318 180 515 69 72
143 158 164 190 75 116 89 305 41 541 -25 118 -22 202 7 248 19 31 98 86 283
195 63 38 157 94 209 124 134 80 227 154 379 305 477 469 706 830 857 1342 26
88 60 203 75 255 16 52 38 127 49 165 33 114 90 302 126 420 19 61 48 164 65
230 32 121 142 439 199 573 129 306 219 458 450 757 222 288 632 691 876 862
17 11 59 33 93 47 l62 26 49 -21 c62 -26 178 -143 215 -216 29 -59 56 -78 94
-68 57 14 79 65 49 110 -7 11 -26 41 -40 67 l-28 47 80 -50 c82 -52 103 -56
136 -23 26 26 19 89 -15 136 -42 58 -64 138 -56 205 12 101 -37 153 -146 153
-29 0 -81 9 -116 20 -74 23 -269 34 -376 20z"/>
</g>
</svg>
