<?xml version="1.0" standalone="no"?>
<!DOCTYPE svg PUBLIC "-//W3C//DTD SVG 20010904//EN"
 "http://www.w3.org/TR/2001/REC-SVG-20010904/DTD/svg10.dtd">
<svg version="1.0" xmlns="http://www.w3.org/2000/svg"
 width="730.000000pt" height="311.000000pt" viewBox="0 0 730.000000 311.000000"
 preserveAspectRatio="xMidYMid meet">
<metadata>
Created by potrace 1.16, written by Peter Selinger 2001-2019
</metadata>
<g transform="translate(0.000000,311.000000) scale(0.100000,-0.100000)"
fill="#000000" stroke="none">
<path d="M968 3065 c-37 -19 -80 -37 -97 -40 -32 -5 -113 -50 -168 -91 -17
-13 -46 -53 -63 -87 -34 -70 -40 -131 -21 -214 6 -27 18 -82 27 -123 22 -102
20 -98 38 -165 9 -32 16 -72 16 -88 0 -16 7 -55 15 -87 10 -39 16 -113 17
-222 1 -141 -1 -169 -18 -205 -10 -24 -22 -43 -26 -43 -5 0 -19 -22 -32 -50
-14 -28 -49 -72 -81 -102 -62 -57 -279 -198 -304 -198 -9 0 -40 -14 -70 -30
-30 -17 -64 -32 -76 -34 -27 -5 -105 -44 -105 -52 0 -4 27 -3 60 0 71 8 82
-10 25 -37 -58 -28 -40 -50 21 -27 15 6 39 12 53 15 14 2 82 20 151 40 69 21
142 41 163 46 37 9 93 35 128 61 9 6 24 8 34 4 16 -6 17 -15 10 -88 -7 -82
-13 -98 -81 -199 -28 -41 -33 -69 -38 -216 -2 -66 1 -124 9 -155 29 -108 118
-211 219 -253 l35 -15 -6 78 c-7 90 3 130 48 191 28 40 111 100 137 101 16 0
42 -60 37 -86 -2 -10 -4 -26 -4 -35 -1 -8 -18 -35 -38 -59 l-37 -43 37 6 c22
3 37 2 37 -4 0 -16 -27 -64 -44 -78 -43 -36 22 -38 91 -3 66 34 172 195 229
347 15 39 44 75 133 164 63 62 131 123 150 136 20 12 76 59 126 103 54 49 117
96 161 118 l72 36 67 -11 c65 -12 170 -45 191 -62 9 -7 22 -65 40 -179 3 -14
11 -60 20 -103 8 -42 18 -89 20 -104 4 -19 -10 -58 -47 -132 -119 -244 -137
-289 -154 -386 -14 -85 -52 -133 -157 -202 -54 -35 -103 -73 -108 -83 -10 -19
-7 -20 102 -15 62 3 148 5 190 5 112 -1 144 21 173 120 12 39 100 221 127 260
13 19 35 55 50 80 15 25 43 62 63 83 47 50 95 151 95 200 0 21 5 71 11 110 11
74 32 107 68 107 9 0 30 7 46 16 34 18 78 13 103 -12 9 -9 61 -50 116 -92 168
-125 175 -132 188 -176 6 -23 15 -46 20 -53 5 -6 16 -39 25 -73 8 -35 34 -106
56 -159 33 -80 40 -109 43 -176 2 -76 1 -83 -34 -145 -49 -86 -77 -149 -69
-157 4 -3 18 -1 32 5 23 11 25 10 25 -13 0 -30 5 -31 50 -3 43 26 80 32 80 12
0 -19 17 -18 28 2 8 15 19 18 73 23 14 1 29 24 90 141 19 36 19 36 -6 100 -14
35 -25 83 -25 106 0 24 -4 54 -9 67 -5 13 -12 55 -16 93 -3 38 -11 89 -16 114
-6 25 -11 63 -10 85 0 22 -7 71 -16 110 -8 38 -17 86 -20 105 -3 19 -12 48
-20 64 -23 45 -8 51 138 51 l130 0 87 -84 c48 -46 128 -113 177 -149 50 -36
107 -80 128 -99 20 -18 41 -33 47 -33 15 0 130 -142 130 -161 0 -17 -43 -127
-80 -205 -11 -23 -20 -46 -20 -51 0 -6 -44 -48 -97 -93 -109 -93 -123 -108
-123 -128 0 -10 8 -12 33 -6 17 4 66 8 107 10 125 4 213 16 238 32 30 20 62
83 62 124 0 18 14 60 30 93 17 33 30 66 30 73 0 15 37 72 55 84 5 4 7 8 3 8
-5 0 1 9 11 19 11 11 27 43 35 71 8 27 18 55 21 60 6 10 92 -39 117 -67 22
-24 41 -160 33 -227 -9 -69 -31 -105 -97 -156 -99 -78 -118 -95 -118 -108 0
-9 9 -11 34 -7 19 4 42 2 52 -3 13 -7 36 -5 73 4 30 8 62 12 70 9 46 -18 142
42 201 125 24 34 25 40 26 230 2 152 -1 201 -12 222 -8 15 -15 31 -16 35 0 5
-13 17 -28 28 -61 45 -290 292 -290 313 0 8 -23 52 -50 99 -28 47 -48 89 -45
94 3 4 32 22 64 39 85 46 167 117 210 185 59 93 167 213 212 236 51 25 229 79
266 79 15 1 64 7 108 15 125 24 567 47 745 40 165 -6 422 -31 480 -45 34 -9
74 -14 349 -45 150 -17 304 -18 299 -3 -2 5 -33 20 -68 32 -36 13 -81 34 -100
47 -20 13 -60 35 -90 49 -30 14 -59 29 -65 33 -21 16 -121 79 -150 94 -16 9
-32 19 -35 24 -3 4 -41 26 -85 48 -144 75 -205 108 -223 123 -16 12 -86 52
-122 68 -8 4 -31 14 -50 23 -19 8 -51 20 -70 26 -99 30 -167 54 -211 76 -26
14 -53 25 -60 25 -6 0 -25 6 -42 14 -34 14 -103 33 -176 47 -24 5 -49 13 -55
18 -19 15 -187 52 -276 61 -47 5 -159 12 -250 15 -91 4 -223 11 -295 16 -71 6
-161 10 -200 9 -40 -1 -105 8 -155 20 -85 20 -269 46 -430 59 -61 5 -106 3
-160 -9 -79 -16 -213 -18 -425 -5 -176 10 -405 12 -482 4 -38 -4 -97 -10 -133
-14 -36 -3 -80 -11 -98 -17 -18 -5 -43 -11 -55 -13 -40 -5 -82 -18 -117 -36
-19 -10 -73 -36 -120 -59 -119 -56 -298 -168 -438 -272 -42 -31 -78 -55 -80
-53 -3 2 -19 -7 -37 -20 -17 -14 -37 -25 -43 -25 -7 0 -12 -4 -12 -10 0 -5 -5
-10 -10 -10 -6 0 -48 -18 -94 -39 -89 -42 -99 -44 -184 -42 -45 1 -58 6 -84
31 -26 27 -29 35 -23 67 4 21 16 54 26 76 24 45 88 220 96 258 7 38 -16 76
-99 160 -75 75 -93 98 -138 175 -14 24 -42 73 -64 109 -21 36 -54 78 -75 93
-20 15 -42 33 -49 40 -7 6 -22 12 -31 12 -10 0 -31 2 -47 5 -21 4 -48 -5 -96
-30z"/>
</g>
</svg>
