<?xml version="1.0" standalone="no"?>
<!DOCTYPE svg PUBLIC "-//W3C//DTD SVG 20010904//EN"
 "http://www.w3.org/TR/2001/REC-SVG-20010904/DTD/svg10.dtd">
<svg version="1.0" xmlns="http://www.w3.org/2000/svg"
 width="1193.000000pt" height="283.000000pt" viewBox="0 0 1193.000000 283.000000"
 preserveAspectRatio="xMidYMid meet">
<metadata>
Created by potrace 1.16, written by Peter Selinger 2001-2019
</metadata>
<g transform="translate(0.000000,283.000000) scale(0.100000,-0.100000)"
fill="#000000" stroke="none">
<path d="M470 2813 c-82 -14 -124 -37 -255 -142 -121 -97 -162 -139 -185 -193
-32 -75 -26 -88 50 -111 49 -14 114 -21 267 -26 197 -7 203 -8 241 -34 56 -39
76 -73 97 -157 25 -103 48 -153 105 -230 51 -68 97 -107 160 -131 41 -15 49
-22 77 -69 31 -50 70 -84 133 -118 137 -72 290 -188 290 -219 0 -15 -79 -124
-114 -159 -17 -17 -52 -45 -77 -62 -51 -34 -69 -75 -69 -158 0 -36 5 -54 19
-66 10 -8 20 -20 22 -25 2 -4 24 -23 48 -41 55 -39 87 -41 103 -7 10 21 8 28
-8 43 -10 10 -27 21 -36 25 -14 5 -18 18 -18 56 l0 49 103 83 c191 156 247
221 247 284 0 14 6 28 14 31 8 3 56 0 107 -6 52 -6 153 -17 224 -26 72 -8 171
-14 220 -13 50 1 99 1 110 0 26 -1 211 -182 257 -250 41 -61 8 -137 -88 -202
-12 -8 -50 -34 -84 -58 -34 -24 -77 -47 -94 -52 -18 -5 -43 -21 -57 -35 -22
-23 -24 -35 -26 -128 -1 -98 -15 -179 -33 -201 -12 -15 5 -135 23 -172 9 -17
24 -33 33 -37 14 -5 15 -1 10 29 -6 30 -4 35 12 35 23 0 35 22 37 65 3 40 33
103 56 115 14 8 16 18 12 43 -3 21 1 46 11 65 9 17 16 42 16 56 0 13 8 32 18
42 9 9 24 27 32 40 17 25 166 141 273 214 60 40 67 48 67 78 0 18 -5 42 -11
54 -17 33 -4 32 53 -4 66 -42 93 -54 188 -85 41 -14 93 -37 115 -52 22 -14 54
-33 70 -41 33 -16 125 -106 125 -121 0 -5 8 -22 17 -36 10 -15 24 -43 31 -63
51 -142 84 -249 94 -310 12 -67 11 -74 -9 -108 -11 -21 -24 -52 -28 -70 -8
-39 -46 -62 -102 -62 -21 0 -47 -7 -57 -15 -11 -8 -28 -15 -39 -15 -27 0 -73
-30 -88 -57 -17 -31 -8 -37 40 -22 32 10 43 9 56 -1 11 -9 43 -11 130 -5 105
6 118 10 161 37 25 17 56 48 69 69 30 46 42 54 78 50 l27 -3 -25 38 c-14 20
-25 43 -25 50 0 7 -11 24 -24 37 -30 31 -40 63 -72 232 -25 138 -54 261 -71
300 -19 47 -61 96 -103 122 -25 15 -81 64 -126 108 -84 83 -102 118 -133 248
-7 27 -19 60 -29 74 l-16 26 89 -8 c152 -14 235 -10 280 14 21 11 56 21 77 21
43 0 178 35 222 57 22 11 78 15 240 18 116 1 264 10 329 18 92 12 177 14 380
10 580 -13 1698 -8 2142 8 284 10 610 21 720 24 50 1 180 5 290 9 110 3 270 9
355 11 264 8 420 16 545 25 187 15 262 19 535 27 271 8 888 7 1080 -2 63 -3
187 -7 275 -10 271 -8 457 -15 535 -20 93 -7 178 -12 295 -20 109 -7 165 -12
271 -27 80 -11 140 -6 130 11 -7 10 -48 20 -136 31 -36 5 -99 14 -140 19 -101
14 -530 51 -660 57 -58 3 -148 9 -200 14 -93 9 -270 19 -685 41 -143 7 -680 9
-1680 6 -808 -3 -1558 -2 -1665 3 -321 15 -427 20 -595 31 -88 5 -237 14 -332
19 -94 6 -211 14 -260 20 -374 41 -665 85 -798 120 -38 11 -124 33 -190 49
-66 16 -154 39 -195 51 -41 12 -95 26 -119 31 -54 11 -113 30 -126 41 -5 4
-17 8 -26 8 -9 0 -61 14 -115 31 -55 17 -112 35 -129 39 -16 5 -61 17 -100 28
-90 26 -410 91 -480 97 -16 2 -82 10 -145 19 -63 8 -196 22 -295 31 -99 8
-243 24 -320 34 -77 11 -198 23 -270 27 -128 6 -145 5 -415 -36 -112 -16 -243
-59 -384 -125 -150 -70 -161 -74 -216 -86 -68 -15 -135 -6 -203 25 -52 23 -55
27 -67 75 -7 28 -9 68 -5 91 11 63 -13 176 -52 250 -57 106 -111 143 -266 179
-85 20 -115 23 -167 14z"/>
</g>
</svg>
