<?xml version="1.0" standalone="no"?>
<!DOCTYPE svg PUBLIC "-//W3C//DTD SVG 20010904//EN"
 "http://www.w3.org/TR/2001/REC-SVG-20010904/DTD/svg10.dtd">
<svg version="1.0" xmlns="http://www.w3.org/2000/svg"
 width="4274.000000pt" height="1828.000000pt" viewBox="0 0 4274.000000 1828.000000"
 preserveAspectRatio="xMidYMid meet">
<metadata>
Created by potrace 1.16, written by Peter Selinger 2001-2019
</metadata>
<g transform="translate(0.000000,1828.000000) scale(0.100000,-0.100000)"
fill="#000000" stroke="none">
<path d="M1907 18258 c9 -11 297 -277 640 -591 l622 -571 578 -773 578 -773
156 -403 157 -402 -44 -3 c-24 -2 -44 -4 -44 -5 0 -1 14 -54 30 -117 l30 -115
-26 -20 c-70 -52 -69 -39 -4 -150 32 -55 55 -103 52 -107 -4 -3 -132 -79 -284
-167 l-278 -161 -159 -6 -160 -7 -230 112 -231 111 -398 -90 c-302 -68 -442
-95 -584 -112 l-188 -22 -60 -155 c-34 -86 -81 -208 -106 -271 l-44 -115 -38
-2 c-57 -4 -486 -53 -498 -58 -6 -2 -182 -127 -391 -279 l-380 -275 -147 -363
c-144 -353 -152 -370 -300 -623 l-153 -260 43 -610 c24 -335 44 -623 46 -640
3 -26 416 -691 424 -683 1 2 16 60 32 129 28 119 37 139 157 365 l128 239 253
119 254 119 226 -30 226 -30 277 38 277 37 274 163 c151 89 284 166 296 171
15 7 106 -8 344 -56 178 -37 325 -68 327 -69 1 -2 25 -92 54 -202 l52 -198
-17 -56 c-10 -31 -42 -133 -72 -227 l-54 -171 -151 -43 c-144 -42 -175 -55
-608 -275 l-456 -232 -47 -89 c-26 -49 -44 -92 -40 -95 12 -11 104 -39 127
-39 12 0 145 32 296 71 l274 71 133 -10 c74 -6 136 -13 139 -16 3 -2 -4 -17
-15 -33 -17 -23 -40 -34 -143 -62 l-124 -35 -210 -207 -210 -207 -371 -185
-371 -185 -369 -67 c-203 -37 -370 -68 -372 -70 -3 -2 13 -11 34 -20 22 -9
219 -92 439 -185 l400 -170 486 0 485 0 215 69 c261 85 1098 342 1119 344 9 0
82 -52 163 -117 l147 -118 115 86 c63 47 119 86 123 86 8 0 195 -204 228 -248
8 -12 36 -1 162 62 l151 76 63 -122 63 -122 222 -59 222 -59 225 75 226 75
177 -193 c98 -106 180 -191 184 -190 3 2 57 114 120 249 62 135 116 245 119
246 3 0 57 -85 120 -189 115 -188 115 -189 155 -195 22 -3 276 -24 565 -46
l525 -42 1010 120 c948 113 1011 119 1032 103 12 -9 73 -62 137 -119 l115
-103 660 -45 660 -44 444 -312 445 -313 132 -295 c73 -162 230 -509 348 -770
118 -261 215 -479 215 -485 0 -5 -111 -215 -246 -465 l-246 -455 -172 -725
-171 -725 -278 -601 -278 -600 8 -224 9 -223 -192 -251 c-105 -138 -196 -254
-201 -258 -6 -4 -137 -59 -291 -123 -154 -64 -418 -184 -586 -267 l-306 -151
-36 -73 -37 -74 1059 0 1059 0 73 86 73 86 21 -78 c25 -92 22 -91 175 -93 l95
-1 98 203 97 203 0 276 0 277 794 1124 c643 910 805 1145 851 1237 32 63 59
117 61 119 2 3 17 -8 33 -23 l28 -27 8 -237 7 -237 -67 -220 c-37 -121 -110
-331 -161 -467 l-94 -247 21 -98 c12 -54 24 -103 28 -109 4 -8 37 5 100 40 77
42 108 66 173 138 73 80 82 86 105 77 13 -5 28 -7 32 -4 19 11 222 296 217
303 -3 5 1 18 10 28 11 14 14 15 13 4 -1 -8 0 -22 4 -30 3 -8 13 -92 22 -185
13 -146 14 -204 5 -400 l-12 -230 62 -206 c35 -114 66 -212 70 -219 7 -11 140
-53 147 -46 2 2 15 99 29 216 l25 213 40 58 c35 51 44 79 80 236 l40 177 -15
210 c-8 116 -14 212 -12 213 2 2 78 -74 170 -168 l167 -171 84 7 84 7 5 41 c3
23 11 85 16 139 l11 96 -91 181 -90 181 37 -15 c21 -9 98 -41 171 -71 l132
-54 61 30 c45 23 59 35 55 48 -3 9 -26 95 -51 190 l-46 173 -109 139 -110 139
30 82 30 81 -19 81 c-11 45 -16 87 -13 93 4 6 222 263 485 572 l478 561 42
-15 c23 -7 404 -124 847 -259 l805 -246 2080 11 2080 12 250 -95 250 -95 860
-523 859 -524 239 -305 c131 -168 240 -314 242 -325 2 -11 6 -66 9 -123 l6
-103 75 -149 75 -149 -158 -263 -158 -263 -382 -135 -382 -134 -60 -151 -60
-150 -143 -62 c-132 -58 -171 -69 -576 -165 l-434 -102 -28 -46 c-16 -25 -30
-48 -31 -52 -2 -4 -144 -41 -317 -82 -172 -41 -314 -76 -316 -78 -1 -2 -14
-38 -28 -81 l-26 -77 1573 0 1573 0 12 42 c7 24 30 100 52 170 l40 127 258
243 258 243 458 250 c289 158 461 257 466 270 5 11 47 181 94 379 l86 358 -16
255 -16 254 -477 522 c-338 369 -531 590 -663 757 -103 129 -185 237 -183 239
2 2 79 -26 171 -62 l168 -66 595 -96 595 -96 700 -173 700 -173 367 -172 366
-173 92 -211 91 -212 270 -205 c148 -113 276 -210 283 -215 8 -6 43 -139 81
-310 l68 -300 -83 -173 -82 -172 54 -63 c30 -34 78 -88 106 -121 l51 -58 -104
-208 -104 -207 -240 -83 -240 -82 -98 -83 -98 -83 -293 -82 -293 -83 -39 -68
c-22 -37 -40 -70 -40 -73 0 -3 307 -6 683 -6 l682 1 216 33 c119 18 225 39
236 47 11 8 84 72 162 144 78 72 146 131 150 133 5 1 14 -25 20 -58 l12 -61
-40 -47 c-22 -26 -65 -72 -96 -102 -101 -98 -130 -90 312 -90 l388 1 90 116
c50 64 93 121 97 127 6 10 168 692 168 707 0 4 -67 90 -149 192 l-149 186 -75
388 -76 388 9 445 8 445 -34 315 c-19 173 -36 329 -39 346 -5 28 -47 62 -373
301 l-367 270 -540 173 -540 172 -186 112 -187 111 -90 165 c-80 145 -94 180
-122 289 -17 68 -30 125 -28 126 2 2 144 30 315 63 l312 60 1558 -614 1558
-615 1727 -180 1728 -181 1457 241 1458 240 987 420 988 419 487 147 c269 82
492 150 496 152 4 3 -40 39 -98 80 l-106 75 -457 -46 -457 -46 -998 -209 -998
-209 -1350 105 -1351 105 -184 111 -185 110 7 85 7 84 -39 -6 c-21 -3 -75 -11
-119 -17 l-81 -11 -219 132 c-121 73 -221 133 -223 135 -2 1 -16 51 -32 110
-16 59 -31 109 -33 111 -2 2 -79 7 -173 12 l-169 9 -287 173 -288 173 0 99 c0
90 -2 99 -17 94 -40 -12 -195 -46 -211 -46 -15 0 -469 266 -476 279 -2 3 3 77
11 165 7 87 12 160 10 162 -1 2 -77 8 -166 13 -90 5 -167 13 -171 18 -4 4 -85
123 -179 264 l-173 256 26 144 c14 79 22 146 18 150 -4 3 -79 34 -168 69
l-161 62 -183 271 -182 272 12 228 c6 126 9 231 6 234 -3 3 -90 21 -193 40
-103 19 -188 35 -189 36 0 1 -101 151 -223 333 l-222 331 94 159 95 159 -227
5 -226 5 -405 359 -405 360 4 148 c2 81 2 148 0 148 -2 0 -99 18 -216 39
l-212 39 -560 497 c-309 274 -561 500 -561 504 0 19 -109 593 -113 598 -5 4
-636 93 -663 93 -9 0 -523 448 -607 530 l-29 27 51 194 c28 106 49 194 47 196
-1 1 -128 6 -281 10 l-278 6 -271 240 c-149 132 -335 296 -412 365 l-141 124
-53 179 c-29 98 -56 182 -59 188 -4 6 -101 -15 -264 -58 l-257 -69 -1148 293
c-631 161 -1166 298 -1189 304 -40 11 -51 23 -179 202 -75 104 -140 192 -144
194 -4 2 -162 -28 -351 -66 l-345 -71 -890 227 c-709 181 -894 231 -914 249
-14 13 -109 96 -212 185 l-187 161 -448 -199 -448 -199 -890 -72 -890 -73
-343 132 -342 131 -388 -191 -387 -191 -209 -19 -209 -18 -486 -210 -486 -209
-356 39 -356 39 -189 -192 c-104 -106 -251 -257 -328 -335 l-139 -141 -256
-111 c-141 -61 -370 -151 -508 -200 l-253 -88 -202 63 c-112 35 -204 64 -205
64 -1 0 -80 -89 -176 -197 l-174 -198 -479 -167 -479 -167 -169 -7 c-143 -6
-168 -5 -164 7 3 8 22 85 44 171 l38 157 283 127 c156 70 283 132 283 138 -1
6 -36 110 -80 231 -43 121 -75 223 -72 226 4 4 145 69 315 145 l307 139 -135
135 -135 135 273 162 272 161 3 44 c2 24 1 80 -3 124 l-7 82 -86 17 c-48 9
-93 20 -99 24 -8 4 46 39 134 86 80 44 152 84 159 90 10 8 2 28 -37 94 -28 46
-48 85 -45 88 2 3 55 18 118 33 88 23 115 26 124 17 6 -7 62 -73 125 -147 78
-92 115 -129 117 -117 2 10 13 339 25 732 l22 715 -150 122 c-82 66 -156 122
-165 124 -8 2 -86 -36 -173 -84 l-158 -87 -352 -743 -353 -743 -548 -533 -548
-532 -464 -277 -464 -276 -750 -136 -751 -135 -367 0 -367 0 -172 83 c-152 72
-181 91 -258 160 -85 76 -86 77 -140 77 l-55 0 0 64 0 63 -52 7 c-29 3 -79 6
-110 6 -34 0 -62 5 -70 13 -7 8 -165 225 -351 483 l-337 470 -613 604 -614
605 -833 445 -834 445 -196 53 c-451 121 -413 112 -393 90z"/>
</g>
</svg>
