<?xml version="1.0" standalone="no"?>
<!DOCTYPE svg PUBLIC "-//W3C//DTD SVG 20010904//EN"
 "http://www.w3.org/TR/2001/REC-SVG-20010904/DTD/svg10.dtd">
<svg version="1.0" xmlns="http://www.w3.org/2000/svg"
 width="3520.000000pt" height="1016.000000pt" viewBox="0 0 3520.000000 1016.000000"
 preserveAspectRatio="xMidYMid meet">
<metadata>
Created by potrace 1.16, written by Peter Selinger 2001-2019
</metadata>
<g transform="translate(0.000000,1016.000000) scale(0.100000,-0.100000)"
fill="#000000" stroke="none">
<path d="M2085 10125 c-38 -8 -132 -23 -208 -34 -75 -11 -163 -27 -195 -35
-31 -8 -89 -21 -127 -29 -89 -19 -254 -80 -308 -115 -126 -81 -267 -219 -379
-369 -21 -29 -119 -149 -216 -265 -286 -342 -372 -456 -465 -609 -58 -95 -72
-133 -92 -238 -18 -99 -19 -167 -4 -247 14 -69 30 -91 74 -100 57 -10 105 21
207 136 23 26 31 29 47 20 28 -15 51 -12 51 5 0 11 7 14 23 10 14 -4 28 -1 35
8 7 8 22 12 37 9 18 -3 25 0 25 11 0 11 6 13 21 10 14 -4 27 0 35 12 8 10 20
15 29 11 12 -4 19 0 22 14 3 10 20 28 39 39 27 16 34 27 34 50 0 16 -4 33 -10
36 -6 3 -10 15 -10 26 0 20 1 20 31 2 39 -22 77 -80 101 -153 18 -54 18 -55
-2 -70 -18 -13 -19 -20 -11 -43 8 -20 7 -27 -1 -27 -6 0 -59 -22 -117 -49
-177 -82 -319 -127 -463 -146 -31 -4 -48 -11 -48 -20 0 -35 163 -133 266 -160
147 -38 393 1 479 77 70 61 104 74 1085 403 201 67 415 142 475 167 219 90
261 102 365 102 55 1 111 -5 133 -12 55 -20 130 -74 237 -171 208 -190 464
-384 672 -509 217 -131 654 -318 973 -417 215 -66 370 -155 435 -250 17 -24
52 -103 80 -175 58 -155 107 -235 236 -387 143 -170 278 -282 562 -465 105
-68 247 -200 415 -386 68 -75 232 -248 365 -384 133 -136 242 -254 242 -261 0
-7 -4 -48 -9 -92 -6 -44 -15 -206 -21 -360 -15 -384 -42 -563 -114 -772 -44
-124 -118 -294 -186 -426 -29 -56 -50 -111 -50 -130 -1 -46 -41 -118 -81 -144
-66 -42 -88 -64 -118 -116 -17 -30 -40 -62 -52 -73 -26 -23 -52 -72 -44 -83 2
-5 -1 -27 -9 -49 -8 -21 -17 -69 -21 -106 -10 -86 7 -88 72 -6 26 33 53 60 60
60 18 0 52 48 65 92 6 22 20 44 30 49 20 11 24 -1 7 -18 -7 -7 -15 -35 -20
-63 -5 -33 -19 -65 -36 -87 -59 -74 -74 -99 -71 -119 1 -11 -7 -33 -20 -48
-12 -16 -22 -41 -22 -56 0 -15 -9 -47 -20 -72 -21 -49 -42 -188 -30 -201 11
-12 77 50 125 116 22 30 52 61 67 70 17 10 31 30 40 59 7 23 27 57 44 73 17
17 37 48 42 69 12 41 57 96 79 96 28 0 15 -78 -22 -133 -27 -40 -35 -62 -35
-97 0 -25 -5 -51 -12 -58 -36 -36 -48 -359 -13 -364 6 -1 26 28 45 63 19 35
50 78 68 96 17 17 32 38 32 47 0 9 9 30 20 48 11 18 20 41 20 52 0 10 14 34
30 53 25 28 30 42 30 85 0 46 3 53 42 88 23 21 47 51 53 67 l12 28 12 -40 c25
-77 52 -100 89 -76 27 17 63 196 62 309 -1 40 5 64 24 95 49 84 155 157 208
144 13 -3 35 -9 50 -13 69 -16 108 22 89 87 -14 48 -39 62 -116 69 l-60 5 1
40 c1 22 18 99 38 170 33 121 128 521 198 835 115 525 125 657 62 870 -44 151
-64 191 -134 266 -98 105 -204 251 -297 409 -45 76 -81 141 -79 143 2 2 50
-13 107 -34 558 -197 794 -265 1294 -378 367 -82 900 -181 1141 -212 28 -3 56
-9 62 -13 10 -6 143 -726 182 -986 25 -167 50 -495 50 -655 0 -249 -72 -614
-153 -775 -11 -22 -57 -78 -102 -125 -45 -47 -103 -116 -129 -154 -74 -107
-212 -251 -441 -459 -308 -279 -561 -470 -766 -579 -104 -54 -167 -116 -253
-246 -81 -121 -137 -174 -348 -325 -216 -153 -357 -225 -616 -310 -18 -6 -44
-23 -57 -38 -15 -18 -49 -36 -99 -53 -171 -58 -331 -163 -428 -283 -62 -76
-103 -149 -88 -158 5 -3 51 23 102 58 73 49 118 71 207 101 162 54 302 65 326
26 12 -19 83 -50 116 -50 54 0 198 49 210 71 18 34 20 15 4 -37 -19 -64 -19
-104 0 -104 8 0 15 4 15 8 0 5 27 36 60 70 59 60 130 102 225 132 22 7 55 21
73 32 l32 20 34 -30 c24 -21 48 -31 86 -35 68 -8 103 8 188 87 48 45 63 65 60
81 -4 19 0 22 37 22 30 0 60 11 112 41 39 23 75 42 79 42 4 0 4 -33 1 -73 -7
-101 3 -181 25 -185 13 -2 20 8 28 40 39 151 104 281 185 365 49 51 51 52 90
43 70 -17 108 -12 158 19 74 48 237 279 237 339 0 22 5 32 15 32 24 0 92 68
125 126 17 29 41 81 53 116 22 61 28 67 207 224 102 89 331 283 510 431 358
296 367 305 417 458 39 119 41 252 8 535 -37 317 -41 451 -20 650 33 321 68
433 205 660 188 310 253 448 295 619 l18 73 96 -6 c53 -3 260 -13 461 -22
l365 -16 130 -127 c72 -70 174 -160 227 -199 132 -97 487 -274 925 -461 496
-212 680 -299 913 -431 394 -223 563 -372 859 -758 115 -150 169 -213 220
-257 14 -12 98 -148 169 -271 63 -111 224 -477 304 -689 64 -173 168 -504 168
-538 0 -40 37 -161 65 -217 15 -30 51 -92 81 -137 79 -123 84 -134 84 -210 0
-96 -25 -236 -51 -290 -30 -62 -122 -151 -197 -191 -46 -24 -72 -32 -113 -32
-38 0 -59 -5 -73 -19 -15 -13 -49 -22 -111 -30 -136 -18 -268 -68 -384 -145
-89 -59 -191 -154 -191 -177 0 -18 42 -8 111 27 146 73 384 97 513 52 60 -21
63 -24 74 -64 9 -32 18 -44 43 -54 45 -19 191 2 273 39 60 27 116 78 116 107
0 10 12 14 38 14 43 0 92 30 164 102 59 59 128 175 128 214 0 26 5 33 25 38
35 9 78 73 116 169 25 67 29 87 21 113 -7 24 -5 36 9 55 24 34 63 251 54 309
-4 25 -12 51 -18 58 -7 9 -7 16 1 24 7 7 12 27 12 45 0 38 0 38 90 18 109 -24
314 -15 344 15 15 15 7 18 -90 43 -157 41 -285 116 -344 201 -26 39 -29 49
-19 67 23 44 5 102 -63 206 -78 118 -142 191 -173 199 -18 4 -23 12 -22 38 1
22 -14 57 -47 111 -95 156 -177 245 -258 278 -20 8 -43 26 -51 39 -8 12 -97
262 -197 553 -100 292 -187 539 -193 550 -35 67 -130 173 -215 242 -78 63
-145 102 -343 204 -270 139 -370 202 -535 337 -138 113 -236 215 -304 317 -47
69 -286 534 -278 540 2 1 179 14 393 28 390 26 477 39 505 72 7 8 57 44 111
80 55 35 124 89 154 119 l55 54 257 6 c401 10 686 25 823 43 298 39 596 14
1415 -122 673 -111 1445 -236 1585 -255 288 -40 1115 -150 1310 -174 446 -55
1716 -166 2065 -181 321 -13 809 -37 1140 -55 747 -41 1558 -69 2745 -95 1006
-23 1001 -23 2070 -9 2786 37 2869 35 4675 -101 1673 -126 1518 -116 1577 -99
73 22 98 39 98 71 0 38 -36 91 -68 97 -15 3 -142 31 -282 61 -388 85 -1111
190 -1890 275 l-645 70 -960 50 c-2561 135 -2957 158 -3690 220 -746 62 -858
70 -1385 95 -173 8 -376 19 -450 25 -74 6 -376 28 -670 50 -804 59 -1167 98
-1720 186 -261 42 -574 96 -695 120 -368 75 -1672 412 -2155 558 -756 228
-1466 519 -2280 935 -414 212 -984 486 -1325 639 -159 71 -501 224 -760 340
-450 201 -699 300 -1275 506 -327 116 -1099 311 -1470 371 -760 122 -1272 167
-2610 230 -1018 48 -1349 45 -1950 -15 -671 -66 -849 -94 -1911 -295 -892
-169 -947 -179 -1229 -215 -219 -29 -274 -33 -515 -34 -285 -1 -287 -1 -540
55 -331 72 -584 229 -1000 619 -138 129 -284 245 -383 303 -133 78 -323 137
-579 178 -168 27 -543 35 -648 14z"/>
</g>
</svg>
