<?xml version="1.0" standalone="no"?>
<!DOCTYPE svg PUBLIC "-//W3C//DTD SVG 20010904//EN"
 "http://www.w3.org/TR/2001/REC-SVG-20010904/DTD/svg10.dtd">
<svg version="1.0" xmlns="http://www.w3.org/2000/svg"
 width="1536.000000pt" height="860.000000pt" viewBox="0 0 1536.000000 860.000000"
 preserveAspectRatio="xMidYMid meet">
<metadata>
Created by potrace 1.16, written by Peter Selinger 2001-2019
</metadata>
<g transform="translate(0.000000,860.000000) scale(0.100000,-0.100000)"
fill="#000000" stroke="none">
<path d="M3500 8590 c-173 -9 -267 -22 -415 -56 -346 -79 -435 -97 -690 -133
-339 -49 -507 -67 -770 -81 -318 -17 -442 -39 -571 -101 -104 -49 -154 -104
-228 -248 -60 -118 -67 -146 -86 -371 -12 -130 -13 -135 -45 -172 -37 -44
-137 -233 -189 -359 -89 -217 -169 -629 -192 -989 -8 -135 4 -190 44 -190 34
0 152 78 185 122 33 43 86 153 123 252 32 88 70 136 106 136 57 0 184 -114
231 -206 14 -27 39 -95 56 -152 18 -57 41 -123 51 -146 10 -24 23 -85 29 -136
8 -59 18 -102 30 -119 14 -19 20 -49 23 -111 3 -76 8 -95 50 -185 54 -113 135
-339 179 -495 23 -84 32 -140 40 -280 15 -239 -1 -843 -23 -865 -3 -3 -44 30
-91 73 -89 85 -131 112 -170 112 -42 0 -215 -39 -247 -55 -16 -8 -64 -44 -107
-80 -120 -101 -139 -107 -421 -149 -119 -18 -183 -45 -265 -113 -69 -58 -100
-102 -121 -173 -20 -67 -20 -113 -1 -150 9 -17 17 -30 18 -30 2 0 130 -46 223
-80 28 -11 136 -31 240 -45 105 -13 214 -32 244 -41 63 -18 338 -154 485 -239
121 -70 296 -186 426 -282 341 -254 986 -620 1282 -728 317 -116 466 -128
1367 -112 584 11 749 -2 1199 -93 232 -48 366 -62 906 -95 624 -39 863 -64
1061 -111 156 -36 265 -51 544 -74 571 -46 1256 -148 2190 -326 294 -56 620
-137 815 -202 134 -45 250 -75 455 -117 673 -138 1162 -254 1602 -381 616
-179 742 -207 913 -208 136 -1 166 12 277 124 69 70 83 92 147 225 85 176 102
232 77 250 -16 12 -16 17 -1 74 12 48 13 70 5 108 -13 56 -35 93 -55 93 -13 0
-19 -22 -41 -145 -8 -43 -31 -75 -54 -75 -11 0 -20 2 -20 4 0 2 12 30 28 62
25 54 27 69 27 174 0 121 -13 172 -47 178 -13 2 -20 -16 -38 -95 -41 -178 -86
-263 -141 -263 -16 0 -29 4 -29 8 0 4 13 29 29 55 63 99 77 221 41 363 -21 81
-46 127 -72 132 -12 2 -16 -17 -21 -112 -6 -126 -20 -171 -76 -241 -64 -78
-112 -125 -132 -125 -18 0 -17 5 13 62 32 60 33 68 33 178 0 100 -3 121 -23
163 -40 79 -55 65 -67 -63 -4 -36 -15 -89 -25 -118 -19 -52 -103 -182 -119
-182 -5 0 -18 8 -30 18 -21 16 -21 22 -14 103 17 175 -14 337 -67 354 -28 9
-36 -3 -45 -64 -16 -120 -93 -302 -129 -309 -17 -4 -18 0 -12 39 17 111 19
214 3 251 -9 21 -20 38 -25 38 -6 0 -27 -42 -47 -92 -44 -111 -70 -155 -95
-163 -21 -7 -90 19 -90 34 0 6 9 34 21 63 38 97 35 271 -7 336 -21 31 -52 29
-59 -5 -21 -98 -91 -268 -133 -321 -16 -21 -24 -23 -64 -17 l-45 7 4 86 c5 89
-6 167 -22 167 -5 0 -30 -37 -55 -81 -69 -124 -63 -118 -96 -107 -28 9 -29 11
-31 89 -4 127 -56 262 -92 240 -6 -4 -15 -26 -21 -49 -38 -152 -72 -217 -113
-217 -22 0 -21 14 4 148 12 64 11 77 -2 100 -23 42 -45 39 -70 -10 -23 -46
-97 -148 -108 -148 -3 0 -6 55 -6 122 0 95 -4 134 -18 171 -18 45 -48 74 -66
63 -5 -3 -17 -38 -26 -78 -22 -92 -53 -178 -72 -200 -12 -13 -20 -15 -46 -6
-54 18 -58 27 -41 83 17 56 14 220 -6 287 -12 41 -36 71 -53 65 -12 -4 -14 -7
-60 -109 -19 -42 -58 -111 -87 -153 -57 -84 -46 -81 -146 -44 l-51 19 1 93 c1
75 -3 101 -21 140 -25 54 -56 62 -61 17 -4 -30 -49 -169 -61 -189 -7 -11 -26
-8 -104 18 -102 34 -107 39 -107 109 0 40 -21 92 -44 111 -24 20 -37 3 -56
-67 -15 -56 -16 -57 -50 -56 -19 0 -56 10 -81 21 -43 19 -46 24 -51 64 -11 89
-70 209 -103 209 -9 0 -21 -22 -30 -57 -37 -132 -39 -138 -62 -141 -29 -4 -53
33 -53 83 0 88 -42 163 -75 135 -8 -7 -20 -31 -25 -54 -17 -65 -32 -97 -44
-93 -6 2 -21 40 -32 84 -12 44 -29 92 -39 106 -17 26 -59 46 -71 34 -4 -3 -12
-40 -19 -83 -22 -127 -49 -127 -65 -1 -11 89 -23 117 -50 117 -24 0 -38 -26
-46 -85 -14 -97 -57 -92 -74 9 -12 73 -33 108 -63 104 -18 -2 -25 -14 -35 -58
-8 -30 -15 -56 -17 -58 -1 -2 -19 3 -38 12 -33 13 -36 18 -42 73 -3 32 -14 83
-23 113 -13 43 -21 55 -37 55 -18 0 -21 -10 -31 -83 -11 -86 -21 -107 -46 -97
-10 4 -17 25 -21 63 -9 85 -35 159 -67 195 -26 28 -30 30 -44 17 -8 -9 -19
-50 -24 -99 -6 -46 -14 -87 -19 -92 -12 -12 -87 -1 -108 15 -8 6 -19 35 -25
64 -12 64 -35 106 -67 123 -30 16 -43 4 -67 -64 -16 -43 -21 -48 -44 -45 -19
2 -31 12 -40 33 -22 51 -29 60 -46 63 -11 2 -20 -7 -27 -27 -15 -42 -24 -39
-39 13 -16 57 -46 106 -65 106 -16 0 -29 -24 -40 -73 -3 -15 -12 -30 -21 -34
-20 -7 -167 45 -316 113 -112 52 -215 93 -398 159 -109 40 -260 75 -365 84
-91 9 -109 14 -210 64 -119 59 -181 77 -441 131 -205 43 -346 82 -644 176
-280 88 -425 126 -705 184 -505 103 -1222 206 -2035 291 -304 32 -361 42 -240
44 760 8 1077 11 1285 11 255 -1 425 11 710 50 83 11 229 22 325 26 96 3 238
15 314 26 138 21 141 21 255 3 130 -20 325 -18 686 10 472 37 792 36 954 0 83
-19 96 -36 107 -129 9 -72 23 -93 52 -77 31 16 82 109 82 149 0 29 3 32 29 32
47 0 61 -30 61 -128 0 -92 11 -108 59 -81 39 22 101 117 101 155 0 26 4 33 26
37 65 12 134 -28 134 -78 0 -32 17 -75 30 -75 21 0 50 41 65 95 l16 55 85 0
c83 0 85 -1 95 -27 6 -16 9 -59 6 -97 -6 -87 -1 -106 28 -106 33 0 60 38 90
130 29 86 42 103 77 98 34 -5 49 -44 42 -109 -7 -64 6 -99 37 -99 27 0 127
102 135 138 3 15 8 34 10 43 4 16 58 32 69 21 10 -10 5 -82 -9 -124 -24 -73
-27 -98 -16 -118 39 -74 222 85 245 213 5 27 12 37 26 37 33 0 49 -42 55 -136
7 -119 11 -134 33 -134 25 0 76 59 91 105 7 20 13 70 14 111 l1 75 30 -3 c23
-2 34 -11 47 -38 25 -53 41 -146 40 -235 -1 -91 7 -107 47 -95 48 14 71 30
101 72 39 53 52 101 59 218 l6 95 36 3 c31 3 40 -2 58 -27 52 -72 56 -94 56
-301 0 -194 0 -195 22 -198 30 -4 112 78 147 146 32 64 63 185 71 284 14 161
45 78 44 -117 0 -71 -3 -159 -7 -195 -11 -95 -3 -124 32 -128 15 -2 41 2 57 8
46 19 134 123 175 205 31 63 39 92 47 175 10 91 12 100 31 100 46 0 65 -13 81
-53 14 -35 16 -65 10 -202 -7 -141 -6 -162 9 -174 23 -19 56 -8 115 39 91 72
118 122 145 265 l12 60 48 -2 c97 -3 90 9 110 -180 19 -182 27 -213 52 -213
22 0 76 58 98 104 20 43 36 131 36 202 0 45 3 52 23 58 35 9 85 7 92 -4 4 -6
15 -70 26 -142 23 -163 25 -168 54 -168 55 0 128 127 129 225 l1 60 47 3 c42
3 49 0 65 -24 15 -24 17 -47 15 -162 -3 -159 0 -172 36 -172 86 0 163 113 187
273 l7 47 43 0 43 0 12 -84 c6 -46 12 -114 13 -152 l2 -69 37 -3 c31 -3 44 3
78 34 57 52 100 139 100 204 0 44 3 50 24 56 58 14 103 -56 113 -177 7 -79 16
-89 63 -69 51 21 72 62 79 154 6 79 7 81 33 84 44 5 51 -27 47 -233 l-4 -180
36 -3 c98 -8 179 150 179 347 0 50 4 91 9 91 5 0 21 -4 36 -10 44 -17 57 -67
55 -205 -3 -152 -3 -152 16 -159 18 -7 45 6 96 47 55 44 70 85 77 212 l6 110
36 3 c35 3 36 2 42 -35 11 -61 8 -269 -3 -299 -14 -37 -1 -48 47 -39 50 9 104
67 134 142 19 48 22 76 21 156 l-1 97 25 0 c53 0 103 -86 149 -253 9 -32 23
-61 31 -64 48 -18 68 95 39 222 -9 42 -14 83 -11 91 3 8 19 14 41 14 19 0 35
-1 35 -3 0 -2 11 -36 25 -76 49 -140 76 -264 65 -301 -36 -127 46 -147 117
-28 58 95 62 199 12 314 -25 60 -24 66 9 62 23 -2 29 -10 40 -48 7 -25 27 -76
44 -115 81 -186 90 -216 96 -322 3 -74 8 -103 18 -103 26 0 74 54 106 118 32
65 33 69 32 197 0 87 -5 148 -16 185 -9 30 -13 58 -9 62 12 14 65 -8 85 -36
18 -24 21 -42 21 -134 0 -109 5 -132 30 -132 26 0 83 60 101 106 15 39 18 42
29 27 12 -17 14 -17 36 2 24 22 69 110 69 137 0 10 9 25 19 35 28 26 45 104
38 176 -36 395 -76 523 -247 777 -140 208 -257 335 -505 549 -422 365 -697
558 -1065 749 -376 196 -917 397 -1595 592 -405 116 -552 167 -1015 350 -466
184 -524 206 -805 305 -250 89 -712 257 -1015 370 -113 41 -297 117 -410 167
-225 99 -274 119 -463 184 -70 24 -270 103 -445 175 -373 155 -512 208 -722
277 -417 137 -664 180 -1265 222 -335 24 -393 30 -645 70 -221 35 -452 64
-690 86 -200 18 -749 26 -970 14z m2415 -674 c258 -41 400 -91 605 -212 157
-93 163 -96 289 -136 182 -57 215 -91 334 -338 77 -161 82 -166 199 -262 35
-28 48 -47 57 -85 26 -100 43 -140 96 -232 30 -53 61 -123 70 -156 25 -92 31
-352 11 -502 -9 -67 -16 -190 -16 -275 0 -96 -6 -179 -15 -223 -18 -85 -75
-206 -146 -311 -66 -98 -110 -146 -229 -249 -52 -46 -149 -133 -214 -194 -188
-175 -323 -258 -516 -319 -122 -38 -227 -56 -524 -87 l-241 -26 -650 11 c-889
14 -914 17 -1021 124 -158 158 -451 712 -533 1006 -58 208 -86 504 -77 795 7
233 23 384 71 660 69 392 98 445 285 523 41 17 149 67 240 110 510 247 838
348 1265 392 133 13 541 4 660 -14z m-3560 -881 c104 -22 187 -67 272 -148
131 -125 253 -334 323 -555 33 -105 52 -146 86 -192 57 -75 68 -109 99 -292
19 -113 31 -162 51 -195 19 -33 33 -87 54 -202 15 -86 44 -226 64 -311 78
-343 105 -569 87 -743 -11 -109 -31 -198 -58 -256 -23 -49 -119 -141 -177
-170 -75 -37 -263 -47 -606 -32 -334 14 -424 24 -468 54 -41 28 -86 96 -113
173 -29 84 -78 303 -91 412 -13 96 -13 98 34 492 6 49 8 223 5 415 -7 456 -16
497 -143 635 -74 81 -93 117 -124 240 -45 175 -20 256 136 436 52 60 104 130
116 157 20 40 29 49 68 62 108 35 271 44 385 20z m7178 -460 c184 -28 359
-101 558 -235 52 -35 195 -138 319 -230 124 -92 279 -205 344 -251 151 -106
261 -209 347 -324 36 -49 108 -135 159 -190 156 -167 198 -254 207 -425 9
-156 -28 -244 -121 -292 -36 -19 -64 -23 -226 -29 -198 -7 -223 -11 -550 -89
-356 -86 -351 -85 -740 -84 -266 0 -381 4 -500 18 -98 12 -276 21 -485 25
-372 8 -388 11 -454 86 -45 51 -54 77 -85 225 -63 309 -65 417 -12 696 13 71
27 161 31 199 13 138 66 313 129 425 64 114 201 248 313 307 32 17 101 43 153
58 52 14 127 44 166 66 39 21 88 43 110 48 61 14 229 12 337 -4z m3922 -909
c232 -77 475 -216 675 -384 132 -111 340 -325 389 -402 99 -153 94 -248 -19
-361 -103 -103 -199 -139 -377 -139 -80 0 -110 5 -186 31 -51 16 -113 35 -139
40 -27 6 -48 15 -48 21 0 6 -46 58 -103 117 -389 406 -674 876 -627 1033 28
95 224 115 435 44z m-1310 -855 c132 -58 211 -216 155 -308 -34 -57 -176 -111
-263 -101 -57 7 -257 87 -284 114 -33 33 -40 89 -17 132 25 48 110 139 145
158 73 37 185 40 264 5z m3049 -1303 c3 -13 6 -32 6 -42 0 -29 -17 -7 -25 32
-7 36 9 45 19 10z"/>
</g>
</svg>
