<?xml version="1.0" standalone="no"?>
<!DOCTYPE svg PUBLIC "-//W3C//DTD SVG 20010904//EN"
 "http://www.w3.org/TR/2001/REC-SVG-20010904/DTD/svg10.dtd">
<svg version="1.0" xmlns="http://www.w3.org/2000/svg"
 width="4398.000000pt" height="1666.000000pt" viewBox="0 0 4398.000000 1666.000000"
 preserveAspectRatio="xMidYMid meet">
<metadata>
Created by potrace 1.16, written by Peter Selinger 2001-2019
</metadata>
<g transform="translate(0.000000,1666.000000) scale(0.100000,-0.100000)"
fill="#000000" stroke="none">
<path d="M21584 16619 l-1662 -38 -1763 -321 -1764 -321 -825 -261 c-745 -235
-838 -262 -958 -279 -86 -13 -213 -42 -360 -84 -125 -35 -243 -67 -262 -70
-19 -3 -367 -91 -773 -196 l-738 -189 -580 40 -579 41 -559 259 -559 259 -494
141 c-271 78 -523 150 -560 161 l-68 20 80 119 80 119 -79 218 c-63 175 -83
217 -96 215 -9 -2 -253 -91 -542 -198 -498 -184 -555 -203 -1086 -355 l-560
-160 -479 -220 -479 -219 -421 -100 c-393 -94 -443 -108 -760 -220 l-339 -120
-599 40 -599 41 -480 -301 -481 -300 -380 -180 -380 -179 -473 -375 c-261
-206 -479 -381 -484 -388 -6 -7 -126 -271 -267 -586 l-257 -573 40 -557 41
-557 86 -257 c47 -142 89 -258 94 -258 5 0 37 85 71 190 35 104 66 186 70 182
4 -4 23 -65 43 -137 20 -71 41 -138 46 -148 6 -9 87 -202 180 -427 l170 -411
514 -592 c282 -326 522 -599 532 -608 11 -9 350 -215 755 -457 l736 -441 541
-171 541 -170 642 0 641 0 509 130 510 130 242 159 c134 87 252 163 263 169
12 6 180 60 375 121 272 84 357 107 365 98 7 -7 83 -115 169 -242 87 -126 161
-234 165 -238 7 -8 624 -107 665 -107 13 0 92 54 190 129 93 72 173 127 179
124 5 -4 77 -53 158 -110 l148 -104 325 303 c179 167 329 304 333 306 5 1 95
-85 201 -192 l192 -195 207 80 c114 45 212 83 218 85 6 3 43 59 83 124 40 66
74 120 76 120 2 0 9 -25 15 -57 11 -53 23 -69 251 -334 l239 -279 -80 -639
-80 -640 0 -510 0 -510 -237 -188 c-130 -104 -284 -226 -341 -273 l-105 -85
-171 -331 -171 -331 -141 -169 -141 -169 -202 -95 c-111 -52 -206 -99 -209
-105 -4 -5 -38 -102 -77 -214 l-70 -204 -235 -94 c-129 -51 -299 -114 -377
-139 -131 -41 -143 -47 -150 -72 -4 -16 -90 -113 -212 -241 l-206 -214 45 6
c25 4 122 14 216 23 l171 17 57 -42 56 -42 238 46 c130 25 245 47 255 49 26 6
35 13 -271 -220 l-277 -211 4 -114 3 -114 -111 -294 c-61 -162 -110 -298 -109
-303 2 -4 115 71 252 167 l249 174 43 -30 44 -30 372 324 c205 179 374 324
376 322 1 -1 -58 -106 -133 -233 l-135 -231 24 -63 23 -63 -53 -202 c-28 -112
-50 -203 -47 -203 3 0 68 60 145 133 l140 132 66 5 66 5 225 314 226 314 3
-287 2 -286 80 -40 80 -40 13 32 c7 18 29 75 48 125 19 51 36 93 39 93 3 0 27
-43 53 -96 l48 -96 78 71 79 71 6 148 c3 81 9 230 12 332 l6 184 89 118 c75
98 100 142 155 270 37 84 76 163 88 174 12 12 221 169 466 349 245 180 464
343 487 362 23 19 230 261 459 539 l416 505 39 232 c21 128 55 380 75 561 l35
328 110 387 c60 212 116 410 124 438 15 50 24 61 192 208 108 94 185 155 198
155 11 -1 71 -11 134 -24 l114 -24 396 -396 396 -397 605 -419 c333 -230 611
-429 617 -442 7 -13 78 -299 158 -636 l145 -613 250 -571 251 -570 -11 -278
-11 -277 70 -260 70 -261 21 -312 20 -312 -121 -129 c-67 -71 -131 -132 -143
-134 -11 -3 -90 -21 -175 -39 -148 -33 -170 -43 -171 -76 0 -8 -5 -32 -10 -52
l-11 -37 -187 -60 -188 -61 -94 -147 c-52 -81 -96 -150 -98 -155 -2 -4 52 -8
120 -8 121 0 125 1 277 51 169 57 171 56 171 -13 l0 -38 514 0 c282 0 534 3
561 6 l47 7 130 169 c72 92 133 167 134 165 2 -2 0 -78 -4 -170 l-7 -167 265
0 266 0 82 195 82 195 -64 287 c-36 158 -64 289 -62 291 2 1 79 -98 170 -221
l167 -224 131 -7 c72 -3 132 -5 134 -4 1 2 -42 107 -96 233 -54 127 -95 231
-90 233 5 2 62 -13 126 -32 65 -19 119 -34 121 -32 1 1 -7 51 -18 111 l-20
108 -219 237 -219 237 -11 234 -11 234 -99 416 -99 417 -71 893 -71 894 -178
545 -179 545 -70 55 c-39 30 -70 55 -69 57 1 1 99 -18 217 -43 l215 -44 1533
-100 c881 -58 1554 -98 1581 -94 l49 6 308 -252 c180 -146 524 -410 825 -631
283 -208 529 -396 546 -417 24 -29 48 -96 112 -306 l82 -268 -16 -77 c-8 -42
-27 -123 -40 -181 l-25 -105 45 -320 c25 -176 45 -335 45 -353 0 -82 -115
-426 -190 -571 -10 -20 -173 -252 -362 -516 l-344 -480 -115 -62 -114 -63 -61
-127 -60 -128 -530 -98 -529 -97 -499 -30 c-468 -28 -500 -31 -528 -52 -25
-17 -87 -29 -344 -67 l-314 -46 -120 -185 -119 -185 185 -3 186 -2 36 29 c35
27 44 29 147 32 l109 4 10 -33 9 -33 1916 7 1916 6 68 67 69 68 -76 256 -76
256 265 553 c250 521 414 842 493 968 27 42 545 763 596 828 5 8 27 174 48
370 l38 357 -62 100 c-34 55 -96 157 -138 226 l-76 126 -77 464 -77 464 144
495 143 495 214 47 c117 26 258 63 314 83 l100 37 851 14 852 14 598 -160
c330 -88 610 -165 623 -170 13 -6 125 -110 250 -231 l227 -220 262 -142 262
-142 322 -405 322 -404 149 -461 c136 -419 152 -477 180 -645 l32 -185 163
-59 c155 -57 165 -59 205 -48 23 6 69 19 102 28 l60 16 305 -167 c168 -92 310
-172 317 -178 7 -7 131 -196 275 -422 159 -247 272 -414 286 -420 14 -6 51
-65 104 -165 125 -237 97 -209 347 -358 l221 -133 115 7 c74 4 115 11 114 18
0 6 -37 63 -82 126 -75 104 -91 121 -170 173 l-87 57 0 103 0 103 60 59 60 59
-1 66 c-1 134 4 124 -304 625 -158 259 -300 482 -314 498 -23 26 -12 23 210
-52 186 -63 293 -107 521 -215 157 -75 296 -136 307 -136 16 0 424 76 509 95
20 5 15 14 -68 118 l-90 112 -126 -7 -126 -8 -64 47 c-35 26 -64 50 -64 54 0
4 8 21 17 37 l17 29 -135 194 -134 194 -262 140 c-145 77 -263 144 -263 149 0
5 13 30 28 55 16 25 59 94 95 153 66 107 66 107 34 93 -18 -7 -97 -43 -177
-78 -80 -36 -146 -64 -148 -62 -2 2 -12 36 -22 75 -10 40 -22 76 -27 80 -4 4
-108 41 -231 84 l-223 77 -261 -31 c-144 -16 -265 -27 -268 -23 -4 5 -83 143
-175 307 l-169 299 -224 551 -224 551 -91 448 -92 447 -249 204 -250 204 -165
7 c-91 4 -176 11 -189 16 -22 9 -396 339 -390 344 2 2 266 209 588 461 l585
459 628 637 628 637 122 40 c67 22 718 232 1447 466 1578 508 3650 1193 5503
1819 l1348 456 980 180 980 180 916 -50 c504 -28 917 -49 919 -48 3 4 -205
361 -219 374 -7 6 -131 58 -277 114 -447 172 -726 286 -1539 625 l-783 326
-1719 380 -1719 379 -1940 140 -1940 140 -1320 -160 -1319 -160 -1881 300
-1881 301 -1979 479 -1979 480 -118 -1 c-65 -1 -866 -19 -1779 -40z m-19721
-5189 l458 -50 295 -231 c275 -215 295 -233 290 -257 -3 -15 -24 -137 -46
-272 -22 -135 -43 -257 -46 -273 -5 -24 -23 -36 -142 -93 -75 -35 -147 -67
-159 -70 -17 -5 -39 7 -86 45 l-64 50 -341 31 -341 30 -232 110 -232 111 -297
289 c-200 194 -294 292 -286 298 76 58 217 125 472 222 159 60 291 109 294
110 3 0 211 -22 463 -50z"/>
</g>
</svg>
