<?xml version="1.0" standalone="no"?>
<!DOCTYPE svg PUBLIC "-//W3C//DTD SVG 20010904//EN"
 "http://www.w3.org/TR/2001/REC-SVG-20010904/DTD/svg10.dtd">
<svg version="1.0" xmlns="http://www.w3.org/2000/svg"
 width="4457.000000pt" height="2274.000000pt" viewBox="0 0 4457.000000 2274.000000"
 preserveAspectRatio="xMidYMid meet">
<metadata>
Created by potrace 1.16, written by Peter Selinger 2001-2019
</metadata>
<g transform="translate(0.000000,2274.000000) scale(0.100000,-0.100000)"
fill="#000000" stroke="none">
<path d="M2906 22628 c5 -9 276 -322 603 -697 326 -374 618 -713 649 -753 31
-40 216 -282 411 -538 195 -256 373 -490 397 -520 46 -60 70 -101 379 -660
114 -206 242 -438 285 -515 52 -91 86 -166 99 -215 11 -41 43 -154 71 -250 27
-96 50 -182 50 -191 0 -12 -33 -28 -116 -57 l-115 -42 -207 116 c-114 63 -216
125 -227 137 -11 12 -55 84 -98 158 -72 127 -105 168 -453 575 -207 242 -394
453 -417 470 -23 17 -152 109 -287 204 -273 193 -603 427 -755 535 -55 39
-192 120 -305 180 -113 59 -347 183 -520 275 -260 138 -336 174 -435 205 -66
20 -273 86 -460 145 -215 69 -462 138 -670 189 -181 45 -410 102 -508 127 -99
25 -181 44 -183 42 -2 -3 247 -87 554 -188 306 -101 658 -217 782 -258 323
-107 451 -160 665 -279 105 -58 341 -190 525 -293 l335 -187 540 -402 c297
-221 560 -421 585 -444 25 -23 184 -218 355 -432 254 -321 320 -411 372 -506
35 -64 63 -121 63 -126 0 -5 -59 -44 -131 -86 l-131 -78 -79 15 -78 15 -67 73
c-104 113 -245 250 -404 394 -115 104 -182 155 -325 246 -378 240 -336 219
-595 298 -129 40 -268 83 -308 96 -41 13 -126 33 -190 44 -64 12 -162 30 -217
40 -55 10 -154 28 -220 40 -167 29 -326 58 -415 75 -91 18 -187 30 -180 22 3
-2 158 -43 345 -90 187 -47 419 -106 515 -130 96 -25 247 -73 335 -107 88 -34
223 -86 300 -115 203 -77 388 -190 654 -400 194 -154 342 -294 432 -408 l22
-29 -109 -109 -110 -110 -79 -7 -80 -7 -218 128 c-188 111 -237 135 -360 177
-78 27 -281 96 -452 155 l-310 107 -235 5 c-129 3 -232 3 -229 -1 3 -4 80 -22
170 -41 148 -30 249 -61 507 -156 46 -17 210 -85 365 -150 251 -107 298 -131
428 -217 l147 -97 -49 -72 c-30 -44 -58 -75 -72 -78 -12 -3 -76 -18 -142 -33
l-120 -29 -50 42 c-43 36 -73 49 -215 93 l-165 52 -237 11 c-130 6 -242 9
-248 7 -6 -2 71 -18 172 -37 320 -58 305 -53 444 -131 71 -40 132 -75 136 -79
4 -3 -24 -54 -62 -113 l-69 -107 -77 -35 c-42 -20 -83 -36 -91 -36 -7 0 -36
11 -64 25 -40 21 -62 25 -106 23 l-56 -3 63 -49 c55 -43 60 -50 43 -57 -11 -4
-43 -37 -72 -73 -93 -117 -260 -234 -541 -380 -135 -70 -252 -135 -261 -144
-9 -10 -80 -119 -158 -245 l-141 -227 -124 -415 -123 -414 15 -67 c14 -63 16
-67 68 -100 30 -19 54 -36 54 -38 0 -2 -5 -18 -11 -35 -11 -32 -10 -34 56
-101 l68 -68 111 -7 111 -7 110 111 110 110 220 31 c217 30 224 32 581 145
l360 114 305 41 304 42 520 -7 520 -8 493 -218 493 -219 412 -348 411 -347
353 -448 353 -448 194 -517 c107 -285 262 -706 345 -936 145 -399 153 -428
205 -669 l54 -252 7 -294 7 -295 48 -122 48 -123 -95 -333 c-52 -183 -146
-533 -208 -777 -63 -244 -118 -447 -122 -451 -4 -4 -175 -86 -380 -183 -204
-97 -539 -266 -742 -376 l-371 -200 -362 -101 -361 -101 -107 -78 c-95 -70
-123 -85 -268 -139 -160 -60 -165 -61 -353 -82 -173 -18 -198 -23 -272 -56
-45 -19 -85 -39 -89 -42 -6 -6 87 -443 95 -447 1 -1 113 -103 249 -228 l246
-227 82 0 82 0 233 215 c129 118 244 219 257 225 13 5 177 52 364 104 l341 95
792 60 791 61 275 120 c152 66 278 120 280 120 3 0 -1 -12 -8 -27 -8 -16 -72
-209 -141 -430 l-127 -402 -222 -394 c-210 -373 -225 -401 -270 -543 l-49
-149 30 -305 30 -305 -60 -242 -60 -243 33 -51 c19 -29 37 -56 40 -61 3 -4
118 -31 256 -58 l251 -51 301 151 301 150 0 132 0 131 -83 111 c-46 61 -86
117 -91 123 -8 15 -97 331 -99 353 0 8 55 98 123 200 140 209 555 724 1037
1287 273 318 294 344 299 388 4 25 10 44 15 43 4 -2 298 -232 654 -511 l646
-508 1383 -549 c1338 -531 1390 -551 1612 -611 126 -33 230 -62 231 -63 2 -2
-22 -111 -53 -244 l-55 -242 90 -573 91 -572 149 -486 149 -487 61 -583 60
-584 -28 -120 c-16 -66 -43 -182 -61 -258 l-32 -138 -238 -159 -238 -159 -253
-30 -253 -31 -127 -126 -127 -127 -31 -121 c-16 -66 -29 -122 -27 -123 1 -1
50 16 110 37 102 38 113 40 225 40 116 0 120 -1 209 -40 l90 -40 960 0 960 0
5 22 c3 13 13 81 22 153 l16 130 -70 690 -70 690 20 325 20 325 79 420 c77
405 80 429 95 675 8 140 16 263 18 274 1 10 26 -38 55 -105 52 -122 58 -130
385 -559 183 -239 486 -622 673 -850 187 -228 343 -420 347 -427 9 -15 258
-832 260 -854 0 -8 -34 -63 -77 -122 -62 -85 -102 -127 -198 -207 -68 -57
-129 -100 -141 -100 -12 -1 -111 -9 -221 -20 -194 -18 -199 -19 -230 -47 -26
-25 -296 -264 -319 -283 -9 -8 1 -100 12 -119 5 -8 63 0 203 28 l196 40 128
-50 128 -49 606 0 605 0 325 138 325 137 83 163 83 163 -213 407 c-117 224
-337 660 -490 969 l-276 562 -101 623 -100 623 -121 279 c-66 154 -118 281
-116 284 3 2 35 -14 73 -36 l68 -40 465 -36 c256 -20 651 -55 878 -76 l413
-40 630 -340 631 -341 768 -669 768 -669 981 -580 981 -580 1030 -300 1030
-300 1062 -141 1063 -140 525 -25 525 -25 2312 0 2312 0 976 60 975 60 1222
265 1222 266 845 425 846 426 115 117 c63 64 385 363 715 664 l600 547 466
917 466 918 108 543 108 542 36 23 36 22 -27 3 c-22 3 -28 9 -28 26 0 29 9 37
168 136 72 45 132 84 132 85 0 2 -59 -12 -132 -31 -73 -18 -134 -32 -135 -30
-2 1 11 73 29 160 l31 157 114 71 c62 39 112 72 110 74 -1 2 -45 -3 -97 -11
-52 -8 -96 -13 -98 -11 -2 2 7 54 19 115 l22 111 71 1 71 1 -58 28 c-32 15
-61 31 -64 34 -3 3 4 56 15 118 12 62 25 149 29 193 l8 80 107 85 c59 47 113
91 119 97 10 10 -75 -5 -188 -34 -20 -4 -23 -1 -23 23 0 55 30 335 37 347 3 7
36 45 71 84 35 40 61 73 56 73 -5 0 -33 -9 -63 -20 -29 -12 -56 -19 -58 -16
-2 2 -1 25 2 50 6 36 27 72 104 178 53 73 107 149 121 168 26 38 31 42 -146
-107 -28 -24 -54 -43 -58 -43 -4 0 -5 12 -2 27 2 16 8 62 11 104 l6 75 209
109 c115 60 208 110 206 112 -1 1 -89 -22 -194 -52 -105 -30 -196 -55 -202
-55 -10 0 -9 19 6 146 l5 40 142 47 c78 25 126 44 107 42 -19 -2 -82 -7 -139
-11 l-104 -7 6 84 c6 72 33 238 40 245 1 1 85 34 187 74 201 78 232 92 185 85
-16 -3 -86 -12 -155 -20 -69 -8 -141 -18 -161 -21 l-37 -5 19 93 c10 51 21
103 24 114 4 19 20 25 127 45 134 26 131 36 -9 38 -109 2 -104 -7 -74 139 l26
126 225 57 225 58 -135 -5 c-74 -2 -172 -7 -218 -10 -82 -5 -83 -5 -77 18 3
13 11 54 19 91 8 37 15 69 17 71 2 2 67 19 144 38 l140 35 -127 7 -128 8 45
87 45 88 258 44 257 44 -233 3 -232 2 39 78 39 77 215 55 c119 30 215 56 213
57 -1 1 -84 -3 -184 -9 -100 -6 -185 -8 -188 -5 -4 3 5 27 20 53 14 25 26 48
26 50 0 2 -19 4 -42 4 -24 0 -48 4 -54 8 -6 4 -17 55 -24 115 -7 59 -16 107
-20 107 -3 0 -14 -68 -24 -152 -15 -132 -21 -160 -48 -210 -17 -33 -34 -55
-38 -51 -4 4 -48 77 -99 162 -50 85 -91 150 -91 145 0 -5 31 -102 69 -216 l69
-205 -46 -86 -46 -85 -128 120 c-70 66 -128 118 -128 115 0 -3 45 -80 100
-173 l100 -167 -36 -64 c-19 -35 -41 -81 -47 -102 l-12 -38 -175 68 c-96 38
-193 76 -215 85 -65 25 -32 3 175 -116 107 -62 197 -114 198 -116 5 -3 -29
-154 -34 -154 -3 0 -32 11 -66 25 -34 14 -66 25 -72 25 -6 0 20 -30 56 -67
l67 -68 -52 -232 -53 -233 -97 103 -97 102 86 -148 86 -147 -23 -120 c-13 -66
-27 -120 -31 -120 -3 0 -45 22 -93 50 -48 27 -90 50 -93 50 -4 0 37 -44 91
-98 l97 -97 -14 -179 c-8 -98 -17 -180 -19 -183 -3 -2 -86 37 -186 86 -100 50
-181 89 -181 88 0 -2 81 -71 180 -152 131 -107 180 -153 180 -169 0 -38 -20
-250 -24 -253 -2 -3 -50 19 -107 47 l-104 52 104 -105 103 -105 -21 -278 c-12
-153 -24 -280 -26 -282 -1 -2 -44 18 -95 43 -51 25 -94 45 -96 43 -2 -2 39
-46 91 -98 109 -108 106 -98 73 -250 l-21 -102 -206 8 c-113 3 -204 4 -201 1
3 -3 86 -28 185 -57 99 -29 184 -56 188 -60 6 -6 -58 -346 -68 -357 -1 -2 -57
17 -125 42 -67 25 -125 44 -127 42 -3 -4 193 -180 219 -198 9 -6 -53 -309 -63
-309 -6 0 -70 52 -324 259 -19 16 -19 16 0 -14 10 -16 79 -117 152 -223 73
-106 133 -202 133 -213 0 -20 -30 -161 -35 -167 -2 -2 -65 39 -142 91 -178
121 -175 119 -128 61 22 -27 84 -104 138 -170 53 -67 97 -129 97 -138 0 -19
-90 -439 -95 -444 -2 -2 -41 23 -87 55 -46 32 -90 63 -98 68 -18 10 -23 18 85
-118 76 -98 77 -100 71 -144 -6 -46 -169 -373 -185 -373 -5 0 -41 13 -81 30
-40 16 -78 30 -84 30 -6 0 21 -32 59 -70 l70 -71 -75 -144 c-41 -80 -78 -145
-81 -145 -3 0 -14 42 -25 93 l-19 92 -5 -150 -5 -150 -109 -205 c-60 -113
-111 -207 -112 -209 -2 -2 -49 38 -104 88 -55 51 -100 90 -100 87 0 -4 31 -66
70 -140 38 -73 70 -138 70 -144 0 -8 -190 -379 -205 -400 -1 -1 -49 23 -106
53 -57 30 -108 55 -112 55 -5 0 27 -38 70 -85 43 -47 79 -89 81 -93 1 -5 -44
-57 -101 -117 l-103 -109 -115 26 -114 26 69 -62 69 -62 -144 -119 c-79 -66
-152 -126 -162 -134 -16 -13 -23 -9 -73 40 l-54 53 26 -78 c15 -43 22 -81 18
-85 -40 -36 -435 -361 -439 -361 -3 0 -10 20 -16 45 -6 25 -15 43 -19 40 -4
-3 -11 -32 -15 -66 -8 -70 -12 -75 -141 -182 l-90 -75 -767 -346 -767 -345
-807 -170 c-919 -193 -861 -181 -1293 -260 l-325 -60 -990 -11 -990 -11 -1293
116 -1293 116 -1175 265 -1175 265 -875 280 -875 280 -725 390 -724 390 -603
507 -602 507 -350 466 c-192 257 -430 566 -528 688 l-177 221 -399 688 -399
688 -280 630 c-154 346 -447 990 -651 1431 l-371 803 -312 512 -312 513 -144
165 c-214 244 -199 229 -702 696 l-468 433 -798 494 c-440 272 -871 540 -959
595 -88 55 -348 215 -579 357 l-419 256 -272 254 -272 254 -388 161 -388 161
-227 210 -228 209 -294 40 c-161 22 -308 43 -326 47 -28 5 -58 35 -193 194
-88 104 -163 189 -167 189 -4 0 -124 -9 -267 -20 -143 -11 -261 -20 -262 -20
-1 0 -45 52 -98 116 -80 95 -101 115 -118 111 -12 -3 -101 -20 -197 -37 -96
-17 -185 -34 -198 -37 -19 -4 -43 15 -141 111 l-118 117 -222 -21 -223 -20
-103 55 -104 56 -210 -66 -210 -65 -152 36 -152 35 -238 -11 -238 -11 -129 95
-128 94 38 189 c20 103 37 193 37 198 0 12 -44 -82 -111 -237 l-50 -117 -46 5
c-26 2 -121 9 -212 14 l-165 10 -51 56 -50 57 27 111 c15 61 38 165 52 231 49
226 97 450 116 535 21 90 29 162 61 520 12 124 23 247 26 275 7 66 -4 52 -21
-27 -85 -388 -135 -598 -205 -843 -45 -159 -97 -346 -116 -415 -30 -109 -76
-225 -93 -234 -4 -2 -80 2 -171 10 -91 7 -173 13 -183 13 -13 1 -34 37 -77
127 l-59 126 19 56 c16 47 26 153 54 597 20 297 38 576 42 620 6 81 6 683 0
694 -2 3 -7 206 -11 451 -4 245 -11 452 -16 460 -5 10 -8 -4 -9 -40 0 -30 -11
-341 -25 -690 l-26 -635 -80 -640 c-43 -352 -84 -644 -89 -649 -10 -10 -389
38 -401 51 -4 5 -58 106 -119 226 l-112 218 11 197 c6 108 19 304 27 434 12
189 13 264 4 368 -16 191 -59 754 -91 1185 -20 275 -25 309 -91 645 -89 453
-177 883 -183 889 -8 7 -7 -2 20 -220 100 -800 113 -938 119 -1224 4 -148 8
-335 11 -415 3 -80 7 -221 10 -315 3 -93 8 -258 11 -365 5 -185 4 -209 -30
-470 -20 -151 -42 -321 -48 -377 -6 -57 -15 -103 -19 -103 -4 0 -112 16 -240
35 l-233 35 -192 188 -191 187 -2 75 c-4 194 -24 428 -56 646 -61 411 -84 565
-104 694 -19 121 -48 234 -131 512 -52 171 -98 330 -145 493 -20 72 -52 180
-70 240 -18 61 -51 173 -74 250 -22 77 -59 201 -81 276 -62 213 -131 450 -144
495 -12 46 -247 536 -254 530 -2 -3 14 -60 36 -128 71 -216 109 -349 146 -508
48 -211 115 -492 191 -815 35 -148 82 -349 105 -445 22 -96 65 -278 95 -405
30 -126 66 -311 80 -410 14 -99 50 -355 81 -570 54 -375 56 -396 50 -540 -3
-82 -6 -171 -6 -196 l0 -46 -142 -37 c-79 -20 -151 -39 -161 -42 -28 -9 -287
250 -287 286 0 14 -23 136 -50 270 -58 278 -144 693 -190 915 -36 175 -22 136
-386 1047 l-282 707 -387 648 c-447 747 -475 793 -481 793 -5 0 192 -389 411
-815 342 -665 333 -646 405 -845 65 -181 230 -633 250 -685 10 -27 37 -102 60
-165 48 -133 91 -250 149 -405 38 -103 74 -270 147 -685 8 -47 26 -141 39
-210 90 -463 89 -454 51 -458 -14 -1 -112 -15 -218 -32 l-193 -30 -64 64 -64
64 -143 393 -144 393 -372 621 -372 620 -461 595 -461 595 -445 440 c-768 760
-952 940 -943 923z"/>
</g>
</svg>
