<?xml version="1.0" standalone="no"?>
<!DOCTYPE svg PUBLIC "-//W3C//DTD SVG 20010904//EN"
 "http://www.w3.org/TR/2001/REC-SVG-20010904/DTD/svg10.dtd">
<svg version="1.0" xmlns="http://www.w3.org/2000/svg"
 width="4819.000000pt" height="1480.000000pt" viewBox="0 0 4819.000000 1480.000000"
 preserveAspectRatio="xMidYMid meet">
<metadata>
Created by potrace 1.16, written by Peter Selinger 2001-2019
</metadata>
<g transform="translate(0.000000,1480.000000) scale(0.100000,-0.100000)"
fill="#000000" stroke="none">
<path d="M2800 14329 c-707 -63 -773 -77 -1090 -233 -281 -138 -409 -216 -519
-315 -154 -138 -192 -161 -380 -235 -158 -63 -220 -92 -361 -174 -145 -83
-250 -154 -306 -208 -46 -44 -53 -57 -73 -130 -16 -61 -21 -109 -21 -200 0
-112 2 -122 30 -179 16 -33 30 -65 30 -71 0 -23 63 -96 107 -124 64 -41 115
-40 224 4 47 19 137 45 200 57 98 18 137 21 289 17 157 -4 183 -8 249 -31 41
-15 92 -27 114 -27 22 0 70 -12 106 -26 36 -15 109 -33 161 -41 52 -7 115 -20
140 -28 59 -19 210 -50 335 -69 88 -13 307 -68 381 -96 152 -58 460 -124 744
-160 91 -11 197 -25 235 -31 39 -6 131 -19 205 -30 270 -40 430 -93 590 -197
30 -20 159 -138 285 -262 267 -261 355 -336 700 -595 371 -278 592 -414 1050
-645 127 -64 304 -155 395 -203 223 -116 403 -198 531 -240 139 -47 219 -83
236 -106 7 -11 35 -24 64 -30 69 -15 87 -26 91 -58 4 -33 27 -43 35 -14 5 21
23 30 23 11 0 -5 29 -23 64 -40 35 -17 72 -40 81 -51 10 -10 22 -19 27 -19 13
0 108 -83 108 -94 0 -14 82 -86 96 -86 7 0 23 -19 36 -42 13 -23 37 -49 53
-58 17 -9 48 -42 70 -73 123 -174 167 -244 224 -357 35 -69 89 -156 121 -195
31 -38 71 -99 89 -135 18 -36 43 -78 55 -95 11 -16 33 -52 47 -80 14 -27 36
-55 49 -62 14 -7 42 -45 65 -90 25 -45 51 -82 64 -88 13 -5 34 -31 47 -57 13
-27 31 -48 40 -48 9 0 25 -22 38 -53 29 -64 48 -81 81 -73 18 5 32 0 52 -19
59 -53 110 -88 153 -108 25 -11 58 -30 73 -43 16 -13 39 -24 52 -24 15 0 33
-12 49 -33 32 -42 131 -111 149 -104 16 6 180 -49 242 -80 22 -12 63 -28 91
-36 29 -8 126 -45 216 -81 327 -131 635 -189 1073 -203 98 -3 189 -1 234 6 71
11 76 11 152 -19 43 -16 105 -43 136 -59 57 -29 173 -63 263 -76 25 -4 74 -22
109 -41 35 -19 106 -53 158 -74 95 -40 186 -97 202 -128 21 -40 51 -217 51
-300 0 -118 27 -518 42 -612 13 -85 13 -106 3 -170 -5 -33 -4 -41 4 -30 16 23
14 5 -18 -123 -15 -64 -26 -117 -23 -117 3 0 11 8 18 18 12 16 13 15 14 -9 0
-14 -11 -62 -24 -106 -28 -95 -50 -218 -44 -253 l5 -25 11 25 c11 22 12 19 7
-25 -2 -27 2 -93 10 -145 11 -74 12 -117 4 -193 -6 -57 -6 -104 -1 -110 25
-34 33 -98 22 -178 -10 -69 -9 -84 4 -98 11 -12 16 -45 18 -126 2 -108 2 -111
-34 -185 -33 -67 -37 -85 -40 -171 -2 -72 1 -100 11 -113 13 -15 12 -21 -1
-44 -8 -15 -13 -33 -11 -40 11 -31 -134 -235 -220 -309 -34 -30 -63 -58 -65
-64 -5 -14 54 -11 91 4 50 21 138 108 223 220 43 56 99 125 126 154 26 28 48
56 48 61 0 5 9 12 19 15 13 3 21 17 26 46 4 22 11 43 16 47 5 3 9 14 9 25 0
10 11 29 25 41 16 13 25 32 25 50 0 15 9 37 20 48 16 16 20 33 20 94 0 41 4
77 9 80 5 3 12 43 16 88 10 125 41 177 65 112 6 -14 18 -24 29 -24 25 0 74
-93 85 -160 4 -24 13 -58 20 -74 7 -17 18 -43 24 -58 7 -16 16 -28 22 -28 5 0
10 -18 10 -39 0 -22 5 -43 10 -46 5 -3 10 -21 10 -40 0 -19 6 -38 13 -42 21
-13 47 -78 47 -115 0 -24 8 -42 24 -57 14 -13 26 -33 28 -44 2 -11 12 -25 23
-31 11 -6 23 -15 27 -20 15 -22 58 -220 58 -271 0 -104 38 -51 61 86 10 60 10
92 1 147 -7 39 -12 99 -12 133 0 57 -22 136 -61 215 -6 11 -12 31 -13 45 -5
35 -23 80 -77 189 -15 31 -39 124 -39 151 0 6 5 7 10 4 17 -11 131 -168 142
-195 5 -14 18 -34 28 -45 10 -11 21 -35 25 -52 4 -20 13 -33 22 -33 19 0 89
-73 112 -119 11 -20 43 -56 73 -81 29 -24 101 -93 160 -152 100 -100 128 -122
128 -99 0 5 -17 35 -39 67 -102 155 -136 212 -149 249 -8 22 -20 47 -27 55 -7
8 -16 31 -20 52 -4 20 -19 48 -36 64 -16 15 -29 38 -29 51 0 30 -23 76 -65
128 -17 22 -38 56 -45 75 -8 19 -31 67 -52 105 -21 39 -38 76 -38 83 0 8 -16
50 -35 95 -45 103 -41 122 23 112 25 -4 60 -18 77 -31 37 -28 83 -32 92 -7 8
20 -80 193 -114 225 -27 25 -29 41 -8 58 12 10 20 8 41 -9 32 -25 69 -27 78
-5 8 22 -3 64 -25 93 -10 13 -38 80 -61 150 l-43 126 1 415 c1 365 21 805 39
870 2 8 11 96 20 195 18 197 18 198 85 201 19 1 157 5 305 9 232 7 280 6 341
-8 39 -9 128 -21 197 -26 70 -5 131 -12 135 -15 5 -3 67 -13 137 -21 71 -9
131 -18 134 -19 16 -10 308 -58 390 -64 l93 -7 43 -120 c65 -184 142 -371 194
-470 64 -123 242 -394 319 -485 34 -41 114 -147 177 -235 66 -92 168 -217 241
-295 186 -200 326 -378 454 -583 30 -48 91 -144 136 -215 127 -200 333 -567
375 -666 77 -185 99 -313 99 -582 0 -214 -12 -309 -60 -458 -17 -51 -30 -111
-30 -133 0 -40 -51 -210 -88 -293 -30 -68 -246 -343 -325 -413 -38 -34 -104
-93 -146 -132 -107 -97 -182 -149 -281 -196 -47 -22 -92 -44 -100 -50 -8 -5
-30 -16 -49 -25 -19 -9 -55 -31 -79 -50 -25 -19 -51 -34 -58 -34 -8 0 -14 -5
-14 -11 0 -15 -99 -109 -115 -109 -6 0 -27 -12 -46 -26 -19 -14 -65 -41 -104
-60 -38 -19 -99 -49 -135 -68 -36 -18 -135 -56 -220 -84 -429 -142 -630 -203
-704 -217 -280 -50 -297 -53 -335 -44 -23 5 -52 5 -72 -1 -19 -6 -54 -10 -79
-10 -117 -1 -318 -79 -402 -157 -42 -40 -78 -94 -78 -118 0 -16 59 -1 123 31
90 46 171 55 241 29 25 -10 46 -23 46 -29 0 -24 36 -96 48 -96 6 0 12 -4 12
-9 0 -4 11 -6 25 -3 21 3 25 0 25 -18 0 -17 5 -21 23 -18 13 1 44 -7 68 -19
24 -12 61 -24 82 -28 l38 -6 -21 -29 c-11 -15 -23 -42 -26 -59 -8 -40 7 -40
78 -2 29 15 86 41 126 56 l74 29 23 -31 c28 -35 82 -49 121 -31 20 9 27 9 33
-1 6 -10 14 -10 27 -3 14 7 29 6 53 -4 20 -8 38 -11 45 -5 11 9 34 14 137 31
31 5 67 13 80 19 14 5 36 7 50 4 16 -3 30 1 38 11 8 9 24 16 38 16 13 0 35 8
50 17 14 10 33 18 42 18 38 1 119 17 151 29 19 8 59 18 88 23 l54 10 -8 -26
c-11 -40 -10 -159 3 -172 8 -8 15 2 28 35 19 51 56 93 95 108 21 9 87 19 190
29 8 1 23 9 33 17 10 9 27 17 38 19 11 2 45 14 74 28 38 17 75 25 125 27 39 1
74 6 76 10 3 4 13 8 22 8 9 0 29 6 43 14 14 7 48 16 75 20 84 12 104 17 105
29 0 7 21 26 47 42 38 25 49 39 64 85 25 74 78 182 98 200 9 8 20 35 23 60 4
30 13 50 26 59 12 7 21 17 21 22 0 5 21 37 46 71 25 35 82 134 125 222 43 87
89 173 102 190 13 17 36 54 52 81 38 68 118 173 218 288 102 119 195 236 269
340 31 45 80 108 110 141 97 109 192 282 240 438 30 100 31 210 0 301 -35 106
-97 227 -144 284 -24 29 -55 69 -70 90 -15 21 -61 83 -102 138 -86 114 -165
254 -191 335 -10 30 -46 136 -80 236 -158 453 -191 633 -202 1094 -9 399 7
542 92 820 34 113 68 231 75 263 6 32 17 60 24 63 7 2 40 -8 73 -23 60 -27 63
-31 102 -108 22 -44 80 -129 128 -189 48 -61 124 -155 167 -210 44 -56 85
-105 92 -111 6 -5 36 -38 66 -72 103 -117 371 -312 578 -421 189 -100 313
-133 945 -252 28 -5 109 -19 181 -29 403 -61 748 -172 1129 -363 110 -55 236
-126 281 -157 124 -86 303 -225 304 -236 0 -5 26 -30 56 -55 68 -56 142 -134
259 -275 50 -60 128 -152 174 -204 155 -175 226 -281 326 -486 113 -233 132
-286 180 -495 20 -91 59 -241 86 -335 65 -225 73 -283 73 -525 1 -197 0 -206
-21 -237 -27 -37 -29 -53 -7 -53 12 0 14 -3 6 -12 -5 -7 -13 -44 -17 -83 -4
-38 -14 -79 -21 -90 -16 -23 -19 -85 -4 -85 16 0 11 -33 -10 -65 -18 -27 -18
-31 -3 -47 11 -12 14 -27 9 -53 -5 -23 -3 -42 4 -50 27 -33 -41 -218 -103
-283 -41 -43 -85 -65 -170 -86 -121 -30 -220 -44 -367 -51 -204 -9 -291 -22
-395 -57 -123 -42 -187 -76 -273 -142 -77 -61 -92 -80 -92 -121 0 -39 21 -40
91 -4 35 18 90 40 122 50 l57 17 0 -33 c0 -18 7 -38 15 -45 8 -7 14 -19 13
-28 -2 -9 13 -20 42 -31 25 -9 48 -20 52 -25 3 -5 19 -4 38 4 23 10 34 10 43
1 6 -6 25 -11 42 -11 17 0 35 -4 41 -10 6 -6 21 -6 42 -1 19 6 34 6 37 0 4 -5
17 -9 31 -9 24 0 24 -1 9 -30 -8 -16 -15 -38 -15 -50 0 -34 61 -26 143 18 51
27 71 33 75 24 17 -49 112 -97 187 -94 137 5 162 8 184 24 13 9 29 14 37 11 7
-2 23 2 35 11 16 11 26 12 35 5 9 -7 20 -6 37 6 13 8 32 13 41 9 10 -4 32 6
60 30 24 19 46 32 50 29 10 -11 160 -10 175 1 7 6 21 11 30 11 10 0 15 7 13
19 -2 13 1 17 11 13 7 -3 29 -2 48 2 28 6 35 12 39 36 4 22 15 35 39 47 46 23
49 27 56 76 2 24 12 57 21 74 9 17 17 47 19 67 2 20 5 43 9 51 22 58 36 111
34 131 -1 20 23 145 39 198 2 10 22 -5 58 -43 59 -61 104 -86 159 -86 l34 0
-57 58 c-45 45 -61 70 -78 122 -12 36 -29 82 -37 102 -16 38 -20 124 -7 168 5
17 2 37 -11 60 -10 19 -18 44 -18 56 0 13 -8 24 -19 27 -14 3 -22 20 -31 63
-6 33 -26 102 -45 154 -31 89 -62 238 -99 470 -8 52 -25 122 -36 155 -30 88
-49 210 -45 290 2 39 -1 84 -6 102 -6 17 -12 67 -14 110 -3 43 -6 94 -8 113
-1 19 1 50 4 68 4 17 3 32 -2 32 -5 0 -8 26 -6 58 1 42 6 57 17 58 8 1 18 2
22 3 4 0 -4 12 -17 26 -14 13 -25 32 -25 42 0 13 3 14 12 5 22 -22 30 -12 24
31 -4 23 -8 58 -10 77 -2 19 -9 51 -16 70 -32 87 -40 118 -40 143 0 15 -8 44
-19 65 -10 20 -26 73 -36 117 -25 118 -32 132 -120 222 -98 101 -234 189 -490
316 -184 92 -301 163 -391 239 -248 209 -670 618 -754 732 -40 55 -129 215
-238 427 -34 67 -42 91 -34 104 7 14 3 29 -19 64 -16 25 -27 53 -24 62 3 9 -4
33 -16 53 -11 19 -22 53 -23 73 -1 21 -22 80 -48 133 -25 52 -75 158 -111 235
-151 326 -245 467 -486 724 -22 24 -40 45 -39 46 121 97 566 328 758 394 257
88 372 131 510 186 172 69 353 136 500 184 202 66 736 286 877 361 39 21 82
40 95 42 13 2 27 13 33 25 10 23 82 56 112 51 13 -2 21 6 27 27 17 59 230 150
766 331 151 51 415 140 585 199 171 58 465 151 655 206 190 55 436 127 547
160 302 89 556 147 1103 253 272 53 596 117 720 141 124 24 326 63 450 85 124
23 335 70 470 105 297 78 432 104 750 150 135 19 308 44 385 55 77 12 223 32
325 45 295 38 506 71 639 99 303 64 638 101 1049 116 147 5 353 16 457 25 420
33 559 37 960 31 220 -4 470 -11 555 -16 85 -5 958 -10 1940 -11 1592 -2 1801
0 1931 15 81 8 262 20 404 26 141 6 260 12 264 15 4 2 97 9 207 14 109 6 255
18 324 26 69 8 238 20 375 26 252 11 492 37 750 83 77 14 199 32 270 41 367
44 461 60 640 105 218 56 445 101 625 125 220 28 298 42 655 119 193 42 415
96 495 120 197 61 280 81 477 115 92 16 214 41 270 55 56 13 137 29 180 36
145 20 485 101 588 139 92 34 453 126 670 171 217 45 678 157 1030 250 123 33
515 120 645 144 269 50 574 96 630 96 81 0 113 8 106 26 -4 11 13 14 89 14 57
0 95 4 95 10 0 6 -10 11 -22 11 -13 1 0 7 27 14 31 8 80 11 132 8 101 -7 136
4 78 24 -38 13 -36 13 50 8 50 -2 123 -8 163 -11 50 -5 72 -4 72 4 0 6 -15 16
-32 21 -24 7 22 9 160 10 184 1 288 13 276 32 -3 5 -80 9 -172 9 -112 0 -162
4 -152 10 8 5 30 10 48 10 17 0 32 4 32 9 0 5 -39 12 -87 16 -118 9 -127 15
-23 14 117 -1 130 0 130 10 0 11 -100 31 -154 31 -23 0 -104 -9 -181 -20 -169
-24 -156 -24 -148 -3 6 15 -3 16 -98 10 -57 -3 -149 -15 -203 -26 -55 -11
-101 -19 -103 -17 -1 1 22 10 52 20 31 9 53 21 51 25 -8 12 -123 -6 -215 -35
-45 -14 -86 -23 -89 -20 -3 3 0 6 6 6 7 0 12 5 12 10 0 15 -55 12 -160 -10
-109 -23 -111 -23 -87 -9 9 5 17 14 17 19 0 15 -32 12 -96 -10 -78 -27 -326
-92 -331 -86 -2 2 26 14 63 26 90 30 174 69 174 81 0 12 -9 12 -66 -6 -30 -9
-50 -11 -52 -5 -7 21 -65 8 -198 -46 -107 -43 -170 -61 -274 -79 -74 -13 -135
-23 -137 -21 -2 1 33 17 77 35 75 32 100 51 64 51 -9 0 -89 -23 -177 -50 -89
-28 -191 -59 -227 -70 l-65 -20 55 50 c30 27 50 49 44 50 -7 0 -51 -25 -99
-55 -94 -59 -108 -64 -98 -39 5 13 0 13 -33 -4 -21 -11 -48 -29 -58 -41 -11
-12 -28 -21 -40 -21 -16 0 -6 13 44 59 36 32 62 62 58 66 -3 4 -32 -12 -63
-36 -30 -23 -66 -43 -78 -44 -12 -2 -74 -26 -137 -54 -63 -28 -118 -51 -124
-51 -5 0 26 26 70 58 43 32 85 66 93 75 24 29 3 31 -38 4 -23 -16 -42 -22 -48
-16 -5 5 -43 -8 -98 -36 -50 -25 -91 -45 -92 -45 -2 0 20 21 47 47 28 26 50
51 50 55 0 22 -38 2 -114 -59 -148 -120 -271 -178 -427 -201 -53 -8 -56 -7
-51 11 5 18 -1 17 -50 -11 -63 -36 -70 -38 -62 -17 10 24 -8 18 -133 -44 -121
-61 -379 -155 -410 -149 -9 2 21 16 67 32 47 17 99 38 116 48 17 10 91 41 165
69 74 27 138 54 143 59 40 40 -100 3 -329 -86 -172 -66 -365 -124 -330 -98 11
8 46 24 77 36 32 11 58 25 58 29 0 17 -50 9 -132 -21 -45 -16 -84 -26 -87 -21
-3 5 -20 12 -37 15 -36 8 -102 -7 -279 -63 -66 -21 -176 -55 -245 -76 -69 -20
-156 -50 -194 -66 -100 -42 -94 -27 8 20 47 22 86 44 86 50 0 11 -34 -1 -176
-62 -55 -24 -85 -32 -92 -25 -7 7 -36 3 -88 -11 -140 -37 -134 -37 -90 2 42
37 37 55 -10 30 -40 -22 -163 -53 -181 -46 -15 6 -106 -10 -158 -29 -16 -5
-70 -25 -119 -44 -103 -40 -106 -40 -75 -15 36 29 15 37 -44 18 -29 -9 -66
-19 -83 -22 -36 -7 -311 -115 -429 -169 -44 -20 -72 -30 -63 -23 10 8 18 19
18 25 0 9 216 155 245 166 6 2 7 7 3 11 -9 10 -92 -26 -171 -74 -34 -20 -89
-44 -122 -53 -33 -9 -68 -20 -78 -23 -13 -6 -16 -3 -10 10 7 19 -4 19 -81 -1
-21 -5 -25 -3 -20 10 9 24 -23 20 -116 -14 l-82 -30 47 52 c26 29 42 54 36 56
-7 2 -37 -15 -67 -39 -44 -34 -75 -48 -144 -65 -49 -12 -152 -48 -230 -79 -78
-31 -144 -54 -146 -52 -2 2 48 26 113 53 108 46 150 74 106 74 -10 0 -56 -14
-103 -30 -46 -17 -95 -30 -107 -30 -13 0 -79 -18 -147 -40 -140 -45 -136 -45
-136 -26 0 9 26 22 69 35 37 11 74 28 81 36 11 14 6 15 -46 9 -32 -4 -95 -18
-139 -32 -46 -14 -110 -26 -150 -27 -110 -4 -244 -23 -315 -45 -78 -24 -81
-24 -73 -4 4 12 0 14 -18 10 -164 -37 -182 -39 -140 -16 20 10 30 40 14 40 -5
0 -28 -6 -53 -14 -25 -8 -67 -19 -93 -25 -27 -6 -83 -31 -125 -56 -82 -48
-105 -56 -79 -27 28 31 20 32 -38 6 -30 -14 -65 -24 -77 -22 -15 2 16 16 81
39 58 19 107 41 109 48 7 22 -75 5 -224 -45 -137 -46 -218 -61 -104 -19 36 13
77 26 93 29 15 4 27 10 27 15 0 17 -31 21 -82 10 -39 -9 -53 -9 -56 0 -5 16
-65 13 -172 -9 -114 -24 -111 -24 -104 -5 4 8 5 15 3 15 -2 0 -60 -18 -129
-40 -69 -22 -141 -39 -160 -39 -33 0 -31 2 43 40 42 21 77 44 77 49 0 15 -13
12 -72 -11 -32 -13 -72 -21 -99 -20 -25 1 -110 -8 -188 -19 -79 -12 -146 -19
-149 -16 -3 3 4 6 15 6 11 0 26 6 32 14 7 8 38 17 69 21 74 8 142 25 142 36 0
5 -43 9 -95 9 -57 0 -95 4 -95 10 0 6 -22 8 -57 5 -49 -5 -54 -4 -35 6 53 28
9 37 -92 18 -81 -15 -93 -5 -18 16 115 33 58 48 -73 19 -38 -8 -83 -17 -100
-20 l-30 -5 33 18 c17 9 32 20 32 25 0 12 -58 9 -125 -7 -76 -19 -98 -18 -62
1 29 16 36 34 13 34 -8 0 -68 -16 -133 -37 -123 -37 -131 -39 -378 -46 -108
-3 -140 -2 -115 5 66 19 63 17 50 33 -16 20 -114 20 -199 0 -35 -9 -66 -14
-68 -11 -2 2 64 37 146 77 83 41 151 77 151 81 0 24 -123 -11 -262 -75 -58
-27 -86 -34 -111 -30 -21 3 -64 -4 -116 -20 l-82 -26 45 40 c25 23 46 45 46
50 0 18 -28 8 -70 -25 -24 -19 -50 -32 -60 -29 -9 2 -56 -5 -104 -16 -114 -27
-117 -26 -21 10 81 30 104 44 92 56 -8 7 -248 -60 -315 -88 -24 -11 -48 -19
-53 -19 -16 0 -9 29 9 34 79 25 353 88 422 97 141 18 150 20 150 29 0 14 -86
23 -153 16 -88 -10 -271 -50 -416 -92 -68 -19 -140 -34 -159 -32 -32 3 -27 6
51 32 48 15 87 32 87 36 0 15 -33 20 -70 10 -21 -6 -45 -8 -53 -4 -9 3 -59 -6
-112 -21 -53 -14 -102 -24 -108 -22 -11 4 30 18 199 67 68 19 118 50 81 50
-36 0 -250 -52 -344 -84 -97 -33 -102 -33 -118 -16 -15 16 -14 18 10 24 14 4
25 11 25 16 0 18 -58 10 -143 -20 -47 -16 -100 -30 -119 -29 -26 0 -14 7 62
35 94 35 129 54 98 54 -22 0 -109 -17 -133 -26 -18 -7 -18 -6 -6 9 18 23 13
22 -71 -16 -73 -34 -148 -53 -148 -38 0 4 18 16 40 26 22 10 40 22 40 27 0 15
-57 8 -105 -12 -59 -25 -74 -25 -44 0 31 26 9 25 -42 -1 -60 -30 -58 -16 3 21
69 43 50 48 -43 11 -66 -26 -91 -30 -226 -36 -107 -4 -153 -3 -153 4 0 6 -11
11 -25 11 -17 0 -23 4 -19 15 9 22 -31 28 -160 24 -92 -3 -113 -2 -108 9 4 11
-8 13 -64 7 -66 -7 -68 -7 -54 10 14 17 10 18 -109 11 -105 -6 -125 -4 -135 9
-10 13 -25 14 -111 6 -55 -6 -161 -15 -235 -21 -74 -6 -153 -13 -175 -15 -65
-8 -11 11 72 25 85 14 195 51 201 68 5 16 -10 15 -123 -8 -53 -11 -129 -20
-169 -20 -39 0 -134 -7 -211 -15 -172 -18 -223 -17 -130 1 39 8 136 17 217 20
141 7 181 14 164 31 -18 19 -957 33 -1166 18 -52 -4 -60 -3 -40 6 23 10 24 11
7 24 -10 7 -26 11 -35 9 -210 -44 -296 -52 -392 -35 -34 7 -15 9 85 10 128 2
130 2 108 20 -18 15 -46 20 -130 25 -60 4 -131 11 -158 17 -44 10 -73 7 -218
-21 -175 -33 -261 -37 -122 -6 85 19 135 40 135 56 0 6 -1 10 -2 10 -2 0 -68
-13 -149 -29 -182 -37 -323 -53 -419 -49 l-75 3 75 18 c84 19 183 33 344 47
59 6 113 13 119 17 16 10 -22 21 -78 23 -37 2 -44 4 -26 9 14 4 26 11 28 18 9
27 -109 30 -240 7 -49 -8 -94 -13 -100 -10 -7 2 -2 5 10 5 30 1 37 17 10 25
-43 11 -103 6 -202 -19 -55 -14 -131 -32 -170 -39 -38 -8 -83 -17 -100 -21
-26 -5 -25 -3 12 17 102 56 193 110 198 119 18 28 -37 16 -133 -29 -100 -47
-116 -52 -246 -67 -113 -13 -140 -14 -147 -3 -9 14 -30 10 -209 -37 -111 -29
-150 -31 -150 -10 0 23 -26 19 -161 -25 -68 -21 -125 -37 -127 -36 -2 2 21 12
50 21 29 10 78 28 109 41 31 13 96 28 145 34 126 17 136 19 128 32 -5 7 -43 9
-123 5 -111 -6 -204 -23 -450 -83 -102 -24 -146 -27 -77 -4 19 6 40 18 48 27
12 15 8 16 -44 10 -49 -6 -57 -5 -52 8 9 22 -9 19 -158 -22 -123 -35 -144 -38
-283 -40 l-150 -2 106 19 c111 20 324 84 334 100 8 14 1 13 -110 -10 -99 -20
-291 -28 -281 -11 3 5 35 14 70 21 36 7 73 19 83 27 16 13 10 14 -53 9 -39 -2
-99 -12 -135 -21 -53 -14 -76 -15 -138 -6 -41 6 -76 13 -78 14 -6 6 123 47
187 61 43 8 65 18 65 27 0 31 -240 1 -390 -48 -27 -9 -81 -17 -120 -18 -38 -2
-127 -8 -197 -14 -117 -11 -135 -10 -230 10 -98 20 -121 21 -473 15 -203 -3
-440 -8 -525 -11 l-155 -4 130 23 c72 13 148 28 170 34 22 5 52 13 68 16 37 9
37 40 0 32 -16 -2 -73 -10 -128 -16 -55 -6 -174 -23 -265 -37 -153 -23 -181
-24 -381 -17 -190 6 -216 9 -215 23 1 14 -20 16 -177 19 -142 2 -182 6 -194
17 -11 12 -44 15 -152 15 -78 0 -141 4 -147 10 -10 10 -274 24 -684 36 -125 4
-270 2 -370 -5 -141 -10 -181 -9 -268 4 -120 18 -312 19 -612 4 -238 -12 -259
-10 -713 61 -107 17 -267 34 -375 40 -196 11 -427 34 -747 75 -104 13 -251 30
-325 36 -74 6 -157 15 -185 20 -27 5 -219 14 -425 19 -380 9 -480 17 -625 46
-120 25 -1496 33 -1674 10 -66 -9 -177 -16 -248 -16 -70 0 -177 -7 -238 -15
-282 -39 -408 -46 -965 -55 -622 -10 -1006 -34 -1345 -86 -55 -8 -174 -19
-265 -24 -91 -4 -214 -13 -275 -19 -131 -13 -329 -29 -515 -41 -74 -6 -218
-21 -320 -35 -158 -21 -224 -25 -450 -25 -170 0 -303 -5 -371 -15 -59 -7 -185
-16 -280 -20 -426 -15 -740 -56 -1189 -155 -96 -21 -251 -48 -345 -60 -159
-20 -229 -31 -590 -94 -222 -38 -490 -111 -765 -208 -303 -106 -357 -116 -710
-124 -622 -16 -1189 117 -1725 404 -132 70 -350 205 -405 251 -14 11 -46 35
-71 53 -162 114 -661 591 -794 758 -33 41 -92 111 -131 156 -39 44 -95 114
-126 155 -31 41 -97 119 -148 174 -51 55 -111 123 -132 150 -22 28 -162 173
-311 324 -237 238 -286 283 -377 342 -58 37 -143 94 -190 127 -129 89 -346
164 -775 268 -386 93 -723 127 -1005 103z m43950 -2165 c-69 -22 -174 -43
-140 -27 23 10 183 51 200 51 8 0 -19 -11 -60 -24z m-23517 -461 c-13 -2 -33
-2 -45 0 -13 2 -3 4 22 4 25 0 35 -2 23 -4z m20022 -125 c-16 -6 -77 -28 -134
-49 -58 -21 -106 -37 -109 -35 -12 13 203 95 248 95 24 -1 23 -1 -5 -11z
m-12835 -68 c-19 -4 -53 -10 -75 -13 l-40 -6 40 14 c22 7 56 13 75 13 l35 0
-35 -8z m-640 -67 c-58 -25 -226 -56 -208 -38 9 9 192 54 218 54 22 -1 21 -2
-10 -16z m277 -19 c-3 -3 -12 -4 -19 -1 -8 3 -5 6 6 6 11 1 17 -2 13 -5z m-40
-10 c-3 -3 -12 -4 -19 -1 -8 3 -5 6 6 6 11 1 17 -2 13 -5z m12038 -90 c-21
-16 -205 -77 -212 -71 -4 5 205 85 222 86 6 0 1 -6 -10 -15z m-9740 -5 c-22
-4 -83 -10 -135 -13 l-95 -5 85 13 c47 7 108 13 135 13 l50 1 -40 -9z m9275
-84 c-14 -8 -29 -14 -35 -14 -5 0 1 6 15 14 14 8 30 14 35 14 6 0 -1 -6 -15
-14z m-7953 -11 c-3 -3 -12 -4 -19 -1 -8 3 -5 6 6 6 11 1 17 -2 13 -5z m341
-51 c-10 -2 -28 -2 -40 0 -13 2 -5 4 17 4 22 1 32 -1 23 -4z m6962 -78 c0 -9
-74 -42 -110 -50 -49 -10 -36 -1 40 29 77 29 70 27 70 21z m-430 -20 c-14 -8
-32 -14 -40 -14 -8 0 -1 7 15 14 39 18 57 18 25 0z m-4670 -80 c0 -10 -91 -45
-117 -45 -48 0 -28 9 115 49 1 1 2 -1 2 -4z m200 1 c0 -8 -140 -59 -145 -54
-3 3 25 17 62 31 69 26 83 30 83 23z m3629 -10 c-12 -12 -173 -66 -196 -66
-39 0 -26 7 78 39 88 28 128 37 118 27z m-2106 -113 c-7 -2 -19 -2 -25 0 -7 3
-2 5 12 5 14 0 19 -2 13 -5z m277 -3 c-34 -11 -60 -11 -35 0 11 5 29 8 40 8
16 0 15 -2 -5 -8z"/>
</g>
</svg>
