<?xml version="1.0" standalone="no"?>
<!DOCTYPE svg PUBLIC "-//W3C//DTD SVG 20010904//EN"
 "http://www.w3.org/TR/2001/REC-SVG-20010904/DTD/svg10.dtd">
<svg version="1.0" xmlns="http://www.w3.org/2000/svg"
 width="4615.000000pt" height="1346.000000pt" viewBox="0 0 4615.000000 1346.000000"
 preserveAspectRatio="xMidYMid meet">
<metadata>
Created by potrace 1.16, written by Peter Selinger 2001-2019
</metadata>
<g transform="translate(0.000000,1346.000000) scale(0.100000,-0.100000)"
fill="#000000" stroke="none">
<path d="M1320 13440 c-296 -18 -546 -136 -906 -428 -171 -138 -235 -221 -279
-359 -71 -228 -115 -383 -120 -423 -13 -100 30 -141 89 -86 107 99 395 300
419 290 38 -14 49 -134 22 -239 -8 -33 -53 -136 -100 -230 -73 -149 -165 -343
-165 -350 0 -6 38 -18 80 -25 59 -10 140 5 220 42 36 16 93 36 126 43 69 15
113 36 212 99 154 100 245 127 422 130 127 1 116 6 489 -223 698 -429 725
-448 1426 -961 1399 -1024 2685 -1786 3981 -2358 452 -200 1630 -688 2049
-850 116 -45 315 -122 444 -172 252 -97 328 -135 414 -205 70 -57 171 -189
213 -281 55 -117 248 -859 279 -1066 16 -115 47 -213 100 -318 84 -167 117
-324 179 -845 77 -643 100 -970 101 -1415 l0 -305 -47 -130 c-298 -832 -408
-1095 -575 -1376 -172 -289 -204 -382 -238 -689 -19 -176 -42 -264 -102 -394
-40 -86 -47 -109 -47 -167 -1 -81 16 -106 78 -113 22 -3 246 -10 496 -16 429
-11 455 -10 467 6 20 27 15 97 -13 202 -42 154 -30 195 100 341 102 113 126
157 216 391 128 333 251 546 565 975 228 312 285 409 319 541 8 32 27 172 41
309 14 138 43 374 65 525 22 151 46 329 54 395 20 152 76 643 76 658 0 63 157
-347 340 -888 102 -301 145 -456 155 -560 4 -38 29 -212 56 -385 122 -778 133
-916 107 -1339 -9 -151 -9 -234 1 -380 16 -241 8 -284 -85 -469 -61 -121 -67
-138 -68 -197 -1 -54 3 -68 22 -87 l23 -23 432 -3 c462 -4 568 1 592 25 22 22
19 97 -11 219 -32 134 -28 208 23 374 82 264 91 378 53 665 -48 367 -47 507
10 1100 31 325 37 511 19 611 -6 32 -30 133 -55 224 -57 213 -84 344 -139 658
-25 141 -68 371 -96 510 -28 140 -48 256 -46 259 3 2 101 -12 219 -31 239 -41
456 -67 758 -93 255 -22 1107 -25 1405 -5 672 45 1089 91 1325 146 36 9 68 16
73 16 4 0 7 -78 7 -172 0 -165 -12 -357 -46 -713 -41 -441 -28 -699 76 -1441
83 -588 77 -747 -37 -1099 -51 -158 -86 -240 -142 -335 -22 -36 -46 -88 -56
-117 -21 -66 -66 -107 -142 -129 -47 -14 -78 -15 -173 -9 -235 15 -340 1 -477
-65 -111 -54 -225 -161 -276 -258 -47 -91 -77 -192 -77 -263 0 -55 2 -60 27
-70 30 -11 101 10 123 37 18 20 34 17 45 -8 6 -14 20 -24 35 -26 25 -3 33 2
150 93 42 32 149 75 189 75 16 0 40 -45 51 -99 3 -13 12 -27 20 -31 95 -47 41
-44 895 -52 558 -6 808 -5 826 3 46 18 54 48 54 208 0 80 -2 216 -4 301 -5
215 5 699 18 850 35 403 81 567 309 1100 153 361 258 659 307 870 9 41 19 82
21 90 3 8 30 -35 61 -95 89 -176 250 -437 555 -901 163 -248 246 -385 288
-477 112 -249 227 -740 217 -932 -2 -49 0 -116 6 -148 11 -68 -3 -134 -37
-166 -43 -41 -73 -45 -281 -46 -193 0 -203 -1 -275 -27 -91 -34 -196 -104
-256 -172 -84 -95 -159 -282 -152 -378 2 -36 7 -44 29 -52 36 -12 67 -3 129
39 l52 35 24 -25 c30 -33 50 -28 124 31 62 51 164 104 197 104 17 0 29 -13 48
-50 36 -72 92 -124 148 -140 90 -25 400 6 557 55 226 71 402 195 652 458 195
205 278 288 396 397 84 77 100 107 87 157 -4 18 -72 93 -184 203 l-177 176
-101 204 c-107 217 -198 445 -257 647 -61 213 -91 400 -121 768 -34 417 -70
719 -117 985 -28 152 -31 196 -31 340 1 91 11 255 22 365 28 268 110 829 122
839 2 1 85 29 184 60 346 111 797 289 1245 491 118 53 259 115 315 136 55 22
109 44 120 49 71 31 285 93 413 119 178 36 504 84 717 105 413 42 718 50 1338
37 789 -18 1274 -50 2222 -151 853 -91 1157 -112 2045 -147 551 -22 1728 -24
2040 -5 887 55 1403 142 2275 381 1026 281 1515 384 2455 520 834 121 1340
170 2305 222 348 19 457 21 1010 15 940 -9 1262 -22 1803 -77 1374 -138 2539
-427 3492 -866 444 -204 724 -379 918 -571 130 -130 164 -147 196 -100 48 68
-15 175 -194 334 -357 318 -1190 723 -1983 963 -734 223 -1477 374 -2337 475
-477 57 -825 83 -1485 111 -198 8 -470 20 -605 26 -399 17 -1630 23 -2060 10
-678 -20 -1386 -69 -2215 -152 -426 -42 -657 -71 -1175 -144 -958 -136 -1277
-159 -1825 -136 -949 41 -1829 189 -2820 474 -870 251 -1656 575 -3145 1297
-892 433 -1439 664 -2185 926 -615 216 -1050 334 -1940 524 -1801 385 -2209
440 -3315 440 -343 0 -1609 -23 -1950 -35 -85 -3 -281 -10 -435 -15 -1442 -52
-2327 -148 -4145 -450 -787 -130 -1267 -196 -1628 -221 -255 -18 -918 -6
-1162 20 -1089 119 -2096 357 -3125 741 -620 231 -1664 685 -2910 1265 -209
97 -542 247 -740 332 -470 203 -738 326 -779 357 -25 19 -37 39 -50 89 -22 79
-92 203 -148 259 -87 87 -179 105 -448 88z"/>
</g>
</svg>
