<?xml version="1.0" standalone="no"?>
<!DOCTYPE svg PUBLIC "-//W3C//DTD SVG 20010904//EN"
 "http://www.w3.org/TR/2001/REC-SVG-20010904/DTD/svg10.dtd">
<svg version="1.0" xmlns="http://www.w3.org/2000/svg"
 width="4750.000000pt" height="1479.000000pt" viewBox="0 0 4750.000000 1479.000000"
 preserveAspectRatio="xMidYMid meet">
<metadata>
Created by potrace 1.16, written by Peter Selinger 2001-2019
</metadata>
<g transform="translate(0.000000,1479.000000) scale(0.100000,-0.100000)"
fill="#000000" stroke="none">
<path d="M1265 14747 c-33 -18 -76 -44 -95 -59 -43 -33 -85 -49 -105 -42 -19
8 -19 51 0 84 37 64 9 53 -84 -35 -91 -85 -125 -96 -136 -45 -4 17 -10 30 -13
30 -4 0 -29 -24 -57 -54 l-50 -53 -132 -33 c-211 -51 -285 -96 -339 -202 -14
-27 -74 -199 -135 -381 -97 -296 -109 -339 -109 -403 0 -57 5 -81 28 -125 32
-63 61 -80 136 -81 86 -1 141 24 256 117 112 91 242 162 384 210 106 36 314
46 455 21 421 -74 897 -470 1650 -1372 286 -342 480 -601 876 -1169 408 -585
512 -745 1032 -1588 683 -1109 878 -1397 1269 -1887 248 -309 433 -513 661
-726 262 -245 462 -403 793 -626 502 -339 850 -532 1480 -818 733 -334 843
-397 932 -532 19 -29 63 -119 97 -200 83 -193 138 -284 371 -603 l29 -40 -19
-250 c-23 -318 -36 -995 -21 -1165 10 -120 9 -133 -24 -350 -46 -301 -87 -625
-130 -1035 -20 -187 -40 -378 -45 -425 -6 -47 -7 -140 -4 -206 5 -83 1 -193
-12 -346 -16 -201 -16 -229 -3 -264 13 -35 19 -40 59 -46 59 -9 326 -10 413
-1 104 9 103 7 88 261 -23 397 -24 479 -7 611 17 129 123 646 181 881 84 346
167 661 190 725 13 39 41 169 61 290 20 121 37 221 38 223 2 1 34 -69 71 -155
37 -87 96 -216 130 -288 l63 -130 37 -270 c48 -358 105 -709 161 -985 75 -368
89 -573 58 -851 -19 -173 -16 -271 9 -296 16 -16 43 -18 267 -18 226 0 251 2
267 18 16 16 18 35 15 175 -4 250 -31 674 -52 827 -32 222 -70 723 -81 1055
-18 558 -23 617 -64 785 -20 83 -57 221 -81 308 -25 88 -44 161 -42 163 3 2
44 -12 94 -32 190 -74 484 -158 729 -208 486 -98 1072 -119 1740 -60 340 29
541 57 804 109 96 20 176 34 178 32 1 -2 -6 -51 -18 -108 -16 -75 -20 -125
-16 -179 3 -45 48 -251 112 -515 58 -242 115 -485 126 -540 33 -167 51 -696
29 -875 -15 -121 -45 -177 -154 -286 -217 -218 -261 -279 -286 -401 -24 -112
3 -287 46 -300 6 -2 19 15 29 37 14 31 22 39 36 35 15 -5 20 1 25 34 5 30 17
50 45 76 46 41 85 45 135 14 19 -11 34 -16 34 -10 0 6 12 14 28 17 15 4 53 17
84 30 32 13 124 35 205 48 81 14 171 30 198 36 28 6 98 20 157 31 220 40 226
52 147 329 -62 219 -74 333 -73 710 1 299 4 339 28 500 38 251 54 380 61 500
21 368 39 517 72 584 15 31 30 56 33 56 3 0 11 -12 17 -27 6 -16 28 -66 47
-113 32 -77 43 -118 78 -290 6 -30 43 -129 83 -220 103 -233 329 -781 359
-870 13 -41 41 -154 61 -250 19 -96 58 -270 85 -387 28 -116 50 -217 50 -225
0 -27 -76 -94 -121 -107 -24 -7 -66 -24 -92 -37 -27 -13 -75 -28 -109 -34 -33
-5 -90 -23 -125 -39 -114 -54 -232 -197 -250 -304 -10 -64 -1 -70 61 -36 l56
31 0 -24 c0 -46 14 -49 50 -12 63 67 117 72 169 15 59 -64 75 -66 516 -65 468
0 517 4 558 46 l30 29 -6 117 c-7 146 -53 388 -112 597 -104 364 -134 577
-145 1045 -5 201 -11 374 -14 385 -3 11 -13 99 -21 196 -9 96 -24 222 -35 278
-11 56 -20 126 -20 155 0 78 84 983 92 991 7 8 615 197 718 224 63 17 157 38
208 47 65 12 102 24 121 40 21 17 31 20 45 12 20 -11 30 -10 201 27 189 41
267 47 475 35 584 -33 927 -77 1615 -209 1020 -195 1213 -215 2365 -241 245
-6 621 -15 835 -21 651 -17 939 -1 2060 117 789 82 1024 117 1903 279 772 142
831 151 1652 249 740 89 951 112 1180 130 974 77 2485 61 3450 -35 773 -77
1163 -162 1975 -434 763 -255 1112 -353 1475 -414 704 -119 1454 -107 2200 35
432 82 757 172 1165 322 308 113 429 141 661 149 404 15 767 -106 1088 -363
186 -150 313 -297 441 -514 129 -219 170 -282 251 -383 106 -133 287 -306 403
-385 304 -209 670 -273 1030 -181 42 11 159 50 261 88 241 89 482 168 589 192
117 26 296 35 401 20 361 -53 602 -232 676 -502 26 -94 24 -259 -4 -372 -12
-49 -22 -94 -22 -100 0 -7 16 -17 35 -23 31 -10 35 -9 35 7 0 31 12 49 32 49
16 0 18 5 13 33 -7 36 14 65 36 51 9 -5 10 -2 4 12 -18 43 -17 62 5 84 16 16
19 25 11 33 -6 6 -11 24 -11 39 0 22 5 28 22 28 l21 0 -21 23 c-29 31 -30 87
-2 87 26 0 25 3 -11 39 -35 36 -36 70 -1 87 23 11 23 12 -20 35 -55 31 -64 70
-22 92 l28 15 -48 13 c-62 18 -80 43 -48 69 12 10 22 20 22 23 0 2 -21 7 -46
10 -25 2 -53 12 -61 20 -14 14 -13 18 11 42 14 14 26 29 26 32 0 3 -21 3 -46
0 -86 -9 -110 13 -68 63 29 34 24 36 -52 21 -74 -14 -104 16 -68 67 24 35 10
38 -51 13 -62 -26 -105 -22 -105 8 0 10 7 35 15 55 8 20 12 36 9 36 -4 0 -32
-16 -64 -35 -94 -57 -125 -44 -97 40 9 25 12 45 6 45 -5 0 -36 -20 -70 -45
-34 -25 -70 -45 -80 -45 -16 0 -43 31 -35 41 8 9 14 79 7 79 -4 0 -33 -25 -63
-55 -30 -30 -62 -55 -71 -55 -30 0 -47 30 -47 81 0 27 -4 49 -9 49 -5 0 -30
-29 -56 -65 -73 -103 -116 -100 -130 11 -3 30 -11 52 -15 49 -5 -3 -28 -41
-51 -85 -57 -110 -99 -118 -115 -21 -13 82 -22 79 -60 -25 -19 -53 -34 -79
-50 -86 -36 -17 -51 -3 -65 57 -7 31 -17 54 -23 52 -6 -2 -23 -37 -38 -77 -28
-77 -39 -90 -75 -90 -22 0 -26 7 -47 103 -10 44 -28 27 -55 -55 -27 -80 -45
-108 -67 -108 -17 0 -40 44 -49 93 -4 21 -12 36 -19 34 -6 -2 -25 -43 -43 -92
-28 -79 -44 -104 -65 -105 -9 0 -28 59 -28 89 0 14 -5 33 -10 41 -9 13 -11 13
-20 0 -5 -8 -17 -35 -26 -60 -38 -105 -35 -101 -63 -98 -26 3 -26 4 -23 75 2
46 -1 73 -7 73 -6 0 -35 -36 -63 -80 -35 -52 -59 -80 -72 -80 -17 0 -18 6 -13
58 4 31 10 69 13 84 10 44 -11 35 -84 -36 -71 -67 -99 -86 -119 -79 -18 7 -16
41 6 106 11 31 16 59 12 62 -10 6 -46 -21 -113 -82 -49 -44 -55 -47 -82 -37
-24 9 -19 35 19 99 20 32 33 60 31 63 -10 9 -53 -8 -119 -48 -38 -23 -75 -39
-83 -36 -27 10 -15 53 31 104 25 27 45 53 45 56 0 12 -47 5 -136 -21 -76 -22
-96 -24 -108 -14 -22 18 -7 45 57 103 71 63 60 71 -73 52 -58 -8 -115 -12
-128 -9 -40 10 -23 45 45 95 34 25 62 51 63 58 0 15 -57 16 -148 2 -76 -11
-112 1 -112 37 0 24 53 65 121 93 16 7 28 18 26 24 -5 16 -50 23 -153 25 -69
1 -95 5 -104 16 -19 23 18 57 96 92 99 43 91 49 -106 83 -85 15 -100 24 -100
61 0 24 8 35 45 58 25 16 59 34 75 41 17 7 30 18 30 25 0 14 -33 19 -175 31
-90 7 -115 17 -115 43 0 20 57 76 108 107 18 10 32 25 32 33 0 12 -21 13 -134
8 -121 -6 -136 -5 -157 11 -33 28 -19 61 51 122 38 33 58 56 52 62 -6 6 -58 1
-135 -12 -140 -23 -167 -19 -167 26 0 32 13 57 58 112 53 66 34 70 -105 23
-70 -24 -128 -38 -141 -34 -40 10 -39 50 3 130 21 40 35 76 32 80 -4 3 -57
-17 -117 -47 -180 -87 -209 -68 -144 94 28 71 28 66 8 66 -16 0 -82 -42 -149
-96 -49 -39 -78 -48 -105 -34 -25 13 -26 56 -5 126 31 103 17 107 -80 23 -113
-99 -156 -118 -185 -84 -12 15 -7 134 7 171 3 8 -1 14 -10 14 -8 0 -52 -40
-98 -90 -46 -50 -90 -90 -100 -90 -29 0 -41 35 -38 115 2 41 0 77 -4 81 -10
11 -35 -14 -85 -85 -63 -92 -92 -121 -118 -121 -29 0 -44 43 -44 126 0 35 -4
64 -10 64 -17 0 -44 -37 -99 -133 -29 -51 -62 -99 -73 -106 -43 -27 -71 7 -87
107 -4 29 -13 58 -19 64 -16 16 -46 -39 -82 -148 -17 -51 -39 -99 -49 -108
-45 -41 -74 -2 -94 125 -7 46 -18 84 -24 86 -23 8 -82 -168 -83 -247 0 -63
-65 -95 -89 -44 -6 14 -17 68 -23 120 -7 58 -17 94 -24 94 -18 0 -63 -110 -84
-207 -11 -53 -26 -92 -36 -100 -41 -30 -70 29 -82 167 -4 43 -12 75 -19 77
-18 6 -61 -86 -89 -195 -28 -105 -37 -122 -64 -122 -26 0 -40 49 -46 155 -7
116 -9 122 -33 101 -29 -27 -73 -125 -95 -216 -19 -75 -24 -86 -48 -94 -15 -5
-31 -7 -34 -3 -12 11 -23 91 -24 164 0 75 -6 103 -21 103 -19 0 -81 -114 -110
-202 -16 -51 -37 -100 -45 -108 -14 -13 -17 -13 -29 4 -24 32 -28 80 -16 183
14 121 5 136 -46 78 -33 -39 -90 -147 -129 -250 -16 -41 -24 -50 -44 -50 -31
0 -40 37 -29 126 5 35 11 88 15 116 6 44 4 53 -9 53 -28 0 -98 -94 -154 -208
-30 -62 -62 -116 -70 -119 -42 -16 -48 71 -14 204 12 45 21 86 21 92 0 52
-137 -91 -199 -207 -47 -88 -72 -112 -97 -91 -21 17 -17 64 15 189 35 134 28
143 -53 80 -55 -42 -103 -98 -171 -203 -36 -56 -67 -76 -100 -63 -23 8 -19 71
11 172 38 129 39 134 19 134 -42 0 -135 -85 -217 -198 -64 -88 -95 -110 -130
-91 -18 10 -20 18 -15 68 2 31 21 98 41 150 41 105 42 111 21 111 -50 0 -146
-76 -246 -196 -77 -92 -99 -109 -135 -100 -18 5 -24 13 -24 34 0 31 49 135
109 231 60 96 44 103 -87 40 -68 -33 -104 -60 -187 -140 -90 -86 -108 -99
-138 -99 -92 0 -66 71 91 248 96 108 85 126 -51 77 -91 -32 -164 -76 -251
-154 -84 -75 -124 -95 -161 -81 -56 21 -20 93 116 231 44 45 78 86 76 92 -6
18 -69 11 -148 -17 -72 -25 -156 -72 -267 -151 -68 -49 -117 -58 -146 -29 -20
19 -20 27 0 67 27 52 76 107 162 182 90 77 103 105 49 105 -54 0 -186 -38
-257 -73 -36 -18 -104 -59 -152 -91 -101 -68 -157 -82 -197 -49 -39 32 -22 66
82 168 51 50 111 107 135 128 24 20 41 41 37 47 -16 26 -186 -6 -294 -55 -31
-14 -98 -54 -150 -88 -79 -52 -102 -62 -138 -62 -60 0 -90 30 -74 76 16 47 70
108 182 205 140 123 132 147 -34 104 -119 -30 -209 -72 -331 -154 -95 -64
-118 -76 -153 -76 -104 0 -85 87 59 269 128 162 129 164 118 175 -23 23 -206
-51 -313 -127 -34 -25 -84 -65 -112 -89 -81 -73 -123 -98 -166 -98 -43 0 -79
27 -79 59 0 34 69 156 150 263 44 58 80 114 80 122 0 26 -37 19 -136 -28 -119
-57 -164 -88 -279 -196 -106 -99 -150 -122 -190 -96 -14 9 -25 25 -25 34 0 45
40 125 127 255 121 182 118 196 -26 127 -115 -56 -161 -89 -281 -206 -138
-133 -167 -147 -211 -103 -53 53 24 215 200 418 54 62 79 97 72 104 -14 14
-91 -7 -188 -53 -143 -67 -218 -128 -341 -275 -85 -102 -114 -125 -158 -125
-49 0 -79 30 -77 76 4 89 63 202 188 357 99 123 101 140 13 112 -162 -54 -316
-163 -424 -301 -114 -146 -134 -164 -186 -164 -82 0 -99 55 -53 176 32 84 67
142 163 267 107 139 82 149 -119 45 -132 -67 -230 -160 -352 -332 -57 -80 -99
-104 -153 -86 -99 33 -29 224 172 471 35 43 64 85 64 94 0 24 -38 18 -124 -20
-177 -77 -288 -166 -412 -331 -95 -126 -120 -148 -170 -148 -48 0 -67 23 -67
78 2 108 75 257 225 455 26 35 45 67 42 72 -11 18 -53 8 -140 -35 -168 -83
-281 -185 -405 -368 -86 -128 -108 -148 -154 -148 -54 0 -69 19 -63 80 7 75
79 209 198 370 55 74 100 140 100 146 0 31 -49 20 -161 -36 -154 -78 -282
-190 -427 -373 -46 -59 -97 -114 -113 -122 -37 -20 -103 -19 -123 1 -44 44 17
184 177 406 126 175 133 186 118 201 -21 21 -192 -62 -317 -157 -77 -57 -212
-198 -292 -304 -35 -45 -73 -89 -86 -97 -61 -40 -138 -26 -156 29 -25 77 33
220 174 429 47 71 86 132 86 138 0 34 -158 -32 -275 -116 -93 -66 -213 -198
-283 -312 -72 -117 -109 -153 -156 -153 -51 0 -76 24 -76 74 0 90 53 213 170
396 37 58 72 115 79 127 32 61 -7 70 -102 22 -196 -99 -350 -243 -461 -432
-38 -65 -82 -129 -98 -142 -36 -31 -95 -33 -129 -6 -19 15 -22 27 -21 74 2 94
43 195 147 367 73 120 97 169 90 180 -26 41 -244 -82 -374 -210 -77 -77 -123
-141 -197 -274 -59 -106 -91 -136 -144 -136 -57 0 -82 25 -82 82 0 87 26 162
120 352 51 104 91 195 88 202 -8 20 -30 17 -89 -12 -184 -93 -331 -245 -441
-453 -28 -51 -62 -106 -76 -121 -35 -38 -100 -55 -146 -40 -54 18 -68 48 -61
133 7 82 31 156 111 345 32 72 56 140 54 150 -14 68 -252 -100 -378 -267 -28
-36 -73 -111 -102 -166 -96 -188 -123 -215 -210 -215 -66 0 -83 26 -75 113 8
81 30 143 116 323 39 83 71 157 71 167 0 55 -166 -31 -292 -151 -98 -94 -147
-161 -229 -317 -72 -135 -104 -165 -174 -165 -62 0 -78 17 -83 86 -6 83 27
209 99 383 70 168 78 198 56 207 -23 8 -127 -50 -205 -115 -122 -104 -199
-215 -278 -408 -53 -127 -68 -148 -119 -168 -48 -19 -87 -9 -106 26 -28 54 12
248 100 479 54 140 60 167 36 176 -20 8 -103 -40 -180 -103 -118 -97 -205
-229 -287 -433 -47 -118 -88 -170 -134 -170 -35 0 -47 8 -64 39 -26 51 14 239
104 482 30 79 51 149 49 156 -19 49 -186 -57 -299 -189 -57 -66 -114 -162
-160 -270 -70 -164 -97 -198 -157 -198 -35 0 -66 27 -73 65 -15 82 40 279 137
484 32 69 56 128 53 133 -33 53 -274 -148 -387 -322 -30 -47 -77 -130 -105
-185 -55 -109 -80 -142 -117 -151 -120 -30 -101 169 47 479 55 115 68 151 58
157 -46 29 -265 -154 -367 -305 -22 -33 -69 -113 -104 -178 -44 -83 -71 -123
-91 -133 -37 -19 -52 -18 -73 6 -17 19 -17 27 -7 95 14 90 65 227 133 353 27
51 49 99 49 107 0 55 -168 -54 -283 -182 -60 -68 -95 -121 -152 -228 -27 -49
-57 -100 -68 -112 -47 -53 -105 -9 -94 71 9 63 32 126 98 265 67 141 66 162
-4 122 -122 -70 -222 -169 -322 -321 -69 -106 -92 -122 -144 -104 -24 9 -26
14 -25 69 1 66 30 133 125 291 27 45 49 89 49 98 0 65 -207 -66 -341 -215
-151 -169 -163 -179 -201 -179 -22 0 -41 7 -53 20 -34 38 -4 118 107 288 70
107 69 129 -4 96 -85 -38 -165 -98 -278 -209 -130 -127 -160 -141 -228 -108
-72 35 -53 117 61 262 33 42 65 82 70 89 7 9 7 16 -1 24 -15 15 -144 -33 -220
-81 -31 -21 -100 -78 -153 -128 -100 -94 -134 -112 -181 -94 -68 26 -34 122
97 281 70 86 61 97 -49 56 -92 -35 -139 -68 -248 -173 -92 -89 -99 -94 -135
-91 l-38 3 1 47 c0 51 33 110 113 202 76 87 43 98 -97 31 -54 -26 -96 -57
-161 -119 -92 -88 -126 -106 -167 -87 -49 22 -27 75 75 176 102 100 95 118
-31 86 -83 -22 -145 -50 -239 -111 -69 -44 -98 -49 -123 -21 -16 17 -16 22 -2
56 9 20 48 70 87 110 83 86 83 100 -2 91 -77 -8 -156 -36 -240 -86 -75 -45
-125 -52 -152 -22 -26 29 -20 63 23 135 56 92 54 101 -17 94 -32 -4 -111 -25
-176 -47 -127 -44 -171 -46 -209 -8 -24 24 -18 61 24 135 26 46 28 54 14 59
-27 10 -92 -4 -190 -42 -105 -41 -167 -42 -198 -4 -21 26 -17 55 21 123 22 41
24 49 11 57 -21 13 -61 2 -245 -67 -70 -26 -165 3 -165 50 0 12 9 41 19 64 11
23 17 44 13 47 -12 13 -73 5 -156 -19 -107 -31 -168 -33 -196 -5 -25 25 -25
34 0 89 11 23 17 47 14 52 -10 17 -54 9 -164 -27 -97 -32 -113 -34 -144 -24
-40 13 -45 27 -32 93 14 75 5 77 -125 33 -160 -55 -211 -40 -190 56 16 70 4
73 -123 27 -79 -29 -91 -31 -126 -20 -51 15 -63 38 -51 93 5 23 8 46 5 50 -10
16 -57 7 -124 -22 -76 -33 -121 -38 -144 -14 -21 20 -20 32 5 100 16 43 18 58
9 64 -18 11 -87 -7 -169 -45 -140 -66 -185 -33 -126 93 14 30 25 59 25 64 0
23 -96 -1 -184 -46 -175 -89 -233 -50 -161 106 13 28 22 55 19 60 -16 25 -107
-8 -263 -97 -51 -29 -93 -32 -115 -9 -30 29 -13 87 58 198 61 96 45 107 -70
52 -41 -19 -108 -66 -159 -110 -81 -69 -93 -76 -131 -76 -98 0 -96 63 6 237
27 46 47 89 44 94 -23 38 -170 -39 -287 -150 -99 -95 -123 -111 -159 -111 -86
0 -56 105 81 291 39 53 71 102 71 108 0 20 -45 11 -118 -24 -107 -51 -156 -88
-264 -197 -84 -86 -100 -98 -130 -98 -98 0 -72 108 72 299 80 106 92 126 83
135 -13 13 -41 5 -123 -35 -113 -54 -187 -109 -294 -218 -97 -98 -130 -114
-171 -87 -19 12 -25 25 -25 51 0 45 59 157 143 271 37 51 67 99 67 108 0 26
-36 19 -123 -24 -111 -54 -204 -126 -289 -224 -89 -102 -106 -116 -143 -116
-47 0 -60 14 -58 61 2 50 46 145 136 293 37 60 64 113 61 117 -15 25 -81 -2
-189 -74 -84 -57 -156 -127 -242 -234 -41 -51 -87 -100 -103 -108 -70 -36
-117 -5 -106 69 14 90 85 202 235 367 45 50 79 94 76 100 -12 18 -59 8 -142
-31 -164 -77 -308 -203 -422 -369 -67 -98 -92 -121 -132 -121 -75 0 -80 111
-11 252 23 46 82 137 131 203 50 66 91 126 91 133 0 22 -47 13 -116 -23 -177
-93 -301 -222 -454 -476 -43 -70 -112 -90 -149 -43 -55 70 6 249 166 487 95
142 98 163 21 132 -169 -67 -371 -278 -493 -513 -45 -86 -83 -122 -130 -122
-46 0 -65 29 -65 100 0 115 56 257 183 463 37 59 67 114 67 122 0 59 -213 -81
-331 -216 -89 -102 -140 -177 -204 -298 -32 -62 -71 -126 -87 -141 -57 -58
-130 -45 -144 24 -19 103 69 294 240 521 42 55 76 105 76 112 0 25 -23 24 -85
-6 -205 -95 -419 -314 -540 -550 -63 -123 -101 -161 -162 -161 -52 0 -73 29
-73 98 0 112 49 238 170 438 44 74 78 139 74 145 -19 31 -144 -44 -263 -156
-112 -107 -189 -212 -276 -377 -75 -142 -109 -177 -161 -164 -39 10 -50 46
-36 125 21 123 97 276 225 455 31 43 57 85 57 92 0 59 -231 -84 -356 -219 -74
-80 -128 -153 -214 -292 -77 -124 -111 -159 -169 -175 -168 -45 -123 198 91
497 58 82 66 97 49 107 -27 17 -188 -83 -290 -179 -82 -78 -138 -149 -217
-279 -69 -112 -108 -153 -155 -166 -161 -43 -131 166 61 435 38 54 70 102 70
107 0 26 -82 -6 -170 -65 -125 -85 -207 -176 -314 -349 -74 -118 -107 -148
-170 -155 -63 -8 -80 13 -74 92 7 79 40 148 134 277 74 100 75 103 50 106 -27
4 -140 -49 -213 -100 -74 -50 -165 -146 -242 -256 -77 -110 -119 -142 -185
-142 -93 0 -89 83 14 282 38 76 70 142 70 148 0 21 -48 9 -110 -28 -83 -47
-232 -195 -298 -293 -63 -94 -92 -119 -143 -119 -92 0 -91 66 5 256 36 72 66
136 66 142 0 43 -134 -35 -250 -145 -48 -46 -111 -114 -140 -152 -60 -79 -105
-108 -148 -93 -20 6 -28 16 -30 40 -4 40 22 90 103 195 98 129 87 142 -62 72
-99 -46 -153 -85 -253 -181 -47 -45 -95 -84 -107 -88 -33 -10 -63 10 -63 42 0
35 25 75 105 167 81 92 81 112 3 89 -87 -26 -200 -91 -288 -165 -88 -74 -117
-87 -159 -73 -56 20 -36 96 58 213 58 72 56 91 -6 71 -75 -24 -169 -81 -246
-150 -85 -74 -120 -89 -164 -68 -59 28 -41 80 71 208 31 36 56 69 56 74 0 18
-85 -4 -166 -43 -47 -22 -120 -68 -163 -101 -66 -51 -84 -60 -119 -60 -31 0
-44 5 -52 19 -17 33 5 68 100 166 118 120 118 130 -4 99 -82 -21 -207 -83
-281 -139 -69 -52 -96 -62 -131 -46 -53 24 -13 90 106 176 126 91 138 103 120
115 -19 14 -122 4 -218 -21 -40 -10 -121 -43 -179 -74 -59 -30 -117 -55 -128
-55 -29 0 -65 28 -65 51 0 35 76 103 200 178 66 40 119 78 117 85 -6 18 -114
19 -212 1 -50 -9 -129 -32 -175 -51 -183 -77 -187 -78 -220 -64 -83 35 0 124
217 233 114 58 109 77 -24 77 -109 0 -208 -20 -339 -69 -123 -47 -156 -50
-178 -20 -32 46 34 104 222 198 61 30 102 57 99 64 -5 18 -81 27 -167 21 -100
-8 -144 -17 -277 -60 -100 -33 -116 -35 -142 -24 -41 17 -49 45 -21 75 44 47
194 102 327 120 92 12 78 34 -42 65 -96 24 -249 27 -362 5 -138 -26 -203 -14
-203 39 0 60 131 113 345 139 113 14 127 29 61 60 -117 55 -314 78 -490 58
-116 -14 -158 -5 -164 36 -7 46 139 105 304 124 187 21 194 23 126 58 -126 64
-279 88 -468 71 -151 -14 -189 -6 -189 40 0 51 130 93 350 112 80 8 140 17
139 23 -2 17 -76 53 -169 81 -82 24 -108 27 -298 32 -192 4 -210 6 -240 26
-21 14 -32 30 -32 45 0 61 122 91 375 91 93 0 171 4 174 9 13 21 -83 74 -209
115 -105 34 -222 53 -375 61 -138 7 -176 16 -208 46 -35 32 -29 65 16 88 67
34 155 44 371 43 112 -1 208 1 213 4 15 10 -13 34 -76 66 -160 81 -332 121
-587 137 -154 9 -203 23 -227 62 -49 78 113 129 412 129 219 0 244 9 160 57
-134 77 -338 122 -600 133 -201 8 -241 17 -264 61 -15 26 1 46 57 71 52 23
214 48 314 48 141 0 259 12 259 26 0 17 -105 66 -195 92 -138 41 -237 54 -456
61 -233 7 -256 12 -281 66 -32 71 125 119 437 131 91 4 168 11 170 15 17 26
-127 87 -286 120 -81 17 -154 23 -329 28 -244 7 -267 12 -292 66 -32 70 98
134 485 240 107 29 48 59 -155 77 -101 10 -158 9 -275 -1 -297 -27 -298 -27
-332 7 -21 21 -28 35 -24 51 14 53 154 131 373 206 74 25 139 50 144 55 24 24
-52 34 -249 35 -167 0 -222 -4 -333 -23 -143 -26 -185 -24 -220 9 -29 27 -28
41 9 77 46 45 164 100 328 152 80 25 146 51 148 57 8 23 -66 36 -242 40 -153
4 -199 2 -304 -16 -159 -27 -211 -27 -245 0 -36 28 -33 51 14 93 54 49 162
101 300 146 160 52 152 73 -31 86 -108 8 -245 -8 -386 -47 -129 -35 -175 -37
-203 -9 -26 26 -25 33 9 72 41 47 145 99 301 153 74 25 139 50 143 54 21 21
-42 35 -170 39 -145 5 -205 -3 -395 -50 -134 -34 -168 -33 -192 5 -31 49 78
120 303 196 184 63 185 79 6 88 -118 7 -233 -7 -409 -48 -108 -25 -133 -28
-157 -19 -98 41 15 142 276 245 176 69 177 81 12 79 -132 -2 -262 -23 -407
-66 -117 -34 -183 -39 -207 -16 -38 39 22 90 231 199 75 39 136 74 136 79 0
15 -38 18 -127 9 -125 -13 -179 -25 -326 -76 -106 -36 -137 -43 -161 -36 -23
6 -32 15 -34 34 -4 35 66 98 214 190 63 39 114 75 114 80 0 28 -211 -12 -350
-66 -209 -82 -204 -80 -238 -66 -67 28 -27 84 141 194 48 32 87 62 87 67 0 31
-232 -18 -377 -80 -97 -42 -122 -47 -154 -30 -50 27 -4 95 144 212 79 63 89
73 68 76 -50 7 -243 -66 -391 -148 -60 -33 -101 -38 -120 -15 -18 22 -4 50 62
121 102 109 55 108 -183 -2 -123 -57 -163 -64 -183 -31 -9 14 -5 29 19 74 17
31 32 60 33 65 7 17 -36 6 -93 -25z"/>
</g>
</svg>
