<?xml version="1.0" encoding="UTF-8" standalone="no"?>
<!-- Created with Inkscape (http://www.inkscape.org/) -->

<svg
   width="270.65997mm"
   height="119.61177mm"
   viewBox="0 0 270.65997 119.61177"
   version="1.1"
   id="svg1"
   xmlns:inkscape="http://www.inkscape.org/namespaces/inkscape"
   xmlns:sodipodi="http://sodipodi.sourceforge.net/DTD/sodipodi-0.dtd"
   xmlns="http://www.w3.org/2000/svg"
   xmlns:svg="http://www.w3.org/2000/svg">
  <sodipodi:namedview
     id="namedview1"
     pagecolor="#ffffff"
     bordercolor="#000000"
     borderopacity="0.25"
     inkscape:showpageshadow="2"
     inkscape:pageopacity="0.0"
     inkscape:pagecheckerboard="0"
     inkscape:deskcolor="#d1d1d1"
     inkscape:document-units="mm">
    <inkscape:page
       x="0"
       y="0"
       width="270.65997"
       height="119.61177"
       id="page2"
       margin="0"
       bleed="0" />
  </sodipodi:namedview>
  <defs
     id="defs1" />
  <g
     inkscape:label="Layer 1"
     inkscape:groupmode="layer"
     id="layer1"
     transform="translate(24.56351,-84.583429)">
    <path
       style="fill:#010101;stroke-width:0.264583"
       d="m 42.896476,172.04447 c -0.710671,0.13256 -1.394354,0.23363 -2.116666,0.26459 0.577056,1.26841 0.729456,2.20001 -0.79375,2.64583 v 0.26458 c 0.714904,0.36724 1.253066,0.78396 1.852083,1.32292 l -1.322917,0.52917 v 0.52916 c 0.824706,0.45906 1.69889,1.24593 2.645833,1.40388 3.719248,0.61966 7.604125,-3.71739 10.054167,-5.78564 3.36894,-2.84374 6.98791,-5.3975 10.583333,-7.94147 2.59715,-1.83753 5.994929,-3.72057 6.934994,-6.99135 1.460235,-5.08079 -2.175933,-10.64128 -4.024577,-15.08125 9.086585,0.0251 18.548614,1.93649 27.516666,3.3274 2.928408,0.45403 8.292568,0.33629 10.774358,1.96771 1.61899,1.06415 2.05344,5.36575 2.63208,7.14031 2.23679,6.86276 6.5188,14.02344 4.22963,21.16666 -1.14829,3.58273 -3.47186,8.46297 -6.2865,11.02546 -1.42108,1.29381 -3.40995,1.74333 -4.99824,2.79743 -1.89918,1.25995 -4.20979,4.4331 -5.02841,6.55003 1.63989,-0.14314 3.10753,-1.04325 4.7625,-0.79375 -0.85963,2.0537 -2.29658,3.78513 -3.175,5.82083 1.63486,-0.44608 3.56579,-1.51288 5.28029,-0.82179 1.54199,0.62124 2.17673,3.7801 4.24471,2.51301 2.09788,-1.28535 3.70469,-3.82085 5.29167,-5.65997 1.51156,-1.75154 3.80947,-2.9501 5.11995,-4.76647 2.28811,-3.17182 3.49647,-7.83775 5.26415,-11.37311 1.73593,-3.47213 3.98198,-6.57807 4.15766,-10.58333 0.10266,-2.34183 -0.45826,-4.56142 -0.51488,-6.87917 -0.0915,-3.73142 0.35084,-7.39987 0.51488,-11.1125 0.0794,-1.79996 -0.31141,-5.30199 0.78766,-6.799 0.72708,-0.9898 2.61382,-1.08161 3.72058,-1.37239 l 10.05416,-2.67653 c 1.54067,6.65904 5.03635,12.7262 10.31875,17.07515 3.29301,2.71119 8.41111,4.85273 10.90083,8.32882 1.64095,2.29103 1.62534,5.60282 2.61038,8.19812 1.07236,2.82522 3.82456,5.80363 3.58326,8.99583 -0.21273,2.81279 -2.54027,4.64555 -2.54239,7.67292 0.9525,-0.40614 1.89627,-0.60193 2.91042,-0.79375 l 0.79375,3.43958 c 1.4859,-0.93901 3.10886,-1.77959 4.7625,-2.38125 l 0.79375,2.38125 c 6.44155,-3.35174 2.76807,-11.06196 1.87431,-16.13958 -0.84349,-4.79293 -0.90832,-9.88986 -2.37384,-14.55209 -1.79573,-5.71209 -5.36469,-11.69802 -8.2685,-16.93333 -2.20159,-3.96954 -4.56882,-9.18448 -8.95905,-11.1125 3.23083,-4.87839 7.07337,-11.0781 12.17083,-14.16447 4.03992,-2.44634 8.6278,-2.45533 12.43542,-5.57768 6.64686,-5.45042 10.30658,-12.84399 19.84375,-13.06232 9.13765,-0.20918 18.75552,1.90587 27.51666,4.34176 5.34512,1.48609 11.06488,4.1057 16.66875,4.12104 -0.8546,-1.74114 -3.05329,-2.58175 -4.7625,-3.32729 l -10.05416,-4.57039 c -9.49378,-4.07725 -19.84984,-9.75301 -30.42709,-9.28981 -6.52489,0.28573 -12.54283,3.92544 -19.05,4.21249 -3.98912,0.17597 -7.91712,-1.48207 -11.64166,-2.7236 -5.85206,-1.95067 -11.86498,-4.02333 -17.99167,-4.90418 -19.58816,-2.816333 -39.36365,-1.620469 -59.002081,-0.27562 -18.368962,1.25794 -34.031237,15.64008 -52.652083,16.04711 -2.823633,0.0617 -5.875073,-1.92455 -8.202083,-3.31793 -4.617244,-2.76465 -9.073092,-6.13185 -12.964583,-9.85287 -1.843881,-1.763 -3.307292,-4.100007 -5.295636,-5.670362 -2.257425,-1.78308 -4.988189,-1.831102 -7.668947,-2.39268 -3.1718254,-0.664474 -6.2209895,-1.951408 -9.5250003,-1.860047 -3.2633972,0.09025 -6.5501572,1.811496 -9.5249997,3.001486 -3.574759,1.429941 -8.377396,2.303304 -10.443289,5.873693 -0.775917,1.34104 -1.868885,4.21426 -1.292913,5.77205 0.902335,2.44038 6.982618,4.86505 9.354952,5.31535 6.6115669,1.25497 14.2828166,-0.844 20.6375,1.64404 2.306637,0.90315 3.808941,3.12663 5.290872,4.99565 2.894542,3.65072 5.455709,7.78457 8.755857,11.08868 5.576358,5.58377 13.190008,9.34588 19.819937,13.50434 4.350544,2.72865 8.343371,5.22922 10.985764,9.80281 1.551782,2.68605 -0.955675,5.98884 -1.986756,8.46667 -1.061244,2.54979 -2.100262,5.05222 -3.566583,7.40833 -0.782373,1.25756 -2.273565,2.2479 -2.671763,3.70417 -0.595841,2.17778 0.239713,4.75006 0.678921,6.87916 z"
       id="path5" />
  </g>
</svg>
