<?xml version="1.0" standalone="no"?>
<!DOCTYPE svg PUBLIC "-//W3C//DTD SVG 20010904//EN"
 "http://www.w3.org/TR/2001/REC-SVG-20010904/DTD/svg10.dtd">
<svg version="1.0" xmlns="http://www.w3.org/2000/svg"
 width="1536.000000pt" height="517.000000pt" viewBox="0 0 1536.000000 517.000000"
 preserveAspectRatio="xMidYMid meet">
<metadata>
Created by potrace 1.16, written by Peter Selinger 2001-2019
</metadata>
<g transform="translate(0.000000,517.000000) scale(0.100000,-0.100000)"
fill="#000000" stroke="none">
<path d="M4710 5134 c-21 -19 -42 -44 -45 -55 -9 -28 -34 -23 -41 9 -10 48
-13 52 -41 63 -57 21 -161 -9 -202 -59 -54 -65 -61 -72 -73 -72 -7 0 -21 18
-30 40 -20 48 -34 50 -131 20 -70 -22 -111 -58 -136 -118 -17 -41 -38 -41 -49
0 -12 46 -32 55 -89 40 -26 -7 -70 -26 -98 -41 -43 -23 -55 -37 -85 -98 -55
-112 -80 -131 -80 -64 0 63 -6 71 -60 71 -105 0 -135 -31 -165 -175 -23 -111
-30 -118 -64 -60 -24 42 -53 45 -102 12 -44 -30 -58 -60 -69 -153 -8 -77 -18
-95 -49 -88 -41 11 -121 -78 -121 -134 0 -11 -8 -30 -19 -43 -17 -21 -22 -22
-45 -11 -15 7 -33 12 -41 12 -25 0 -72 -49 -101 -105 -32 -61 -53 -74 -86 -51
-12 9 -41 16 -63 16 -32 0 -51 -9 -97 -45 l-57 -44 -3 41 c-3 39 -5 42 -46 56
-33 11 -53 12 -84 4 l-40 -10 26 27 c14 15 26 33 26 39 0 21 -61 41 -143 47
l-78 7 22 35 c18 28 20 39 11 58 -18 40 -73 43 -165 11 -59 -21 -88 -26 -115
-21 -61 11 -73 21 -62 51 6 14 10 41 10 59 0 29 -4 36 -25 41 -51 13 -155 -26
-229 -85 -26 -21 -49 -31 -65 -29 -24 3 -26 6 -23 50 3 51 -12 68 -60 68 -27
0 -160 -84 -197 -124 -13 -14 -52 -35 -87 -46 -60 -20 -103 -49 -229 -150 -27
-22 -108 -70 -179 -107 -113 -59 -144 -81 -240 -172 -61 -57 -152 -134 -202
-172 -95 -71 -153 -129 -177 -176 -28 -54 -118 -358 -115 -388 2 -24 11 -34
48 -53 24 -12 58 -22 75 -22 l30 0 -40 -34 -39 -33 30 -30 c16 -16 56 -40 89
-54 52 -20 78 -23 185 -24 139 0 180 12 259 76 l40 32 48 -18 c78 -29 171 -82
303 -175 186 -130 218 -144 382 -159 72 -7 112 -18 178 -46 49 -21 109 -39
141 -42 50 -5 66 -1 145 34 120 54 145 57 249 34 83 -18 93 -19 191 -4 l104
15 47 -29 c110 -68 278 -113 422 -113 47 0 82 -7 121 -24 30 -13 81 -35 112
-48 38 -16 69 -39 90 -65 18 -22 61 -72 95 -111 76 -87 103 -133 142 -242 17
-46 43 -102 57 -123 22 -34 24 -41 11 -55 -95 -112 -148 -185 -280 -384 -177
-268 -241 -352 -382 -498 -154 -161 -211 -226 -256 -292 -23 -33 -70 -92 -105
-130 -35 -38 -67 -81 -70 -95 -10 -39 3 -313 16 -350 11 -30 16 -33 54 -33 93
0 268 67 339 130 19 17 45 55 57 85 l22 55 39 -35 c45 -41 50 -42 74 -15 16
18 17 32 11 140 -6 107 -4 126 13 165 25 58 124 154 241 235 348 242 471 350
576 505 95 140 120 191 154 315 48 171 42 167 111 90 75 -82 117 -164 164
-315 48 -154 86 -236 173 -372 127 -197 348 -622 357 -687 9 -55 -11 -86 -85
-141 -50 -37 -90 -89 -90 -119 0 -36 41 -41 267 -27 119 6 224 16 235 22 15 8
18 22 18 91 0 45 -5 110 -11 145 -6 35 -9 66 -7 69 3 2 25 -5 49 -16 58 -26
105 -26 119 0 10 18 -3 35 -114 150 -69 71 -139 153 -156 182 -54 94 -114 306
-190 673 -61 293 -107 422 -202 562 -15 23 -28 44 -28 46 0 2 84 7 188 11 248
9 308 17 635 82 153 30 282 52 288 49 5 -4 25 -37 44 -75 67 -134 183 -289
350 -470 53 -57 98 -116 113 -149 23 -51 24 -61 19 -170 -12 -248 -83 -406
-198 -440 -85 -25 -107 -41 -169 -127 -75 -103 -124 -141 -310 -239 -202 -107
-254 -150 -301 -250 -35 -75 -24 -81 104 -56 50 10 117 16 147 14 36 -3 140
10 295 36 388 67 314 27 602 321 136 139 255 265 264 279 9 14 42 62 74 106
89 125 108 167 113 260 2 44 -8 206 -22 362 -30 326 -32 434 -10 541 18 87 30
107 46 77 22 -39 134 -149 213 -208 137 -103 341 -186 685 -277 317 -84 398
-109 496 -153 177 -80 203 -100 453 -351 l235 -235 -10 -159 c-8 -118 -15
-166 -27 -185 -9 -14 -55 -46 -103 -71 -122 -65 -203 -125 -266 -198 -76 -87
-108 -138 -108 -170 0 -34 3 -34 112 -8 46 10 135 26 198 34 118 16 180 32
223 61 l24 15 6 -80 c5 -83 24 -130 52 -130 15 0 33 25 103 145 22 39 80 117
128 175 164 196 218 302 219 425 0 74 -23 122 -116 243 -123 159 -186 256
-247 382 -33 69 -80 150 -105 180 -39 49 -61 64 -197 135 -249 128 -282 160
-410 390 -89 160 -128 213 -249 337 -52 54 -89 98 -83 98 5 0 95 16 198 36
255 48 470 104 606 157 62 25 156 56 208 71 170 46 1064 354 1252 432 474 196
547 224 598 234 30 7 199 49 375 95 614 161 728 186 955 210 192 20 303 38
560 92 620 128 892 168 1485 218 427 37 500 47 745 107 148 36 165 44 213 97
39 43 49 89 23 110 -9 7 -134 17 -352 26 -360 16 -593 30 -764 46 -58 5 -364
14 -680 19 -316 6 -636 15 -710 20 -249 18 -614 60 -700 81 -47 11 -124 26
-173 34 -74 11 -93 18 -127 48 -50 43 -85 50 -146 32 l-47 -14 -43 44 c-24 24
-65 51 -90 61 -49 19 -58 17 -146 -21 -12 -5 -18 -3 -18 7 0 16 -44 60 -79 78
-39 20 -114 17 -152 -7 l-33 -22 -48 45 c-44 41 -51 44 -101 44 -30 0 -74 -7
-97 -15 -49 -17 -60 -13 -60 20 0 56 -79 89 -195 83 -54 -2 -77 -8 -99 -26
-36 -28 -46 -28 -46 2 0 13 -8 34 -19 47 -16 19 -30 24 -90 27 -84 5 -149 -9
-200 -43 -45 -31 -47 -31 -54 4 -9 43 -39 54 -158 59 l-106 4 -36 -38 -35 -38
-41 37 c-44 40 -62 43 -152 28 -29 -5 -62 -20 -88 -40 l-41 -33 -26 31 c-28
34 -64 46 -165 56 l-66 6 -40 -45 -40 -45 -33 34 c-19 19 -53 42 -76 51 -53
20 -99 8 -155 -43 l-38 -35 -16 37 c-8 21 -15 41 -15 46 0 5 -42 9 -93 9 l-93
0 -48 -49 -49 -50 -28 44 c-32 50 -64 61 -150 53 -43 -4 -57 -12 -94 -48 -25
-24 -46 -42 -48 -39 -2 2 -13 18 -25 35 -57 82 -175 83 -259 2 l-31 -30 -21
39 c-25 51 -66 68 -149 64 -13 -1 -47 -23 -78 -53 -30 -28 -56 -49 -58 -47 -2
2 -11 19 -20 37 -22 42 -68 62 -144 62 -51 0 -63 -4 -87 -27 -15 -15 -33 -40
-41 -55 -8 -16 -18 -28 -22 -28 -4 0 -15 20 -25 44 -16 39 -23 45 -62 55 -24
6 -69 12 -100 12 -53 2 -59 -1 -96 -37 -21 -21 -41 -46 -45 -56 -9 -29 -19
-21 -44 33 -32 68 -50 79 -133 79 l-69 0 -51 -55 c-27 -30 -53 -55 -58 -55 -4
0 -13 17 -19 38 -18 54 -33 62 -124 62 l-80 0 -48 -50 c-27 -28 -53 -48 -58
-45 -5 3 -23 26 -40 49 -27 40 -34 45 -94 56 -73 14 -94 5 -141 -56 -14 -19
-30 -34 -34 -34 -4 0 -20 22 -34 49 -36 65 -46 72 -115 78 -68 6 -99 -6 -151
-61 -19 -20 -40 -36 -46 -36 -6 0 -16 17 -21 37 -12 51 -42 65 -128 61 -66 -4
-70 -5 -107 -46 -22 -23 -41 -42 -44 -42 -2 0 -6 13 -10 29 -9 41 -23 50 -94
62 -69 11 -84 6 -144 -48 -47 -42 -71 -40 -75 4 -5 46 -34 63 -109 63 -58 0
-66 -3 -103 -36z m1095 -155 c270 -30 249 -22 377 -150 61 -60 148 -142 194
-180 46 -39 84 -77 84 -85 0 -14 -34 -19 -115 -15 -34 2 -184 47 -364 109 -24
8 -78 42 -120 76 -42 34 -133 105 -203 159 -71 54 -128 100 -128 103 0 9 104
3 275 -17z m1166 -58 c10 -3 68 -55 129 -115 112 -111 133 -148 93 -163 -29
-11 -412 16 -449 32 -69 29 -245 229 -227 258 6 11 423 0 454 -12z m925 -68
c26 -38 69 -93 95 -124 l48 -56 -52 -7 c-29 -3 -108 -6 -177 -6 -104 0 -130 3
-155 19 -29 17 -96 90 -179 194 l-37 47 204 0 205 0 48 -67z m939 47 c115 -6
214 -15 219 -20 5 -5 17 -32 27 -61 10 -28 36 -80 58 -115 44 -70 42 -74 -33
-74 -61 0 -146 -27 -146 -47 0 -12 7 -14 38 -10 20 3 76 11 124 18 l87 12 88
-69 c161 -125 195 -169 208 -261 l7 -53 -79 0 c-71 0 -87 4 -178 46 -55 25
-147 65 -205 90 -124 53 -183 96 -368 269 -76 72 -177 160 -225 197 -48 37
-87 72 -87 78 0 13 195 13 465 0z m1113 -20 l186 0 61 -63 c33 -35 121 -116
195 -179 146 -124 208 -201 241 -293 25 -71 25 -95 -1 -95 -23 0 -138 56 -245
119 -39 23 -121 57 -185 77 -161 50 -355 143 -302 144 58 2 257 31 265 39 21
21 -26 24 -163 13 -86 -8 -147 -9 -168 -3 -17 5 -65 36 -104 69 -40 32 -106
80 -145 105 -40 26 -73 51 -73 56 0 10 168 21 224 14 16 -2 112 -3 214 -3z
m989 -125 c298 -56 353 -69 353 -86 0 -6 14 -31 31 -55 17 -25 29 -47 27 -50
-3 -2 -63 9 -134 25 -71 16 -178 37 -237 47 -119 19 -159 38 -232 113 -49 52
-53 51 192 6z m-2782 -180 c39 -38 46 -51 43 -78 -3 -28 -7 -32 -36 -35 -24
-3 -61 11 -145 56 -62 33 -129 65 -149 71 -73 24 -51 31 95 31 l145 0 47 -45z
m3025 -19 c201 -47 245 -66 331 -139 106 -91 149 -160 149 -239 0 -23 -4 -28
-25 -28 -31 0 -62 14 -159 72 -90 55 -157 81 -271 109 -46 11 -97 30 -120 47
-38 26 -118 124 -159 193 l-19 32 64 -7 c35 -3 129 -21 209 -40z m911 -36 c46
-12 91 -26 101 -31 25 -14 93 -138 81 -150 -10 -10 -167 27 -318 75 -80 25
-80 26 -112 84 -18 32 -30 61 -28 64 8 8 186 -19 276 -42z m674 -80 c109 -8
168 -17 184 -27 24 -15 87 -139 98 -193 5 -29 4 -31 -18 -26 -59 13 -89 10
-89 -9 0 -9 14 -16 38 -20 70 -12 97 -25 157 -76 122 -104 129 -111 113 -120
-9 -5 -80 -23 -158 -40 l-144 -32 -26 29 c-14 16 -54 54 -89 84 -71 61 -82 79
-117 188 -29 90 -61 148 -117 216 -38 45 -39 49 -16 43 13 -3 96 -11 184 -17z
m976 -57 c38 -42 96 -180 83 -193 -11 -11 -125 -30 -177 -30 -30 0 -51 10
-105 52 -37 28 -82 65 -100 82 -38 35 -76 102 -67 116 4 6 75 10 169 10 l164
0 33 -37z m653 -2 l139 -7 49 -53 c73 -80 70 -83 -74 -79 l-123 4 -75 43 c-84
50 -120 78 -120 97 0 9 10 11 33 8 17 -3 95 -8 171 -13z m926 -50 c0 -16 -81
-80 -117 -92 -19 -6 -44 -8 -57 -5 -30 7 -103 61 -116 86 -11 20 -8 20 140 20
85 0 150 -4 150 -9z m-3071 -46 c34 -17 9 -29 -33 -15 -19 6 -40 18 -48 27
-11 14 -9 15 22 8 19 -4 46 -13 59 -20z m-5595 -83 c3 -5 -13 -40 -36 -78 -22
-38 -64 -116 -93 -174 -42 -83 -68 -119 -120 -170 -37 -36 -81 -85 -97 -109
-39 -55 -38 -57 -68 147 -26 177 -33 158 81 217 36 18 103 59 148 90 101 69
172 98 185 77z m8042 -37 c40 -26 16 -34 -105 -37 -88 -1 -105 1 -128 18 -56
42 -45 47 85 42 93 -4 127 -9 148 -23z m-763 -38 c32 -14 64 -43 56 -52 -11
-10 -293 -34 -308 -26 -9 5 -25 18 -35 30 -23 25 -22 26 94 45 111 18 154 19
193 3z m-12223 -277 c12 0 33 9 48 20 l25 20 19 -27 c10 -16 18 -31 18 -34 0
-15 -74 -117 -118 -163 -73 -75 -188 -164 -261 -200 -85 -42 -135 -58 -301
-96 -74 -16 -188 -45 -254 -63 -109 -31 -124 -39 -196 -95 -43 -34 -80 -62
-83 -62 -10 0 19 67 41 95 44 55 136 126 217 166 79 38 223 81 319 94 68 9
101 43 110 113 l7 53 28 -21 c16 -11 36 -20 45 -20 25 0 49 58 62 154 7 50 19
95 27 103 13 13 20 12 62 -12 l47 -28 31 31 31 32 28 -30 c15 -17 37 -30 48
-30z m5007 -222 c-8 -115 -29 -173 -87 -254 -103 -142 -127 -180 -150 -237
-12 -32 -27 -56 -33 -54 -13 4 -46 99 -82 241 l-29 108 40 35 c21 19 95 71
164 117 69 46 134 93 144 104 33 38 39 27 33 -60z m-5601 -24 c19 -19 34 -39
34 -44 0 -5 -39 -21 -87 -35 -49 -14 -124 -39 -168 -55 -43 -16 -81 -27 -83
-25 -2 2 21 29 53 59 49 48 62 56 95 56 41 0 54 10 64 53 10 40 50 37 92 -9z
m5928 -212 c-10 -57 -49 -147 -108 -252 -53 -93 -79 -158 -110 -270 -14 -50
-99 -206 -130 -238 -11 -11 -17 -7 -34 21 -11 19 -23 44 -26 55 -4 11 -29 54
-56 94 l-49 73 38 40 c21 22 65 81 97 130 42 65 100 132 212 243 84 83 158
150 163 146 5 -3 7 -22 3 -42z m-5449 -235 c55 -14 165 -35 245 -47 212 -30
337 -57 452 -97 98 -35 110 -37 235 -38 l132 0 22 -29 c22 -28 24 -28 95 -22
95 9 134 -10 200 -96 71 -94 137 -248 106 -248 -6 0 -46 11 -89 25 -69 22 -89
34 -162 99 -87 80 -124 96 -174 77 -55 -21 -66 -18 -217 67 -86 48 -120 50
-177 13 -37 -25 -57 -31 -88 -29 -34 3 -41 7 -49 33 -6 17 -11 31 -12 33 -4 8
-34 -12 -34 -24 0 -19 -15 -18 -31 3 -26 31 -76 43 -181 43 -82 0 -117 5 -169
24 l-66 23 -69 -18 c-98 -26 -189 -25 -242 4 -158 85 -276 177 -254 199 21 21
159 37 292 34 104 -3 158 -9 235 -29z m5364 -657 c-18 -34 -43 -70 -56 -80
-13 -10 -23 -27 -23 -38 0 -36 -21 -36 -57 0 -25 25 -33 41 -29 55 7 22 189
147 194 133 2 -5 -11 -37 -29 -70z m-3473 -345 c28 -8 77 -33 110 -56 52 -37
113 -69 208 -108 59 -24 14 -32 -146 -25 l-156 7 -18 61 c-10 34 -25 72 -34
86 -39 58 -39 58 36 35z m2554 1 c0 -24 -135 -216 -152 -216 -9 0 -78 139 -78
157 0 17 14 22 114 44 83 17 116 22 116 15z m-1447 -253 c57 -87 124 -209 109
-200 -6 4 -39 53 -74 110 -35 56 -72 114 -82 130 -10 15 -14 27 -8 27 6 0 31
-30 55 -67z m-98 -89 c28 -18 32 -46 10 -64 -13 -10 -19 -10 -35 5 -24 21 -55
13 -45 -13 3 -9 7 -21 8 -27 1 -5 -45 -17 -102 -27 l-103 -17 -30 22 c-32 23
-108 114 -108 128 0 5 86 9 190 9 159 0 195 -3 215 -16z m2109 -124 l6 -35
-20 40 c-11 22 -19 51 -19 65 1 24 1 24 14 -5 7 -16 15 -46 19 -65z m-2942
-103 l61 -68 -16 -35 c-31 -65 -90 -64 -194 3 -33 22 -75 46 -92 53 -17 7 -31
16 -31 20 0 10 79 116 110 148 l22 24 40 -39 c22 -21 67 -69 100 -106z m127
-125 c13 -24 -4 -42 -36 -42 -27 0 -29 8 -7 38 19 27 30 28 43 4z m734 -8 c33
-11 55 -26 68 -48 33 -54 25 -60 -86 -69 -55 -4 -111 -8 -125 -10 -22 -2 -26
4 -41 58 -29 102 -31 99 59 92 42 -3 99 -13 125 -23z m168 -40 c9 -11 8 -14
-8 -14 -19 0 -43 17 -43 31 0 11 38 -2 51 -17z m-1320 -64 c39 -33 79 -66 90
-73 27 -17 24 -31 -18 -67 -45 -40 -74 -38 -181 11 l-74 34 51 78 c28 42 53
77 56 77 4 0 38 -27 76 -60z m140 -162 c-13 -10 -27 -18 -32 -18 -16 0 -9 19
13 34 30 21 47 7 19 -16z m1063 -58 c32 -11 80 -23 107 -26 74 -10 96 -64 31
-77 -16 -3 -52 -21 -81 -38 -41 -25 -56 -31 -69 -23 -21 13 -112 143 -112 160
0 7 12 15 28 17 15 2 30 5 33 6 3 0 32 -8 63 -19z m-1455 -55 c34 -17 161
-153 161 -172 0 -16 -44 -17 -73 -2 -12 6 -45 29 -72 50 -28 20 -62 42 -78 48
-32 13 -34 29 -6 65 24 30 30 31 68 11z m-154 -261 c14 -22 15 -28 4 -35 -8
-5 -21 -7 -29 -4 -8 2 -35 9 -60 16 -25 7 -49 15 -53 19 -4 4 8 21 28 39 l36
31 28 -20 c16 -10 36 -31 46 -46z m1898 -15 c20 -5 37 -14 37 -19 0 -28 -94
-88 -162 -104 -24 -5 -31 -1 -53 35 -38 59 -40 69 -17 69 11 0 35 7 53 15 40
17 90 19 142 4z"/>
</g>
</svg>
