<?xml version="1.0" standalone="no"?>
<!DOCTYPE svg PUBLIC "-//W3C//DTD SVG 20010904//EN"
 "http://www.w3.org/TR/2001/REC-SVG-20010904/DTD/svg10.dtd">
<svg version="1.0" xmlns="http://www.w3.org/2000/svg"
 width="4838.000000pt" height="1194.000000pt" viewBox="0 0 4838.000000 1194.000000"
 preserveAspectRatio="xMidYMid meet">
<metadata>
Created by potrace 1.16, written by Peter Selinger 2001-2019
</metadata>
<g transform="translate(0.000000,1194.000000) scale(0.100000,-0.100000)"
fill="#000000" stroke="none">
<path d="M16785 11934 c-90 -14 -202 -40 -295 -69 -140 -44 -315 -62 -426 -44
-112 17 -359 15 -484 -4 -102 -15 -452 -32 -635 -31 -49 0 -180 4 -290 9 -265
10 -400 -3 -705 -71 -57 -12 -137 -17 -340 -19 -326 -3 -443 -23 -694 -120
-120 -46 -269 -83 -386 -96 -307 -33 -405 -60 -645 -179 -184 -91 -309 -136
-520 -189 -253 -64 -363 -115 -690 -316 -60 -37 -213 -118 -340 -181 -319
-157 -441 -238 -715 -474 -154 -133 -868 -671 -1087 -818 -35 -24 -122 -67
-195 -98 -221 -93 -319 -146 -549 -295 -143 -93 -241 -125 -517 -169 -69 -12
-194 -38 -276 -59 -205 -53 -427 -84 -596 -84 l-135 0 -115 56 c-204 99 -427
160 -650 177 -129 10 -214 33 -355 100 -166 78 -336 127 -518 150 -96 12 -496
109 -680 164 -126 39 -292 103 -477 184 -118 53 -200 72 -303 72 -51 0 -58 2
-53 18 46 149 83 407 67 475 -5 21 -11 40 -13 42 -1 1 -30 6 -63 10 l-60 6
-105 -74 c-58 -41 -197 -147 -310 -236 -235 -186 -382 -287 -525 -359 -127
-65 -534 -253 -599 -277 -27 -10 -73 -40 -103 -66 -29 -27 -57 -49 -63 -49 -5
0 -37 -25 -71 -55 -34 -30 -65 -55 -70 -55 -5 0 -36 -24 -68 -54 -33 -30 -79
-65 -103 -77 -23 -12 -63 -39 -88 -59 -25 -21 -60 -45 -79 -55 -18 -9 -52 -34
-75 -54 -22 -21 -59 -48 -81 -61 -22 -13 -61 -43 -87 -67 -26 -24 -52 -43 -59
-43 -6 0 -50 -40 -98 -88 -47 -48 -148 -147 -224 -220 -123 -118 -141 -140
-173 -208 -40 -85 -59 -183 -51 -260 10 -94 85 -224 131 -224 6 0 21 -21 33
-47 29 -61 113 -150 161 -170 20 -8 73 -18 117 -20 72 -5 105 1 345 57 146 34
303 68 350 76 217 36 344 7 810 -181 301 -121 396 -153 590 -194 142 -30 214
-51 571 -164 97 -31 313 -95 480 -142 370 -105 575 -173 1184 -393 605 -219
773 -272 1190 -376 577 -144 905 -201 1544 -271 504 -55 651 -123 1061 -490
74 -67 171 -151 215 -188 l80 -67 0 -652 c0 -716 -1 -689 70 -1245 51 -395 57
-468 44 -533 -11 -54 -15 -59 -236 -280 -247 -246 -360 -370 -623 -680 -96
-113 -236 -276 -313 -363 -174 -200 -240 -289 -325 -439 -73 -132 -126 -199
-169 -217 -15 -6 -111 -31 -212 -56 -154 -38 -202 -54 -285 -98 -110 -57 -249
-176 -261 -224 -10 -40 10 -53 65 -43 70 14 185 12 277 -6 70 -13 147 -15 456
-11 339 4 379 6 457 26 47 11 118 25 158 31 40 5 82 14 93 20 11 6 39 42 63
79 66 103 138 147 526 321 417 187 804 410 1170 677 457 333 612 542 728 983
100 379 120 566 138 1318 4 155 10 282 15 282 10 0 451 -286 614 -398 180
-123 297 -215 356 -280 65 -70 61 -57 134 -437 53 -272 118 -535 200 -805 101
-331 225 -710 287 -874 77 -207 88 -242 88 -294 0 -59 -16 -85 -107 -174 -60
-58 -99 -86 -163 -117 -195 -93 -358 -217 -375 -284 -11 -44 0 -60 38 -53 71
14 226 18 273 8 125 -29 363 -4 462 47 62 32 173 115 252 189 78 72 207 162
233 162 55 0 136 141 181 312 57 220 60 259 61 838 1 294 5 717 9 940 11 589
-10 885 -79 1094 -26 80 -103 241 -150 317 l-26 40 878 -6 c1167 -9 1838 5
2673 55 328 20 1333 91 1554 110 66 6 123 7 126 3 9 -10 147 -453 195 -627
132 -470 167 -931 95 -1235 -36 -149 -137 -336 -279 -515 -35 -43 -156 -185
-270 -315 -248 -285 -288 -331 -373 -441 -84 -108 -122 -144 -178 -169 -54
-23 -248 -67 -545 -121 -307 -57 -341 -65 -484 -116 -175 -63 -279 -114 -391
-189 -219 -148 -320 -266 -295 -345 10 -32 48 -34 183 -10 70 12 190 25 268
27 137 5 141 5 147 -16 4 -18 12 -21 65 -21 37 0 76 -7 103 -19 42 -19 82 -20
974 -23 858 -3 935 -2 998 14 123 32 176 73 207 158 8 23 15 127 20 300 8 291
17 340 81 441 41 65 154 171 299 279 204 153 286 241 359 387 59 118 80 216
106 501 52 550 106 797 238 1090 29 65 133 263 229 438 97 175 222 412 279
525 l102 206 106 10 c105 11 106 11 141 -14 193 -138 438 -281 640 -374 319
-146 601 -242 1270 -433 728 -207 928 -282 1227 -457 290 -171 435 -301 522
-469 83 -158 112 -294 130 -612 28 -457 34 -538 47 -618 30 -186 17 -233 -113
-395 -173 -216 -278 -288 -603 -410 -69 -26 -150 -60 -181 -76 -137 -68 -366
-244 -408 -313 -26 -41 -31 -114 -10 -127 21 -13 67 -11 201 10 68 11 158 22
200 26 l77 7 16 -31 c18 -36 40 -39 121 -15 l54 16 63 -31 c74 -36 108 -38
226 -12 74 16 89 17 117 5 19 -8 51 -14 73 -14 66 0 263 73 371 138 25 15 58
27 74 27 24 0 34 8 55 42 14 23 56 68 93 99 37 31 109 105 160 163 161 185
212 230 386 340 373 237 416 304 328 519 -12 32 -73 146 -135 255 -138 243
-192 355 -225 471 -40 138 -47 201 -56 506 -4 157 -11 296 -15 310 -40 147
-80 234 -147 325 -66 89 -123 142 -338 313 -254 203 -369 304 -511 448 -200
206 -291 335 -512 724 -55 97 -63 116 -49 121 10 4 150 32 312 64 416 81 781
175 1145 295 171 56 327 112 348 123 25 14 40 31 45 51 8 29 12 31 63 36 70 6
111 29 354 191 306 205 461 277 682 318 161 30 312 41 579 41 542 0 961 -55
2629 -346 1247 -217 1598 -288 2645 -533 1084 -253 1446 -308 2515 -381 454
-31 554 -40 1055 -90 697 -70 969 -85 1425 -77 187 4 430 13 540 21 110 9 349
25 530 36 503 31 723 48 1045 81 1109 112 1746 240 3100 624 380 108 498 145
1250 392 952 313 1087 362 1520 556 129 57 361 160 515 227 510 222 831 391
1274 669 300 188 449 296 630 455 140 122 346 359 394 453 30 58 14 190 -26
215 -53 34 -168 -20 -457 -213 -647 -434 -1107 -646 -2200 -1013 -410 -137
-919 -296 -1092 -341 -143 -37 -1264 -263 -1563 -315 -423 -74 -1509 -201
-2005 -234 -456 -31 -1301 -59 -1550 -51 -352 11 -1058 45 -1655 80 -202 12
-666 88 -1020 167 -235 52 -455 109 -805 208 -157 44 -404 111 -550 149 -522
136 -869 259 -1310 461 -227 104 -633 312 -870 446 -124 70 -349 187 -500 260
-151 72 -365 175 -475 229 -110 53 -308 148 -440 210 -132 62 -359 171 -505
243 -162 79 -393 182 -594 262 -322 129 -623 256 -1041 440 -235 103 -1100
447 -1415 563 -243 89 -365 126 -680 206 -263 66 -363 98 -630 199 -255 98
-489 166 -945 278 -687 169 -812 205 -1265 364 -625 218 -1580 473 -2720 725
-945 208 -1414 279 -2175 327 -321 20 -1411 17 -1915 -6 -448 -20 -570 -18
-725 14 -97 20 -368 35 -440 24z"/>
</g>
</svg>
