<?xml version="1.0" standalone="no"?>
<!DOCTYPE svg PUBLIC "-//W3C//DTD SVG 20010904//EN"
 "http://www.w3.org/TR/2001/REC-SVG-20010904/DTD/svg10.dtd">
<svg version="1.0" xmlns="http://www.w3.org/2000/svg"
 width="5184.000000pt" height="1562.000000pt" viewBox="0 0 5184.000000 1562.000000"
 preserveAspectRatio="xMidYMid meet">
<metadata>
Created by potrace 1.16, written by Peter Selinger 2001-2019
</metadata>
<g transform="translate(0.000000,1562.000000) scale(0.100000,-0.100000)"
fill="#000000" stroke="none">
<path d="M3060 15603 c-19 -2 -113 -20 -208 -39 -98 -20 -185 -33 -199 -29
-25 6 -110 -10 -233 -45 -36 -10 -57 -13 -46 -7 39 25 61 46 54 52 -3 4 -51
-9 -105 -28 -54 -19 -136 -47 -183 -62 -47 -15 -92 -30 -100 -33 -8 -3 -4 4
10 16 19 17 21 21 8 22 -18 0 -69 -22 -293 -128 -83 -39 -160 -71 -170 -70
-24 2 -151 -61 -199 -97 -21 -16 -37 -22 -41 -16 -11 19 -28 12 -105 -38 -73
-48 -79 -50 -198 -65 -69 -9 -151 -27 -189 -41 -36 -14 -101 -34 -144 -45
-105 -26 -214 -81 -330 -167 -196 -145 -340 -396 -371 -646 -12 -101 -3 -126
57 -154 19 -9 35 -22 35 -29 0 -18 136 -189 182 -228 53 -46 118 -77 173 -84
52 -5 113 13 255 79 79 36 129 52 200 63 128 21 353 38 376 29 16 -6 43 -33
81 -82 11 -13 14 -14 22 -2 8 12 54 -21 174 -127 4 -4 38 -39 75 -79 42 -45
78 -75 97 -79 38 -9 122 -63 159 -103 17 -17 35 -31 42 -31 6 0 17 -7 24 -15
7 -9 18 -14 25 -12 6 3 31 -11 56 -29 57 -44 113 -74 139 -74 23 0 24 4 9 32
-18 34 -3 30 46 -12 55 -47 141 -94 150 -81 7 12 109 -33 155 -69 54 -42 136
-80 148 -68 6 6 33 -14 77 -56 37 -36 71 -63 77 -60 5 4 2 15 -9 28 -11 11
-25 30 -33 40 -14 18 -14 19 8 7 12 -6 33 -29 46 -49 13 -20 34 -46 46 -57 21
-19 23 -19 33 -3 10 16 13 16 39 0 38 -22 47 -8 21 38 l-21 39 54 -40 c34 -26
61 -39 76 -37 22 3 20 6 -27 58 -27 30 -39 45 -25 33 67 -58 135 -102 144 -93
5 5 22 -2 45 -21 19 -16 40 -29 45 -29 5 0 20 -10 33 -22 27 -25 40 -19 23 12
-10 18 -9 21 0 15 19 -12 79 -15 85 -4 4 5 18 1 32 -8 23 -15 27 -16 36 -2 8
13 17 13 66 3 31 -6 64 -15 75 -19 10 -5 21 -3 25 4 5 8 25 2 66 -19 60 -31
90 -37 99 -21 3 5 0 14 -8 20 -8 7 -12 21 -9 32 5 19 6 19 25 2 19 -17 21 -17
39 5 l18 23 34 -25 c42 -32 45 -32 49 -1 3 25 3 24 62 -20 59 -44 80 -49 69
-17 -5 14 -3 15 8 5 18 -17 44 -16 59 2 12 14 16 13 36 -6 29 -27 42 -19 26
16 -11 24 -11 25 11 14 12 -6 36 -22 54 -35 17 -13 42 -24 55 -24 13 0 45 -16
72 -35 48 -34 86 -45 86 -26 0 5 -11 18 -24 28 -13 10 -27 29 -31 43 l-7 25
28 -26 c16 -15 45 -29 64 -32 48 -7 61 -11 87 -25 33 -18 64 -15 70 8 5 19 10
17 49 -22 25 -24 49 -60 56 -80 17 -58 41 -50 36 12 -6 88 16 63 61 -70 18
-52 39 -102 47 -111 8 -8 14 -25 14 -36 0 -23 45 -69 54 -55 3 5 1 36 -4 68
-21 127 -2 91 52 -101 17 -60 39 -119 49 -130 19 -19 19 -19 19 10 0 17 -13
84 -30 149 -16 66 -28 122 -26 124 6 5 62 -146 71 -188 4 -19 15 -64 25 -100
10 -36 21 -77 24 -92 8 -34 34 -37 40 -5 14 69 15 156 1 207 -8 30 -14 64 -14
75 0 11 9 -9 19 -45 11 -38 21 -118 25 -195 9 -171 8 -170 46 -143 22 17 30
32 35 70 13 95 23 45 18 -89 -5 -135 1 -173 25 -159 6 4 11 24 11 44 0 42 8
57 30 57 10 0 18 17 25 52 6 28 13 54 17 58 3 4 12 -28 19 -70 8 -48 21 -85
34 -100 11 -13 36 -51 55 -86 23 -41 44 -66 62 -73 20 -7 35 -27 56 -76 55
-121 105 -153 65 -41 -18 50 -19 60 -7 65 10 4 26 -19 57 -82 26 -53 50 -91
64 -96 11 -6 28 -25 37 -43 22 -47 38 -42 35 12 -2 25 2 50 9 57 13 13 11 17
37 -82 23 -86 41 -130 56 -130 8 0 10 17 7 55 -4 46 -3 52 9 37 11 -14 14 -15
22 -3 7 11 20 -7 51 -70 24 -46 52 -97 64 -113 11 -16 41 -88 66 -160 25 -71
51 -132 59 -134 10 -4 12 2 7 22 -4 15 -2 26 4 26 5 0 10 10 11 23 1 20 2 20
12 -5 10 -27 30 -37 41 -20 2 4 1 26 -4 50 -4 23 -4 42 0 42 16 0 140 -233
207 -387 3 -7 13 -13 23 -13 10 0 20 -7 24 -15 6 -16 31 -21 39 -7 3 4 -8 40
-24 80 -16 40 -27 78 -23 83 3 5 -4 26 -16 47 l-21 37 28 -35 c15 -19 48 -59
73 -90 31 -38 53 -79 71 -134 14 -44 31 -82 37 -84 15 -5 16 74 2 132 -7 33
-6 42 8 52 15 11 18 6 28 -54 24 -138 63 -262 83 -262 15 0 13 83 -4 160 -17
78 -18 83 -6 76 5 -3 16 -47 26 -98 20 -107 32 -129 52 -102 7 10 13 29 13 43
0 49 20 5 41 -89 11 -52 22 -96 25 -99 19 -19 30 94 15 159 -5 24 -9 46 -7 47
1 2 15 -14 29 -34 41 -58 161 -202 169 -202 4 -1 8 9 10 21 3 19 6 17 31 -20
56 -86 65 -32 11 67 l-36 66 61 -65 c34 -36 78 -92 99 -125 51 -85 104 -155
117 -155 20 0 25 12 14 31 -5 11 -8 19 -5 19 2 0 24 -31 47 -70 24 -39 47 -70
51 -70 15 0 7 46 -16 97 l-25 52 59 -62 c48 -51 61 -60 71 -49 11 10 11 16 1
32 -23 37 -5 20 40 -37 24 -32 65 -98 91 -146 53 -101 102 -167 123 -167 24 0
16 28 -30 103 -49 82 -78 137 -72 137 2 0 22 -31 44 -68 43 -72 97 -132 119
-132 21 0 16 18 -22 80 -33 55 -76 156 -57 135 5 -6 33 -45 61 -88 73 -110
134 -171 162 -164 15 4 27 -1 40 -16 26 -33 35 -12 17 41 -15 43 -15 102 1
102 3 0 15 -24 25 -52 34 -98 58 -148 72 -148 8 0 14 10 15 23 0 12 9 -6 20
-39 18 -58 42 -94 55 -81 3 3 -1 34 -10 69 -24 96 -19 110 15 41 33 -70 65
-87 57 -31 -5 30 -4 31 11 12 9 -11 24 -23 33 -27 9 -3 29 -28 42 -54 31 -59
50 -83 65 -83 14 0 14 25 1 50 -6 11 -6 28 -2 41 8 20 12 16 41 -37 40 -72
137 -201 161 -214 11 -6 21 -5 28 2 8 8 4 22 -14 53 -24 42 -24 43 -4 48 22 6
21 24 -6 126 -9 29 -13 55 -11 58 7 6 73 -114 91 -165 9 -24 18 -66 21 -95 12
-107 15 -117 34 -117 24 0 38 18 43 55 3 27 8 21 51 -62 26 -51 53 -93 58 -93
12 0 4 84 -13 138 -21 69 7 55 81 -37 39 -50 75 -91 81 -91 5 0 13 7 18 17 9
14 15 12 54 -20 25 -21 48 -37 52 -37 16 0 2 26 -46 80 -28 32 -69 87 -90 122
-36 58 -37 60 -8 28 119 -135 166 -193 204 -250 46 -71 84 -94 72 -43 -4 15
-26 66 -48 113 -64 134 -73 158 -55 140 9 -8 27 -44 42 -80 57 -137 108 -239
123 -245 33 -12 36 13 10 92 -14 43 -25 79 -23 81 2 2 31 -39 65 -92 56 -85
91 -119 107 -103 5 6 -48 107 -100 190 -48 78 -24 65 37 -20 99 -137 139 -183
157 -183 10 0 32 -20 50 -47 42 -63 80 -103 96 -103 20 0 15 27 -12 68 -14 20
-25 41 -25 46 0 16 47 -41 85 -104 20 -34 45 -69 54 -78 9 -9 29 -36 44 -59
15 -24 34 -43 42 -43 8 0 30 -30 49 -68 40 -79 61 -101 78 -84 12 12 11 22
-17 142 -3 14 14 -25 37 -86 29 -74 54 -122 74 -142 18 -17 45 -55 62 -84 54
-95 119 -158 167 -162 6 -1 28 -20 49 -44 22 -24 45 -41 51 -38 7 2 38 -33 70
-81 56 -81 78 -103 92 -89 4 4 -5 31 -20 61 -15 30 -25 55 -23 55 1 0 25 -27
51 -60 46 -57 75 -75 75 -47 0 6 26 -17 57 -51 47 -54 60 -63 82 -59 17 4 33
-1 46 -13 13 -13 25 -16 34 -11 11 7 2 30 -43 112 -32 56 -65 113 -73 126 -8
13 -13 23 -10 23 3 0 27 -30 53 -67 117 -167 177 -243 193 -243 9 0 28 -21 43
-48 42 -72 68 -99 78 -82 5 8 3 27 -5 45 -10 25 4 15 66 -49 86 -88 91 -80 19
29 -62 93 -65 100 -52 91 6 -4 43 -50 83 -102 39 -53 79 -98 88 -101 9 -3 33
-22 54 -42 25 -24 40 -32 45 -24 5 7 36 -21 87 -78 83 -91 122 -114 112 -63
-4 24 0 21 35 -20 22 -25 44 -46 50 -46 5 0 22 9 38 20 l28 20 46 -55 c77 -89
136 -121 107 -58 -12 27 -12 27 6 10 27 -24 47 -23 33 2 -21 40 -9 37 101 -26
74 -42 114 -53 121 -34 2 6 32 -12 68 -39 36 -27 76 -50 90 -50 14 0 43 -12
65 -25 48 -30 58 -31 50 -6 -8 25 19 35 37 14 24 -30 130 -103 149 -103 32 0
22 37 -23 87 -24 25 -38 44 -32 42 24 -9 109 -68 164 -112 45 -37 67 -48 88
-46 23 3 43 -12 133 -104 58 -59 113 -107 122 -107 45 0 22 51 -77 171 -12 14
42 -39 119 -118 77 -79 146 -143 153 -143 21 0 13 31 -19 71 -17 21 -29 43
-27 49 2 6 19 -11 38 -37 23 -31 45 -50 62 -53 18 -3 43 -25 73 -64 25 -32 46
-63 46 -70 1 -6 2 -37 3 -70 1 -47 5 -61 21 -70 11 -6 22 -12 25 -14 6 -4 18
-101 29 -242 5 -58 12 -118 16 -133 4 -15 2 -55 -4 -88 -10 -47 -10 -64 0 -75
10 -13 14 -12 30 2 15 13 14 8 -5 -40 -21 -50 -24 -106 -7 -106 13 0 1 -78
-24 -149 -14 -41 -24 -79 -22 -85 2 -6 -6 -31 -18 -56 -12 -25 -26 -56 -30
-70 -4 -13 -25 -49 -45 -80 -65 -94 -95 -200 -58 -200 12 0 -15 -45 -50 -82
-28 -30 -23 -50 7 -31 16 10 20 8 24 -13 2 -13 -2 -32 -9 -41 -21 -28 -17 -46
7 -40 20 5 21 3 15 -31 -30 -172 -30 -267 1 -467 32 -208 144 -420 178 -337 4
9 11 80 15 157 7 130 11 150 53 275 43 127 63 160 82 131 3 -6 17 -11 31 -11
17 0 24 -5 24 -20 0 -24 22 -26 41 -4 8 10 22 14 38 11 15 -3 39 4 63 19 21
13 38 20 38 15 0 -12 41 -11 57 1 6 5 14 32 18 59 7 48 8 49 25 34 17 -15 19
-15 25 15 4 18 4 53 1 78 l-6 47 16 -29 c24 -44 39 -20 25 44 -14 66 -14 70 4
64 18 -7 21 41 6 94 -5 17 -6 32 -2 32 5 0 12 -14 17 -32 12 -41 34 -49 35
-11 0 25 1 26 9 8 5 -11 9 -32 9 -47 1 -35 20 -46 38 -22 14 18 14 17 11 -8
-2 -17 3 -32 14 -40 15 -11 18 -38 19 -223 1 -115 -2 -225 -6 -242 -9 -39 -1
-42 26 -11 l20 23 -7 -47 c-10 -76 13 -118 34 -60 10 26 10 26 11 -13 2 -50
16 -77 30 -56 8 12 11 8 16 -15 14 -60 16 -65 33 -59 14 4 23 -11 47 -78 41
-115 137 -306 175 -344 34 -36 77 -46 65 -15 -46 114 -95 297 -94 352 1 28 9
12 38 -75 20 -60 40 -116 44 -122 14 -22 27 -14 27 17 0 27 -69 310 -85 353
-5 12 -2 17 8 17 15 0 96 -190 128 -297 9 -31 17 -43 31 -43 24 0 20 24 -22
148 -15 45 -26 82 -24 82 2 0 24 -40 49 -90 63 -126 76 -119 50 25 -4 23 1 17
21 -22 40 -84 58 -64 30 32 -10 31 -11 44 -3 36 35 -35 36 17 2 78 -29 50 -29
51 -12 51 8 0 35 -34 61 -75 26 -41 52 -75 57 -75 16 0 10 49 -12 93 l-21 42
27 -28 c15 -16 29 -26 32 -24 2 3 -14 41 -37 86 -33 67 -38 82 -25 87 8 4 15
14 15 23 0 9 12 -4 26 -29 14 -25 42 -61 62 -81 20 -19 49 -56 64 -82 28 -48
58 -62 58 -27 0 27 -41 116 -101 221 -29 49 -49 92 -46 95 9 9 74 -60 95 -102
11 -22 25 -58 32 -82 13 -40 25 -53 32 -32 2 5 23 -8 48 -30 45 -39 70 -50 70
-29 0 6 -22 76 -50 156 -48 139 -60 205 -41 217 5 3 21 -13 34 -37 53 -89 86
-89 44 1 l-28 57 36 -43 c20 -23 41 -39 46 -36 5 3 -11 45 -37 92 -44 81 -45
85 -17 59 44 -41 47 -21 7 51 -26 45 -32 63 -21 59 9 -3 19 -2 21 2 5 8 -9 61
-25 93 -14 28 -11 30 21 13 32 -17 55 -12 46 10 -3 8 0 15 7 18 12 4 -44 97
-115 192 -20 27 -35 51 -33 54 2 2 26 -15 53 -38 28 -22 59 -41 70 -41 11 0
25 -7 32 -15 7 -8 17 -12 22 -9 17 11 -2 58 -49 118 l-45 59 36 -22 c60 -37
91 -8 41 39 -14 13 -25 28 -25 33 0 5 13 -5 30 -23 20 -21 37 -30 52 -28 35 5
32 30 -7 79 -21 27 -35 55 -35 72 0 16 -16 58 -37 94 -35 64 -35 65 -12 58 18
-5 8 10 -41 61 -61 63 -58 67 15 17 52 -36 42 -5 -20 59 -43 43 -54 59 -30 40
78 -63 91 -26 16 46 l-50 47 19 25 c14 19 16 29 8 44 -8 15 -8 21 1 24 6 2 11
7 11 11 0 10 -34 46 -61 65 -29 20 -19 52 12 36 11 -7 23 -9 26 -7 11 12 -22
50 -95 106 -50 39 -81 71 -89 92 l-13 33 43 -42 c24 -23 50 -42 58 -42 9 0 26
-12 40 -26 51 -56 129 -102 129 -76 0 4 -23 34 -51 65 -28 31 -48 57 -44 57 4
0 35 -22 69 -49 72 -57 103 -74 116 -66 6 4 27 -7 48 -23 65 -52 132 -78 132
-52 0 17 20 11 54 -15 18 -14 36 -25 39 -25 14 0 6 36 -14 60 -58 73 -56 77 7
13 53 -54 78 -73 98 -73 14 0 26 4 26 9 0 17 42 -2 79 -36 35 -33 76 -51 88
-40 3 3 -4 21 -15 39 l-21 33 27 0 c15 0 39 -11 52 -24 48 -45 89 -73 100 -66
17 10 13 18 -45 88 -31 37 -51 67 -46 67 18 0 141 -168 141 -192 0 -49 102
-301 226 -556 35 -73 64 -135 64 -137 0 -3 50 -93 111 -201 81 -142 132 -219
187 -282 84 -97 263 -275 362 -361 36 -31 105 -93 153 -138 48 -45 132 -114
185 -154 183 -137 493 -472 743 -804 114 -151 263 -404 280 -475 39 -160 47
-227 53 -427 6 -206 5 -214 -18 -277 -41 -115 -110 -211 -242 -342 -103 -101
-146 -136 -261 -207 -76 -47 -164 -98 -196 -113 -32 -15 -68 -40 -80 -56 -50
-67 -212 -160 -372 -214 -60 -20 -135 -47 -166 -60 -148 -61 -360 -104 -518
-104 -167 0 -305 -37 -396 -105 -18 -13 -53 -26 -85 -30 -71 -9 -207 -49 -290
-84 -130 -54 -290 -179 -354 -275 -41 -61 -45 -92 -16 -101 23 -7 19 -9 125
62 96 63 180 90 311 99 l92 7 -10 -47 c-8 -39 -7 -51 7 -72 21 -33 89 -63 139
-64 37 0 38 -1 31 -27 -19 -75 -4 -79 95 -28 67 36 67 36 136 25 38 -6 114
-11 169 -10 55 0 135 -2 177 -5 94 -8 254 8 326 31 50 16 55 16 81 1 21 -12
58 -16 157 -18 115 -2 135 1 182 21 50 22 56 22 80 8 34 -20 429 -34 525 -19
34 6 197 15 362 21 165 6 316 16 335 22 47 15 105 54 125 85 38 58 35 186 -9
328 -20 64 -21 227 -1 320 28 137 83 276 142 365 107 162 234 319 324 401 95
87 175 195 230 313 92 196 18 446 -207 702 -88 99 -215 251 -326 388 -96 118
-222 371 -321 646 -84 233 -96 372 -52 594 36 185 44 238 55 399 10 139 2 394
-16 498 -6 33 -4 37 21 43 22 6 36 1 64 -21 34 -27 115 -81 173 -117 28 -16
57 -93 73 -188 7 -44 38 -54 49 -16 6 22 7 22 26 -8 11 -16 24 -61 29 -98 5
-38 11 -70 13 -72 2 -2 17 3 33 12 23 12 31 12 40 2 6 -7 51 -59 99 -116 100
-116 158 -170 254 -239 77 -54 216 -170 312 -259 36 -33 106 -91 155 -129 50
-38 135 -105 190 -150 170 -139 509 -380 706 -501 246 -152 555 -469 789 -810
72 -105 73 -108 111 -262 22 -85 39 -177 39 -204 0 -58 -24 -205 -51 -307 -10
-41 -19 -83 -19 -93 0 -39 -143 -295 -225 -403 -133 -175 -211 -245 -351 -318
-87 -45 -124 -71 -139 -94 -11 -18 -45 -45 -75 -62 -53 -28 -276 -97 -390
-120 -125 -25 -363 -51 -475 -51 -157 -1 -300 -20 -317 -41 -9 -12 -35 -18
-88 -22 -41 -3 -97 -13 -125 -22 -201 -67 -424 -246 -491 -393 -26 -57 -28
-70 -15 -91 7 -11 19 -6 57 26 76 63 148 95 227 101 l69 5 -21 -39 c-22 -41
-28 -84 -11 -84 5 0 26 11 46 25 46 31 71 32 96 0 19 -24 79 -48 101 -40 7 3
54 9 106 14 89 8 97 7 123 -12 43 -32 201 -36 281 -8 55 19 61 19 90 5 36 -19
67 -20 217 -7 79 7 129 17 155 30 35 18 44 19 70 7 21 -9 85 -13 216 -14 179
0 187 1 235 25 l49 25 50 -22 c48 -21 61 -22 400 -23 345 0 351 0 412 24 168
64 233 208 233 519 0 119 5 167 24 252 27 118 119 338 171 410 35 48 128 138
268 260 48 41 103 99 123 128 21 28 40 52 44 52 4 0 21 31 39 68 92 201 56
421 -112 672 -66 99 -82 116 -217 225 -320 257 -413 416 -630 1073 -109 330
-120 396 -120 717 0 308 -30 606 -76 768 -4 12 0 17 14 17 11 0 30 9 43 20
l24 20 -23 19 c-12 11 -28 21 -35 24 -26 9 7 22 54 20 60 -3 62 8 12 59 -20
21 -32 38 -25 38 7 0 12 7 12 15 0 8 6 15 14 15 31 0 26 23 -13 61 -23 21 -40
39 -38 39 2 0 31 -11 65 -25 60 -24 92 -25 92 0 0 12 -46 47 -105 79 -26 15
-27 16 -5 10 14 -3 45 -15 69 -25 99 -43 120 -11 44 65 l-48 47 36 -6 c22 -4
46 -2 58 5 16 8 30 8 56 -1 25 -9 37 -10 47 -1 9 7 19 8 28 2 20 -13 57 -12
65 1 4 5 0 18 -9 28 -20 22 -20 31 0 31 9 0 18 9 21 19 5 18 7 18 40 4 40 -16
83 -10 83 11 0 8 -16 24 -35 36 -45 28 -36 43 14 25 34 -12 160 -36 205 -39
35 -2 27 22 -20 58 -38 29 -43 37 -29 42 10 4 40 0 68 -9 37 -12 54 -13 64 -5
20 16 16 27 -19 48 -40 24 -32 24 88 4 52 -9 101 -13 109 -10 29 11 14 33 -32
48 l-48 16 41 1 c22 1 49 7 59 15 12 9 32 12 52 9 37 -6 54 16 34 41 -9 11 -9
19 0 34 12 18 15 19 52 6 22 -8 46 -14 53 -14 26 0 14 28 -21 50 -39 24 -47
45 -13 37 13 -4 29 0 39 9 13 11 22 12 44 4 58 -22 69 27 18 82 l-25 26 29 6
c15 3 45 8 65 12 24 4 35 10 32 19 -3 7 3 15 13 19 10 3 29 13 43 21 25 15 25
15 -15 15 l-40 1 27 14 c38 21 150 46 243 53 81 7 104 22 49 33 l-29 6 25 11
c29 14 226 57 350 77 47 8 86 14 87 15 7 1 -3 46 -12 52 -5 4 -39 8 -75 9 -63
1 -60 2 90 33 85 17 161 35 168 39 25 16 2 23 -55 16 -61 -7 -106 3 -62 14
107 25 248 48 275 45 23 -3 34 0 34 9 0 7 -4 13 -10 13 -19 0 -10 16 18 32 15
8 45 19 67 23 52 9 145 53 145 68 0 7 15 17 33 23 17 6 89 30 158 53 87 29
128 47 131 59 3 10 28 25 61 36 32 11 57 22 57 26 0 8 92 34 155 45 86 14 115
25 115 45 0 12 -8 20 -22 22 -24 3 179 88 260 108 30 8 46 18 52 34 5 13 20
26 35 30 15 4 60 22 102 41 136 63 398 151 541 181 58 12 80 20 72 28 -10 10
9 18 140 52 161 41 172 45 167 65 -4 14 5 21 47 34 95 31 205 78 203 89 -1 6
49 29 110 51 78 27 111 44 108 53 -7 19 103 68 195 87 129 28 330 89 330 102
0 6 17 17 38 23 20 7 51 20 67 30 17 10 75 28 130 40 55 12 114 30 130 38 l30
16 -30 6 -30 5 40 13 c22 7 85 19 140 27 119 17 161 29 158 43 -1 5 20 16 47
22 55 13 67 30 21 30 -42 0 -48 18 -9 25 36 6 249 25 286 25 28 0 30 30 2 37
-33 9 -6 30 48 38 51 7 227 58 280 81 18 8 39 14 47 14 8 0 15 4 15 9 0 5 32
15 71 22 49 9 73 18 80 31 6 12 21 18 44 18 47 0 151 28 189 51 17 10 27 19
21 20 -36 2 84 30 192 44 70 9 143 20 162 24 37 7 55 31 24 31 -17 1 -16 2 2
13 13 8 95 13 250 15 140 2 234 8 240 14 7 7 6 12 -3 15 -24 9 0 23 41 23 55
0 119 18 111 31 -4 7 50 9 164 7 120 -2 174 0 183 9 18 18 -19 32 -119 47
l-87 12 50 7 c28 4 120 7 205 8 147 0 161 -1 282 -34 183 -51 495 -119 526
-115 21 2 27 8 27 28 0 21 -8 28 -60 47 -33 11 -136 40 -228 63 -92 24 -166
44 -164 46 6 6 252 -38 403 -72 147 -33 274 -44 274 -24 0 18 -62 50 -150 76
-47 14 -96 30 -110 35 -22 8 -22 8 5 3 17 -3 125 -28 240 -55 233 -54 247 -56
266 -33 20 25 0 45 -82 82 l-74 33 70 -6 c39 -4 101 -13 138 -21 119 -25 207
-15 207 22 0 8 -10 19 -22 24 -35 14 -2 11 106 -9 l99 -19 48 -53 c38 -44 50
-52 60 -41 10 10 11 19 2 43 l-12 30 47 -7 c26 -3 71 -21 101 -39 87 -55 110
-21 40 59 -22 25 -38 46 -35 46 28 0 187 -147 273 -253 15 -17 33 -27 49 -27
25 0 26 2 21 42 -3 23 -19 61 -36 85 -17 24 -27 43 -23 43 15 0 111 -107 161
-181 29 -42 61 -85 71 -94 23 -21 50 -13 50 14 0 18 -28 95 -48 131 -86 157
-94 174 -76 160 80 -62 125 -105 176 -173 33 -43 65 -76 71 -74 7 2 17 13 22
24 6 12 17 28 24 37 7 9 11 25 8 36 -4 14 0 20 12 20 22 0 41 19 41 42 0 10
-18 37 -39 61 l-39 42 44 -1 c41 -1 72 15 48 23 -10 3 -7 63 3 63 2 0 17 -7
33 -15 16 -8 35 -12 42 -10 8 3 48 -17 89 -44 107 -73 154 -64 93 16 -29 39
-25 42 17 11 24 -18 33 -20 48 -11 9 6 29 9 43 6 46 -9 43 17 -9 70 -31 33
-48 59 -46 69 5 19 42 -10 204 -159 82 -75 104 -76 93 -4 -8 55 -28 82 -204
270 -69 74 -118 130 -109 125 18 -10 274 -258 327 -316 54 -61 212 -139 238
-117 25 21 15 40 -68 132 -46 50 -73 85 -61 79 12 -7 25 -17 28 -22 3 -6 14
-10 24 -10 28 0 136 -76 171 -120 30 -38 87 -80 109 -80 22 0 10 37 -35 104
l-46 68 32 -7 c22 -5 36 -2 49 9 16 15 23 14 85 -19 72 -37 136 -47 136 -20 0
24 -195 207 -358 337 -40 32 -71 58 -67 58 3 0 93 -43 199 -95 107 -52 196
-95 200 -95 3 0 6 8 6 18 0 18 -63 71 -133 112 -21 12 -37 24 -35 25 6 6 198
-65 293 -109 102 -47 155 -58 155 -32 0 34 -115 106 -440 276 -118 61 -208
109 -199 107 340 -106 452 -145 627 -217 57 -23 110 -39 118 -36 28 11 10 50
-38 86 -26 19 -46 35 -45 36 1 2 32 -6 69 -16 55 -15 69 -16 78 -5 9 11 22 9
75 -8 51 -17 68 -18 77 -9 21 21 -3 44 -93 91 -46 24 -73 40 -59 37 55 -14
211 -36 219 -32 4 3 36 -4 70 -14 114 -36 153 -22 80 28 l-34 24 30 -8 c45
-11 260 -88 345 -124 47 -20 96 -33 131 -35 30 -1 64 -5 76 -9 24 -8 48 16 40
38 -9 23 -92 62 -306 143 -106 40 -201 78 -210 84 -14 9 -14 10 2 5 10 -3 102
-33 205 -65 230 -74 268 -83 318 -79 74 6 48 29 -146 125 -175 87 -211 110
-124 79 22 -7 102 -30 179 -51 77 -21 154 -44 172 -51 17 -8 68 -54 114 -104
60 -65 89 -90 104 -88 32 5 28 30 -15 82 -22 27 -39 50 -38 52 4 3 42 -5 223
-48 77 -18 148 -32 158 -30 29 6 19 38 -21 65 -61 40 -203 114 -245 127 -21 7
-36 14 -34 16 2 3 53 -12 113 -32 60 -20 129 -37 153 -38 44 -1 46 -2 105 -85
133 -183 145 -196 166 -175 16 16 -19 101 -80 192 l-51 77 106 -112 c101 -107
135 -132 135 -99 0 28 -19 63 -69 130 -28 37 -51 69 -51 70 0 2 7 7 16 10 11
4 36 -8 68 -32 63 -47 161 -102 181 -102 29 0 14 29 -36 72 -119 100 -119 100
-5 43 60 -30 118 -55 128 -55 38 0 16 29 -54 71 -59 35 -69 44 -51 47 13 2 29
12 36 22 12 17 17 16 82 -26 71 -46 81 -49 104 -35 36 23 4 57 -206 228 -31
25 -2 11 163 -79 87 -47 167 -88 178 -90 10 -2 23 5 29 14 9 13 7 22 -8 39
-26 28 -235 168 -331 220 -41 23 -73 43 -70 46 6 6 296 -155 412 -228 110 -69
138 -79 153 -51 13 25 6 34 -98 112 -69 52 -81 64 -67 72 13 7 41 -6 119 -56
56 -35 127 -83 158 -105 31 -23 64 -41 72 -41 25 0 30 19 12 48 -10 15 20 -10
67 -55 46 -46 91 -83 101 -83 49 0 -13 123 -112 220 -38 37 -48 50 -23 30 135
-111 138 -112 148 -86 3 8 -6 32 -20 53 -14 21 -26 41 -26 45 0 4 21 -2 47
-13 26 -11 63 -21 83 -22 30 -2 35 1 34 21 0 12 5 22 12 22 7 0 14 4 16 9 2 5
37 -7 78 -25 86 -39 125 -41 124 -7 0 18 3 20 17 12 10 -5 21 -14 24 -19 12
-19 66 -41 85 -35 11 4 20 13 20 22 0 9 -44 60 -97 115 -106 107 -104 109 29
42 26 -13 55 -24 65 -24 10 0 39 -15 64 -32 92 -66 179 -94 179 -58 0 12 -28
41 -80 83 l-35 28 45 -29 c61 -40 146 -82 165 -82 25 0 17 32 -18 68 l-32 34
49 -31 c28 -17 58 -31 68 -31 24 0 34 27 20 51 -10 16 -9 17 19 7 25 -8 34 -7
46 5 9 8 13 22 10 29 -3 8 -55 48 -116 89 -61 41 -111 77 -111 82 0 4 19 -6
42 -23 48 -35 62 -37 74 -11 8 18 15 15 84 -35 41 -31 93 -65 115 -76 22 -11
54 -33 71 -49 20 -19 36 -27 47 -23 38 14 12 77 -98 229 -110 154 -112 153 45
11 98 -90 173 -146 193 -146 37 0 12 40 -90 144 l-108 109 70 -48 c39 -27 92
-65 118 -86 50 -39 74 -41 79 -8 3 18 6 17 41 -12 33 -27 44 -30 87 -27 l50 3
47 -66 c102 -141 173 -202 173 -149 0 29 -28 79 -106 189 l-66 94 38 -23 c22
-13 66 -49 99 -82 60 -57 91 -71 101 -44 9 22 -32 88 -92 146 -30 30 -65 69
-77 85 -24 35 123 -98 233 -209 70 -71 101 -89 115 -66 8 13 -16 56 -64 118
-23 28 -41 54 -41 57 0 5 106 -51 184 -97 33 -20 52 -26 59 -19 18 18 -18 56
-103 112 -44 28 -78 54 -75 57 2 3 11 -1 20 -8 8 -7 24 -10 36 -7 23 6 125
-38 207 -90 99 -62 110 -36 23 52 -52 52 -57 61 -43 71 13 10 25 4 69 -28 54
-41 83 -45 83 -11 -1 10 -23 43 -50 73 -27 30 -47 56 -45 58 1 2 43 -17 91
-41 49 -24 95 -42 101 -40 7 3 25 -4 40 -14 47 -31 130 -73 146 -73 9 0 22 7
30 15 14 13 19 13 51 0 42 -18 70 -8 81 26 5 14 12 18 23 14 91 -38 149 -5 85
48 -58 48 -137 124 -165 159 -26 34 -16 28 99 -49 70 -48 146 -99 167 -115 38
-28 86 -38 86 -18 0 17 33 11 56 -11 28 -26 108 -43 135 -29 29 16 23 40 -22
86 l-41 41 49 -12 c42 -11 50 -11 60 3 11 14 24 5 100 -68 49 -46 104 -101
124 -121 36 -38 77 -56 104 -45 20 7 19 35 -2 58 -19 22 -6 23 21 3 11 -8 28
-15 38 -15 38 0 19 31 -106 172 -64 71 -126 154 -126 169 0 11 78 -56 190
-161 73 -69 134 -111 167 -113 44 -3 40 27 -11 81 -53 56 -61 76 -15 38 37
-32 76 -43 99 -28 14 9 24 4 51 -24 49 -51 79 -43 43 11 -9 14 -20 40 -24 60
l-8 35 24 -19 c13 -10 46 -52 73 -92 52 -79 97 -127 107 -116 4 4 -3 34 -15
67 -13 34 -20 68 -17 77 4 8 -3 30 -15 49 -31 51 -17 41 28 -18 42 -57 86
-128 118 -193 24 -48 48 -55 70 -22 15 23 14 29 -5 87 -12 35 -46 119 -75 188
-30 69 -53 127 -51 129 2 2 26 -29 52 -69 32 -48 55 -72 65 -70 11 1 34 -24
68 -78 52 -80 78 -98 88 -60 7 28 16 25 38 -12 20 -36 33 -48 53 -48 31 0 20
37 -41 148 -81 147 -95 185 -78 206 12 14 21 5 70 -67 31 -45 73 -112 94 -148
39 -71 60 -94 77 -84 17 11 11 58 -16 115 -59 124 -94 215 -75 190 11 -14 43
-80 71 -146 70 -168 114 -224 148 -191 14 15 14 20 -1 57 -14 37 -14 40 0 29
13 -11 17 -10 28 4 18 25 31 21 45 -12 16 -39 44 -64 67 -59 23 4 23 49 1 128
-9 30 -14 57 -12 59 2 2 15 -1 28 -9 38 -20 56 -7 56 39 0 27 5 41 16 45 19 7
17 9 34 -24 24 -46 73 -100 91 -100 35 0 51 29 44 81 -4 27 -3 49 2 48 14 -1
114 -128 159 -203 55 -92 120 -166 145 -166 26 0 24 18 -11 92 -35 73 -38 103
-11 117 16 9 23 4 45 -30 68 -102 133 -59 91 61 -21 58 -19 71 5 32 21 -35 66
-45 76 -17 9 23 19 18 48 -25 20 -30 33 -40 53 -40 25 0 26 2 20 45 -5 34 -3
45 7 45 7 0 19 7 26 15 12 14 15 14 30 0 28 -25 69 -19 81 11 l10 27 23 -22
c13 -12 30 -19 38 -16 10 4 47 -25 109 -88 104 -103 172 -157 201 -157 30 0
21 26 -37 112 -31 44 -54 83 -51 85 12 12 41 -21 108 -122 40 -60 79 -111 87
-113 25 -8 4 57 -48 151 -27 48 -45 87 -40 87 18 0 9 45 -17 81 -24 35 -26 67
-3 53 11 -6 185 -265 241 -358 43 -70 64 -85 55 -37 -22 101 -22 100 24 34 24
-35 50 -63 57 -63 15 0 12 6 -63 130 -29 47 -58 97 -64 111 l-12 24 21 -25
c11 -14 51 -68 88 -120 65 -92 67 -94 72 -65 4 20 8 26 13 18 5 -7 18 -13 31
-13 15 0 27 -9 34 -25 15 -31 37 -41 57 -25 9 7 17 11 19 9 2 -2 25 -32 50
-66 46 -64 76 -80 76 -43 0 31 -42 108 -125 231 -41 60 -75 112 -75 116 0 4
19 -11 43 -33 23 -22 59 -53 79 -68 21 -15 55 -53 77 -84 74 -109 106 -111 44
-4 -40 69 -40 69 -21 92 11 13 17 32 15 41 -9 34 21 27 63 -16 47 -48 74 -60
90 -40 8 10 8 20 -1 36 -10 20 -6 18 27 -8 21 -18 79 -68 128 -113 57 -51 95
-79 105 -76 10 4 36 -14 69 -44 57 -54 71 -51 58 12 -6 30 -5 30 12 15 26 -24
36 -9 15 22 -52 82 -49 75 -27 63 12 -6 29 -9 40 -6 13 3 29 -5 48 -25 30 -31
56 -40 56 -20 0 13 -31 58 -84 122 -21 26 -37 50 -34 53 5 5 125 -141 179
-217 10 -15 21 -20 33 -16 19 7 15 47 -11 122 -9 26 -10 36 -2 28 6 -6 17 -9
24 -7 7 3 16 1 20 -5 11 -18 25 -12 25 10 0 12 7 27 16 34 15 11 15 14 0 43
-31 61 -8 32 62 -76 80 -125 95 -140 117 -122 13 11 8 27 -45 126 -33 62 -60
117 -60 123 0 29 23 2 78 -93 63 -107 107 -155 126 -136 7 7 2 28 -17 68 -31
64 -14 49 45 -40 30 -46 67 -64 69 -35 3 27 -3 60 -17 92 -23 55 -16 63 19 23
17 -20 40 -38 51 -40 12 -2 25 -21 37 -54 27 -72 99 -121 99 -66 0 12 3 13 12
4 7 -7 25 -12 42 -12 21 0 39 -10 62 -36 39 -42 69 -43 69 -2 -1 24 4 22 69
-38 39 -35 74 -64 79 -64 5 0 22 -11 39 -25 35 -30 68 -32 75 -6 5 19 6 19 39
-1 18 -11 43 -18 56 -16 21 3 16 11 -50 79 -63 67 -77 89 -52 89 4 0 38 -22
76 -50 55 -40 70 -47 82 -37 12 9 22 3 57 -37 49 -56 69 -48 26 11 -16 22 -32
59 -36 84 -4 24 -12 53 -18 64 -7 14 1 10 27 -13 20 -17 40 -32 44 -32 19 0
44 -70 39 -107 -6 -37 5 -108 18 -121 8 -9 25 19 25 43 1 47 16 48 58 3 34
-36 42 -40 47 -26 5 11 -5 36 -24 68 -39 64 -46 164 -7 116 6 -7 42 -55 80
-105 124 -165 133 -91 10 80 -20 28 -34 59 -34 75 0 30 12 12 126 -191 22 -38
47 -71 57 -73 25 -5 22 18 -13 99 -25 60 -27 69 -12 67 11 -2 16 3 15 16 -1
17 0 17 14 3 8 -8 39 -50 67 -93 53 -81 86 -105 86 -62 0 13 -10 43 -21 68
-49 105 -48 120 2 33 47 -84 157 -250 170 -258 24 -16 32 13 16 57 -9 24 -14
53 -11 65 4 14 -2 36 -16 58 -30 48 -20 55 15 10 19 -25 33 -35 48 -33 36 5
30 30 -22 110 l-50 77 23 14 c21 14 24 12 72 -42 28 -31 67 -79 87 -107 49
-68 107 -92 107 -45 0 9 -6 23 -12 30 -11 11 -9 12 7 3 11 -6 29 -20 40 -33
31 -35 96 -79 117 -79 28 0 21 27 -20 78 -22 26 -49 65 -61 87 l-23 40 33 -40
c64 -76 152 -165 165 -165 7 0 15 4 18 9 6 9 -7 28 -112 161 -35 44 -61 80
-58 80 3 0 40 -42 82 -93 104 -125 220 -247 237 -247 21 0 37 22 37 49 0 24 1
24 40 -14 44 -43 60 -40 43 5 -6 17 -9 30 -6 30 3 0 43 -34 90 -75 46 -41 93
-75 103 -75 26 0 25 8 -5 52 -14 20 -25 45 -25 54 0 10 -11 30 -25 44 -21 22
-23 29 -12 38 10 9 29 -5 86 -64 62 -65 77 -75 102 -72 25 2 38 -6 78 -50 44
-47 52 -52 70 -42 12 6 21 18 21 28 0 9 -32 57 -70 105 -39 48 -67 87 -63 86
4 0 42 -40 83 -88 41 -49 89 -95 107 -104 l32 -16 -10 27 c-6 15 -23 44 -40
64 -16 20 -29 39 -29 42 0 14 82 -40 120 -79 25 -26 57 -53 72 -61 58 -30 35
9 -64 112 -108 111 -118 124 -96 124 7 0 52 -39 98 -86 89 -89 210 -182 210
-161 0 7 -25 43 -56 80 -62 75 -57 89 8 26 57 -55 198 -169 209 -169 16 0 -17
52 -88 136 -37 45 -83 104 -102 130 l-34 49 49 -46 c27 -25 104 -98 172 -162
113 -107 155 -134 164 -106 4 13 40 -5 95 -49 47 -37 73 -41 73 -12 0 18 1 18
30 2 23 -13 32 -14 41 -5 10 10 1 26 -41 75 l-54 63 60 -55 c102 -94 162 -148
174 -155 6 -4 -2 19 -18 52 -17 33 -76 109 -138 178 -60 66 -102 115 -94 109
52 -39 246 -198 300 -246 106 -95 139 -69 48 36 l-53 61 50 -42 c27 -23 51
-40 53 -38 5 5 -48 76 -92 123 -70 75 10 20 152 -106 76 -67 109 -76 100 -27
-3 14 -4 25 -2 25 1 0 28 -22 60 -50 31 -27 72 -59 90 -70 l34 -19 -16 32 -17
32 24 -21 c13 -12 34 -27 47 -33 18 -10 22 -9 22 4 0 9 -5 25 -11 37 -16 30
-4 33 35 8 20 -12 36 -17 36 -11 0 7 10 5 25 -5 37 -24 40 -12 13 48 -61 133
-435 448 -708 595 -68 37 -267 121 -330 138 -14 4 -87 34 -164 67 -211 89
-643 230 -871 283 -110 25 -222 55 -250 65 -27 10 -66 22 -85 25 -19 4 -188
43 -375 87 -186 44 -362 82 -390 84 -77 8 -472 84 -976 189 -64 13 -219 42
-345 64 -126 22 -279 51 -340 65 -60 13 -232 45 -381 70 -149 26 -320 57 -380
71 -139 32 -583 110 -769 135 -80 11 -211 31 -292 44 -168 28 -415 59 -647 80
-192 18 -456 49 -660 77 -109 15 -242 23 -485 29 -333 8 -415 12 -1020 50
-497 32 -873 50 -1030 50 -80 0 -208 7 -285 15 -201 22 -762 43 -1330 51 -404
5 -527 4 -700 -10 -380 -29 -682 -37 -1290 -34 -583 2 -935 -8 -1175 -33 -73
-8 -410 -9 -1100 -6 -1166 6 -1681 18 -1963 47 -174 17 -272 20 -744 20 -429
0 -606 4 -845 20 -359 23 -750 38 -1318 50 -399 9 -600 19 -760 40 -41 5 -136
14 -210 20 -74 6 -146 13 -160 15 -14 3 -101 12 -195 20 -93 8 -246 23 -340
34 -385 46 -781 71 -1111 71 -157 0 -211 4 -283 20 -52 11 -181 26 -308 34
-204 14 -336 20 -978 47 -383 16 -564 28 -625 44 -165 41 -449 85 -557 85 -23
0 -66 6 -95 12 l-53 13 59 5 c33 3 61 10 63 15 5 16 -169 45 -268 45 -63 0
-88 4 -92 13 -10 28 -270 66 -552 83 -88 5 -123 11 -131 21 -8 12 -52 17 -195
24 -251 13 -330 21 -499 52 -185 33 -350 47 -570 49 -147 1 -191 -2 -274 -20
-54 -12 -115 -21 -135 -21 -29 1 -24 3 21 10 31 4 84 15 116 24 33 8 69 15 80
15 26 0 48 25 31 36 -17 10 -148 19 -264 16 -95 -1 -161 -8 -494 -50 -118 -15
-140 -15 -122 -4 11 8 21 19 21 25 0 17 -211 0 -357 -29 -133 -27 -164 -27
-127 0 10 8 17 17 14 19 -3 3 -70 -4 -150 -15 -130 -18 -179 -19 -475 -14
-181 3 -438 13 -570 21 -132 7 -323 19 -425 25 -102 6 -295 17 -430 25 -295
18 -397 19 -645 3 -150 -9 -263 -8 -550 3 -198 8 -472 13 -610 12 -219 -1
-245 0 -212 12 42 14 53 22 45 30 -10 10 -284 -16 -415 -38 -73 -13 -133 -20
-133 -15 0 4 -15 8 -33 8 -44 0 -228 -27 -297 -44 -117 -29 -115 -29 -101 -12
18 21 0 21 -40 1 -16 -9 -60 -18 -97 -21 -62 -5 -65 -4 -42 9 14 8 69 29 123
47 54 18 96 34 93 37 -11 11 -147 -21 -246 -58 -111 -42 -230 -65 -180 -35 36
22 6 21 -82 -4 -83 -23 -140 -25 -168 -8 -15 10 -43 8 -142 -9 -68 -12 -188
-25 -268 -28 -80 -3 -239 -15 -355 -25 -115 -11 -291 -24 -390 -30 -99 -6
-288 -26 -420 -45 -132 -19 -296 -41 -365 -50 -69 -8 -201 -26 -295 -40 -93
-13 -260 -31 -370 -40 -110 -10 -229 -24 -265 -32 -84 -18 -190 -26 -190 -13
0 13 -68 13 -122 0 -24 -5 -90 -20 -147 -31 -57 -12 -198 -52 -313 -90 -115
-38 -216 -69 -223 -69 -9 0 -12 6 -9 15 4 10 0 15 -10 15 -27 0 -244 -56 -351
-90 -55 -18 -107 -35 -115 -37 -8 -3 10 9 40 27 60 34 87 56 78 65 -6 6 -165
-52 -298 -110 -93 -41 -251 -97 -257 -91 -2 1 32 17 74 34 127 50 213 92 213
102 0 26 -83 7 -263 -61 -60 -23 -111 -39 -114 -36 -3 3 32 30 78 59 143 91
41 68 -136 -30 -58 -32 -92 -46 -97 -39 -4 7 -22 0 -50 -19 -73 -50 -74 -49
-24 10 33 39 45 61 39 67 -16 16 -80 -6 -127 -42 -69 -54 -71 -55 -42 -16 16
21 26 40 23 43 -11 11 -51 -24 -128 -113 -73 -85 -99 -107 -99 -85 0 4 18 25
39 46 53 52 103 123 92 130 -10 7 -90 -54 -136 -104 -16 -17 -48 -46 -70 -63
l-40 -32 22 29 c13 15 20 32 17 37 -9 14 -38 -6 -78 -56 -38 -46 -81 -75 -112
-75 -15 0 -13 5 9 28 28 29 35 52 16 52 -6 0 -38 -23 -70 -51 -57 -49 -60 -50
-191 -77 -108 -22 -149 -26 -218 -21 -47 3 -79 6 -72 7 6 1 12 9 12 18 0 16
-14 16 -115 -3 -29 -5 -29 -4 -10 11 27 21 9 21 -86 1 -78 -17 -97 -15 -49 5
43 18 39 34 -7 24 -21 -5 -71 -8 -111 -7 -57 1 -83 7 -122 27 -72 38 -146 55
-308 71 -94 10 -148 20 -158 29 -22 23 -255 93 -433 131 -189 40 -168 31 -541
258 -291 178 -403 256 -690 477 -412 318 -853 701 -918 796 -24 35 -60 73 -80
85 -47 28 -122 99 -122 116 0 7 -17 24 -39 38 -21 14 -43 37 -49 50 -6 13 -35
41 -64 63 -29 22 -62 50 -73 62 l-20 23 23 -12 c33 -18 39 -6 14 28 -11 15
-24 44 -27 64 -7 35 -50 84 -127 144 -16 11 -28 27 -28 35 0 8 -17 34 -37 59
-65 78 -69 84 -30 51 39 -33 57 -40 57 -21 0 47 -157 211 -286 297 -18 11 -17
12 5 6 28 -7 44 12 30 37 -5 10 -28 25 -52 34 -24 9 -47 26 -52 38 -6 13 -31
30 -62 43 -33 13 -76 43 -115 80 -87 83 -167 135 -353 230 -103 52 -190 88
-245 103 -47 12 -139 41 -205 65 -93 34 -160 50 -300 72 -99 16 -172 30 -162
32 9 2 17 7 17 11 0 16 -75 20 -177 10 -57 -6 -109 -8 -116 -6 -6 3 3 6 22 6
42 1 111 21 111 33 0 8 -121 9 -190 1z m2564 -3843 l7 -25 -14 25 c-8 14 -17
36 -21 50 l-7 25 14 -25 c8 -14 17 -36 21 -50z m41126 -1180 c6 -11 8 -20 6
-20 -3 0 -10 9 -16 20 -6 11 -8 20 -6 20 3 0 10 -9 16 -20z m-7805 -165 c89
-35 160 -81 205 -131 l25 -27 -35 25 c-19 15 -93 58 -165 97 -71 39 -127 71
-123 71 4 0 46 -16 93 -35z m-31396 -291 c12 -19 16 -32 11 -29 -11 7 -43 65
-36 65 2 0 13 -16 25 -36z m1320 -728 c31 -70 20 -67 -20 6 -42 77 -57 123
-57 168 0 29 4 22 28 -45 15 -44 37 -102 49 -129z m23066 -81 c67 -13 133 -29
146 -35 l24 -11 -25 6 c-14 3 -77 14 -140 25 -107 19 -174 38 -141 39 7 1 68
-10 136 -24z m908 8 c-7 -2 -19 -2 -25 0 -7 3 -2 5 12 5 14 0 19 -2 13 -5z"/>
</g>
</svg>
