<?xml version="1.0" standalone="no"?>
<!DOCTYPE svg PUBLIC "-//W3C//DTD SVG 20010904//EN"
 "http://www.w3.org/TR/2001/REC-SVG-20010904/DTD/svg10.dtd">
<svg version="1.0" xmlns="http://www.w3.org/2000/svg"
 width="1536.000000pt" height="553.000000pt" viewBox="0 0 1536.000000 553.000000"
 preserveAspectRatio="xMidYMid meet">
<metadata>
Created by potrace 1.16, written by Peter Selinger 2001-2019
</metadata>
<g transform="translate(0.000000,553.000000) scale(0.100000,-0.100000)"
fill="#000000" stroke="none">
<path d="M1850 5505 c-17 -31 -40 -33 -40 -2 0 19 -2 18 -20 -10 -22 -36 -40
-43 -40 -15 -1 12 -6 8 -17 -12 l-15 -29 -13 23 -13 24 -4 -23 c-5 -36 -34
-50 -52 -26 -15 19 -15 19 -16 -7 0 -18 -5 -28 -15 -28 -8 0 -15 9 -15 21 0
11 -4 17 -10 14 -5 -3 -10 -17 -10 -31 0 -30 -23 -31 -39 -1 -11 21 -11 21 -8
-6 6 -37 -11 -45 -35 -16 l-20 24 6 -27 c7 -29 -10 -49 -20 -24 -9 23 -21 20
-20 -5 1 -12 -5 -24 -11 -26 -7 -3 -13 2 -13 11 0 9 -4 16 -10 16 -5 0 -10
-11 -10 -25 0 -31 -15 -33 -25 -2 -7 19 -9 17 -12 -15 -4 -36 -23 -55 -23 -23
0 8 -4 15 -10 15 -5 0 -10 -9 -10 -20 0 -11 -4 -20 -10 -20 -5 0 -10 7 -10 15
0 8 -4 15 -10 15 -5 0 -10 -15 -10 -34 0 -40 -19 -58 -27 -27 -7 28 -23 27
-23 -1 0 -13 -5 -30 -10 -38 -8 -13 -11 -11 -16 8 -9 33 -24 27 -24 -10 0 -30
-1 -31 -15 -12 -14 18 -14 18 -15 -8 0 -16 -4 -28 -10 -28 -5 0 -10 5 -10 12
0 6 -9 2 -20 -10 -28 -29 -57 -35 -150 -30 l-79 5 -21 -63 -21 -64 -132 -63
c-155 -74 -279 -150 -420 -255 -113 -84 -232 -194 -252 -232 -18 -37 -29 -213
-15 -255 10 -31 16 -35 46 -35 24 0 42 -8 57 -24 12 -13 33 -27 46 -31 13 -4
55 -36 92 -71 102 -95 111 -96 379 -38 124 28 127 28 490 26 259 -1 399 3 480
13 63 7 171 17 240 20 92 5 144 13 198 31 91 30 172 31 300 2 89 -19 101 -25
147 -68 90 -85 265 -204 330 -224 93 -28 174 -75 241 -141 52 -51 67 -75 103
-160 31 -75 60 -122 113 -189 87 -108 160 -166 257 -207 71 -30 193 -112 238
-160 38 -42 53 -92 53 -183 0 -132 -18 -231 -64 -356 -48 -127 -59 -187 -48
-240 l8 -35 19 48 c10 26 30 67 45 90 15 23 30 65 33 92 4 29 16 58 27 70 20
19 20 19 17 -165 -2 -170 0 -188 18 -219 11 -19 25 -36 31 -38 11 -4 22 112
30 324 2 56 8 113 14 128 5 14 17 81 25 149 15 117 35 205 54 235 12 19 37
-19 63 -99 18 -54 22 -96 26 -257 5 -210 8 -220 56 -163 30 37 40 96 32 193
-7 76 5 123 18 70 4 -15 31 -77 59 -138 28 -60 58 -137 68 -170 19 -72 38 -77
59 -18 20 59 6 120 -66 286 -44 102 -59 147 -62 196 l-4 63 32 -7 c18 -4 128
-38 244 -75 116 -37 246 -76 290 -86 109 -25 110 -27 112 -226 3 -179 11 -213
75 -323 22 -39 50 -88 61 -109 21 -41 58 -239 58 -314 0 -70 -28 -174 -71
-257 -21 -42 -39 -90 -39 -106 0 -48 -21 -132 -47 -184 -16 -31 -56 -78 -106
-125 -108 -101 -177 -171 -205 -208 -120 -162 -621 -362 -909 -362 -117 0
-254 -16 -303 -36 -47 -19 -86 -61 -95 -104 -4 -18 -5 -33 -3 -35 2 -2 24 3
50 12 44 14 51 13 130 -8 74 -20 118 -23 408 -31 456 -11 597 0 637 49 20 24
25 26 43 15 27 -17 27 -17 49 25 10 21 49 72 86 113 81 90 122 151 137 205 9
30 47 77 149 185 162 171 250 275 325 385 62 92 63 97 38 275 -27 190 -9 270
97 430 102 156 139 248 139 347 0 63 -4 61 160 99 57 14 155 45 216 69 100 39
231 74 237 64 77 -128 173 -232 277 -300 80 -53 307 -178 361 -199 32 -13 120
-26 275 -40 267 -25 353 -40 472 -81 127 -45 217 -95 262 -147 22 -25 40 -48
40 -52 0 -5 24 -22 53 -38 89 -51 240 -227 301 -352 27 -53 130 -371 181 -554
19 -72 47 -156 62 -188 29 -66 28 -103 -9 -177 -32 -64 -69 -81 -178 -81 -108
0 -146 -17 -177 -80 -34 -66 -31 -79 16 -73 25 4 69 -4 131 -22 92 -27 117
-27 182 0 12 5 21 -2 33 -24 19 -38 42 -40 51 -3 10 39 20 49 58 56 44 8 126
63 126 84 0 16 13 38 63 111 12 18 16 37 12 61 -5 29 0 44 27 85 31 46 33 56
36 152 3 77 0 115 -13 157 -21 67 -75 132 -128 156 -33 15 -44 28 -63 72 -13
29 -23 65 -24 80 l0 28 33 -20 c54 -33 149 -21 186 24 13 15 13 19 0 27 -8 5
-25 9 -39 9 -38 0 -127 46 -134 68 -4 11 -25 27 -50 36 -74 28 -135 104 -219
272 -47 93 -96 175 -131 218 -31 37 -75 100 -98 140 -66 116 -105 146 -185
146 -86 0 -215 51 -318 125 -96 68 -175 162 -317 375 -72 107 -140 205 -151
218 -20 22 -20 22 -1 37 22 16 108 46 204 70 90 23 115 38 195 115 80 76 96
86 220 129 50 18 133 54 185 80 250 127 541 171 1515 226 440 25 697 41 1120
70 645 43 985 23 1865 -111 162 -25 403 -60 535 -79 457 -66 638 -120 1268
-376 443 -181 594 -235 831 -295 136 -34 143 -31 77 39 -73 78 -160 134 -343
221 -84 40 -170 88 -191 107 -44 39 -315 189 -397 220 -30 11 -86 29 -125 39
-38 10 -91 30 -116 44 -26 15 -78 37 -116 50 -38 13 -82 30 -99 38 -16 9 -54
21 -84 28 -30 7 -138 39 -240 72 -102 33 -225 69 -274 79 -48 11 -95 26 -103
34 -8 8 -23 15 -34 15 -22 0 -75 25 -99 46 -28 24 -314 113 -322 100 -6 -8
-10 -7 -17 3 -5 7 -13 11 -19 7 -6 -3 -13 -2 -17 4 -4 6 -11 8 -16 4 -5 -3
-24 4 -42 15 -21 13 -73 25 -147 36 -226 31 -253 36 -269 44 -9 4 -39 8 -68 9
-28 1 -103 18 -165 37 -253 78 -595 156 -710 163 -49 2 -88 8 -88 12 0 3 -17
6 -37 5 -21 -1 -92 14 -158 32 -86 25 -144 35 -206 37 -47 1 -90 6 -96 9 -6 4
-25 2 -43 -5 -27 -9 -38 -8 -61 6 -35 21 -159 36 -290 35 -54 -1 -102 2 -108
6 -6 3 -11 -1 -11 -9 0 -19 -14 -20 -43 -3 -12 6 -40 13 -62 14 -79 4 -230 21
-258 28 -16 4 -40 2 -58 -5 -25 -11 -32 -11 -39 -1 -5 8 -10 9 -14 3 -4 -6
-20 -5 -46 4 -44 15 -249 37 -345 36 -33 0 -66 5 -74 11 -7 6 -36 12 -65 13
-70 3 -271 32 -328 48 -25 7 -52 10 -59 6 -7 -5 -22 -4 -34 0 -15 6 -27 4 -35
-3 -9 -9 -14 -9 -17 -1 -2 6 -15 9 -28 6 -17 -3 -25 0 -25 9 0 11 -2 11 -10
-1 -9 -13 -11 -13 -20 1 -6 10 -21 15 -44 13 -21 -2 -36 1 -36 8 0 7 -5 6 -15
-2 -12 -10 -15 -10 -15 0 0 8 -11 11 -32 7 -18 -2 -41 -1 -50 4 -9 5 -60 18
-113 29 -53 10 -111 28 -130 39 -24 14 -36 16 -44 8 -8 -8 -11 -7 -11 2 0 8
-6 11 -15 7 -9 -3 -15 1 -15 11 0 13 -2 13 -16 2 -14 -11 -18 -10 -31 6 -7 11
-22 19 -33 17 -10 -2 -21 2 -25 8 -3 5 -15 10 -27 10 -14 0 -18 5 -14 15 7 18
-15 20 -32 3 -9 -9 -12 -8 -12 6 0 13 -5 16 -20 11 -12 -4 -20 -2 -20 5 0 8
-9 10 -25 6 -19 -5 -25 -2 -25 9 0 12 -4 14 -19 5 -26 -13 -31 -13 -31 5 0 9
-9 15 -22 15 -13 0 -34 9 -48 20 -14 11 -41 20 -60 20 -19 0 -64 7 -100 15
-36 8 -81 14 -101 15 -20 0 -66 11 -102 25 -160 60 -352 97 -672 130 -457 48
-570 58 -690 61 -66 2 -147 8 -180 14 -33 5 -113 14 -177 20 -64 6 -124 13
-132 16 -9 3 -16 1 -16 -6 0 -6 -4 -9 -9 -5 -14 8 -677 10 -871 3 -305 -12
-625 -58 -703 -100 -11 -6 -34 -12 -51 -13 -17 -2 -47 -10 -66 -18 -64 -27
-192 -48 -349 -56 -139 -8 -160 -7 -191 9 -19 10 -73 33 -120 52 -47 19 -105
48 -130 63 -25 16 -47 30 -50 30 -21 5 -58 30 -54 36 3 5 -4 9 -15 9 -12 0
-21 4 -21 10 0 5 -25 37 -55 71 -30 34 -55 68 -55 75 0 7 -12 21 -27 31 -16
10 -30 20 -33 23 -3 3 -18 12 -35 20 -16 9 -32 26 -35 40 -5 20 -8 22 -15 10
-7 -11 -12 -7 -24 21 -18 39 -133 149 -156 149 -9 0 -18 7 -21 15 -4 9 -19 15
-40 15 -21 0 -38 6 -45 18 -8 13 -21 16 -60 14 -46 -4 -49 -2 -50 20 0 12 -3
17 -6 11 -2 -7 -20 -13 -39 -13 -27 0 -34 4 -34 20 0 23 -15 27 -24 5 -8 -23
-57 -19 -63 5 -5 18 -7 18 -26 5 -28 -19 -54 -19 -65 1 -8 14 -10 14 -21 0
-20 -24 -50 -21 -44 4 7 27 -1 25 -17 -5z"/>
</g>
</svg>
