<?xml version="1.0" standalone="no"?>
<!DOCTYPE svg PUBLIC "-//W3C//DTD SVG 20010904//EN"
 "http://www.w3.org/TR/2001/REC-SVG-20010904/DTD/svg10.dtd">
<svg version="1.0" xmlns="http://www.w3.org/2000/svg"
 width="4751.000000pt" height="1431.000000pt" viewBox="0 0 4751.000000 1431.000000"
 preserveAspectRatio="xMidYMid meet">
<metadata>
Created by potrace 1.16, written by Peter Selinger 2001-2019
</metadata>
<g transform="translate(0.000000,1431.000000) scale(0.100000,-0.100000)"
fill="#000000" stroke="none">
<path d="M2779 14276 c-58 -40 -126 -155 -168 -287 -18 -57 -52 -82 -117 -87
-41 -3 -59 -1 -65 9 -12 19 -11 210 1 284 16 101 -2 119 -65 63 -45 -39 -84
-115 -119 -231 -30 -98 -49 -123 -100 -133 -75 -14 -88 13 -91 191 -2 72 -3
136 -4 143 -2 20 -26 14 -53 -15 -41 -44 -67 -106 -88 -211 -24 -117 -46 -145
-114 -140 -36 3 -43 7 -58 38 -9 19 -22 73 -27 119 -6 47 -15 89 -20 94 -15
15 -58 -38 -76 -92 -8 -26 -19 -78 -24 -116 -6 -53 -13 -72 -30 -86 -28 -23
-96 -42 -121 -34 -17 5 -50 79 -50 111 0 28 -20 63 -33 58 -23 -8 -57 -79 -63
-130 -11 -95 -9 -93 -92 -131 -42 -20 -107 -55 -144 -79 -96 -62 -134 -79
-229 -108 -199 -59 -209 -64 -290 -145 -79 -79 -156 -185 -280 -384 -115 -184
-118 -190 -130 -232 -6 -22 -25 -65 -43 -95 -61 -101 -69 -123 -70 -187 -1
-49 4 -68 22 -92 12 -16 22 -34 22 -40 0 -18 60 -59 111 -76 39 -13 74 -16
147 -13 111 5 127 12 265 113 52 38 109 71 140 80 65 19 169 19 301 -1 76 -11
203 -16 473 -18 321 -2 387 -5 518 -25 433 -65 682 -162 1240 -486 121 -71
342 -198 490 -283 343 -197 528 -310 786 -483 486 -325 1099 -778 1869 -1379
1112 -869 1599 -1220 2315 -1670 474 -298 712 -428 1535 -845 759 -384 935
-479 1206 -648 239 -149 401 -267 515 -375 112 -107 169 -185 198 -274 26 -82
66 -290 86 -448 36 -286 65 -378 226 -729 226 -488 259 -614 279 -1061 6 -124
17 -360 26 -525 17 -345 13 -398 -43 -588 -105 -359 -122 -430 -203 -852 -17
-88 -51 -244 -76 -347 -33 -138 -51 -245 -69 -410 -29 -262 -36 -297 -70 -374
-38 -86 -105 -319 -112 -390 -8 -87 0 -112 45 -131 32 -14 101 -16 520 -17
550 -1 506 -9 517 88 10 84 10 353 1 481 -17 228 12 348 193 815 152 393 210
534 319 765 147 315 163 393 142 692 -12 179 -12 205 9 415 13 141 21 292 21
411 l0 188 43 -25 c77 -46 271 -184 352 -251 169 -140 329 -301 497 -501 228
-272 234 -280 260 -344 21 -52 22 -70 24 -380 2 -270 6 -366 28 -571 14 -136
30 -341 36 -456 10 -203 26 -329 71 -539 13 -63 24 -164 29 -279 14 -292 57
-494 112 -524 37 -21 82 -8 277 80 86 39 266 120 401 181 276 123 290 131 290
158 0 34 -98 288 -150 392 -85 165 -95 217 -95 468 0 317 39 751 110 1215 45
297 32 468 -46 635 -16 35 -81 141 -143 235 -62 93 -150 234 -195 313 -89 157
-173 285 -264 405 -32 43 -57 80 -55 82 2 2 240 -36 528 -85 289 -50 624 -104
745 -120 121 -17 234 -33 251 -35 l31 -5 6 -173 c6 -201 29 -310 104 -497 94
-236 160 -356 490 -889 266 -429 305 -500 330 -594 21 -83 21 -220 -1 -272 -9
-22 -20 -69 -23 -105 -11 -123 -67 -196 -264 -343 -114 -84 -117 -87 -161
-175 -56 -110 -72 -180 -65 -292 8 -147 79 -287 198 -394 56 -51 79 -56 109
-26 16 16 20 33 20 92 l0 73 37 0 c47 0 50 11 33 121 -7 45 -10 90 -6 99 6 16
8 16 29 2 13 -8 42 -21 65 -27 36 -11 45 -10 82 9 22 11 49 21 60 21 10 0 21
8 24 18 11 34 196 126 316 157 36 9 112 32 170 50 58 19 220 59 360 90 140 31
265 63 277 71 47 30 43 87 -22 339 -66 254 -97 342 -194 545 -122 254 -131
286 -201 675 -57 321 -77 471 -95 705 -9 113 -22 249 -30 304 -14 95 -10 151
7 91 12 -44 104 -543 123 -670 20 -131 95 -432 160 -638 55 -179 127 -366 272
-717 143 -344 160 -393 175 -500 14 -107 2 -176 -41 -236 -15 -21 -35 -60 -45
-86 -21 -57 -77 -109 -138 -128 -28 -9 -104 -14 -213 -15 -222 -3 -314 -26
-446 -116 -150 -102 -258 -299 -259 -475 0 -73 56 -88 133 -36 43 30 43 30 53
9 18 -42 56 -33 126 28 63 55 167 115 201 115 13 0 17 -9 18 -42 2 -92 31
-128 71 -91 23 21 23 21 58 2 46 -25 149 -25 705 1 237 11 525 24 642 29 244
11 268 18 279 78 17 90 -25 521 -66 683 -11 42 -40 140 -64 216 -75 237 -86
324 -87 709 0 264 3 318 46 690 32 280 46 495 44 695 -3 199 -3 197 129 612
l97 308 145 0 c198 0 470 17 577 35 208 36 320 82 478 195 174 125 217 141
495 190 96 17 247 44 335 60 289 54 307 55 1090 55 884 0 960 -5 2074 -145
499 -63 602 -80 1171 -195 656 -132 995 -187 1616 -264 635 -79 1094 -95 1794
-61 776 38 1747 167 2715 361 773 155 1074 227 1748 418 614 174 712 195 1402
291 643 90 698 95 1570 135 213 10 613 -18 860 -60 344 -59 836 -185 1090
-280 316 -118 738 -342 1085 -576 237 -159 396 -293 645 -543 446 -448 678
-636 1000 -813 527 -290 1171 -427 1851 -393 992 49 1777 376 2278 948 360
411 606 879 701 1332 30 144 46 452 26 503 -16 41 -40 46 -66 13 -19 -24 -27
-27 -55 -21 -40 9 -38 -13 4 -33 33 -17 42 -37 26 -57 -10 -12 -25 -14 -64 -9
l-51 5 26 -23 c15 -13 40 -31 58 -40 34 -19 42 -59 18 -92 -13 -17 -18 -18
-66 -6 -29 7 -55 9 -59 5 -8 -8 42 -53 88 -78 30 -16 32 -21 27 -54 -9 -54
-18 -58 -82 -43 -30 7 -57 11 -60 9 -9 -10 27 -50 66 -75 41 -26 48 -49 29
-98 -11 -30 -32 -33 -83 -11 -20 8 -44 15 -52 15 -14 0 -14 -3 2 -30 10 -17
32 -41 50 -53 42 -28 46 -40 31 -88 -18 -61 -30 -66 -94 -39 -30 12 -57 20
-60 17 -10 -10 26 -65 56 -87 34 -24 39 -54 15 -100 -19 -36 -38 -37 -90 -5
-49 30 -55 30 -55 5 0 -11 18 -40 41 -65 39 -42 40 -46 30 -78 -16 -46 -47
-78 -69 -70 -9 4 -34 18 -55 31 -20 14 -40 22 -43 19 -12 -12 6 -57 36 -91 17
-18 30 -39 30 -46 0 -21 -48 -97 -64 -103 -9 -4 -38 9 -67 28 -28 19 -55 33
-60 30 -11 -7 6 -51 38 -97 17 -25 23 -45 20 -60 -9 -34 -76 -108 -98 -108
-10 0 -36 16 -58 35 -67 61 -79 43 -31 -51 16 -32 30 -65 30 -72 0 -19 -80
-102 -99 -102 -9 0 -39 23 -66 50 -27 28 -53 50 -57 50 -17 0 -7 -67 17 -118
14 -30 25 -59 25 -66 0 -20 -85 -96 -108 -96 -15 0 -33 17 -62 59 -22 33 -44
62 -50 66 -17 10 -24 -47 -11 -99 27 -111 27 -109 -20 -150 -48 -41 -83 -54
-102 -38 -7 6 -26 38 -42 72 -16 33 -34 59 -39 57 -21 -7 -30 -67 -18 -128 6
-33 8 -67 5 -75 -7 -18 -94 -64 -121 -64 -26 0 -39 17 -65 86 -13 32 -28 59
-34 61 -18 6 -34 -71 -31 -145 l3 -66 -40 -23 c-25 -15 -53 -22 -75 -21 -37 3
-45 17 -70 116 -6 23 -15 42 -21 42 -19 0 -39 -70 -39 -138 0 -79 -4 -85 -73
-104 -66 -17 -79 -7 -93 76 -6 37 -14 69 -18 73 -17 17 -56 -81 -56 -144 0
-41 -11 -52 -65 -68 -61 -19 -109 -19 -125 -1 -6 8 -15 46 -18 83 -4 37 -11
68 -16 68 -18 0 -47 -62 -57 -124 -12 -68 -19 -75 -92 -85 -37 -6 -54 -4 -73
9 -22 14 -24 22 -24 90 0 44 -5 77 -11 81 -24 14 -58 -55 -83 -168 -4 -19 -16
-30 -42 -38 -43 -15 -123 -8 -135 11 -5 8 -9 49 -9 92 0 58 -3 78 -12 75 -22
-7 -58 -69 -75 -127 -18 -65 -24 -71 -78 -71 -67 0 -70 7 -67 115 3 94 3 96
-17 86 -11 -6 -34 -41 -51 -79 -17 -37 -37 -78 -44 -92 -9 -21 -20 -26 -58
-28 -58 -4 -93 24 -85 67 13 65 19 151 10 151 -23 0 -48 -32 -86 -110 l-42
-85 -46 -3 c-70 -5 -76 9 -56 117 21 107 21 111 3 111 -20 0 -65 -59 -101
-134 -31 -64 -49 -75 -101 -62 -20 5 -24 13 -24 46 0 22 9 73 20 112 13 48 17
75 10 82 -16 16 -75 -49 -115 -126 -40 -76 -51 -84 -92 -71 -38 13 -40 44 -9
143 14 45 26 85 26 91 0 41 -93 -48 -135 -130 -21 -43 -30 -51 -54 -51 -57 0
-59 39 -6 167 27 67 31 93 15 93 -20 0 -91 -74 -126 -131 -41 -66 -54 -74
-101 -58 -49 16 -48 39 8 158 21 46 39 88 39 92 0 37 -106 -48 -162 -128 -29
-43 -56 -53 -87 -34 -21 13 -7 54 55 158 30 50 54 96 54 102 0 36 -101 -31
-175 -115 -57 -64 -82 -76 -104 -50 -16 19 -1 53 69 158 33 48 60 90 60 93 0
3 -10 5 -23 5 -30 0 -88 -40 -164 -112 -65 -61 -78 -67 -108 -44 -19 13 -19
16 -4 48 9 18 46 71 83 116 36 46 66 88 66 93 0 16 -40 10 -88 -15 -26 -13
-75 -49 -110 -80 -64 -58 -90 -67 -112 -41 -21 26 -2 61 85 156 47 50 85 98
85 107 0 34 -129 -18 -227 -92 -69 -52 -106 -58 -111 -19 -3 18 22 49 102 131
58 60 106 112 106 115 0 14 -71 6 -121 -12 -28 -11 -87 -43 -130 -72 -82 -54
-109 -58 -109 -15 0 25 56 88 163 182 31 28 57 56 57 62 0 19 -73 14 -132 -8
-29 -11 -89 -42 -133 -70 -43 -27 -85 -50 -92 -50 -8 0 -18 11 -24 24 -17 37
16 82 114 157 132 102 141 119 69 119 -58 0 -109 -17 -220 -73 l-104 -52 -19
24 c-12 15 -17 32 -13 45 6 21 104 121 198 203 27 23 45 46 42 52 -20 31 -142
0 -274 -70 -51 -27 -100 -49 -110 -49 -27 1 -52 25 -52 51 0 34 19 60 127 170
109 112 116 134 45 127 -59 -6 -143 -43 -244 -109 -87 -58 -131 -64 -136 -19
-4 34 38 95 142 208 102 110 107 127 36 120 -61 -6 -170 -58 -264 -128 -42
-31 -79 -50 -96 -50 -27 0 -70 36 -70 58 0 28 52 112 124 202 42 52 76 103 76
114 0 16 -6 18 -41 13 -61 -8 -154 -59 -234 -128 -38 -33 -83 -67 -99 -75 -27
-15 -31 -14 -55 4 -54 40 -32 110 88 276 39 55 71 108 71 118 0 56 -153 -15
-293 -136 -53 -47 -106 -88 -117 -91 -24 -7 -76 18 -90 45 -19 36 11 109 100
246 79 120 79 157 2 130 -67 -24 -140 -78 -237 -176 -89 -89 -110 -101 -133
-78 -28 28 3 122 87 261 82 136 86 166 19 146 -62 -17 -127 -65 -230 -170
-112 -115 -138 -128 -171 -91 -35 38 -13 121 77 299 50 99 55 120 29 130 -46
18 -195 -101 -296 -238 -61 -84 -87 -99 -118 -68 -16 16 -18 27 -13 57 11 56
47 157 93 255 40 86 50 130 31 142 -18 11 -104 -39 -168 -99 -36 -34 -90 -95
-120 -136 -30 -41 -64 -83 -76 -92 -41 -34 -139 -17 -150 27 -9 35 12 128 54
246 67 188 56 217 -53 138 -68 -48 -140 -135 -192 -230 -53 -96 -70 -112 -109
-105 -17 4 -37 14 -44 24 -22 27 -8 141 33 285 30 103 35 130 25 142 -11 13
-17 12 -53 -8 -52 -29 -134 -120 -178 -197 -101 -178 -89 -165 -141 -168 -94
-6 -110 59 -63 258 39 166 33 191 -36 146 -55 -37 -123 -133 -179 -253 -52
-109 -69 -124 -120 -103 -52 21 -63 101 -34 250 17 90 16 151 -3 157 -19 7
-94 -69 -132 -132 -19 -31 -48 -92 -66 -136 -42 -106 -54 -119 -109 -119 -84
0 -101 61 -76 260 11 85 7 110 -20 110 -43 0 -126 -130 -170 -265 -12 -38 -29
-78 -38 -87 -20 -24 -83 -23 -113 1 -20 16 -24 30 -27 95 -2 42 1 119 7 171
11 95 5 135 -20 135 -5 0 -29 -21 -54 -46 -49 -52 -102 -153 -136 -263 -28
-88 -49 -106 -110 -96 -22 4 -49 15 -59 25 -30 30 -41 111 -35 254 7 153 1
172 -42 140 -65 -48 -121 -155 -172 -330 -28 -96 -44 -109 -136 -109 -57 0
-77 4 -93 19 -31 27 -45 114 -40 236 8 174 -10 205 -76 128 -54 -62 -92 -148
-125 -277 -35 -138 -46 -151 -133 -151 -63 0 -110 18 -124 47 -5 10 -11 99
-14 198 -6 205 -10 213 -73 149 -51 -53 -91 -133 -126 -252 -36 -125 -50 -149
-94 -157 -69 -13 -90 -4 -116 49 -23 45 -25 66 -31 228 -4 99 -11 183 -16 188
-17 17 -36 3 -76 -51 -58 -79 -95 -163 -127 -288 -33 -132 -50 -154 -146 -190
-90 -34 -138 -38 -163 -13 -32 32 -51 110 -63 261 -12 148 -20 181 -44 181
-21 0 -83 -99 -116 -185 -16 -39 -34 -118 -43 -179 -10 -73 -21 -115 -33 -128
-26 -30 -92 -58 -136 -58 -35 0 -39 3 -57 43 -20 46 -35 142 -45 286 -8 119
-17 146 -44 131 -26 -13 -85 -112 -115 -192 -13 -35 -29 -102 -36 -148 -18
-142 -25 -159 -73 -181 -46 -20 -137 -25 -167 -9 -30 16 -48 98 -55 247 -10
226 -15 237 -79 160 -52 -64 -105 -184 -123 -278 -27 -146 -31 -158 -66 -180
-23 -14 -46 -19 -82 -17 -47 3 -51 5 -70 43 -16 34 -20 69 -25 230 -4 105 -10
196 -14 203 -14 23 -36 12 -77 -40 -65 -82 -108 -179 -135 -302 -14 -61 -29
-121 -34 -133 -14 -35 -66 -56 -141 -57 -119 -2 -131 25 -130 294 0 109 -3
202 -9 210 -13 21 -35 6 -92 -65 -66 -81 -113 -182 -147 -315 -22 -90 -34
-119 -55 -137 -32 -27 -86 -43 -146 -43 -108 0 -125 39 -114 260 15 283 12
294 -50 239 -42 -36 -113 -133 -145 -196 -11 -23 -35 -90 -52 -150 -40 -140
-54 -156 -150 -161 -46 -3 -79 0 -95 9 -46 24 -54 118 -29 343 22 193 10 213
-76 125 -93 -95 -148 -195 -198 -356 -35 -114 -44 -123 -115 -123 -38 0 -48 4
-63 26 -26 41 -27 132 -4 317 29 220 22 239 -56 172 -94 -80 -176 -217 -232
-388 -34 -100 -54 -127 -98 -127 -34 0 -72 21 -79 44 -14 42 -5 176 21 314 26
142 30 222 9 229 -18 6 -104 -69 -165 -145 -69 -85 -108 -158 -151 -280 -16
-48 -39 -97 -51 -110 -26 -28 -70 -29 -98 -1 -20 20 -21 29 -16 108 3 50 20
143 42 225 35 136 41 196 19 203 -19 6 -136 -90 -196 -162 -37 -44 -79 -112
-118 -191 -33 -68 -68 -128 -79 -134 -45 -24 -117 -3 -128 38 -10 42 6 127 52
273 43 136 53 188 39 202 -20 20 -177 -102 -240 -187 -24 -32 -65 -96 -90
-143 -25 -46 -57 -91 -70 -100 -28 -18 -83 -13 -120 12 -44 28 -29 106 57 296
27 61 52 124 56 140 5 26 3 29 -18 29 -36 0 -144 -67 -209 -130 -31 -30 -79
-89 -107 -130 -28 -42 -58 -82 -68 -90 -37 -30 -135 -3 -156 44 -16 35 11 119
87 263 35 68 64 130 64 138 0 45 -142 -21 -239 -111 -37 -34 -87 -87 -110
-117 -56 -73 -84 -84 -153 -61 -29 9 -66 30 -82 46 -45 46 -35 80 99 328 37
68 45 110 21 110 -7 0 -51 -19 -97 -41 -73 -36 -99 -57 -194 -155 -97 -99
-115 -114 -143 -114 -57 0 -142 55 -142 92 0 37 39 119 103 217 87 133 101
161 88 174 -15 15 -78 -6 -175 -56 -59 -30 -100 -63 -165 -127 -98 -100 -120
-114 -162 -105 -38 8 -89 51 -89 75 0 42 37 113 125 245 52 77 95 148 95 159
0 30 -75 15 -182 -37 -75 -36 -112 -63 -195 -141 -61 -57 -111 -96 -123 -96
-26 0 -78 26 -107 53 -47 42 -24 105 113 304 46 67 85 132 86 145 3 21 -1 23
-33 21 -49 -3 -156 -47 -227 -92 -31 -21 -94 -73 -140 -116 -96 -90 -117 -96
-185 -49 -36 26 -42 35 -45 71 -4 52 33 127 119 243 78 106 119 170 119 187 0
19 -58 16 -123 -6 -99 -34 -196 -92 -270 -161 -134 -123 -145 -127 -233 -86
-59 27 -94 67 -94 106 0 42 48 125 148 257 134 176 140 199 46 182 -114 -21
-265 -101 -358 -189 -69 -65 -124 -100 -155 -100 -32 0 -127 53 -141 79 -31
59 6 139 149 320 147 188 154 216 44 192 -137 -30 -260 -98 -401 -219 -45 -39
-93 -74 -106 -78 -63 -15 -176 65 -176 125 0 48 49 135 149 265 121 155 145
192 137 212 -8 22 -73 12 -180 -27 -106 -39 -195 -93 -285 -174 -87 -79 -127
-105 -161 -105 -33 0 -98 38 -124 73 -18 25 -19 31 -8 75 17 63 57 128 175
279 107 138 132 178 121 194 -15 25 -180 -18 -294 -76 -78 -39 -125 -73 -215
-155 -100 -91 -126 -105 -168 -91 -47 17 -67 40 -67 79 0 46 54 147 135 252
203 263 214 282 179 307 -39 29 -130 8 -258 -57 -100 -51 -180 -108 -281 -200
-44 -40 -95 -80 -113 -89 -31 -14 -36 -14 -70 4 -52 28 -67 60 -53 110 16 60
76 155 174 277 151 188 175 238 120 259 -84 32 -317 -82 -511 -249 -133 -115
-163 -123 -252 -69 -73 43 -103 88 -94 142 9 59 73 174 174 315 113 157 136
201 120 231 -11 19 -18 21 -69 17 -117 -8 -296 -118 -480 -293 -128 -123 -143
-130 -201 -100 -34 18 -45 49 -36 105 10 61 44 132 139 284 47 76 91 154 98
173 23 72 -35 83 -151 27 -100 -47 -186 -113 -300 -229 -106 -107 -132 -125
-186 -125 -49 0 -175 61 -209 102 -24 28 -27 38 -22 78 7 57 35 119 103 232
66 109 104 182 104 202 0 22 -35 38 -67 30 -94 -23 -223 -115 -359 -258 -94
-98 -104 -106 -140 -106 -47 0 -120 34 -141 66 -29 46 0 128 112 314 42 69 68
122 69 143 1 32 1 32 -45 31 -73 0 -172 -65 -312 -205 -75 -75 -128 -120 -146
-124 -39 -8 -133 29 -176 69 -60 57 -43 120 89 321 86 131 88 175 5 156 -80
-18 -178 -82 -294 -191 -58 -55 -93 -81 -117 -85 -70 -13 -168 53 -168 113 1
37 30 98 95 198 81 124 99 162 84 180 -15 18 -39 18 -91 -3 -67 -25 -166 -95
-253 -177 -94 -89 -121 -104 -161 -84 -16 7 -35 25 -43 39 -13 23 -12 32 3 80
10 30 51 112 92 184 41 71 74 139 74 151 0 32 -30 38 -87 16 -72 -27 -135 -74
-244 -178 -53 -51 -108 -96 -123 -100 -65 -16 -157 26 -197 89 -33 53 -21 102
70 282 44 88 81 167 82 175 3 35 -2 40 -37 40 -75 0 -221 -104 -344 -245 -75
-85 -120 -115 -176 -115 -65 0 -173 37 -207 71 -28 29 -29 33 -25 97 4 51 18
100 58 197 71 175 82 212 69 236 -13 24 -23 24 -85 -5 -70 -33 -184 -143 -274
-266 -103 -140 -153 -161 -295 -125 -78 20 -105 49 -105 113 0 63 20 154 66
297 22 69 38 141 38 170 1 49 0 50 -30 53 -76 7 -238 -163 -356 -378 -56 -100
-85 -123 -164 -128 -79 -5 -148 13 -174 45 -41 53 -35 186 21 425 35 153 44
209 35 242 -5 21 -12 26 -40 26 -88 0 -242 -181 -366 -430 -93 -187 -140 -215
-365 -213 -163 1 -203 13 -229 67 -32 66 -33 209 -2 414 32 211 33 272 7 296
-75 68 -290 -211 -401 -519 -67 -187 -94 -210 -240 -210 -109 0 -150 17 -184
75 -30 51 -33 213 -7 435 21 182 20 245 -5 266 -22 18 -62 2 -114 -47 -100
-94 -198 -273 -275 -504 -52 -157 -76 -191 -146 -210 -50 -14 -122 -7 -156 15
-66 44 -83 146 -59 367 17 160 20 265 10 292 -4 10 -18 16 -37 16 -25 0 -43
-12 -87 -58 -94 -96 -180 -261 -234 -447 -44 -151 -68 -180 -156 -186 -91 -5
-119 0 -150 29 -49 43 -57 118 -37 333 18 189 14 232 -21 237 -74 11 -200
-182 -278 -421 -30 -95 -44 -124 -70 -147 -41 -36 -121 -53 -220 -48 -63 3
-78 7 -99 29 -36 36 -47 117 -35 249 6 58 13 139 17 181 10 123 -22 150 -97
83 -76 -69 -151 -211 -205 -387 -43 -142 -92 -179 -242 -181 -56 -1 -67 2 -84
23 -23 28 -26 135 -7 304 13 114 8 139 -27 145 -48 10 -171 -190 -211 -341
-22 -88 -52 -121 -122 -136 -109 -23 -221 -5 -255 41 -25 33 -25 104 -3 271
21 157 -1 195 -74 125 -69 -68 -115 -155 -177 -337 -27 -81 -51 -95 -176 -99
-112 -4 -177 8 -208 39 -25 25 -25 101 1 239 32 169 25 199 -38 166 -68 -35
-162 -178 -206 -312 -9 -28 -25 -60 -36 -72 -60 -64 -270 -44 -300 28 -14 34
-9 72 27 221 15 58 23 114 20 123 -10 26 -52 18 -101 -19 -72 -55 -102 -92
-156 -197 -28 -54 -58 -102 -68 -106 -60 -31 -199 -16 -240 25 -22 22 -24 31
-19 81 3 32 22 109 43 173 42 132 41 155 -9 145 -81 -16 -178 -111 -254 -251
-21 -38 -49 -75 -63 -83 -33 -17 -105 -9 -132 14 -18 17 -20 27 -15 80 3 34
23 111 43 171 21 60 35 117 31 126 -9 25 -45 21 -103 -13 -64 -36 -121 -100
-178 -200 -47 -81 -73 -100 -135 -100 -44 0 -100 20 -111 39 -13 26 3 111 46
235 41 120 43 146 11 146 -57 0 -167 -100 -221 -201 -46 -86 -72 -109 -123
-109 -56 0 -107 21 -128 54 -22 33 -16 68 37 209 43 114 42 135 -4 124 -51
-13 -120 -71 -168 -141 -84 -123 -87 -126 -129 -126 -51 0 -124 26 -157 56
-23 22 -26 31 -22 68 3 23 24 83 47 134 45 100 49 120 26 128 -42 16 -137 -62
-228 -186 l-33 -45 -65 0 c-55 0 -77 6 -142 38 -42 21 -82 47 -88 59 -16 30
-4 76 52 188 27 55 47 105 44 110 -10 16 -45 12 -91 -10 -39 -20 -100 -78
-170 -166 -29 -36 -35 -39 -80 -38 -53 1 -135 32 -171 66 -37 35 -30 79 32
203 46 94 52 112 40 124 -34 34 -141 -39 -251 -172 -28 -33 -36 -37 -78 -37
-50 0 -186 48 -222 78 -12 10 -27 28 -33 41 -17 31 5 99 70 212 57 101 60 119
22 119 -44 0 -127 -54 -180 -116 -107 -127 -107 -127 -169 -122 -73 6 -203 71
-222 111 -19 39 2 102 74 226 63 110 67 131 24 131 -63 0 -133 -53 -267 -203
-39 -44 -46 -47 -90 -47 -52 0 -160 44 -200 82 -44 42 -26 113 70 282 47 81
50 106 13 106 -59 0 -177 -91 -261 -201 -36 -47 -71 -62 -123 -56 -65 8 -154
48 -180 82 -35 44 -16 110 79 276 68 119 65 138 -18 114 -62 -19 -133 -75
-208 -165 -36 -44 -75 -84 -86 -91 -32 -16 -107 -6 -164 23 -49 24 -50 26 -49
69 0 50 29 119 110 261 31 54 53 102 49 108 -10 17 -62 11 -113 -12 -43 -20
-156 -122 -213 -193 -56 -70 -108 -81 -216 -44 -82 27 -90 38 -74 97 14 52 70
171 131 279 23 40 39 77 35 83 -10 17 -66 11 -113 -11 -53 -26 -145 -110 -212
-194 -27 -34 -63 -68 -80 -75 -39 -16 -113 -9 -172 18 -46 20 -48 23 -48 61 0
52 33 140 105 278 32 61 55 116 51 122 -4 6 -19 11 -34 11 -72 -1 -181 -85
-279 -218 -71 -95 -89 -106 -159 -99 -30 3 -69 14 -87 24 -61 36 -46 119 60
345 30 65 53 126 51 135 -9 47 -104 13 -194 -70 -30 -27 -82 -89 -116 -136
-78 -112 -101 -131 -157 -131 -60 0 -155 27 -181 53 -19 17 -21 27 -16 68 7
53 53 188 106 310 35 80 35 109 0 109 -69 0 -190 -108 -286 -255 -79 -121
-105 -140 -178 -132 -78 8 -133 33 -145 67 -14 41 11 150 65 288 24 63 44 122
44 133 0 33 -30 34 -87 4 -69 -36 -140 -115 -209 -231 -71 -121 -92 -138 -165
-131 -69 6 -117 30 -130 65 -14 35 9 164 51 286 47 141 37 170 -44 122 -63
-37 -126 -114 -184 -225 -69 -130 -87 -146 -165 -145 -34 0 -73 6 -86 13 -23
13 -23 16 -19 105 3 51 18 141 34 204 31 122 28 140 -21 128 -53 -13 -120 -97
-185 -229 -33 -68 -69 -132 -80 -142 -27 -25 -118 -32 -145 -12 -17 13 -20 26
-18 90 0 41 11 125 23 187 28 149 21 165 -51 116z"/>
</g>
</svg>
