<?xml version="1.0" standalone="no"?>
<!DOCTYPE svg PUBLIC "-//W3C//DTD SVG 20010904//EN"
 "http://www.w3.org/TR/2001/REC-SVG-20010904/DTD/svg10.dtd">
<svg version="1.0" xmlns="http://www.w3.org/2000/svg"
 width="2440.000000pt" height="528.000000pt" viewBox="0 0 2440.000000 528.000000"
 preserveAspectRatio="xMidYMid meet">
<metadata>
Created by potrace 1.16, written by Peter Selinger 2001-2019
</metadata>
<g transform="translate(0.000000,528.000000) scale(0.100000,-0.100000)"
fill="#000000" stroke="none">
<path d="M1576 5201 c-55 -42 -74 -50 -123 -56 -157 -17 -312 -37 -348 -45
-128 -29 -249 -88 -415 -202 -153 -105 -581 -466 -611 -515 -28 -44 -48 -201
-31 -238 14 -31 54 -33 109 -5 21 11 49 24 63 30 14 5 32 14 40 19 22 14 53
24 66 22 7 -1 14 8 17 20 5 18 10 20 34 14 37 -9 45 -17 75 -72 36 -67 43 -93
25 -93 -8 0 -26 -11 -40 -24 -14 -13 -28 -22 -30 -20 -3 3 -15 -8 -28 -23 -24
-28 -89 -75 -141 -102 -30 -15 -36 -39 -16 -59 7 -7 37 -12 68 -12 46 0 73 9
160 50 58 28 111 50 117 50 22 0 182 69 338 145 85 42 226 100 325 133 96 33
227 81 290 106 138 57 191 66 246 40 21 -10 86 -64 144 -119 152 -144 331
-273 513 -369 34 -18 87 -46 117 -63 30 -17 127 -61 215 -98 281 -118 314
-142 359 -271 66 -185 136 -283 238 -335 138 -70 364 -146 575 -194 l71 -16
209 -210 c114 -115 210 -219 211 -231 2 -11 -6 -71 -17 -132 -24 -128 -41
-311 -41 -441 0 -96 -22 -207 -63 -316 -13 -35 -30 -89 -36 -119 -17 -72 -48
-174 -71 -230 -19 -44 -33 -200 -19 -200 10 0 49 50 78 99 14 22 28 38 33 35
12 -8 10 -42 -6 -72 -7 -15 -16 -61 -19 -102 -7 -80 1 -220 13 -220 8 0 45 73
55 110 4 14 11 30 16 36 5 6 8 20 7 30 -3 26 13 94 21 94 10 0 2 -229 -8 -248
-5 -9 -5 -29 0 -46 5 -17 9 -57 9 -88 0 -85 24 -86 50 -3 7 22 20 59 28 82 8
23 12 45 9 50 -2 4 2 58 11 118 8 61 16 154 16 208 1 102 10 125 21 57 4 -22
11 -42 16 -46 5 -3 9 -16 9 -29 0 -13 6 -36 14 -52 7 -15 22 -45 31 -65 32
-67 93 -59 80 11 -4 20 -11 40 -16 46 -5 5 -9 20 -9 32 0 13 -7 37 -15 52 -8
16 -12 31 -8 34 3 4 -2 24 -11 47 -9 22 -16 53 -16 67 0 27 1 26 49 -21 34
-33 55 -47 66 -42 21 8 15 27 -42 121 l-45 76 35 167 c20 92 52 250 72 352 20
102 54 269 75 372 22 103 40 200 40 215 0 28 -54 169 -71 188 -5 5 -9 12 -9
15 0 4 111 -17 248 -47 432 -93 894 -155 1422 -188 140 -9 256 -17 257 -19 1
-1 14 -76 28 -167 14 -90 34 -216 46 -279 11 -63 23 -176 26 -250 8 -193 -9
-271 -92 -437 -35 -70 -69 -150 -76 -178 -26 -110 -74 -174 -309 -420 -152
-159 -187 -189 -367 -318 -120 -85 -178 -120 -220 -132 -132 -39 -240 -56
-376 -60 -77 -3 -145 -9 -151 -14 -6 -4 -35 -11 -65 -15 -85 -11 -170 -65
-187 -118 -10 -34 9 -39 64 -18 70 27 143 27 160 0 12 -19 23 -20 315 -20 342
0 441 9 538 45 88 34 119 63 119 111 0 45 -40 8 476 438 404 336 472 400 508
476 20 43 21 60 21 420 0 437 -3 415 105 650 39 84 81 184 95 223 l24 72 88 8
c48 5 180 19 293 31 l205 23 73 -53 c40 -29 121 -77 180 -107 104 -53 511
-217 777 -312 130 -47 281 -117 339 -157 99 -70 160 -127 196 -188 69 -118
165 -206 312 -289 75 -42 134 -108 266 -299 119 -170 186 -288 226 -396 14
-37 46 -98 71 -135 59 -89 72 -140 57 -217 -19 -92 -53 -120 -176 -145 -53
-11 -105 -24 -114 -28 -9 -5 -37 -14 -62 -21 -60 -16 -116 -53 -136 -91 -21
-41 -8 -52 41 -34 47 17 131 19 140 5 8 -14 204 -12 265 3 35 8 58 24 103 69
31 32 63 58 71 58 20 0 46 34 49 66 1 16 11 44 20 62 12 22 16 43 12 63 -4 16
-2 35 3 42 17 21 25 113 12 137 -7 12 -14 59 -16 104 -2 44 -5 90 -6 101 -2
13 4 21 17 23 22 4 65 40 65 55 0 5 -17 7 -37 5 -53 -7 -80 6 -97 46 -17 40
-46 61 -97 70 -21 4 -41 12 -47 19 -5 6 -88 165 -182 352 -194 381 -270 524
-307 573 -41 55 -131 114 -345 228 -344 182 -386 214 -499 381 -57 85 -66 103
-51 107 9 2 53 12 97 21 51 11 98 29 130 49 28 18 111 70 185 116 74 46 209
141 300 210 223 171 632 443 744 495 352 164 402 181 870 297 243 60 495 120
561 134 132 28 625 94 1115 151 l315 36 86 -22 c93 -23 116 -21 129 15 8 19
18 23 77 28 37 4 84 8 105 10 20 2 40 1 45 -3 13 -12 93 -39 150 -50 85 -17
143 0 168 49 l16 30 93 0 c87 0 102 -3 192 -40 144 -59 194 -53 208 25 7 34 8
35 56 35 41 0 67 -9 150 -55 74 -41 111 -55 140 -55 39 0 41 1 72 64 l32 65
84 6 c83 7 84 7 115 -23 78 -74 202 -105 262 -66 36 23 72 62 80 87 9 26 96
24 112 -2 22 -35 117 -91 154 -91 92 0 168 39 172 86 1 19 9 22 71 28 53 5 72
3 75 -6 10 -31 80 -87 136 -107 49 -19 71 -22 124 -17 101 11 141 40 141 104
0 29 1 30 58 34 44 3 61 0 77 -13 11 -10 66 -43 122 -74 125 -67 167 -72 207
-24 14 17 31 51 37 75 11 42 13 44 50 44 28 0 39 -5 43 -18 4 -11 16 -28 29
-40 24 -22 216 -102 246 -102 31 0 67 53 75 109 l7 51 80 0 c78 0 81 -1 130
-40 58 -46 116 -64 176 -56 54 7 115 38 141 71 16 20 29 25 65 25 28 0 49 -6
58 -16 7 -9 32 -29 55 -45 39 -26 50 -29 126 -29 78 0 85 2 116 29 17 17 32
35 32 40 0 6 19 11 43 11 38 0 44 -3 62 -36 11 -20 39 -50 62 -67 36 -25 51
-30 107 -30 83 -1 119 21 124 76 l3 37 60 0 c48 0 61 -3 66 -17 3 -10 25 -41
49 -68 54 -65 113 -85 224 -76 71 6 75 8 97 40 13 19 23 47 23 64 l0 30 54 -6
c48 -5 59 -10 92 -47 49 -54 107 -94 175 -119 108 -41 144 -21 183 102 5 14
14 18 43 15 32 -3 38 -7 45 -35 9 -35 36 -56 166 -133 70 -41 73 -42 98 -26
30 21 84 102 84 129 0 17 5 18 63 12 86 -9 95 -13 111 -44 16 -31 84 -89 133
-115 75 -38 209 -1 232 65 10 29 14 31 42 25 17 -3 37 -6 43 -6 6 0 17 -12 24
-27 8 -16 34 -46 59 -68 43 -37 50 -40 119 -43 68 -4 77 -2 108 22 19 14 38
35 41 46 4 13 15 20 30 20 40 0 54 -11 65 -50 16 -58 73 -104 149 -119 106
-21 151 4 151 82 l0 38 38 -6 c88 -15 92 -16 92 -36 0 -25 26 -77 53 -106 16
-18 31 -23 74 -23 68 0 103 29 103 86 0 26 4 35 13 31 8 -3 44 -8 81 -12 61
-7 68 -10 77 -34 22 -58 141 -148 179 -136 25 8 40 43 40 92 l0 36 43 -7 c23
-4 61 -10 85 -13 36 -5 45 -11 56 -37 18 -42 40 -59 115 -91 l64 -27 23 24
c13 13 25 35 27 51 4 32 0 31 72 22 42 -6 58 -12 66 -29 23 -43 93 -106 119
-106 36 0 90 36 90 60 0 25 15 25 118 4 42 -9 86 -23 97 -33 30 -26 73 -51 87
-51 7 0 24 9 36 19 23 17 27 17 125 -1 79 -15 106 -25 124 -44 25 -27 29 -28
61 -10 20 11 38 9 120 -10 134 -32 252 -32 252 0 0 30 -50 56 -168 87 -111 29
-125 35 -138 62 -11 21 -21 28 -34 24 -11 -3 -24 1 -31 9 -15 18 -39 18 -65 0
-21 -15 -21 -15 -171 19 -14 3 -23 13 -23 24 0 25 -18 38 -66 46 -28 4 -53 1
-77 -8 -32 -14 -43 -13 -119 4 -45 10 -86 19 -90 19 -5 0 -8 19 -8 43 0 54
-24 90 -53 81 -12 -4 -44 -8 -71 -9 -42 -2 -55 -8 -78 -34 l-28 -31 -57 13
-58 12 -10 50 c-13 67 -20 75 -64 75 -20 0 -42 5 -49 12 -18 18 -100 -26 -108
-58 -7 -28 -9 -28 -85 -12 l-57 12 -5 47 c-9 77 -22 92 -65 83 -21 -4 -52 -7
-71 -6 -48 3 -97 -15 -119 -43 l-19 -23 -79 16 -79 17 -6 53 c-10 78 -26 91
-109 88 -75 -3 -115 -21 -130 -62 -11 -28 -9 -27 -82 -13 l-56 11 -6 68 c-8
82 -20 94 -77 85 -27 -5 -50 -3 -66 6 -22 12 -31 10 -81 -16 -38 -20 -58 -38
-62 -53 -6 -26 -8 -27 -50 -18 -28 5 -30 9 -30 50 0 27 -7 52 -18 66 -18 22
-21 23 -86 10 -64 -12 -68 -11 -90 9 -12 11 -30 21 -39 21 -24 0 -94 -45 -106
-69 -10 -17 -15 -18 -57 -7 -43 11 -47 14 -64 65 -33 91 -39 94 -153 59 -50
-15 -72 -18 -75 -10 -2 7 -11 21 -21 33 l-17 21 -64 -26 c-36 -15 -70 -34 -77
-42 -10 -13 -23 -15 -67 -9 -47 5 -56 10 -56 26 0 27 -47 106 -67 113 -9 4
-38 -1 -65 -10 -48 -15 -49 -15 -67 7 -18 22 -18 22 -62 5 -53 -21 -69 -33
-79 -62 -7 -18 -14 -20 -46 -15 -33 5 -38 10 -49 49 -16 52 -60 112 -83 112
-9 0 -54 -12 -99 -27 -78 -25 -83 -26 -101 -10 -10 9 -26 17 -36 17 -26 0 -72
-27 -94 -55 -20 -25 -39 -30 -79 -19 -16 5 -26 20 -37 58 -9 29 -25 61 -35 71
-20 17 -23 17 -108 -10 -48 -14 -107 -35 -130 -46 -24 -10 -43 -15 -43 -10 0
5 -12 23 -26 40 -35 42 -64 40 -116 -9 -33 -32 -49 -40 -72 -38 -24 2 -31 10
-43 43 -7 22 -22 48 -32 58 -17 17 -19 17 -55 1 -31 -15 -42 -16 -68 -6 -28
10 -37 8 -81 -15 -27 -15 -52 -33 -54 -40 -3 -7 -20 -13 -39 -13 -31 0 -34 3
-45 44 -15 62 -40 71 -120 44 -56 -19 -62 -19 -71 -4 -5 9 -18 16 -29 16 -28
0 -95 -36 -102 -55 -4 -10 -19 -15 -44 -14 -63 2 -81 12 -113 62 -16 26 -36
47 -44 47 -7 0 -44 -14 -81 -31 l-67 -32 -23 29 -23 29 -71 -23 c-39 -13 -73
-27 -76 -32 -4 -6 -33 -10 -66 -10 l-59 0 -32 50 c-18 27 -41 52 -51 56 -10 3
-39 -5 -66 -20 -45 -23 -49 -23 -64 -8 -16 15 -21 14 -72 -12 -30 -15 -55 -32
-55 -37 0 -5 -22 -9 -49 -9 -46 0 -51 3 -71 35 -12 20 -37 47 -56 61 l-33 26
-74 -41 c-71 -39 -117 -52 -117 -32 0 28 -94 4 -115 -29 -3 -5 -30 -10 -58
-10 -52 0 -52 0 -77 47 -40 76 -58 77 -192 10 l-113 -56 -28 34 c-16 19 -35
35 -43 35 -8 0 -31 -16 -53 -35 -50 -45 -88 -47 -103 -5 -13 38 -36 44 -115
27 -56 -12 -64 -12 -85 5 -32 24 -39 23 -98 -17 -39 -26 -63 -35 -94 -35 -40
0 -44 2 -61 41 -31 67 -56 69 -163 15 l-54 -27 -23 25 c-13 14 -26 26 -29 26
-11 0 -117 -53 -122 -61 -3 -5 -34 -9 -69 -9 -64 0 -65 0 -79 34 -23 55 -46
61 -116 32 -59 -23 -61 -23 -71 -5 -14 27 -31 24 -94 -16 -51 -33 -60 -36
-122 -33 -65 3 -68 4 -93 42 -15 21 -33 42 -41 46 -10 6 -45 -5 -99 -29 -77
-35 -86 -37 -106 -24 -20 13 -27 12 -73 -11 -37 -19 -66 -26 -110 -26 l-61 0
-25 50 c-14 27 -32 50 -39 50 -12 0 -118 -46 -224 -99 -34 -16 -34 -16 -61 17
-34 40 -50 40 -103 2 -50 -37 -108 -42 -108 -10 0 11 -9 29 -20 40 -19 19 -20
19 -67 -1 -29 -12 -57 -18 -74 -14 -34 8 -95 -8 -120 -31 -11 -10 -34 -19 -52
-21 -27 -2 -35 2 -49 27 -24 41 -42 46 -110 28 -57 -15 -58 -14 -73 9 -9 13
-22 23 -30 23 -22 0 -115 -63 -115 -77 0 -9 -18 -13 -58 -13 l-58 0 -22 45
c-26 55 -36 55 -132 13 l-73 -32 -17 22 c-10 12 -28 22 -40 22 -30 0 -127 -47
-134 -65 -3 -10 -19 -15 -45 -15 -38 0 -40 1 -56 50 -23 70 -40 76 -116 45
-39 -17 -83 -27 -121 -28 -52 -2 -63 -6 -84 -30 -20 -23 -31 -27 -66 -25 -34
2 -44 7 -57 32 -21 38 -69 94 -92 106 -13 7 -39 0 -103 -30 -47 -21 -86 -35
-86 -30 0 5 -9 14 -20 20 -23 12 -61 -6 -112 -55 -19 -18 -38 -25 -66 -25 -38
0 -39 1 -63 63 -19 49 -30 63 -48 65 -22 4 -101 -27 -215 -84 -46 -23 -49 -23
-62 -7 -7 10 -14 21 -14 25 0 10 -30 38 -40 38 -4 0 -31 -18 -59 -40 -49 -39
-54 -41 -114 -38 l-61 3 -19 50 c-28 76 -38 83 -91 63 -40 -15 -45 -15 -59 0
-14 14 -20 13 -64 -3 -62 -23 -73 -32 -73 -62 0 -22 -4 -24 -37 -21 -32 3 -38
7 -50 43 -23 67 -30 70 -111 47 -68 -19 -71 -20 -77 -2 -3 10 -13 21 -21 24
-20 8 -111 -39 -124 -64 -10 -18 -19 -21 -67 -18 l-56 3 -29 54 c-45 88 -43
87 -140 63 -82 -21 -83 -21 -103 -2 -21 20 -22 20 -89 -6 -48 -19 -71 -34 -79
-51 -10 -23 -15 -25 -62 -19 -27 3 -64 6 -81 6 -25 0 -34 7 -53 40 -30 54 -49
63 -108 50 -36 -8 -53 -8 -70 1 -19 11 -31 9 -73 -11 -28 -13 -56 -30 -62 -37
-6 -8 -32 -13 -63 -13 -46 0 -58 5 -102 39 -46 37 -151 91 -178 91 -15 0 -49
-37 -68 -75 l-15 -30 -86 3 c-75 3 -86 6 -86 21 0 10 -9 30 -20 43 -21 27 -66
42 -163 53 l-58 7 -50 -51 c-50 -52 -85 -65 -96 -33 -8 24 -104 122 -120 122
-13 0 -157 -83 -185 -108 -13 -11 -31 -13 -71 -8 -47 6 -55 11 -72 42 -28 52
-90 105 -112 96 -88 -39 -153 -73 -179 -95 -38 -32 -45 -33 -70 -6 -10 12 -32
28 -49 37 -16 8 -50 30 -74 49 -24 18 -47 33 -51 33 -16 0 -139 -101 -145
-120 -10 -32 -40 -25 -50 12 -14 47 -96 88 -175 88 -66 0 -81 -12 -101 -76
-12 -39 -14 -40 -24 -20 -11 23 -131 106 -153 106 -31 0 -132 -86 -132 -112 0
-10 -4 -18 -10 -18 -5 0 -10 4 -10 9 0 17 -111 141 -125 141 -23 0 -164 -81
-180 -103 -8 -12 -15 -31 -15 -44 0 -34 -18 -37 -34 -5 -15 29 -124 112 -148
112 -17 0 -138 -83 -155 -107 -7 -9 -13 -27 -13 -39 0 -20 -7 -22 -80 -28
l-81 -7 -38 34 c-33 30 -149 77 -190 77 -15 0 -42 -45 -62 -104 l-18 -51 -67
-13 c-67 -14 -68 -14 -85 10 -10 14 -50 37 -89 53 l-71 28 -50 -50 c-28 -28
-57 -68 -64 -89 -12 -36 -18 -40 -75 -57 l-62 -18 -65 25 c-77 30 -79 29 -147
-48 -41 -46 -61 -59 -112 -76 -56 -19 -65 -20 -86 -7 -13 8 -47 20 -76 27
l-52 12 -55 -42 c-35 -27 -56 -51 -60 -70 -5 -24 -15 -32 -54 -45 -43 -14 -51
-14 -84 0 -21 9 -67 15 -110 15 -78 0 -87 -5 -112 -54 -10 -19 -19 -21 -97
-20 -82 1 -88 2 -123 32 -19 18 -39 32 -44 32 -5 0 -29 -9 -53 -20 -43 -19
-48 -19 -97 -4 -37 11 -55 22 -65 42 -16 31 -42 56 -107 101 l-47 33 -40 -23
c-38 -22 -40 -22 -66 -6 -14 10 -26 24 -26 31 0 27 -50 125 -68 135 -12 6 -39
7 -71 2 -49 -8 -54 -6 -96 27 -29 22 -45 42 -45 57 0 34 -49 188 -62 196 -16
10 -167 -1 -191 -13 -13 -7 -34 -3 -73 13 -43 18 -54 27 -54 46 0 30 -114 122
-152 123 -17 0 -51 -18 -92 -49z"/>
</g>
</svg>
