<?xml version="1.0" standalone="no"?>
<!DOCTYPE svg PUBLIC "-//W3C//DTD SVG 20010904//EN"
 "http://www.w3.org/TR/2001/REC-SVG-20010904/DTD/svg10.dtd">
<svg version="1.0" xmlns="http://www.w3.org/2000/svg"
 width="3768.000000pt" height="1402.000000pt" viewBox="0 0 3768.000000 1402.000000"
 preserveAspectRatio="xMidYMid meet">
<metadata>
Created by potrace 1.16, written by Peter Selinger 2001-2019
</metadata>
<g transform="translate(0.000000,1402.000000) scale(0.100000,-0.100000)"
fill="#000000" stroke="none">
<path d="M12825 13949 c-957 -37 -1756 -68 -1775 -68 -27 -1 -450 -228 -1825
-981 -985 -539 -1795 -988 -1802 -997 -6 -10 -212 -536 -458 -1170 l-447
-1152 152 -493 c83 -271 152 -500 152 -508 1 -8 -31 -87 -71 -175 l-72 -160
-220 -195 c-122 -107 -236 -207 -253 -222 l-33 -27 -403 -11 -403 -11 -441
200 -441 200 -363 91 -362 90 -198 -50 -199 -49 -529 89 c-291 50 -534 88
-541 86 -6 -3 -41 -62 -79 -133 l-67 -128 -1059 -569 c-582 -313 -1060 -572
-1063 -576 -10 -16 -26 -393 -17 -402 7 -7 52 -3 132 10 l122 21 146 -29 c81
-17 413 -62 737 -100 l590 -70 743 -201 742 -200 825 -409 825 -409 1015 -211
1015 -211 566 57 c315 31 569 52 574 48 4 -5 55 -157 113 -337 l106 -328 108
-115 c59 -63 145 -155 191 -204 l83 -89 144 -538 c80 -296 146 -546 147 -555
2 -11 -119 -147 -336 -377 l-338 -359 -359 -489 c-358 -486 -359 -488 -359
-538 l-1 -50 -279 -209 c-154 -114 -280 -212 -280 -217 0 -20 33 -19 258 9
128 15 232 24 232 20 0 -11 -82 -342 -86 -347 -2 -2 -63 -14 -136 -27 -73 -13
-148 -26 -166 -29 -26 -5 -37 -15 -57 -56 -14 -27 -23 -54 -20 -59 9 -15 982
-13 991 1 3 6 34 102 68 214 l61 203 90 -172 c50 -94 96 -171 104 -171 7 0 33
25 58 56 l44 57 -30 278 -30 279 47 46 c26 25 331 317 677 649 347 331 658
630 693 664 l62 61 121 383 120 382 -89 427 c-49 236 -88 429 -87 430 1 2 213
-77 470 -175 l469 -178 211 -489 211 -490 310 -450 c171 -247 370 -548 443
-667 l132 -218 75 -307 c41 -169 79 -312 84 -317 7 -7 14 -6 21 1 5 5 39 102
75 213 35 112 65 204 67 206 1 1 101 -58 222 -132 219 -133 221 -135 325 -250
58 -64 112 -119 120 -124 35 -18 162 -42 171 -33 7 7 8 46 2 112 -5 55 -7 101
-5 101 2 0 46 -23 98 -51 l94 -51 33 25 c17 14 50 41 72 61 l40 36 -35 32
c-20 18 -61 56 -93 85 l-57 51 53 12 c59 14 87 27 87 40 0 4 -70 60 -156 123
-99 73 -223 179 -344 293 l-189 179 291 5 c184 3 293 9 295 15 2 6 -36 50 -85
98 l-87 87 -253 48 c-139 27 -254 51 -256 53 -2 2 -149 368 -326 813 -176 445
-328 823 -337 840 -88 171 -492 867 -515 888 l-30 26 38 -4 c22 -2 494 -40
1049 -84 l1010 -80 365 69 365 70 21 -22 c16 -16 911 -1112 976 -1194 10 -12
418 -1268 420 -1294 1 -8 -65 -132 -148 -275 l-149 -260 -235 -144 c-129 -78
-361 -225 -516 -327 l-281 -183 -391 -115 c-216 -62 -396 -116 -401 -119 -4
-3 -50 -76 -101 -161 -64 -107 -90 -159 -83 -166 7 -7 69 6 197 42 103 28 188
50 190 48 2 -2 12 -31 22 -64 l19 -60 851 -3 850 -2 61 45 c59 44 65 53 187
279 l126 235 168 165 c160 157 181 174 447 357 154 105 286 197 292 203 15 13
226 994 219 1013 -3 7 -99 160 -214 340 l-209 328 -67 400 -67 400 13 185 13
185 25 -3 c14 -1 396 -68 850 -149 552 -97 828 -151 835 -160 7 -9 240 -52
724 -133 l714 -119 251 -152 c138 -84 359 -218 491 -298 l241 -145 177 -285
177 -286 -8 -285 c-4 -157 -7 -334 -7 -395 l0 -110 265 -90 265 -90 219 -137
218 -137 160 -178 c88 -98 167 -186 176 -195 22 -23 358 -76 375 -59 7 7 -21
58 -97 172 -120 179 -116 165 -55 246 l31 41 -42 129 c-37 113 -115 271 -197
399 -13 21 -11 22 79 44 106 26 131 36 125 53 -2 7 -68 48 -147 92 l-144 80
-42 153 -42 153 -108 116 c-60 63 -113 117 -119 119 -6 3 -41 -2 -78 -10 l-68
-14 -54 108 -54 108 -21 432 c-16 348 -23 438 -36 463 -54 106 -369 684 -378
694 -6 7 -151 35 -321 63 l-310 50 -365 146 c-201 80 -372 153 -381 162 -9 9
-130 195 -269 412 -139 217 -259 405 -267 417 -14 21 -7 23 769 282 l783 261
625 596 625 596 1290 645 1290 646 2605 828 2604 829 2346 180 2345 181 1474
-11 c1062 -8 1477 -8 1485 0 7 7 -20 41 -100 120 l-110 110 -939 240 -940 240
-2111 300 -2110 300 -2771 140 -2770 140 -2537 630 -2538 629 -1403 31 -1404
30 -1617 260 c-1127 181 -1640 260 -1689 259 -38 -1 -853 -32 -1810 -70z"/>
</g>
</svg>
