<?xml version="1.0" standalone="no"?>
<!DOCTYPE svg PUBLIC "-//W3C//DTD SVG 20010904//EN"
 "http://www.w3.org/TR/2001/REC-SVG-20010904/DTD/svg10.dtd">
<svg version="1.0" xmlns="http://www.w3.org/2000/svg"
 width="4345.000000pt" height="2599.000000pt" viewBox="0 0 4345.000000 2599.000000"
 preserveAspectRatio="xMidYMid meet">
<metadata>
Created by potrace 1.16, written by Peter Selinger 2001-2019
</metadata>
<g transform="translate(0.000000,2599.000000) scale(0.100000,-0.100000)"
fill="#000000" stroke="none">
<path d="M40913 25689 l-1562 -298 -1725 -660 -1725 -660 -1606 -1005 -1605
-1005 -1708 -1529 -1707 -1528 -1382 -1111 -1382 -1112 -1277 -732 c-703 -403
-1294 -738 -1313 -746 -20 -7 -501 -164 -1069 -348 l-1032 -335 -2388 -440
-2387 -441 -2170 -450 c-1193 -248 -2190 -459 -2215 -469 -123 -50 -702 -204
-1553 -410 -518 -126 -962 -235 -987 -243 -25 -8 -150 -51 -279 -96 l-234 -83
-440 12 -440 11 -341 178 -341 177 -253 305 c-140 167 -338 405 -440 528
l-187 224 -470 229 -470 229 -674 130 c-371 72 -683 134 -692 140 -10 5 -236
9 -544 9 l-527 0 -211 35 -210 36 -246 -40 c-135 -22 -473 -74 -751 -115
l-505 -74 -595 -27 -595 -28 -260 -104 c-143 -58 -264 -109 -268 -113 -5 -4
-40 -155 -78 -334 l-70 -327 71 -129 70 -129 0 -199 0 -198 193 -89 192 -88
465 -68 465 -67 1020 -549 c561 -302 1344 -722 1739 -934 l719 -384 583 -552
583 -552 680 -351 680 -350 928 -120 928 -119 270 -78 270 -78 475 -316 475
-315 300 14 300 15 65 -30 c36 -17 171 -79 300 -138 129 -59 262 -120 295
-135 33 -15 85 -39 115 -53 30 -13 85 -39 122 -56 37 -16 83 -37 103 -45 35
-15 35 -16 36 -78 1 -35 3 -72 4 -83 1 -11 5 -121 9 -245 15 -503 17 -557 21
-601 5 -39 94 -471 185 -889 62 -287 140 -660 144 -690 3 -19 7 -134 11 -255
6 -240 9 -218 -62 -510 l-39 -161 38 -84 c20 -47 38 -91 38 -99 0 -8 -16 -80
-35 -160 -20 -80 -52 -211 -71 -291 -19 -80 -44 -178 -54 -219 -11 -41 -18
-76 -16 -78 2 -2 31 49 64 114 33 65 84 165 114 223 30 58 68 139 85 180 78
188 100 238 126 285 29 50 39 91 103 420 8 44 17 81 20 84 2 2 5 -38 5 -90 1
-52 3 -107 4 -124 2 -16 6 -88 9 -160 4 -109 10 -145 36 -225 31 -93 31 -99
30 -279 l-1 -183 37 -45 c35 -43 38 -51 42 -127 4 -80 5 -81 57 -146 l53 -65
42 -215 c37 -193 47 -226 93 -325 60 -129 71 -145 64 -90 -3 22 -18 176 -33
341 l-28 302 22 50 c22 50 22 53 7 176 -11 93 -12 146 -5 208 9 74 7 95 -16
198 -24 107 -77 451 -70 457 4 4 14 -23 100 -262 35 -99 93 -255 129 -346 35
-92 88 -254 117 -361 47 -176 55 -197 80 -211 20 -12 51 -64 117 -199 74 -149
100 -192 141 -232 l50 -49 -74 229 c-42 126 -75 238 -76 249 0 11 10 53 22 92
l22 73 -38 122 c-25 82 -40 154 -45 218 -7 88 -12 106 -69 230 -59 129 -81
209 -125 447 -17 95 -39 193 -52 227 -44 123 -103 290 -103 294 0 2 30 -35 68
-84 54 -71 73 -90 100 -95 23 -5 32 -3 30 5 -2 6 -48 97 -103 201 l-99 190
-57 280 c-31 154 -60 318 -63 365 -4 47 -9 105 -11 130 -2 25 -9 115 -15 200
-6 85 -12 173 -15 195 -10 101 -17 239 -11 234 4 -4 92 -165 197 -360 l190
-353 75 -231 75 -230 11 -230 11 -230 62 -74 62 -73 6 -92 c4 -50 12 -226 18
-390 7 -171 16 -291 21 -280 17 43 98 499 113 639 9 83 23 182 31 221 15 71
12 146 -21 479 -4 36 18 -17 78 -191 74 -216 88 -249 143 -330 54 -79 64 -103
94 -214 60 -225 55 -213 109 -250 44 -30 51 -41 76 -111 26 -74 29 -78 95
-124 l69 -48 98 -191 c95 -186 119 -220 247 -361 l36 -40 -15 40 c-8 22 -64
166 -125 320 -107 270 -111 282 -105 335 6 51 2 66 -43 177 -30 73 -55 153
-63 200 -10 63 -24 98 -71 184 -48 88 -198 410 -198 427 0 2 67 -87 148 -199
81 -112 197 -269 258 -349 60 -80 153 -218 207 -307 84 -139 102 -162 128
-168 21 -5 67 -47 168 -158 111 -121 152 -159 202 -186 60 -32 63 -33 48 -10
-9 13 -73 107 -142 209 l-126 185 -1 86 0 86 -73 114 c-40 63 -86 150 -102
193 -24 67 -44 98 -130 200 -91 108 -114 145 -218 343 -66 126 -146 263 -184
315 -38 51 -86 118 -108 148 l-40 55 35 -26 c19 -14 60 -44 91 -67 42 -31 65
-42 92 -42 21 0 37 3 37 6 0 3 -70 78 -155 167 l-156 162 -134 256 -134 257
-317 848 c-174 467 -321 857 -326 867 -5 10 -7 21 -4 24 3 3 49 -2 103 -12 70
-12 341 -27 950 -54 469 -20 855 -40 859 -43 3 -4 10 -51 14 -106 9 -100 10
-104 187 -532 l178 -431 455 -463 c250 -255 643 -644 872 -866 l417 -402 209
-346 c115 -191 216 -360 224 -377 9 -16 63 -148 121 -291 96 -236 117 -279
216 -439 l111 -178 0 -235 0 -234 -86 -442 -86 -441 -135 -217 -135 -218 36
-42 37 -42 -119 -119 -119 -119 -294 -54 c-162 -30 -489 -81 -728 -114 -384
-53 -453 -60 -597 -60 l-163 0 -159 -97 -160 -97 -46 -93 c-25 -51 -46 -95
-46 -98 0 -3 25 -5 56 -5 55 0 57 1 118 60 56 53 74 64 156 92 l93 31 81 -23
c45 -13 84 -25 88 -27 4 -2 0 -19 -8 -38 -14 -34 -14 -36 18 -65 l33 -29 1024
-1 1024 0 346 191 c190 105 347 192 348 193 0 0 -10 51 -23 111 -19 86 -24
133 -22 217 l3 107 88 -76 c86 -74 91 -76 175 -94 48 -9 88 -16 90 -14 2 2
-30 26 -71 54 -72 50 -75 54 -104 131 l-30 78 29 45 30 46 -29 97 c-24 86 -32
100 -60 117 -32 19 -32 19 -17 49 13 25 15 56 9 192 l-7 161 106 430 c58 236
149 579 202 762 l96 333 -83 270 -82 271 -195 172 -194 172 -288 361 c-159
199 -293 370 -298 380 -5 11 -58 141 -117 289 l-106 270 -90 525 -90 525 -115
314 c-62 173 -113 315 -111 316 1 1 77 -5 168 -14 l166 -15 303 52 304 52 184
86 c101 47 185 84 186 82 2 -2 72 -133 156 -291 84 -159 160 -297 169 -307 9
-11 166 -85 348 -165 l333 -146 742 -50 743 -51 810 90 810 90 450 -49 450
-49 290 -114 290 -113 200 -22 c110 -12 202 -26 205 -30 3 -4 91 -120 196
-257 l190 -249 171 -327 171 -327 91 -318 c51 -175 96 -328 101 -340 9 -22 14
-23 153 -23 l144 0 244 -126 244 -126 209 -306 c203 -298 212 -312 322 -549
63 -135 128 -285 145 -334 30 -85 37 -95 145 -213 l113 -123 137 -57 c75 -31
140 -56 145 -56 13 0 11 20 -7 76 -13 37 -38 70 -105 139 -48 50 -90 102 -93
115 -33 141 -46 203 -44 205 2 1 35 21 73 43 l71 42 -15 142 -14 143 -75 113
c-56 83 -81 112 -96 112 -38 0 -49 15 -42 52 6 32 -1 47 -69 151 -54 81 -85
119 -106 127 -23 10 -29 18 -29 44 0 23 -25 69 -95 173 -52 78 -104 147 -115
153 -11 6 -20 16 -20 23 0 6 -48 61 -107 120 l-108 109 95 -5 c92 -4 106 -9
392 -116 243 -92 301 -110 317 -101 17 8 46 0 158 -45 l138 -56 155 11 c218
16 200 7 200 89 0 46 -4 70 -12 73 -7 3 -80 18 -161 34 l-148 28 -87 71 -87
71 -11 93 c-7 51 -16 96 -20 101 -9 8 -309 100 -327 100 -6 0 -19 -7 -29 -17
-17 -15 -19 -14 -28 13 -9 25 -20 32 -75 48 -35 10 -107 43 -160 72 -79 44
-99 52 -115 44 -17 -9 -20 -7 -20 12 0 19 -31 41 -194 134 l-194 111 94 46 94
47 55 111 c31 61 55 113 53 114 -2 2 -43 -25 -91 -59 l-88 -63 -107 -11 c-116
-12 -110 -14 -143 45 -12 23 -30 33 -80 47 -77 23 -331 177 -364 221 -51 69
-524 933 -663 1210 l-150 300 -273 94 c-150 52 -282 94 -293 94 -12 -1 -206
-28 -431 -59 l-411 -57 -600 90 -600 90 -517 322 -517 322 -422 89 c-232 49
-425 93 -429 97 -4 4 -31 89 -59 188 -28 99 -53 187 -56 196 -3 12 107 113
385 352 l390 336 973 708 c535 389 1542 1118 2238 1618 l1265 910 1043 1190
1042 1190 1085 1450 1085 1450 1462 1775 1463 1774 1408 1093 1408 1093 1618
720 1618 719 819 211 c450 116 1112 287 1469 380 358 92 673 173 700 179 28 6
245 31 484 56 238 24 435 46 437 47 1 2 -20 29 -47 61 l-51 57 -431 -1 -432
-1 -1562 -299z"/>
</g>
</svg>
