<?xml version="1.0" standalone="no"?>
<!DOCTYPE svg PUBLIC "-//W3C//DTD SVG 20010904//EN"
 "http://www.w3.org/TR/2001/REC-SVG-20010904/DTD/svg10.dtd">
<svg version="1.0" xmlns="http://www.w3.org/2000/svg"
 width="4546.000000pt" height="1676.000000pt" viewBox="0 0 4546.000000 1676.000000"
 preserveAspectRatio="xMidYMid meet">
<metadata>
Created by potrace 1.16, written by Peter Selinger 2001-2019
</metadata>
<g transform="translate(0.000000,1676.000000) scale(0.100000,-0.100000)"
fill="#000000" stroke="none">
<path d="M16686 16382 c-49 -53 -261 -275 -471 -492 -474 -489 -574 -605 -695
-799 -153 -246 -200 -400 -245 -788 -17 -151 -23 -178 -50 -234 -17 -36 -20
-37 -84 -43 -36 -3 -226 -9 -422 -12 l-356 -7 -7 174 c-8 198 -23 359 -66 709
-57 467 -69 621 -70 895 -1 143 2 268 5 278 4 10 5 20 3 22 -10 10 -116 -54
-187 -114 -123 -104 -605 -598 -684 -701 -144 -189 -299 -475 -337 -624 -42
-166 -22 -340 69 -595 23 -63 41 -119 41 -126 0 -6 -41 -16 -102 -23 -136 -16
-358 -61 -596 -119 -166 -40 -194 -45 -206 -32 -28 30 -76 435 -76 649 0 128
-12 212 -44 322 -32 109 -28 99 -112 280 -41 86 -79 178 -86 204 -7 25 -18 48
-24 51 -15 6 -116 -46 -229 -116 -49 -31 -101 -62 -115 -68 -40 -17 -200 -159
-262 -231 -32 -37 -90 -110 -130 -162 -39 -52 -87 -111 -104 -130 -65 -70
-109 -194 -136 -378 -12 -87 -18 -620 -8 -752 l5 -65 -140 -40 c-218 -64 -446
-149 -612 -230 -84 -41 -153 -72 -153 -69 0 222 -10 520 -19 554 -6 25 -18 72
-26 105 -8 33 -17 68 -19 77 -3 9 -10 26 -16 38 -30 55 -245 278 -390 404 -58
50 -134 117 -170 149 -56 51 -148 107 -176 107 -5 0 -25 -24 -44 -53 -19 -28
-60 -79 -90 -112 -113 -122 -261 -326 -315 -434 -33 -66 -105 -250 -135 -346
-14 -45 -25 -116 -30 -200 -10 -142 -1 -205 56 -421 15 -54 36 -136 48 -182
12 -46 27 -86 32 -90 6 -4 19 -40 29 -80 l17 -73 -28 -41 c-40 -58 -99 -98
-244 -169 -69 -34 -200 -98 -292 -143 l-168 -82 0 130 c-1 179 -16 372 -35
448 -9 34 -57 177 -107 318 -58 167 -104 319 -133 441 -48 207 -62 255 -130
444 -50 142 -104 265 -115 265 -8 0 -22 -51 -43 -155 -8 -38 -37 -158 -65
-265 -28 -107 -63 -269 -77 -360 -14 -91 -44 -275 -65 -410 -40 -251 -99 -725
-102 -815 -3 -95 14 -260 33 -320 10 -33 37 -91 59 -128 49 -81 51 -75 -65
-162 -78 -59 -125 -77 -199 -79 -30 -1 -69 -10 -95 -23 -40 -20 -47 -21 -72
-7 -42 21 -107 17 -174 -13 -33 -14 -70 -25 -83 -25 -12 0 -53 15 -90 33 l-68
34 43 53 c24 29 52 69 62 90 31 62 88 213 101 272 7 30 21 89 31 130 28 114
106 607 121 760 16 183 14 485 -6 645 -24 190 -46 295 -62 295 -17 0 -75 -89
-111 -168 -14 -30 -58 -109 -98 -176 -39 -66 -90 -155 -112 -197 -68 -127
-277 -424 -351 -498 -99 -100 -219 -287 -319 -499 -63 -134 -101 -259 -110
-359 -3 -40 -10 -73 -15 -73 -33 0 -228 136 -377 262 -103 88 -185 201 -213
291 -11 40 -24 74 -28 77 -4 3 -10 31 -13 63 -3 32 -11 65 -19 74 -10 13 -8
19 17 39 52 42 256 170 427 268 95 53 211 193 364 436 78 124 294 546 294 575
0 20 -45 20 -147 0 -43 -8 -98 -15 -123 -15 -25 0 -115 -11 -202 -25 -86 -13
-205 -29 -265 -35 -146 -15 -295 -38 -368 -56 -83 -22 -210 -83 -271 -131 -44
-35 -57 -55 -94 -140 -61 -140 -129 -273 -139 -273 -5 0 -14 7 -22 16 -7 9
-33 30 -58 47 -25 17 -78 59 -117 94 -39 35 -77 63 -83 63 -7 0 -46 34 -87 75
l-76 76 40 52 c22 29 43 63 47 77 4 14 23 55 41 91 88 177 115 454 68 714 -18
100 -15 295 4 332 15 28 -7 49 -36 34 -10 -5 -84 -77 -163 -158 -79 -81 -198
-191 -263 -243 -235 -188 -300 -245 -348 -310 -53 -71 -148 -251 -148 -280 0
-27 -15 -33 -99 -37 -41 -2 -111 -12 -156 -22 -153 -37 -237 -45 -314 -33 -93
16 -278 15 -371 -2 -41 -8 -111 -26 -155 -41 -78 -27 -86 -28 -350 -31 -279
-3 -307 -6 -545 -58 -102 -22 -308 -91 -470 -156 -30 -12 -124 -46 -207 -76
-84 -30 -178 -67 -210 -82 -54 -25 -61 -33 -102 -107 -71 -131 -142 -332 -206
-585 l-24 -94 22 -24 c45 -48 107 -80 179 -92 79 -14 119 -11 263 19 148 31
165 41 199 112 36 75 76 119 108 119 31 0 84 -63 110 -133 22 -58 58 -243 58
-298 0 -62 -32 -119 -102 -184 -125 -116 -224 -153 -454 -170 -103 -8 -154
-26 -154 -55 0 -30 59 -106 153 -197 52 -50 108 -98 125 -107 55 -28 214 -66
280 -66 36 0 75 -6 91 -15 39 -20 226 -65 271 -65 20 0 63 9 95 20 l58 20 41
-38 c23 -21 84 -61 136 -90 52 -29 124 -76 160 -105 76 -62 290 -295 290 -317
0 -8 16 -28 36 -44 20 -16 79 -95 132 -175 52 -80 121 -182 152 -226 60 -82
189 -292 215 -348 24 -51 172 -271 282 -418 215 -286 379 -448 818 -808 525
-431 802 -618 1435 -969 138 -77 304 -153 745 -339 364 -154 350 -149 585
-235 96 -36 207 -79 245 -95 39 -17 81 -34 95 -38 39 -11 473 -172 521 -193
24 -11 87 -33 139 -50 147 -47 344 -118 465 -168 61 -26 142 -55 180 -66 174
-49 219 -63 350 -108 159 -56 305 -95 384 -105 93 -12 183 -43 215 -73 17 -16
72 -60 121 -97 50 -37 117 -91 150 -120 82 -71 254 -195 272 -195 19 0 107
-45 122 -63 6 -9 103 -54 214 -101 111 -48 208 -90 215 -94 15 -10 142 -297
142 -322 0 -10 32 -78 71 -151 278 -522 361 -721 361 -869 0 -25 -16 -94 -35
-155 -19 -60 -37 -124 -41 -142 -3 -17 -28 -94 -55 -170 -92 -253 -163 -550
-205 -858 -15 -104 -35 -235 -46 -290 -11 -55 -24 -143 -30 -195 -14 -123 -30
-216 -45 -261 -7 -19 -20 -85 -30 -145 -9 -60 -28 -152 -41 -204 -14 -52 -32
-134 -40 -181 -7 -47 -32 -137 -54 -200 -147 -411 -149 -422 -144 -699 2 -118
6 -225 9 -236 4 -17 -10 -36 -58 -81 -51 -47 -80 -65 -148 -90 -234 -88 -307
-122 -378 -178 -53 -42 -124 -123 -150 -172 l-12 -23 1031 0 c817 0 1030 3
1030 13 0 6 -7 65 -17 130 -15 111 -15 126 1 247 10 71 16 151 15 177 -3 35 2
56 16 77 11 16 21 45 22 63 1 22 13 47 34 70 17 20 53 82 79 137 92 193 127
271 133 297 4 14 48 98 98 185 51 87 120 211 154 274 96 179 176 313 248 420
27 40 113 187 191 328 79 142 167 295 197 342 30 47 72 131 93 185 21 55 54
138 73 185 35 87 46 120 82 270 48 194 62 287 68 451 7 190 -2 292 -53 619
-19 124 -39 254 -44 290 -5 36 -15 94 -24 130 -8 36 -13 66 -12 68 3 2 153
-29 301 -63 14 -3 21 -13 22 -33 4 -61 113 -491 146 -577 19 -49 73 -170 121
-268 47 -98 86 -181 86 -184 0 -20 101 -221 162 -320 39 -65 106 -190 148
-278 42 -88 113 -221 157 -295 73 -124 163 -298 163 -316 0 -4 11 -30 25 -59
47 -100 114 -272 139 -356 29 -100 82 -256 96 -284 5 -11 21 -46 34 -78 25
-58 61 -108 147 -204 73 -82 98 -186 114 -473 5 -85 3 -132 -8 -180 -18 -81
-17 -421 2 -490 29 -104 92 -249 112 -255 10 -4 24 -15 29 -26 13 -23 71 -49
109 -49 32 0 71 37 71 66 0 47 43 233 53 227 6 -3 26 -6 46 -5 31 1 42 -6 91
-57 66 -71 118 -92 169 -70 38 17 40 21 47 127 3 48 12 121 21 163 13 64 19
77 42 87 43 20 76 78 78 139 1 32 7 61 16 71 9 9 18 33 22 52 4 19 23 54 44
77 l38 42 48 -15 c62 -18 98 -17 160 5 68 24 75 40 75 193 l0 127 31 17 c18 9
58 20 91 24 112 16 178 67 178 138 0 77 -57 169 -194 312 -73 76 -118 134
-163 210 -34 58 -87 133 -117 167 -31 33 -56 66 -56 72 0 5 -13 18 -29 27 -17
10 -27 23 -24 31 3 7 1 19 -4 26 -35 45 -113 333 -138 512 -8 55 -24 159 -35
230 -13 79 -24 221 -30 360 -14 375 -47 729 -86 943 -9 51 -14 95 -11 98 3 3
126 -1 273 -10 189 -12 407 -16 747 -16 l480 1 49 -108 c69 -154 355 -625 433
-713 31 -35 161 -262 169 -297 4 -15 29 -66 55 -113 58 -103 81 -158 116 -274
15 -49 33 -99 40 -110 24 -37 45 -106 82 -276 l37 -165 2 -360 c1 -198 2 -389
3 -425 1 -79 -24 -209 -51 -270 -12 -25 -29 -72 -38 -105 -29 -100 -78 -188
-146 -261 -35 -38 -85 -95 -111 -126 -25 -32 -51 -58 -58 -58 -13 0 -35 -42
-35 -68 0 -10 6 -27 14 -38 18 -26 13 -33 -50 -66 -144 -77 -325 -139 -509
-174 -158 -29 -284 -63 -336 -90 -176 -89 -435 -311 -455 -391 -3 -12 -12 -24
-20 -27 -62 -24 56 -26 1369 -26 l1382 0 28 25 c15 14 27 34 28 43 6 146 21
372 28 427 16 117 198 681 273 844 16 36 34 85 40 110 6 25 16 60 24 78 28 67
69 286 62 333 -2 8 1 46 6 83 5 46 4 72 -3 81 -9 10 -8 25 0 57 10 38 8 63
-16 184 -15 77 -35 164 -45 193 -11 29 -36 128 -56 220 -59 265 -51 379 48
679 38 117 55 156 74 168 18 12 29 13 44 5 11 -6 20 -15 20 -21 0 -5 6 -9 13
-7 21 5 107 -33 107 -48 0 -8 5 -14 11 -14 5 0 7 5 3 12 -4 6 -3 9 2 6 5 -3
65 -38 134 -78 191 -110 354 -212 363 -227 4 -7 15 -13 23 -13 32 0 195 -120
525 -386 260 -210 327 -270 378 -336 20 -26 75 -98 123 -160 118 -154 212
-334 239 -459 11 -52 30 -125 42 -164 20 -64 22 -91 22 -300 0 -263 -8 -306
-89 -480 -43 -92 -47 -112 -30 -167 3 -10 10 -18 15 -18 23 0 3 -21 -68 -71
-192 -136 -315 -189 -441 -189 -130 -1 -284 -25 -344 -56 -86 -43 -272 -170
-327 -221 -40 -38 -51 -57 -56 -91 l-7 -42 1376 0 1375 0 25 33 c50 65 55 90
45 226 -5 69 -16 150 -24 180 -7 31 -17 79 -21 106 -3 28 -24 106 -46 175 -56
177 -66 247 -64 423 2 158 27 419 51 520 7 31 10 59 6 61 -4 3 6 67 23 143 28
133 30 148 30 399 1 184 -2 265 -11 275 -6 8 -11 31 -11 52 0 21 -4 43 -10 50
-5 6 -15 30 -22 52 -7 22 -21 49 -32 61 -10 11 -16 28 -13 36 9 23 -70 112
-240 273 -300 282 -370 353 -479 480 -139 161 -196 239 -320 433 -138 217
-209 358 -255 509 -31 99 -84 315 -97 388 -20 121 -210 576 -271 649 -13 16
-20 32 -16 37 8 7 311 120 473 176 41 15 278 106 525 204 248 98 495 192 550
209 55 17 106 36 113 43 16 13 50 26 577 226 807 307 1060 387 2480 790 576
163 1062 257 1350 262 61 1 142 5 180 10 68 8 483 38 615 44 36 2 83 6 105 9
22 3 144 15 270 26 200 18 852 82 1105 109 505 54 2217 265 2360 290 48 9 218
35 900 135 262 39 466 65 590 76 63 5 207 18 320 29 113 11 245 21 293 21 54
1 103 8 125 17 28 12 97 16 316 20 715 11 1491 4 1586 -16 25 -5 97 -12 160
-15 207 -12 360 -28 353 -38 -3 -6 1 -14 8 -19 21 -13 59 -11 59 4 0 18 42 19
170 2 58 -8 130 -17 160 -20 223 -21 278 -27 380 -41 63 -8 147 -19 185 -24
39 -5 99 -12 135 -15 63 -5 206 -25 338 -46 35 -5 71 -14 80 -19 9 -5 100 -29
202 -54 500 -121 650 -159 734 -185 90 -28 163 -48 201 -55 49 -9 75 -19 75
-27 0 -5 15 -9 33 -9 18 0 120 -29 227 -65 107 -36 249 -81 315 -101 66 -20
165 -55 220 -79 55 -23 147 -62 205 -85 58 -24 150 -64 205 -90 374 -180 588
-287 644 -324 37 -24 96 -61 134 -82 37 -21 67 -41 67 -45 0 -4 26 -24 58 -45
31 -21 80 -56 108 -79 197 -157 179 -141 275 -255 25 -30 53 -76 61 -101 15
-43 15 -46 -3 -57 -10 -7 -25 -12 -33 -12 -12 0 -12 -6 -3 -35 7 -26 18 -37
36 -41 75 -17 101 -26 101 -34 0 -5 7 -7 15 -4 13 5 79 -23 144 -60 38 -23
180 -168 175 -180 -2 -6 9 -12 27 -13 17 -1 38 -8 46 -15 8 -7 28 -11 44 -10
16 1 29 -2 29 -7 0 -4 19 -11 43 -15 57 -9 208 -46 226 -56 22 -12 57 9 74 44
23 49 67 199 67 230 0 16 -14 74 -31 130 -17 56 -32 106 -34 111 -1 6 -7 23
-13 38 -7 16 -12 32 -12 38 0 18 -64 146 -102 202 -79 117 -172 183 -316 228
-53 16 -101 34 -106 39 -6 6 -19 10 -31 10 -31 0 -106 49 -180 117 l-67 63 29
11 c51 20 249 23 378 6 66 -9 206 -19 310 -22 105 -3 267 -10 360 -16 222 -15
1041 -14 1242 0 281 21 892 98 1118 142 313 60 443 93 524 130 46 22 82 42 78
45 -3 3 -122 6 -264 6 -526 -1 -999 1 -1048 3 -27 2 -115 6 -195 10 -80 3
-210 13 -290 21 -270 26 -485 46 -600 54 -63 5 -169 16 -235 24 -66 9 -176 20
-245 26 -180 14 -370 37 -650 80 -69 11 -181 27 -250 36 -69 9 -181 26 -250
39 -69 13 -197 36 -285 50 -88 15 -197 36 -243 46 -48 12 -96 17 -115 14 -18
-4 -59 0 -92 7 -53 13 -75 26 -190 122 -177 148 -190 158 -270 217 -38 28 -71
54 -73 59 -2 5 6 11 17 15 11 3 40 25 63 49 24 23 71 59 106 80 35 21 85 53
111 70 26 18 108 54 182 80 151 54 360 143 589 251 85 41 211 97 280 125 69
29 171 74 228 101 56 27 108 49 115 49 22 0 308 135 517 245 412 215 1024 595
1275 789 50 39 196 191 175 183 -41 -16 -267 -121 -285 -132 -11 -8 -78 -34
-150 -59 -144 -50 -290 -109 -530 -214 -294 -128 -425 -182 -444 -182 -10 0
-44 -9 -77 -21 -53 -18 -197 -62 -694 -213 -85 -26 -195 -61 -245 -77 -250
-84 -536 -159 -601 -159 -18 0 -76 -9 -130 -20 -96 -20 -467 -81 -609 -101
-416 -57 -569 -85 -715 -131 -52 -17 -108 -41 -123 -54 -16 -13 -35 -24 -44
-24 -8 0 -52 22 -97 49 -142 85 -415 235 -593 327 -95 49 -173 93 -173 99 0 5
18 33 39 60 45 56 53 70 176 280 114 197 178 324 171 342 -4 10 -14 13 -29 9
-13 -3 -71 -6 -130 -7 -59 -1 -124 -6 -145 -11 -20 -5 -98 -20 -172 -33 -321
-56 -364 -70 -520 -171 -39 -25 -78 -56 -86 -70 -9 -13 -23 -24 -30 -24 -8 0
-23 -9 -35 -21 l-21 -21 -117 45 c-154 60 -563 194 -781 256 -174 50 -566 144
-732 177 -68 13 -89 21 -94 36 -3 10 -7 63 -9 116 -1 53 -7 109 -13 123 -7 18
-6 40 4 79 8 30 14 69 14 87 0 32 26 148 55 248 8 28 26 94 40 148 14 54 32
112 40 130 8 18 28 73 46 122 17 50 52 129 76 178 72 139 48 150 -108 49 -57
-38 -147 -109 -199 -158 -52 -49 -167 -153 -254 -229 -178 -156 -205 -187
-306 -350 -72 -116 -101 -147 -233 -244 -59 -43 -117 -112 -117 -139 0 -11 -8
-13 -32 -8 -59 10 -418 55 -613 76 -263 28 -528 48 -737 56 l-178 7 6 26 c3
14 12 51 19 81 110 450 141 1021 71 1295 -17 65 -40 67 -74 5 -99 -181 -186
-276 -537 -591 -172 -154 -335 -317 -396 -398 -71 -93 -139 -236 -146 -306
l-6 -56 -66 6 c-36 3 -205 10 -376 15 -461 16 -828 44 -1235 95 -280 35 -290
37 -290 45 0 15 92 254 115 300 33 65 112 198 149 250 135 191 271 505 407
944 49 159 51 186 15 186 -21 0 -134 -99 -328 -288 -103 -100 -238 -220 -300
-266 -62 -47 -163 -124 -225 -173 -68 -54 -172 -122 -270 -176 -176 -98 -233
-138 -391 -279 -113 -100 -193 -186 -256 -275 -45 -63 -39 -62 -231 -28 -77
14 -241 44 -365 66 -124 22 -272 49 -330 59 -216 39 -785 170 -813 187 -4 2 1
16 11 31 23 33 182 341 182 353 0 5 25 55 56 111 59 109 133 224 261 405 130
185 393 641 393 681 0 44 -40 22 -159 -85 -162 -147 -175 -157 -341 -253 -80
-46 -183 -109 -230 -140 -47 -32 -135 -81 -195 -109 -61 -29 -173 -87 -250
-130 -77 -43 -178 -99 -225 -124 -131 -71 -348 -225 -422 -301 -21 -22 -43
-54 -50 -73 -7 -18 -16 -33 -21 -33 -18 0 -463 133 -471 141 -6 5 -19 9 -31 9
-17 0 -580 162 -907 262 -67 20 -68 20 -70 56 -5 110 35 265 80 316 10 11 77
84 148 162 172 187 240 289 409 619 42 83 104 188 136 235 91 130 274 411 293
448 10 19 15 36 12 39 -3 3 -36 -15 -73 -39 -103 -68 -177 -108 -303 -167 -63
-29 -176 -86 -250 -127 -74 -40 -175 -92 -225 -115 -112 -52 -519 -277 -595
-329 -31 -21 -101 -79 -156 -130 -109 -101 -202 -166 -290 -206 -33 -15 -66
-33 -74 -39 -8 -7 -68 -41 -134 -75 -130 -67 -220 -137 -238 -187 -7 -18 -15
-33 -19 -33 -4 0 -135 40 -291 89 -301 95 -883 275 -1008 311 -41 12 -77 24
-78 25 -2 2 50 66 115 142 65 76 174 208 243 293 412 514 581 705 712 802 38
28 68 54 68 58 0 5 89 84 198 177 470 401 705 626 1011 968 108 121 237 262
287 315 50 52 94 105 98 118 13 41 -19 36 -96 -16 -148 -100 -648 -422 -818
-527 -303 -188 -1059 -698 -1200 -809 -74 -59 -201 -152 -281 -207 -80 -55
-184 -132 -231 -172 -146 -124 -180 -151 -213 -172 -18 -11 -113 -81 -212
-156 -181 -137 -302 -214 -521 -332 -65 -35 -135 -75 -157 -89 -22 -14 -51
-29 -65 -33 -14 -4 -34 -16 -46 -26 -21 -19 -25 -19 -440 85 -230 58 -436 108
-456 112 -45 7 -46 13 -13 44 56 52 108 134 226 350 129 239 201 352 297 465
32 39 85 106 117 150 33 44 194 219 360 390 165 171 435 459 599 640 165 182
342 374 393 427 91 97 227 267 219 275 -12 12 -235 -118 -433 -252 -123 -82
-329 -217 -458 -300 -130 -82 -315 -205 -413 -273 -97 -68 -359 -243 -582
-391 -223 -147 -450 -304 -505 -348 -116 -92 -363 -320 -479 -441 -92 -95
-247 -233 -319 -281 -27 -19 -95 -55 -151 -82 -57 -26 -108 -55 -116 -63 -18
-23 -37 -21 -247 23 -103 22 -228 48 -278 57 -49 9 -92 18 -94 20 -2 2 13 29
32 61 122 200 239 491 392 968 125 392 281 754 451 1051 122 214 183 296 376
506 54 58 98 109 98 113 0 9 -140 -68 -210 -115 -95 -65 -550 -409 -665 -504
-180 -148 -491 -422 -626 -551 -69 -66 -194 -185 -278 -264 -221 -209 -309
-329 -456 -627 -124 -250 -173 -317 -265 -364 -25 -13 -48 -27 -51 -32 -4 -6
-111 1 -270 16 -145 14 -365 32 -489 41 -123 9 -226 17 -227 19 -2 2 15 34 39
72 60 99 140 272 183 394 81 232 125 470 180 965 52 471 96 760 146 963 11 46
19 85 17 88 -2 2 -44 -40 -92 -94z"/>
<path d="M41136 6181 c-3 -5 1 -11 9 -14 9 -4 12 -1 8 9 -6 16 -10 17 -17 5z"/>
<path d="M19076 3433 c-12 -12 -5 -23 14 -23 11 0 20 4 20 9 0 11 -26 22 -34
14z"/>
</g>
</svg>
