<?xml version="1.0" standalone="no"?>
<!DOCTYPE svg PUBLIC "-//W3C//DTD SVG 20010904//EN"
 "http://www.w3.org/TR/2001/REC-SVG-20010904/DTD/svg10.dtd">
<svg version="1.0" xmlns="http://www.w3.org/2000/svg"
 width="1536.000000pt" height="654.000000pt" viewBox="0 0 1536.000000 654.000000"
 preserveAspectRatio="xMidYMid meet">
<metadata>
Created by potrace 1.16, written by Peter Selinger 2001-2019
</metadata>
<g transform="translate(0.000000,654.000000) scale(0.100000,-0.100000)"
fill="#000000" stroke="none">
<path d="M8215 6533 c-323 -13 -835 -60 -910 -83 -16 -5 -70 -16 -120 -24
-220 -36 -561 -135 -714 -208 -187 -88 -465 -174 -1046 -323 -478 -123 -624
-176 -990 -355 -240 -118 -482 -260 -630 -370 -53 -39 -224 -181 -381 -316
-157 -134 -312 -265 -346 -290 -135 -99 -339 -193 -533 -244 -118 -32 -123
-32 -290 -28 -247 7 -331 30 -477 131 -99 69 -153 98 -241 128 -53 18 -83 34
-85 45 -6 26 64 157 128 242 159 212 395 368 635 423 122 28 306 30 430 5 161
-32 238 -11 291 80 33 57 29 103 -16 168 -60 88 -152 130 -320 146 -251 26
-671 -54 -880 -167 -337 -181 -741 -526 -992 -844 -171 -217 -271 -379 -415
-669 -101 -203 -150 -290 -211 -372 -49 -66 -84 -124 -92 -153 -20 -70 -10
-79 94 -87 55 -4 97 -13 113 -23 21 -14 40 -16 115 -10 82 7 101 12 212 65
125 60 195 78 321 83 58 2 63 0 145 -56 147 -100 269 -202 480 -402 358 -339
574 -491 829 -585 101 -37 328 -95 431 -110 67 -9 348 -39 376 -40 6 0 37 -34
69 -76 63 -82 120 -118 256 -163 36 -12 79 -32 96 -44 48 -36 133 -114 133
-123 0 -5 -16 -41 -36 -81 -23 -47 -52 -139 -83 -265 -58 -234 -107 -390 -166
-539 -45 -110 -75 -241 -75 -324 0 -99 -77 -319 -149 -425 -60 -89 -93 -161
-80 -176 40 -49 310 -40 430 13 65 29 117 78 128 121 5 21 12 118 15 217 10
288 33 490 65 576 12 31 78 152 148 270 137 233 234 426 257 515 8 31 16 58
18 60 10 9 111 -71 161 -127 60 -67 80 -116 132 -314 35 -136 82 -425 95 -585
5 -74 15 -196 22 -270 6 -75 8 -152 4 -171 -3 -20 -31 -76 -62 -125 -70 -114
-89 -152 -80 -161 12 -12 134 -22 273 -22 132 -1 133 -1 164 27 l32 28 3 205
c2 112 4 227 5 254 1 28 -6 88 -15 135 -15 73 -17 121 -12 333 4 188 2 269 -9
335 -8 48 -19 140 -25 205 -15 166 -36 221 -122 313 -27 29 -88 160 -88 190 0
15 106 50 255 83 143 33 685 124 744 125 l54 1 12 -60 c25 -120 115 -317 208
-453 42 -63 103 -200 145 -326 31 -95 37 -124 37 -201 0 -74 -4 -97 -23 -132
-12 -24 -29 -73 -38 -110 -8 -37 -26 -90 -39 -118 -35 -72 -172 -278 -241
-361 -32 -39 -73 -91 -90 -116 -46 -66 -147 -146 -239 -188 -59 -27 -94 -52
-132 -93 -29 -31 -53 -62 -53 -70 0 -22 119 -30 444 -30 l290 0 31 34 c23 26
39 62 65 154 59 208 176 410 403 699 74 94 79 121 41 236 -26 79 -28 97 -28
255 0 94 4 296 8 450 7 212 5 298 -4 355 -21 124 -21 125 23 128 37 3 44 -2
155 -106 186 -173 318 -268 523 -378 173 -92 403 -243 485 -318 101 -92 204
-235 204 -282 0 -10 16 -49 35 -88 44 -91 57 -183 58 -426 2 -167 -1 -191 -21
-250 -14 -43 -22 -89 -22 -136 0 -62 -4 -76 -29 -111 -30 -41 -54 -53 -190
-94 -57 -17 -84 -31 -118 -65 -25 -23 -43 -49 -41 -56 5 -15 132 -25 349 -27
134 -1 138 0 194 29 57 30 75 31 75 6 0 -8 8 -23 18 -35 l17 -22 45 23 c58 30
85 72 106 166 9 42 28 105 40 140 13 34 24 74 24 89 0 14 -18 63 -40 108 -53
110 -68 237 -51 436 38 443 37 411 12 462 -23 48 -41 65 -151 145 -43 31 -112
103 -208 217 -117 140 -151 188 -193 272 -54 110 -204 555 -195 578 10 27 102
85 271 172 215 110 367 200 625 374 164 110 223 156 296 231 82 84 98 106 158
227 37 73 92 190 122 258 75 173 117 245 190 326 35 38 81 104 103 146 67 129
36 114 491 245 241 70 709 184 1205 295 252 55 266 58 485 86 107 13 281 35
385 49 443 57 838 65 1420 26 262 -17 749 -65 765 -75 3 -2 65 -9 136 -15 316
-27 628 -74 901 -136 215 -49 271 -39 176 31 -58 42 -310 168 -443 220 -220
86 -1243 426 -1500 499 -164 46 -327 87 -475 121 -66 15 -160 40 -210 56 -49
15 -138 40 -197 53 -58 14 -184 51 -280 82 -95 30 -254 75 -353 99 -99 24
-279 68 -400 98 -530 132 -649 156 -1250 257 -361 60 -433 71 -600 90 -93 11
-177 22 -185 25 -41 13 -486 47 -725 55 -259 9 -326 9 -480 3z"/>
</g>
</svg>
