<?xml version="1.0" standalone="no"?>
<!DOCTYPE svg PUBLIC "-//W3C//DTD SVG 20010904//EN"
 "http://www.w3.org/TR/2001/REC-SVG-20010904/DTD/svg10.dtd">
<svg version="1.0" xmlns="http://www.w3.org/2000/svg"
 width="4750.000000pt" height="1445.000000pt" viewBox="0 0 4750.000000 1445.000000"
 preserveAspectRatio="xMidYMid meet">
<metadata>
Created by potrace 1.16, written by Peter Selinger 2001-2019
</metadata>
<g transform="translate(0.000000,1445.000000) scale(0.100000,-0.100000)"
fill="#000000" stroke="none">
<path d="M25990 14429 c-162 -4 -383 -12 -490 -18 -107 -6 -287 -15 -400 -21
-189 -10 -937 -57 -1280 -81 -80 -5 -449 -14 -820 -19 -371 -5 -738 -14 -815
-19 -325 -25 -616 -55 -1025 -106 -239 -30 -561 -68 -715 -85 -1137 -124
-1738 -226 -3550 -601 -291 -61 -663 -137 -825 -170 -874 -178 -2237 -591
-3180 -964 -311 -123 -652 -269 -1430 -612 -1068 -472 -1344 -588 -1660 -700
-102 -35 -313 -111 -470 -168 -351 -128 -494 -171 -770 -235 -534 -123 -766
-134 -1208 -59 -555 95 -1002 249 -1337 462 -167 107 -439 312 -605 457 -173
152 -488 382 -675 495 -120 72 -405 218 -498 255 -45 18 -78 42 -145 109 -48
48 -118 108 -157 135 -38 27 -86 62 -105 78 -122 101 -263 162 -400 172 -41 3
-138 12 -215 22 -168 20 -312 15 -470 -17 -159 -31 -327 -23 -522 25 -79 20
-157 43 -174 52 -18 9 -55 24 -83 34 -28 10 -87 32 -131 50 -263 105 -347 121
-525 94 -84 -12 -124 -25 -200 -61 -154 -73 -220 -128 -403 -333 -62 -69 -175
-191 -252 -271 -168 -175 -256 -294 -335 -454 -80 -164 -101 -240 -107 -401
-9 -216 5 -281 112 -509 8 -16 18 -46 23 -65 7 -27 13 -34 29 -33 17 2 22 -5
28 -43 7 -47 30 -68 46 -43 14 24 26 -2 37 -85 6 -44 17 -85 25 -94 14 -13 18
-11 36 19 12 19 23 39 24 44 2 6 14 1 26 -9 15 -13 21 -31 22 -60 0 -49 19
-108 36 -113 7 -3 21 14 33 37 25 49 42 48 52 -6 15 -76 19 -84 34 -84 9 0 21
14 27 30 13 35 31 34 35 -1 4 -44 23 -99 33 -99 5 0 17 16 26 35 21 44 33 45
33 1 0 -19 5 -47 10 -61 8 -22 13 -25 24 -16 8 7 17 23 20 36 10 40 23 29 29
-27 4 -28 13 -59 22 -67 13 -14 17 -11 32 27 25 65 46 53 55 -30 6 -66 21
-108 38 -108 5 0 19 27 31 60 12 33 27 60 34 60 7 0 16 -29 22 -70 12 -74 29
-108 46 -91 5 5 17 33 27 63 24 73 43 70 52 -9 7 -66 23 -107 38 -98 5 3 17
30 26 60 10 30 21 55 25 55 4 0 10 -19 14 -42 8 -48 21 -78 34 -78 5 0 15 23
22 50 7 28 16 50 20 50 5 0 11 -17 15 -37 8 -44 21 -73 33 -73 5 0 14 20 20
45 6 25 15 45 20 45 5 0 14 -20 20 -44 14 -56 29 -67 37 -26 4 17 10 32 14 35
4 2 27 -9 52 -24 45 -29 45 -29 98 -187 85 -260 195 -732 230 -992 22 -166 19
-212 -33 -389 -26 -90 -61 -198 -78 -240 -52 -133 -208 -429 -289 -551 -97
-145 -247 -334 -278 -347 -12 -5 -25 -19 -28 -30 -4 -11 -43 -58 -88 -105 -97
-101 -296 -356 -296 -379 0 -42 60 -139 114 -187 95 -81 214 -162 311 -210 82
-41 102 -47 178 -51 99 -7 166 3 427 58 506 108 658 170 1157 469 154 92 166
97 245 108 46 7 121 23 168 36 47 13 153 42 235 65 261 72 334 91 358 91 12 0
108 -29 212 -65 419 -144 1094 -324 1594 -425 654 -131 759 -148 1316 -210 99
-12 252 -29 340 -40 277 -34 574 -60 760 -66 207 -8 331 6 509 56 173 49 362
66 413 37 12 -7 50 -48 85 -93 35 -44 92 -118 127 -163 162 -207 435 -414 703
-532 190 -84 493 -169 738 -209 451 -72 1027 -43 1960 99 217 33 541 81 720
106 426 60 1114 169 1960 310 663 111 942 155 978 155 12 0 31 -28 61 -87 116
-235 314 -544 596 -933 390 -535 432 -618 479 -942 41 -278 43 -477 10 -680
-11 -67 -16 -164 -15 -353 0 -143 -5 -303 -10 -355 -11 -99 -62 -345 -106
-510 -51 -190 -221 -551 -388 -820 -129 -209 -190 -328 -210 -415 -20 -89 -46
-144 -81 -177 -36 -33 -252 -150 -350 -189 -39 -16 -103 -35 -141 -43 -205
-43 -561 -62 -828 -42 -110 8 -124 6 -172 -13 -28 -11 -106 -31 -172 -45 -67
-13 -149 -37 -183 -54 -111 -52 -220 -159 -279 -274 -52 -101 -36 -117 61 -58
89 54 199 92 271 93 85 2 93 -8 84 -114 -6 -82 -5 -88 18 -115 l25 -29 298 -2
c167 -1 310 -7 326 -12 16 -6 213 -13 451 -16 481 -8 982 6 1066 29 42 11 61
11 80 3 36 -15 500 -11 565 6 69 17 85 43 94 148 l7 84 52 3 c88 5 95 -3 91
-113 -3 -87 -1 -96 20 -117 l23 -23 1032 0 c830 0 1042 3 1084 13 44 12 58 12
90 0 28 -9 106 -13 298 -13 371 0 361 -8 358 285 -1 103 -10 249 -22 355 -12
99 -21 211 -21 248 0 70 20 309 26 316 2 2 10 -1 18 -8 23 -19 187 -97 241
-114 28 -8 69 -19 93 -22 45 -7 122 2 122 15 0 4 -29 24 -65 45 -97 57 -108
72 -110 155 -2 63 -8 82 -53 173 -28 56 -65 137 -83 180 l-32 79 41 136 c23
76 66 232 96 348 41 157 76 263 136 410 45 110 97 242 117 294 20 52 46 122
59 155 49 131 52 221 13 450 -34 202 -74 292 -230 511 -167 234 -234 346 -287
482 -70 177 -98 273 -132 441 -26 131 -39 226 -95 666 -9 66 -31 262 -50 435
-61 562 -104 856 -154 1070 -11 47 -17 88 -13 91 4 4 63 28 132 54 637 240
1142 450 1985 825 607 270 782 353 1305 616 271 136 462 226 550 258 74 27
160 61 190 76 30 16 79 35 108 44 29 9 110 46 180 81 234 117 594 246 1317
471 154 48 366 113 470 146 378 118 1610 468 2155 612 364 96 745 207 1335
389 1113 344 1490 452 3030 867 391 105 989 268 1330 361 341 94 692 190 780
214 396 108 865 216 1106 254 210 34 485 58 1324 116 116 8 269 19 340 25 236
19 1170 9 1425 -15 30 -3 129 -10 220 -15 272 -17 512 -51 985 -140 651 -122
762 -144 890 -175 389 -94 1512 -433 1790 -540 370 -143 1367 -613 1767 -833
240 -133 662 -431 1075 -761 160 -128 664 -611 835 -801 160 -177 203 -207
228 -159 17 32 -18 134 -96 274 -77 141 -94 165 -359 520 -274 367 -506 611
-1024 1079 -226 203 -304 266 -601 478 -689 492 -1329 890 -1710 1063 -69 31
-226 103 -350 160 -699 320 -1159 523 -1325 585 -278 103 -1348 448 -1629 525
-280 76 -1402 284 -1806 334 -91 12 -275 27 -410 36 -135 8 -360 21 -500 30
-140 8 -307 20 -370 25 -546 46 -881 52 -1720 31 -502 -13 -2129 -14 -2700 -1
-234 5 -684 14 -1000 20 -316 5 -696 15 -845 20 -582 22 -1015 40 -1110 46
-141 9 -3579 12 -3935 3z m-7135 -9164 c50 -39 209 -161 355 -270 653 -489
746 -587 958 -1010 108 -217 144 -316 183 -500 16 -77 35 -167 43 -200 67
-282 67 -395 0 -790 -63 -367 -177 -740 -296 -965 -170 -322 -187 -358 -202
-424 -23 -96 -60 -160 -115 -197 -80 -52 -276 -148 -367 -178 -174 -58 -549
-98 -804 -85 -210 10 -249 8 -302 -15 -24 -11 -90 -29 -148 -41 -58 -12 -131
-32 -162 -45 l-56 -23 -7 52 c-4 28 -13 96 -21 150 -17 117 -18 245 -3 336 14
88 70 290 80 290 5 0 13 -8 18 -18 12 -23 166 -111 246 -141 69 -26 189 -40
199 -23 4 6 -19 28 -52 51 -33 22 -71 53 -85 70 -22 27 -24 36 -20 93 5 54 1
74 -22 128 -15 36 -45 114 -66 173 -35 98 -37 111 -25 135 7 15 44 108 81 207
105 281 120 314 293 647 51 97 92 184 92 193 0 9 15 44 34 78 50 90 64 151 81
348 18 221 12 284 -56 506 -56 186 -89 322 -114 468 -27 160 -11 354 59 687
60 285 89 398 100 391 6 -4 52 -39 101 -78z"/>
</g>
</svg>
