<?xml version="1.0" standalone="no"?>
<!DOCTYPE svg PUBLIC "-//W3C//DTD SVG 20010904//EN"
 "http://www.w3.org/TR/2001/REC-SVG-20010904/DTD/svg10.dtd">
<svg version="1.0" xmlns="http://www.w3.org/2000/svg"
 width="774.000000pt" height="491.000000pt" viewBox="0 0 774.000000 491.000000"
 preserveAspectRatio="xMidYMid meet">
<metadata>
Created by potrace 1.16, written by Peter Selinger 2001-2019
</metadata>
<g transform="translate(0.000000,491.000000) scale(0.100000,-0.100000)"
fill="#000000" stroke="none">
<path d="M501 4884 c-13 -9 -29 -31 -37 -49 -11 -26 -20 -33 -51 -38 -21 -4
-61 -21 -88 -38 -28 -18 -81 -46 -120 -64 -128 -58 -199 -170 -193 -303 l3
-64 50 -27 c61 -32 139 -34 258 -8 59 13 127 17 277 17 222 0 244 -4 342 -70
33 -22 63 -40 67 -40 23 0 128 -127 238 -288 71 -102 152 -212 182 -245 75
-81 200 -172 301 -219 47 -22 94 -48 105 -58 11 -10 31 -21 45 -25 53 -15 110
-89 110 -142 0 -15 7 -59 15 -98 12 -57 21 -75 47 -97 34 -29 151 -100 180
-111 22 -8 54 -71 73 -143 8 -32 14 -58 12 -60 -1 -1 -48 -25 -105 -53 -108
-54 -149 -70 -250 -95 -82 -21 -106 -38 -151 -108 -28 -41 -40 -73 -45 -113
-4 -34 -19 -79 -41 -119 -20 -38 -35 -79 -35 -98 0 -41 25 -185 38 -218 15
-38 67 -90 91 -90 26 0 27 15 1 47 -30 38 -28 116 5 148 30 31 45 32 45 3 0
-13 14 -45 30 -73 19 -32 30 -64 30 -88 0 -22 7 -64 16 -94 9 -31 13 -69 10
-87 -3 -18 -1 -46 4 -63 10 -28 97 -113 144 -140 27 -16 98 -17 113 -2 17 17
4 39 -24 39 -15 0 -36 12 -53 30 -24 25 -27 36 -23 72 4 35 0 50 -21 78 -35
48 -42 67 -49 130 -6 51 -5 54 9 35 9 -11 28 -47 44 -80 29 -65 39 -72 134
-100 70 -20 114 -14 156 21 45 38 40 55 -14 48 -55 -8 -71 1 -99 56 -19 38
-29 46 -67 57 -56 16 -101 64 -118 127 -7 26 -22 61 -34 77 -28 37 -54 187
-50 276 l4 61 50 12 c41 10 52 10 59 -1 16 -26 41 -144 48 -225 6 -74 11 -86
54 -152 74 -111 119 -139 208 -130 44 4 42 18 -9 42 -57 27 -92 93 -89 169 1
31 3 57 4 57 1 0 11 -20 22 -44 11 -24 37 -56 57 -72 69 -55 185 -179 209
-225 30 -58 38 -65 118 -89 77 -24 129 -20 165 13 32 29 28 37 -21 37 -52 0
-81 19 -107 69 -11 23 -33 45 -54 55 -38 18 -151 139 -135 145 6 2 45 -18 87
-44 42 -26 94 -50 114 -52 57 -8 124 14 158 53 34 39 28 48 55 -82 53 -262 2
-697 -93 -783 -35 -32 -55 -69 -71 -128 -8 -30 -27 -55 -68 -93 -106 -97 -283
-229 -360 -270 -76 -39 -104 -61 -163 -125 -72 -78 -75 -81 -145 -114 -41 -20
-85 -32 -135 -36 -41 -4 -88 -13 -105 -20 -16 -7 -60 -23 -97 -35 -50 -16 -80
-33 -113 -65 -71 -70 -59 -93 30 -55 55 24 127 26 145 5 18 -21 77 -29 129
-17 25 6 67 13 92 17 l46 6 -33 -67 c-32 -63 -45 -134 -25 -134 5 0 35 25 66
55 48 48 61 55 95 55 33 0 47 8 99 55 53 50 66 57 123 67 76 13 118 33 119 56
1 30 64 205 75 209 6 2 15 -11 20 -29 13 -43 36 -42 49 2 5 19 22 56 38 81 15
25 27 52 27 60 0 20 199 169 295 221 73 40 82 49 108 101 23 47 29 77 37 179
15 188 43 342 102 548 37 129 57 179 125 301 78 141 113 251 120 377 l6 103
46 37 c25 20 63 51 84 69 20 18 43 33 51 33 8 0 29 -26 47 -57 30 -53 63 -101
161 -232 102 -137 314 -326 426 -381 37 -18 108 -47 157 -65 139 -50 287 -119
357 -165 96 -65 223 -201 239 -257 9 -33 29 -62 74 -107 68 -68 82 -90 113
-181 53 -159 60 -221 52 -465 -1 -44 5 -84 19 -125 25 -73 27 -121 5 -129 -9
-3 -43 -6 -77 -6 -61 0 -75 -5 -206 -69 -90 -43 -185 -141 -138 -141 6 0 37 9
67 21 42 16 66 19 105 14 27 -4 83 -7 123 -7 65 0 73 -2 66 -16 -14 -32 -16
-89 -4 -97 7 -4 25 6 43 23 40 38 75 52 133 52 37 0 51 6 75 29 16 16 29 36
29 44 0 9 17 37 37 64 34 44 37 55 43 134 5 62 12 96 28 123 32 54 29 109 -5
136 -28 22 -52 56 -53 76 0 9 77 54 94 54 16 0 76 53 76 67 0 11 -11 13 -58 7
-50 -5 -59 -3 -76 15 -12 13 -31 21 -51 21 -30 0 -35 5 -55 52 -59 138 -93
246 -141 453 -17 71 -45 108 -125 160 -38 26 -73 52 -79 58 -5 7 -46 39 -90
71 -116 87 -254 229 -291 301 -158 310 -183 348 -320 480 -114 110 -111 102
-129 268 l-6 57 32 0 c25 0 42 10 73 43 55 57 106 135 106 162 0 20 7 23 68
28 66 5 175 38 418 125 163 58 264 76 429 77 141 0 171 -4 355 -51 265 -68
523 -108 830 -129 135 -10 248 -19 252 -21 20 -12 473 -22 599 -14 134 9 179
19 179 40 0 21 -46 30 -211 45 -96 8 -241 26 -324 40 -82 14 -190 30 -240 35
-346 39 -643 110 -945 225 -47 18 -103 38 -125 45 -22 7 -44 16 -50 20 -5 4
-41 19 -80 33 -38 14 -104 40 -145 58 -41 18 -142 51 -225 74 -82 24 -188 54
-235 68 -149 43 -377 69 -625 71 -121 1 -245 7 -275 13 -30 6 -122 23 -205 38
-82 14 -175 33 -205 42 -30 8 -113 19 -185 24 -71 4 -149 12 -171 18 -51 13
-280 31 -394 31 -107 0 -240 -21 -373 -60 -56 -16 -187 -54 -292 -85 -196 -57
-355 -82 -403 -64 -13 5 -50 9 -82 9 -89 0 -215 67 -319 168 -72 71 -185 227
-237 327 -95 182 -211 352 -291 425 -97 89 -199 122 -348 113 -69 -4 -89 -1
-149 21 -37 14 -69 26 -70 26 -1 0 -12 -7 -25 -16z m2424 -2226 c23 -21 27
-31 17 -37 -7 -4 -13 -25 -13 -47 0 -21 -2 -92 -4 -156 -2 -65 -1 -118 3 -118
4 0 7 -42 7 -94 0 -78 -3 -97 -19 -115 -11 -11 -22 -21 -26 -21 -3 0 -19 18
-36 40 -31 42 -64 51 -106 29 -31 -17 -89 4 -143 51 -25 22 -58 43 -73 46 -38
9 -86 57 -132 134 -22 36 -40 69 -40 72 0 3 19 13 43 23 120 51 171 84 312
199 l90 73 45 -24 c25 -14 59 -39 75 -55z m-624 -430 c11 -21 11 -22 -4 -9
-10 7 -17 17 -17 22 0 15 9 10 21 -13z m-431 -39 c0 -18 -4 -28 -10 -24 -5 3
-10 20 -10 36 0 18 4 28 10 24 6 -3 10 -20 10 -36z"/>
</g>
</svg>
