<?xml version="1.0" standalone="no"?>
<!DOCTYPE svg PUBLIC "-//W3C//DTD SVG 20010904//EN"
 "http://www.w3.org/TR/2001/REC-SVG-20010904/DTD/svg10.dtd">
<svg version="1.0" xmlns="http://www.w3.org/2000/svg"
 width="830.000000pt" height="498.000000pt" viewBox="0 0 830.000000 498.000000"
 preserveAspectRatio="xMidYMid meet">
<metadata>
Created by potrace 1.16, written by Peter Selinger 2001-2019
</metadata>
<g transform="translate(0.000000,498.000000) scale(0.100000,-0.100000)"
fill="#000000" stroke="none">
<path d="M484 4910 c-15 -22 -33 -40 -41 -40 -7 0 -36 -11 -63 -25 -27 -14
-54 -25 -59 -25 -16 0 -203 -125 -228 -152 -36 -38 -73 -150 -73 -218 0 -59 0
-60 43 -87 54 -35 153 -42 242 -18 33 9 92 19 132 22 67 5 74 4 103 -21 17
-14 42 -26 54 -26 12 0 27 -5 33 -11 9 -9 73 -17 156 -20 10 0 33 -9 50 -19
18 -11 39 -23 47 -26 8 -4 27 -18 42 -32 16 -15 33 -22 43 -19 9 4 24 -2 36
-14 11 -11 31 -24 45 -29 14 -6 31 -24 37 -40 6 -17 17 -30 24 -30 7 0 13 -3
13 -8 0 -4 12 -22 28 -39 15 -17 38 -48 52 -68 14 -20 31 -42 37 -48 84 -79
102 -99 108 -116 3 -12 19 -28 34 -36 18 -9 41 -39 64 -82 36 -70 161 -203
189 -203 8 0 29 -16 48 -35 19 -19 40 -35 47 -35 7 0 29 -18 49 -39 19 -22 41
-38 48 -35 13 5 50 -33 58 -58 2 -6 18 -11 35 -11 25 0 33 -5 38 -24 3 -13 17
-28 30 -33 18 -7 28 -22 36 -56 10 -40 21 -53 73 -91 34 -25 82 -56 108 -69
56 -28 82 -60 101 -122 34 -107 41 -94 -85 -156 -62 -30 -140 -62 -173 -71
-122 -36 -150 -46 -172 -63 -38 -30 -90 -128 -97 -184 -4 -30 -22 -83 -43
-122 -38 -74 -38 -74 -14 -224 12 -75 51 -146 92 -167 26 -14 30 -14 35 -1 3
9 -4 27 -15 42 -14 18 -21 41 -21 71 0 37 6 50 31 76 l32 31 12 -39 c6 -22 21
-56 33 -75 13 -20 22 -52 22 -73 0 -22 7 -64 16 -94 9 -30 14 -69 11 -86 -8
-56 10 -89 79 -151 60 -53 72 -60 118 -64 39 -3 55 0 65 11 17 21 6 37 -25 37
-22 0 -82 45 -72 55 7 8 93 -18 119 -36 35 -25 125 -59 154 -59 29 0 38 13 37
53 -1 28 1 29 31 22 82 -17 94 -17 111 0 10 11 14 24 10 34 -20 49 -19 51 34
51 59 0 83 19 64 51 -15 24 -15 29 0 29 6 0 20 7 30 16 15 15 23 15 62 4 47
-13 97 -7 134 16 36 23 28 44 -17 44 -22 0 -46 3 -55 6 -24 9 -9 24 25 24 22
0 32 7 41 25 12 26 95 81 106 70 3 -3 11 -62 16 -132 8 -100 7 -156 -6 -277
-22 -198 -54 -304 -113 -367 -29 -31 -46 -61 -56 -98 -16 -62 -67 -115 -239
-246 -139 -105 -156 -117 -215 -146 -29 -14 -87 -60 -140 -113 -110 -108 -172
-141 -283 -151 -43 -4 -95 -15 -117 -25 -22 -10 -63 -25 -92 -34 -62 -21 -123
-63 -142 -99 -20 -38 -7 -44 47 -22 70 28 138 31 164 9 23 -22 86 -24 188 -6
35 6 66 9 68 8 2 -2 -8 -27 -23 -55 -30 -61 -45 -141 -25 -141 7 0 29 17 49
38 48 51 84 72 121 72 23 0 44 12 83 49 63 58 78 66 142 76 83 12 100 26 119
97 21 78 56 168 65 168 4 0 13 -16 20 -35 15 -43 37 -45 46 -5 4 17 22 61 41
98 27 52 51 80 107 126 74 60 215 156 230 156 5 0 22 9 38 21 39 28 83 113 86
168 1 24 7 49 13 55 5 5 10 28 10 51 1 22 7 51 14 64 10 18 11 32 3 57 -8 27
-6 38 14 70 13 21 24 56 25 78 3 95 17 203 29 226 47 97 55 118 55 141 0 15 9
38 20 52 11 14 20 32 20 40 0 8 11 26 25 41 14 15 25 35 25 44 0 24 52 123 74
142 16 14 17 21 7 52 -14 42 -8 60 22 73 17 8 22 18 21 47 -1 28 3 39 17 43
11 4 19 13 19 21 0 8 11 19 25 24 14 5 25 16 25 24 0 12 19 23 72 39 9 3 19
19 23 36 9 41 31 39 49 -2 7 -19 24 -42 38 -53 13 -10 35 -35 49 -54 26 -37
70 -88 129 -149 19 -20 43 -48 53 -63 9 -15 41 -43 70 -62 28 -19 76 -54 106
-79 61 -51 167 -106 285 -147 136 -47 282 -116 361 -171 84 -58 213 -191 222
-229 10 -45 50 -104 92 -138 64 -51 109 -155 145 -334 18 -85 20 -202 6 -262
-7 -31 -3 -59 16 -133 28 -109 30 -148 8 -157 -9 -3 -42 -6 -75 -6 -51 0 -75
-7 -164 -50 -100 -48 -195 -120 -195 -148 0 -17 17 -15 80 9 44 17 66 20 110
14 30 -4 86 -8 123 -8 65 0 68 -1 62 -21 -13 -41 -15 -71 -6 -85 8 -12 16 -9
46 18 45 39 74 51 125 51 61 0 89 18 116 75 13 27 35 65 49 84 21 28 25 45 25
100 0 49 7 80 25 119 33 72 33 121 -1 153 -14 13 -32 36 -40 51 -12 24 -12 27
9 41 12 7 43 23 68 34 52 23 93 59 84 73 -3 5 -31 7 -63 4 -50 -5 -59 -4 -76
15 -11 12 -31 21 -47 21 -23 0 -32 8 -48 37 -52 104 -115 293 -141 428 -6 33
-25 88 -41 122 -22 49 -39 69 -78 94 -27 18 -52 41 -54 51 -3 10 -21 25 -39
33 -19 7 -40 21 -48 29 -7 9 -21 16 -31 16 -11 0 -19 6 -19 13 0 16 -41 57
-57 57 -5 0 -18 9 -28 20 -10 11 -14 20 -10 20 12 0 -37 50 -49 50 -23 1 -67
51 -73 82 -3 18 -17 47 -30 65 -27 35 -58 137 -47 154 3 6 -4 21 -16 34 -15
15 -20 30 -16 43 5 14 0 25 -14 35 -16 11 -19 21 -15 40 4 14 2 28 -3 31 -6 3
-8 25 -6 48 3 34 0 46 -16 58 -12 9 -22 29 -23 45 -2 21 -10 34 -30 43 -16 8
-27 21 -27 33 0 11 -7 22 -15 25 -8 4 -15 12 -15 19 0 8 -11 22 -24 33 -17 13
-23 26 -20 39 4 13 -1 26 -14 34 -10 8 -22 32 -26 54 -4 22 -14 48 -23 57 -13
15 -11 21 22 65 20 26 39 60 42 75 7 34 7 34 45 6 29 -20 32 -20 43 -4 11 15
16 15 34 4 18 -11 23 -11 31 2 8 12 13 13 30 3 11 -7 24 -13 30 -13 13 0 60
45 60 57 0 9 73 43 93 43 7 0 22 6 32 14 11 8 25 12 32 9 7 -3 20 0 28 7 9 8
28 10 50 6 28 -6 35 -4 35 9 0 9 9 15 24 15 14 0 28 5 31 10 3 6 17 10 30 10
13 0 26 4 30 10 3 6 15 6 29 0 16 -6 27 -5 35 3 9 9 16 8 31 -1 27 -17 37 -15
71 9 19 13 36 18 49 14 12 -4 26 -2 33 3 15 12 66 9 92 -5 13 -8 26 -8 37 -2
13 7 32 3 67 -12 28 -11 56 -19 63 -17 7 3 39 -13 72 -34 65 -42 81 -45 107
-22 16 14 21 13 60 -16 27 -19 51 -29 63 -26 14 3 33 -7 63 -35 53 -48 87 -63
114 -49 16 9 27 5 63 -25 36 -29 52 -35 87 -35 24 0 68 -2 97 -6 48 -5 54 -4
59 15 3 12 7 21 8 21 2 0 26 -16 55 -35 59 -40 97 -52 112 -37 7 7 33 -1 82
-24 114 -54 235 -66 196 -19 -20 24 -8 27 61 15 49 -7 66 -7 74 3 32 38 48 36
110 -15 63 -50 82 -55 78 -19 -3 27 -3 27 41 -8 41 -33 101 -48 121 -31 11 9
8 19 -13 57 -29 53 -35 52 81 9 43 -16 88 -26 122 -26 61 0 68 10 33 48 l-23
23 28 -10 c15 -6 41 -18 58 -26 42 -22 83 -16 87 13 4 26 15 27 72 7 55 -20
97 -19 108 1 8 14 16 15 61 5 29 -6 66 -11 83 -11 27 0 30 2 24 25 -6 23 -5
24 19 13 19 -8 28 -9 37 0 8 8 1 22 -30 53 -23 23 -42 43 -42 45 0 2 10 4 23
4 23 1 67 32 67 48 0 30 -67 37 -368 38 -279 2 -538 10 -552 19 -3 2 -66 13
-140 24 -74 12 -162 26 -195 31 -33 5 -89 13 -125 16 -97 9 -371 59 -485 88
-187 48 -419 129 -741 259 -88 36 -225 83 -305 105 -79 22 -175 49 -214 61
-38 12 -99 26 -135 30 -36 5 -110 16 -165 25 -148 22 -448 38 -476 25 -9 -5
-28 -1 -45 7 -15 8 -36 13 -45 11 -23 -6 -129 17 -172 38 -20 9 -53 16 -74 15
-21 -2 -54 -2 -73 -1 -28 2 -31 4 -15 10 12 5 -21 10 -90 14 -203 12 -227 15
-238 26 -6 6 -21 11 -34 11 -13 0 -23 5 -23 11 0 8 -25 10 -87 6 -68 -4 -90
-2 -98 9 -8 12 -21 12 -73 3 -44 -8 -66 -8 -75 -1 -9 8 -55 8 -147 2 -158 -11
-258 -28 -395 -70 -383 -115 -432 -122 -700 -105 -165 10 -216 33 -333 148
-51 51 -90 97 -88 104 3 6 -22 36 -55 67 -32 31 -59 60 -59 66 0 5 -15 29 -32
53 -18 23 -53 83 -77 132 -24 50 -51 104 -59 120 -15 30 -49 76 -77 106 -8 9
-15 22 -15 31 0 27 -90 131 -129 148 -20 10 -73 21 -116 25 -45 4 -84 13 -92
21 -18 18 -42 18 -138 -1 -72 -13 -80 -13 -128 5 -76 29 -92 26 -123 -20z
m2465 -2204 c9 -10 9 -20 2 -34 -5 -10 -10 -34 -10 -53 0 -19 -3 -53 -7 -77
-5 -37 -9 -43 -27 -40 -29 4 -41 70 -21 112 17 36 18 51 1 64 -8 7 -11 25 -9
47 l4 35 27 -20 c15 -10 33 -26 40 -34z m-1069 -457 c0 -17 -4 -28 -10 -24 -5
3 -10 17 -10 31 0 13 5 24 10 24 6 0 10 -14 10 -31z"/>
</g>
</svg>
