<?xml version="1.0" standalone="no"?>
<!DOCTYPE svg PUBLIC "-//W3C//DTD SVG 20010904//EN"
 "http://www.w3.org/TR/2001/REC-SVG-20010904/DTD/svg10.dtd">
<svg version="1.0" xmlns="http://www.w3.org/2000/svg"
 width="1536.000000pt" height="561.000000pt" viewBox="0 0 1536.000000 561.000000"
 preserveAspectRatio="xMidYMid meet">
<metadata>
Created by potrace 1.16, written by Peter Selinger 2001-2019
</metadata>
<g transform="translate(0.000000,561.000000) scale(0.100000,-0.100000)"
fill="#000000" stroke="none">
<path d="M6355 5603 c-421 -16 -720 -64 -1005 -161 -442 -151 -1188 -511
-1537 -743 -76 -51 -192 -118 -258 -150 -240 -115 -373 -134 -580 -81 -121 32
-1111 367 -1131 383 -34 28 -76 125 -85 193 -13 98 -22 116 -58 116 -22 0 -36
-8 -52 -31 -47 -66 -434 -335 -637 -443 -238 -126 -258 -143 -478 -418 -199
-248 -268 -352 -388 -588 -118 -230 -140 -297 -140 -430 -1 -238 66 -311 149
-160 21 38 43 70 48 70 5 0 29 -17 52 -39 82 -76 222 -107 447 -98 251 9 824
128 1097 228 332 121 685 135 983 39 137 -44 580 -267 656 -330 13 -10 54 -81
92 -157 37 -76 99 -184 137 -241 63 -95 243 -307 409 -482 114 -120 146 -179
111 -208 -23 -19 -509 -154 -829 -230 -70 -17 -150 -41 -177 -54 -53 -25 -269
-203 -296 -245 -15 -23 -15 -26 0 -43 19 -21 17 -26 -36 -90 -44 -52 -89 -144
-89 -180 0 -43 12 -70 30 -70 21 0 82 40 130 85 30 28 63 48 203 122 15 8 35
12 43 9 13 -5 13 -9 -1 -35 -8 -17 -11 -32 -6 -35 4 -3 46 13 92 35 119 58
192 85 464 177 244 81 305 99 305 87 0 -3 -39 -79 -86 -168 -57 -107 -103
-210 -135 -305 -65 -188 -105 -249 -214 -322 -63 -42 -115 -90 -115 -107 0
-17 10 -16 69 7 56 22 72 13 47 -25 -20 -30 -21 -65 -3 -65 22 0 147 92 225
167 l73 69 14 -33 c29 -68 63 -32 153 158 51 108 182 327 310 518 21 30 125
143 234 250 225 225 222 220 222 391 1 89 -4 122 -32 219 -39 135 -119 340
-211 542 l-67 145 410 1 c226 0 474 5 551 10 l140 10 23 -24 c15 -16 22 -36
22 -62 0 -51 108 -277 185 -391 86 -125 237 -322 326 -427 133 -155 177 -220
250 -366 39 -77 75 -150 79 -163 8 -21 -1 -30 -98 -102 -59 -43 -146 -110
-194 -148 -48 -39 -129 -97 -180 -130 -51 -32 -127 -93 -168 -134 -64 -63 -85
-92 -128 -180 -81 -167 -216 -301 -363 -361 -115 -47 -239 -170 -280 -276 -9
-24 -8 -25 18 -19 16 4 47 11 71 16 24 5 56 19 72 30 34 24 51 25 91 4 28 -14
35 -14 92 5 81 28 93 28 73 -1 -22 -31 -21 -62 2 -55 9 3 40 12 67 20 28 8 61
19 72 26 12 6 36 11 53 11 48 0 180 58 192 85 6 14 29 30 55 40 48 19 64 43
78 120 9 47 81 195 95 195 6 0 10 -22 10 -49 0 -58 7 -81 25 -81 15 0 25 31
25 85 0 32 5 42 23 50 13 6 38 41 62 89 22 43 60 98 85 123 25 25 124 99 222
164 97 66 188 133 203 151 14 17 45 68 67 112 47 93 52 140 22 248 -26 94 -55
156 -122 254 -77 116 -112 187 -152 309 -36 108 -36 109 -29 450 3 168 -14
244 -90 402 -41 85 -47 102 -34 107 9 4 17 5 18 4 1 -2 27 -46 57 -98 76 -130
155 -230 311 -395 262 -275 409 -457 502 -618 100 -174 142 -284 155 -407 7
-68 -12 -402 -31 -530 -14 -96 -46 -225 -66 -264 -26 -52 -173 -248 -227 -304
-55 -57 -106 -81 -306 -143 -175 -54 -476 -198 -467 -224 3 -6 39 -8 103 -5
54 3 146 4 204 2 304 -8 720 -5 773 6 68 14 140 60 163 105 10 17 21 69 25
115 11 103 32 148 64 136 6 -3 25 -32 40 -64 31 -64 49 -74 66 -36 9 18 5 46
-15 127 -108 440 -107 364 -10 974 21 127 25 184 21 275 -4 109 -7 125 -67
305 -63 189 -63 191 -68 325 -4 139 20 387 54 550 20 97 13 154 -37 304 -22
65 -38 120 -37 121 2 1 48 9 103 19 468 79 1027 73 1760 -19 665 -84 1047
-149 1775 -300 741 -154 1368 -248 1650 -248 225 1 708 61 1260 158 622 109
700 128 813 195 38 22 114 54 170 71 119 37 180 65 174 82 -15 46 -172 54
-392 19 -313 -51 -571 -61 -1027 -42 -755 31 -1470 160 -1953 352 -196 78
-696 326 -987 489 -87 49 -237 142 -335 207 -405 270 -524 330 -1471 743 -240
105 -538 239 -662 299 -496 239 -583 261 -1125 290 -110 6 -297 17 -415 25
-192 13 -435 16 -635 8z"/>
</g>
</svg>
