<?xml version="1.0" encoding="UTF-8" standalone="no"?>
<!-- Created with Inkscape (http://www.inkscape.org/) -->

<svg
   xmlns:svg="http://www.w3.org/2000/svg"
   xmlns="http://www.w3.org/2000/svg"
   version="1.1"
   width="928.63647"
   height="488.04968"
   id="svg2">
  <defs
     id="defs4" />
  <g
     transform="translate(150.375,-268)"
     id="layer1">
    <path
       d="m 696.78125,268 c -48.55478,-0.01 -76.05823,19.99396 -141.65625,102.9375 -33.952,42.92962 -50.20236,48.69191 -178.5,63.4375 -102.58586,11.79047 -138.985,18.70154 -167.25,31.78125 -26.593,12.30595 -117.78475,71.08361 -185.71875,119.6875 -36.3395,25.99938 -45.737,31.99121 -74.875,47.6875 -12.4666,6.71566 -30.5433,18.22052 -40.1875,25.5625 -9.6442,7.34198 -19.07741,11.08382 -22.375,13.34375 -8.21397,5.62925 -36.59375,30.91461 -36.59375,42.46875 0,25.99184 11.6105,32.3941 54.125,29.84375 21.6538,-1.29898 60.385,-7.16375 86.0625,-13.03125 38.5091,-8.7996 50.90475,-9.52408 70.78125,-4.21875 31.7612,8.47757 33.4818,5.12537 4.875,-9.46875 -33.3522,-17.01505 -69.3223496,-16.94389 -136.53125,0.28125 -14.783,3.78876 -31.3762,5.17261 -36.875,3.0625 -9.5316,-3.65759 -9.5369,-4.34347 -0.0625,-14.8125 8.685001,-9.59684 65.5431,-38.88817 172.9375,-89.0625 65.6277,-30.66103 110.96985,-44.15313 116.78125,-34.75 1.8601,3.00964 -4.73125,20.72269 -14.65625,39.34375 -15.8349,29.70937 -17.28815,35.99884 -11.90625,51.4375 3.3733,9.67655 6.125,25.72729 6.125,35.6875 0,19.89687 14.46871,36.21556 24.90625,42.75 10.43753,6.53444 16.61691,3.30261 25.02069,3.13514 8.2299,-0.164 22.43792,1.28288 22.43792,-3.80299 0,-2.54314 -3.33721,-11.59065 -9.02111,-13.39465 -22.1375,-7.02618 -29.02067,-25.44847 -29.02067,-50.125 0,-32.89259 30.82047,-85.88495 57.33317,-91.1875 27.5461,-5.50922 32.70635,9.84455 21.71875,64.5 -4.3209,21.49324 -3.3676,27.93365 5.9375,40.875 6.0719,8.44464 13.54878,22.48813 18.29097,31.85326 4.56842,9.02198 14.03277,10.4714 23.83056,14.12584 8.35593,3.11664 8.64255,0.44316 16.90972,0.80215 9.44198,0.41 17.06389,0.0295 24.85556,-2.03146 l 5.79347,-5.04139 -8.37625,-10.25951 c -7.79167,-3.33049 -11.83297,-2.95326 -20.05403,-4.69889 -10.95265,-2.32562 -17.4511,-9.44543 -24.3125,-26.59375 -8.4194,-21.0421 -8.52805,-26.03911 -1.03125,-49.625 4.5859,-14.42765 9.96995,-36.85122 11.96875,-49.8125 4.06208,-26.34138 9.00599,-29.53128 67.96875,-43.78125 18.7,-4.51938 39.7375,-9.97739 46.75,-12.15625 10.50532,-3.26413 12.75,-1.81861 12.75,8.25 0,18.94831 19.71073,52.93758 38.875,67.03125 17.3625,12.76861 38.43826,17.54691 32.09375,7.28125 -3.23165,-5.22892 5.33808,-15.75363 14.90625,-22.09375 L 529.96875,599.25 c -0.01,8e-5 -0.0214,-6e-5 -0.0312,0 -6.95297,0.0423 -18.71939,-3.82372 -22.9375,-8.90625 -6.09121,-7.33945 -4.70297,-7.63549 10.65625,-2.28125 2.99375,1.04363 5.77388,2.12107 8.25,3.15625 l 4.00972,2.02007 c 0,0 9.46337,4.46183 14.51223,5.68875 4.25668,1.03442 10.84631,0.7717 13.0718,1.35368 12.09647,3.1633 32.16298,-10.07609 23.4375,-15.46875 -3.3146,-2.04854 -4.48919,-9.91669 -2.59375,-17.46875 3.31415,-13.20459 2.79513,-13.49356 -14.21875,-7.5625 -35.4246,12.3491 -61.61103,-7.25295 -54.28125,-40.625 2.00509,-9.12922 9.40859,-21.13399 16.46875,-26.6875 15.65241,-12.3122 34.29419,-41.34529 66.3125,-103.34375 19.51651,-37.79073 29.38194,-50.3303 50.0625,-63.625 26.88368,-17.28245 40.88152,-18.15571 109.28125,-6.71875 17.1959,2.87528 21.95212,1.61215 25.125,-6.65625 2.25823,-5.88491 1.15985,-11.09255 -2.59375,-12.34375 -3.57482,-1.1916 -16.14743,-8.82946 -27.9375,-16.96875 C 730.45585,271.69328 718.0699,268.004 696.78125,268 z"
       id="path2879"
       style="fill:#000000" />
  </g>
</svg>
