<?xml version="1.0" standalone="no"?>
<!DOCTYPE svg PUBLIC "-//W3C//DTD SVG 20010904//EN"
 "http://www.w3.org/TR/2001/REC-SVG-20010904/DTD/svg10.dtd">
<svg version="1.0" xmlns="http://www.w3.org/2000/svg"
 width="4917.000000pt" height="1710.000000pt" viewBox="0 0 4917.000000 1710.000000"
 preserveAspectRatio="xMidYMid meet">
<metadata>
Created by potrace 1.16, written by Peter Selinger 2001-2019
</metadata>
<g transform="translate(0.000000,1710.000000) scale(0.100000,-0.100000)"
fill="#000000" stroke="none">
<path d="M5110 17090 c-318 -26 -629 -98 -889 -204 -58 -24 -180 -74 -271
-110 -201 -82 -441 -197 -556 -266 -47 -29 -144 -98 -217 -153 -186 -143 -215
-164 -367 -257 -212 -131 -518 -356 -855 -628 -494 -400 -1721 -1516 -1864
-1695 -58 -74 -81 -121 -81 -170 0 -93 94 -290 177 -374 29 -29 59 -53 66 -53
7 0 23 -24 36 -54 46 -111 128 -176 248 -197 70 -12 199 7 463 68 323 74 593
158 1003 312 488 183 713 250 1037 305 446 76 850 92 1335 51 99 -8 266 -19
370 -25 269 -13 415 -42 594 -116 276 -115 408 -238 866 -814 231 -289 348
-422 526 -595 180 -175 365 -324 584 -470 287 -192 495 -300 945 -492 570
-243 639 -295 890 -673 336 -507 599 -724 1069 -884 149 -51 187 -75 501 -310
353 -263 561 -455 725 -668 225 -291 279 -450 279 -828 0 -278 -31 -440 -167
-885 -109 -356 -134 -480 -193 -970 -36 -294 -37 -322 -34 -545 8 -446 4 -619
-14 -720 -24 -135 -78 -287 -141 -399 -29 -53 -66 -132 -81 -176 -24 -72 -26
-90 -21 -180 5 -83 -1 -148 -33 -380 -48 -344 -56 -466 -41 -608 38 -347 162
-556 330 -557 63 0 126 33 197 105 92 94 226 305 193 305 -6 0 -48 -34 -92
-76 -99 -91 -222 -176 -251 -172 -29 4 -46 70 -53 208 -4 96 -1 141 21 270 62
366 112 487 224 544 26 13 67 43 90 66 41 41 100 148 104 186 5 60 16 -152 17
-331 1 -144 -4 -254 -16 -348 -15 -129 -15 -144 0 -230 9 -51 19 -123 23 -162
35 -415 188 -767 369 -851 60 -29 67 -29 95 -6 l23 18 -42 69 c-71 119 -112
253 -132 432 -13 118 -6 247 15 298 8 18 30 50 49 71 48 54 65 91 79 173 9 55
9 90 0 158 -22 157 -25 227 -17 379 l7 149 23 -110 c12 -60 33 -135 45 -165
37 -94 124 -190 184 -206 35 -8 35 15 -1 92 -24 52 -28 74 -31 179 l-4 120 33
49 c41 62 49 137 25 258 -9 46 -20 155 -26 243 -5 88 -15 205 -21 260 -21 179
-2 702 41 1120 11 105 24 276 30 380 44 785 48 813 252 1475 50 162 111 374
135 470 24 96 45 180 47 185 11 36 42 -345 56 -690 28 -690 48 -939 89 -1103
11 -42 34 -131 50 -197 68 -265 93 -499 72 -671 -6 -51 -27 -143 -46 -205 -62
-203 -66 -308 -15 -459 18 -53 32 -184 45 -415 20 -358 95 -672 209 -875 44
-80 131 -165 184 -181 86 -25 163 24 221 140 46 91 76 211 53 211 -5 0 -29
-29 -55 -64 -26 -35 -65 -80 -88 -101 -38 -34 -43 -36 -55 -21 -13 18 -34 104
-62 251 -13 72 -16 150 -16 390 0 285 1 303 23 364 18 52 35 76 90 130 50 48
73 79 85 116 26 73 31 220 12 344 -24 155 -18 153 14 -4 17 -77 50 -212 74
-300 69 -245 85 -318 101 -470 16 -156 33 -224 76 -305 16 -30 52 -118 80
-195 100 -276 234 -516 368 -657 89 -96 171 -131 171 -75 0 11 -23 70 -51 131
-101 217 -194 523 -206 677 -5 68 -3 80 15 107 59 82 60 184 3 350 -22 64 -47
144 -55 177 -14 54 -76 393 -76 412 0 5 37 -66 81 -157 45 -91 95 -184 110
-207 46 -66 156 -173 179 -173 27 0 26 8 -15 109 -37 94 -75 242 -75 295 0 19
7 51 16 72 21 50 12 105 -36 219 -21 49 -55 149 -75 220 -20 72 -54 185 -76
253 -22 68 -48 165 -59 216 -37 179 -107 726 -125 971 -4 50 -13 126 -21 170
-8 44 -28 172 -44 285 -16 113 -50 311 -75 440 -82 419 -112 629 -160 1099
-15 140 -37 322 -50 405 -13 83 -23 152 -22 152 1 1 99 -6 217 -17 604 -52
786 -60 1550 -69 817 -10 873 -13 1148 -68 l132 -26 0 -32 c0 -18 -17 -160
-37 -315 -35 -265 -37 -302 -37 -544 0 -233 2 -271 22 -365 73 -337 169 -566
462 -1100 274 -500 379 -723 475 -1015 89 -269 150 -596 162 -860 7 -173 -7
-258 -77 -486 -66 -212 -75 -252 -100 -444 -61 -470 -241 -1036 -530 -1665
-149 -327 -304 -574 -496 -792 -50 -57 -113 -137 -141 -178 -87 -130 -227
-246 -387 -321 -274 -128 -834 -222 -1541 -259 -199 -10 -446 -34 -490 -46
-161 -47 -293 -137 -400 -274 -75 -97 -120 -210 -82 -210 6 0 59 36 116 80
114 88 207 139 270 147 47 6 49 2 25 -57 -25 -61 -14 -117 30 -157 57 -53 81
-55 490 -48 204 4 418 5 476 4 153 -4 1711 -3 1870 1 74 2 207 2 295 -1 148
-4 163 -2 207 18 86 39 178 160 208 272 16 62 14 262 -5 350 -37 177 -29 328
24 466 36 92 144 325 151 325 3 0 19 -26 37 -58 63 -115 186 -242 234 -242 28
0 25 44 -11 192 -33 135 -50 263 -43 319 3 21 -4 74 -16 119 l-20 81 90 207
c186 425 306 687 471 1027 193 397 242 509 286 646 63 196 68 411 20 823 -27
232 -31 307 -32 521 0 261 7 350 50 581 48 265 129 509 320 967 58 139 119
287 135 330 21 52 34 75 42 70 7 -5 64 -42 127 -85 214 -142 377 -222 870
-430 727 -305 1069 -518 1461 -910 192 -192 257 -294 362 -568 77 -200 89
-225 182 -390 209 -369 365 -807 499 -1405 96 -425 115 -594 126 -1075 7 -370
8 -376 35 -465 25 -81 28 -106 29 -245 1 -169 -6 -203 -67 -324 -57 -116 -165
-238 -318 -362 -151 -123 -236 -169 -348 -189 -42 -8 -191 -19 -331 -25 -416
-17 -552 -41 -688 -122 -108 -64 -232 -198 -291 -315 -19 -39 -28 -93 -15 -93
12 0 49 24 137 91 97 75 175 119 242 138 55 15 63 3 41 -59 -29 -82 -6 -143
68 -183 40 -22 48 -22 441 -22 618 0 688 11 985 149 74 35 169 78 210 96 143
63 248 119 311 167 35 27 83 61 107 77 85 58 236 264 308 422 44 97 34 81 122
197 63 84 85 104 174 163 201 132 233 180 232 349 0 79 -5 112 -23 158 -34 87
-107 189 -224 314 -167 178 -215 271 -271 523 -14 63 -28 125 -31 137 l-5 22
68 -23 c98 -34 201 -50 235 -37 50 19 41 32 -140 185 -80 67 -136 127 -183
196 -13 19 -33 46 -45 60 -18 20 -38 95 -94 345 -114 517 -157 725 -227 1103
-77 420 -91 483 -144 645 -74 227 -177 372 -500 702 -338 345 -501 563 -664
885 -134 265 -196 428 -345 912 -118 382 -166 514 -273 747 -46 101 -86 204
-95 245 -29 137 5 438 88 778 l41 166 97 17 c201 36 702 137 836 170 193 47
260 70 575 200 301 124 448 179 673 250 81 26 147 50 147 54 0 3 17 5 38 3 33
-3 75 15 288 122 137 69 284 137 326 151 218 72 522 88 1148 61 716 -31 979
-37 1645 -37 1486 0 2496 66 3580 232 930 142 2213 392 3631 708 1124 251
1575 332 2439 440 1547 194 2734 243 3965 166 1508 -96 2927 -299 4084 -586
762 -189 1850 -547 2481 -817 784 -335 1084 -528 1343 -864 119 -155 170 -191
212 -153 103 93 -195 527 -560 818 -621 495 -1913 1108 -3208 1523 -990 317
-2296 613 -3519 798 -1076 163 -2100 249 -3268 276 -528 12 -2917 12 -3325 0
-969 -28 -1397 -34 -1745 -22 -499 17 -918 49 -1470 112 -1116 128 -1961 303
-3246 675 -536 155 -972 296 -1999 644 -294 100 -724 241 -955 312 -231 72
-602 191 -825 264 -668 220 -962 304 -1580 453 -900 218 -1181 285 -1365 326
-818 184 -1677 310 -2515 368 -130 9 -450 13 -1070 13 -954 0 -1030 -3 -1589
-61 -931 -95 -1499 -203 -3336 -635 -1062 -250 -1486 -363 -2410 -645 -876
-268 -1589 -460 -1892 -511 -162 -27 -401 -24 -511 5 -179 48 -308 129 -459
286 -117 121 -170 196 -409 570 -314 493 -550 782 -857 1053 -413 364 -820
564 -1290 634 -153 23 -468 32 -627 19z m9094 -11780 c20 -69 52 -178 71 -242
19 -64 37 -141 40 -170 l5 -53 -15 57 c-8 31 -37 132 -65 225 -47 154 -90 323
-89 348 1 14 12 -21 53 -165z m-417 -162 c-3 -8 -6 -5 -6 6 -1 11 2 17 5 13 3
-3 4 -12 1 -19z m10 -60 c-3 -7 -5 -2 -5 12 0 14 2 19 5 13 2 -7 2 -19 0 -25z
m530 -270 c-3 -8 -6 -5 -6 6 -1 11 2 17 5 13 3 -3 4 -12 1 -19z"/>
</g>
</svg>
