<?xml version="1.0" encoding="utf-8"?>
<svg xmlns="http://www.w3.org/2000/svg" viewBox="-643.6458 353.6542 613.7449 186.036" width="613.745px" height="186.036px">
  <g transform="matrix(1, 0, 0, 1, -135.77954303889783, -1227.422045877904)" id="g2793-2">
    <path style="color: rgb(0, 0, 0); clip-rule: nonzero; display: inline; overflow: visible; visibility: visible; opacity: 1; isolation: auto; mix-blend-mode: normal; color-interpolation: srgb; color-interpolation-filters: linearrgb; fill-opacity: 1; fill-rule: evenodd; stroke: none; stroke-width: 0.264583; stroke-linecap: butt; stroke-linejoin: miter; stroke-miterlimit: 4; stroke-dasharray: none; stroke-dashoffset: 0; stroke-opacity: 1; color-rendering: auto; image-rendering: auto; shape-rendering: auto; text-rendering: auto;" d="m -287.4144,1604.5957 0.99701,55.1324 1.69877,13.2117 c 0,0 3.85983,7.7703 6.32278,11.3231 3.75508,5.4165 9.78228,11.5905 13.35108,17.1314 3.17524,4.93 5.01409,8.2949 6.76132,13.8926 0.4811,1.5414 1.0116,3.4114 1.28453,5.1589 0.29667,1.8992 0.27626,3.751 0.66896,5.6327 0.35499,1.7009 1.11996,3.3911 1.42584,5.1015 0.63027,3.5241 0.61515,7.14 0.66215,10.7197 0.0523,3.9838 -0.0341,6.0045 -0.69236,10.9986 -0.0883,0.6702 -0.57127,1.4814 -1.03519,1.973 -0.47905,0.5075 -0.87129,0.981 -1.19779,1.5978 -0.37476,0.7082 -0.61447,1.1605 -1.24429,1.6556 -1.26185,0.992 -3.05442,1.4597 -4.92338,1.7187 -3.42878,0.4754 -6.89974,1.0271 -10.35524,1.2318 -2.62848,0.1557 -4.60298,0.085 -7.89349,0.3022 -0.16184,0.01 -0.42747,0.2322 -0.42747,0.2322 0,0 -1.94141,0.1166 -2.87231,0.3726 -1.12518,0.3095 -2.2488,0.7319 -3.21395,1.3878 -1.08748,0.739 -2.78708,2.7912 -2.78708,2.7912 0,0 2.1735,-0.872 3.31982,-1.0603 0.85481,-0.1409 1.73687,-0.1316 2.59866,-0.043 0.70243,0.072 2.06679,0.4647 2.06679,0.4647 0,0 0.36408,0.762 0.60465,0.998 0.23392,0.2296 0.47002,0.5759 0.79773,0.5748 0,0 14.62802,0.029 21.94197,0.01 7.36119,-0.022 11.96075,-0.5193 16.6351,-2.137 0.19965,-0.069 0.24418,-0.4141 0.21433,-0.5964 -0.36849,-2.2506 -1.23732,-6.5048 -1.23732,-6.5048 0,0 -0.42756,-12.8489 -0.26856,-18.7109 0.0821,-3.0279 0.34411,-6.0486 0.56071,-9.0699 0.14755,-2.0583 0.44791,-4.0692 0.24038,-6.1223 -0.22003,-2.1768 -0.89826,-4.3243 -1.83197,-6.3029 -0.97121,-2.0581 -2.01941,-3.5486 -2.79086,-5.6895 -1.87939,-5.2157 -3.18175,-10.0335 -3.60687,-14.7618 -0.35072,-3.9007 -0.0267,-7.7289 -0.27615,-11.6375 -0.2245,-3.5171 -1.24178,-8.5078 -2.33441,-11.8585 -0.98839,-3.0311 -2.64708,-5.4252 -2.64708,-5.4252 l 13.96967,-63.5629" id="path2721-2"/>
    <path style="color: rgb(0, 0, 0); clip-rule: nonzero; display: inline; overflow: visible; visibility: visible; opacity: 1; isolation: auto; mix-blend-mode: normal; color-interpolation: srgb; color-interpolation-filters: linearrgb; fill-opacity: 1; fill-rule: evenodd; stroke: none; stroke-width: 0.264583; stroke-linecap: butt; stroke-linejoin: miter; stroke-miterlimit: 4; stroke-dasharray: none; stroke-dashoffset: 0; stroke-opacity: 1; color-rendering: auto; image-rendering: auto; shape-rendering: auto; text-rendering: auto;" d="m -244.67377,1750.1804 c 0,0 0.3132,1.4804 0.50723,2.2114 0.1138,0.4288 0.30425,0.8593 0.5004,1.2575 0.13391,0.2717 0.27879,0.7352 0.24666,1.0365 -0.0426,0.3993 -0.3528,0.8739 -0.3528,0.8739 0,0 -0.0326,0.7997 0.0655,1.2432 0.16743,0.7564 0.52346,1.533 0.94537,2.1827 0.45123,0.695 1.76289,1.7526 1.76289,1.7526 0,0 -1.00848,-0.184 -1.47944,-0.3767 -1.14283,-0.4677 -2.2589,-1.0665 -3.20083,-1.8649 -0.73136,-0.62 -1.83539,-2.2147 -1.83539,-2.2147" id="path2723-8"/>
    <path id="path2776-9" d="m -376.81641,1645.9775 c 0,0 4.31784,6.1048 6.87282,8.8179 2.28932,2.4311 5.08436,4.3345 7.51757,6.6215 2.46314,2.3152 7.1611,7.1808 7.1611,7.1808 0,0 -0.86123,3.269 -1.05199,4.9425 -0.30863,2.7129 -0.39456,5.3765 -0.53017,8.1036 -0.10086,2.0288 -0.0384,4.0918 -0.37128,6.1022 -0.19088,1.1519 -0.67644,2.2376 -0.92601,3.378 -0.17571,0.7981 -0.28944,1.6091 -0.39877,2.4189 -0.16565,1.2282 -0.18552,2.475 -0.38933,3.6974 -0.1829,1.0971 -0.4187,2.1892 -0.74598,3.2523 -0.4045,1.3144 -0.89542,2.6079 -1.49793,3.8441 -0.72904,1.4961 -1.71264,2.8543 -2.54687,4.2945 -0.23324,0.4024 -0.42723,0.8786 -0.63579,1.2942 -0.24159,0.4819 -0.0929,1.0146 -0.0929,1.0146 0,0 -0.72374,2.6552 -1.00019,4.0022 -0.41017,1.9988 -0.91395,4.0036 -0.97562,6.043 -0.0561,1.8592 0.55716,5.5525 0.55716,5.5525 0,0 0.94564,-3.548 1.60435,-5.258 0.64889,-1.6847 1.29943,-3.4015 2.30309,-4.9022 0.60592,-0.9061 2.20442,-2.4155 2.20442,-2.4155 0,0 0.93887,-0.4949 1.26451,-0.896 0.38335,-0.4722 0.5415,-1.0945 0.72672,-1.6738 0.28236,-0.8828 0.3224,-1.8291 0.57819,-2.7198 0.31381,-1.0922 1.20521,-3.057 1.20521,-3.057 0,0 0.0414,2.1538 0.009,3.3026 -0.0323,1.1227 -0.25621,2.2378 -0.23848,3.3607 0.0225,1.4023 0.22635,2.7693 0.29979,4.1565 0.0482,0.9008 -0.011,1.8082 0.0915,2.7045 0.0433,0.3786 0.0905,0.7631 0.21958,1.1216 0.0728,0.2025 0.30845,0.5672 0.30845,0.5672 0,0 0.78078,3.8858 1.39366,5.7976 0.58185,1.8151 2.04693,4.9207 2.04693,4.9207 0,0 -0.57661,-3.4767 -0.6676,-5.4235 -0.0948,-1.9664 0.23488,-5.8354 0.23488,-5.8354 0,0 0.26981,-0.3705 0.35123,-0.5818 0.14274,-0.3705 0.22995,-0.7724 0.22557,-1.1693 -0.006,-0.4468 -0.21533,-0.8684 -0.28487,-1.3098 -0.17936,-1.1378 -0.32277,-2.287 -0.33947,-3.4386 -0.007,-0.4591 0.1044,-0.9151 0.0954,-1.3743 -0.0104,-0.531 -0.13316,-1.0544 -0.17229,-1.5842 -0.0506,-0.6862 -0.0999,-1.3747 -0.0809,-2.0623 0.0262,-0.9449 0.0697,-1.2854 0.20131,-2.2213 0.05,-0.3559 0.27084,-1.386 0.27084,-1.386 0,0 0.6261,2.3869 0.96259,3.725 0.14407,0.5733 0.23001,1.1605 0.3853,1.7309 0.24439,0.898 0.58605,1.7667 0.85818,2.6567 0.23324,0.7627 0.41882,1.5398 0.6637,2.2989 0.25756,0.7981 0.59294,1.5697 0.84648,2.3691 0.14688,0.4631 0.22404,0.7089 0.3953,1.1636 0.0717,0.1904 0.16449,0.3732 0.26517,0.5501 0.05,0.088 0.16687,0.2522 0.16687,0.2522 0,0 0.93303,2.2151 1.50458,3.1253 0.51408,0.8186 1.72093,2.3344 1.72093,2.3344 0,0 -0.75427,-1.8827 -1.01804,-2.8594 -0.28139,-1.0416 -0.57814,-3.1731 -0.57814,-3.1731 0,0 0.10959,-0.3789 0.13317,-0.554 0.0323,-0.2406 0.0213,-0.6276 -0.0268,-0.8657 -0.0463,-0.2341 -0.16566,-0.4477 -0.25391,-0.6693 -0.21946,-0.5512 -0.33636,-0.9051 -0.50902,-1.4727 -0.0937,-0.3081 -0.15827,-0.6013 -0.24378,-0.9118 -0.0982,-0.3566 -0.21971,-0.5954 -0.34678,-0.9427 -0.1765,-0.4822 -0.40639,-0.9469 -0.54194,-1.4422 -0.17497,-0.6395 -0.23823,-1.3045 -0.34568,-1.9588 -0.13786,-0.8394 -0.27347,-1.6795 -0.38329,-2.523 -0.24464,-1.8793 -0.61403,-5.6522 -0.61403,-5.6522 l -0.23471,-4.4981 0.53444,-6.2429 c 0,0 0.91139,-5.0086 1.5253,-7.4771 0.90559,-3.6409 2.32241,-7.1445 3.17882,-10.7972 0.34063,-1.4537 0.6634,-2.9225 0.77645,-4.4114 0.0769,-1.0081 0.12019,-2.0387 -0.0668,-3.0322 -0.11659,-0.6191 -0.34593,-1.2227 -0.64841,-1.7752 -5.00903,-9.1514 -18.97634,-24.8887 -18.97634,-24.8887" style="color: rgb(0, 0, 0); clip-rule: nonzero; display: inline; overflow: visible; visibility: visible; opacity: 1; isolation: auto; mix-blend-mode: normal; color-interpolation: srgb; color-interpolation-filters: linearrgb; fill-opacity: 1; fill-rule: evenodd; stroke: none; stroke-width: 0.264583; stroke-linecap: butt; stroke-linejoin: miter; stroke-miterlimit: 4; stroke-dasharray: none; stroke-dashoffset: 0; stroke-opacity: 1; color-rendering: auto; image-rendering: auto; shape-rendering: auto; text-rendering: auto;"/>
    <path style="color: rgb(0, 0, 0); clip-rule: nonzero; display: inline; overflow: visible; visibility: visible; opacity: 1; isolation: auto; mix-blend-mode: normal; color-interpolation: srgb; color-interpolation-filters: linearrgb; fill-opacity: 1; fill-rule: evenodd; stroke: none; stroke-width: 2; stroke-linecap: round; stroke-linejoin: miter; stroke-miterlimit: 4; stroke-dasharray: none; stroke-dashoffset: 0; stroke-opacity: 1; color-rendering: auto; image-rendering: auto; shape-rendering: auto; text-rendering: auto;" d="m -462.48864,1583.8309 c 0,0 3.14427,-1.3106 7.96504,-1.9984 2.90322,-0.4143 8.38556,-0.9169 10.33261,-0.7072 4.62318,0.4978 8.64294,1.2703 11.55775,3.2764 5.83503,4.0159 10.2613,6.6029 15.70908,9.9165 7.15306,4.3509 13.40338,7.2201 20.54851,8.6075 4.22009,0.8194 8.53013,0.4694 12.72578,-0.4667 23.18345,-5.1726 39.49091,-8.2414 64.07447,-11.6264 19.60866,-2.9155 36.17636,-3.3539 50.74917,-1.5549 21.94667,2.7093 33.75289,5.1847 51.3844,8.873 29.43439,6.1572 51.38654,8.0246 79.15198,9.9265 37.44245,2.5648 82.21951,7.9784 117.098507,8.5454 25.4421719,0.4135 48.054253,0.318 74.501791,-2.5995 18.946298,-2.09 32.320299,-4.4345 45.094408,-8.6525 10.324814,-3.4092 8.968944,-0.8711 1.896154,2.3783 -13.840178,6.3588 -26.709241,9.9103 -46.100811,13.8611 -26.772624,5.4547 -49.5875944,7.9377 -76.0163,10.767 -36.711645,3.9303 -76.958465,3.0234 -112.608069,7.2537 -24.38171,2.8932 -70.89689,8.8207 -70.89689,8.8207 0,0 -13.09907,5.3767 -16.33732,6.875 -17.1916,7.9541 -31.39319,14.9501 -40.84409,18.4108 -5.64184,2.0659 -17.95897,1.5763 -25.15311,0.6933 -12.57444,-1.5434 -30.15274,-5.9774 -40.36297,-8.4331 -18.99,-4.5676 -35.39019,-8.2001 -53.75056,-16.4337 -4.54629,-2.0387 -4.1872,-7.5053 -7.96829,-10.7502 -2.44284,-2.0965 -5.84747,-2.7534 -8.93512,-3.6637 -8.66019,-2.5531 -13.44549,-3.8851 -20.91285,-7.2518 -9.00807,-4.0613 -11.83145,-6.4488 -21.3717,-8.6975 -5.20175,-1.226 -9.04001,-2.1081 -15.88553,-2.7134 -7.35271,-0.6502 -13.66721,-2.2609 -13.66721,-2.2609" id="path35458-8-7"/>
    <path style="color: rgb(0, 0, 0); clip-rule: nonzero; display: inline; overflow: visible; visibility: visible; opacity: 1; isolation: auto; mix-blend-mode: normal; color-interpolation: srgb; color-interpolation-filters: linearrgb; fill-opacity: 1; fill-rule: evenodd; stroke: none; stroke-width: 0.264583; stroke-linecap: butt; stroke-linejoin: miter; stroke-miterlimit: 4; stroke-dasharray: none; stroke-dashoffset: 0; stroke-opacity: 1; color-rendering: auto; image-rendering: auto; shape-rendering: auto; text-rendering: auto;" d="m -376.55069,1648.2467 c 0,0 5.52951,5.0336 8.60802,7.1339 2.75848,1.8819 5.89744,3.1399 8.7655,4.8502 2.90335,1.7314 8.53763,5.4731 8.53763,5.4731 0,0 -0.13828,3.3777 0.0353,5.0531 0.28182,2.7158 0.77066,5.3355 1.22459,8.028 0.3377,2.0031 0.8424,4.0044 0.94948,6.0394 0.0613,1.1659 -0.17949,2.3305 -0.17803,3.4981 0,0.8171 0.0633,1.6336 0.13067,2.4479 0.10227,1.2352 0.35099,2.4571 0.4148,3.6948 0.0573,1.1107 0.0618,2.228 -0.0292,3.3365 -0.11239,1.3706 -0.31375,2.7394 -0.63634,4.0763 -0.3903,1.6178 -1.05894,3.1558 -1.56394,4.7416 -0.14127,0.4432 -0.2283,0.9499 -0.34264,1.4008 -0.13231,0.5225 0.12744,1.0107 0.12744,1.0107 0,0 -0.13591,2.7488 -0.11628,4.1237 0.0292,2.0402 -0.0317,4.1065 0.34654,6.1114 0.34526,1.8278 1.73806,5.3029 1.73806,5.3029 0,0 0.16065,-3.6684 0.43631,-5.48 0.27145,-1.7849 0.5376,-3.6013 1.19515,-5.2828 0.39688,-1.0151 1.63342,-2.8329 1.63342,-2.8329 0,0 0.81052,-0.6853 1.0423,-1.147 0.27285,-0.5436 0.29351,-1.1852 0.34983,-1.7909 0.0859,-0.9229 -0.0784,-1.8556 -0.0201,-2.7806 0.0716,-1.134 0.51975,-3.2446 0.51975,-3.2446 0,0 0.50403,2.0945 0.71868,3.2235 0.20971,1.1033 0.23092,2.2405 0.4897,3.3334 0.32313,1.3648 0.81649,2.6559 1.1865,3.9949 0.24031,0.8694 0.37829,1.7682 0.67089,2.6214 0.12354,0.3605 0.2525,0.7259 0.45563,1.0482 0.1147,0.1821 0.42327,0.4877 0.42327,0.4877 0,0 1.59801,3.6269 2.60758,5.3622 0.9585,1.6476 3.05712,4.3656 3.05712,4.3656 0,0 -1.31071,-3.2715 -1.81821,-5.1532 -0.51274,-1.9007 -1.02529,-5.7494 -1.02529,-5.7494 0,0 0.18387,-0.4198 0.21794,-0.6437 0.0597,-0.3925 0.0585,-0.8037 -0.0311,-1.1904 -0.10123,-0.4352 -0.39707,-0.8018 -0.55991,-1.2179 -0.41974,-1.0726 -0.80693,-2.1641 -1.07083,-3.2852 -0.10525,-0.4469 -0.0948,-0.9162 -0.20234,-1.3627 -0.12427,-0.5164 -0.35678,-1.0012 -0.50896,-1.5101 -0.1971,-0.6591 -0.3931,-1.321 -0.52261,-1.9967 -0.1779,-0.9282 -0.20825,-1.2703 -0.28102,-2.2126 -0.0274,-0.3583 -0.0335,-1.4117 -0.0335,-1.4117 0,0 1.1247,2.1964 1.74098,3.4308 0.26402,0.5289 0.47422,1.084 0.74848,1.6077 0.43174,0.8244 0.95222,1.5993 1.40938,2.41 0.39176,0.6947 0.74007,1.4137 1.14249,2.1024 0.42309,0.7241 0.91657,1.4055 1.33606,2.1317 0.24305,0.4207 0.37122,0.6441 0.63622,1.0513 0.11098,0.1707 0.24092,0.3291 0.37725,0.4803 0.0675,0.075 0.21722,0.2104 0.21722,0.2104 0,0 1.38749,1.9627 2.14133,2.7287 0.67809,0.6889 2.1826,1.9097 2.1826,1.9097 0,0 -1.14139,-1.6764 -1.60897,-2.5736 -0.49878,-0.9567 -1.24696,-2.9746 -1.24696,-2.9746 0,0 0.0256,-0.3936 0.011,-0.5696 -0.0201,-0.242 -0.11445,-0.6175 -0.21209,-0.8397 -0.0959,-0.2186 -0.25811,-0.4016 -0.39194,-0.5991 -0.33283,-0.4911 -0.5231,-0.8117 -0.81369,-1.3288 -0.15779,-0.2807 -0.28395,-0.5533 -0.43418,-0.8381 -0.17266,-0.3271 -0.34258,-0.5342 -0.54139,-0.8461 -0.27602,-0.4329 -0.60044,-0.8372 -0.83929,-1.2918 -0.30844,-0.587 -0.51322,-1.2229 -0.75883,-1.8387 -0.31516,-0.7902 -0.62818,-1.5814 -0.91682,-2.3817 -0.64304,-1.7826 -1.81497,-5.388 -1.81497,-5.388 l -1.19655,-4.3423 -0.8204,-6.2118 c 0,0 -0.18686,-5.0874 -0.11805,-7.6302 0.10154,-3.7504 0.7319,-7.4767 0.78285,-11.2282 0.0201,-1.4929 0.0195,-2.9967 -0.19021,-4.4751 -0.14164,-1.0011 -0.32094,-2.0168 -0.71721,-2.9469 -0.24702,-0.5796 -0.60069,-1.1197 -1.01494,-1.5943 -6.8596,-7.8603 -23.88396,-20.2263 -23.88396,-20.2263" id="path2727-5-9-3"/>
    <path id="path2622-0-6" d="m -446.27189,1601.2877 c 0,0 -0.34237,-6.2214 -1.18786,-10.423 -0.17706,-0.88 -0.51242,-1.8504 -1.22281,-2.3989 -2.95021,-2.278 -4.94167,-3.2225 -8.06587,-4.6903 -0.83872,-0.3943 -1.82547,-0.4413 -2.75125,-0.4 -1.69016,0.075 -3.34509,0.6039 -4.93754,1.1752 -1.33416,0.4786 -3.81929,1.8693 -3.81929,1.8693 0,0 -1.02836,-0.026 -1.47559,0.1718 -0.74353,0.3286 -1.44771,0.6527 -2.20218,0.9552 -0.94282,0.3781 -1.92593,0.6471 -2.88214,0.9898 -6.45294,2.3133 -12.89759,4.657 -19.26417,7.1984 -3.52127,1.4056 -5.9386,2.3487 -10.46766,4.4501 -1.07819,0.5002 -1.84063,1.5801 -2.42256,2.6164 -0.52641,0.9375 -0.79245,2.0315 -0.87998,3.103 -0.12088,1.4796 0.50341,4.4247 0.50341,4.4247 l 0.46408,0.089 c 0,0 0.4873,1.3223 1.01648,1.7327 0.54985,0.4265 1.32026,0.4612 2.00674,0.5749 1.97784,0.3282 4.00239,0.2899 6.00723,0.2977 3.20154,0.013 6.39537,-0.336 9.59623,-0.4022 3.20548,-0.066 6.42659,-0.2968 9.61844,0.01 2.41455,0.2287 4.7821,0.8259 7.1474,1.3623 2.21696,0.503 4.3439,1.4195 6.59494,1.7374 1.51757,0.2149 3.08143,0.335 4.59701,0.1066 3.24905,-0.4899 6.41268,-1.6499 9.34918,-3.1242 1.81146,-0.9095 3.72544,-1.8903 4.99086,-3.4737 0.9024,-1.1291 1.63149,-4.0179 1.63149,-4.0179" style="color: rgb(0, 0, 0); clip-rule: nonzero; display: inline; overflow: visible; visibility: visible; opacity: 1; isolation: auto; mix-blend-mode: normal; color-interpolation: srgb; color-interpolation-filters: linearrgb; fill-opacity: 1; fill-rule: evenodd; stroke: none; stroke-width: 0.264583; stroke-linecap: butt; stroke-linejoin: miter; stroke-miterlimit: 4; stroke-dasharray: none; stroke-dashoffset: 0; stroke-opacity: 1; color-rendering: auto; image-rendering: auto; shape-rendering: auto; text-rendering: auto;"/>
    <path id="path2652-3-1" d="m -285.11134,1601.3418 -8.92533,54.4143 -0.70273,13.3019 c 0,0 2.40085,8.3374 4.18536,12.2749 2.72075,6.003 7.54052,13.1595 10.05565,19.2515 2.23775,5.4203 3.44208,9.0608 4.15508,14.8814 0.19632,1.6027 0.38218,3.5376 0.33668,5.3057 -0.0494,1.9216 -0.40221,3.7396 -0.35399,5.6612 0.0436,1.737 0.49241,3.5372 0.486,5.2747 -0.0132,3.58 -0.67776,7.1343 -1.27473,10.6642 -0.66436,3.9284 -1.11241,5.9007 -2.6573,10.6952 -0.20731,0.6434 -0.82816,1.3547 -1.37285,1.7549 -0.56245,0.4132 -1.13513,0.9937 -1.56714,1.5418 -0.4959,0.6293 -1.1964,1.2216 -1.89819,1.608 -1.65276,0.9103 -3.47515,1.4098 -5.34153,1.6868 -3.42406,0.5082 -6.88956,1.0932 -10.34294,1.3311 -2.62687,0.1809 -4.60195,0.1289 -7.89024,0.3779 -0.16169,0.012 -0.42522,0.2363 -0.42522,0.2363 0,0 -1.94019,0.1353 -2.8686,0.4002 -1.12215,0.3202 -2.24165,0.7535 -3.20047,1.4186 -1.08033,0.7494 -2.76016,2.8178 -2.76016,2.8178 0,0 2.16503,-0.8928 3.30948,-1.0922 0.85349,-0.1487 1.73552,-0.1482 2.59814,-0.068 0.70309,0.065 2.07115,0.4448 2.07115,0.4448 0,0 0.37138,0.7585 0.61421,0.9922 0.23611,0.2273 0.47548,0.567 0.8032,0.567 h 37.85628 c 0.18468,0 0.31461,-0.3635 0.318,-0.5482 0.0419,-2.2802 0.0173,-6.6093 0.0173,-6.6093 0,0 1.88807,-12.7166 3.09775,-18.4546 0.62485,-2.9639 1.42531,-5.8883 2.18124,-8.8215 0.51499,-1.9983 1.17177,-3.9225 1.33652,-5.9795 0.17468,-2.1809 -0.10666,-4.4153 -0.66966,-6.5295 -0.58561,-2.1991 -1.34893,-3.8537 -1.72315,-6.0984 -0.91165,-5.4685 -1.32716,-10.4419 -0.8958,-15.1696 0.35586,-3.9002 1.36249,-7.6079 1.81935,-11.4977 0.4111,-3.5002 0.30711,-8.5925 -0.16569,-12.085 -0.42769,-3.1593 -1.62921,-5.8125 -1.62921,-5.8125 l 25.1632,-60.0184" style="color: rgb(0, 0, 0); clip-rule: nonzero; display: inline; overflow: visible; visibility: visible; opacity: 1; isolation: auto; mix-blend-mode: normal; color-interpolation: srgb; color-interpolation-filters: linearrgb; fill-opacity: 1; fill-rule: evenodd; stroke: none; stroke-width: 0.264583; stroke-linecap: butt; stroke-linejoin: miter; stroke-miterlimit: 4; stroke-dasharray: none; stroke-dashoffset: 0; stroke-opacity: 1; color-rendering: auto; image-rendering: auto; shape-rendering: auto; text-rendering: auto;"/>
    <path id="path2700-2" d="m -269.70494,1752.3333 c 0,0 0.29437,1.4843 0.47914,2.2177 0.10842,0.4303 0.24759,0.8523 0.36901,1.2792 0.0829,0.2914 0.14214,0.7734 0.0564,1.064 -0.11363,0.3851 -0.50408,0.7963 -0.50408,0.7963 0,0 -0.17576,0.7808 -0.1589,1.2347 0.0288,0.7742 0.2395,1.6021 0.53779,2.3171 0.31903,0.7647 1.4193,2.0408 1.4193,2.0408 0,0 -0.959,-0.3622 -1.38767,-0.6364 -1.0402,-0.6654 -2.03052,-1.455 -2.81365,-2.4097 -0.60806,-0.7413 -1.40759,-2.5084 -1.40759,-2.5084 l -0.45253,-0.6128 -0.0198,-4.5455" style="color: rgb(0, 0, 0); clip-rule: nonzero; display: inline; overflow: visible; visibility: visible; opacity: 1; isolation: auto; mix-blend-mode: normal; color-interpolation: srgb; color-interpolation-filters: linearrgb; fill-opacity: 1; fill-rule: evenodd; stroke: none; stroke-width: 0.264583; stroke-linecap: butt; stroke-linejoin: miter; stroke-miterlimit: 4; stroke-dasharray: none; stroke-dashoffset: 0; stroke-opacity: 1; color-rendering: auto; image-rendering: auto; shape-rendering: auto; text-rendering: auto;"/>
  </g>
</svg>