<?xml version="1.0" encoding="utf-8"?>
<svg xmlns="http://www.w3.org/2000/svg" viewBox="-320.046 217.0573 609.6189 166.8354" width="609.619px" height="166.835px">
  <defs>
    <clipPath id="clipPath290" clipPathUnits="userSpaceOnUse">
      <path style="clip-rule:evenodd" id="path288" d="M -4.578e-6,540 H 720 V 1.2207e-4 L -6.104e-6,6.104e-6"/>
    </clipPath>
  </defs>
  <g transform="matrix(0.9248520731925965, 0, 0, -0.9248520731925965, -349.23206086802566, 533.5180095064343)" id="g368" style="fill:#c14600;fill-opacity:1">
    <path d="m 296.39,335.6 c 26.74,5.28 34.23,2.01 69.41,-2.12 35.17,-4.13 88.4,-11.1 141.64,-22.67 53.23,-11.56 146.01282,-8.57652 172.09282,-16.25652 26.09,-7.67 0.22972,-2.35882 -14.1027,-1.51017 -17.03404,0.85865 -29.34829,-0.33577 -56.85318,-0.0417 -23.25604,-0.74913 -65.12023,-0.75054 -90.36826,-3.95264 C 490.58123,285.5451 482.06,289.45 453.61,288.15 c -28.44,-1.3 -75.77,-3.07 -98.44,-7.79 -22.66,-4.72 -24.55,-14.99 -37.53,-20.54 -12.98,-5.54 -27.62,-11.92 -40.37,-12.74 -12.75,-0.83 -36.12,7.79 -36.12,7.79 -11.68,2.48 -23.84,4.36 -33.99,7.08 -10.15,2.71 -21.36,4.48 -26.91,9.21 -5.55,4.72 -3.54,15.1 -6.37,19.12 -2.84,4.01 11.3,4.08 31.48,11.52 20.18,7.43 64.29,28.52 91.03,33.8 z" style="fill-opacity: 1; fill-rule: evenodd; stroke: none; fill: rgb(0, 0, 0);" id="path276"/>
    <path d="m 32.201,288.37 c -0.72,1.04 -0.792,4.07 -0.432,6.48 0.36,2.41 0.972,5.65 2.592,7.99 1.62,2.34 4.752,4.07 7.128,6.05 2.376,1.98 3.312,3.67 7.128,5.83 3.816,2.16 12.708,5.47 15.768,7.13 3.06,1.65 1.728,2.19 2.592,2.81 0.864,0.61 1.584,0.75 2.592,0.86 1.008,0.11 2.556,-0.47 3.456,-0.22 0.9,0.26 0.936,1.05 1.944,1.73 1.008,0.69 2.592,1.59 4.104,2.38 1.512,0.79 2.88,1.11 4.968,2.37 2.088,1.26 5.004,4.25 7.56,5.19 2.556,0.93 5.328,1.73 7.776,0.43 2.453,-1.3 5.153,-4.39 6.913,-8.21 1.76,-3.81 2.99,-10.22 3.67,-14.69 0.69,-4.46 1.98,-7.38 0.43,-12.09 -1.54,-4.72 -6.8,-11.95 -9.72,-16.2 -2.913,-4.25 -5.217,-5.69 -7.773,-9.29 -2.556,-3.6 -5.004,-8.1 -7.56,-12.31 -2.556,-4.21 -5.652,-10.48 -7.776,-12.96 -2.124,-2.49 -3.384,-1.51 -4.968,-1.95 -1.584,-0.43 -3.78,-0.93 -4.536,-0.64 -0.756,0.28 -0.72,0.75 0,2.37 0.72,1.62 2.16,3.75 4.32,7.35 2.16,3.6 6.228,9.14 8.64,14.25 2.412,5.11 5.22,11.95 5.832,16.42 0.612,4.46 -0.612,7.95 -2.16,10.37 -1.548,2.41 -3.924,4.42 -7.128,4.1 -3.204,-0.32 -7.668,-4.1 -12.096,-6.05 -4.428,-1.94 -9.576,-4.07 -14.472,-5.61 -4.896,-1.55 -11.772,-3.03 -14.904,-3.68 -3.132,-0.64 -3.168,-1.26 -3.888,-0.21 z" style="fill-opacity: 1; fill-rule: evenodd; stroke: none; fill: rgb(0, 0, 0);" id="path278"/>
    <path d="m 33.996,288.15 c 1.014,-0.89 2.028,-1.78 2.556,-2.19 0.527,-0.4 0.142,0 0.608,-0.24 0.466,-0.24 2.109,-1.56 2.19,-1.22 0.082,0.35 -1.216,2.29 -1.703,3.29 -0.487,0.99 -1.663,2.92 -1.217,2.67 0.446,-0.24 3.407,-4.05 3.894,-4.13 0.487,-0.08 -1.197,3.38 -0.974,3.65 0.224,0.26 1.907,-2.17 2.312,-2.07 0.406,0.1 -0.344,2.96 0.122,2.68 0.467,-0.29 1.947,-3.53 2.677,-4.38 0.731,-0.86 1.765,-1.14 1.704,-0.74 -0.061,0.41 -1.683,2.2 -2.069,3.17 -0.385,0.97 -0.507,2.74 -0.243,2.68 0.264,-0.06 0.75,-2.03 1.825,-3.05 1.075,-1.01 4.341,-3.08 4.624,-3.04 0.284,0.04 -2.21,2.07 -2.92,3.29 -0.71,1.21 -1.46,3.69 -1.339,4.01 0.122,0.33 1.238,-1.36 2.069,-2.07 0.832,-0.71 2.718,-2.21 2.921,-2.19 0.202,0.02 -1.278,1.4 -1.704,2.32 -0.426,0.91 -0.953,2.75 -0.852,3.16 0.102,0.41 0.73,-0.06 1.46,-0.73 0.731,-0.67 1.988,-2.58 2.921,-3.29 0.933,-0.71 2.677,-1.33 2.677,-0.97 0,0.37 -2.089,2.25 -2.677,3.16 -0.588,0.92 -1.136,2.5 -0.852,2.32 0.284,-0.19 1.663,-2.68 2.556,-3.41 0.892,-0.73 2.677,-1.16 2.799,-0.97 0.121,0.18 -1.522,1.25 -2.069,2.06 -0.548,0.82 -1.359,2.52 -1.217,2.8 0.142,0.29 1.359,-0.67 2.069,-1.09 0.71,-0.43 1.277,-1.12 2.19,-1.46 0.913,-0.35 3.205,-0.94 3.286,-0.61 0.081,0.32 -2.028,1.68 -2.799,2.55 -0.771,0.88 -2.13,2.78 -1.826,2.68 0.305,-0.1 2.252,-2.49 3.651,-3.28 1.4,-0.79 4.482,-1.65 4.746,-1.46 0.264,0.18 -2.413,1.74 -3.164,2.55 -0.75,0.81 -1.927,2.27 -1.338,2.31 0.588,0.04 4.34,-2 4.867,-2.06 0.527,-0.07 -1.379,1.21 -1.704,1.7 -0.324,0.49 -0.75,1.3 -0.243,1.22 0.507,-0.09 2.921,-1.93 3.286,-1.71 0.365,0.23 -1.42,2.96 -1.095,3.04 0.324,0.09 2.798,-2.67 3.042,-2.55 0.243,0.12 -1.582,2.64 -1.582,3.28 0,0.65 0.852,0.75 1.582,0.61 0.73,-0.14 2.535,-1.64 2.799,-1.46 0.263,0.19 -1.055,2.15 -1.217,2.56 -0.162,0.4 0.243,-0.12 0.243,-0.12 0.325,-0.17 1.582,-1.04 1.704,-0.86 0.121,0.19 -1.319,1.93 -0.974,1.95 0.345,0.02 2.779,-2.01 3.043,-1.82 0.263,0.18 -1.501,2.61 -1.461,2.92 0.041,0.3 1.481,-1.18 1.704,-1.1 0.223,0.08 -0.73,1.48 -0.365,1.58 0.365,0.1 2.231,-1.09 2.555,-0.97 0.325,0.12 -0.588,1.32 -0.608,1.7 -0.02,0.39 3.062,1.4 0.487,0.61 -2.576,-0.79 -15.942,-5.35 -15.942,-5.35 l -26.65,-9.25" style="fill-opacity: 1; fill-rule: evenodd; stroke: none; fill: rgb(0, 0, 0);" id="path280"/>
    <path d="m 92.529,284.26 c -0.406,1.5 -5.719,0.24 -7.18,0.48 -1.46,0.25 -1.338,1.06 -1.582,0.98 -0.243,-0.08 -0.507,-0.65 0.122,-1.46 0.629,-0.81 3.874,-3.15 3.651,-3.41 -0.223,-0.26 -4.016,1.36 -4.99,1.83 -0.973,0.46 -0.689,1.09 -0.851,0.97 -0.163,-0.12 -0.629,-0.89 -0.122,-1.7 0.507,-0.82 3.123,-2.76 3.164,-3.17 0.04,-0.4 -2.211,0.43 -2.921,0.73 -0.71,0.31 -1.196,1.16 -1.338,1.1 -0.142,-0.06 -0.021,-0.79 0.486,-1.46 0.507,-0.67 2.576,-2.15 2.556,-2.56 -0.02,-0.4 -1.927,-0.08 -2.677,0.12 -0.751,0.21 -1.603,1.18 -1.826,1.1 -0.223,-0.08 -0.182,-0.89 0.487,-1.58 0.669,-0.69 3.61,-2.3 3.529,-2.56 -0.081,-0.26 -3.144,0.67 -4.016,0.97 -0.872,0.31 -1.277,1.1 -1.217,0.86 0.061,-0.25 0.812,-1.5 1.582,-2.32 0.771,-0.81 3.225,-2.33 3.043,-2.55 -0.183,-0.22 -3.144,0.79 -4.138,1.22 -0.994,0.42 -1.541,1.42 -1.825,1.33 -0.284,-0.08 -0.527,-0.97 0.122,-1.82 0.649,-0.85 3.65,-2.76 3.772,-3.29 0.122,-0.52 -2.17,-0.2 -3.042,0.13 -0.872,0.32 -1.907,1.84 -2.191,1.82 -0.284,-0.02 -0.081,-1.2 0.487,-1.95 0.568,-0.75 2.941,-2.29 2.921,-2.55 -0.021,-0.27 -2.272,0.65 -3.043,0.97 -0.77,0.33 -1.46,1.18 -1.582,0.97 -0.121,-0.2 0.122,-1.39 0.852,-2.19 0.73,-0.79 3.813,-2.45 3.529,-2.55 -0.284,-0.1 -4.218,1.5 -5.232,1.95 -1.015,0.44 -0.852,0.93 -0.852,0.73 0,-0.21 0.284,-1.18 0.852,-1.95 0.567,-0.77 2.555,-2.37 2.555,-2.68 0,-0.3 -1.805,0.45 -2.555,0.85 -0.751,0.41 -1.664,1.59 -1.947,1.59 -0.284,0 -0.284,-0.82 0.243,-1.59 0.527,-0.77 2.86,-2.57 2.92,-3.04 0.061,-0.46 -1.845,-0.08 -2.555,0.24 -0.71,0.33 -1.46,1.71 -1.704,1.71 -0.243,0 -0.284,-0.93 0.244,-1.71 0.527,-0.77 3.042,-2.61 2.92,-2.92 -0.121,-0.3 -3.265,1.32 -3.65,1.1 -0.386,-0.22 1.237,-1.89 1.338,-2.43 0.102,-0.55 -0.223,-1.06 -0.73,-0.86 -0.507,0.21 -1.988,2.05 -2.312,2.07 -0.325,0.02 0.02,-1.28 0.365,-1.94 0.345,-0.67 1.906,-1.97 1.704,-2.07 -0.203,-0.1 -2.698,1.62 -2.921,1.46 -0.223,-0.17 0.872,-1.99 1.582,-2.44 0.71,-0.44 1.379,-1.17 2.677,-0.24 1.298,0.93 2.353,1.64 5.111,5.84 2.758,4.2 8.742,14.69 11.439,19.35 2.697,4.66 5.152,7.02 4.746,8.52 z" style="fill-opacity: 1; fill-rule: evenodd; stroke: none; fill: rgb(0, 0, 0);" id="path282-2"/>
    <g id="g284" style="fill:#c14600;fill-opacity:1">
      <g id="g286" clip-path="url(#clipPath290)" style="fill:#c14600;fill-opacity:1">
        <path d="m 182.18,274.88 c 4.22,-4.39 8.43,-8.79 11.27,-11.49 2.84,-2.7 4.95,-3.38 5.76,-4.73 0.81,-1.34 -0.75,-1.37 -0.92,-3.35 -0.16,-1.98 0.28,-5.3 -0.08,-8.53 -0.36,-3.23 -1.27,-8.03 -2.07,-10.84 -0.79,-2.81 -2.11,-4.63 -2.69,-6.02 -0.58,-1.39 0.2,-1.73 -0.79,-2.33 -0.99,-0.61 -3.63,-0.19 -5.16,-1.3 -1.53,-1.1 -1.9,-4.03 -4.01,-5.35 -2.12,-1.32 -6.02,-1.98 -8.67,-2.58 -2.64,-0.61 -6.67,-0.63 -7.18,-1.04 -0.52,-0.41 1.94,-1.21 4.11,-1.43 2.17,-0.21 5.54,-0.76 8.89,0.12 3.34,0.89 9.02,4.09 11.18,5.2 2.15,1.11 1.61,1.59 1.75,1.47 0.14,-0.11 -0.67,-1.24 -0.89,-2.15 -0.23,-0.92 -0.15,-2.29 -0.46,-3.33 -0.31,-1.04 -1.16,-1.96 -1.4,-2.92 -0.24,-0.96 0.22,-1.84 -0.03,-2.84 -0.25,-1.01 -1.09,-2.16 -1.47,-3.2 -0.39,-1.05 -0.72,-2.06 -0.84,-3.08 -0.13,-1.01 0.79,-1.59 0.07,-3.02 -0.72,-1.43 -2.34,-3.81 -4.37,-5.56 -2.03,-1.74 -7.8,-4.92 -7.8,-4.92 v 0 c 0.79,0.06 2.68,-0.43 4.75,0.36 2.06,0.78 5.42,2.26 7.64,4.36 2.23,2.09 5.7,8.2 5.7,8.2 v 0 l -1.78,-4.32 v 0 c 0.36,0.33 1.43,1.21 2.18,1.95 0.76,0.75 1.76,1.4 2.34,2.52 0.58,1.11 0.26,1.95 1.15,4.19 0.88,2.23 3.21,6.35 4.17,9.21 0.96,2.86 1.06,5.99 1.58,7.97 0.52,1.99 1.08,2.66 1.53,3.94 0.45,1.28 0.71,2.6 1.17,3.73 0.46,1.13 1.11,1.5 1.58,3.02 0.46,1.52 0.69,4.01 1.22,6.12 0.53,2.11 1.3,4.2 1.93,6.52 0.64,2.33 1.58,5.03 1.89,7.44 0.31,2.42 0.67,5.1 -0.02,7.06 -0.69,1.97 -2.36,2.15 -4.11,4.73 -1.75,2.58 -4.06,6.66 -6.37,10.75" style="fill-opacity: 1; fill-rule: evenodd; stroke: none; fill: rgb(0, 0, 0);" id="path292"/>
      </g>
    </g>
    <path d="m 183.31,273.3 c -5.7,1.73 -6.15,3.45 -9.45,6.75 -3.3,3.3 -6.37,9.38 -10.35,13.05 -3.97,3.68 -7.05,6.23 -13.5,9 -6.45,2.78 -18.3,7.13 -25.2,7.65 -6.9,0.53 -12,-1.42 -16.2,-4.5 -4.2,-3.07 -6.3,-18.52 -8.999,-13.95 -2.7,4.58 -9.075,33.3 -7.2,41.4 1.875,8.1 12.749,6.38 18.449,7.2 5.7,0.83 7.8,-0.07 15.75,-2.25 7.95,-2.17 21.68,-9 31.95,-10.8 10.28,-1.8 18.45,-1.5 29.7,0 11.25,1.5 22.28,6.45 37.8,9 15.53,2.55 31.28,6.68 55.35,6.3 24.08,-0.37 64.95,-5.4 89.1,-8.55 24.15,-3.15 55.8,-10.35 55.8,-10.35 23.1,-4.27 84.68,-11.17 82.8,-15.3 -1.87,-4.12 -94.05,-9.45 -94.05,-9.45 -37.8,-3.97 -98.25,-9.6 -132.75,-14.4 -34.5,-4.8 -57.6,-12.37 -74.25,-14.4 -16.65,-2.02 -19.05,1.88 -24.75,3.6 z" style="fill-opacity: 1; fill-rule: evenodd; stroke: none; fill: rgb(0, 0, 0);" id="path294"/>
    <path d="m 180.46,281.08 v 0 c -0.79,0.53 -1.63,0.98 -2.36,1.57 -1.63,1.34 0.61,0.41 -1.31,1.05 -2.06,2.06 -1.11,1.35 -2.62,2.36 -0.17,0.26 -0.28,0.59 -0.52,0.78 -0.22,0.18 -0.53,0.16 -0.79,0.26 -0.36,0.16 -0.71,0.32 -1.04,0.53 -0.69,0.43 -1.94,1.6 -2.62,1.83 -0.53,0.18 -1.04,0.39 -1.57,0.52 -1.32,0.33 -0.71,0.15 -1.84,0.53 -1.91,1.27 0.5,-0.28 -1.83,1.05 -1.42,0.81 -0.13,0.3 -1.57,0.78 -0.35,0.26 -0.66,0.59 -1.05,0.79 -0.32,0.16 -0.74,0.06 -1.04,0.26 -0.27,0.17 -0.33,0.54 -0.53,0.78 -0.87,1.05 -0.65,0.64 -1.83,1.31 -1.74,1 0.39,0.14 -2.36,1.05 l -0.78,0.26 c -0.53,0.35 -0.98,0.85 -1.57,1.05 -0.27,0.09 -0.55,0.13 -0.79,0.26 -0.55,0.31 -0.97,0.85 -1.57,1.05 -0.26,0.09 -0.54,0.14 -0.79,0.26 -0.28,0.14 -0.49,0.41 -0.78,0.52 -0.42,0.16 -0.87,0.18 -1.31,0.27 -0.35,0.17 -0.68,0.38 -1.05,0.52 -0.83,0.31 -1.85,0.27 -2.62,0.78 -2.31,1.55 1.39,-0.82 -2.35,1.05 -1.52,0.76 -0.66,0.46 -2.62,0.79 -0.75,0.25 -1.01,0.36 -1.83,0.52 -0.52,0.11 -1.05,0.15 -1.57,0.26 -0.71,0.15 -2.1,0.53 -2.1,0.53 -0.26,0.17 -0.49,0.4 -0.78,0.52 -0.33,0.14 -0.71,0.16 -1.05,0.26 -0.53,0.16 -1.05,0.35 -1.57,0.53 l -0.79,0.26 -0.78,0.26 -10.74,-0.26 c -11.34,-0.34 -4.13,0.46 -7.59,-0.53 -0.28,-0.08 -1.5,-0.34 -1.83,-0.52 -0.55,-0.31 -1.01,-0.77 -1.57,-1.05 -0.35,-0.17 -0.72,-0.31 -1.05,-0.52 -2.72,-1.7 0.56,0.02 -2.1,-1.31 -0.77,2.32 -0.55,1.31 0.27,6.02 0.05,0.31 0.35,0.53 0.52,0.79 0.43,1.73 -0.08,0.46 1.05,1.83 2.8,3.42 0.42,0.95 2.62,3.14 0.08,0.26 0.1,0.56 0.26,0.79 0.4,0.6 0.99,0.92 1.57,1.31 0.17,0.26 0.29,0.58 0.52,0.78 1.34,1.18 1.38,1.01 2.88,1.31 1.82,1.21 -0.47,-0.23 2.1,1.05 0.28,0.14 0.5,0.38 0.78,0.52 0.25,0.13 0.53,0.16 0.79,0.26 0.36,0.16 0.68,0.38 1.04,0.53 0.52,0.2 1.58,0.52 1.58,0.52 2.18,-0.09 4.43,0.31 6.54,-0.26 0.95,-0.26 1.32,-1.48 2.1,-2.1 0.43,-0.34 0.89,-0.67 1.3,-1.04 0.46,-0.42 0.86,-0.9 1.31,-1.31 0.81,-0.73 2.94,-2.27 3.67,-2.62 0.82,-0.39 1.76,-0.48 2.62,-0.79 0.88,-0.31 1.77,-0.63 2.62,-1.04 1.86,-0.9 3.52,-2.27 5.49,-2.88 1.14,-0.35 2.26,-0.76 3.41,-1.05 0.94,-0.24 1.92,-0.34 2.88,-0.52 l 2.62,-0.53 c 0.69,-0.35 1.36,-0.77 2.09,-1.04 0.67,-0.26 1.4,-0.33 2.09,-0.53 4.46,-1.27 -0.62,0.03 2.62,-0.78 0.35,-0.18 0.67,-0.42 1.05,-0.53 0.86,-0.24 1.79,-0.19 2.62,-0.52 1.64,-0.66 0.85,-0.41 2.35,-0.79 3.81,-2.53 -0.14,-0.15 2.62,-1.31 0.72,-0.3 1.4,-0.69 2.1,-1.04 0.35,-0.18 0.67,-0.43 1.04,-0.53 l 1.05,-0.26 c 0.26,-0.17 0.51,-0.37 0.79,-0.52 0.34,-0.2 1.04,-0.53 1.04,-0.53 v 0" style="fill-opacity: 1; fill-rule: evenodd; stroke: none; fill: rgb(0, 0, 0);" id="path296"/>
    <path d="m 130.97,306.48 v 0 c -0.96,-0.09 -1.91,-0.26 -2.88,-0.26 -0.53,0 -1.04,0.26 -1.57,0.26 -1.31,0 -2.62,-0.18 -3.93,-0.26 -0.33,-0.09 -1.45,-0.34 -1.83,-0.53 -0.41,-0.2 -1.56,-1.11 -1.83,-1.31 -0.26,-0.18 -0.5,-0.39 -0.79,-0.52 -1.51,-0.67 -2,-0.49 -3.66,-1.05 l -0.79,-0.26 c -0.26,-0.26 -0.48,-0.58 -0.78,-0.78 -0.23,-0.16 -0.57,-0.09 -0.79,-0.27 -0.24,-0.19 -0.28,-0.58 -0.52,-0.78 -0.3,-0.25 -0.7,-0.35 -1.05,-0.52 -0.17,-0.27 -0.3,-0.57 -0.52,-0.79 -0.23,-0.22 -0.53,-0.34 -0.79,-0.52 -0.35,-0.26 -0.71,-0.5 -1.05,-0.79 -1.24,-1.07 -0.23,-0.6 -1.57,-1.05 -0.52,-0.52 -1.16,-0.95 -1.57,-1.57 -1.25,-1.88 -0.6,-1.12 -1.83,-2.35 -0.09,-0.27 -0.09,-0.57 -0.26,-0.79 -0.2,-0.24 -0.55,-0.32 -0.79,-0.52 -0.28,-0.24 -0.52,-0.53 -0.78,-0.79 0.4,1.01 0.76,1.83 1.04,2.88 0.12,0.43 0.17,0.88 0.27,1.31 0.07,0.35 0.18,0.7 0.26,1.05 0.09,0.43 0.1,0.89 0.26,1.31 0.11,0.29 0.35,0.52 0.52,0.78 0.68,3.4 -0.24,-0.82 0.79,2.62 0.13,0.43 0.14,0.88 0.26,1.31 0.15,0.54 0.77,2.32 1.05,2.88 0.14,0.28 0.4,0.5 0.52,0.79 0.32,0.76 0.52,1.57 0.79,2.35 0.08,0.26 0.11,0.56 0.26,0.79 l 1.05,1.57 c 0.6,1.8 -0.23,-0.39 1.04,1.83 0.14,0.24 0.16,0.53 0.26,0.79 0.16,0.36 0.33,0.71 0.53,1.04 0.32,0.54 0.54,1.2 1.05,1.57 0.69,0.53 1.36,1.09 2.09,1.58 0.26,0.17 0.5,0.38 0.79,0.52 0.24,0.12 0.52,0.17 0.78,0.26 2.55,-0.15 4.03,-0.11 6.28,-0.52 1.08,-0.2 2.05,-0.7 3.15,-0.79 1.83,-0.14 3.66,-0.17 5.49,-0.26 0.44,-0.09 0.88,-0.14 1.31,-0.26 0.54,-0.15 1.04,-0.41 1.57,-0.53 0.69,-0.14 1.4,-0.17 2.1,-0.26 0.61,-0.17 1.21,-0.39 1.83,-0.52 0.61,-0.13 1.24,-0.11 1.83,-0.26 0.46,-0.12 0.85,-0.43 1.31,-0.53 0.78,-0.16 1.58,-0.16 2.36,-0.26 2.49,-0.31 1.04,-0.26 2.88,-0.26 v 0" style="fill-opacity: 1; fill-rule: evenodd; stroke: none; fill: rgb(0, 0, 0);" id="path298"/>
    <path d="m 103.52,293.85 c 3.23,2.6 6.46,5.2 8.91,7.34 2.44,2.13 3.4,4.4 5.76,5.49 2.35,1.09 5.54,1.09 8.37,1.05 2.84,-0.04 5.63,-0.74 8.64,-1.31 3.02,-0.57 6.72,-1.22 9.43,-2.09 2.71,-0.88 4.23,-2.05 6.81,-3.14 2.57,-1.1 6.28,-2.06 8.64,-3.41 2.35,-1.35 3.36,-3.23 5.5,-4.71 2.13,-1.48 6.19,-5.67 7.33,-4.19 1.13,1.48 6.76,7.85 -0.53,13.09 -7.28,5.24 -31.72,17.15 -43.2,18.33 -11.47,1.18 -18.56,-5.04 -25.66,-11.26" style="fill-opacity: 1; fill-rule: evenodd; stroke: none; fill: rgb(0, 0, 0);" id="path300"/>
    <path d="m 110.55,300.46 c 2.68,1.85 5.37,3.71 8.12,4.45 2.75,0.74 6.45,-0.09 8.37,0 1.92,0.09 2.01,0.65 3.15,0.52 1.13,-0.13 2.4,-1.05 3.66,-1.31 1.27,-0.26 2.75,0.05 3.93,-0.26 1.18,-0.3 2.05,-1.18 3.14,-1.57 1.09,-0.39 0.87,0.35 3.4,-0.79 2.54,-1.13 8.16,-4.23 11.79,-6.02 3.62,-1.79 7.59,-2.53 9.95,-4.71 2.35,-2.18 2.74,-5.93 4.18,-8.38 1.44,-2.44 2.54,-4.49 4.46,-6.28 1.92,-1.79 2.79,-3.97 7.06,-4.45 4.28,-0.48 18.77,-5.33 18.59,1.57 -0.17,6.89 -6.28,31.68 -19.63,39.79 -13.36,8.12 -36.92,8.51 -60.48,8.91" style="fill-opacity: 1; fill-rule: evenodd; stroke: none; fill: rgb(0, 0, 0);" id="path302"/>
    <path d="m 104.79,302.55 c 6.61,1.16 13.22,2.31 19.9,1.83 6.67,-0.48 14.14,-2.79 20.16,-4.71 6.02,-1.92 11.47,-4.84 15.97,-6.81 4.49,-1.96 9.9,-7.28 11,-4.97 1.09,2.31 5.89,14.05 -4.46,18.85 -10.34,4.8 -33.97,7.38 -57.6,9.95" style="fill-opacity: 1; fill-rule: evenodd; stroke: none; fill: rgb(0, 0, 0);" id="path304"/>
    <path d="m 268.52,253.16 c 7.33,-10.23 14.66,-20.46 22.25,-26.44 7.6,-5.98 16.85,-6.59 23.31,-9.43 6.45,-2.83 12,-4.01 15.44,-7.59 3.45,-3.58 4.54,-8.95 5.24,-13.88 0.7,-4.93 -0.44,-12.33 -1.05,-15.71 -0.61,-3.37 -1.89,-3.57 -2.6,-4.52 -0.71,-0.95 -1.37,-0.52 -1.67,-1.17 -0.31,-0.66 -1.72,-2.67 -3.58,-3.73 -1.86,-1.06 -4.98,-2.14 -7.59,-2.62 -2.62,-0.48 -5.72,0.48 -8.12,-0.26 -2.4,-0.74 -6.24,-3.8 -6.28,-4.19 -0.05,-0.39 4.49,1.66 6.02,1.83 1.52,0.18 2.22,-0.35 3.14,-0.78 0.92,-0.44 1.22,-1.57 2.36,-1.84 1.13,-0.26 2.48,0.09 4.45,0.27 1.96,0.17 3.97,0.65 7.33,0.78 3.36,0.13 10.34,-0.39 12.83,0 2.48,0.39 1.79,1.01 2.09,2.36 0.31,1.35 -0.57,2.66 -0.26,5.76 0.3,3.1 1.57,6.59 2.09,12.83 0.53,6.23 1.62,19.33 1.05,24.56 -0.57,5.24 -3.01,5.27 -4.45,6.86 -1.44,1.58 -1.88,0.93 -4.19,2.68 -2.31,1.74 -6.81,4.7 -9.69,7.79 -2.88,3.09 -7.59,10.73 -7.59,10.73 l -18.33,26.18" style="fill-opacity: 1; fill-rule: evenodd; stroke: none; fill: rgb(0, 0, 0);" id="path306"/>
    <path d="m 296.63812,274.56756 c 6.18,-5.76 13.70351,-11.24326 18.59351,-18.70326 4.88,-7.45 7.60649,-21.13674 10.70649,-26.01674 3.11,-4.89 9.61,-10.71 6.99,-9.64 -2.62,1.08 -15.8,9.26 -22.72,16.09 -6.92,6.83 -18.8,24.9 -18.8,24.9" style="fill-opacity: 1; fill-rule: evenodd; stroke: none; fill: rgb(0, 0, 0);" id="path308"/>
    <path d="m 343.13,178.89 c -0.09,-2.32 -0.18,-4.63 0,-6.55 0.17,-1.92 1.26,-4.89 1.05,-4.97 -0.22,-0.09 -1.75,2.35 -2.36,4.45 -0.61,2.09 -0.96,5.1 -1.31,8.11" style="fill-opacity: 1; fill-rule: evenodd; stroke: none; fill: rgb(0, 0, 0);" id="path310"/>
    <path d="m 314.79,163.75 c 0.41,-0.66 0.83,-1.31 1.76,-1.61 0.94,-0.29 2.39,-0.21 3.86,-0.16 1.47,0.06 3.26,0.51 4.98,0.49 1.71,-0.03 3.18,-0.59 5.3,-0.65 2.11,-0.05 6.02,0.32 7.38,0.32 1.37,0 0.22,-0.29 0.81,-0.32 0.59,-0.02 2.11,-0.13 2.73,0.16 0.61,0.3 0.99,0.62 0.96,1.61 -0.03,0.99 -0.57,2.66 -1.12,4.34" style="fill-opacity: 1; fill-rule: evenodd; stroke: none; fill: rgb(0, 0, 0);" id="path312-3"/>
    <path d="m 327,213.96 c -1.3,0.65 1.71,-4.32 2.44,-5.62 0.73,-1.3 1.54,-1.5 1.95,-2.19 0.41,-0.7 0.25,-1.18 0.49,-1.96 0.24,-0.77 0.81,-1.95 0.98,-2.68 0.16,-0.73 -0.21,-1.02 0,-1.71 0.2,-0.69 1.05,-1.75 1.22,-2.44 0.16,-0.69 -0.37,-0.65 -0.25,-1.71 0.12,-1.06 0.9,-3.62 0.98,-4.64 0.08,-1.01 -0.45,-0.77 -0.49,-1.46 -0.04,-0.69 0.33,-1.91 0.24,-2.69 -0.08,-0.77 -0.61,-1.09 -0.73,-1.95 -0.12,-0.85 0.16,-2.36 0,-3.17 -0.16,-0.81 -0.93,-0.94 -0.97,-1.71 -0.04,-0.77 0,-3.42 0.73,-2.93 0.73,0.49 3.05,1.3 3.66,5.86 0.61,4.55 1.67,16.11 0,21.48 -1.67,5.37 -8.95,8.86 -10.25,9.52 z" style="fill-opacity: 1; fill-rule: evenodd; stroke: none; fill: rgb(0, 0, 0);" id="path314"/>
    <path d="m 327.07,171.62 c -0.99,-0.42 -1.99,-0.85 -2.68,-1.22 -0.69,-0.36 -0.98,-0.73 -1.47,-0.97 -0.48,-0.25 -0.81,-0.21 -1.46,-0.49 -0.65,-0.29 -2.44,-1.22 -2.44,-1.22 -0.73,-0.37 -3.5,-0.45 -1.95,-0.98 1.54,-0.53 8.95,-2.85 11.22,-2.19 2.28,0.65 2.36,3.37 2.44,6.1" style="fill-opacity: 1; fill-rule: evenodd; stroke: none; fill: rgb(0, 0, 0);" id="path316"/>
    <path d="m 94.333,337.96 c 7.747,1.4 15.497,2.79 24.907,1.52 9.4,-1.27 22.02,-7.45 31.51,-9.14 9.48,-1.7 15.75,-1.53 25.41,-1.02 9.66,0.51 19.48,2.2 32.53,4.07 13.04,1.86 26.68,7.7 45.74,7.11 19.06,-0.59 76.74,-2.37 68.61,-10.67 -8.13,-8.3 -87.5,-37.53 -117.4,-39.14 -29.9,-1.61 -45.96,13.94 -62.01,29.48" style="fill-opacity: 1; fill-rule: evenodd; stroke: none; fill: rgb(0, 0, 0);" id="path318"/>
  </g>
</svg>