<?xml version="1.0" encoding="UTF-8" standalone="no"?>
<!-- Created with Inkscape (http://www.inkscape.org/) -->

<svg
   xmlns:dc="http://purl.org/dc/elements/1.1/"
   xmlns:cc="http://creativecommons.org/ns#"
   xmlns:rdf="http://www.w3.org/1999/02/22-rdf-syntax-ns#"
   xmlns:svg="http://www.w3.org/2000/svg"
   xmlns="http://www.w3.org/2000/svg"
   xmlns:sodipodi="http://sodipodi.sourceforge.net/DTD/sodipodi-0.dtd"
   xmlns:inkscape="http://www.inkscape.org/namespaces/inkscape"
   width="470mm"
   height="170mm"
   viewBox="0 0 470 170"
   version="1.1"
   id="svg8"
   inkscape:version="0.92.2 (5c3e80d, 2017-08-06)"
   sodipodi:docname="Megalosaurus silhouette.svg">
  <sodipodi:namedview
     id="base"
     pagecolor="#ffffff"
     bordercolor="#666666"
     borderopacity="1.0"
     inkscape:pageopacity="0.0"
     inkscape:pageshadow="2"
     inkscape:zoom="0.3535534"
     inkscape:cx="953.36258"
     inkscape:cy="124.89954"
     inkscape:document-units="mm"
     inkscape:current-layer="layer1"
     showgrid="false"
     inkscape:window-width="1366"
     inkscape:window-height="716"
     inkscape:window-x="-8"
     inkscape:window-y="-8"
     inkscape:window-maximized="1"
     fit-margin-top="0"
     fit-margin-left="0"
     fit-margin-right="0"
     fit-margin-bottom="0"
     width="3509.9905mm">
    <inkscape:grid
       type="xygrid"
       id="grid4670"
       originx="1435.4488"
       originy="288.54924" />
  </sodipodi:namedview>
  <defs
     id="defs2">
    <marker
       inkscape:stockid="Arrow1Mstart"
       orient="auto"
       refY="0"
       refX="0"
       id="Arrow1Mstart"
       style="overflow:visible"
       inkscape:isstock="true">
      <path
         id="path7957"
         d="M 0,0 5,-5 -12.5,0 5,5 Z"
         style="fill:#000000;fill-opacity:1;fill-rule:evenodd;stroke:#000000;stroke-width:1.00000003pt;stroke-opacity:1"
         transform="matrix(0.4,0,0,0.4,4,0)"
         inkscape:connector-curvature="0" />
    </marker>
    <marker
       inkscape:stockid="Arrow2Mend"
       orient="auto"
       refY="0"
       refX="0"
       id="Arrow2Mend"
       style="overflow:visible"
       inkscape:isstock="true">
      <path
         id="path7978"
         style="fill:#000000;fill-opacity:1;fill-rule:evenodd;stroke:#000000;stroke-width:0.625;stroke-linejoin:round;stroke-opacity:1"
         d="M 8.7185878,4.0337352 -2.2072895,0.01601326 8.7185884,-4.0017078 c -1.7454984,2.3720609 -1.7354408,5.6174519 -6e-7,8.035443 z"
         transform="scale(-0.6)"
         inkscape:connector-curvature="0" />
    </marker>
    <marker
       inkscape:stockid="EmptyTriangleOutL"
       orient="auto"
       refY="0"
       refX="0"
       id="EmptyTriangleOutL"
       style="overflow:visible"
       inkscape:isstock="true">
      <path
         id="path8111"
         d="M 5.77,0 -2.88,5 V -5 Z"
         style="fill:#ffffff;fill-rule:evenodd;stroke:#000000;stroke-width:1.00000003pt;stroke-opacity:1"
         transform="matrix(0.8,0,0,0.8,-4.8,0)"
         inkscape:connector-curvature="0" />
    </marker>
    <marker
       inkscape:stockid="EmptyTriangleInL"
       orient="auto"
       refY="0"
       refX="0"
       id="EmptyTriangleInL"
       style="overflow:visible"
       inkscape:isstock="true">
      <path
         id="path8102"
         d="M 5.77,0 -2.88,5 V -5 Z"
         style="fill:#ffffff;fill-rule:evenodd;stroke:#000000;stroke-width:1.00000003pt;stroke-opacity:1"
         transform="matrix(-0.8,0,0,-0.8,4.8,0)"
         inkscape:connector-curvature="0" />
    </marker>
    <marker
       inkscape:stockid="Scissors"
       orient="auto"
       refY="0"
       refX="0"
       id="marker8289"
       style="overflow:visible"
       inkscape:isstock="true">
      <path
         id="path8287"
         d="M 9.0898857,-3.6061018 C 8.1198849,-4.7769976 6.3697607,-4.7358294 5.0623558,-4.2327734 l -8.2124046,3.0779029 c -2.3882933,-1.3067135 -4.7482873,-0.9325372 -4.7482873,-1.5687873 0,-0.4973164 0.4566662,-0.3883222 0.3883068,-1.6831941 -0.065635,-1.2432767 -1.3635771,-2.1630796 -2.5903987,-2.0816435 -1.227271,-0.00735 -2.499439,0.9331613 -2.510341,2.2300611 -0.09143,1.3063864 1.007209,2.5196896 2.306764,2.6052316 1.5223406,0.2266616 4.218258,-0.6955566 5.482945,1.57086006 -0.9422847,1.73825774 -2.6140244,1.74307674 -4.1255107,1.65607034 -1.2548743,-0.072235 -2.7620933,0.2873979 -3.3606483,1.5208605 -0.578367,1.1820862 -0.0112,2.8646022 1.316749,3.226412 1.3401912,0.4918277 3.1806689,-0.129711 3.4993722,-1.6707242 0.2456585,-1.187823 -0.5953659,-1.7459574 -0.2725074,-2.1771537 0.2436135,-0.32536 1.7907806,-0.1368452 4.5471053,-1.3748244 L 5.6763468,4.2330688 C 6.8000164,4.5467672 8.1730685,4.5362646 9.1684433,3.4313614 l -9.22008423,-3.48508362 z m -18.3078016,-1.900504 c 1.294559,0.7227998 1.1888392,2.6835702 -0.1564272,3.0632889 -1.2165179,0.423661 -2.7710269,-0.7589694 -2.3831779,-2.0774648 0.227148,-1.0818519 1.653387,-1.480632 2.5396051,-0.9858241 z m 0.056264,8.0173649 c 1.3508301,0.4988648 1.1214429,2.7844356 -0.2522207,3.091609 -0.9110594,0.3163391 -2.2135494,-0.1387976 -2.3056964,-1.2121394 -0.177609,-1.305055 1.356085,-2.4841482 2.5579171,-1.8794696 z"
         style="fill:#000000;fill-opacity:1;stroke:#000000;stroke-opacity:1"
         inkscape:connector-curvature="0" />
    </marker>
    <marker
       inkscape:stockid="Scissors"
       orient="auto"
       refY="0"
       refX="0"
       id="Scissors"
       style="overflow:visible"
       inkscape:isstock="true">
      <path
         id="schere"
         d="M 9.0898857,-3.6061018 C 8.1198849,-4.7769976 6.3697607,-4.7358294 5.0623558,-4.2327734 l -8.2124046,3.0779029 c -2.3882933,-1.3067135 -4.7482873,-0.9325372 -4.7482873,-1.5687873 0,-0.4973164 0.4566662,-0.3883222 0.3883068,-1.6831941 -0.065635,-1.2432767 -1.3635771,-2.1630796 -2.5903987,-2.0816435 -1.227271,-0.00735 -2.499439,0.9331613 -2.510341,2.2300611 -0.09143,1.3063864 1.007209,2.5196896 2.306764,2.6052316 1.5223406,0.2266616 4.218258,-0.6955566 5.482945,1.57086006 -0.9422847,1.73825774 -2.6140244,1.74307674 -4.1255107,1.65607034 -1.2548743,-0.072235 -2.7620933,0.2873979 -3.3606483,1.5208605 -0.578367,1.1820862 -0.0112,2.8646022 1.316749,3.226412 1.3401912,0.4918277 3.1806689,-0.129711 3.4993722,-1.6707242 0.2456585,-1.187823 -0.5953659,-1.7459574 -0.2725074,-2.1771537 0.2436135,-0.32536 1.7907806,-0.1368452 4.5471053,-1.3748244 L 5.6763468,4.2330688 C 6.8000164,4.5467672 8.1730685,4.5362646 9.1684433,3.4313614 l -9.22008423,-3.48508362 z m -18.3078016,-1.900504 c 1.294559,0.7227998 1.1888392,2.6835702 -0.1564272,3.0632889 -1.2165179,0.423661 -2.7710269,-0.7589694 -2.3831779,-2.0774648 0.227148,-1.0818519 1.653387,-1.480632 2.5396051,-0.9858241 z m 0.056264,8.0173649 c 1.3508301,0.4988648 1.1214429,2.7844356 -0.2522207,3.091609 -0.9110594,0.3163391 -2.2135494,-0.1387976 -2.3056964,-1.2121394 -0.177609,-1.305055 1.356085,-2.4841482 2.5579171,-1.8794696 z"
         style="fill:#000000;fill-opacity:1;stroke:#000000;stroke-opacity:1"
         inkscape:connector-curvature="0" />
    </marker>
    <clipPath
       clipPathUnits="userSpaceOnUse"
       id="clipPath67">
      <path
         d="M 0,9.155e-6 H 720 V 405.00001 H 0 Z"
         id="path65"
         inkscape:connector-curvature="0"
         style="clip-rule:evenodd" />
    </clipPath>
    <clipPath
       clipPathUnits="userSpaceOnUse"
       id="clipPath81">
      <path
         d="M -3.052e-6,405 H 720 V 1.2207e-4 L -7.629e-6,9.155e-6"
         id="path79"
         inkscape:connector-curvature="0"
         style="clip-rule:evenodd" />
    </clipPath>
    <clipPath
       clipPathUnits="userSpaceOnUse"
       id="clipPath91">
      <path
         d="M -4.578e-6,405 H 720 V 9.155e-6 H -6.104e-6"
         id="path89"
         inkscape:connector-curvature="0"
         style="clip-rule:evenodd" />
    </clipPath>
    <clipPath
       clipPathUnits="userSpaceOnUse"
       id="clipPath101">
      <path
         d="M -1.526e-6,405 H 720 V 1.2207e-4 H -6.104e-6"
         id="path99"
         inkscape:connector-curvature="0"
         style="clip-rule:evenodd" />
    </clipPath>
    <clipPath
       clipPathUnits="userSpaceOnUse"
       id="clipPath115">
      <path
         d="M -3.052e-6,405 H 720 V 1.2207e-4 L -6.104e-6,9.155e-6"
         id="path113"
         inkscape:connector-curvature="0"
         style="clip-rule:evenodd" />
    </clipPath>
    <clipPath
       clipPathUnits="userSpaceOnUse"
       id="clipPath125">
      <path
         d="M -3.052e-6,405 H 720 V 1.2207e-4 L -7.629e-6,9.155e-6"
         id="path123"
         inkscape:connector-curvature="0"
         style="clip-rule:evenodd" />
    </clipPath>
    <clipPath
       clipPathUnits="userSpaceOnUse"
       id="clipPath169">
      <path
         d="M -3.052e-6,405 H 720 V 9.155e-6 L -7.629e-6,6.104e-6"
         id="path167"
         inkscape:connector-curvature="0"
         style="clip-rule:evenodd" />
    </clipPath>
    <clipPath
       clipPathUnits="userSpaceOnUse"
       id="clipPath187">
      <path
         d="M -1.526e-6,405 H 720 V 1.2207e-4 L -3.052e-6,9.155e-6"
         id="path185"
         inkscape:connector-curvature="0"
         style="clip-rule:evenodd" />
    </clipPath>
    <clipPath
       clipPathUnits="userSpaceOnUse"
       id="clipPath197">
      <path
         d="M -6.104e-6,405 H 720 V 6.104e-6 H -6.104e-6"
         id="path195"
         inkscape:connector-curvature="0"
         style="clip-rule:evenodd" />
    </clipPath>
    <marker
       inkscape:isstock="true"
       style="overflow:visible"
       id="Arrow2Lstart-3"
       refX="0"
       refY="0"
       orient="auto"
       inkscape:stockid="Arrow2Lstart">
      <path
         inkscape:connector-curvature="0"
         transform="matrix(1.1,0,0,1.1,1.1,0)"
         d="M 8.7185878,4.0337352 -2.2072895,0.01601326 8.7185884,-4.0017078 c -1.7454984,2.3720609 -1.7354408,5.6174519 -6e-7,8.035443 z"
         style="fill:#000000;fill-opacity:1;fill-rule:evenodd;stroke:#000000;stroke-width:0.625;stroke-linejoin:round;stroke-opacity:1"
         id="path10614-5" />
    </marker>
    <marker
       inkscape:isstock="true"
       style="overflow:visible"
       id="Arrow2Lend-6"
       refX="0"
       refY="0"
       orient="auto"
       inkscape:stockid="Arrow2Lend">
      <path
         inkscape:connector-curvature="0"
         transform="matrix(-1.1,0,0,-1.1,-1.1,0)"
         d="M 8.7185878,4.0337352 -2.2072895,0.01601326 8.7185884,-4.0017078 c -1.7454984,2.3720609 -1.7354408,5.6174519 -6e-7,8.035443 z"
         style="fill:#000000;fill-opacity:1;fill-rule:evenodd;stroke:#000000;stroke-width:0.625;stroke-linejoin:round;stroke-opacity:1"
         id="path10617-2" />
    </marker>
    <marker
       inkscape:isstock="true"
       style="overflow:visible"
       id="Arrow2Lstart"
       refX="0"
       refY="0"
       orient="auto"
       inkscape:stockid="Arrow2Lstart">
      <path
         inkscape:connector-curvature="0"
         transform="matrix(1.1,0,0,1.1,1.1,0)"
         d="M 8.7185878,4.0337352 -2.2072895,0.01601326 8.7185884,-4.0017078 c -1.7454984,2.3720609 -1.7354408,5.6174519 -6e-7,8.035443 z"
         style="fill:#000000;fill-opacity:1;fill-rule:evenodd;stroke:#000000;stroke-width:0.625;stroke-linejoin:round;stroke-opacity:1"
         id="path10614" />
    </marker>
    <marker
       inkscape:isstock="true"
       style="overflow:visible"
       id="Arrow2Lend"
       refX="0"
       refY="0"
       orient="auto"
       inkscape:stockid="Arrow2Lend">
      <path
         inkscape:connector-curvature="0"
         transform="matrix(-1.1,0,0,-1.1,-1.1,0)"
         d="M 8.7185878,4.0337352 -2.2072895,0.01601326 8.7185884,-4.0017078 c -1.7454984,2.3720609 -1.7354408,5.6174519 -6e-7,8.035443 z"
         style="fill:#000000;fill-opacity:1;fill-rule:evenodd;stroke:#000000;stroke-width:0.625;stroke-linejoin:round;stroke-opacity:1"
         id="path10617" />
    </marker>
    <marker
       inkscape:isstock="true"
       style="overflow:visible"
       id="Arrow2Lstart-3-9"
       refX="0"
       refY="0"
       orient="auto"
       inkscape:stockid="Arrow2Lstart">
      <path
         inkscape:connector-curvature="0"
         transform="matrix(1.1,0,0,1.1,1.1,0)"
         d="M 8.7185878,4.0337352 -2.2072895,0.01601326 8.7185884,-4.0017078 c -1.7454984,2.3720609 -1.7354408,5.6174519 -6e-7,8.035443 z"
         style="fill:#000000;fill-opacity:1;fill-rule:evenodd;stroke:#000000;stroke-width:0.625;stroke-linejoin:round;stroke-opacity:1"
         id="path10614-5-5" />
    </marker>
    <marker
       inkscape:isstock="true"
       style="overflow:visible"
       id="Arrow2Lend-6-0"
       refX="0"
       refY="0"
       orient="auto"
       inkscape:stockid="Arrow2Lend">
      <path
         inkscape:connector-curvature="0"
         transform="matrix(-1.1,0,0,-1.1,-1.1,0)"
         d="M 8.7185878,4.0337352 -2.2072895,0.01601326 8.7185884,-4.0017078 c -1.7454984,2.3720609 -1.7354408,5.6174519 -6e-7,8.035443 z"
         style="fill:#000000;fill-opacity:1;fill-rule:evenodd;stroke:#000000;stroke-width:0.625;stroke-linejoin:round;stroke-opacity:1"
         id="path10617-2-7" />
    </marker>
    <marker
       inkscape:isstock="true"
       style="overflow:visible"
       id="Arrow2Lstart-8"
       refX="0"
       refY="0"
       orient="auto"
       inkscape:stockid="Arrow2Lstart">
      <path
         inkscape:connector-curvature="0"
         transform="matrix(1.1,0,0,1.1,1.1,0)"
         d="M 8.7185878,4.0337352 -2.2072895,0.01601326 8.7185884,-4.0017078 c -1.7454984,2.3720609 -1.7354408,5.6174519 -6e-7,8.035443 z"
         style="fill:#000000;fill-opacity:1;fill-rule:evenodd;stroke:#000000;stroke-width:0.625;stroke-linejoin:round;stroke-opacity:1"
         id="path10614-9" />
    </marker>
    <marker
       inkscape:isstock="true"
       style="overflow:visible"
       id="Arrow2Lend-4"
       refX="0"
       refY="0"
       orient="auto"
       inkscape:stockid="Arrow2Lend">
      <path
         inkscape:connector-curvature="0"
         transform="matrix(-1.1,0,0,-1.1,-1.1,0)"
         d="M 8.7185878,4.0337352 -2.2072895,0.01601326 8.7185884,-4.0017078 c -1.7454984,2.3720609 -1.7354408,5.6174519 -6e-7,8.035443 z"
         style="fill:#000000;fill-opacity:1;fill-rule:evenodd;stroke:#000000;stroke-width:0.625;stroke-linejoin:round;stroke-opacity:1"
         id="path10617-9" />
    </marker>
    <clipPath
       id="clipPath206"
       clipPathUnits="userSpaceOnUse">
      <path
         style="clip-rule:evenodd"
         inkscape:connector-curvature="0"
         id="path204"
         d="M 0,1.2207e-4 H 720 V 540.00012 H 0 Z" />
    </clipPath>
    <clipPath
       id="clipPath224"
       clipPathUnits="userSpaceOnUse">
      <path
         style="clip-rule:evenodd"
         inkscape:connector-curvature="0"
         id="path222"
         d="M -4.578e-6,540 H 720 V 1.8311e-4 L -6.104e-6,1.2207e-4" />
    </clipPath>
    <clipPath
       id="clipPath234"
       clipPathUnits="userSpaceOnUse">
      <path
         style="clip-rule:evenodd"
         inkscape:connector-curvature="0"
         id="path232"
         d="M -1.526e-6,540 H 720 V 1.8311e-4 L -4.578e-6,1.2207e-4" />
    </clipPath>
    <clipPath
       id="clipPath244"
       clipPathUnits="userSpaceOnUse">
      <path
         style="clip-rule:evenodd"
         inkscape:connector-curvature="0"
         id="path242"
         d="M -3.052e-6,540 H 720 V 1.8311e-4 L -7.629e-6,1.2207e-4" />
    </clipPath>
    <clipPath
       id="clipPath254"
       clipPathUnits="userSpaceOnUse">
      <path
         style="clip-rule:evenodd"
         inkscape:connector-curvature="0"
         id="path252"
         d="M -3.052e-6,540 H 720 V 1.2207e-4 H -6.104e-6" />
    </clipPath>
    <clipPath
       id="clipPath264"
       clipPathUnits="userSpaceOnUse">
      <path
         style="clip-rule:evenodd"
         inkscape:connector-curvature="0"
         id="path262"
         d="M -1.526e-6,540 H 720 V 1.8311e-4 L -6.104e-6,1.2207e-4" />
    </clipPath>
    <clipPath
       id="clipPath274"
       clipPathUnits="userSpaceOnUse">
      <path
         style="clip-rule:evenodd"
         inkscape:connector-curvature="0"
         id="path272"
         d="M -3.052e-6,540 H 720 V 1.8311e-4 H -6.104e-6" />
    </clipPath>
    <clipPath
       id="clipPath284"
       clipPathUnits="userSpaceOnUse">
      <path
         style="clip-rule:evenodd"
         inkscape:connector-curvature="0"
         id="path282"
         d="M -6.104e-6,540 H 720 V 1.2207e-4 L -3.052e-6,6.104e-6" />
    </clipPath>
    <clipPath
       id="clipPath314"
       clipPathUnits="userSpaceOnUse">
      <path
         style="clip-rule:evenodd"
         inkscape:connector-curvature="0"
         id="path312"
         d="M -2.289e-6,540 H 720 V 1.2207e-4 L -2.289e-6,6.104e-6" />
    </clipPath>
    <clipPath
       id="clipPath324"
       clipPathUnits="userSpaceOnUse">
      <path
         style="clip-rule:evenodd"
         inkscape:connector-curvature="0"
         id="path322"
         d="M -1.526e-6,540 H 720 V 1.2207e-4 L -3.815e-6,6.104e-6" />
    </clipPath>
    <clipPath
       id="clipPath334"
       clipPathUnits="userSpaceOnUse">
      <path
         style="clip-rule:evenodd"
         inkscape:connector-curvature="0"
         id="path332"
         d="M -1.526e-6,540 H 720 V 1.2207e-4 L -1.526e-6,6.104e-6" />
    </clipPath>
    <clipPath
       id="clipPath344"
       clipPathUnits="userSpaceOnUse">
      <path
         style="clip-rule:evenodd"
         inkscape:connector-curvature="0"
         id="path342"
         d="M -2.289e-6,540 H 720 V 1.2207e-4 L -2.289e-6,6.104e-6" />
    </clipPath>
    <clipPath
       id="clipPath354"
       clipPathUnits="userSpaceOnUse">
      <path
         style="clip-rule:evenodd"
         inkscape:connector-curvature="0"
         id="path352"
         d="M -2.289e-6,540 H 720 V 1.2207e-4 L -3.815e-6,6.104e-6" />
    </clipPath>
    <clipPath
       id="clipPath364"
       clipPathUnits="userSpaceOnUse">
      <path
         style="clip-rule:evenodd"
         inkscape:connector-curvature="0"
         id="path362"
         d="M -2.289e-6,540 H 720 V 1.2207e-4 H -3.815e-6" />
    </clipPath>
    <clipPath
       id="clipPath386"
       clipPathUnits="userSpaceOnUse">
      <path
         style="clip-rule:evenodd"
         inkscape:connector-curvature="0"
         id="path384"
         d="M -1.526e-6,540 H 720 V 1.2207e-4 H -4.578e-6" />
    </clipPath>
    <clipPath
       id="clipPath396"
       clipPathUnits="userSpaceOnUse">
      <path
         style="clip-rule:evenodd"
         inkscape:connector-curvature="0"
         id="path394"
         d="M -3.052e-6,540 H 720 V 1.8311e-4 L -7.629e-6,1.2207e-4" />
    </clipPath>
    <clipPath
       id="clipPath406"
       clipPathUnits="userSpaceOnUse">
      <path
         style="clip-rule:evenodd"
         inkscape:connector-curvature="0"
         id="path404"
         d="M -3.052e-6,540 H 720 V 1.2207e-4 H -4.578e-6" />
    </clipPath>
    <clipPath
       id="clipPath233"
       clipPathUnits="userSpaceOnUse">
      <path
         style="clip-rule:evenodd"
         inkscape:connector-curvature="0"
         id="path231"
         d="M 0,1.2207e-4 H 720 V 540.00012 H 0 Z" />
    </clipPath>
    <clipPath
       id="clipPath251"
       clipPathUnits="userSpaceOnUse">
      <path
         style="clip-rule:evenodd"
         inkscape:connector-curvature="0"
         id="path249"
         d="M -1.526e-6,540 H 720 V 1.2207e-4 H -4.578e-6" />
    </clipPath>
    <clipPath
       id="clipPath261"
       clipPathUnits="userSpaceOnUse">
      <path
         style="clip-rule:evenodd"
         inkscape:connector-curvature="0"
         id="path259"
         d="M -4.578e-6,540 H 720 V 1.8311e-4 H -7.629e-6" />
    </clipPath>
    <clipPath
       id="clipPath271"
       clipPathUnits="userSpaceOnUse">
      <path
         style="clip-rule:evenodd"
         inkscape:connector-curvature="0"
         id="path269"
         d="M -4.578e-6,540 H 720 V 2.4414e-4 L -4.578e-6,1.8311e-4" />
    </clipPath>
    <clipPath
       id="clipPath281"
       clipPathUnits="userSpaceOnUse">
      <path
         style="clip-rule:evenodd"
         inkscape:connector-curvature="0"
         id="path279"
         d="M -3.052e-6,540 H 720 V 1.2207e-4 L -6.104e-6,6.104e-6" />
    </clipPath>
    <clipPath
       id="clipPath291"
       clipPathUnits="userSpaceOnUse">
      <path
         style="clip-rule:evenodd"
         inkscape:connector-curvature="0"
         id="path289"
         d="M -4.578e-6,540 H 720 V 2.4414e-4 L -6.104e-6,1.8311e-4" />
    </clipPath>
    <clipPath
       id="clipPath301"
       clipPathUnits="userSpaceOnUse">
      <path
         style="clip-rule:evenodd"
         inkscape:connector-curvature="0"
         id="path299"
         d="M -3.052e-6,540 H 720 V 1.8311e-4 L -4.578e-6,1.2207e-4" />
    </clipPath>
    <clipPath
       id="clipPath311"
       clipPathUnits="userSpaceOnUse">
      <path
         style="clip-rule:evenodd"
         inkscape:connector-curvature="0"
         id="path309"
         d="M -3.052e-6,540 H 720 V 1.8311e-4 L -3.052e-6,1.2207e-4" />
    </clipPath>
    <clipPath
       id="clipPath339"
       clipPathUnits="userSpaceOnUse">
      <path
         style="clip-rule:evenodd"
         inkscape:connector-curvature="0"
         id="path337"
         d="M -2.289e-6,540 H 720 V 1.2207e-4 H -3.815e-6" />
    </clipPath>
    <clipPath
       id="clipPath349"
       clipPathUnits="userSpaceOnUse">
      <path
         style="clip-rule:evenodd"
         inkscape:connector-curvature="0"
         id="path347"
         d="M -1.526e-6,540 H 720 V 6.104e-6 H -3.052e-6" />
    </clipPath>
    <clipPath
       id="clipPath359"
       clipPathUnits="userSpaceOnUse">
      <path
         style="clip-rule:evenodd"
         inkscape:connector-curvature="0"
         id="path357"
         d="M -1.526e-6,540 H 720 V 1.2207e-4 H -2.289e-6" />
    </clipPath>
    <clipPath
       id="clipPath369"
       clipPathUnits="userSpaceOnUse">
      <path
         style="clip-rule:evenodd"
         inkscape:connector-curvature="0"
         id="path367"
         d="M 0,540 H 720 V 1.2207e-4 H -1.526e-6" />
    </clipPath>
    <clipPath
       id="clipPath379"
       clipPathUnits="userSpaceOnUse">
      <path
         style="clip-rule:evenodd"
         inkscape:connector-curvature="0"
         id="path377"
         d="M -1.526e-6,540 H 720 V 1.2207e-4 L -3.052e-6,6.104e-6" />
    </clipPath>
    <clipPath
       id="clipPath389"
       clipPathUnits="userSpaceOnUse">
      <path
         style="clip-rule:evenodd"
         inkscape:connector-curvature="0"
         id="path387-6"
         d="M -4.578e-6,540 H 720 V 1.2207e-4 H -3.815e-6" />
    </clipPath>
    <clipPath
       id="clipPath407"
       clipPathUnits="userSpaceOnUse">
      <path
         style="clip-rule:evenodd"
         inkscape:connector-curvature="0"
         id="path405"
         d="M -4.578e-6,540 H 720 V 1.2207e-4 H -6.104e-6" />
    </clipPath>
    <clipPath
       id="clipPath417"
       clipPathUnits="userSpaceOnUse">
      <path
         style="clip-rule:evenodd"
         inkscape:connector-curvature="0"
         id="path415"
         d="M -4.578e-6,540 H 720 V 1.2207e-4 H -6.104e-6" />
    </clipPath>
    <clipPath
       id="clipPath427"
       clipPathUnits="userSpaceOnUse">
      <path
         style="clip-rule:evenodd"
         inkscape:connector-curvature="0"
         id="path425"
         d="M -4.578e-6,540 H 720 V 1.8311e-4 L -6.104e-6,1.2207e-4" />
    </clipPath>
    <clipPath
       id="clipPath290"
       clipPathUnits="userSpaceOnUse">
      <path
         style="clip-rule:evenodd"
         inkscape:connector-curvature="0"
         id="path288"
         d="M -4.578e-6,540 H 720 V 1.2207e-4 L -6.104e-6,6.104e-6" />
    </clipPath>
    <pattern
       y="0"
       x="0"
       height="6"
       width="6"
       patternUnits="userSpaceOnUse"
       id="EMFhbasepattern" />
    <clipPath
       id="clipPath1098"
       clipPathUnits="userSpaceOnUse">
      <path
         style="clip-rule:evenodd"
         inkscape:connector-curvature="0"
         id="path1096"
         d="M 0,1.2207e-4 H 720 V 540.00012 H 0 Z" />
    </clipPath>
    <clipPath
       id="clipPath1093"
       clipPathUnits="userSpaceOnUse">
      <path
         style="clip-rule:evenodd"
         inkscape:connector-curvature="0"
         id="path1091"
         d="M 0,1.2207e-4 H 720 V 540.00012 H 0 Z" />
    </clipPath>
    <marker
       inkscape:stockid="Arrow1Mstart"
       orient="auto"
       refY="0"
       refX="0"
       id="Arrow1Mstart-3"
       style="overflow:visible"
       inkscape:isstock="true">
      <path
         id="path7957-7"
         d="M 0,0 5,-5 -12.5,0 5,5 Z"
         style="fill:#000000;fill-opacity:1;fill-rule:evenodd;stroke:#000000;stroke-width:1.00000003pt;stroke-opacity:1"
         transform="matrix(0.4,0,0,0.4,4,0)"
         inkscape:connector-curvature="0" />
    </marker>
    <marker
       inkscape:isstock="true"
       style="overflow:visible"
       id="marker6970"
       refX="0"
       refY="0"
       orient="auto"
       inkscape:stockid="Arrow2Mend">
      <path
         inkscape:connector-curvature="0"
         transform="scale(-0.6)"
         d="M 8.7185878,4.0337352 -2.2072895,0.01601326 8.7185884,-4.0017078 c -1.7454984,2.3720609 -1.7354408,5.6174519 -6e-7,8.035443 z"
         style="fill:#000000;fill-opacity:1;fill-rule:evenodd;stroke:#000000;stroke-width:0.625;stroke-linejoin:round;stroke-opacity:1"
         id="path6968" />
    </marker>
    <marker
       inkscape:stockid="Arrow2Mend"
       orient="auto"
       refY="0"
       refX="0"
       id="Arrow2Mend-2"
       style="overflow:visible"
       inkscape:isstock="true">
      <path
         id="path7978-2"
         style="fill:#000000;fill-opacity:1;fill-rule:evenodd;stroke:#000000;stroke-width:0.625;stroke-linejoin:round;stroke-opacity:1"
         d="M 8.7185878,4.0337352 -2.2072895,0.01601326 8.7185884,-4.0017078 c -1.7454984,2.3720609 -1.7354408,5.6174519 -6e-7,8.035443 z"
         transform="scale(-0.6)"
         inkscape:connector-curvature="0" />
    </marker>
  </defs>
  <metadata
     id="metadata5">
    <rdf:RDF>
      <cc:Work
         rdf:about="">
        <dc:format>image/svg+xml</dc:format>
        <dc:type
           rdf:resource="http://purl.org/dc/dcmitype/StillImage" />
        <dc:title></dc:title>
      </cc:Work>
    </rdf:RDF>
  </metadata>
  <g
     id="layer1"
     inkscape:groupmode="layer"
     inkscape:label="Layer 1"
     transform="translate(1435.4488,-415.54916)">
    <path
       inkscape:connector-curvature="0"
       id="path37"
       d=""
       style="fill:#000000;fill-opacity:1;stroke-width:0.14741072" />
    <path
       style="fill:#000000;fill-opacity:1;stroke:#000000;stroke-width:0.1031875px;stroke-linecap:butt;stroke-linejoin:miter;stroke-opacity:1"
       d="M -1423.3095,438.90027 Z"
       id="path7597"
       inkscape:connector-curvature="0" />
    <path
       style="fill:#000000;fill-opacity:1;stroke:#000000;stroke-width:0.1031875px;stroke-linecap:butt;stroke-linejoin:miter;stroke-opacity:1"
       d="m -1423.3095,438.90027 v 0"
       id="path7599"
       inkscape:connector-curvature="0" />
    <g
       id="g29422-7"
       style="fill:#000000;fill-opacity:1;stroke:none;stroke-width:0.5;stroke-miterlimit:4;stroke-dasharray:none"
       transform="matrix(0.950976,0,0,0.950976,-1551.9417,-145.65038)" />
    <g
       id="g1244"
       transform="matrix(-1.9475893,0,0,1.9475893,-3323.8076,-272.9273)"
       style="fill:#000000;fill-opacity:1">
      <g
         id="g1085"
         inkscape:label="Megalosaurus Silhouette 2"
         transform="matrix(0.35277777,0,0,-0.35277777,-1214.2571,515.69919)"
         style="fill:#000000;fill-opacity:1">
        <path
           d="m 302.15,347.37 c 0.2,-0.13 3.71,7.83 5.37,3.13 1.66,-4.7 4.15,-13.51 4.21,-22.71 0.06,-9.2 -3.19,-24.66 -3.83,-32.49 -0.64,-7.83 -0.26,-10.44 0,-14.49 0.25,-4.04 2.42,-4.76 1.53,-9.79 -0.89,-5.02 -5.93,-14.68 -6.89,-20.36 -0.96,-5.67 1.27,-11.81 1.15,-13.7 -0.13,-1.89 -1.47,3.07 -1.92,2.35 -0.45,-0.72 -0.57,-5.15 -0.76,-6.65 -0.2,-1.51 0.06,-1.7 -0.39,-2.35 -0.44,-0.66 0.32,-1.31 -2.3,-1.57 -2.61,-0.26 -11.04,-0.13 -13.4,0 -2.36,0.13 -0.13,0.78 -0.77,0.78 -0.63,0 -0.19,-0.58 -3.06,-0.78 -2.87,-0.2 -11.36,-0.65 -14.17,-0.39 -2.81,0.26 -1.15,1.63 -2.68,1.96 -1.53,0.32 -4.53,0.26 -6.51,0 -1.98,-0.26 -4.92,-2.03 -5.36,-1.57 -0.45,0.46 0.7,3.2 2.68,4.31 1.98,1.11 7.34,1.76 9.19,2.35 1.85,0.58 -0.13,0.71 1.91,1.17 2.05,0.46 7.41,0.98 10.35,1.57 2.93,0.58 5.48,1.04 7.27,1.95 1.79,0.92 2.49,2.74 3.45,3.53 0.96,0.78 1.02,-1.57 2.3,1.17 1.27,2.74 5.1,12.73 5.36,15.27 0.25,2.55 2.17,3 1.91,7.83 -0.25,4.83 0,12.86 -3.44,21.14 -3.45,8.29 -13.79,18.6 -17.24,28.58 -3.44,9.99 -2.17,18.47 -3.44,31.32"
           style="fill:#000000;fill-opacity:1;fill-rule:evenodd;stroke:none"
           id="path1097"
           inkscape:connector-curvature="0" />
        <path
           d="m 334.63,406.06 c 31.33,-0.27 15.76,-31.91 18.75,-37.02 3,-5.11 -0.96,5.52 -0.79,6.36 0.17,0.84 10.2,-2.39 1.81,-1.33 -8.39,1.06 -50.03,7.68 -52.15,7.68 -2.12,0 32.65,-9.53 44.69,-12.18 12.04,-2.64 28.1,-5.36 27.53,-3.7 -0.57,1.65 -19.76,10.54 -30.97,13.63 -11.21,3.09 29.13,-8.38 34.99,-10.1 5.85,-1.72 2.46,-1.41 0.13,-0.22 -2.33,1.18 -13.64,10.47 -14.12,7.32 -0.48,-3.15 6.93,-6.29 9,-11.25 2.07,-4.96 -3.57,-9.45 -8.56,-13.24 -4.98,-3.78 -14.79,-6.4 -21.35,-9.48 -6.56,-3.08 -10.85,-6.44 -18,-9 -7.15,-2.56 -13.77,-4.24 -24.88,-6.35 -11.12,-2.12 -32.12,-5.92 -41.83,-6.36 -9.7,-0.44 -11.12,2.92 -16.41,3.71 -5.29,0.79 -8.73,0.18 -15.35,1.06 -6.62,0.88 -15.27,2.03 -24.36,4.23 -9.08,2.21 -30.17,9 -30.17,9 -8.21,2.47 -15,1.24 -19.06,5.83 -4.06,4.59 -6.18,11.64 -5.29,21.7 0.88,10.06 2.38,30.18 10.58,38.65 8.21,8.47 17.03,11.21 38.65,12.18 21.62,0.97 56.34,-2.69 91.06,-6.36"
           style="fill:#000000;fill-opacity:1;fill-rule:evenodd;stroke:none"
           id="path1099"
           inkscape:connector-curvature="0" />
        <path
           d="m 82.875,428.63 c -4.5,2.78 -9,3 -12.375,3.18 -3.375,0.19 -5.75,-1.69 -7.875,-2.06 -2.125,-0.37 -3.031,0.34 -4.875,-0.19 -1.844,-0.53 -4.188,-1.84 -6.188,-3 -2,-1.15 -3.281,-2.22 -5.812,-3.94 -2.531,-1.71 -5.688,-4.15 -9.375,-6.37 -3.688,-2.22 -9.781,-4.19 -12.75,-6.94 -2.969,-2.75 -4.25,-7.28 -5.063,-9.56 -0.812,-2.28 0,-2.94 0.188,-4.13 0.187,-1.18 -0.094,-2.43 0.937,-3 1.032,-0.56 3.532,-0.4 5.25,-0.37 1.719,0.03 2.25,-0.06 5.063,0.56 2.812,0.63 7.125,1.5 11.812,3.19 4.688,1.69 11.875,5.81 16.313,6.94 4.437,1.12 8.125,0.31 10.312,-0.19 2.188,-0.5 2.938,-1.53 2.813,-2.81 -0.125,-1.28 -1.875,-2.78 -3.563,-4.88 -1.687,-2.09 -4.125,-4.53 -6.562,-7.69 -2.438,-3.15 -4.875,-7.78 -8.063,-11.25 -3.187,-3.46 -8.656,-7.31 -11.062,-9.56 -2.406,-2.25 -3.594,-2.62 -3.375,-3.94 0.219,-1.31 3.219,-3.4 4.687,-3.93 1.469,-0.53 2.469,-0.44 4.125,0.75 1.657,1.18 3.625,4.18 5.813,6.37 2.187,2.19 2.906,3.47 7.312,6.75 4.407,3.28 13.688,8.69 19.125,12.94 5.438,4.25 10.532,7.63 13.5,12.56 2.969,4.94 6.032,11.97 4.313,17.06 -1.719,5.1 -10.125,10.72 -14.625,13.51 z"
           style="fill:#000000;fill-opacity:1;fill-rule:evenodd;stroke:none"
           id="path1101"
           inkscape:connector-curvature="0" />
        <path
           d="m 55.125,410.81 c 2.219,-4.17 4.438,-8.34 3.938,-9 -0.5,-0.65 -6.563,5.25 -6.938,5.06 -0.375,-0.18 4.969,-5.71 4.688,-6.18 -0.282,-0.47 -6.188,3.75 -6.376,3.37 -0.187,-0.37 5.844,-5.62 5.25,-5.62 -0.593,0 -8.281,5.59 -8.812,5.62 -0.531,0.03 5.812,-5.15 5.625,-5.44 -0.187,-0.28 -6.563,4.19 -6.75,3.75 -0.187,-0.43 5.938,-6.03 5.625,-6.37 -0.312,-0.34 -7.219,4.63 -7.5,4.31 -0.281,-0.31 5.594,-5.59 5.812,-6.19 0.219,-0.59 -3.062,1.51 -4.5,2.63 -1.437,1.12 -4.156,4.34 -4.124,4.12 0.031,-0.21 4.218,-4.81 4.312,-5.43 0.094,-0.63 -3.625,2.47 -3.75,1.68 -0.125,-0.78 3.125,-5.74 3,-6.37 -0.125,-0.63 -2.75,1.19 -3.75,2.62 -1,1.44 -1.844,5.69 -2.25,6 -0.406,0.32 -0.5,-2.78 -0.188,-4.12 0.313,-1.34 2.407,-3.91 2.063,-3.94 -0.344,-0.03 -3.625,3.66 -4.125,3.75 -0.5,0.1 1.594,-3.31 1.125,-3.19 -0.469,0.13 -3.656,4.22 -3.937,3.94 -0.282,-0.28 2.437,-5.5 2.25,-5.62 -0.188,-0.13 -2.719,4.31 -3.376,4.87 -0.656,0.57 -0.781,-0.31 -0.562,-1.5 0.219,-1.18 2.406,-5.75 1.875,-5.62 -0.531,0.12 -4.156,5.94 -5.063,6.37 -0.906,0.44 0.126,-3.84 -0.374,-3.75 -0.5,0.1 -2.469,4.5 -2.626,4.31 -0.156,-0.18 1.938,-5.4 1.688,-5.43 -0.25,-0.03 -2.906,5.31 -3.188,5.25 -0.281,-0.07 1.75,-5.66 1.5,-5.63 -0.25,0.03 -2.562,5.63 -3,5.81 -0.437,0.19 0.5,-4.65 0.376,-4.68 -0.125,-0.03 -2.844,2.68 -1.126,4.5 1.719,1.81 4.813,3.87 11.438,6.37 6.625,2.5 17.469,5.57 28.312,8.63"
           style="fill:#000000;fill-opacity:1;fill-rule:evenodd;stroke:none"
           id="path1103"
           inkscape:connector-curvature="0" />
        <path
           d="m 69.75,384.94 c 3.406,3.4 -4.937,-2.31 -6.75,-1.88 -1.813,0.44 -3.906,5 -4.125,4.5 -0.219,-0.5 3.094,-7.25 2.812,-7.5 -0.281,-0.25 -4.25,6.19 -4.5,6 -0.25,-0.18 3.157,-6.62 3,-7.12 -0.156,-0.5 -3.531,4.44 -3.937,4.12 -0.406,-0.31 1.844,-5.75 1.5,-6 -0.344,-0.25 -3.281,4.57 -3.563,4.5 -0.281,-0.06 2.188,-4.5 1.876,-4.87 -0.313,-0.38 -3.657,3.44 -3.75,2.62 -0.094,-0.81 3.343,-7.12 3.187,-7.5 -0.156,-0.37 -3.656,5.1 -4.125,5.25 -0.469,0.16 1.375,-3.59 1.312,-4.31 -0.062,-0.72 -1,-0.56 -1.687,0 -0.687,0.56 -2.313,3.78 -2.437,3.37 -0.125,-0.4 2.062,-5.37 1.687,-5.81 -0.375,-0.43 -3.656,3.6 -3.937,3.19 -0.282,-0.41 2.218,-4.63 2.25,-5.63 0.031,-1 -1.188,-1.21 -2.063,-0.37 -0.875,0.84 -2.844,5.41 -3.187,5.44 -0.344,0.03 1.343,-4.6 1.124,-5.25 -0.218,-0.66 -2.531,2.09 -2.437,1.31 0.094,-0.78 3.281,-5.91 3,-6 -0.281,-0.09 -4.344,5.53 -4.687,5.44 -0.344,-0.1 2.718,-5.6 2.624,-6 -0.093,-0.41 -2.843,3.56 -3.187,3.56 -0.344,0 0.656,-3 1.125,-3.56 0.469,-0.57 -3,-3.16 1.688,0.18 4.687,3.35 23.781,18.91 27.187,22.32 z"
           style="fill:#000000;fill-opacity:1;fill-rule:evenodd;stroke:none"
           id="path1105"
           inkscape:connector-curvature="0" />
        <path
           d="m 65.437,427.69 c 3.063,-0.38 3.469,1.97 7.688,3.94 4.219,1.96 11.438,7.06 17.625,7.87 6.187,0.81 13.25,0.5 19.5,-3 6.25,-3.5 10.5,-13.75 18,-18 7.5,-4.25 18.38,-6.5 27,-7.5 8.62,-1 13.25,1.25 24.75,1.5 11.5,0.25 38.25,6.25 44.25,0 6,-6.25 1.25,-27 -8.25,-37.5 -9.5,-10.5 -37.5,-24.13 -48.75,-25.5 -11.25,-1.37 -11.88,12.38 -18.75,17.25 -6.87,4.87 -15.25,7.12 -22.5,12 -7.25,4.87 -13.38,15.38 -21,17.25 -7.625,1.87 -20.25,-7 -24.75,-6 -4.5,1 -2,6.87 -2.25,12 -0.25,5.12 1.75,14.5 0.75,18.75 -1,4.25 -3.875,5.5 -6.75,6.75"
           style="fill:#000000;fill-opacity:1;fill-rule:evenodd;stroke:none"
           id="path1107"
           inkscape:connector-curvature="0" />
        <path
           d="m 86.313,392.1 c 3.163,1.28 6.325,2.56 9.976,2.6 3.651,0.03 7.771,-0.51 11.931,-2.39 4.15,-1.88 8.35,-6.76 13.01,-8.89 4.66,-2.13 14.89,-6.36 14.96,-3.9 0.08,2.46 -9.07,14.46 -14.53,18.65 -5.46,4.19 -11.83,5.35 -18.21,6.5"
           style="fill:#000000;fill-opacity:1;fill-rule:evenodd;stroke:none"
           id="path1109"
           inkscape:connector-curvature="0" />
        <path
           d="m 94.554,439.81 c 4.699,0 9.396,0 14.526,-2.39 5.14,-2.38 10.12,-7.91 16.27,-11.93 6.14,-4.01 10.99,-9.57 20.6,-12.14 9.62,-2.57 28.23,-2.1 37.09,-3.25 8.85,-1.16 26.45,-2.17 16.04,-3.69 -10.41,-1.52 -63.21,-8.35 -78.5,-5.42 -15.29,2.93 -14.26,12.96 -13.23,22.99"
           style="fill:#000000;fill-opacity:1;fill-rule:evenodd;stroke:none"
           id="path1111"
           inkscape:connector-curvature="0" />
        <path
           d="m 130.99,417.69 c 6.02,-1.56 12.03,-3.11 18.21,-3.91 6.19,-0.79 12.33,-1.37 18.87,-0.86 6.54,0.5 10.99,3.25 20.39,3.9 9.4,0.65 25.41,0.72 36,0 10.59,-0.72 30.11,-3.29 27.54,-4.34 -2.57,-1.05 -27.51,-0.43 -42.94,-1.95 -15.43,-1.52 -36.72,-7.23 -49.66,-7.16 -12.94,0.08 -20.46,3.83 -27.98,7.59"
           style="fill:#000000;fill-opacity:1;fill-rule:evenodd;stroke:none"
           id="path1113"
           inkscape:connector-curvature="0" />
        <path
           d="m 165.21,343.9 c 5.76,-4.08 11.52,-8.16 14.4,-12.57 2.88,-4.41 2.34,-10.73 2.88,-13.88 0.53,-3.14 0.34,-3.4 0.34,-4.97 0,-1.57 -0.24,-3.19 -0.34,-4.45 -0.11,-1.26 -0.3,-2.02 -0.3,-3.11 0,-1.09 0.68,-1.42 0.3,-3.44 -0.39,-2.01 -0.83,-6.19 -2.62,-8.64 -1.79,-2.44 -8.29,-5.67 -8.12,-6.02 0.18,-0.35 6.68,2.1 9.17,3.93 2.48,1.83 4.8,5.41 5.76,7.07 0.96,1.66 -0.18,4.01 0,2.88 0.17,-1.14 1.31,-6.5 1.04,-9.69 -0.26,-3.18 -2.27,-7.42 -2.61,-9.42 -0.35,-2.01 -0.27,-3.63 0.52,-2.62 0.78,1 3.18,5.5 4.19,8.64 1,3.14 1.46,8.05 1.83,10.21 0.37,2.16 0.01,2.9 0.41,2.73 0.4,-0.16 1.57,-2.73 2,-3.74 0.44,-1 0.37,-2.38 0.62,-3.78 0.25,-1.4 0.49,-4.74 0.9,-4.64 0.41,0.1 1.53,2.93 1.57,5.24 0.04,2.31 -0.74,5.45 -1.31,8.64 -0.57,3.18 -1.88,7.81 -2.09,10.47 -0.22,2.66 0.48,3.58 0.78,5.5 0.31,1.92 0.83,4.32 1.05,6.02 0.22,1.7 -0.09,2.23 0.26,4.19 0.35,1.96 2.23,4.89 1.83,7.59 -0.39,2.71 -2.29,5.68 -4.19,8.64"
           style="fill:#000000;fill-opacity:1;fill-rule:evenodd;stroke:none"
           id="path1115"
           inkscape:connector-curvature="0" />
        <path
           d="m 182.63,304.88 c -0.44,0.34 -1.38,-3.41 -1.13,-4.5 0.25,-1.1 2.13,-2.69 2.63,-2.07 0.5,0.63 -1.07,6.22 -1.5,6.57 z"
           style="fill:#000000;fill-opacity:1;fill-rule:evenodd;stroke:none"
           id="path1117"
           inkscape:connector-curvature="0" />
        <path
           d="m 188.63,290.06 c -0.6,-0.47 -1.6,3.06 -1.69,4.31 -0.1,1.25 0.53,2.72 1.12,3.19 0.6,0.47 2.28,0.63 2.44,-0.37 0.16,-1 -1.28,-6.66 -1.87,-7.13 z"
           style="fill:#000000;fill-opacity:1;fill-rule:evenodd;stroke:none"
           id="path1119"
           inkscape:connector-curvature="0" />
        <path
           d="m 184.46,298.54 c 0,0.84 3.75,5.22 4.5,5.25 0.75,0.03 0.4,-4.38 0,-5.06 -0.41,-0.69 -4.5,-1.04 -4.5,-0.19 z"
           style="fill:#000000;fill-opacity:1;fill-rule:evenodd;stroke:none"
           id="path1121"
           inkscape:connector-curvature="0" />
        <path
           d="m 375,404.25 84.75,-6 c 26,-1.87 48,-1.75 71.25,-5.25 23.25,-3.5 45.75,-7 68.25,-15.75 22.5,-8.75 53.13,-27.88 66.75,-36.75 13.63,-8.88 16.12,-15.88 15,-16.5 -1.12,-0.62 -9.5,6.75 -21.75,12.75 -12.25,6 -35.5,17.62 -51.75,23.25 -16.25,5.62 -28.38,8.63 -45.75,10.5 -17.37,1.87 -38.13,2.5 -58.5,0.75 C 482.88,369.5 463.5,363.5 439.5,360 c -24,-3.5 -58.87,-9 -80.25,-9.75 -21.37,-0.75 -29,-0.75 -48,5.25 -19,6 -66.12,21.88 -66,30.75 0.12,8.87 54.75,23 66.75,22.5"
           style="fill:#000000;fill-opacity:1;fill-rule:evenodd;stroke:none"
           id="path1123"
           inkscape:connector-curvature="0" />
      </g>
    </g>
  </g>
</svg>
