<?xml version="1.0" standalone="no"?>
<!DOCTYPE svg PUBLIC "-//W3C//DTD SVG 20010904//EN"
 "http://www.w3.org/TR/2001/REC-SVG-20010904/DTD/svg10.dtd">
<svg version="1.0" xmlns="http://www.w3.org/2000/svg"
 width="1657.000000pt" height="569.000000pt" viewBox="0 0 1657.000000 569.000000"
 preserveAspectRatio="xMidYMid meet">
<metadata>
Created by potrace 1.16, written by Peter Selinger 2001-2019
</metadata>
<g transform="translate(0.000000,569.000000) scale(0.100000,-0.100000)"
fill="#000000" stroke="none">
<path d="M1738 5680 c-179 -29 -307 -92 -477 -237 -67 -57 -102 -66 -170 -42
-42 15 -92 1 -158 -44 -26 -19 -86 -48 -133 -66 -235 -90 -313 -134 -491 -278
-190 -153 -234 -197 -268 -265 -26 -50 -31 -73 -31 -130 0 -76 18 -122 71
-183 45 -51 84 -58 286 -51 180 6 257 22 362 76 68 34 357 149 401 159 28 6
50 6 62 0 20 -11 133 -236 143 -286 7 -36 -2 -46 -302 -354 -68 -69 -123 -130
-123 -135 0 -6 -79 -61 -175 -123 -96 -63 -175 -119 -175 -126 0 -19 52 -62
100 -84 97 -44 146 -26 313 112 253 211 391 305 653 444 207 110 291 169 420
295 60 59 127 114 147 123 50 21 143 19 192 -4 22 -10 103 -71 180 -136 191
-159 363 -262 550 -330 66 -24 109 -56 128 -97 8 -18 27 -88 40 -156 35 -169
93 -289 185 -381 107 -106 208 -151 513 -231 204 -53 231 -64 270 -107 35 -37
45 -59 53 -113 4 -25 14 -88 23 -140 24 -147 20 -304 -12 -425 -31 -118 -42
-282 -26 -370 9 -49 18 -66 47 -93 19 -19 38 -32 40 -29 3 2 0 24 -5 48 -31
133 13 268 95 293 20 6 22 -1 43 -116 47 -257 59 -298 105 -345 31 -32 45 -41
56 -34 12 9 11 13 -7 33 -44 47 -52 99 -31 201 11 50 10 65 -5 106 -20 58 -21
81 -4 104 10 15 19 3 67 -88 30 -58 61 -105 69 -105 21 0 8 72 -54 321 -65
259 -85 375 -84 494 0 119 10 169 32 173 9 2 126 -17 259 -42 134 -25 342 -61
462 -80 167 -26 223 -39 237 -53 10 -10 26 -50 35 -88 42 -180 72 -241 276
-552 65 -100 130 -206 143 -236 39 -84 65 -203 67 -299 1 -83 -1 -90 -32 -140
-18 -29 -50 -88 -72 -130 -50 -98 -139 -200 -364 -414 -401 -383 -435 -409
-639 -476 -49 -16 -109 -40 -132 -54 -49 -28 -89 -90 -99 -150 -9 -57 9 -65
52 -23 l34 33 96 -13 96 -13 29 28 c25 24 36 27 84 25 51 -2 75 7 310 111
l255 112 36 93 c20 52 47 107 60 123 14 16 144 142 289 280 355 337 352 329
304 658 -32 219 -25 337 34 562 25 96 60 243 77 325 18 83 37 156 42 163 16
19 359 17 397 -2 20 -11 37 -36 61 -93 94 -221 114 -265 154 -334 25 -41 67
-101 95 -133 130 -152 239 -209 651 -336 162 -50 325 -104 361 -119 146 -61
248 -155 320 -295 23 -45 67 -119 97 -166 75 -117 117 -203 142 -292 11 -42
34 -114 51 -159 63 -170 67 -309 15 -424 -21 -46 -31 -55 -97 -90 -109 -59
-125 -63 -225 -64 -76 -1 -98 -5 -142 -27 -56 -28 -102 -83 -102 -121 0 -28 1
-28 51 -3 44 23 56 20 69 -16 9 -22 15 -24 87 -26 196 -6 296 9 380 58 62 36
251 193 305 253 48 53 100 136 113 180 6 19 -2 33 -48 80 -31 31 -65 77 -76
102 -27 66 -151 447 -201 619 -68 235 -129 326 -280 414 -103 60 -169 115
-231 194 -76 95 -113 163 -204 371 -83 192 -132 280 -200 361 -25 30 -48 65
-51 77 -12 45 20 77 249 249 372 280 508 365 612 383 33 6 281 54 550 107 270
53 594 115 720 139 127 24 417 84 645 135 951 210 1323 278 1610 296 91 5 292
-4 700 -31 303 -21 1131 -188 1511 -306 423 -130 915 -360 1245 -580 223 -149
360 -272 519 -468 91 -112 123 -133 117 -76 -8 72 -131 236 -312 415 -262 260
-550 468 -926 668 -351 187 -1098 513 -1421 621 -317 106 -927 255 -1203 295
-445 64 -754 85 -1405 96 -662 11 -902 22 -1375 66 -237 21 -373 39 -645 85
-301 51 -407 75 -1165 264 -728 182 -694 175 -1028 220 -145 19 -359 54 -475
76 -430 82 -424 81 -847 86 l-385 4 -265 -45 c-146 -25 -348 -57 -450 -71
-102 -14 -250 -37 -330 -50 -80 -14 -220 -34 -311 -45 -92 -11 -235 -34 -319
-50 -113 -23 -180 -31 -259 -31 -175 0 -233 22 -676 247 -316 160 -442 211
-608 245 -114 23 -332 33 -419 19z"/>
</g>
</svg>
