<?xml version="1.0" standalone="no"?>
<!DOCTYPE svg PUBLIC "-//W3C//DTD SVG 20010904//EN"
 "http://www.w3.org/TR/2001/REC-SVG-20010904/DTD/svg10.dtd">
<svg version="1.0" xmlns="http://www.w3.org/2000/svg"
 width="1840.000000pt" height="996.000000pt" viewBox="0 0 1840.000000 996.000000"
 preserveAspectRatio="xMidYMid meet">
<metadata>
Created by potrace 1.16, written by Peter Selinger 2001-2019
</metadata>
<g transform="translate(0.000000,996.000000) scale(0.100000,-0.100000)"
fill="#000000" stroke="none">
<path d="M5976 7315 c-20 -14 -50 -32 -66 -40 -28 -14 -30 -14 -30 3 0 43 -42
54 -84 21 -21 -16 -26 -17 -26 -5 0 11 -8 13 -34 9 -18 -3 -42 0 -53 5 -23 13
-81 -4 -113 -33 -21 -19 -21 -19 -27 3 -6 26 -6 26 -50 10 -29 -10 -35 -10
-46 6 -12 16 -17 17 -38 6 -13 -7 -34 -22 -46 -34 -69 -67 -119 -86 -111 -41
5 24 4 24 -41 18 -31 -4 -56 -15 -76 -33 -53 -49 -105 -67 -85 -31 12 23 -5
40 -22 23 -12 -12 -69 -4 -79 10 -6 10 -80 -25 -98 -46 -13 -16 -36 -12 -26 4
11 18 -16 20 -52 4 -27 -13 -38 -15 -41 -6 -6 20 -29 14 -46 -13 -9 -14 -21
-25 -27 -25 -6 0 -22 -14 -37 -31 l-26 -31 -9 23 c-8 22 -9 23 -21 7 -9 -12
-16 -14 -23 -7 -8 8 -13 7 -17 0 -4 -6 -16 -11 -26 -11 -13 0 -22 -9 -26 -27
-11 -43 -53 -70 -55 -35 0 14 -2 13 -9 -4 -10 -26 -41 -39 -51 -23 -10 16 -59
-28 -59 -53 0 -10 -9 -22 -19 -28 -26 -13 -31 -13 -31 5 0 8 -4 15 -10 15 -5
0 -10 -6 -10 -14 0 -8 -14 -22 -32 -30 -38 -20 -38 -20 -38 1 0 14 -3 14 -20
-4 -10 -12 -28 -24 -39 -28 -11 -3 -31 -26 -46 -50 -26 -45 -52 -61 -41 -27 5
15 1 19 -25 19 -24 0 -36 -7 -47 -28 -9 -14 -25 -32 -35 -39 -18 -11 -19 -10
-13 14 8 33 -1 33 -26 1 -19 -25 -58 -35 -58 -15 0 25 -21 6 -50 -45 -37 -66
-46 -72 -69 -51 -25 23 -37 20 -61 -14 -18 -26 -24 -28 -41 -17 -16 10 -22 9
-30 -3 -8 -12 -12 -12 -16 -2 -3 9 -16 11 -39 6 -30 -5 -34 -4 -34 15 0 29
-13 26 -49 -9 l-30 -30 -3 27 c-3 25 -7 28 -45 31 -23 2 -47 10 -53 18 -7 7
-20 14 -29 14 -9 0 -25 7 -35 15 -11 8 -28 13 -37 10 -9 -3 -33 3 -53 15 -20
11 -47 20 -61 20 -13 0 -32 11 -43 25 -11 14 -25 25 -30 25 -6 0 -18 7 -27 16
-13 14 -21 15 -41 5 -23 -10 -25 -9 -20 7 5 16 -2 21 -47 31 -30 6 -61 9 -70
5 -20 -7 -22 6 -4 25 10 11 5 13 -28 8 -34 -5 -38 -4 -23 7 23 17 13 26 -32
26 -22 0 -43 7 -51 16 -7 8 -21 13 -31 11 -10 -3 -21 1 -26 8 -11 19 -71 47
-84 39 -6 -4 -28 -8 -49 -9 -29 -2 -39 2 -39 13 0 10 -9 13 -34 10 -27 -3 -36
0 -40 14 -3 15 -10 17 -33 12 -15 -4 -32 -11 -38 -15 -14 -14 -25 -11 -25 7 0
10 -6 14 -15 10 -8 -3 -15 -1 -15 5 0 7 -10 9 -25 5 -23 -6 -25 -4 -19 19 3
14 4 25 1 25 -12 0 -54 -27 -75 -48 -25 -25 -43 -23 -23 2 21 26 2 40 -23 17
-25 -23 -75 -19 -56 4 9 11 7 12 -10 8 -11 -3 -33 -21 -47 -39 -31 -41 -45
-43 -43 -6 3 42 2 42 -32 10 -25 -24 -34 -27 -36 -15 -4 19 -50 31 -67 17 -8
-6 -20 -10 -27 -8 -7 2 -30 -15 -50 -37 -36 -39 -50 -35 -27 7 19 35 2 31 -35
-9 -26 -28 -36 -33 -36 -20 0 24 -15 21 -33 -5 -42 -64 -87 -88 -87 -47 0 12
-4 17 -11 13 -6 -3 -9 -19 -5 -34 5 -30 -18 -64 -26 -38 -3 8 -9 5 -17 -10 -6
-12 -16 -22 -21 -22 -5 0 -37 -13 -72 -29 -35 -15 -87 -39 -115 -51 -29 -13
-53 -27 -53 -30 0 -4 -27 -22 -60 -39 -33 -18 -79 -47 -103 -65 -23 -17 -70
-51 -105 -75 -34 -23 -104 -77 -153 -119 -50 -42 -110 -93 -134 -112 -38 -30
-105 -110 -105 -125 0 -3 -20 -34 -45 -69 -55 -79 -84 -152 -92 -233 -7 -70 4
-93 43 -93 13 0 24 -4 24 -10 0 -11 32 -29 68 -38 35 -9 235 -9 337 0 44 4
166 10 270 13 105 3 219 10 255 15 36 5 126 10 201 10 155 0 186 8 292 72 62
37 72 40 120 35 57 -6 114 5 192 34 94 35 120 40 213 40 142 0 252 -35 339
-106 6 -5 28 -21 48 -35 20 -14 62 -45 93 -70 80 -64 177 -122 247 -149 33
-13 98 -42 145 -64 78 -39 88 -47 126 -107 58 -90 108 -145 151 -165 20 -10
66 -42 102 -73 62 -52 192 -142 207 -142 8 0 114 -109 114 -119 0 -3 10 -11
22 -16 12 -6 26 -23 31 -40 5 -16 15 -37 22 -45 7 -8 32 -51 55 -95 23 -44 48
-87 55 -95 25 -29 102 -225 115 -290 7 -36 12 -85 11 -110 -11 -342 -5 -399
50 -456 37 -38 53 -35 44 8 -5 21 -4 28 4 24 6 -4 11 -12 11 -18 0 -6 14 -42
32 -80 31 -68 34 -71 150 -157 25 -19 33 -8 14 21 -8 12 -22 48 -30 78 -8 30
-19 68 -25 83 -14 35 -14 47 -1 47 6 0 10 -5 10 -11 0 -6 14 -31 32 -55 21
-29 39 -44 54 -44 12 0 24 -6 27 -12 2 -7 23 -24 46 -36 l42 -24 -7 29 c-4 15
-16 45 -26 67 -15 30 -47 119 -48 133 0 1 14 0 31 -4 27 -5 31 -4 26 13 -3 10
-8 42 -12 69 -4 33 -16 62 -36 87 -16 20 -29 44 -29 53 0 9 -8 32 -19 53 -10
20 -28 87 -40 147 -12 61 -28 135 -36 165 -8 30 -13 56 -11 57 2 2 16 -11 32
-29 16 -18 57 -54 91 -80 34 -25 81 -68 104 -95 22 -26 46 -52 52 -58 7 -5 19
-23 27 -40 8 -16 29 -52 46 -80 37 -57 64 -124 71 -175 11 -82 119 -270 155
-270 13 0 4 96 -12 114 -5 7 -7 16 -3 19 9 9 33 -12 33 -30 0 -7 9 -17 19 -21
11 -4 57 -52 103 -107 88 -106 143 -145 205 -145 39 0 42 12 8 34 -13 9 -31
29 -39 44 -8 15 -35 49 -60 77 -25 27 -46 53 -46 57 0 17 24 6 61 -27 21 -19
51 -37 66 -41 16 -3 37 -10 48 -15 58 -26 155 -33 155 -10 0 9 -43 40 -84 61
-15 8 -38 27 -50 43 -11 16 -38 45 -58 65 -47 44 -48 55 -3 36 44 -18 83 -9
97 22 6 13 9 26 7 27 -2 2 -34 29 -70 59 -37 31 -76 59 -88 63 -30 9 -26 25 7
25 16 0 37 9 46 19 17 19 16 20 -17 43 -19 13 -71 49 -116 81 -44 31 -84 57
-89 57 -14 0 -58 52 -81 95 -32 58 -59 103 -103 167 -21 31 -45 75 -53 97 -8
22 -25 57 -39 78 -15 21 -26 42 -26 48 0 6 -15 37 -34 68 -47 78 -65 74 289
63 72 -3 144 -10 160 -16 17 -6 59 -13 95 -15 36 -2 114 -7 173 -11 l108 -7
47 -42 c110 -98 402 -279 502 -310 14 -4 54 -28 90 -54 77 -55 108 -74 176
-106 28 -13 78 -48 110 -78 33 -30 70 -58 82 -62 13 -4 52 -35 85 -69 34 -34
80 -74 102 -89 22 -14 60 -49 85 -77 25 -28 64 -70 88 -92 23 -23 42 -48 42
-55 0 -8 12 -25 26 -38 23 -21 24 -27 15 -60 -5 -21 -17 -45 -25 -54 -8 -9
-31 -34 -50 -57 -20 -22 -70 -67 -113 -100 -117 -89 -234 -180 -273 -212 -19
-16 -84 -60 -145 -97 -202 -124 -188 -111 -248 -245 -65 -146 -66 -153 -42
-359 9 -73 13 -136 10 -140 -3 -5 -5 -51 -6 -102 -1 -87 -4 -99 -40 -174 -39
-82 -74 -167 -90 -220 -10 -32 -13 -184 -4 -193 5 -5 102 81 208 186 67 65 71
70 99 127 19 40 23 60 18 97 -7 59 3 54 20 -9 30 -116 53 -164 94 -199 22 -19
45 -33 50 -31 17 6 19 47 6 117 -12 61 -11 67 10 103 37 62 49 210 37 442 -4
85 -2 113 9 129 8 11 14 28 14 37 0 9 7 22 15 29 8 7 15 20 15 30 0 9 9 25 20
35 19 17 20 17 37 -15 36 -66 59 -95 92 -117 18 -13 37 -21 40 -18 4 2 9 41
10 87 5 122 7 141 13 158 4 8 9 30 12 48 8 48 55 110 121 162 32 25 65 52 74
61 9 9 48 38 86 64 39 27 87 64 107 82 21 18 59 43 85 57 51 25 103 69 103 85
0 5 16 30 35 56 20 25 35 51 34 58 -1 7 1 25 6 41 5 20 2 54 -11 105 -16 65
-25 82 -66 123 -26 27 -48 52 -48 57 0 5 -43 51 -96 102 -52 52 -105 111 -117
131 -11 21 -24 38 -28 38 -10 0 -51 71 -45 78 3 2 17 -4 32 -14 14 -11 47 -30
73 -44 25 -14 50 -35 56 -47 5 -13 22 -27 38 -33 16 -5 41 -20 57 -32 75 -60
118 -86 150 -93 19 -4 40 -11 45 -15 6 -4 42 -16 80 -25 39 -9 104 -28 145
-41 41 -13 98 -25 126 -28 27 -2 84 -16 125 -30 42 -14 82 -26 89 -26 32 0
410 -182 511 -245 21 -14 63 -35 92 -46 28 -11 59 -27 68 -35 8 -8 19 -14 23
-14 14 0 159 -100 199 -136 28 -26 36 -41 32 -57 -10 -43 -26 -122 -31 -156
-3 -19 -9 -41 -13 -50 -5 -9 -11 -36 -15 -61 -4 -25 -20 -69 -36 -99 -17 -30
-30 -63 -30 -73 0 -11 -15 -52 -34 -91 -19 -40 -41 -111 -51 -161 -9 -49 -23
-103 -30 -120 -21 -49 -28 -70 -26 -80 1 -5 -8 -37 -20 -73 -26 -79 -26 -81
38 -302 20 -68 55 -120 130 -193 100 -97 134 -133 146 -154 7 -11 30 -47 52
-78 57 -82 75 -117 75 -147 0 -14 9 -36 19 -48 10 -12 24 -36 31 -54 6 -17 18
-45 25 -62 7 -16 16 -50 20 -74 3 -25 14 -61 25 -80 11 -20 26 -53 34 -74 20
-50 108 -150 118 -134 4 7 8 35 8 63 0 28 8 66 17 85 25 49 30 184 8 252 -9
29 -15 57 -14 62 4 15 -11 67 -27 97 -8 14 -14 28 -14 31 0 13 48 0 82 -21 37
-23 134 -39 165 -28 22 9 -10 56 -74 111 -41 36 -53 53 -53 74 0 38 -26 98
-61 140 -16 20 -29 42 -29 49 0 24 -72 122 -116 160 -24 20 -44 41 -44 47 0 6
-20 33 -45 58 -25 26 -45 49 -45 52 0 2 14 2 30 -2 l31 -6 -2 84 c-1 46 -8 98
-15 114 -14 33 -35 128 -35 160 1 118 4 171 16 258 7 56 20 116 29 132 9 17
34 68 56 115 22 47 58 114 80 149 22 36 40 73 40 82 0 10 4 20 9 23 13 9 47
84 60 136 15 56 7 143 -16 192 -32 64 -169 166 -310 229 -36 16 -76 38 -90 49
-14 11 -47 26 -74 34 -26 8 -71 31 -101 50 -29 20 -57 36 -62 36 -5 0 -29 15
-55 33 -59 42 -129 82 -160 92 -14 4 -29 11 -35 16 -6 5 -41 33 -77 62 -37 29
-85 75 -109 102 -23 28 -64 71 -91 97 -27 26 -49 50 -49 52 0 2 -29 32 -65 67
-50 48 -74 81 -105 147 -41 85 -82 142 -172 237 -48 50 -57 65 -38 65 5 0 38
13 72 29 35 16 77 33 93 37 17 4 55 19 85 34 30 15 71 30 90 33 97 15 146 45
257 156 60 59 117 123 128 142 18 30 120 109 179 138 50 24 289 107 351 122
22 5 81 16 130 25 50 8 115 22 145 29 237 60 1044 96 1950 87 74 -1 160 0 190
2 30 2 100 0 155 -5 55 -4 136 -10 180 -13 157 -11 409 -46 515 -71 36 -8 83
-19 105 -24 22 -5 87 -21 145 -34 58 -14 130 -28 160 -32 30 -4 64 -12 75 -18
19 -10 61 -22 185 -52 75 -18 130 -37 227 -78 45 -19 84 -33 87 -30 2 3 11 1
18 -3 14 -9 120 -48 238 -87 82 -27 163 -49 281 -76 42 -10 110 -33 150 -53
82 -39 111 -50 182 -68 26 -7 50 -17 53 -21 3 -5 14 -9 25 -9 11 0 41 -11 68
-24 26 -14 76 -32 112 -41 78 -20 83 -23 69 -40 -8 -10 1 -16 41 -29 29 -10
75 -28 103 -42 28 -13 57 -22 65 -19 23 9 329 -124 451 -196 36 -21 95 -49
133 -63 66 -25 257 -140 257 -156 0 -4 71 -42 158 -85 275 -136 410 -226 628
-418 81 -72 129 -123 147 -156 35 -63 52 -78 72 -61 12 10 23 5 65 -30 27 -23
87 -82 133 -131 47 -49 91 -89 100 -89 17 0 174 -162 225 -232 26 -37 37 -46
47 -38 10 8 33 -11 95 -77 45 -48 95 -109 112 -136 18 -26 39 -47 49 -47 16 0
205 -196 240 -250 20 -30 39 -19 20 11 -7 12 -11 23 -8 25 10 10 246 -358 276
-431 17 -44 43 -102 56 -130 13 -27 31 -76 40 -108 14 -47 19 -56 30 -47 11 9
16 3 25 -29 14 -52 36 -68 27 -20 -3 19 -9 44 -13 57 -4 13 -2 22 4 22 6 0 12
-10 14 -22 2 -12 9 -23 16 -26 9 -3 12 16 12 72 0 67 -8 99 -70 283 -38 114
-76 213 -83 218 -17 13 -50 70 -67 115 -7 19 -37 70 -67 112 -29 43 -53 85
-53 93 0 38 -70 125 -101 125 -21 0 -107 107 -220 275 -70 104 -113 156 -197
235 -59 56 -123 110 -142 120 -37 19 -190 171 -230 229 -20 29 -25 32 -35 18
-10 -14 -20 -8 -71 46 -88 91 -184 204 -184 216 0 5 -22 22 -49 37 -30 16 -77
57 -116 103 -79 90 -160 161 -185 161 -10 0 -23 7 -31 16 -7 8 -29 24 -48 35
-20 11 -63 42 -96 69 -33 27 -81 61 -107 75 -25 13 -67 42 -93 65 -25 22 -51
40 -56 40 -5 0 -28 17 -52 39 -23 21 -58 46 -77 56 -19 10 -89 53 -156 96 -67
43 -134 83 -150 90 -63 25 -80 34 -109 54 -16 12 -47 27 -67 34 -38 13 -47 24
-28 36 15 9 4 22 -26 29 -15 4 -46 20 -70 37 -23 16 -52 29 -63 29 -12 0 -38
16 -58 35 -20 19 -42 35 -48 35 -7 0 -38 13 -71 28 -152 73 -192 91 -234 102
-25 7 -56 20 -70 30 -14 9 -36 21 -50 25 -14 4 -34 15 -45 25 -11 9 -33 20
-50 24 -48 11 -306 116 -344 141 -49 30 -164 86 -236 115 -33 13 -86 39 -118
57 -33 18 -62 33 -67 33 -4 0 -21 7 -36 15 -16 8 -41 15 -55 15 -15 0 -33 9
-40 20 -9 13 -37 24 -84 33 -41 9 -69 19 -67 26 1 7 -14 11 -38 11 -27 0 -43
5 -46 15 -4 8 -14 15 -23 15 -9 0 -21 4 -27 9 -5 6 -29 11 -54 13 -37 2 -47 8
-57 29 -12 24 -19 27 -94 32 -45 4 -84 9 -87 12 -3 3 3 12 14 20 21 16 22 16
-56 20 -30 2 -63 4 -72 5 -10 1 -18 9 -18 19 0 28 -39 48 -110 56 -82 9 -101
18 -72 34 11 6 28 8 36 5 9 -3 16 -1 16 4 0 11 -27 17 -119 26 -43 4 -61 12
-85 35 -25 24 -45 32 -101 40 -38 5 -81 13 -95 16 -14 3 -41 9 -62 12 -24 4
-38 12 -41 24 -4 16 -15 19 -60 19 -31 0 -59 5 -62 10 -4 6 -11 8 -16 5 -5 -4
-19 1 -31 9 -17 12 -37 14 -92 9 -47 -4 -67 -3 -63 4 4 6 19 14 34 17 44 10
83 28 83 37 0 10 -22 11 -230 12 l-166 1 4 28 c3 19 9 27 22 25 11 -1 19 3 19
8 0 6 -17 9 -38 7 -22 -2 -42 2 -46 7 -3 6 -27 11 -52 11 -35 0 -50 5 -65 23
-17 19 -29 22 -84 21 -51 0 -65 3 -69 16 -9 28 -52 42 -93 30 -42 -11 -240
-28 -248 -21 -2 3 14 12 37 20 24 9 41 21 38 26 -2 6 -48 10 -108 10 -58 0
-97 1 -88 3 9 2 17 10 17 18 0 19 -99 19 -164 -1 -56 -17 -96 -19 -96 -6 0 5
14 12 30 16 44 10 37 22 -17 30 -32 4 -62 1 -90 -9 -38 -13 -43 -13 -43 0 0 8
12 20 28 27 24 11 17 12 -67 15 -69 2 -103 -1 -127 -13 -40 -19 -44 -19 -44 0
0 8 -8 15 -17 15 -15 1 -14 4 6 20 l23 20 -28 0 c-16 -1 -47 -7 -69 -15 -22
-8 -41 -15 -41 -15 -1 0 -4 9 -7 20 -5 18 -13 20 -79 18 -40 -1 -78 -6 -85
-11 -7 -5 -38 -10 -70 -11 -32 -2 -79 -6 -105 -11 -26 -4 -55 -4 -65 -1 -17 7
-17 8 1 21 18 13 17 14 -5 20 -14 3 -61 -7 -114 -24 l-90 -29 -18 20 c-13 15
-31 21 -70 23 -29 1 -63 9 -75 16 -18 11 -26 11 -42 1 -24 -15 -50 -16 -50 -2
0 6 -9 10 -19 10 -11 0 -23 5 -26 10 -4 7 -12 7 -25 0 -23 -13 -63 -13 -75 -1
-6 6 -25 4 -49 -4 -66 -23 -74 4 -10 31 38 16 48 40 12 28 -13 -4 -52 -19 -88
-35 -45 -19 -70 -25 -82 -18 -9 5 -28 9 -41 9 -16 0 -36 13 -54 34 -28 31 -31
32 -56 20 -34 -18 -144 -26 -170 -12 -11 5 -53 11 -93 11 -62 0 -75 3 -79 18
-8 25 -43 34 -63 16 -22 -19 -88 -31 -97 -17 -3 5 3 10 14 10 24 0 37 18 23
32 -8 8 -15 8 -24 1 -7 -6 -35 -14 -62 -18 -43 -7 -48 -6 -43 9 5 14 -2 16
-47 16 -38 0 -56 4 -59 14 -5 12 -13 13 -39 5 -18 -5 -54 -6 -79 -3 -27 4 -55
2 -67 -5 -48 -26 -142 -31 -102 -6 5 3 15 16 21 27 10 19 9 20 -10 15 -12 -3
-35 1 -51 9 -20 10 -35 12 -47 6 -10 -5 -49 -9 -88 -8 -58 1 -70 4 -73 19 -5
24 -47 22 -85 -5 -44 -32 -71 -45 -106 -53 -27 -6 -31 -4 -31 14 0 13 9 25 24
31 13 5 27 14 32 21 5 8 3 10 -6 4 -7 -4 -29 -9 -49 -11 -21 -2 -62 -15 -92
-28 -74 -35 -108 -34 -49 1 29 17 39 28 30 31 -8 3 -23 14 -32 25 -10 11 -18
16 -18 11 0 -5 -5 -1 -11 9 -9 15 -20 16 -81 12 -39 -3 -79 -10 -89 -15 -21
-12 -139 -26 -139 -17 0 4 10 16 22 27 l23 21 -43 -7 c-23 -4 -42 -3 -42 2 0
5 -44 10 -97 11 -84 2 -101 -1 -118 -17 -22 -21 -105 -54 -113 -45 -3 3 -3 6
-1 8 2 1 18 11 34 23 17 11 38 23 49 27 15 6 16 10 6 22 -11 14 -15 14 -32 -2
-16 -14 -23 -15 -39 -5 -11 7 -25 9 -31 6 -7 -4 -21 -8 -32 -9 -12 -1 -28 -5
-38 -9 -12 -5 -16 -3 -15 10 3 27 -29 28 -64 3 -27 -19 -34 -20 -55 -9 -19 11
-29 11 -51 1 -24 -11 -29 -10 -44 8 -23 28 -38 26 -87 -9 -51 -36 -56 -37 -48
-6 8 34 -9 41 -42 18 -42 -29 -61 -34 -55 -13 2 9 -4 25 -15 34 -18 16 -21 16
-56 -8z"/>
<path d="M8460 7140 c-8 -5 -10 -10 -5 -10 6 0 17 5 25 10 8 5 11 10 5 10 -5
0 -17 -5 -25 -10z"/>
<path d="M9045 7020 c-3 -5 -1 -10 4 -10 6 0 11 5 11 10 0 6 -2 10 -4 10 -3 0
-8 -4 -11 -10z"/>
</g>
</svg>
