<?xml version="1.0" standalone="no"?>
<!DOCTYPE svg PUBLIC "-//W3C//DTD SVG 20010904//EN"
 "http://www.w3.org/TR/2001/REC-SVG-20010904/DTD/svg10.dtd">
<svg version="1.0" xmlns="http://www.w3.org/2000/svg"
 width="2888.000000pt" height="824.000000pt" viewBox="0 0 2888.000000 824.000000"
 preserveAspectRatio="xMidYMid meet">
<metadata>
Created by potrace 1.16, written by Peter Selinger 2001-2019
</metadata>
<g transform="translate(0.000000,824.000000) scale(0.100000,-0.100000)"
fill="#000000" stroke="none">
<path d="M10844 8135 c-221 -60 -339 -122 -321 -168 3 -9 -13 -12 -53 -12
l-58 0 -7 75 c-4 41 -14 88 -22 104 -15 28 -16 29 -76 22 -94 -10 -251 -54
-374 -106 -75 -32 -121 -46 -138 -42 -15 2 -36 0 -48 -6 -37 -17 -152 -62
-158 -62 -3 0 -9 24 -12 54 -6 56 -34 123 -61 146 -23 18 -108 7 -227 -29
-132 -40 -189 -66 -294 -130 -82 -51 -114 -84 -137 -143 -2 -3 -28 -9 -59 -13
l-57 -7 -11 51 c-14 65 -55 147 -81 161 -16 8 -60 -2 -217 -51 -219 -68 -258
-85 -386 -171 -64 -43 -93 -69 -103 -93 -12 -30 -20 -35 -71 -45 -32 -6 -67
-14 -79 -16 -17 -5 -22 2 -32 47 -19 81 -69 177 -101 193 -25 14 -38 11 -172
-33 -161 -53 -294 -118 -408 -199 -95 -68 -134 -105 -172 -163 l-29 -46 -152
-31 c-84 -18 -168 -33 -187 -34 -34 -3 -34 -3 -61 72 -32 89 -63 152 -98 199
-24 32 -27 33 -72 28 -83 -10 -491 -213 -673 -335 -94 -62 -130 -107 -122
-149 3 -18 5 -33 3 -33 -2 0 -76 -13 -166 -30 -114 -21 -169 -27 -181 -20 -10
5 -21 26 -25 47 -4 21 -32 88 -64 148 l-57 110 -50 -1 c-41 -1 -89 -18 -255
-93 -198 -89 -411 -203 -457 -244 -13 -11 -26 -36 -29 -56 -4 -20 -12 -39 -18
-43 -6 -4 -50 -8 -98 -8 -78 0 -88 2 -102 22 -8 12 -13 25 -10 29 2 4 -1 52
-7 106 -13 121 -43 210 -73 219 -51 17 -189 -8 -505 -93 l-214 -57 -30 -48
c-17 -26 -33 -48 -38 -48 -4 0 -42 7 -85 15 -103 20 -124 39 -124 114 0 57
-27 179 -49 219 -6 12 -24 25 -39 29 -40 10 -323 -33 -447 -67 -186 -53 -232
-83 -244 -160 l-6 -35 -170 -6 c-183 -7 -438 -42 -608 -84 -55 -14 -118 -25
-141 -25 -55 0 -105 -27 -136 -73 -14 -21 -49 -51 -78 -68 -50 -28 -112 -98
-112 -125 0 -8 -16 -31 -35 -52 -19 -21 -43 -59 -54 -84 -11 -26 -46 -71 -84
-108 -37 -36 -67 -74 -70 -89 -10 -54 -36 -106 -58 -120 -43 -26 -90 -75 -110
-112 -10 -21 -64 -84 -120 -140 -96 -98 -141 -155 -249 -318 -25 -38 -53 -80
-63 -94 -17 -23 -20 -57 -25 -289 -8 -289 -3 -351 34 -448 21 -55 36 -74 85
-115 93 -78 152 -94 194 -55 l22 20 79 -36 c57 -27 97 -38 145 -42 66 -5 67
-4 110 36 89 81 541 332 995 553 122 59 289 143 370 187 92 49 189 92 254 113
98 31 115 33 240 33 181 0 241 -16 580 -157 424 -176 636 -244 950 -301 142
-26 187 -31 550 -71 218 -24 302 -41 365 -72 97 -50 161 -142 240 -343 53
-136 159 -347 217 -433 71 -105 226 -263 337 -346 58 -43 175 -118 260 -167
85 -49 174 -107 197 -129 54 -52 76 -120 115 -370 16 -104 41 -236 54 -293 14
-57 25 -111 24 -120 0 -9 -50 -60 -110 -112 -120 -105 -344 -349 -428 -469
-162 -229 -256 -328 -486 -515 -93 -76 -178 -148 -188 -160 -37 -45 -137 -236
-147 -282 -25 -113 -61 -211 -91 -246 -47 -58 -139 -124 -196 -141 -28 -8 -91
-40 -142 -70 -102 -62 -167 -81 -260 -79 -41 1 -71 -3 -80 -11 -9 -8 -52 -21
-96 -31 -105 -24 -228 -82 -289 -137 l-48 -44 19 -24 c19 -23 19 -23 89 -8
120 27 207 31 243 13 17 -9 31 -20 31 -25 0 -5 -17 -20 -38 -35 -75 -51 -101
-115 -54 -130 10 -3 53 5 97 19 44 14 101 25 128 25 40 0 49 -4 58 -23 22 -48
61 -60 172 -53 100 7 100 7 129 -21 28 -27 35 -28 139 -31 82 -3 127 1 174 13
53 15 69 16 94 5 34 -13 103 -6 136 16 11 7 34 12 51 12 38 -1 126 45 171 90
38 37 44 83 17 134 -19 36 -12 69 18 98 32 30 133 76 207 94 81 21 401 189
611 321 210 133 274 176 495 335 105 75 302 205 438 290 290 180 410 277 465
378 18 34 37 62 40 62 8 0 84 -188 126 -310 36 -102 92 -359 112 -505 15 -108
22 -134 79 -263 35 -78 79 -160 98 -182 43 -51 63 -146 52 -257 -7 -73 -9 -77
-54 -123 -55 -55 -111 -73 -233 -74 -63 -1 -80 -5 -100 -22 -13 -12 -54 -28
-93 -37 -135 -30 -315 -134 -315 -182 0 -41 23 -50 97 -36 36 7 110 15 163 18
l98 6 7 -32 c12 -55 28 -59 260 -62 116 -2 216 1 224 5 7 5 54 3 105 -4 106
-15 167 -8 216 22 26 16 47 21 81 19 56 -3 90 13 144 68 32 34 46 41 78 41 54
0 93 40 103 106 4 26 15 66 25 89 40 87 7 225 -71 300 -56 53 -56 56 -6 168
47 107 64 191 67 332 1 39 6 234 11 435 7 285 6 417 -5 600 -11 177 -13 308
-6 530 7 260 6 313 -11 445 -10 83 -28 175 -39 204 -11 30 -18 57 -16 61 3 4
42 1 87 -6 190 -30 639 -64 983 -75 551 -18 1219 13 1774 82 134 16 250 28
257 25 8 -3 14 -12 14 -19 0 -8 16 -63 36 -122 45 -137 161 -370 261 -523 187
-288 272 -504 259 -662 -3 -41 -17 -111 -31 -154 -22 -66 -26 -104 -31 -240
-4 -109 -10 -175 -21 -206 -37 -105 -192 -285 -293 -342 -25 -14 -78 -37 -118
-52 -95 -34 -105 -39 -180 -99 -112 -88 -218 -145 -351 -187 -68 -22 -129 -44
-135 -49 -6 -5 -47 -11 -91 -14 -44 -3 -108 -15 -142 -27 -76 -26 -214 -108
-266 -158 -51 -49 -127 -179 -127 -218 0 -68 50 -71 186 -10 106 47 174 64
267 67 50 2 61 -1 85 -24 49 -47 171 -76 248 -59 l41 9 -5 -64 c-5 -70 11
-103 53 -103 11 0 68 28 125 62 58 34 145 80 195 103 l91 42 49 -28 c81 -47
123 -42 386 45 224 74 328 116 350 142 17 20 15 75 -5 115 -9 20 -18 56 -19
79 l-2 43 370 242 c204 133 385 256 403 275 50 50 97 128 127 211 24 65 27 89
28 199 0 179 -13 208 -159 362 -102 109 -115 126 -141 196 -43 118 -40 226 15
447 90 365 107 543 73 745 -11 69 -32 169 -46 223 -29 114 -25 128 36 146 34
10 44 10 54 -1 7 -7 79 -142 160 -300 217 -420 299 -522 612 -757 171 -128
258 -177 608 -341 143 -67 284 -139 314 -160 139 -99 235 -267 251 -438 6 -60
15 -94 34 -125 25 -43 180 -234 300 -372 36 -42 75 -94 87 -116 29 -57 49
-160 49 -255 0 -69 -5 -92 -36 -169 -57 -141 -82 -185 -143 -245 -38 -38 -72
-62 -106 -74 -27 -10 -65 -24 -83 -32 -18 -8 -47 -14 -66 -14 -43 0 -122 -23
-230 -68 -120 -50 -251 -164 -298 -259 -26 -54 -29 -67 -20 -88 18 -39 48 -39
197 3 77 22 182 47 233 57 l93 18 31 -37 c44 -54 58 -58 193 -57 220 3 245 6
318 40 57 26 81 31 141 31 68 0 76 3 145 45 143 88 328 253 373 332 17 30 38
53 51 57 33 8 202 241 238 328 15 37 2 65 -67 149 -70 83 -119 196 -139 314
-36 220 -55 369 -70 550 -17 205 -33 299 -67 385 -59 150 -122 219 -246 270
-257 106 -276 117 -364 209 -46 47 -95 104 -110 126 -15 22 -59 130 -97 240
-147 424 -172 476 -303 651 -84 113 -156 181 -286 269 -56 37 -103 73 -106 80
-2 7 6 117 19 245 19 194 25 236 40 246 41 30 129 39 395 38 292 -1 259 3 815
-99 340 -63 364 -68 1195 -245 253 -54 635 -132 1345 -275 236 -47 439 -82
990 -170 388 -62 665 -97 950 -120 105 -8 206 -17 225 -20 19 -3 163 -14 320
-25 157 -11 353 -25 435 -31 83 -5 249 -19 370 -29 228 -20 451 -33 860 -50
329 -15 2107 -13 2410 1 426 21 719 -14 1955 -237 460 -82 735 -115 960 -116
181 0 250 40 250 145 0 42 -27 102 -59 131 -12 11 -21 31 -21 49 0 21 -10 39
-37 64 -31 29 -41 34 -67 28 -17 -3 -61 -8 -97 -10 -64 -5 -67 -4 -105 30 -54
49 -75 52 -136 22 -33 -17 -57 -23 -67 -18 -9 5 -25 5 -36 1 -23 -8 -45 -3
-45 12 0 5 -14 27 -32 49 -37 46 -59 49 -121 17 -23 -11 -60 -22 -81 -23 -34
-2 -44 3 -76 36 -43 45 -72 49 -139 19 -38 -18 -48 -19 -80 -8 -20 7 -56 30
-81 51 -44 38 -46 39 -105 33 -33 -4 -77 -9 -98 -12 -43 -7 -127 15 -127 33 0
12 -95 93 -109 93 -16 0 -126 -41 -135 -50 -18 -18 -45 -10 -60 19 -22 42 -81
89 -122 97 -61 11 -195 -4 -225 -26 -43 -31 -86 -18 -132 41 -57 73 -88 79
-210 39 -53 -17 -102 -28 -109 -24 -6 4 -30 7 -52 6 -42 -2 -58 7 -151 82
l-35 29 -93 -36 c-85 -32 -97 -34 -167 -28 -59 5 -82 12 -110 32 -51 39 -95
59 -127 59 -33 -1 -159 -42 -175 -58 -14 -14 -113 -4 -158 16 -19 8 -57 25
-84 37 l-50 22 -83 -23 c-45 -12 -87 -25 -92 -28 -5 -4 -35 -3 -66 0 -48 6
-63 13 -105 51 -68 61 -95 64 -215 19 -84 -32 -105 -36 -165 -32 -60 3 -73 8
-123 45 -39 29 -66 41 -89 41 -44 0 -142 -26 -172 -45 -18 -12 -37 -14 -90 -8
-67 8 -68 9 -80 44 -21 62 -51 104 -75 107 -22 4 -268 -81 -285 -99 -12 -11
-96 -12 -112 -1 -6 4 -17 31 -24 60 -6 29 -20 62 -30 75 l-18 22 -169 -34
c-92 -19 -185 -41 -206 -49 -30 -11 -52 -13 -94 -6 -55 9 -55 9 -78 63 -12 29
-30 58 -38 63 -18 9 -357 -25 -413 -43 -17 -5 -52 -6 -78 -3 -40 6 -52 13 -67
38 -10 17 -22 45 -25 63 -9 46 -38 68 -88 66 -105 -4 -325 -25 -361 -35 -22
-6 -70 -12 -107 -14 l-67 -3 -12 36 c-13 41 -67 104 -112 132 -31 19 -38 19
-237 4 -149 -11 -210 -19 -222 -30 -15 -13 -23 -13 -71 1 -30 9 -60 23 -67 31
-7 8 -21 15 -31 15 -14 0 -23 17 -41 76 -15 54 -32 87 -55 112 l-33 35 -153
-7 c-83 -4 -203 -11 -266 -17 -111 -10 -114 -10 -166 15 -28 14 -62 26 -73 26
-18 0 -22 6 -22 35 0 19 -4 44 -9 57 -5 13 -14 41 -20 63 -6 22 -24 54 -39 72
l-27 31 -183 16 c-249 22 -319 21 -359 -4 -25 -15 -38 -17 -63 -10 -43 12
-120 58 -120 72 0 6 -9 29 -20 52 -11 23 -32 75 -48 116 -24 63 -34 79 -75
108 -27 20 -64 36 -88 39 -37 5 -183 -6 -369 -27 -64 -8 -65 -7 -89 22 -20 25
-29 29 -64 26 -36 -2 -41 0 -47 22 -4 14 -21 47 -39 74 -26 41 -31 60 -31 108
0 32 -6 74 -14 93 -25 58 -147 134 -286 175 -41 12 -100 32 -130 43 -97 38
-203 27 -362 -37 l-57 -23 -93 45 c-81 39 -95 50 -112 84 -10 22 -39 62 -65
89 -36 38 -52 66 -70 124 -28 93 -49 114 -172 182 -84 46 -108 54 -219 73 -69
12 -145 26 -170 31 -87 17 -305 40 -350 37 l-45 -3 -6 61 c-4 48 -16 80 -50
140 -50 89 -88 120 -157 129 -26 3 -94 13 -151 22 l-104 16 -111 115 c-105
108 -158 147 -188 138 -7 -3 -52 -7 -100 -11 -72 -5 -88 -4 -88 8 0 8 -9 26
-21 41 -17 21 -29 26 -67 26 -45 0 -48 2 -71 44 -21 40 -136 149 -210 198 -36
25 -99 22 -210 -7 l-94 -25 -15 22 c-29 42 -70 78 -89 78 -10 0 -51 -9 -91
-19 l-73 -19 -42 24 c-50 28 -64 29 -131 8 -51 -16 -52 -16 -90 10 -45 30 -35
30 -156 11 -61 -9 -98 -11 -104 -5 -6 6 -16 10 -24 10 -8 0 -46 20 -86 44
-111 70 -111 70 -238 41 -114 -26 -197 -32 -214 -16 -19 19 -243 131 -260 131
-11 0 -68 -23 -128 -50 -107 -49 -110 -50 -207 -50 -108 0 -126 5 -213 63 -77
52 -104 51 -234 -7 -129 -58 -158 -59 -275 -7 -48 22 -101 43 -118 46 -40 9
-156 -19 -246 -60 -56 -26 -81 -32 -111 -28 l-39 5 4 47 c3 31 -4 67 -19 111
-19 55 -27 65 -48 67 -14 1 -98 -18 -186 -42z"/>
</g>
</svg>
