<?xml version="1.0" standalone="no"?>
<!DOCTYPE svg PUBLIC "-//W3C//DTD SVG 20010904//EN"
 "http://www.w3.org/TR/2001/REC-SVG-20010904/DTD/svg10.dtd">
<svg version="1.0" xmlns="http://www.w3.org/2000/svg"
 width="1536.000000pt" height="1127.000000pt" viewBox="0 0 1536.000000 1127.000000"
 preserveAspectRatio="xMidYMid meet">
<metadata>
Created by potrace 1.16, written by Peter Selinger 2001-2019
</metadata>
<g transform="translate(0.000000,1127.000000) scale(0.100000,-0.100000)"
fill="#000000" stroke="none">
<path d="M3911 11259 c-172 -9 -301 -24 -481 -55 -80 -14 -242 -41 -360 -60
-118 -19 -313 -54 -433 -79 -121 -25 -271 -50 -335 -55 -190 -18 -273 -29
-335 -47 -51 -14 -64 -23 -100 -69 -29 -36 -63 -64 -107 -88 -69 -37 -103 -68
-138 -127 -12 -19 -30 -43 -41 -53 -11 -10 -23 -31 -26 -47 -4 -19 -14 -31
-28 -34 -31 -7 -671 -29 -863 -29 l-162 -1 -50 -35 c-80 -56 -217 -211 -236
-267 -12 -35 -33 -64 -80 -108 -58 -55 -66 -67 -89 -140 -31 -99 -52 -282 -44
-383 12 -154 64 -256 194 -384 125 -123 222 -238 269 -318 20 -36 46 -76 56
-90 24 -31 104 -171 178 -310 70 -133 89 -145 266 -171 155 -22 177 -34 309
-170 119 -124 156 -179 185 -279 12 -41 44 -143 71 -225 131 -407 155 -595
120 -930 -15 -144 -18 -211 -11 -240 17 -73 12 -109 -25 -170 -19 -32 -48 -92
-66 -133 -29 -71 -31 -82 -24 -147 4 -38 8 -133 10 -210 1 -77 8 -153 14 -169
11 -28 11 -29 -20 -22 -18 3 -46 17 -63 30 -49 36 -118 69 -147 68 -32 -1
-137 -52 -161 -79 -22 -24 -61 -112 -82 -188 -10 -33 -38 -92 -62 -132 -49
-79 -89 -213 -100 -332 -5 -55 -1 -80 21 -151 25 -79 56 -199 91 -360 25 -118
40 -146 107 -196 36 -28 146 -87 269 -145 239 -112 284 -138 356 -211 50 -51
112 -134 112 -151 0 -5 25 -50 55 -101 30 -50 69 -132 85 -181 43 -127 69
-168 203 -315 125 -136 202 -204 327 -287 116 -77 520 -300 660 -363 195 -89
266 -127 395 -210 245 -158 443 -262 615 -325 65 -24 96 -29 240 -35 195 -9
177 -4 860 -229 579 -190 752 -240 1010 -290 215 -42 345 -52 1102 -81 484
-19 687 -45 1073 -142 333 -83 643 -173 955 -278 501 -167 739 -267 1190 -498
684 -350 806 -396 1125 -423 191 -16 665 -7 803 16 280 44 470 137 574 279 33
46 38 117 12 169 -9 18 -71 88 -138 157 -68 69 -159 170 -203 225 -44 56 -125
148 -180 205 -304 321 -500 568 -690 870 -81 129 -94 160 -128 294 -34 130
-192 331 -376 476 -49 39 -89 74 -89 79 0 5 8 23 18 40 16 28 16 33 1 58 -13
24 -22 28 -56 27 -36 0 -41 2 -49 30 -11 37 -39 44 -82 22 -27 -14 -31 -14
-44 2 -8 9 -21 32 -28 50 -14 35 -17 36 -75 17 -17 -5 -24 0 -35 27 -12 26
-23 35 -57 43 -30 7 -50 20 -68 45 -35 47 -51 55 -79 36 -26 -16 -36 -12 -36
15 0 23 -31 32 -63 18 -21 -9 -29 -8 -55 11 -38 28 -64 21 -97 -27 l-24 -36
-11 27 c-5 15 -10 31 -10 36 0 17 -50 23 -81 10 -35 -15 -31 -18 -57 43 -23
52 -49 61 -84 30 -17 -15 -18 -15 -18 8 0 14 -5 30 -12 37 -17 17 -83 15 -98
-3 -18 -22 -30 -18 -30 9 0 40 -25 52 -68 32 -23 -12 -38 -14 -40 -7 -2 6 -12
21 -22 33 -16 20 -22 21 -39 11 -28 -17 -28 -17 -40 17 -12 36 -47 40 -103 11
l-37 -18 -10 28 c-13 38 -65 65 -98 50 -34 -15 -38 -14 -51 14 -7 14 -23 30
-36 36 -21 10 -34 7 -85 -20 -33 -17 -62 -31 -65 -31 -2 0 -11 18 -20 40 -19
47 -37 57 -73 41 -22 -10 -29 -8 -60 20 -35 30 -52 33 -93 15 -10 -4 -19 1
-25 16 -6 12 -23 31 -38 42 -27 20 -29 20 -58 4 -28 -17 -29 -16 -29 3 0 25
-61 89 -85 89 -9 0 -29 -14 -45 -32 l-29 -31 -40 36 c-44 39 -102 57 -126 37
-11 -9 -23 -2 -63 39 -54 55 -90 65 -124 34 -16 -14 -22 -14 -43 -3 -14 8 -31
25 -38 39 -12 24 -17 26 -69 23 -57 -3 -57 -3 -66 29 -13 51 -34 58 -88 30
-34 -19 -52 -36 -68 -70 -20 -43 -24 -46 -56 -43 -19 2 -44 11 -56 21 l-21 17
33 38 c41 48 42 66 6 107 -24 27 -30 29 -55 20 -49 -19 -65 -14 -86 28 -28 54
-68 66 -117 35 -13 -9 -26 -15 -27 -13 -74 111 -79 114 -137 94 -52 -18 -60
-19 -60 -1 0 7 -9 25 -21 40 -27 34 -65 34 -101 -1 -25 -24 -28 -25 -28 -7 0
10 -9 34 -20 52 -28 46 -68 44 -144 -8 -52 -35 -66 -40 -116 -40 -70 0 -148
36 -235 110 -86 73 -159 160 -307 367 -184 258 -220 297 -393 428 -49 37 -217
174 -373 304 -155 130 -297 244 -315 253 -74 40 -250 50 -363 22 -36 -9 -67
-14 -71 -11 -11 11 6 52 27 65 58 36 276 92 452 117 435 62 619 57 1468 -40
486 -56 453 -46 520 -146 23 -33 53 -65 67 -72 23 -10 28 -8 50 17 30 36 41
27 72 -58 23 -63 56 -116 72 -116 5 0 29 18 53 40 49 45 56 48 56 21 0 -28 48
-81 73 -81 12 0 37 9 54 20 l33 19 11 -22 c17 -33 60 -77 92 -93 35 -19 60 -6
85 42 l18 35 28 -60 c20 -42 36 -61 53 -66 61 -15 125 67 106 136 -9 34 -8 38
11 43 12 3 34 6 50 6 26 0 28 -2 21 -27 -11 -40 -9 -55 16 -112 25 -58 38 -62
101 -30 l40 21 38 -37 c41 -40 55 -39 94 4 11 12 24 21 30 21 6 0 30 -23 54
-50 48 -55 73 -62 108 -29 l22 21 46 -25 c54 -29 73 -26 112 14 38 39 59 37
89 -11 14 -22 29 -40 34 -40 12 0 37 25 58 57 12 18 19 21 29 12 8 -6 14 -22
14 -36 0 -60 37 -79 83 -43 32 26 34 26 64 -10 29 -35 42 -37 76 -10 35 28 44
25 67 -20 13 -26 27 -40 40 -40 19 0 79 34 114 66 18 16 20 15 43 -15 30 -38
58 -39 96 -3 l29 27 30 -37 c35 -45 59 -47 104 -13 39 30 51 31 59 6 9 -28 32
-33 53 -10 19 20 19 19 46 -16 15 -19 31 -35 37 -35 5 0 21 12 36 26 l25 25
22 -20 c28 -26 42 -26 84 -1 43 26 56 25 70 -5 13 -29 24 -31 56 -9 16 10 26
12 31 5 3 -6 17 -11 31 -11 13 0 33 -5 43 -11 23 -15 65 -5 90 23 l20 21 18
-31 c19 -33 49 -42 71 -20 10 10 19 8 42 -5 30 -18 40 -17 73 12 10 8 35 16
55 16 20 1 45 5 55 9 12 6 17 4 17 -7 0 -20 56 -67 79 -67 10 0 26 9 36 20 19
21 19 21 29 -12 15 -44 51 -49 95 -13 l31 27 0 -26 c0 -39 21 -76 47 -82 32
-8 88 3 103 21 16 19 30 19 30 1 0 -17 54 -40 76 -32 11 4 22 -1 31 -14 14
-20 67 -28 77 -11 3 4 24 11 47 15 36 6 43 11 56 46 9 22 19 37 23 35 4 -2 21
-33 39 -69 25 -52 57 -89 164 -192 72 -70 200 -184 282 -253 83 -69 236 -211
341 -316 104 -104 264 -255 354 -335 91 -80 198 -176 240 -214 41 -37 158
-138 260 -225 192 -163 403 -354 526 -479 80 -80 120 -102 192 -102 184 0 331
121 564 466 134 197 195 357 273 714 132 607 157 833 137 1233 -14 274 -24
353 -82 627 -58 276 -85 372 -131 464 -48 97 -263 399 -323 454 -23 21 -93 69
-154 105 -61 36 -146 92 -189 125 -95 71 -152 105 -218 126 -76 24 -115 52
-121 86 -10 46 -66 103 -197 198 -184 133 -230 163 -439 284 -216 125 -304
182 -496 325 -261 195 -382 252 -612 288 -30 5 -44 18 -100 96 -83 116 -147
176 -296 273 -65 43 -202 136 -304 206 -102 70 -268 174 -370 230 -102 56
-234 132 -295 168 -60 35 -139 76 -175 89 -88 34 -191 41 -259 18 -50 -16 -53
-16 -72 0 -10 10 -30 37 -44 60 -58 100 -198 200 -416 297 -204 91 -766 292
-945 338 -120 31 -303 52 -472 54 l-104 1 -13 32 c-24 57 -101 84 -515 179
-431 98 -483 117 -787 271 -359 182 -443 216 -823 334 -367 115 -715 197 -945
224 -258 30 -1186 45 -1544 24z m-1698 -1046 l92 -47 132 2 131 3 37 -32 c43
-38 152 -219 230 -380 70 -148 105 -268 112 -389 10 -173 -23 -235 -191 -354
-54 -38 -134 -109 -182 -160 -47 -50 -116 -111 -152 -136 -48 -32 -82 -67
-120 -120 -29 -41 -69 -98 -90 -127 -20 -29 -47 -58 -60 -64 -20 -12 -27 -9
-67 31 -90 89 -130 198 -181 500 -47 283 -58 313 -184 500 -71 106 -86 135
-94 185 -4 22 -12 60 -18 85 -10 41 -8 50 15 95 32 64 53 83 156 139 46 25
100 58 120 73 52 39 143 143 172 197 13 25 30 46 37 46 7 0 54 -21 105 -47z
m3594 -1048 c43 -14 125 -30 183 -36 142 -14 165 -21 315 -95 76 -37 176 -77
240 -95 61 -17 126 -39 145 -49 131 -68 290 -369 290 -549 0 -75 -20 -198 -56
-354 -28 -118 -46 -146 -122 -199 -25 -17 -88 -69 -140 -115 -53 -46 -121 -96
-151 -111 -53 -26 -63 -27 -191 -26 -171 1 -286 26 -535 119 -99 37 -246 84
-327 105 -221 59 -276 93 -366 230 -57 87 -184 340 -267 530 -98 225 -97 264
2 465 55 110 47 105 194 105 122 0 134 2 255 40 156 50 199 57 341 59 95 1
125 -3 190 -24z m8681 -2764 c64 -33 170 -159 206 -245 32 -77 15 -179 -44
-259 -34 -46 -227 -194 -297 -228 -68 -33 -116 -23 -200 39 -37 28 -95 81
-127 118 -67 75 -74 99 -75 239 -1 60 5 99 25 157 32 99 55 123 130 138 32 7
97 23 144 35 107 30 188 31 238 6z m-6373 -811 c3 -5 -1 -20 -9 -32 -16 -22
-16 -22 -16 10 0 31 12 42 25 22z m162 -42 c-3 -8 -6 -5 -6 6 -1 11 2 17 5 13
3 -3 4 -12 1 -19z"/>
</g>
</svg>
