<?xml version="1.0" standalone="no"?>
<!DOCTYPE svg PUBLIC "-//W3C//DTD SVG 20010904//EN"
 "http://www.w3.org/TR/2001/REC-SVG-20010904/DTD/svg10.dtd">
<svg version="1.0" xmlns="http://www.w3.org/2000/svg"
 width="1536.000000pt" height="912.000000pt" viewBox="0 0 1536.000000 912.000000"
 preserveAspectRatio="xMidYMid meet">
<metadata>
Created by potrace 1.16, written by Peter Selinger 2001-2019
</metadata>
<g transform="translate(0.000000,912.000000) scale(0.100000,-0.100000)"
fill="#000000" stroke="none">
<path d="M1440 9101 c-36 -9 -119 -38 -185 -63 -163 -62 -376 -131 -537 -172
-374 -98 -652 -227 -704 -328 -21 -40 -14 -93 20 -151 l27 -45 27 25 c15 14
44 37 64 50 21 14 40 33 43 42 9 29 114 90 199 116 79 25 290 78 352 89 28 4
32 2 37 -22 3 -15 8 -34 12 -43 5 -14 -7 -17 -80 -23 -160 -12 -308 -64 -452
-157 -79 -52 -104 -108 -34 -80 24 11 34 10 61 -4 l32 -16 -64 -46 c-34 -24
-84 -56 -110 -69 -27 -13 -48 -29 -48 -35 0 -17 48 -59 85 -75 19 -7 57 -14
85 -14 44 0 52 3 60 24 18 48 48 57 237 72 235 19 278 12 377 -65 218 -169
331 -219 556 -247 70 -8 131 -21 138 -28 11 -11 11 -28 -4 -102 -9 -49 -25
-115 -35 -147 -17 -49 -18 -75 -13 -182 7 -123 19 -172 42 -168 9 2 10 -21 5
-87 -4 -65 -3 -90 6 -90 6 0 11 10 11 22 0 57 14 -6 31 -143 11 -85 22 -156
25 -158 3 -3 13 0 23 6 15 9 23 8 40 -8 11 -11 21 -23 21 -28 0 -14 53 -66 64
-64 6 2 27 -31 46 -73 28 -61 40 -76 62 -81 16 -3 38 -22 59 -52 39 -56 132
-151 147 -151 6 0 21 -14 34 -30 12 -17 28 -28 35 -26 7 3 23 -8 35 -24 22
-31 48 -40 48 -17 0 6 23 -14 51 -46 37 -41 56 -56 69 -52 13 4 28 -11 61 -62
24 -37 57 -82 73 -100 29 -34 56 -43 56 -20 0 6 8 2 18 -10 17 -21 109 -83
124 -83 4 0 8 10 9 23 1 12 5 2 10 -23 19 -92 31 -126 60 -162 l30 -37 -40
-79 c-80 -160 -93 -288 -51 -532 24 -143 30 -242 17 -301 l-7 -35 -73 12
c-102 18 -300 17 -526 -3 -145 -12 -199 -21 -211 -32 -9 -9 -25 -21 -36 -27
-10 -6 -29 -28 -41 -50 -44 -77 -171 -184 -220 -184 -13 0 -38 -7 -54 -16 -17
-8 -81 -33 -142 -54 -103 -35 -116 -37 -162 -28 -83 17 -188 -25 -209 -85 -14
-39 13 -111 42 -115 18 -3 22 2 22 26 0 39 14 48 83 56 54 7 57 6 57 -14 0
-26 52 -50 111 -50 53 0 203 50 298 100 l74 39 -35 -37 c-20 -20 -50 -60 -66
-87 -19 -30 -57 -70 -96 -100 -41 -31 -71 -62 -81 -85 -8 -19 -43 -60 -78 -90
-52 -44 -107 -119 -107 -145 0 -3 13 -5 29 -5 42 0 108 31 168 79 57 45 115
56 127 25 16 -40 5 -96 -26 -141 -22 -33 -33 -61 -36 -97 l-4 -51 79 78 c51
50 86 77 101 77 28 0 72 42 72 68 0 10 8 26 18 35 16 14 19 14 42 -3 14 -11
31 -20 38 -20 19 0 26 28 12 45 -10 12 -9 15 3 15 9 0 28 20 43 45 19 33 32
45 49 45 13 0 27 -4 30 -10 20 -33 109 27 116 79 2 14 14 35 27 47 24 25 27
45 11 76 -14 26 -8 31 24 19 32 -13 52 8 44 47 -4 23 0 29 28 43 30 14 33 14
44 -3 13 -21 46 -24 58 -6 4 7 6 26 4 43 l-3 30 35 -37 c38 -41 49 -45 69 -24
10 10 18 11 37 3 20 -10 26 -8 41 11 16 19 20 20 30 7 17 -20 60 -20 60 1 0
27 35 64 51 53 30 -19 68 -10 91 22 18 23 28 29 46 24 16 -4 28 -1 36 10 6 8
35 28 65 43 46 24 57 34 69 70 8 24 25 50 38 59 30 19 30 37 3 64 l-21 21 47
105 c27 57 52 106 56 109 15 9 107 -129 128 -193 12 -35 21 -69 20 -76 0 -6
-32 -32 -71 -57 -95 -61 -212 -172 -372 -354 -73 -83 -140 -157 -149 -164 -8
-7 -21 -36 -27 -65 -18 -75 -122 -227 -157 -227 -7 0 -27 -13 -45 -28 -18 -16
-76 -58 -128 -93 -77 -53 -105 -67 -147 -72 -87 -10 -159 -57 -182 -120 -15
-38 -15 -38 19 -84 39 -53 67 -50 62 6 -4 38 -3 38 53 61 l56 23 21 -23 c18
-19 28 -22 73 -17 86 9 187 71 319 196 l48 46 -30 -60 c-17 -33 -35 -79 -41
-102 -6 -23 -31 -68 -55 -100 -55 -75 -68 -99 -64 -121 1 -10 -19 -50 -45 -90
-52 -79 -61 -98 -71 -155 l-7 -38 36 16 c49 20 92 57 139 119 45 60 95 85 119
58 24 -28 30 -92 12 -142 -17 -47 -13 -156 5 -145 5 3 30 44 56 91 29 54 56
90 73 98 30 16 51 54 51 94 0 42 13 56 38 43 47 -25 88 -5 58 28 -14 15 -14
19 -3 24 8 3 19 26 26 51 13 51 34 69 67 54 26 -12 64 5 64 28 0 9 7 23 16 31
10 10 14 28 12 48 -2 18 2 37 9 44 17 16 16 53 -2 77 -21 28 -18 34 15 34 36
0 47 21 31 57 -10 22 -9 28 9 40 11 8 20 23 20 35 0 11 9 36 21 54 11 19 19
46 18 62 -2 18 4 35 19 50 12 12 22 28 22 36 0 9 7 12 20 9 43 -11 67 41 30
65 -31 19 -24 32 11 20 37 -13 79 3 79 29 0 10 10 23 23 28 14 7 22 19 22 35
0 20 6 26 30 30 25 4 30 9 27 30 -1 14 -3 32 -3 40 -1 8 -6 20 -11 26 -6 8 0
14 16 18 40 10 56 33 56 81 0 35 4 44 21 48 16 4 19 11 14 27 -6 20 2 54 27
107 9 17 6 33 -11 73 -17 40 -20 55 -11 65 9 11 6 19 -14 39 -25 22 -27 31
-33 140 -6 106 -5 116 10 110 10 -3 17 -17 17 -33 0 -14 14 -42 30 -61 28 -32
31 -34 43 -18 12 15 15 9 29 -50 22 -90 36 -124 48 -117 5 3 10 16 10 28 1 20
2 20 11 5 5 -10 16 -18 24 -18 8 0 18 -12 21 -27 9 -34 52 -98 67 -98 6 0 14
11 18 25 6 23 7 22 8 -8 1 -39 28 -102 44 -102 5 0 16 8 23 18 12 15 13 13 8
-15 -8 -44 17 -55 52 -23 23 22 24 23 24 4 0 -45 32 -126 51 -131 10 -3 19
-13 19 -23 0 -29 11 -50 25 -50 8 0 17 -9 20 -20 3 -11 15 -20 25 -20 26 0 50
-49 61 -124 8 -62 35 -101 63 -90 7 3 18 -7 24 -21 7 -16 20 -25 34 -25 38 0
70 -41 133 -168 53 -110 85 -149 85 -107 0 21 9 19 31 -7 12 -16 18 -39 19
-75 0 -62 14 -103 34 -103 21 0 36 31 37 77 1 32 3 29 10 -20 5 -32 16 -74 25
-93 19 -40 58 -64 75 -47 13 13 69 -42 127 -121 20 -28 37 -43 46 -40 9 3 20
-5 28 -23 13 -26 11 -33 -17 -93 -27 -59 -30 -74 -29 -160 1 -88 4 -102 44
-195 99 -234 168 -343 264 -415 157 -119 365 -551 388 -808 5 -52 4 -55 -26
-73 -72 -45 -236 -82 -471 -108 -135 -14 -164 -29 -249 -130 -95 -112 -143
-180 -151 -214 -4 -15 -11 -30 -16 -33 -5 -3 -9 -16 -9 -30 0 -13 -15 -43 -33
-66 -17 -24 -46 -72 -62 -108 -26 -56 -30 -76 -30 -150 1 -87 14 -130 40 -130
21 0 48 57 41 86 -5 20 -3 24 18 24 16 0 36 14 58 39 l34 40 35 -47 c42 -57
65 -62 61 -12 -1 19 -9 45 -17 57 -25 38 2 37 36 -1 40 -46 59 -47 59 -2 0 19
-5 38 -11 41 -7 5 -5 13 5 24 9 10 19 32 22 49 5 23 12 32 26 32 28 0 57 17
111 67 84 78 167 109 562 212 157 41 249 86 298 147 26 32 37 57 37 79 0 18 9
52 20 76 24 54 25 111 4 220 -24 126 -15 239 29 369 20 58 41 131 47 163 l12
58 46 -81 c47 -82 135 -180 183 -205 71 -38 198 -217 289 -408 81 -170 121
-301 125 -404 1 -45 9 -104 16 -131 11 -44 10 -56 -6 -99 -34 -89 -106 -195
-238 -352 -76 -90 -116 -157 -117 -193 0 -9 -20 -28 -44 -42 -24 -14 -64 -49
-89 -76 -24 -28 -52 -51 -63 -51 -10 0 -60 0 -110 1 -132 1 -211 -26 -283 -95
-38 -36 -52 -57 -48 -69 10 -25 71 -21 97 6 11 12 20 16 20 10 0 -7 16 -20 35
-29 31 -15 46 -15 137 -5 57 7 227 12 378 13 314 0 338 4 357 59 7 19 12 60
12 91 1 102 47 203 204 453 56 89 116 196 135 239 30 70 33 84 29 150 -6 108
-15 171 -38 286 -27 128 -22 195 23 347 32 105 33 115 32 279 -1 139 -5 184
-21 245 -34 121 -60 181 -113 260 l-49 75 24 7 c14 3 58 1 98 -6 85 -15 166
-7 221 21 36 19 38 19 121 -2 53 -14 94 -30 110 -45 21 -19 25 -21 25 -7 0 24
4 22 54 -28 56 -55 71 -58 61 -9 -9 51 8 35 35 -31 33 -81 55 -65 36 25 -11
50 5 27 38 -53 16 -37 33 -70 38 -73 5 -3 20 2 35 11 21 14 24 22 19 48 l-6
32 21 -35 c27 -44 38 -51 67 -47 13 3 22 -1 22 -8 0 -7 9 -23 19 -36 18 -22
20 -23 27 -6 4 10 17 23 30 28 18 6 24 16 25 41 1 31 2 30 14 -13 7 -26 15
-52 19 -58 9 -15 36 -14 36 1 0 6 7 4 18 -5 10 -10 35 -17 56 -17 30 0 39 4
43 21 5 18 7 17 25 -11 11 -19 24 -30 32 -27 9 4 20 -9 31 -33 21 -47 50 -76
59 -61 4 6 -2 42 -14 79 -28 96 -25 99 14 13 32 -72 56 -101 56 -66 0 14 2 15
21 2 11 -8 28 -13 38 -10 13 3 22 -4 30 -26 22 -53 60 -48 46 7 l-6 26 21 -19
c21 -19 22 -19 39 4 25 33 81 27 99 -12 9 -18 19 -26 28 -23 8 3 25 1 39 -4
26 -10 29 -6 38 60 3 21 5 19 17 -18 13 -42 45 -76 62 -66 4 3 8 22 9 42 0 37
0 37 14 -13 17 -65 67 -108 81 -70 5 11 10 13 19 5 15 -13 20 -7 30 39 l7 34
33 -54 c29 -47 38 -54 68 -56 25 -1 37 3 41 14 6 14 8 14 20 -2 20 -27 39 -9
33 31 -7 39 -2 41 33 14 31 -24 41 -25 33 -2 -3 9 21 -9 53 -41 59 -57 79 -67
86 -46 3 9 9 9 25 0 36 -19 62 -13 81 19 l19 30 24 -26 c16 -17 30 -23 45 -20
14 4 28 -1 39 -14 24 -26 45 -25 45 2 0 20 1 20 20 3 24 -22 54 -13 47 15 -7
26 5 25 29 -1 15 -16 27 -20 56 -16 29 4 41 0 59 -19 12 -13 29 -24 36 -24 8
0 26 -6 41 -14 50 -25 69 -27 86 -11 13 13 27 15 70 10 48 -6 56 -11 67 -37
17 -41 51 -61 88 -53 17 3 32 2 36 -4 9 -15 52 -14 58 2 3 7 3 25 0 40 -3 15
0 34 7 43 12 13 19 8 57 -36 60 -68 100 -66 95 5 -2 27 -2 28 11 11 20 -27 63
-23 106 12 27 22 44 29 64 25 15 -3 33 0 41 6 10 9 20 9 40 0 22 -11 29 -10
43 4 14 14 18 14 39 0 33 -21 58 -2 49 39 -8 35 -3 35 40 2 52 -39 82 -25 60
28 -6 16 -3 17 24 12 22 -5 31 -3 31 7 0 10 3 10 12 1 14 -14 45 -16 50 -4 2
5 14 12 28 15 21 5 28 1 39 -23 19 -45 41 -39 41 12 l0 43 23 -32 c27 -39 38
-37 53 7 l11 34 14 -29 c17 -35 39 -44 39 -16 0 25 9 27 25 4 17 -23 35 -7 35
33 0 42 15 45 24 4 6 -35 35 -41 43 -10 3 11 14 20 24 20 10 0 21 5 24 10 5 8
11 7 20 0 8 -6 26 -10 42 -8 21 2 30 10 38 35 l11 32 11 -29 c13 -36 52 -42
60 -10 3 11 14 20 25 20 12 0 22 9 25 20 3 13 12 19 22 16 59 -16 91 -16 91
-1 0 9 9 15 24 15 14 0 28 5 31 10 4 7 13 6 27 -1 17 -9 24 -8 37 9 24 29 43
32 69 9 19 -18 22 -18 22 -4 0 10 5 26 12 36 11 18 14 18 45 3 24 -12 36 -13
44 -5 7 7 26 9 46 6 29 -5 35 -3 40 16 3 11 13 21 22 21 18 0 106 32 117 43 4
4 18 7 30 7 13 0 28 9 34 20 9 16 14 18 29 8 15 -9 23 -9 34 0 11 10 17 9 27
-4 25 -29 116 11 105 47 -4 13 -2 19 9 19 8 0 18 9 21 20 6 20 7 20 24 -1 l18
-22 69 26 c38 15 104 31 148 36 43 5 83 14 88 19 7 7 20 4 39 -10 l27 -21 28
22 c32 25 50 27 58 6 4 -11 15 -14 43 -10 96 14 128 13 149 -7 22 -20 54 -16
54 8 0 8 6 14 14 14 7 0 19 7 26 15 10 12 16 11 41 -7 l29 -22 30 22 c24 18
34 21 50 12 17 -9 22 -7 28 11 8 21 10 20 30 -15 28 -47 62 -50 62 -5 0 27 2
30 15 19 11 -9 18 -10 29 -1 10 9 16 8 26 -4 7 -8 24 -14 39 -14 14 1 33 -1
42 -5 9 -4 21 -1 28 8 12 14 15 13 31 -7 16 -19 22 -20 38 -10 17 10 23 9 36
-12 19 -29 60 -33 93 -10 20 14 22 13 42 -21 19 -31 26 -36 51 -32 23 3 36 -2
57 -24 34 -35 59 -35 96 0 20 18 31 23 34 15 3 -8 14 -11 27 -7 18 4 26 -3 44
-38 13 -24 21 -33 18 -20 -7 37 15 20 29 -22 20 -58 62 -80 50 -26 -11 48 19
27 41 -28 19 -52 31 -43 15 12 -14 52 4 54 27 4 22 -49 58 -97 48 -65 -3 10
-9 37 -12 60 l-6 42 29 -35 c15 -19 33 -50 38 -69 13 -46 40 -57 30 -12 -9 43
11 40 32 -4 10 -21 22 -34 30 -31 7 3 19 -3 25 -14 20 -31 27 -24 17 18 -18
77 -7 74 37 -10 24 -49 46 -88 49 -88 6 0 -9 40 -35 91 -12 22 -19 44 -16 47
3 3 7 3 9 1 73 -113 127 -176 127 -148 0 56 -91 250 -155 331 -124 154 -372
276 -800 393 -353 96 -537 124 -875 131 -198 5 -269 3 -370 -11 -402 -54 -589
-70 -1265 -111 -494 -30 -667 -29 -928 5 -656 86 -1239 308 -1681 640 -87 65
-355 303 -682 604 -149 137 -151 139 -173 209 -49 152 -111 264 -202 364 -64
71 -86 120 -104 232 -8 48 -26 125 -40 172 -14 47 -39 140 -55 207 -36 147
-51 185 -190 465 -83 168 -109 230 -115 275 -4 32 -20 83 -35 113 -40 80 -96
245 -131 385 -70 289 -181 411 -479 529 -163 64 -277 91 -558 131 -135 20
-322 51 -416 70 -376 76 -453 81 -939 66 -555 -17 -783 -29 -951 -50 -83 -11
-182 -23 -221 -26 -39 -4 -83 -15 -100 -26 -30 -18 -31 -18 -42 0 -13 21 -26
23 -122 22 -69 0 -159 -23 -199 -49 -29 -19 -121 -21 -379 -7 -79 4 -151 4
-160 0 -26 -12 -38 -8 -159 50 -93 45 -119 63 -163 112 -108 121 -200 278
-246 423 -30 94 -36 185 -21 345 7 70 5 107 -8 169 -19 95 -20 97 -2 90 8 -3
17 -1 21 5 11 18 -170 360 -239 451 -82 110 -202 224 -252 240 -21 7 -45 19
-52 27 -7 7 -21 13 -31 13 -32 0 -109 31 -127 51 -15 16 -30 19 -113 18 -56 0
-123 -8 -161 -18z"/>
</g>
</svg>
