<?xml version="1.0" encoding="UTF-8" standalone="no"?>
<!-- Created with Inkscape (http://www.inkscape.org/) -->

<svg
   width="158.96475mm"
   height="48.18586mm"
   viewBox="0 0 158.96475 48.18586"
   version="1.1"
   id="svg1"
   inkscape:export-filename="bitmap.svg"
   inkscape:export-xdpi="96"
   inkscape:export-ydpi="96"
   xmlns:inkscape="http://www.inkscape.org/namespaces/inkscape"
   xmlns:sodipodi="http://sodipodi.sourceforge.net/DTD/sodipodi-0.dtd"
   xmlns="http://www.w3.org/2000/svg"
   xmlns:svg="http://www.w3.org/2000/svg">
  <sodipodi:namedview
     id="namedview1"
     pagecolor="#ffffff"
     bordercolor="#000000"
     borderopacity="0.25"
     inkscape:showpageshadow="2"
     inkscape:pageopacity="0.0"
     inkscape:pagecheckerboard="0"
     inkscape:deskcolor="#d1d1d1"
     inkscape:document-units="mm">
    <inkscape:page
       x="0"
       y="0"
       width="158.96475"
       height="48.18586"
       id="page2"
       margin="0"
       bleed="0" />
  </sodipodi:namedview>
  <defs
     id="defs1">
    <clipPath
       id="clippath">
      <path
         class="cls-3"
         d="m 34.1858,65.868 c 0,0 -1.1607,2.1455 -1.5713,4.4545 -0.4106,2.309 -0.7156,3.6545 -1.5631,5.3636 -0.8475,1.7091 0.9344,1.2364 2.1525,1.0727 1.2181,-0.1637 2.7273,-0.2727 3.0182,-0.6545 0.2909,-0.3818 1.4909,-2.3273 2.6909,-2.4909 1.2,-0.1636 2.0545,0.8545 4.1818,0.6 2.1273,-0.2545 5.9455,-0.8 10.4545,-1.5636 4.509,-0.7636 3.8364,-1 4.1091,-1.5273 0.2727,-0.5273 0.9273,-0.7636 0.9273,-0.7636 0,0 1.3455,1.4364 3.0364,1.5455 1.6909,0.1091 3.1273,1.4364 3.9818,1.6182 0.8545,0.1818 2.4,-0.4364 3.0909,-0.7818 0.6909,-0.3454 1.7455,0.0909 2.7455,0.7636 1,0.6727 1.3091,0.5455 1.8,0.4727 0.4909,-0.0728 0.4364,-0.5818 0.5455,-1.5273 0.1091,-0.9455 0.5818,-3.5091 0.6727,-4.1818 0.0909,-0.6727 -0.0364,-1.0727 -0.4727,-1.1273 0,0 0.6388,-3.3133 1.2947,-4.6318 0,0 0.0273,0.1227 0.1962,0.2408 0.1689,0.1181 0.6228,0.3764 0.7249,0.2276 0.1021,-0.1488 0.4091,-1.2357 0.8308,-2.1983 0.4217,-0.9626 1.2624,-2.7111 1.2806,-3.002 0.0182,-0.2909 0.0673,-0.7106 0.0673,-0.7106 l 0.8054,-0.5985 c 0,0 3.442,-3.0688 5.6364,-4.9818 1.4182,-1.2364 1.4818,-2.6545 1.6182,-3.4273 0.1364,-0.7728 0.8091,-1.3818 1.2,-1.8455 0.3909,-0.4637 0.0727,-0.9818 -0.3545,-1.1636 -0.4272,-0.1818 -0.8,-0.3273 -0.8,-0.3273 0,0 -0.2273,-1.3909 -0.4,-1.8273 0,0 0.3727,-0.8091 0.2909,-1.1 -0.0818,-0.2909 -0.6727,-0.4636 -0.6727,-0.4636 0,0 0.3273,-0.7818 0.3364,-1.1273 0.0091,-0.3455 -0.8818,-0.5273 -0.8818,-0.5273 0,0 0.3545,-0.7545 0.3091,-0.9545 -0.0454,-0.2 -0.3545,-0.4636 -0.6091,-0.5636 0,0 -0.5818,-1.0364 -1.6545,-2.0545 -1.0727,-1.0181 -4.6364,-3.4364 -8.3273,-4.4909 -3.6909,-1.0545 -9.3818,-1.8364 -14.1818,0.6 -4.8,2.4364 -7.9133,5.1893 -10.7818,8.6893 -3.1455,3.838 -6.9695,8.4382 -8.115,10.6745 -1.1455,2.2363 -4.8578,8.1998 -5.5396,9.8634 -0.6818,1.6636 -2.0727,4.4273 -2.0727,4.4273 z"
         id="path1" />
    </clipPath>
  </defs>
  <g
     inkscape:label="Layer 1"
     inkscape:groupmode="layer"
     id="layer1"
     transform="translate(-40.887245,-124.5533)">
    <g
       id="Skeletal"
       transform="matrix(0.26458333,0,0,0.26458333,32.873499,116.53952)">
      <g
         id="Platytholus">
        <g
           id="g6">
          <g
             id="g3">
            <path
               class="cls-1"
               d="m 218.3325,62.9407 c -0.5744,2.1513 -1.3741,6.7726 -2.5602,12.0805 -1.4819,6.6314 -2.0306,13.4735 -3.2009,20.1674 -1.0871,6.2177 -2.0476,12.4876 -2.4472,18.7919 -0.3172,5.0045 -0.196,10.097 1.4915,14.8716 1.446,4.0913 3.7313,7.8728 6.3528,11.3121 9.5891,12.5803 18.6225,20.2142 22.3167,26.82 0.8322,1.4882 1.6981,2.8566 1.9597,4.5799 0.1688,1.1152 0.2537,2.4041 0.2864,3.5223 0.039,1.3325 0.2805,2.388 0.5171,3.6844 0.147,0.8059 0.3698,1.6841 0.356,2.5087 -0.008,0.5071 -0.0991,1.3148 -0.2155,1.8425 -0.3804,1.7242 -0.7753,2.972 -1.3273,4.6485 -1.6056,4.8773 -2.0636,8.0426 -3.7711,11.9874 -0.3311,0.765 -0.8764,1.9507 -1.4046,2.5782 -0.4152,0.4932 -0.9233,0.872 -1.3185,1.3878 -0.3924,0.5121 -0.885,0.9339 -1.4324,1.2728 -1.1048,0.684 -2.3803,1.0353 -3.6309,1.3442 -1.9858,0.4906 -3.5987,0.7466 -6.0273,0.8727 -1.2186,0.0633 -3.4761,-0.028 -4.1045,1.2213 -0.3952,0.7857 -0.7447,2.3342 -0.0615,3.0946 0.4227,0.4705 1.1373,0.384 1.7516,0.3932 0.7583,0.0114 1.5341,0 1.9636,0 0.151,0 0.6434,-0.0303 0.7916,-0.0591 0.408,-0.0793 0.6995,0.0461 1.1107,0.0591 0.6347,0.0201 3.6025,0 16.4469,0 h 2.091 c 1.9555,0 1.5873,-2.1 1.5014,-7.0545 -0.0658,-3.7937 4.8833,-17.8616 6.7204,-24.6214 0.4412,-1.6233 1.2548,-3.7795 1.0614,-5.4659 -0.2093,-1.824 -0.881,-3.3888 -1.5945,-5.0556 -1.5744,-3.678 -3.4472,-7.2266 -5.3073,-10.7657 -3.0819,-5.8636 -2.1379,-10.5918 -3.7689,-18.5277 -1.631,-7.9359 -6.4624,-17.7325 -6.4624,-17.7325 13.5329,-11.5287 37.9518,-43.7804 37.9518,-43.7804"
               id="path2"
               style="fill:#000000;stroke-width:0px" />
            <path
               class="cls-1"
               d="m 221.6653,209.4836 c 0,0 0.1332,-0.8508 -0.1796,-1.3617 -0.3128,-0.5109 -2.9849,0.166 -4.7034,1.195 -1.7185,1.029 -1.9043,2.0511 -1.8766,2.3547 0.0277,0.3036 1.2913,-0.3986 3.1581,-0.6918 1.8668,-0.2932 2.4981,0.4684 3.1095,0.2341 0.6114,-0.2343 0.492,-1.7303 0.492,-1.7303 z"
               id="path3"
               style="fill:#000000;stroke-width:0px" />
          </g>
          <g
             id="g5">
            <path
               class="cls-1"
               d="m 229.2387,210.2461 c 0,0 0.1224,-0.8037 -0.1749,-1.2847 -0.2973,-0.481 -2.8171,0.1685 -4.4354,1.1466 -1.6183,0.9781 -1.7896,1.9438 -1.7623,2.2302 0.0273,0.2864 1.2175,-0.3814 2.9785,-0.6655 1.761,-0.2841 2.3601,0.4323 2.9364,0.2087 0.5763,-0.2236 0.4577,-1.6353 0.4577,-1.6353 z"
               id="path4"
               style="fill:#000000;stroke-width:0px" />
            <path
               class="cls-1"
               d="m 243.752,208.8756 c 0,0 -0.5049,1.7991 -1.5754,2.2106 -1.4327,0.5508 -3.0979,1.0289 -4.3999,0.5455 0,0 -2.4735,0.8994 -4.8075,0.2909 0,0 -3.9588,0.4526 -5.0175,0.1864 -1.0587,-0.2662 -0.5981,-1.8053 -0.2386,-3.0955 0.3595,-1.2902 4.3746,-1.0663 5.9091,-1.4182 1.5345,-0.3519 2.251,-0.4882 3.5689,-0.9808 1.3179,-0.4926 4.3438,-3.1108 4.3438,-3.1108"
               id="path5"
               style="fill:#000000;stroke-width:0px" />
          </g>
        </g>
        <g
           id="g12">
          <g
             id="g7">
            <path
               class="cls-2"
               d="m 217.113,63.4862 c 0,0 10.8727,57.7091 20.8,69.7091 0,0 3.4909,5.9986 19.3091,6.0538 15.8182,0.0552 27.3299,-2.9134 34.8362,-1.9448 1.691,0.2182 3.306,0.3381 4.8456,1.1546 0.4387,0.2327 0.8089,0.6622 1.1318,1.0364 0.4089,0.4738 0.8163,1.0421 0.8318,1.5818 0.0146,0.507 -0.0391,1.318 -0.1313,1.8504 -0.3015,1.7398 -0.6392,3.0042 -1.1141,4.7041 -1.3818,4.9455 -2.0364,9.2568 -3.6364,13.2466 -1.6,3.9898 0.3273,3.6807 1.7455,7.1171 1.2094,2.1059 1.2078,4.0865 1.5736,6.4153 0.3175,2.0208 0.6052,4.2339 -0.2739,6.1295 -0.5134,1.1069 -1.7361,3.1292 -0.7201,4.0901 0.639,0.6044 2.0222,1.5513 2.9686,1.1648 0.6181,-0.2524 0.9641,-1.3486 1.2187,-1.9077 0.2442,-0.5363 0.4149,-0.897 0.5344,-1.4756 0.0305,-0.1479 0.0996,-0.4948 0.1147,-0.6451 0.0414,-0.4136 0.2966,-0.8252 0.4272,-1.2153 0.2016,-0.6022 0.2144,-1.2567 0.3105,-1.881 0.0845,-0.5491 0.175,-1.0972 0.2486,-1.648 0.1762,-1.3198 0.3006,-2.6837 0.1069,-4.0087 -0.3695,-2.5266 0.3163,-3.9273 0.0854,-4.5818 -0.2309,-0.6545 0.1304,-4.5192 0.9328,-5.1636 0.8206,-0.6591 1.1321,-0.9455 0.8206,-5.8909 -0.2385,-3.7867 2.2885,-10.909 3.8158,-17.7455 0.3668,-1.6418 0.5358,-3.7867 0.2658,-5.4622 -0.4706,-2.9196 -4.5508,-4.0336 -6.9482,-4.6045 -3.892,-0.9268 -7.8578,-1.5369 -11.8085,-2.1514 -6.5455,-1.0182 -9.4545,-3.2 -16.8,-6.6182 -7.3455,-3.4182 -14.7273,-3.0909 -14.7273,-3.0909 7.2,-16.2545 16.4913,-39.3818 16.4913,-39.3818"
               id="path6"
               style="stroke-width:0px" />
            <path
               class="cls-2"
               d="m 297.8175,184.0285 c 0,0 -0.5839,-0.633 -1.1786,-0.7052 -0.5947,-0.0722 -1.7242,2.4422 -1.9855,4.4281 -0.2613,1.9859 0.4243,2.7665 0.6794,2.9334 0.2551,0.1669 0.4898,-1.2596 1.4198,-2.9045 0.93,-1.6449 1.9189,-1.6666 2.1151,-2.2913 0.1962,-0.6247 -1.0502,-1.4605 -1.0502,-1.4605 z"
               id="path7"
               style="stroke-width:0px" />
          </g>
          <g
             id="g9">
            <path
               class="cls-2"
               d="m 302.6517,177.3139 c 0,0 -0.7918,-0.1845 -1.2944,0.0746 -0.5026,0.2591 -0.0508,2.8217 0.7987,4.5111 0.8495,1.6894 1.7989,1.9351 2.0866,1.9302 0.2877,-0.005 -0.2857,-1.2434 -0.4321,-3.0212 -0.1464,-1.7778 0.6143,-2.3194 0.4361,-2.9113 -0.1782,-0.5919 -1.5948,-0.5833 -1.5948,-0.5833 z"
               id="path8"
               style="stroke-width:0px" />
            <path
               class="cls-2"
               d="m 303.713,162.4498 c 0,0 -0.1222,1.2061 0.2606,2.2872 0.5124,1.4469 0.8228,2.6933 0.3049,3.982 0,0 1.1898,2.1755 0.5193,4.4924 0,0 0.4032,3.8955 0.1089,4.9467 -0.2943,1.0512 -2.6338,0.9294 -3.9139,0.5357 -1.2801,-0.3937 -0.0449,-4.077 -0.3558,-5.6202 -0.3108,-1.5433 -1.2608,-2.8453 -1.718,-4.1758 -0.4572,-1.3305 -1.7656,-5.8686 -1.7656,-5.8686"
               id="path9"
               style="stroke-width:0px" />
          </g>
          <g
             id="g11">
            <path
               class="cls-2"
               d="m 304.1762,160.585 c 0,0 -0.7211,0.1844 -1.02,0.6071 -0.2989,0.4227 1.1499,2.3136 2.5532,3.3274 1.4033,1.0138 2.2783,0.8125 2.5099,0.6871 0.2316,-0.1254 -0.757,-0.8895 -1.6265,-2.2718 -0.8695,-1.3823 -0.4801,-2.1435 -0.8748,-2.5491 -0.3947,-0.4056 -1.5418,0.1994 -1.5418,0.1994 z"
               id="path10"
               style="stroke-width:0px" />
            <path
               class="cls-2"
               d="m 304.371,152.5752 c 0,0 -0.2065,2.9748 0.522,4.9799 0.7285,2.0051 1.6398,2.66 1.2279,3.5388 -0.4119,0.8788 -2.5859,1.2282 -3.0713,0.6477 -0.4854,-0.5805 -1.2806,-2.7354 -1.4552,-4.1483 -0.1746,-1.4129 0.0152,-3.1788 0.002,-4.5643"
               id="path11"
               style="stroke-width:0px" />
          </g>
        </g>
        <path
           class="cls-2"
           d="m 85.9729,48.2135 c 5.1809,3.1599 9.0703,7.9558 14.1235,11.317 6.0814,4.0451 13.6128,7.3819 21.053,7.2651 1.9108,-0.03 3.8172,-0.208 5.709,-0.473 10.512,-1.4724 20.3264,-4.5592 30.6359,-6.8907 10.9639,-2.4795 22.6238,-2.5071 33.8022,-3.3747 13.2112,-1.0254 26.1066,-2.4998 39.3773,-2.2008 10.3002,0.232 20.6268,0.3755 30.9119,1.0117 7.2696,0.4497 14.5489,2.3895 21.5832,4.1613 6.103,1.5373 12.5627,3.091 18.6075,5.2835 6.2975,2.2842 12.1384,5.5505 18.1538,8.4619 5.439,2.6324 10.8783,5.2642 16.318,7.8953 1.2511,0.6051 2.5023,1.2102 3.7534,1.8153 10.0167,4.844 19.794,10.4566 30.1264,14.5947 8.5599,3.4282 17.5011,5.8948 26.5484,7.6426 0,0 57.2364,7.3923 128.1455,9.9143 70.9091,2.522 105.8182,4.922 106.2545,6.3402 0.4364,1.4182 -4.8,1.9636 -52.1455,1.7455 -35.7509,-0.1648 -71.5027,0.2225 -107.247,0.8903 -35.3633,0.6607 -75.2715,2.7069 -106.001,-0.8885 -15.3296,-1.7921 -30.5282,-7.7882 -45.952,-8.8382 -7.2901,-0.4963 -14.6179,-0.2461 -21.8182,0.7507 -7.7615,1.0745 -16.4295,1.36 -23.5451,4.8493 -6.6496,3.2608 -10.2004,5.9636 -14.8549,6.6909 -4.6545,0.7273 -46.4,1.8713 -68.9455,-0.9189 -22.5455,-2.7902 -46.2545,-9.4084 -54.6909,-12.7539 0,0 -4.6543,-1.4181 -9.4484,-5.4543 -2.0801,-1.7513 -4.0013,-4.028 -6.4841,-5.226 -2.17,-1.0471 -4.623,-1.2233 -6.9565,-1.6794 -3.8135,-0.7454 -7.5004,-1.9051 -11.2266,-2.9834 -3.51,-1.0158 -6.9421,-2.2939 -10.3106,-3.7058 C 85.9405,91.1462 80.6673,88.4643 75.1491,86.1771 65.44,82.153 48.1824,81.9657 48.1824,81.9657"
           id="path12"
           style="stroke-width:0px" />
        <g
           id="g16">
          <path
             class="cls-2"
             d="m 135.2813,108.6974 c 0,0 7.2136,6.0615 15.2136,11.5887 0,0 0.0364,7.0182 0.4,9.8545 0.3636,2.8364 -0.7636,6.8727 -0.8,7.4909 0,0 -0.2727,1.4545 -0.5727,2.2455 -0.3,0.791 -1.6232,2.7902 -2.8091,5.3455 -1.1732,2.5278 -0.5058,2.6544 0,2.3727 0.4432,-0.2468 2.7273,-2.5818 2.7273,-2.5818 -0.34,1.8695 -0.7048,3.8191 -0.6859,5.724 0.005,0.4788 0.0549,0.8659 0.5314,1.1396 0.4479,0.2573 0.638,-0.2266 0.8242,-0.5505 0.093,-0.1619 0.1864,-0.3452 0.2793,-0.5448 0.5455,-1.1727 1.9501,-5.0507 1.9501,-5.0507 0,0 1.5368,6.4793 2.41,6.7782 0.3932,0.1345 0.6073,-0.049 0.67,-0.3842 0.0638,-0.341 0.0681,-0.8719 0.0617,-1.2155 -0.0205,-1.1019 -0.1297,-2.1641 -0.259,-3.2598 -0.1024,-0.8681 -0.0466,-1.1637 -0.1273,-2.062 0,0 1.6861,2.4217 2.3091,2.5529 0.6909,0.1455 0.4009,-0.9373 -0.2932,-3.1077 0,0 0.6245,0.6981 1.275,0.6981 0.4909,0 -0.0256,-1.0745 -0.6,-2.4995 -0.6605,-1.6387 -0.451,-3.4264 -0.3013,-5.1406 0.1285,-1.4717 0.3211,-2.9375 0.5288,-4.3999 0.1183,-0.8328 0.2433,-1.6647 0.3725,-2.4959 1.0909,-7.0182 1.3173,-10.8457 1.3173,-10.8457 -0.3191,-3.7184 -16.0384,-22.6223 -16.0384,-22.6223"
             id="path13"
             style="stroke-width:0px" />
          <path
             class="cls-2"
             d="m 146.2728,146.4862 c 0,0 -0.3607,0.8657 -0.2175,1.2909 0.1432,0.4252 0.344,-0.1863 1.0621,-0.6287 0,0 -0.4875,-0.5945 -0.8446,-0.6622 z"
             id="path14"
             style="stroke-width:0px" />
          <path
             class="cls-2"
             d="m 150.0106,151.3424 c 0,0 -0.4184,0.8393 -0.8336,1.0094 -0.4152,0.1701 -0.0843,-0.382 -0.2199,-1.2145 0,0 0.7685,-0.0205 1.0535,0.2051 z"
             id="path15"
             style="stroke-width:0px" />
          <path
             class="cls-2"
             d="m 155.4323,151.5797 c 0,0 -0.02,0.9465 -0.2774,1.2816 -0.2574,0.3351 -0.2015,-0.3116 -0.6037,-1.0118 0,0 0.5818,-0.352 0.8811,-0.2699 z"
             id="path16"
             style="stroke-width:0px" />
        </g>
        <g
           id="g18">
          <path
             class="cls-2"
             d="m 86.4136,50.9544 c 0,0 0.5423,-1.5236 0.426,-2.4517 -0.1163,-0.9281 0.0705,-1.2989 0.5144,-1.6938 0.4842,-0.4307 0.8431,-0.9002 0.8727,-1.2409 0.0296,-0.3407 -0.3951,-0.5222 -1.4158,-0.8156 0,0 -0.0509,-0.8265 -0.2796,-1.8662 0,0 0.0898,-0.2761 0.3121,-0.8745 0.2223,-0.5984 0.004,-0.5863 -0.8406,-0.7149 0,0 0.2769,-0.6117 0.4162,-1.0335 0.1393,-0.4218 0.1567,-0.6201 -0.8514,-0.7634 0,0 0.2179,-0.4562 0.3393,-0.8413 0.1214,-0.3851 -0.2503,-0.4928 -0.5731,-0.5535 -0.1074,-0.0202 -0.2509,-0.044 -0.2619,-0.0622 -0.0298,-0.0494 -0.2192,-0.324 -0.2499,-0.3728 -1.9914,-3.1714 -5.6233,-4.9276 -9.0646,-6.0608 -3.577,-1.1781 -7.4987,-1.7035 -11.2286,-1.0115 -1.9463,0.3611 -3.8036,1.087 -5.5277,2.0523 -5.4113,3.0296 -6.841,5.1999 -12.1063,11.1454 -1.0707,1.209 -1.4441,1.5687 -3.7091,4.6364 0,0 -1.9502,3.0262 -3.1273,4.9818 -1.1771,1.9556 -2.8246,5.2432 -3.8182,6.9455 -0.9936,1.7023 -1.0039,2.4776 -2.1818,5.0182 -1.061,2.2883 -1.4358,3.7147 -2.2545,6.4364 -0.8187,2.7217 -1.2231,3.5209 -1.4807,5.2919 0,0 -0.3048,0.6934 0.8839,0.3606 1.1887,-0.3328 2.25,-0.4347 3.7249,-0.5267 1.4749,-0.092 1.298,-0.1478 1.6837,-0.7043 0.3857,-0.5565 1.4867,-2.0216 2.3475,-2.2748 0.8608,-0.2532 1.0845,0.9302 4.1227,0.6784 3.0382,-0.2518 11.4833,-1.5028 13.2309,-1.7999 1.7476,-0.2971 2.368,-0.6201 3.8029,-0.4102 1.4349,0.2099 2.5391,0.9266 3.9351,1.518 1.396,0.5914 2.7243,0.4369 4.4735,-0.0965 1.7492,-0.5334 2.7238,0.5097 2.7238,0.5097"
             id="path17"
             style="stroke-width:0px" />
          <path
             class="cls-2"
             d="m 80.6623,75.5699 c -0.3348,1.0886 -2.0924,2.8584 -7.2229,3.2958 -5.1305,0.4374 -8.3742,1.506 -11.5422,2.1347 -3.168,0.6287 -13.3579,1.7667 -17.7907,1.2271 -4.4328,-0.5396 -9.6299,-0.9754 -10.6086,-1.4226 -0.9787,-0.4472 -2.4464,-3.831 -2.4464,-3.831 0,0 1.4058,-0.8358 5.3108,-1.5453 3.905,-0.7095 3.3941,0.1275 8.7682,-1.0058 5.3741,-1.1333 6.8726,-0.9048 9.8225,-1.5391 2.9499,-0.6343 7.0472,-5.5153 7.0472,-5.5153"
             id="path18"
             style="stroke-width:0px" />
          <polyline
             class="cls-2"
             points="38.7218 66.772 32.6145 77.0575 49.8179 81.9033 61.1457 68.3224"
             id="polyline18"
             style="stroke-width:0px" />
        </g>
      </g>
      <g
         id="MOR_2915"
         data-name="MOR 2915">
        <g
           id="g27">
          <g
             id="g20">
            <path
               class="cls-5"
               d="m 32.8027,77.8672 c -0.0693,0 -0.1494,-0.0293 -0.2529,-0.0918 -0.3535,-0.2129 -0.5479,-0.835 -0.5557,-0.8613 -0.0195,-0.0635 0.0127,-0.1299 0.0742,-0.1533 l 0.709,-0.2725 c 0.0146,-0.0059 0.0293,-0.0088 0.0449,-0.0088 0.0254,0 0.0508,0.0078 0.0723,0.0234 0.0342,0.0244 0.0537,0.0635 0.0527,0.1055 0,0.0039 -0.0127,0.3877 0.0391,0.6982 0.0381,0.2236 0.0576,0.3896 -0.0273,0.4902 -0.0234,0.0273 -0.1191,0.0703 -0.1562,0.0703 z"
               id="path19"
               style="fill:#000000;stroke-width:0px" />
            <path
               class="cls-2"
               d="m 32.8221,76.6044 c 0,0 -0.0137,0.3954 0.0409,0.7227 0.04,0.2403 0.058,0.4145 -0.0606,0.4145 -0.0429,0 -0.1038,-0.0228 -0.1879,-0.0735 -0.3167,-0.1909 -0.5015,-0.7909 -0.5015,-0.7909 l 0.7091,-0.2727 m 0,-0.2501 c -0.0303,0 -0.0607,0.0055 -0.0897,0.0167 l -0.7091,0.2727 c -0.1227,0.0472 -0.1879,0.1813 -0.1492,0.3069 0.0218,0.0708 0.2241,0.698 0.6113,0.9315 0.1255,0.0757 0.2233,0.1094 0.317,0.1094 0.1,0 0.1895,-0.0406 0.2519,-0.1142 0.1194,-0.1409 0.0982,-0.334 0.0553,-0.5914 -0.0496,-0.2977 -0.0377,-0.6693 -0.0376,-0.6731 0.0028,-0.0838 -0.0366,-0.1635 -0.1049,-0.2122 -0.043,-0.0306 -0.0938,-0.0464 -0.1451,-0.0464 v 0 z m 0,0.5 h 0.005 z"
               id="path20"
               style="stroke-width:0px" />
          </g>
          <g
             id="g22">
            <path
               class="cls-5"
               d="m 33.8867,77.8877 c -0.0391,0 -0.1582,0 -0.4111,-0.2852 -0.2139,-0.2432 -0.3652,-0.8389 -0.3818,-0.9053 0.0293,-0.375 0.2666,-0.5664 0.6465,-0.5664 0.1279,0 0.2265,0.0225 0.2314,0.0234 0.0605,0.0146 0.1025,0.0713 0.0957,0.1348 -10e-4,0.0088 -0.0889,0.9092 -0.0166,1.2412 0.0303,0.1406 0.0225,0.2314 -0.0283,0.293 -0.0234,0.0293 -0.0977,0.0645 -0.1357,0.0645 v 0 z"
               id="path21"
               style="fill:#000000;stroke-width:0px" />
            <path
               class="cls-2"
               d="m 33.7398,76.2566 c 0.1152,0 0.2036,0.0202 0.2036,0.0202 0,0 -0.0919,0.9241 -0.0149,1.2795 0.0322,0.1485 0.0097,0.2058 -0.042,0.2058 -0.072,0 -0.2008,-0.1115 -0.3174,-0.243 -0.2002,-0.2259 -0.3542,-0.8522 -0.3542,-0.8522 0.0344,-0.3475 0.3217,-0.4104 0.525,-0.4104 m -10e-5,-0.2499 c -0.4451,0 -0.7344,0.2377 -0.7737,0.6358 -0.0028,0.0282 -7e-4,0.0567 0.006,0.0843 0.0281,0.1146 0.1804,0.6993 0.4099,0.9583 0.26,0.2933 0.4125,0.3272 0.5045,0.3272 0.0756,0 0.1859,-0.0516 0.2334,-0.1105 0.0983,-0.1219 0.0773,-0.2857 0.0529,-0.3983 -0.05,-0.2306 -0.0146,-0.8596 0.0193,-1.2019 0.0125,-0.1253 -0.0703,-0.2404 -0.1931,-0.2684 -0.0118,-0.0027 -0.1199,-0.0265 -0.2593,-0.0265 v 0 z"
               id="path22"
               style="stroke-width:0px" />
          </g>
          <g
             id="g24">
            <path
               class="cls-5"
               d="m 35.5176,78.7461 c -0.252,0 -0.6211,-0.4004 -0.7432,-0.5547 -0.3369,-0.4277 -0.5977,-1.6719 -0.6084,-1.7246 -0.0078,-0.0371 0.002,-0.0752 0.0254,-0.1045 0.0166,-0.0205 0.4043,-0.4834 0.9492,-0.4834 0.1582,0 0.3145,0.0391 0.4639,0.1182 0.041,0.0215 0.0664,0.0635 0.0664,0.1104 0,0 0,1.0029 -0.0059,1.291 -0.002,0.1113 0.0186,0.2695 0.0391,0.4365 0.0342,0.2705 0.0684,0.5498 0.0303,0.7266 -0.0244,0.1143 -0.1074,0.1846 -0.2168,0.1846 z"
               id="path23"
               style="fill:#000000;stroke-width:0px" />
            <path
               class="cls-2"
               d="m 35.14,76.0035 c 0.1277,0 0.2642,0.0295 0.4056,0.1039 0,0 0,1.0011 -0.0051,1.2885 -0.0051,0.2875 0.1284,0.8779 0.0719,1.1397 -0.013,0.0603 -0.0472,0.0858 -0.0948,0.0858 -0.1594,0 -0.4698,-0.2849 -0.6444,-0.5067 -0.3234,-0.4107 -0.5853,-1.6736 -0.5853,-1.6736 0,0 0.3605,-0.4375 0.8522,-0.4376 m -10e-5,-0.25 v 0 c -0.6027,0 -1.0273,0.507 -1.0451,0.5286 -0.0482,0.0584 -0.0673,0.1356 -0.0519,0.2097 0.028,0.1352 0.2839,1.3334 0.6337,1.7775 0.0485,0.0616 0.4844,0.602 0.8408,0.602 0.169,0 0.3022,-0.1111 0.3392,-0.2831 0.0426,-0.1975 0.0066,-0.4877 -0.0282,-0.7683 -0.0199,-0.1599 -0.04,-0.3125 -0.0381,-0.4196 0.0052,-0.2885 0.0052,-1.293 0.0052,-1.293 0,-0.0928 -0.0515,-0.178 -0.1336,-0.2213 -0.1673,-0.088 -0.3429,-0.1326 -0.522,-0.1326 v 0 z"
               id="path24"
               style="stroke-width:0px" />
          </g>
          <g
             id="g26">
            <path
               class="cls-5"
               d="m 41.8555,75.3584 c -0.1045,0 -0.2188,-0.043 -0.3486,-0.1318 -0.4365,-0.2979 -0.6348,-1.1582 -0.6436,-1.1953 -0.0146,-0.0664 0.0264,-0.1328 0.0928,-0.1494 0.0146,-0.0029 1.4121,-0.333 2.4004,-0.4961 0.1328,-0.0225 0.4795,-0.0693 0.9814,-0.1367 10.7812,-1.4561 13.1836,-2.3135 13.2998,-2.7754 0.0127,-0.0518 0.0566,-0.0889 0.1094,-0.0938 0.0039,-0.001 0.0078,-0.001 0.0117,-0.001 0.0479,0 0.0918,0.0273 0.1133,0.0713 0.0156,0.0342 0.3896,0.8301 0.4824,1.3125 0.0518,0.2695 -0.0498,0.4619 -0.1436,0.5752 -0.1484,0.1807 -0.3721,0.2744 -0.5146,0.2744 -0.0361,-0.0039 -0.0713,-0.0156 -0.1055,-0.0352 0.0166,0.0713 0.0273,0.1279 0.0312,0.1592 0.0176,0.1543 -0.0664,0.3066 -0.2246,0.4053 -0.0723,0.0449 -0.2109,0.0615 -0.2861,0.0615 -0.2666,-0.0557 -0.4062,-0.1738 -0.4912,-0.3174 -0.0156,0.0596 -0.0361,0.1094 -0.0645,0.1436 -0.1885,0.2285 -0.374,0.3398 -0.5664,0.3398 -0.0107,0 -0.1162,-0.0137 -0.126,-0.0166 -0.041,-0.0107 -0.1338,-0.0342 -0.3193,-0.4561 -0.0566,0.5576 -0.5742,0.7119 -0.5967,0.7188 -0.2188,-0.0332 -0.4316,-0.2686 -0.5898,-0.4941 -0.0586,0.6416 -0.4287,0.7842 -0.4473,0.791 -0.1797,-10e-4 -0.3301,-0.168 -0.4482,-0.3779 -0.0244,0.1494 -0.0723,0.2666 -0.1445,0.3535 -0.1172,0.1396 -0.2598,0.1504 -0.3008,0.1504 -0.2158,-0.0156 -0.3682,-0.2402 -0.4727,-0.499 -0.0615,0.3799 -0.1689,0.4619 -0.3477,0.5176 -0.0127,10e-4 -0.0244,0.002 -0.0381,0.002 -0.0791,0 -0.1719,-0.0312 -0.2705,-0.2705 -0.0703,0.251 -0.1807,0.3398 -0.2021,0.3545 -0.0059,10e-4 -0.0117,10e-4 -0.0176,10e-4 -0.2393,0 -0.4043,-0.252 -0.5146,-0.5459 -0.082,0.3467 -0.2412,0.5117 -0.4951,0.5312 v 0 c -0.167,0 -0.3066,-0.1719 -0.416,-0.3828 -0.0732,0.3047 -0.2148,0.5107 -0.3076,0.5957 -0.1162,0.1055 -0.2949,0.1211 -0.3906,0.1211 -0.248,-0.0938 -0.4033,-0.2949 -0.502,-0.5029 -0.1475,0.5107 -0.4424,0.5791 -0.5879,0.5791 -0.0732,0 -0.1494,-0.0166 -0.2188,-0.0479 -0.1328,-0.0596 -0.2695,-0.2295 -0.3848,-0.4082 -0.0029,0.1377 -0.0176,0.2607 -0.0576,0.3271 -0.0859,0.1426 -0.3955,0.2529 -0.6055,0.2529 -0.0078,0 -0.0908,-0.0078 -0.0996,-0.0098 -0.085,-0.0166 -0.1621,-0.1025 -0.2305,-0.2568 -0.042,0.1455 -0.0938,0.1748 -0.1182,0.1895 -0.1191,0.0684 -0.249,0.1338 -0.4062,0.1338 -0.0527,0 -0.1055,-0.0078 -0.1562,-0.0225 -0.1523,-0.0459 -0.2783,-0.3115 -0.3672,-0.5684 0.0068,0.085 0.0107,0.1641 0.0107,0.2207 0,0.2158 -0.0977,0.4863 -0.2773,0.5605 -0.0459,0.0195 -0.1006,0.0293 -0.1621,0.0293 -0.1377,0 -0.292,-0.0498 -0.4121,-0.1328 -0.0908,-0.0615 -0.1602,-0.2148 -0.21,-0.3701 -0.0039,0.3027 -0.0566,0.4834 -0.1572,0.541 -0.0518,0.0283 -0.1133,0.0439 -0.1846,0.0439 -0.2119,0 -0.4502,-0.1367 -0.4961,-0.1641 -0.1299,-0.0791 -0.2344,-0.3643 -0.2939,-0.5654 -0.0215,0.3066 -0.084,0.6738 -0.2529,0.7676 -0.0947,0.0518 -0.1885,0.0977 -0.3076,0.0977 -0.0928,0 -0.1953,-0.0264 -0.3545,-0.0908 -0.2803,-0.1143 -0.4873,-0.5986 -0.5615,-0.7979 h -0.0049 c 0.0381,0.1729 0.0898,0.4414 0.083,0.6045 -0.0107,0.2988 -0.1543,0.4854 -0.373,0.4854 z"
               id="path25"
               style="fill:#000000;stroke-width:0px" />
            <path
               class="cls-2"
               d="m 57.7585,70.5044 c 0,0 0.3818,0.8091 0.4727,1.2818 0.0878,0.4564 -0.3412,0.7009 -0.5347,0.7009 -0.0069,0 -0.0135,-3e-4 -0.0198,-9e-4 -0.1818,-0.0182 -0.4455,-0.8182 -0.4455,-0.8182 0,0 0.2488,0.9281 0.267,1.0827 0.015,0.1278 -0.075,0.2278 -0.1675,0.2858 -0.0395,0.0248 -0.1453,0.0416 -0.2195,0.0416 -0.0222,0 -0.0414,-0.0015 -0.0554,-0.0048 -0.3333,-0.0779 -0.38,-0.3366 -0.4586,-0.6279 -0.0311,-0.1151 -0.0801,-0.2402 -0.0931,-0.3592 0,0 0.0781,0.7134 -0.0455,0.8636 -0.1302,0.1584 -0.2881,0.2939 -0.4696,0.2939 -0.0307,0 -0.062,-0.0038 -0.0941,-0.0121 -0.1419,-0.0367 -0.4727,-1.0091 -0.4727,-1.0091 0,0 0.0364,0.1364 0,0.6364 -0.0364,0.5 -0.5091,0.6364 -0.5091,0.6364 -0.2909,-0.0545 -0.6909,-0.8455 -0.6909,-0.8455 0.1182,0.9727 -0.3545,1.1454 -0.3545,1.1454 -0.2819,-0.0091 -0.5637,-1 -0.5637,-1 0.194,1.0794 -0.2262,1.1185 -0.288,1.1185 -0.0048,0 -0.0074,-2e-4 -0.0074,-2e-4 -0.3591,-0.0272 -0.5318,-1.1183 -0.5318,-1.1183 -0.0364,1.0728 -0.1545,1.0909 -0.3273,1.1455 -0.004,0.0013 -0.0081,0.0019 -0.0121,0.0019 -0.1694,0 -0.3516,-1.0929 -0.3516,-1.0929 0.1364,0.9727 -0.1727,1.1909 -0.1727,1.1909 -0.3273,0 -0.5182,-1.1909 -0.5182,-1.1909 0,0.9636 -0.2091,1.1364 -0.4454,1.1545 -0.0026,2e-4 -0.0051,3e-4 -0.0077,3e-4 -0.2342,0 -0.4832,-0.8094 -0.4832,-0.8094 0.0455,0.5818 -0.2,0.9545 -0.3091,1.0545 -0.0877,0.0804 -0.2459,0.0883 -0.3046,0.0883 -0.0143,0 -0.0227,-5e-4 -0.0227,-5e-4 -0.4728,-0.194 -0.5182,-1.0242 -0.5182,-1.0242 -0.022,0.8576 -0.3041,1.1006 -0.5507,1.1006 -0.0593,0 -0.1165,-0.014 -0.1675,-0.0369 -0.2636,-0.1182 -0.6,-0.8636 -0.6,-0.8636 0,0 0.0886,0.6841 0,0.8319 -0.0531,0.0886 -0.3134,0.1929 -0.4993,0.1929 -0.0262,0 -0.051,-0.0021 -0.0735,-0.0066 -0.1818,-0.0364 -0.3182,-0.8727 -0.3182,-0.8727 0,0 0.0091,0.7455 -0.1182,0.8182 -0.0983,0.0562 -0.213,0.1178 -0.3438,0.1178 -0.0386,0 -0.0785,-0.0053 -0.1199,-0.0178 -0.1818,-0.0545 -0.3727,-0.7818 -0.3727,-0.7818 l -0.2,-0.1364 c 0,0 0.0546,0.4909 0.0546,0.6909 0,0.2 -0.0909,0.4 -0.2,0.4454 -0.0313,0.0131 -0.0701,0.0193 -0.113,0.0193 -0.1064,0 -0.2379,-0.0389 -0.3416,-0.1102 -0.1455,-0.1 -0.2455,-0.6455 -0.2455,-0.6455 l -0.1818,-0.0545 c 0,0 0.0728,0.7818 -0.0727,0.8643 -0.0346,0.0196 -0.0764,0.0278 -0.1218,0.0278 -0.1457,0 -0.3289,-0.0842 -0.4328,-0.1466 -0.1364,-0.0818 -0.2727,-0.6182 -0.2727,-0.6182 l -0.2,-0.0636 c 0,0 -0.0182,0.7818 -0.2,0.8818 -0.0947,0.0521 -0.1622,0.0819 -0.2463,0.0819 -0.0774,0 -0.1688,-0.0253 -0.3082,-0.0819 -0.2909,-0.1182 -0.5182,-0.8 -0.5182,-0.8 l -0.2545,-0.0182 c 0,0 0.1273,0.5 0.1182,0.737 -0.0065,0.1688 -0.0683,0.3643 -0.2479,0.3643 -0.0726,0 -0.1643,-0.0319 -0.2794,-0.1104 -0.4,-0.2727 -0.5909,-1.1182 -0.5909,-1.1182 0,0 1.3954,-0.3318 2.3909,-0.4955 0.9954,-0.1636 14.0636,-1.7409 14.3818,-3.0045 m 10e-5,-0.2498 c -0.0081,0 -0.0162,4e-4 -0.0243,0.0012 -0.1042,0.0102 -0.191,0.0842 -0.2176,0.1853 -0.1557,0.3581 -2.0787,1.1821 -13.1849,2.6828 -0.5096,0.0689 -0.8615,0.1165 -0.9955,0.1385 -0.9927,0.1632 -2.3942,0.4956 -2.4082,0.4989 -0.1333,0.0317 -0.2162,0.1647 -0.186,0.2983 0.0217,0.0963 0.2261,0.9507 0.6938,1.2697 0.1519,0.1035 0.2893,0.1538 0.4203,0.1538 0.2771,0 0.4683,-0.2193 0.4952,-0.5626 0.0892,0.1156 0.1939,0.2127 0.313,0.2611 0.1754,0.0713 0.292,0.1003 0.4023,0.1003 0.149,0 0.2629,-0.0558 0.3668,-0.1129 0.1101,-0.0605 0.1931,-0.1954 0.2484,-0.403 0.055,0.0949 0.1135,0.1612 0.1752,0.1983 0.0713,0.0427 0.3223,0.1822 0.5615,0.1822 0.092,0 0.1744,-0.0203 0.245,-0.0602 0.0443,-0.0251 0.1195,-0.0677 0.1694,-0.2339 0.0207,0.0226 0.0426,0.0422 0.0657,0.0581 0.1405,0.0966 0.3211,0.1542 0.4832,0.1542 0.0773,0 0.1476,-0.013 0.2091,-0.0386 0.1541,-0.0642 0.2595,-0.2253 0.313,-0.4032 0.1074,0.1548 0.1953,0.1811 0.2372,0.1937 0.0626,0.0188 0.1271,0.0283 0.1917,0.0283 0.1882,0 0.3401,-0.0778 0.4678,-0.1507 0.0178,-0.0102 0.0386,-0.0221 0.0605,-0.0418 0.0823,0.1003 0.1562,0.1151 0.2027,0.1244 0.0375,0.0075 0.0788,0.0114 0.1226,0.0114 0.2147,0 0.5923,-0.1119 0.7137,-0.3143 0.0122,-0.0204 0.0229,-0.0443 0.0322,-0.0718 0.0802,0.091 0.1652,0.1646 0.2511,0.2031 0.087,0.039 0.1777,0.0588 0.2698,0.0588 0.1458,0 0.4153,-0.0525 0.6014,-0.3986 0.0928,0.1285 0.2141,0.2385 0.3726,0.3035 0.0258,0.0106 0.0531,0.0168 0.0809,0.0183 0.003,0 0.006,0 0.009,0 0.1501,0 0.3578,-0.0218 0.5011,-0.1531 0.0739,-0.0678 0.1758,-0.2027 0.2576,-0.3955 0.1139,0.1437 0.236,0.2161 0.3658,0.2161 0.2467,-0.0186 0.4083,-0.138 0.5134,-0.317 0.1161,0.2118 0.2656,0.353 0.4579,0.353 0.0516,0 0.102,-0.016 0.1442,-0.0458 0.0248,-0.0175 0.0826,-0.0653 0.142,-0.1637 0.0893,0.1114 0.1713,0.1114 0.2382,0.1114 0.0255,0 0.063,-0.0058 0.0874,-0.0135 0.1674,-0.0526 0.2784,-0.1327 0.3532,-0.2938 0.1068,0.1561 0.2417,0.2645 0.4117,0.2774 0.0021,0 0.0043,0 0.0065,0 0.0979,0 0.2725,-0.0221 0.4173,-0.1953 0.0335,-0.04 0.0626,-0.0848 0.0872,-0.1343 0.105,0.1264 0.2244,0.2076 0.3589,0.2119 0.0027,0 0.0054,1e-4 0.0081,1e-4 0.0292,0 0.0583,-0.0051 0.0858,-0.0152 0.0468,-0.0171 0.3445,-0.1424 0.4758,-0.5982 0.134,0.1558 0.2848,0.2804 0.4377,0.3091 0.0153,0.0028 0.0307,0.0043 0.0461,0.0043 0.0234,0 0.0467,-0.0033 0.0693,-0.0098 0.0206,-0.006 0.4069,-0.122 0.5933,-0.4973 0.1199,0.2 0.1967,0.2199 0.2566,0.2354 0.0516,0.0133 0.1044,0.0201 0.1567,0.0201 0.2274,0 0.4395,-0.1202 0.6479,-0.3675 0.086,0.0849 0.2018,0.153 0.362,0.1905 0.0325,0.0076 0.0692,0.0113 0.1122,0.0113 0.0231,0 0.2288,-0.0023 0.3524,-0.0799 0.1985,-0.1245 0.3041,-0.318 0.2838,-0.5189 0.2162,-0.0268 0.4244,-0.1474 0.5596,-0.3112 0.1571,-0.1902 0.2174,-0.4315 0.1697,-0.6792 -0.0957,-0.498 -0.476,-1.3071 -0.4921,-1.3413 -0.0416,-0.0881 -0.13,-0.1433 -0.226,-0.1433 v 0 z"
               id="path26"
               style="stroke-width:0px" />
          </g>
        </g>
        <g
           id="g28">
          <path
             class="cls-5"
             d="m 31.6084,77.0781 c -0.4395,0 -0.7178,-0.1045 -0.8525,-0.3213 -0.1523,-0.2451 -0.1045,-0.6104 0.1465,-1.1172 0.8125,-1.6377 1.123,-2.9121 1.5527,-5.3291 0.4092,-2.3027 1.5723,-4.4717 1.584,-4.4932 0.0127,-0.0244 1.3945,-2.7754 2.0674,-4.415 0.3926,-0.958 1.7676,-3.3057 3.0977,-5.5762 1.0059,-1.7178 1.9561,-3.3408 2.4463,-4.2969 1.0742,-2.0977 4.4795,-6.2471 7.4834,-9.9082 l 0.6465,-0.7881 c 3.1758,-3.875 6.4111,-6.4834 10.8213,-8.7217 2.123,-1.0771 4.6025,-1.624 7.3711,-1.624 2.7686,0 5.2812,0.5527 6.9014,1.0156 3.6533,1.043 7.2607,3.458 8.3799,4.5195 1.0742,1.0195 1.6533,2.041 1.6777,2.084 0.2207,0.0566 0.5645,0.3447 0.6221,0.5967 0.041,0.1846 -0.1396,0.6367 -0.2549,0.8965 0.2929,0.0771 0.8389,0.2686 0.8301,0.6172 -0.0068,0.2812 -0.2012,0.8086 -0.2959,1.0479 0.1992,0.0762 0.5547,0.2441 0.627,0.5068 0.0898,0.3184 -0.2314,1.043 -0.2969,1.1855 0.1572,0.3047 0.3486,1.3926 0.3975,1.6836 0.126,0.0508 0.417,0.166 0.7373,0.3027 0.2959,0.127 0.5215,0.3789 0.5879,0.6582 0.04,0.1709 0.041,0.4316 -0.1865,0.7021 -0.0713,0.085 -0.1523,0.1748 -0.2383,0.2695 -0.3692,0.4092 -0.8281,0.9189 -0.9336,1.5166 l -0.0439,0.2754 c -0.127,0.834 -0.3193,2.0947 -1.6152,3.2236 -2.1934,1.9131 -5.6357,4.9814 -5.6357,4.9824 l -0.8008,0.5938 c 0.0254,0.0225 -0.0146,0.375 -0.0303,0.6289 -0.0137,0.2168 -0.3535,0.9766 -0.8701,2.1113 -0.1553,0.3398 -0.3037,0.666 -0.4209,0.9326 -0.2383,0.5439 -0.4404,1.1318 -0.5889,1.5605 -0.1348,0.3926 -0.2021,0.584 -0.2539,0.6592 -0.0303,0.0449 -0.0918,0.0986 -0.21,0.0986 -0.2637,0 -0.6719,-0.2832 -0.6885,-0.2949 -0.042,-0.0293 -0.0762,-0.0586 -0.1055,-0.0879 -0.5391,1.2363 -1.0527,3.707 -1.168,4.2793 0.127,0.0391 0.2295,0.1084 0.3076,0.21 0.1611,0.21 0.208,0.5469 0.1426,1.0312 -0.0371,0.2734 -0.1367,0.8564 -0.249,1.5176 -0.168,0.9854 -0.3594,2.1025 -0.4238,2.6621 -0.0186,0.1621 -0.0322,0.3125 -0.0449,0.4492 -0.0615,0.6699 -0.1025,1.1123 -0.6055,1.1875 l -0.1211,0.0186 c -0.1357,0.0225 -0.2637,0.042 -0.4014,0.042 -0.3857,0 -0.7812,-0.1602 -1.3652,-0.5537 -0.8398,-0.5645 -1.5723,-0.8633 -2.1191,-0.8633 -0.1895,0 -0.3584,0.0361 -0.502,0.1074 -0.6133,0.3076 -1.8936,0.8281 -2.7988,0.8281 -0.1367,0 -0.2627,-0.0117 -0.374,-0.0361 -0.3379,-0.0723 -0.748,-0.3047 -1.2217,-0.5742 -0.7627,-0.4346 -1.7119,-0.9746 -2.7412,-1.041 -1.5371,-0.0986 -2.7715,-1.2373 -3.0586,-1.5225 -0.1699,0.0762 -0.5918,0.2959 -0.7861,0.6738 -0.0342,0.0654 -0.0508,0.127 -0.0693,0.1914 -0.127,0.459 -0.2031,0.7363 -4.1309,1.4014 -4.626,0.7842 -8.4365,1.3223 -10.46,1.5645 -0.2441,0.0293 -0.4717,0.042 -0.6846,0.042 -0.8662,0 -1.4971,-0.209 -2.0537,-0.3936 -0.4277,-0.1426 -0.7979,-0.2646 -1.1924,-0.2646 -0.0811,0 -0.1641,0.0049 -0.249,0.0166 -0.9912,0.1348 -2.0127,1.5957 -2.4492,2.2188 -0.0674,0.0967 -0.1211,0.1729 -0.1592,0.2236 -0.2725,0.3564 -1.3281,0.4844 -2.4453,0.6201 l -0.6553,0.082 -0.4199,0.0625 c -0.3955,0.0605 -0.8047,0.124 -1.1553,0.124 h -0.001 z"
             id="path27"
             style="fill:#000000;stroke-width:0px" />
          <path
             class="cls-2"
             d="m 67.9731,30.6126 c 2.5551,0 4.9742,0.4691 6.8672,1.01 3.6909,1.0545 7.2545,3.4727 8.3273,4.4909 1.0727,1.0182 1.6545,2.0545 1.6545,2.0545 0.2545,0.1 0.5636,0.3636 0.6091,0.5636 0.0455,0.2 -0.3091,0.9546 -0.3091,0.9546 0,0 0.8909,0.1818 0.8818,0.5273 -0.0091,0.3455 -0.3364,1.1273 -0.3364,1.1273 0,0 0.5909,0.1727 0.6727,0.4636 0.0818,0.2909 -0.291,1.1 -0.291,1.1 0.1727,0.4364 0.4,1.8273 0.4,1.8273 0,0 0.3727,0.1454 0.8,0.3273 0.4273,0.1818 0.7455,0.7 0.3546,1.1636 -0.3909,0.4637 -1.0636,1.0727 -1.2,1.8455 -0.1364,0.7727 -0.2,2.1909 -1.6182,3.4273 -2.1943,1.913 -5.6364,4.9818 -5.6364,4.9818 l -0.8054,0.5985 c 0,0 -0.0491,0.4197 -0.0673,0.7106 -0.0182,0.2909 -0.8589,2.0394 -1.2806,3.002 -0.4218,0.9626 -0.7288,2.0495 -0.8309,2.1983 -0.0218,0.0317 -0.0596,0.045 -0.1072,0.045 -0.1756,0 -0.4849,-0.1796 -0.6177,-0.2725 -0.1689,-0.1181 -0.1962,-0.2408 -0.1962,-0.2408 -0.6559,1.3185 -1.2947,4.6317 -1.2947,4.6317 0.4363,0.0546 0.5637,0.4546 0.4727,1.1273 -0.0909,0.6727 -0.5636,3.2364 -0.6727,4.1818 -0.1091,0.9455 -0.0545,1.4546 -0.5454,1.5273 -0.1779,0.0264 -0.332,0.0599 -0.5037,0.0599 -0.3021,0 -0.6588,-0.1037 -1.2963,-0.5326 -0.7588,-0.5105 -1.5489,-0.8848 -2.1878,-0.8848 -0.2031,0 -0.3909,0.0378 -0.5576,0.1212 -0.6053,0.3026 -1.8665,0.8146 -2.7444,0.8146 -0.1241,0 -0.2407,-0.0103 -0.3466,-0.0328 -0.8545,-0.1818 -2.2909,-1.5091 -3.9818,-1.6182 -1.6909,-0.1091 -3.0364,-1.5454 -3.0364,-1.5454 0,0 -0.6545,0.2364 -0.9272,0.7636 -0.2727,0.5273 0.4,0.7636 -4.1091,1.5273 -4.5091,0.7637 -8.3273,1.3091 -10.4546,1.5636 -0.2386,0.0286 -0.4609,0.0411 -0.6698,0.0411 -1.5134,0 -2.3063,-0.659 -3.2468,-0.659 -0.0869,0 -0.1751,0.0056 -0.2652,0.0179 -1.2,0.1636 -2.4,2.1091 -2.6909,2.4909 -0.291,0.3818 -1.8,0.4909 -3.0182,0.6545 -0.4981,0.0669 -1.0903,0.1855 -1.5586,0.1855 -0.6771,0 -1.0949,-0.2479 -0.5939,-1.2582 0.8475,-1.7091 1.1525,-3.0546 1.5631,-5.3636 0.4105,-2.3091 1.5712,-4.4546 1.5712,-4.4546 0,0 1.3909,-2.7636 2.0727,-4.4272 0.6818,-1.6636 4.3942,-7.6271 5.5396,-9.8634 1.1454,-2.2364 4.9695,-6.8366 8.115,-10.6746 2.8685,-3.5 5.9818,-6.2529 10.7818,-8.6893 2.3382,-1.1868 4.8877,-1.61 7.3146,-1.61 m 2e-4,-0.2502 c -2.7886,0 -5.2876,0.5508 -7.4277,1.637 -4.4261,2.2466 -7.6746,4.8646 -10.862,8.7538 l -0.6409,0.7814 c -3.0104,3.6689 -6.4224,7.8274 -7.5033,9.9377 -0.4875,0.9519 -1.4354,2.5702 -2.439,4.2835 -1.3338,2.2772 -2.7131,4.6319 -3.1094,5.5991 -0.6703,1.6358 -2.0508,4.3821 -2.0647,4.4097 -0.0447,0.0825 -1.1812,2.2011 -1.5941,4.5232 -0.4279,2.4064 -0.7366,3.6742 -1.541,5.2964 -0.2719,0.5482 -0.318,0.9534 -0.1411,1.2386 0.2361,0.3807 0.7802,0.3807 0.959,0.3807 0.3602,0 0.7739,-0.0639 1.174,-0.1258 0.1433,-0.0222 0.284,-0.0439 0.4178,-0.0619 0.2134,-0.0287 0.4359,-0.0557 0.659,-0.0827 1.382,-0.1677 2.2415,-0.2964 2.5248,-0.6681 0.0389,-0.0511 0.0937,-0.1292 0.162,-0.2269 0.3903,-0.558 1.427,-2.0401 2.3638,-2.1678 0.0786,-0.0107 0.1556,-0.0156 0.2314,-0.0156 0.3741,0 0.7352,0.1198 1.1533,0.2585 0.5657,0.1877 1.2068,0.4004 2.0934,0.4004 0.2266,0 0.462,-0.0144 0.6996,-0.0428 2.0156,-0.2412 5.8237,-0.7791 10.4666,-1.5654 3.843,-0.6508 4.0739,-0.9276 4.23,-1.4914 0.0168,-0.0608 0.0314,-0.1133 0.0594,-0.1675 0.1534,-0.2966 0.4674,-0.4888 0.6502,-0.5804 0.3854,0.3679 1.592,1.4012 3.0753,1.4969 1.0011,0.0646 1.9367,0.5971 2.6885,1.025 0.4828,0.2748 0.8998,0.5121 1.2574,0.5882 0.1193,0.0254 0.2534,0.0382 0.3986,0.0382 0.9269,0 2.2315,-0.5286 2.8562,-0.841 0.1258,-0.0629 0.2758,-0.0948 0.4458,-0.0948 0.5209,0 1.2292,0.2913 2.0483,0.8423 0.6072,0.4085 1.0233,0.5752 1.4359,0.5752 0.1519,0 0.2897,-0.0224 0.4229,-0.044 l 0.1175,-0.0185 c 0.5999,-0.0889 0.6493,-0.6226 0.712,-1.2983 0.0126,-0.1362 0.0264,-0.2854 0.0452,-0.4476 0.0643,-0.5571 0.2549,-1.6745 0.4232,-2.6604 0.1127,-0.6606 0.2121,-1.2435 0.249,-1.5166 0.0701,-0.5188 0.0154,-0.8864 -0.1674,-1.1239 -0.071,-0.0923 -0.159,-0.1632 -0.2629,-0.2122 0.1405,-0.6879 0.5928,-2.8029 1.0747,-3.9989 0.0931,0.0631 0.4688,0.3058 0.7438,0.3058 0.181,0 0.274,-0.0962 0.3134,-0.1535 0.0605,-0.0883 0.1221,-0.2632 0.2677,-0.6858 0.1474,-0.4276 0.3493,-1.0133 0.586,-1.5536 0.1167,-0.2665 0.2657,-0.5934 0.4203,-0.9328 0.5878,-1.29 0.8663,-1.9231 0.8807,-2.154 0.0122,-0.195 0.0386,-0.449 0.0541,-0.5903 l 0.7183,-0.5338 c 0.0517,-0.0447 3.4833,-3.1038 5.6516,-4.994 1.3312,-1.1605 1.535,-2.5002 1.6567,-3.3007 0.0148,-0.0975 0.0286,-0.1884 0.0433,-0.2716 0.0993,-0.5625 0.546,-1.0579 0.905,-1.456 0.0861,-0.0955 0.1677,-0.1861 0.24,-0.2718 0.2037,-0.2416 0.279,-0.5298 0.2119,-0.8115 -0.0757,-0.3175 -0.3284,-0.6023 -0.6597,-0.7433 -0.2752,-0.1171 -0.528,-0.2193 -0.6747,-0.2778 -0.0584,-0.3405 -0.2138,-1.2063 -0.3541,-1.636 0.1214,-0.2786 0.3498,-0.8679 0.2625,-1.1784 -0.0747,-0.2657 -0.3637,-0.4417 -0.5872,-0.5411 0.1039,-0.275 0.2531,-0.7131 0.2601,-0.9756 0.0099,-0.3791 -0.4417,-0.5937 -0.7833,-0.7014 0.1348,-0.3206 0.2455,-0.6612 0.2043,-0.8424 -0.0622,-0.2734 -0.3841,-0.5623 -0.6779,-0.7042 -0.1554,-0.2595 -0.7216,-1.1516 -1.6574,-2.0399 -1.1254,-1.0682 -4.7538,-3.4994 -8.4307,-4.55 -1.6279,-0.4651 -4.1528,-1.0196 -6.9359,-1.0196 v 0 z"
             id="path28"
             style="stroke-width:0px" />
        </g>
        <g
           class="cls-7"
           clip-path="url(#clippath)"
           id="g29">
          <path
             class="cls-4"
             d="m 45.5483,46.2777 c 0,0 -0.217,0.2994 -0.0898,0.4813 0.1272,0.1819 0.525,0.2909 0.0898,1.3091 -0.4352,1.0182 -0.4716,1.8364 -0.2716,2.2182 0.2,0.3818 1.3818,2.2 1.5273,2.5455 0.1455,0.3455 1.0545,1.9818 1.8909,2.2545 0.8364,0.2727 0.9467,0.7406 2.5461,0.0612 1.5994,-0.6794 6.8366,-2.7437 7.1994,-3.043 0.3628,-0.2993 -0.1091,-0.8364 1.2,-0.7636 1.3091,0.0728 1.3455,-0.2417 2.3818,-1.1663 1.0363,-0.9246 5.0182,-3.178 6.0364,-3.8967 1.0182,-0.7187 2.2545,-1.1187 3.6727,-1.3006 1.4182,-0.1819 2.1818,-0.7636 3.0182,-0.6 0.8364,0.1636 1.1273,0.2545 1.5636,0.2727 0.4363,0.0182 0.9273,-0.6364 1.2727,-0.9455 0.3454,-0.3091 0.6727,-1.1818 0.9273,-1.3455 0.2546,-0.1637 0.9636,-1.1091 1.2727,-1.8545 0,0 1.3455,-0.3455 1.6727,-0.6364 0.3272,-0.2909 0.8909,-0.2 1.3091,-0.5091 0.4182,-0.3091 0.7818,-0.3273 0.9273,-0.6182 0.1455,-0.2909 0.4105,-0.7154 0.2052,-1.9031 0,0 -2.0689,-4.6332 -5.1507,-5.8605 -3.0818,-1.2273 -2.5734,1.0629 -2.5734,1.0629 0,0 -0.4538,0.1917 -0.6447,0.178 -0.1909,-0.0137 -0.9409,-0.3955 -1.2955,-0.0955 -0.3546,0.3 -0.9273,0.9955 -0.9273,0.9955 l -1.1727,0.2045 c 0,0 -0.4227,0.6409 -0.9682,0.8727 -0.5455,0.2318 -0.4227,0.5045 -0.6682,-0.0273 -0.2455,-0.5318 -1.1318,-2.1682 -2.4818,-2.4136 0,0 -0.8045,0.2727 -1.1591,0.3545 -0.3546,0.0818 -0.5864,0.3409 -0.6955,0.2045 -0.1091,-0.1364 -0.1773,-0.3955 -0.3,-0.6955 -0.1227,-0.3 -0.9376,-0.0366 -0.8506,-0.7819 0.087,-0.7453 -7.2085,-0.6772 -9.8267,0.9592 -2.6182,1.6364 -9.6375,14.4824 -9.6375,14.4824 z"
             id="path29"
             style="fill:#000000;stroke-width:0px" />
        </g>
        <g
           id="g51">
          <path
             class="cls-2"
             d="m 47.4676,66.4589 c 0,0 -0.5455,-1.8684 -2.6455,-0.6957 0,0 -0.3545,0.6945 -0.4636,1.0087 -0.1091,0.3142 -0.4636,0.7506 0.5455,0.7778 1.0091,0.0272 1.9091,-0.9545 2.5636,-1.0909 z"
             id="path30"
             style="stroke-width:0px" />
          <path
             class="cls-2"
             d="m 33.6497,68.2363 c 0,0 -0.3549,0.3887 -0.0131,2.6422 0.1682,1.1085 0.9482,1.8714 1.2186,1.263 0.2704,-0.6084 0.3758,-1.3512 0.1892,-2.0235 -0.1866,-0.6723 -0.7924,-1.9991 -1.3948,-1.8817 z"
             id="path31"
             style="stroke-width:0px" />
          <path
             class="cls-2"
             d="m 71.4949,58.2862 c 0,0 -1.3455,0.8909 -1.8545,1.2909 -0.509,0.4 -0.7818,1.2182 -1.3273,0.5818 -0.5455,-0.6364 -1.7636,-2.2727 -1.2,-3.9636 0.5636,-1.6909 2.1273,-2.7636 2.6,-3.3273 0.4727,-0.5637 1.6727,-1.6364 3.2545,-2.2 1.5818,-0.5636 2.6364,-0.8909 2.5455,0.4182 -0.0909,1.3091 -0.6333,3.5386 -1.6151,5.0659 -0.9818,1.5273 -2.403,2.1341 -2.403,2.1341 z"
             id="path32"
             style="stroke-width:0px" />
          <path
             class="cls-2"
             d="m 59.2582,51.8953 c 0,0 -1.8088,-0.77 -5.8178,1.8787 -4.009,2.6487 -4.3516,2.1032 -5.2576,4.4759 -0.906,2.3727 0.0758,2.7273 1.494,3.9818 1.4182,1.2545 3.7091,2.5636 5.8636,2.2636 2.1545,-0.3 3.5727,-1.6909 4.1455,-2.7818 0.5728,-1.0909 1.3091,-1.8818 1.3091,-2.5364 0,-0.6546 -0.3545,-2.4 -0.1636,-3.6546 0.0902,-0.5927 0.0347,-1.2162 -0.1846,-1.7761 -0.1451,-0.3705 -0.4204,-0.6539 -0.6501,-0.9708 -0.1971,-0.2719 -0.3727,-0.8052 -0.7384,-0.8803 z"
             id="path33"
             style="stroke-width:0px" />
          <g
             id="g50">
            <path
               class="cls-6"
               d="m 60.7494,42.0736 c 0,0 1,-2.4783 1.0909,-2.951 0.0909,-0.4727 2.8545,-0.9455 3.3636,-1.0909 0.5091,-0.1454 1.9818,-0.6727 2.4182,-0.6545 0.4364,0.0182 3.0545,0.1273 3.3818,0.3273 0.3273,0.2 1.3091,0.4 1.6,0.4 0.2909,0 1.5636,-0.2545 1.8,-0.1273 0.2364,0.1272 0.6,0.8909 0.5455,1.1091 -0.0545,0.2182 -0.7455,1.1636 -0.6727,1.3818 0.0728,0.2182 0.6727,0.6182 0.7636,1.2545 0.0909,0.6363 -0.2545,0.9818 0.5455,0.9273 0.8,-0.0545 1.0909,-0.3455 1.4182,-0.1818 0.3273,0.1637 1.1818,0.6727 1.2545,1.3455 0.0727,0.6728 0.2909,0.8545 1.0727,1.0727 0.7818,0.2182 0.8727,0.4 0.8182,0.7818 -0.0545,0.3818 0.2182,0.0727 0.4,0.8364 0.1818,0.7637 -0.0182,1.5818 -0.4545,2.0545 -0.4363,0.4727 -0.8182,0.7091 -0.7273,1.1818 0.0909,0.4727 0.4182,0.8 -0.3636,0.8 -0.7818,0 -1.6909,0.1091 -2.4,0 -0.7091,-0.1091 -1.1318,0.0485 -1.1318,0.0485"
               id="path34"
               style="fill:none;stroke:#000000;stroke-width:0.15px;stroke-linecap:round;stroke-linejoin:round" />
            <path
               class="cls-6"
               d="m 80.5279,33.8588 c 0,0 -1.7058,2.2274 -2.0149,2.3183 -0.3091,0.0909 -1,0.8182 -1.5091,1.0364 -0.5091,0.2182 -0.8727,0.2545 -1.0182,0.3818 -0.1455,0.1273 -1.1604,0.9907 -1.1604,0.9907"
               id="path35"
               style="fill:none;stroke:#000000;stroke-width:0.15px;stroke-linecap:round;stroke-linejoin:round" />
            <path
               class="cls-6"
               d="m 59.6311,52.1753 c 0,0 0.7002,-0.9163 0.9547,-1.0982 0.2545,-0.1819 0.1636,-0.7273 0.4091,-1.1818 0.2455,-0.4545 1.3909,-1.6818 1.5364,-2.4636 0.1455,-0.7818 0.2545,-1.8 0.4182,-2.3636 0.1637,-0.5636 -0.2364,-1.2182 -0.7273,-1.8182 -0.4909,-0.6 -0.2545,-0.7636 -1.2273,-0.9091 0,0 -0.4773,-0.5091 -0.7364,-0.8364 -0.2591,-0.3273 -0.3507,-0.4091 -1.0003,-0.3545 -0.6496,0.0546 -1.7951,-0.3545 -2.3133,-0.3409 -0.5182,0.0136 -0.9136,0.2045 -1.65,0.45 -0.7364,0.2455 -1.8409,1.8682 -2.2909,2.4273 -0.45,0.5591 -1.1864,1.7318 -1.4318,2.3591 -0.2454,0.6273 -0.2367,0.908 -1.0685,1.658"
               id="path36"
               style="fill:none;stroke:#000000;stroke-width:0.15px;stroke-linecap:round;stroke-linejoin:round" />
            <path
               class="cls-6"
               d="m 52.4767,54.668 c 0,0 0.3,-0.6727 0,-1.0182 -0.3,-0.3455 -0.6455,-0.7182 -0.6727,-1.0545 -0.0272,-0.3363 0.3636,-0.7818 0.3545,-1.1 -0.0091,-0.3182 -0.2818,-0.8091 -0.5909,-1.0636 -0.3091,-0.2545 -0.3273,-0.6545 -0.4636,-0.9182 -0.1363,-0.2637 -0.3727,-0.7909 -0.4545,-0.8727 -0.0818,-0.0818 0.0182,-0.9909 -0.3273,-1.1818 -0.3455,-0.1909 -0.8545,-0.0909 -0.9909,0.2273 -0.1364,0.3182 -0.5636,0.5909 -1.0636,0.6455 -0.5,0.0546 -1.6818,0.1364 -2.2273,0.8273 -0.5455,0.6909 -0.8662,0.7656 -0.8662,0.7656 0,0 -0.2701,1.0162 -0.3247,1.2617 -0.0546,0.2455 -0.1091,0.5872 -0.1091,0.9891 0,0.4019 -0.3,1.7109 -0.3,2.2291 0,0.5182 -0.8727,1.7727 -1.0636,2.1545 -0.1909,0.3818 -1.0455,1.9169 -1.9273,2.0766"
               id="path37"
               style="fill:none;stroke:#000000;stroke-width:0.15px;stroke-linecap:round;stroke-linejoin:round" />
            <path
               class="cls-6"
               d="m 60.9949,59.1771 c 0,0 0.45,0.1773 0.8455,0.0682 0.3955,-0.1091 1.1864,-0.3273 1.2682,-0.6955 0.0818,-0.3682 0.4091,-0.7091 0.7636,-0.8591 0.3545,-0.15 0.75,-0.6545 1.2955,-0.9818 0.5455,-0.3273 0.7797,-1.2559 2.0467,-0.7848"
               id="path38"
               style="fill:none;stroke:#000000;stroke-width:0.15px;stroke-linecap:round;stroke-linejoin:round" />
            <path
               class="cls-6"
               d="m 68.5494,60.1953 c 0,0 1.4727,2.2818 0.9818,3.0727 -0.4909,0.7909 -2.2636,3.1364 -1.9364,5.0727 0.3272,1.9363 2.2636,2.9182 2.7545,3.2727 0.4909,0.3545 0.2727,1.0013 0,1.2779"
               id="path39"
               style="fill:none;stroke:#000000;stroke-width:0.15px;stroke-linecap:round;stroke-linejoin:round" />
            <path
               class="cls-6"
               d="m 71.243,58.4542 c 0,0 0.9427,0.6684 0.3791,1.4684 -0.5636,0.8 -1.0364,2.1636 -0.8545,3.4364 0.1819,1.2728 0.5957,2.8807 1.0342,3.4131 0.4385,0.5324 1.2567,2.4233 0.9658,3.5869 -0.2909,1.1636 0,1.0364 -0.4182,1.5273 -0.4182,0.4909 -0.8755,0.6841 -1.745,0.5501"
               id="path40"
               style="fill:none;stroke:#000000;stroke-width:0.15px;stroke-linecap:round;stroke-linejoin:round" />
            <path
               class="cls-6"
               d="m 73.9312,72.2135 c 0,0 -0.1385,-1.1815 -1.1056,-2.2908"
               id="path41"
               style="fill:none;stroke:#000000;stroke-width:0.15px;stroke-linecap:round;stroke-linejoin:round" />
            <path
               class="cls-6"
               d="m 78.5176,57.1248 c 0,0 -0.0955,0.1705 -0.8318,-0.3205"
               id="path42"
               style="fill:none;stroke:#000000;stroke-width:0.15px;stroke-linecap:round;stroke-linejoin:round" />
            <path
               class="cls-6"
               d="m 75.313,62.7635 c 0,0 -1.2273,-2.7955 2.5091,-6.1227 0,0 0.9545,-0.9273 0.9545,-1.2 0,-0.2727 0.0818,-3.0545 0.1636,-3.4909 0.0818,-0.4364 0.0273,-0.8876 -0.5182,-0.9347 -0.5455,-0.0471 -1.6909,1.3438 -2.1818,1.6438 -0.4909,0.3 -1.0449,0.3047 -1.0449,0.3047"
               id="path43"
               style="fill:none;stroke:#000000;stroke-width:0.15px;stroke-linecap:round;stroke-linejoin:round" />
            <path
               class="cls-6"
               d="m 47.3223,66.4167 c 0,0 1.0453,-0.0334 1.5362,0.2226 0.4909,0.256 0.4909,0.6117 1.6364,0.9111 1.1455,0.2994 2.1818,0.7085 2.4,1.0085 0.2182,0.3 1.2273,0.8182 1.6909,0.8455 0.4636,0.0273 1.0149,0.0818 1.2711,0.2182 0.2562,0.1364 1.3783,0.0473 1.7289,0.1909 0.6001,0.2458 0.9696,0.6723 0.9696,0.6723"
               id="path44"
               style="fill:none;stroke:#000000;stroke-width:0.15px;stroke-linecap:round;stroke-linejoin:round" />
            <path
               class="cls-6"
               d="m 50.4949,67.5504 c 0,0 0.3636,-0.246 0.2364,-0.5006 -0.1272,-0.2546 -0.8,-1.0182 -0.8364,-1.1273 -0.0364,-0.1091 0.4,-0.6909 0.6545,-0.8545 0.2545,-0.1636 0.7273,-0.2182 0.7818,-0.2545 0.0545,-0.0363 0.717,-1.0741 1.1415,-0.9019"
               id="path45"
               style="fill:none;stroke:#000000;stroke-width:0.15px;stroke-linecap:round;stroke-linejoin:round" />
            <path
               class="cls-6"
               d="m 42.3312,62.7953 c 0.7818,0.2545 0.8,0.9091 0.9273,1.0364 0.1273,0.1273 0.4545,0.2182 0.8182,0.4545 0.3637,0.2363 0.1818,0.7091 0.2545,0.9636 0.0727,0.2545 0.4909,0.5134 0.4909,0.5134"
               id="path46"
               style="fill:none;stroke:#000000;stroke-width:0.15px;stroke-linecap:round;stroke-linejoin:round" />
            <path
               class="cls-6"
               d="m 34.085,68.3801 c 0,0 0.2826,-0.7485 0.6644,-1.0939 0.3818,-0.3454 1.0182,-1.3004 1.1455,-1.5229 0.1273,-0.2225 0.8364,-0.568 1.0364,-0.6771 0.2,-0.1091 1,-0.4909 1.2364,-0.6909 0.2364,-0.2 1.0182,-0.7818 1.3455,-0.6 0.3273,0.1818 1.0379,0.2839 1.0379,0.2839 0,0 0.3286,-0.1489 0.5236,-0.2053 0.195,-0.0564 0.5801,-0.5544 0.8009,-0.7136 0.2208,-0.1592 0.4558,-0.3649 0.4558,-0.3649 0.0257,-0.1335 -0.0909,-0.6909 -0.1455,-0.9091 -0.0546,-0.2182 0.1455,-0.6727 0.1455,-0.6727 0,0 -0.7091,-0.4909 -0.6727,-1.2182 0.0364,-0.7273 -0.7636,-3.3091 -0.5455,-3.6364 0.2181,-0.3273 1.2727,-2.6182 1.6727,-3.3455 0,0 1.2182,-1.4627 1.3818,-1.9995 0.1636,-0.5368 0.5182,-2.2823 1.3636,-3.1005 0.8454,-0.8182 2.5636,-1.9091 2.9182,-2.1273 0.3546,-0.2182 1.1749,0.7675 1.0647,1.6929"
               id="path47"
               style="fill:none;stroke:#000000;stroke-width:0.15px;stroke-linecap:round;stroke-linejoin:round" />
            <path
               class="cls-6"
               d="m 40.5509,64.0791 c 0,0 -0.7651,1.0798 -1.1651,2.2252 -0.4,1.1454 -0.8909,1.7455 -0.8727,2.2727 0.0182,0.5272 -0.0607,1.4497 -0.3031,1.7158 -0.2424,0.2661 -0.2787,3.5912 -0.3696,3.957"
               id="path48"
               style="fill:none;stroke:#000000;stroke-width:0.15px;stroke-linecap:round;stroke-linejoin:round" />
            <path
               class="cls-6"
               d="m 43.6215,51.9339 c 0,0 -0.7493,-1.5727 -0.2312,-3.0181"
               id="path49"
               style="fill:none;stroke:#000000;stroke-width:0.15px;stroke-linecap:round;stroke-linejoin:round" />
            <path
               class="cls-6"
               d="m 42.3312,61.2135 c 0,0 0.6182,0.2364 1.0909,0 0.4727,-0.2364 0.3273,-0.3636 1.0909,-0.4545 0.7636,-0.0909 1.1455,-0.0545 1.5455,-0.1636 0.4,-0.1091 0.9712,-0.4965 1.9246,-0.2001"
               id="path50"
               style="fill:none;stroke:#000000;stroke-width:0.15px;stroke-linecap:round;stroke-linejoin:round" />
          </g>
        </g>
        <path
           class="cls-2"
           d="m 67.9731,30.6126 c 2.5551,0 4.9742,0.4691 6.8672,1.01 3.6909,1.0545 7.2545,3.4727 8.3273,4.4909 1.0727,1.0182 1.6545,2.0545 1.6545,2.0545 0.2545,0.1 0.5636,0.3636 0.6091,0.5636 0.0455,0.2 -0.3091,0.9546 -0.3091,0.9546 0,0 0.8909,0.1818 0.8818,0.5273 -0.0091,0.3455 -0.3364,1.1273 -0.3364,1.1273 0,0 0.5909,0.1727 0.6727,0.4636 0.0818,0.2909 -0.291,1.1 -0.291,1.1 0.1727,0.4364 0.4,1.8273 0.4,1.8273 0,0 0.3727,0.1454 0.8,0.3273 0.4273,0.1818 0.7455,0.7 0.3546,1.1636 -0.3909,0.4637 -1.0636,1.0727 -1.2,1.8455 -0.1364,0.7727 -0.2,2.1909 -1.6182,3.4273 -2.1943,1.913 -5.6364,4.9818 -5.6364,4.9818 l -0.8054,0.5985 c 0,0 -0.0491,0.4197 -0.0673,0.7106 -0.0182,0.2909 -0.8589,2.0394 -1.2806,3.002 -0.4218,0.9626 -0.7288,2.0495 -0.8309,2.1983 -0.0218,0.0317 -0.0596,0.045 -0.1072,0.045 -0.1756,0 -0.4849,-0.1796 -0.6177,-0.2725 -0.1689,-0.1181 -0.1962,-0.2408 -0.1962,-0.2408 -0.6559,1.3185 -1.2947,4.6317 -1.2947,4.6317 0.4363,0.0546 0.5637,0.4546 0.4727,1.1273 -0.0909,0.6727 -0.5636,3.2364 -0.6727,4.1818 -0.1091,0.9455 -0.0545,1.4546 -0.5454,1.5273 -0.1779,0.0264 -0.332,0.0599 -0.5037,0.0599 -0.3021,0 -0.6588,-0.1037 -1.2963,-0.5326 -0.7588,-0.5105 -1.5489,-0.8848 -2.1878,-0.8848 -0.2031,0 -0.3909,0.0378 -0.5576,0.1212 -0.6053,0.3026 -1.8665,0.8146 -2.7444,0.8146 -0.1241,0 -0.2407,-0.0103 -0.3466,-0.0328 -0.8545,-0.1818 -2.2909,-1.5091 -3.9818,-1.6182 -1.6909,-0.1091 -3.0364,-1.5454 -3.0364,-1.5454 0,0 -0.6545,0.2364 -0.9272,0.7636 -0.2727,0.5273 0.4,0.7636 -4.1091,1.5273 -4.5091,0.7637 -8.3273,1.3091 -10.4546,1.5636 -0.2386,0.0286 -0.4609,0.0411 -0.6698,0.0411 -1.5134,0 -2.3063,-0.659 -3.2468,-0.659 -0.0869,0 -0.1751,0.0056 -0.2652,0.0179 -1.2,0.1636 -2.4,2.1091 -2.6909,2.4909 -0.291,0.3818 -1.8,0.4909 -3.0182,0.6545 -0.4981,0.0669 -1.0903,0.1855 -1.5586,0.1855 -0.6771,0 -1.0949,-0.2479 -0.5939,-1.2582 0.8475,-1.7091 1.1525,-3.0546 1.5631,-5.3636 0.4105,-2.3091 1.5712,-4.4546 1.5712,-4.4546 0,0 1.3909,-2.7636 2.0727,-4.4272 0.6818,-1.6636 4.3942,-7.6271 5.5396,-9.8634 1.1454,-2.2364 4.9695,-6.8366 8.115,-10.6746 2.8685,-3.5 5.9818,-6.2529 10.7818,-8.6893 2.3382,-1.1868 4.8877,-1.61 7.3146,-1.61 m 2e-4,-0.2502 c -2.7886,0 -5.2876,0.5508 -7.4277,1.637 -4.4261,2.2466 -7.6746,4.8646 -10.862,8.7538 l -0.6409,0.7814 c -3.0104,3.6689 -6.4224,7.8274 -7.5033,9.9377 -0.4875,0.9519 -1.4354,2.5702 -2.439,4.2835 -1.3338,2.2772 -2.7131,4.6319 -3.1094,5.5991 -0.6703,1.6358 -2.0508,4.3821 -2.0647,4.4097 -0.0447,0.0825 -1.1812,2.2011 -1.5941,4.5232 -0.4279,2.4064 -0.7366,3.6742 -1.541,5.2964 -0.2719,0.5482 -0.318,0.9534 -0.1411,1.2386 0.2361,0.3807 0.7802,0.3807 0.959,0.3807 0.3602,0 0.7739,-0.0639 1.174,-0.1258 0.1433,-0.0222 0.284,-0.0439 0.4178,-0.0619 0.2134,-0.0287 0.4359,-0.0557 0.659,-0.0827 1.382,-0.1677 2.2415,-0.2964 2.5248,-0.6681 0.0389,-0.0511 0.0937,-0.1292 0.162,-0.2269 0.3903,-0.558 1.427,-2.0401 2.3638,-2.1678 0.0786,-0.0107 0.1556,-0.0156 0.2314,-0.0156 0.3741,0 0.7352,0.1198 1.1533,0.2585 0.5657,0.1877 1.2068,0.4004 2.0934,0.4004 0.2266,0 0.462,-0.0144 0.6996,-0.0428 2.0156,-0.2412 5.8237,-0.7791 10.4666,-1.5654 3.843,-0.6508 4.0739,-0.9276 4.23,-1.4914 0.0168,-0.0608 0.0314,-0.1133 0.0594,-0.1675 0.1534,-0.2966 0.4674,-0.4888 0.6502,-0.5804 0.3854,0.3679 1.592,1.4012 3.0753,1.4969 1.0011,0.0646 1.9367,0.5971 2.6885,1.025 0.4828,0.2748 0.8998,0.5121 1.2574,0.5882 0.1193,0.0254 0.2534,0.0382 0.3986,0.0382 0.9269,0 2.2315,-0.5286 2.8562,-0.841 0.1258,-0.0629 0.2758,-0.0948 0.4458,-0.0948 0.5209,0 1.2292,0.2913 2.0483,0.8423 0.6072,0.4085 1.0233,0.5752 1.4359,0.5752 0.1519,0 0.2897,-0.0224 0.4229,-0.044 l 0.1175,-0.0185 c 0.5999,-0.0889 0.6493,-0.6226 0.712,-1.2983 0.0126,-0.1362 0.0264,-0.2854 0.0452,-0.4476 0.0643,-0.5571 0.2549,-1.6745 0.4232,-2.6604 0.1127,-0.6606 0.2121,-1.2435 0.249,-1.5166 0.0701,-0.5188 0.0154,-0.8864 -0.1674,-1.1239 -0.071,-0.0923 -0.159,-0.1632 -0.2629,-0.2122 0.1405,-0.6879 0.5928,-2.8029 1.0747,-3.9989 0.0931,0.0631 0.4688,0.3058 0.7438,0.3058 0.181,0 0.274,-0.0962 0.3134,-0.1535 0.0605,-0.0883 0.1221,-0.2632 0.2677,-0.6858 0.1474,-0.4276 0.3493,-1.0133 0.586,-1.5536 0.1167,-0.2665 0.2657,-0.5934 0.4203,-0.9328 0.5878,-1.29 0.8663,-1.9231 0.8807,-2.154 0.0122,-0.195 0.0386,-0.449 0.0541,-0.5903 l 0.7183,-0.5338 c 0.0517,-0.0447 3.4833,-3.1038 5.6516,-4.994 1.3312,-1.1605 1.535,-2.5002 1.6567,-3.3007 0.0148,-0.0975 0.0286,-0.1884 0.0433,-0.2716 0.0993,-0.5625 0.546,-1.0579 0.905,-1.456 0.0861,-0.0955 0.1677,-0.1861 0.24,-0.2718 0.2037,-0.2416 0.279,-0.5298 0.2119,-0.8115 -0.0757,-0.3175 -0.3284,-0.6023 -0.6597,-0.7433 -0.2752,-0.1171 -0.528,-0.2193 -0.6747,-0.2778 -0.0584,-0.3405 -0.2138,-1.2063 -0.3541,-1.636 0.1214,-0.2786 0.3498,-0.8679 0.2625,-1.1784 -0.0747,-0.2657 -0.3637,-0.4417 -0.5872,-0.5411 0.1039,-0.275 0.2531,-0.7131 0.2601,-0.9756 0.0099,-0.3791 -0.4417,-0.5937 -0.7833,-0.7014 0.1348,-0.3206 0.2455,-0.6612 0.2043,-0.8424 -0.0622,-0.2734 -0.3841,-0.5623 -0.6779,-0.7042 -0.1554,-0.2595 -0.7216,-1.1516 -1.6574,-2.0399 -1.1254,-1.0682 -4.7538,-3.4994 -8.4307,-4.55 -1.6279,-0.4651 -4.1528,-1.0196 -6.9359,-1.0196 v 0 z"
           id="path51"
           style="stroke-width:0px" />
      </g>
    </g>
  </g>
</svg>
