<?xml version="1.0" encoding="UTF-8" standalone="no"?>
<!-- Created with Inkscape (http://www.inkscape.org/) -->

<svg
   xmlns:svg="http://www.w3.org/2000/svg"
   xmlns="http://www.w3.org/2000/svg"
   version="1.1"
   width="913.56683"
   height="351.54974"
   id="svg2">
  <defs
     id="defs4" />
  <g
     transform="translate(68.686619,-308.89266)"
     id="layer1">
    <path
       d="m 366.2143,659.55991 c -10.6253,-2.7395 -16.5763,-8.30126 -17.245,-16.11688 -0.6895,-8.05902 -6.4952,-13.22221 -24.5179,-21.80434 -13.0422,-6.21051 -16.5829,-9.21116 -21.0404,-17.83085 -3.9819,-7.70019 -3.931,-13.77833 0.1656,-19.76447 4.6254,-6.75893 5.4852,-7.1334 19.7078,-8.58298 15.5151,-1.58133 39.8863,-8.69025 46.814,-13.65535 5.8688,-4.20611 15.519,-8.92921 16.4145,-8.03368 1.8402,1.84021 6.4586,21.69688 6.4813,27.8663 0.017,4.5524 -1.2951,7.09617 -4.866,9.43592 -6.1156,4.0071 -5.0306,5.52817 1.7421,2.44233 5.5057,-2.50854 5.5836,-2.72787 5.1295,-14.43745 -0.3815,-9.83647 -0.8199,-12.80674 -2.2528,-15.26199 -0.62,-1.06229 -1.7231,-4.41936 -2.4514,-7.46016 -0.7282,-3.04081 -6.1979,-10.4026 -12.1549,-16.35957 -10.6973,-10.69731 -14.8035,-19.40809 -12.7859,-27.12353 2.1417,-8.18978 27.0574,-12.98919 40.5737,-7.81557 2.9904,1.14466 9.3483,2.54945 14.1286,3.12175 4.7803,0.5723 9.6037,1.7705 10.7187,2.66267 1.115,0.89216 5.8952,2.23976 10.6228,2.99466 4.7276,0.7549 13.1834,3.40045 18.7907,5.879 5.6073,2.47856 11.6189,4.50646 13.359,4.50646 7.7975,0 -3.6991,-5.00902 -29.3484,-12.78698 -26.5413,-8.04848 -36.024,-14.13472 -43.9246,-28.19196 -3.7641,-6.69737 -7.2582,-9.49191 -7.2582,-5.8051 0,2.36553 5.7841,10.43199 12.7987,17.849 l 6.4277,6.79639 -20.9927,-0.0363 c -18.239,-0.0317 -21.5478,0.46515 -25.2238,3.78705 -3.3551,3.0318 -4.0962,5.52023 -3.5794,12.01858 l 0.6518,8.19517 -7.7354,-1.07391 c -11.3165,-1.57114 -12.564,-2.18632 -12.564,-6.19581 0,-4.73059 -10.2236,-18.79431 -15.8737,-21.83608 -2.4235,-1.3047 -12.9152,-3.47904 -23.315,-4.83189 -10.3998,-1.35285 -21.6987,-3.31622 -25.1086,-4.36308 -6.0279,-1.85056 -20.2368,-5.52552 -41.9313,-10.84507 -32.4045,-7.94566 -49.4552,-12.51417 -64.7028,-17.33628 -4.2492,-1.34381 -11.6369,-3.51843 -16.4172,-4.83249 -9.1232,-2.50791 -19.5713,-6.28399 -30.9028,-11.16868 -3.718,-1.60272 -9.3675,-4.01333 -12.5543,-5.35691 -9.996,-4.21429 -80.5646,-39.48849 -92.7086,-46.34104 -6.3737,-3.59652 -13.3268,-7.44407 -15.4514,-8.5501 -18.1771,-9.46288 -58.9086,-42.1105 -58.9086,-47.21715 0,-0.51831 -3.0378,-4.25002 -6.7508,-8.29271 -13.0771,-14.23863 -6.1268,-12.53358 9.6134,2.35832 24.3514,23.0391 40.5419,32.06577 89.846,50.09166 35.0188,12.8031 83.9626,24.08911 123.6114,28.50372 44.2811,4.93038 165.8698,1.1412 189.28,-5.89871 9.0131,-2.71042 18.6715,-3.10239 63.7372,-2.58669 53.2014,0.60881 82.6304,-1.17245 139.0628,-8.41711 29.4803,-3.7846 38.22498,-3.61678 57.02103,-0.7808 13.36791,2.01697 32.36857,9.83954 38.58467,12.49587 21.5432,9.20604 23.2124,9.59058 40.92693,9.42887 27.48749,-0.25093 36.29121,-5.69327 45.01602,-27.82827 4.96529,-12.59709 4.86337,-15.90446 -0.92317,-29.9515 -7.64761,-18.56492 -6.30192,-24.14286 5.82448,-24.14286 6.2974,0 13.65556,-3.46153 25.04149,-11.78039 14.41663,-10.53317 17.2936,-11.70224 23.23715,-9.44251 6.70103,2.54773 24.81855,19.83013 32.37221,30.88004 3.26777,4.78029 6.49327,9.126 7.16778,9.65715 2.08629,1.64287 9.88086,18.90292 14.47884,32.06155 5.31929,15.22287 3.70272,18.09595 -10.2768,18.2646 l -9.03632,0.10901 6.73647,2.30527 c 11.26925,3.85643 9.55547,7.66158 -5.23742,11.6287 -7.1982,1.93041 -14.39134,4.28014 -15.98477,5.22165 -13.08099,7.72909 -23.95456,11.66538 -29.10155,10.53492 -4.69109,-1.03034 -5.97186,-0.48005 -7.58124,3.25725 -2.27528,5.28364 -5.63717,10.57423 -9.67149,15.22007 -21.11081,24.31064 -33.4959,33.15895 -63.73715,45.53589 -12.76216,5.22322 -16.01052,7.48956 -19.12816,13.34538 -4.7283,8.88115 -9.486,14.22215 -24.8118,27.85385 -13.5875,12.08548 -17.0222,17.46185 -11.1554,17.46185 2.9917,0 8.7411,9.37258 8.7411,14.24961 0,1.56908 2.0558,4.46997 4.5684,6.44642 2.5127,1.97645 5.1537,5.43761 5.8691,7.69149 0.7154,2.25386 2.5707,5.15198 4.123,6.44027 1.5523,1.28828 2.8223,4.35747 2.8223,6.82043 0,2.46294 0.8692,5.01525 1.9315,5.67178 2.4856,1.5362 2.4611,7.04679 -0.061,13.68015 -1.9118,5.02813 -2.1047,5.09184 -4.7672,1.57431 -2.5383,-3.35337 -2.7801,-3.37774 -2.8363,-0.28589 -0.075,4.14509 -5.8557,4.56192 -5.8557,0.42225 0,-1.62679 -1.1795,-3.41042 -2.6212,-3.96364 -3.1504,-1.20894 -6.5706,-12.01158 -7.6378,-24.12438 -0.6206,-7.04328 -2.2178,-10.27377 -7.8784,-15.93428 -3.905,-3.90498 -7.6209,-7.09995 -8.2576,-7.09995 -0.6367,0 -2.8633,-1.95557 -4.9481,-4.34571 -2.9186,-3.34622 -3.5493,-6.12568 -2.7421,-12.08495 1.1433,-8.44054 8.3646,-25.57914 14.6427,-34.75219 5.1896,-7.58262 5.3111,-13.39218 0.1414,-6.76 -5.5379,7.10454 -15.4646,26.14269 -15.4646,29.65911 0,1.67426 -1.2506,5.89831 -2.7792,9.38678 -1.5285,3.48847 -3.2458,8.58327 -3.8162,11.32178 -0.5704,2.7385 -3.1614,7.27123 -5.7577,10.07271 -2.5963,2.8015 -5.0164,6.64491 -5.3778,8.54091 -0.3614,1.89599 -2.6038,3.72502 -4.9831,4.06446 -3.391,0.48379 -4.326,-0.33029 -4.326,-3.76628 0,-3.40938 -0.5151,-3.86842 -2.3177,-2.06576 -3.5967,3.59671 -5.7106,2.74724 -5.0466,-2.028 0.373,-2.68221 -0.3199,-4.16088 -1.81,-3.86286 -5.7643,1.15287 -1.3134,-5.59726 13.9839,-21.20751 11.4225,-11.65613 15.6714,-17.19947 14.0029,-18.26886 -2.8694,-1.83903 -13.6868,-6.00342 -21.7097,-8.35762 -3.1868,-0.93512 -11.8782,-3.49923 -19.3142,-5.698 -16.5666,-4.89861 -32.2314,-7.76483 -42.5182,-7.77968 -7.5497,-0.0116 -7.8873,-0.30169 -12.9045,-11.1169 -9.1297,-19.68029 -17.7097,-33.01999 -29.5604,-45.9593 -13.569,-14.81531 -29.2194,-27.91784 -33.3469,-27.91784 -1.8447,0 -0.9668,1.52478 2.405,4.17709 7.9971,6.29046 22.5174,19.49157 25.9627,23.60389 1.6764,2.00096 5.4596,6.18134 8.4071,9.28972 5.3875,5.68149 17.8887,26.7731 24.3912,41.15216 13.1437,29.06493 15.4355,52.73721 5.8669,60.6011 -5.4252,4.4587 -21.614,7.06742 -32.7788,5.28211 -8.8305,-1.41207 -13.8889,-3.52639 -45.3299,-18.9471 -24.5777,-12.05453 -29.1661,-14.59085 -33.3735,-18.44754 -1.4486,-1.32786 -5.1376,-2.41429 -8.1978,-2.41429 l -5.5639,0 2.7587,9.16654 c 1.5173,5.04159 3.9977,10.07246 5.5119,11.17969 4.0728,2.97811 12.7904,19.36929 12.7904,24.04909 0,2.2317 -1.521,9.23495 -3.38,15.56277 -3.3541,11.41696 -3.4563,11.52731 -13.3345,14.40208 -12.7733,3.71735 -17.0407,3.6482 -23.1818,-0.37566 -4.5952,-3.01086 -4.7056,-3.38622 -1.3807,-4.69281 2.3644,-0.92911 0.6088,-1.41537 -5.0773,-1.40625 -9.5698,0.0154 -27.3681,5.52728 -28.464,8.81496 -0.8606,2.58187 5.9735,9.88839 14.944,15.97685 3.718,2.52351 10.7787,8.27544 15.6906,12.78206 5.3115,4.8734 12.3558,9.13035 17.3828,10.50479 27.4966,7.51774 39.4975,12.97733 36.0669,16.40791 -1.8077,1.80772 -54.7088,2.70207 -61.1774,1.03428 l 10e-5,0 z m 51.9488,-70.7332 c 2.9509,-7.76148 2.2555,-25.46185 -1.2709,-32.34901 -1.7408,-3.39968 -5.6519,-9.03619 -8.6915,-12.52559 -10.9166,-12.53223 -5.7711,-15.55093 10.4371,-6.12309 15.215,8.8501 14.9515,8.71202 29.1603,15.28208 l 13.2553,6.12914 -3.855,4.21955 c -2.1203,2.32075 -5.3529,7.17978 -7.1835,10.79785 -5.8901,11.64114 -10.008,14.3001 -28.4718,18.3842 -5.0016,1.10634 -5.1762,0.90924 -3.38,-3.81513 z"
       id="path2898"
       style="fill:#000000" />
  </g>
</svg>
