<?xml version="1.0" standalone="no"?>
<!DOCTYPE svg PUBLIC "-//W3C//DTD SVG 20010904//EN"
 "http://www.w3.org/TR/2001/REC-SVG-20010904/DTD/svg10.dtd">
<svg version="1.0" xmlns="http://www.w3.org/2000/svg"
 width="2471.000000pt" height="863.000000pt" viewBox="0 0 2471.000000 863.000000"
 preserveAspectRatio="xMidYMid meet">
<metadata>
Created by potrace 1.16, written by Peter Selinger 2001-2019
</metadata>
<g transform="translate(0.000000,863.000000) scale(0.100000,-0.100000)"
fill="#000000" stroke="none">
<path d="M3874 8058 c-11 -18 16 -31 142 -68 116 -34 118 -35 79 -42 -22 -4
-340 -14 -707 -23 l-667 -15 -273 -65 c-150 -36 -277 -70 -281 -74 -5 -5 -6
-15 -2 -21 6 -9 35 -11 114 -5 58 3 104 5 101 2 -3 -3 -223 -62 -490 -131
-449 -117 -940 -262 -963 -285 -20 -20 6 -31 71 -31 37 0 72 -4 79 -8 7 -4
-67 -38 -180 -82 -412 -159 -413 -160 -607 -284 -211 -135 -219 -141 -203
-157 8 -8 37 -6 109 10 53 12 99 20 101 18 2 -3 -45 -48 -105 -101 -105 -93
-111 -99 -152 -191 -60 -133 -53 -136 107 -45 70 41 139 81 153 89 21 14 19 8
-14 -37 -70 -96 -39 -88 198 52 l214 127 169 45 c92 24 182 48 199 53 l32 9
-40 -70 c-29 -49 -37 -73 -30 -80 7 -7 85 28 260 121 l249 131 335 98 336 98
-30 -54 c-21 -37 -27 -57 -20 -64 7 -7 101 18 304 81 l293 91 420 30 c231 16
460 30 510 30 49 0 394 -22 765 -50 l675 -51 220 -57 220 -57 -95 -3 c-94 -3
-124 -12 -104 -32 6 -6 174 -35 375 -65 l364 -55 260 -86 c143 -48 264 -89
268 -91 4 -3 -17 -23 -48 -45 -62 -44 -66 -64 -14 -62 19 1 154 -12 301 -28
l267 -29 420 -144 c231 -79 433 -151 448 -159 l28 -14 -25 -6 c-14 -3 -68 -13
-120 -22 -97 -16 -122 -26 -104 -44 5 -5 178 -46 384 -90 l375 -80 358 -157
c254 -112 353 -159 340 -164 -10 -4 -76 -8 -147 -8 -126 -1 -132 -2 -287 -51
-155 -50 -181 -62 -162 -81 5 -5 121 -21 259 -34 239 -25 258 -28 466 -87 120
-34 216 -63 215 -65 -2 -1 -68 -7 -147 -14 -113 -9 -159 -17 -214 -38 -43 -16
-71 -33 -71 -41 0 -13 41 -16 255 -20 l255 -6 225 -75 c208 -70 233 -81 335
-147 87 -57 106 -73 90 -78 -59 -16 -130 -52 -130 -65 0 -12 41 -15 245 -19
l245 -5 342 -84 c189 -47 341 -86 340 -88 -2 -1 -28 -7 -57 -13 -60 -11 -80
-24 -64 -40 6 -6 167 -46 358 -90 338 -77 358 -81 719 -120 205 -22 383 -43
397 -47 18 -4 -50 -27 -234 -79 -142 -40 -264 -78 -270 -84 -22 -22 17 -30
219 -40 116 -6 221 -12 235 -13 20 -2 6 -14 -73 -61 -54 -32 -100 -63 -103
-68 -12 -19 13 -27 106 -34 l95 -7 -118 -38 c-105 -33 -136 -38 -263 -44 -79
-4 -147 -12 -150 -17 -4 -5 13 -29 36 -53 42 -43 42 -44 19 -49 -43 -9 -492
-36 -591 -36 -54 0 -100 -4 -103 -10 -8 -13 59 -95 101 -124 l32 -21 -132 -53
c-124 -50 -138 -58 -256 -157 -69 -57 -125 -110 -125 -117 0 -10 17 -12 68
-10 l68 3 -78 -73 c-43 -41 -103 -97 -133 -125 -52 -49 -54 -53 -38 -69 18
-18 14 -21 200 99 l58 37 -31 -82 c-90 -248 -84 -237 -200 -379 -60 -74 -107
-138 -105 -144 1 -5 32 -10 67 -10 68 -1 122 -12 117 -25 -2 -4 -56 -50 -122
-101 -107 -85 -121 -100 -153 -163 -46 -91 -36 -102 53 -58 l66 33 -56 -68
c-46 -55 -71 -75 -143 -113 l-88 -45 -3 -56 -3 -56 -86 -24 c-145 -40 -148
-58 -16 -86 l81 -17 -89 -130 c-72 -105 -89 -137 -89 -166 l0 -36 -107 -45
c-158 -65 -150 -73 73 -77 l181 -2 114 134 c93 110 115 131 117 113 7 -44 21
-42 75 9 28 28 124 96 212 150 156 97 163 100 302 135 l143 37 32 -61 c53 -99
61 -88 74 98 l10 160 113 295 c62 162 117 303 122 312 17 32 170 248 181 254
5 3 132 26 281 50 l272 43 468 -70 467 -70 196 26 c108 14 200 25 205 23 4 -2
-22 -43 -58 -91 -48 -64 -63 -91 -55 -99 8 -8 81 28 264 132 139 79 261 150
270 158 14 12 21 12 32 3 12 -10 23 -7 56 20 22 18 41 30 43 28 2 -2 20 -49
40 -104 31 -83 40 -126 53 -250 8 -82 20 -154 25 -160 13 -13 36 17 51 68 l12
39 28 -118 28 -119 -16 -199 -15 -198 -87 -174 c-111 -223 -108 -230 66 -116
24 15 22 11 -50 -178 -5 -14 -43 -51 -84 -84 -41 -32 -73 -63 -71 -70 6 -20
139 -67 169 -61 32 7 32 6 17 -63 -16 -78 14 -176 97 -319 61 -105 73 -133
104 -257 19 -77 40 -141 47 -143 6 -2 27 17 47 43 l36 47 0 -71 c0 -39 5 -74
10 -77 6 -4 25 3 44 14 18 12 37 21 41 21 4 0 5 -33 1 -72 -4 -61 -2 -83 17
-132 12 -33 27 -61 33 -63 5 -2 37 17 70 41 l59 45 3 -59 3 -59 74 -66 c41
-37 79 -64 84 -61 5 4 20 51 32 106 l22 100 21 -62 c20 -59 24 -64 91 -105 38
-24 74 -42 79 -40 5 2 14 21 20 42 l11 38 27 -40 27 -41 323 -6 c178 -3 475
-9 660 -12 l337 -6 22 36 c11 20 23 36 25 36 2 0 46 -21 99 -47 127 -64 136
-55 64 68 l-54 92 -95 34 -95 35 -205 -7 c-180 -6 -214 -4 -275 11 l-70 18 74
8 c77 8 103 20 85 38 -6 6 -84 31 -174 55 -176 48 -142 31 -500 250 l-96 59
-147 210 -147 210 0 140 0 139 92 341 92 341 280 385 c240 331 282 393 296
445 19 68 -1 56 198 118 61 19 112 34 112 32 0 -2 -65 -49 -145 -105 -204
-142 -198 -152 53 -81 153 44 195 61 360 147 103 53 206 108 230 122 l43 24
-57 -97 c-76 -129 -71 -133 89 -70 29 12 11 -19 -92 -160 -67 -91 -103 -153
-124 -208 -38 -98 -34 -103 66 -87 41 7 80 11 85 9 6 -2 -7 -42 -30 -92 -31
-66 -38 -91 -30 -99 9 -9 19 -5 40 15 25 24 36 27 93 27 40 0 84 8 117 20 61
23 72 24 72 8 0 -7 -66 -133 -146 -281 -115 -210 -144 -271 -134 -280 21 -20
285 264 362 390 34 56 70 104 79 106 10 3 26 22 37 43 19 36 93 108 169 164
25 18 41 44 64 107 61 162 81 142 108 -109 l21 -187 85 -171 c117 -235 127
-231 90 35 -18 127 -25 224 -25 329 0 139 2 151 21 172 19 20 22 39 28 166 l6
143 39 -53 c21 -29 43 -51 50 -49 7 2 13 49 17 130 3 70 7 129 10 131 2 2 83
47 179 100 157 86 201 105 413 175 188 63 237 76 233 63 -38 -130 -39 -182 -4
-155 7 5 92 73 188 150 132 105 231 174 401 276 125 76 229 137 233 137 3 0
-26 -64 -65 -141 -63 -127 -78 -177 -49 -167 16 5 361 312 370 328 4 8 34 83
65 165 32 83 62 156 68 162 19 25 27 1 27 -77 0 -82 12 -108 36 -76 6 9 35 74
64 144 l52 127 296 190 c163 105 312 200 332 212 33 20 71 25 336 48 l300 25
394 145 395 145 305 175 305 175 272 35 272 35 163 68 163 67 52 95 52 95 16
194 c14 166 15 195 2 209 -7 10 -60 72 -117 140 -93 110 -107 123 -142 129
-45 7 -50 11 -81 68 -21 37 -26 40 -87 51 -36 5 -84 20 -107 32 -23 12 -58 22
-77 22 -31 0 -37 5 -66 55 -17 30 -35 57 -39 59 -4 3 -50 10 -102 16 l-94 12
-157 100 -158 100 -46 -27 c-25 -15 -52 -24 -59 -21 -8 3 -56 37 -108 76 -52
38 -99 70 -105 70 -5 0 -19 -12 -30 -26 l-19 -27 -100 57 c-54 31 -102 56
-106 56 -4 0 -15 -13 -25 -29 l-18 -30 -72 56 c-68 52 -92 59 -92 27 0 -11 -7
-10 -30 7 -25 19 -31 20 -46 8 -10 -8 -19 -10 -21 -4 -2 6 -16 33 -31 60 -30
56 -55 65 -60 23 -2 -16 -7 -28 -13 -28 -5 0 -40 20 -77 44 -98 62 -104 65
-340 151 -234 85 -263 87 -202 18 l34 -38 -115 -6 c-62 -4 -163 -7 -223 -8
-107 -1 -115 -3 -350 -77 -133 -42 -249 -81 -258 -86 -28 -14 -21 -27 23 -47
l40 -18 -152 -119 -152 -119 -169 -340 -168 -340 -106 -27 -106 -26 -161 59
-162 59 -142 142 c-107 107 -145 140 -154 131 -9 -9 -5 -27 13 -75 l25 -64
-228 82 c-125 45 -233 85 -241 90 -7 5 -112 78 -233 162 -120 85 -225 156
-232 159 -23 9 -24 -21 -4 -80 19 -53 19 -58 3 -53 -9 3 -187 48 -396 101
l-379 96 -595 75 c-666 83 -681 83 -545 2 l48 -28 -135 5 c-305 12 -1005 26
-1815 35 -688 8 -989 16 -1503 40 -354 17 -647 28 -653 25 -17 -11 -9 -25 29
-44 l37 -20 -29 -1 c-16 0 -342 -22 -725 -50 l-696 -50 -875 110 -874 109
-344 152 c-250 111 -346 149 -354 141 -8 -8 1 -31 36 -83 26 -39 46 -72 44
-74 -6 -6 -1408 274 -1611 321 -135 31 -202 43 -209 36 -16 -16 -4 -27 87 -78
47 -26 83 -49 82 -51 -2 -2 -371 53 -820 122 l-816 124 -645 51 c-355 27 -650
50 -655 50 -6 0 -13 -5 -17 -12z"/>
</g>
</svg>
