<?xml version="1.0" standalone="no"?>
<!DOCTYPE svg PUBLIC "-//W3C//DTD SVG 20010904//EN"
 "http://www.w3.org/TR/2001/REC-SVG-20010904/DTD/svg10.dtd">
<svg version="1.0" xmlns="http://www.w3.org/2000/svg"
 width="1536.000000pt" height="577.000000pt" viewBox="0 0 1536.000000 577.000000"
 preserveAspectRatio="xMidYMid meet">
<metadata>
Created by potrace 1.16, written by Peter Selinger 2001-2019
</metadata>
<g transform="translate(0.000000,577.000000) scale(0.100000,-0.100000)"
fill="#000000" stroke="none">
<path d="M1021 5724 c-48 -37 -57 -40 -64 -21 -3 6 -30 -40 -60 -103 -37 -76
-56 -106 -56 -90 0 14 9 45 20 70 12 25 25 56 30 69 9 21 8 22 -6 11 -24 -20
-50 -75 -75 -157 -15 -51 -27 -72 -41 -76 -13 -3 -19 -14 -20 -34 l-1 -28 -9
25 c-8 22 -7 -16 4 -135 3 -27 -137 -153 -210 -192 -29 -16 -53 -33 -53 -39 0
-5 -13 -23 -30 -39 -16 -15 -29 -31 -28 -34 2 -23 -20 -54 -51 -73 -20 -12
-82 -50 -139 -85 -56 -36 -114 -67 -129 -69 -14 -3 -34 -9 -43 -14 -25 -13
-50 -72 -57 -131 -5 -43 -3 -54 12 -65 27 -20 60 -17 124 11 31 13 110 41 176
60 66 20 180 58 252 86 73 27 147 52 165 56 29 6 31 5 20 -9 -20 -24 -185 -89
-430 -168 -122 -40 -225 -76 -228 -81 -3 -5 7 -22 23 -38 47 -46 119 -48 363
-10 191 30 358 -3 306 -60 -22 -25 -21 -55 2 -49 15 4 17 0 14 -23 -3 -18 0
-29 7 -29 9 0 9 -5 1 -21 -10 -18 -9 -20 7 -17 11 2 24 20 33 48 26 75 27 77
38 61 6 -8 6 -28 0 -53 -12 -57 -4 -71 15 -25 20 47 27 47 20 0 -5 -28 -3 -34
7 -28 8 5 10 21 6 51 -3 26 -2 44 4 44 6 0 11 -26 11 -57 2 -51 3 -54 8 -20
10 60 26 43 23 -24 -3 -66 11 -74 23 -13 11 61 28 25 21 -45 -14 -144 -16
-186 -7 -164 6 12 15 50 21 85 13 74 29 120 40 113 10 -6 3 -66 -21 -179 -11
-49 -18 -90 -16 -93 8 -8 49 100 74 198 17 66 31 99 40 99 12 0 13 -13 6 -72
-11 -109 -8 -210 8 -238 13 -23 14 -17 16 70 3 106 9 140 23 140 6 0 10 -46
10 -112 0 -123 19 -192 21 -78 l1 65 9 -50 c4 -27 15 -55 23 -61 9 -6 21 -35
27 -65 15 -71 47 -137 71 -150 11 -6 18 -7 16 -2 -35 71 -48 106 -54 143 -9
62 9 43 46 -48 27 -66 67 -116 116 -145 16 -9 12 2 -33 88 -30 58 -56 135 -49
143 2 2 12 -21 21 -50 18 -55 54 -122 62 -115 2 3 -11 43 -30 89 -49 123 -54
154 -9 72 40 -75 98 -154 113 -154 4 0 6 8 3 18 -3 9 6 -1 19 -23 46 -73 58
-85 82 -85 24 0 24 2 -20 66 -26 37 -45 77 -45 92 0 23 8 15 48 -48 46 -71
128 -157 139 -146 3 3 1 19 -5 35 -11 32 -5 40 17 19 7 -7 3 7 -8 32 -32 71
-25 93 10 30 17 -30 28 -47 25 -37 -21 67 -23 63 51 70 183 18 201 11 299
-110 210 -262 338 -355 546 -398 38 -8 92 -15 119 -15 l49 0 0 -36 c0 -46 28
-93 60 -101 36 -8 68 -40 103 -101 16 -30 45 -63 63 -75 30 -19 74 -89 74
-117 0 -5 13 -24 29 -42 22 -26 28 -42 28 -74 -1 -30 7 -53 32 -92 18 -28 41
-73 51 -99 l18 -48 8 40 c5 22 9 68 9 103 0 34 1 62 3 62 2 0 19 -35 38 -77
20 -43 48 -105 65 -138 16 -33 33 -84 39 -114 7 -38 20 -64 45 -92 24 -27 35
-49 35 -71 0 -17 12 -60 26 -96 14 -36 23 -73 21 -84 -10 -37 21 1 39 48 l17
45 19 -58 c11 -32 46 -114 78 -183 32 -69 61 -142 65 -163 12 -72 56 -57 69
24 6 35 25 69 39 69 2 0 7 -14 11 -32 6 -30 31 -68 46 -68 12 0 50 78 50 104
0 16 6 26 14 26 17 0 42 101 52 206 9 98 -10 212 -41 244 -33 34 -32 47 2 21
14 -12 28 -19 30 -17 7 7 -15 230 -28 280 -7 29 -25 62 -45 83 -19 20 -34 42
-34 50 0 8 -6 26 -14 41 -8 16 -19 70 -25 122 -7 66 -16 103 -30 121 -16 21
-18 34 -12 56 9 32 -4 84 -34 129 -16 25 -16 25 11 22 19 -2 30 -10 34 -28 32
-115 55 -171 146 -358 75 -153 134 -258 213 -375 147 -218 393 -670 501 -919
25 -58 39 -78 56 -82 22 -6 24 -12 24 -71 0 -72 5 -76 68 -54 67 23 67 12 3
-116 -73 -144 -163 -268 -260 -354 -40 -35 -90 -90 -112 -122 -43 -64 -62 -75
-53 -30 8 38 -18 87 -59 107 -41 22 -108 22 -141 0 -33 -21 -34 -38 -2 -30 59
14 96 -30 96 -114 0 -99 -79 -205 -185 -249 -177 -74 -245 -86 -407 -68 l-78
8 -53 -36 c-33 -21 -60 -49 -70 -70 -18 -38 -23 -117 -8 -117 6 0 31 18 56 40
25 22 50 40 55 40 5 0 4 -16 -1 -35 -7 -23 -6 -41 1 -55 13 -24 23 -25 41 -4
7 9 24 20 38 26 46 17 201 26 277 15 60 -8 83 -7 132 7 54 15 62 15 106 0 47
-16 95 -16 209 2 32 5 37 4 37 -14 0 -20 1 -20 32 -4 19 9 51 15 78 13 160 -9
614 2 665 17 34 10 47 39 63 142 17 114 77 212 155 251 l40 21 34 -38 c47 -54
73 -96 73 -117 0 -11 9 -30 19 -44 l20 -24 8 38 c4 21 8 62 8 91 0 45 -4 56
-24 71 -22 17 -23 22 -15 67 5 27 8 87 7 134 -3 113 13 216 49 319 39 111 184
400 214 428 30 28 30 42 0 131 -20 58 -22 72 -10 72 17 0 18 14 2 43 -6 12
-15 61 -18 109 -4 58 -12 94 -22 105 -24 28 -32 78 -15 105 8 13 19 75 26 139
12 122 23 168 51 209 19 27 70 249 70 304 0 19 8 40 18 49 37 33 157 88 270
123 64 19 140 46 168 60 37 18 78 27 155 34 157 13 267 70 223 115 -16 15 -13
20 31 65 27 27 57 50 68 52 11 2 22 9 25 17 4 11 -3 12 -32 7 -51 -10 -45 0
17 28 52 23 95 60 80 69 -4 2 -23 8 -40 12 -60 12 -47 26 22 24 65 -2 100 11
74 27 -8 5 0 11 26 18 44 13 56 31 25 41 -30 10 -16 22 42 35 29 7 63 18 75
26 12 8 31 14 41 14 11 0 25 7 32 16 23 26 46 34 136 43 62 6 94 15 115 30 16
12 43 21 63 21 20 0 104 11 188 24 117 19 190 25 313 25 107 -1 212 6 318 20
88 12 214 26 280 31 67 6 145 16 174 22 106 23 278 -29 587 -178 196 -93 420
-187 591 -247 72 -25 195 -72 275 -105 80 -34 158 -62 174 -64 25 -3 30 2 41
31 20 59 32 51 68 -40 14 -34 19 -37 100 -58 l86 -23 34 21 c43 26 79 27 102
1 10 -11 26 -20 36 -20 10 0 21 -10 24 -22 23 -76 144 -130 239 -108 31 7 42
5 50 -5 35 -46 177 -60 248 -24 l40 21 32 -30 c77 -74 157 -82 266 -27 66 33
70 34 104 20 49 -21 96 -19 153 6 71 31 120 30 173 -5 42 -28 46 -28 149 -24
107 5 181 25 181 49 0 6 14 36 31 66 l31 54 18 -33 c9 -18 32 -43 51 -55 19
-12 48 -33 65 -47 77 -63 153 -69 291 -22 148 50 168 63 180 109 7 23 23 53
36 65 l25 23 21 -34 c41 -67 140 -122 266 -148 57 -11 66 -10 141 15 95 31
148 65 171 109 10 20 19 67 22 127 6 94 6 95 33 98 25 3 28 -1 39 -42 10 -41
14 -46 39 -46 32 0 52 -16 69 -57 15 -35 119 -98 187 -113 39 -9 63 -8 122 5
105 24 138 40 199 98 80 76 87 93 80 210 -5 89 -4 98 11 92 127 -50 328 2 435
113 l39 40 -80 31 c-88 33 -227 76 -288 87 -22 4 -72 20 -111 35 -112 44 -294
93 -588 158 -316 70 -337 74 -600 101 -217 22 -646 77 -900 115 -88 13 -194
26 -235 30 -41 4 -106 15 -145 25 -154 41 -295 61 -524 75 -130 8 -256 17
-281 20 -25 3 -216 10 -425 15 -209 6 -441 17 -515 25 -74 8 -234 26 -355 39
-121 14 -391 35 -600 46 -209 11 -474 27 -590 35 -693 49 -750 54 -880 81 -38
8 -131 21 -205 30 -74 8 -173 21 -220 30 -47 8 -157 19 -245 24 -217 12 -561
67 -907 146 -108 25 -257 56 -333 69 -75 14 -166 33 -203 44 -87 26 -278 41
-505 41 -222 0 -333 -10 -688 -61 -152 -21 -289 -39 -305 -39 -16 0 -85 -14
-154 -30 -101 -24 -163 -32 -320 -41 -259 -13 -890 -113 -1020 -161 -172 -64
-155 -61 -310 -55 -156 5 -213 18 -312 68 -67 34 -144 109 -181 176 -30 56
-63 172 -73 258 -3 33 -12 67 -19 75 -7 8 -18 35 -25 60 -26 100 -79 190 -166
280 -46 48 -84 93 -84 100 0 8 -19 42 -42 77 -31 46 -48 63 -64 63 -13 0 -26
5 -29 10 -3 6 1 10 9 10 24 0 19 19 -6 24 -13 3 -43 10 -68 15 -25 5 -37 9
-27 10 23 1 22 17 -3 24 -11 3 -20 12 -20 20 0 19 -30 27 -109 27 -58 0 -62 1
-50 17 13 15 8 16 -59 10 -62 -5 -73 -4 -68 9 7 18 8 18 -58 -12 -67 -30 -86
-25 -30 8 35 21 37 23 16 26 -13 2 -52 -10 -89 -27 -76 -36 -73 -35 -73 -16 0
8 15 22 33 31 17 10 26 19 19 21 -6 3 -35 -7 -64 -21 -29 -14 -59 -26 -67 -26
-29 0 -79 -38 -111 -85 -18 -25 -34 -44 -37 -41 -12 12 10 58 53 111 25 31 44
58 42 60 -2 2 -23 -12 -47 -31z m4432 -4280 l12 -109 13 43 c21 69 31 59 53
-55 13 -70 33 -83 50 -34 8 21 18 30 40 33 26 4 32 1 41 -21 15 -39 -4 -145
-45 -242 -72 -174 -158 -363 -187 -413 -50 -87 -135 -190 -171 -208 -40 -20
-102 -23 -117 -5 -6 7 -10 42 -10 79 0 84 -15 130 -55 164 -27 22 -38 25 -79
22 -46 -5 -48 -4 -42 16 4 12 16 35 28 51 23 34 213 252 291 335 29 31 60 71
70 89 12 23 19 30 25 21 17 -27 25 19 28 155 2 77 8 144 13 150 5 5 9 20 9 34
0 18 3 22 11 14 5 -5 16 -59 22 -119z m-454 -830 c16 -20 21 -41 21 -85 0 -32
4 -68 9 -81 5 -13 12 -54 16 -91 7 -66 7 -67 -20 -77 -15 -6 -39 -19 -54 -29
-20 -14 -54 -20 -153 -26 -71 -4 -128 -4 -128 -1 0 16 59 97 109 149 l56 59
21 -46 22 -47 25 31 c33 38 39 74 35 183 -3 95 5 107 41 61z"/>
</g>
</svg>
