<?xml version="1.0" standalone="no"?>
<!DOCTYPE svg PUBLIC "-//W3C//DTD SVG 20010904//EN"
 "http://www.w3.org/TR/2001/REC-SVG-20010904/DTD/svg10.dtd">
<svg version="1.0" xmlns="http://www.w3.org/2000/svg"
 width="4465.000000pt" height="1603.000000pt" viewBox="0 0 4465.000000 1603.000000"
 preserveAspectRatio="xMidYMid meet">
<metadata>
Created by potrace 1.16, written by Peter Selinger 2001-2019
</metadata>
<g transform="translate(0.000000,1603.000000) scale(0.100000,-0.100000)"
fill="#000000" stroke="none">
<path d="M2489 16010 c-14 -8 -108 -16 -279 -24 -31 -2 -77 -13 -104 -24 -37
-17 -52 -19 -68 -11 -25 14 -80 1 -173 -41 -37 -16 -95 -37 -130 -45 -35 -8
-91 -28 -126 -45 -45 -22 -66 -27 -75 -19 -16 13 -80 -8 -178 -58 -39 -20 -91
-40 -116 -44 -65 -11 -418 -147 -535 -206 -33 -17 -85 -38 -115 -47 -30 -9
-116 -49 -190 -89 -74 -40 -148 -80 -164 -87 -102 -51 -226 -244 -226 -351 0
-15 13 -53 30 -84 20 -38 30 -72 30 -101 0 -50 24 -79 73 -88 108 -18 123 -17
242 13 162 40 322 53 505 41 210 -15 300 -27 318 -43 20 -17 60 -28 117 -33
83 -7 133 -16 225 -41 53 -14 122 -25 155 -25 33 0 89 -6 125 -14 36 -8 75
-16 88 -18 13 -2 28 -8 35 -15 6 -6 22 -11 36 -11 15 0 35 -7 45 -15 17 -13
21 -13 30 0 10 13 16 13 48 -5 21 -11 59 -25 85 -30 27 -6 60 -20 76 -31 29
-21 47 -18 47 9 0 12 3 13 11 5 7 -7 25 -9 40 -6 16 3 35 1 42 -5 7 -6 40 -18
73 -26 81 -20 191 -53 205 -61 6 -4 15 -2 19 5 9 15 50 5 183 -44 38 -13 74
-23 81 -20 6 2 30 -11 53 -31 23 -19 52 -35 66 -35 13 0 30 -7 37 -15 7 -8 20
-15 29 -15 10 0 32 -16 51 -35 22 -23 43 -35 61 -35 14 0 32 -7 39 -15 7 -8
18 -15 26 -15 7 0 32 -23 55 -50 29 -35 49 -50 63 -48 12 1 30 -3 41 -9 12 -6
28 -11 37 -10 21 3 142 -105 185 -165 24 -33 42 -48 57 -48 23 0 59 -33 89
-82 11 -17 26 -28 40 -28 15 0 42 -23 82 -69 33 -38 69 -71 80 -75 21 -5 88
-99 124 -173 13 -27 28 -43 42 -45 14 -2 40 -30 73 -78 37 -54 58 -76 76 -78
14 -2 39 -18 56 -36 17 -18 35 -35 41 -37 5 -2 31 -37 58 -77 26 -41 59 -78
72 -83 13 -5 38 -31 55 -59 17 -27 37 -50 44 -50 14 0 64 -89 64 -114 0 -21
62 -150 77 -159 7 -4 13 -18 13 -31 0 -13 6 -29 14 -35 8 -7 23 -35 33 -63 11
-31 26 -53 39 -58 23 -9 54 -100 54 -157 0 -41 9 -63 25 -63 8 0 19 -16 25
-35 6 -19 20 -39 29 -45 12 -6 25 -36 36 -82 25 -106 101 -320 147 -418 22
-47 57 -128 78 -180 30 -74 43 -96 60 -98 12 -2 25 -15 31 -30 6 -15 18 -45
29 -67 10 -22 26 -67 35 -100 9 -33 25 -65 36 -73 10 -7 19 -22 19 -33 0 -14
7 -19 29 -19 27 0 29 -3 40 -60 8 -38 17 -60 26 -60 7 0 27 -13 43 -30 17 -16
35 -30 40 -30 6 0 13 -15 17 -32 4 -18 20 -53 35 -78 15 -25 31 -56 35 -70 12
-38 36 -71 59 -79 12 -5 28 -30 42 -67 15 -42 28 -60 43 -64 16 -4 32 -28 61
-95 35 -83 40 -90 66 -90 26 0 29 -5 40 -50 16 -75 40 -115 68 -115 19 0 28
-10 46 -57 29 -73 39 -86 63 -79 14 3 21 -3 29 -25 5 -16 18 -34 28 -39 11 -6
21 -27 25 -50 5 -31 13 -44 31 -50 13 -5 24 -16 24 -23 0 -8 10 -34 23 -58 13
-24 29 -70 36 -102 12 -55 14 -58 37 -53 39 10 79 -37 99 -115 27 -109 35
-125 61 -140 14 -7 37 -35 50 -61 13 -26 30 -48 38 -48 7 0 27 -30 45 -67 17
-38 35 -75 40 -83 6 -8 26 -51 45 -95 28 -63 40 -81 58 -83 19 -2 29 -18 52
-78 16 -41 41 -90 55 -108 14 -19 43 -61 64 -95 23 -37 44 -61 55 -61 17 0 92
-111 107 -158 11 -38 55 -82 81 -82 18 0 29 -9 40 -33 9 -18 25 -37 37 -43 13
-5 32 -35 49 -77 15 -38 39 -82 53 -98 14 -17 25 -35 25 -39 0 -21 91 -157
117 -176 16 -12 40 -42 53 -68 18 -33 31 -46 47 -46 16 0 30 -13 49 -47 87
-151 126 -211 142 -215 10 -3 47 -64 90 -145 90 -176 143 -243 187 -243 32 0
85 -38 85 -60 0 -6 10 -10 23 -8 27 3 101 -55 111 -88 4 -12 20 -27 35 -34 16
-6 39 -22 51 -35 13 -14 45 -32 72 -41 35 -11 59 -29 90 -65 43 -51 75 -66 63
-29 -3 11 -2 20 3 20 6 0 13 -12 17 -27 6 -26 31 -52 49 -53 4 0 5 11 2 25 -8
33 2 32 15 -2 7 -19 13 -23 18 -15 5 9 11 5 21 -13 7 -14 22 -25 32 -25 10 0
18 -5 18 -11 0 -6 8 -8 19 -4 21 6 51 -7 88 -39 12 -10 26 -16 31 -12 5 3 24
-5 43 -18 48 -32 158 -65 253 -77 45 -5 100 -17 123 -25 29 -11 46 -13 59 -6
21 12 62 1 159 -40 39 -16 79 -33 90 -38 11 -4 34 -7 50 -6 34 2 35 1 114 -75
42 -40 64 -72 79 -111 24 -65 47 -207 39 -247 -3 -16 -3 -32 1 -36 4 -4 8 -32
9 -63 0 -32 2 -64 2 -72 1 -8 0 -60 -3 -115 -3 -66 -1 -102 6 -106 8 -5 6 -35
-5 -102 -9 -52 -13 -104 -10 -116 3 -12 -1 -50 -8 -84 -7 -34 -12 -66 -11 -71
6 -19 -21 -165 -48 -261 -55 -196 -82 -318 -81 -369 0 -15 -17 -65 -39 -109
-22 -45 -40 -86 -40 -92 -1 -5 -14 -26 -30 -45 -17 -19 -30 -44 -30 -55 0 -12
-11 -31 -25 -43 -14 -12 -25 -31 -25 -42 0 -12 -16 -30 -42 -46 -41 -26 -69
-36 -149 -53 -41 -9 -88 -40 -89 -59 0 -11 -10 -33 -32 -72 -4 -8 -12 -25 -18
-37 -11 -25 -33 -39 -98 -59 -77 -23 -144 -18 -228 17 -41 17 -77 29 -80 26
-3 -3 9 -27 27 -54 59 -89 174 -143 314 -148 101 -3 135 -13 145 -40 14 -38
136 -63 164 -35 13 13 43 13 51 1 3 -5 0 -31 -6 -58 -5 -26 -12 -70 -14 -96
-4 -48 -3 -49 21 -43 15 4 23 3 20 -3 -8 -13 4 -42 15 -35 5 3 9 -4 9 -15 0
-10 5 -21 11 -23 19 -6 -7 -48 -59 -95 l-47 -43 33 0 c49 0 96 24 147 74 38
38 49 45 65 36 10 -5 32 -7 49 -4 20 4 31 2 31 -5 0 -18 27 -13 35 7 6 15 8
15 16 -5 5 -15 14 -21 23 -17 14 5 14 0 0 -48 -20 -65 -26 -78 -53 -102 -27
-24 -27 -36 -1 -36 50 0 121 62 159 138 12 23 25 41 29 38 16 -9 82 67 82 95
0 19 48 114 65 129 8 7 15 28 15 49 0 30 9 44 50 85 28 27 50 56 50 63 0 23
31 62 45 57 7 -3 16 -28 20 -55 6 -40 12 -53 31 -61 19 -9 28 -8 41 4 10 8 26
18 36 21 9 4 17 14 17 24 1 17 1 17 11 0 18 -30 37 -2 45 64 4 40 11 59 20 59
13 0 19 27 16 78 0 15 8 27 28 37 25 13 28 19 21 38 -29 78 -18 103 18 42 11
-19 27 -35 35 -35 7 0 17 -7 20 -16 4 -10 13 -13 27 -9 13 4 27 1 39 -10 18
-17 21 -16 49 11 33 31 34 49 7 124 -10 25 -24 72 -33 105 -9 33 -24 72 -34
87 -23 32 -24 49 -4 42 16 -6 21 11 6 20 -5 3 -11 14 -14 25 -3 14 -1 18 11
14 12 -5 14 -1 6 23 -4 16 -9 52 -10 79 0 28 -4 60 -8 73 -5 14 -1 40 9 66 13
34 14 49 6 64 -16 30 -14 87 4 102 8 7 15 28 15 46 0 24 5 34 15 34 8 0 15 6
15 14 0 7 7 19 15 26 10 8 15 30 15 60 0 61 7 80 30 80 35 0 84 106 103 225
11 66 14 70 38 71 15 1 34 4 43 7 15 6 15 9 1 36 -20 40 -19 82 4 134 11 23
22 53 26 67 4 14 16 32 27 41 15 11 21 30 24 70 5 80 15 123 31 133 11 6 13
18 8 42 -3 19 -2 34 2 34 4 0 13 12 20 26 10 22 9 36 -7 85 -25 73 -25 72 5
65 28 -7 33 10 15 44 -7 13 -4 31 11 65 18 42 19 52 9 97 -12 46 -11 50 9 64
l21 15 -22 38 c-19 33 -20 43 -10 65 14 31 56 50 90 41 13 -3 30 0 38 6 11 9
18 9 26 1 15 -15 48 -16 48 -2 0 15 21 12 41 -6 22 -20 49 -12 56 16 7 27 41
25 77 -4 16 -14 35 -22 41 -19 7 2 28 -5 46 -16 39 -24 59 -27 59 -8 0 18 46
37 59 24 7 -7 15 -6 26 3 12 10 19 9 40 -4 31 -21 59 -21 51 -1 -4 13 -2 13
14 5 10 -5 29 -10 42 -10 13 0 29 -5 35 -11 7 -7 40 -12 75 -12 36 0 72 -6 84
-13 11 -8 23 -11 27 -8 13 13 87 11 98 -2 7 -8 31 -14 60 -14 26 0 51 -5 54
-10 9 -15 35 -12 35 4 0 22 23 25 50 6 31 -21 84 -32 117 -24 19 5 24 12 20
30 -4 22 -3 22 22 10 14 -8 35 -23 45 -35 23 -25 30 -26 50 -5 14 14 20 13 62
-6 52 -22 65 -19 46 10 -14 24 -9 25 21 6 13 -8 41 -13 67 -11 27 1 54 -3 67
-12 16 -11 23 -12 23 -3 0 7 8 9 20 5 42 -13 104 -15 112 -2 5 9 14 8 37 -6
37 -22 44 -22 36 3 -6 18 -2 19 72 16 43 -1 84 2 91 7 9 7 24 7 45 -1 20 -7
44 -8 62 -3 18 4 39 4 52 -2 16 -7 27 -6 38 3 11 9 19 10 28 1 8 -6 35 -9 60
-7 31 2 51 -1 58 -10 18 -22 26 -17 33 21 7 35 7 35 32 19 20 -14 30 -15 50
-5 21 9 32 8 61 -6 33 -15 36 -15 48 0 15 21 39 22 55 2 18 -22 43 -19 37 4
-6 24 37 38 59 20 8 -6 27 -9 43 -6 19 4 33 1 41 -8 17 -20 33 -19 50 5 10 14
17 16 27 9 7 -6 18 -9 25 -6 7 2 32 -4 56 -15 57 -24 62 -23 62 9 0 21 3 24
12 15 18 -18 30 -14 23 8 -8 24 11 27 40 6 12 -8 33 -12 50 -9 44 8 107 7 133
-2 18 -6 22 -4 22 15 0 20 3 22 38 15 20 -3 47 -13 59 -21 31 -20 41 -18 45 9
3 19 9 22 48 23 25 1 53 -3 63 -8 13 -7 24 -2 43 17 14 15 27 25 29 23 1 -2 8
-13 14 -25 14 -28 37 -30 50 -4 7 13 18 17 36 14 18 -4 25 -1 25 11 0 20 24
21 40 1 19 -23 31 -18 28 13 -2 21 2 28 20 30 12 2 22 10 22 18 0 18 5 18 35
-2 22 -14 26 -14 62 7 l39 22 32 -23 c29 -22 33 -22 49 -8 12 11 48 19 103 23
47 4 92 11 101 16 42 21 213 41 240 28 27 -14 31 3 6 25 -12 12 -16 17 -8 11
8 -5 48 -11 90 -12 46 0 98 -9 131 -20 48 -17 55 -23 58 -49 2 -16 10 -44 18
-62 9 -19 18 -68 21 -110 2 -42 10 -87 16 -100 8 -16 8 -37 0 -73 -8 -40 -7
-54 4 -64 28 -28 13 -263 -22 -347 -5 -12 -2 -20 9 -24 13 -5 16 -21 16 -78 0
-48 5 -79 15 -92 8 -10 15 -31 15 -46 0 -15 5 -30 10 -33 6 -3 10 -19 10 -35
0 -16 5 -41 11 -57 11 -28 13 -39 23 -128 6 -55 25 -123 38 -141 20 -27 10
-104 -27 -220 -5 -18 -1 -23 24 -32 35 -12 37 -20 16 -48 -17 -22 -20 -54 -5
-54 6 0 3 -11 -5 -24 -15 -22 -15 -25 0 -33 12 -7 14 -15 6 -35 -6 -17 -6 -29
2 -37 8 -8 7 -17 -3 -36 -17 -31 -9 -40 20 -25 18 10 21 10 14 -2 -12 -19 -34
-80 -34 -97 0 -10 8 -7 25 9 32 30 32 11 -1 -41 -33 -52 -24 -63 10 -12 25 35
26 36 26 12 0 -14 -7 -34 -15 -45 -19 -25 -19 -58 1 -75 10 -9 14 -23 11 -43
l-5 -31 11 28 c6 15 14 27 19 27 11 0 10 -1 -7 -50 -8 -23 -15 -44 -15 -46 0
-1 15 0 33 2 47 8 87 -10 87 -39 0 -14 13 -65 30 -115 23 -69 32 -123 40 -229
12 -148 5 -453 -11 -568 -10 -68 -28 -183 -48 -317 -13 -81 -45 -199 -77 -286
-14 -35 -30 -87 -36 -116 -20 -97 -231 -480 -345 -627 -43 -56 -220 -226 -331
-318 -35 -29 -95 -68 -135 -86 -92 -44 -108 -57 -116 -97 -5 -28 -15 -37 -61
-60 -111 -55 -265 -119 -334 -139 -208 -58 -268 -71 -361 -76 -55 -3 -111 -11
-125 -18 -14 -7 -47 -11 -75 -9 -27 2 -93 -4 -145 -13 -160 -27 -301 -109
-341 -197 -17 -38 -26 -116 -13 -116 3 0 27 18 53 40 42 36 58 42 132 54 46 8
87 11 90 7 3 -3 11 -25 18 -48 19 -69 64 -107 149 -128 55 -13 88 -16 130 -10
32 4 77 7 102 6 180 -7 240 -5 252 6 17 18 38 16 89 -6 38 -16 56 -17 133 -10
50 5 92 6 94 4 7 -7 -79 -81 -182 -157 -50 -36 -102 -78 -116 -92 -14 -14 -46
-39 -71 -54 -34 -22 -57 -49 -91 -108 -64 -110 -97 -214 -67 -214 6 0 32 18
57 41 26 23 63 49 83 59 l36 19 38 -27 c36 -26 43 -27 165 -27 114 1 130 3
166 24 25 16 53 23 79 22 22 0 73 6 114 15 59 13 81 24 108 50 30 30 40 34 86
34 85 0 212 78 238 147 7 19 16 23 54 23 61 0 164 50 204 98 17 20 37 44 45
53 7 9 38 26 67 37 30 11 84 37 121 58 54 31 77 53 117 110 60 86 71 123 71
239 0 192 69 433 163 571 18 27 59 96 90 154 36 66 82 131 122 175 36 38 65
73 65 78 0 4 79 89 176 189 153 157 182 192 212 255 31 66 35 87 43 196 11
140 8 165 -32 304 -51 179 -61 252 -61 458 -1 160 3 213 25 335 38 217 101
340 172 340 19 0 36 4 40 9 3 5 19 12 35 16 17 4 30 11 30 16 0 5 9 9 21 9 15
0 20 5 18 23 -2 12 0 28 4 34 5 7 1 25 -8 41 -24 40 -7 82 30 74 24 -4 26 -3
19 23 -6 25 -5 26 14 16 31 -16 35 2 11 44 -12 20 -20 37 -18 38 2 1 25 13 52
27 40 21 47 29 47 55 0 56 9 72 36 67 13 -2 31 -2 39 2 14 5 14 9 1 41 -13 30
-13 38 -1 62 8 16 15 38 15 50 0 16 7 22 28 25 21 2 27 8 25 25 -4 36 14 70
43 85 15 7 30 20 34 28 21 45 29 55 50 58 28 5 81 64 97 109 7 19 25 50 40 68
16 18 39 49 53 69 17 24 30 34 43 30 24 -7 35 25 14 41 -21 15 -21 29 -2 45 8
7 15 21 15 32 0 17 5 19 34 14 l33 -6 -5 50 c-3 35 0 57 11 73 10 16 12 28 6
34 -20 20 0 39 36 35 34 -4 50 13 23 24 -19 7 -23 114 -4 114 16 0 28 24 20
43 -6 17 41 61 60 54 22 -9 27 3 12 32 -17 32 -21 70 -11 93 5 14 11 15 26 7
21 -11 39 -5 39 14 0 7 -14 30 -30 51 -17 22 -30 42 -30 46 0 3 15 6 34 6 24
0 43 8 62 27 l27 28 -31 45 c-36 50 -39 62 -17 70 8 4 15 16 15 28 0 12 10 32
21 45 18 19 21 32 17 72 -5 46 -3 50 27 74 28 21 40 23 83 18 32 -3 52 -1 56
6 9 14 98 14 130 -1 14 -6 39 -35 56 -65 17 -29 37 -53 46 -53 8 0 26 -12 39
-26 13 -14 28 -23 33 -20 5 3 17 -15 27 -39 9 -25 25 -51 36 -59 11 -7 26 -36
34 -64 10 -33 25 -58 42 -69 14 -10 35 -27 47 -39 11 -11 29 -23 39 -27 9 -3
17 -12 17 -20 0 -7 7 -36 15 -64 12 -39 23 -56 49 -71 24 -15 35 -29 40 -56 4
-19 18 -49 32 -66 19 -22 28 -48 34 -96 9 -69 26 -98 64 -108 12 -3 28 -16 34
-30 6 -13 24 -29 40 -37 17 -7 38 -31 52 -57 13 -24 35 -51 49 -60 14 -9 39
-27 55 -39 17 -14 36 -21 46 -18 14 4 24 -5 42 -37 13 -23 34 -48 48 -55 14
-7 33 -22 43 -34 16 -20 18 -20 42 -5 23 15 26 15 31 1 4 -9 18 -22 33 -29 15
-8 44 -30 66 -50 21 -20 44 -36 50 -36 6 0 19 -16 28 -35 9 -18 28 -42 42 -51
36 -24 86 -73 119 -117 15 -21 38 -43 50 -49 13 -5 30 -23 40 -39 10 -16 43
-48 74 -72 31 -23 60 -46 64 -52 5 -6 11 -6 19 2 10 10 20 8 48 -9 20 -12 43
-30 52 -41 13 -16 20 -17 36 -8 17 8 26 7 46 -9 14 -11 32 -20 41 -20 9 0 16
-5 16 -11 0 -6 9 -8 20 -4 20 6 53 -13 103 -61 12 -11 37 -26 55 -33 18 -8 37
-22 43 -32 5 -11 20 -19 32 -19 26 0 87 -35 87 -51 0 -6 8 -8 20 -4 15 5 32
-3 60 -29 22 -20 46 -36 54 -36 8 0 18 -9 21 -20 5 -15 12 -19 30 -14 16 4 26
0 33 -12 10 -18 11 -18 29 -1 26 23 27 22 72 -18 29 -27 46 -35 65 -31 20 4
25 0 28 -17 2 -14 10 -21 21 -21 10 1 17 -5 17 -16 0 -10 8 -28 18 -40 25 -31
46 -18 39 26 -3 20 -1 37 7 43 9 8 15 -2 25 -39 15 -57 28 -65 33 -17 l3 32
42 -42 c39 -39 58 -47 47 -18 -12 31 16 21 41 -15 25 -37 36 -45 58 -41 4 1
20 -14 37 -31 26 -29 31 -32 50 -20 13 8 27 9 38 4 9 -5 48 -12 86 -15 60 -6
75 -12 121 -46 28 -22 81 -57 116 -79 35 -22 123 -77 194 -122 72 -46 166
-106 210 -133 44 -27 123 -91 175 -141 53 -50 135 -124 183 -165 48 -41 102
-98 119 -125 18 -28 56 -77 85 -109 30 -32 79 -91 110 -130 32 -40 80 -97 108
-128 103 -113 204 -359 225 -549 6 -58 19 -134 28 -170 11 -46 16 -117 17
-240 l1 -175 32 -50 c29 -46 32 -58 34 -140 3 -122 3 -123 -20 -185 -36 -101
-97 -187 -157 -225 -18 -11 -67 -53 -108 -92 -90 -85 -104 -93 -228 -129 -114
-32 -158 -57 -226 -126 -72 -74 -140 -208 -104 -208 4 0 20 9 34 20 15 12 57
35 93 51 55 25 72 29 91 20 16 -8 23 -19 23 -40 0 -20 9 -37 30 -55 47 -39
102 -51 230 -49 191 4 213 4 260 2 31 0 66 9 113 30 37 16 67 29 67 27 0 -2
-12 -29 -26 -60 -22 -49 -25 -64 -17 -103 4 -26 13 -48 20 -50 6 -2 40 22 75
55 63 58 63 58 93 43 17 -8 64 -17 105 -19 62 -3 90 1 155 22 44 15 92 36 107
46 15 11 51 29 80 40 66 25 85 41 131 109 31 45 37 62 37 106 0 34 13 91 35
158 35 105 45 194 26 242 -6 14 2 40 28 88 33 64 36 75 34 149 -1 79 -1 82 48
167 27 47 57 110 65 139 l16 53 41 -8 c71 -14 358 -10 392 6 l30 13 -60 17
c-33 9 -113 41 -177 70 -115 52 -159 84 -213 156 l-27 34 23 33 c28 39 38 145
19 203 -14 43 -73 104 -148 152 -43 28 -58 46 -88 106 -26 51 -63 99 -128 167
-51 52 -118 127 -149 167 -54 68 -127 205 -127 237 0 9 -9 48 -19 88 -11 40
-23 105 -26 143 -11 113 -47 208 -134 353 -88 145 -135 202 -226 266 -86 61
-133 84 -195 96 -30 5 -80 17 -110 25 -30 8 -66 15 -80 15 -15 0 -92 20 -172
43 -131 39 -155 50 -225 101 -102 74 -133 102 -133 119 0 8 -13 20 -29 27 -44
18 -74 54 -66 79 3 12 13 21 21 21 19 0 18 46 -2 54 -9 3 -26 6 -39 6 -17 0
-24 7 -28 28 -3 15 0 33 5 40 9 10 2 23 -28 55 -21 23 -43 44 -48 48 -5 4 -5
12 -1 19 5 8 1 18 -9 25 -14 11 -15 13 -1 19 17 6 21 51 5 61 -5 3 -10 17 -10
31 0 14 -6 27 -14 30 -8 3 -12 13 -9 25 3 11 -2 28 -11 38 -11 12 -15 27 -11
43 5 18 -1 33 -19 55 -31 37 -32 44 -6 66 31 26 24 38 -22 35 -35 -3 -43 0
-46 17 -2 11 -13 28 -23 38 -11 10 -17 22 -14 27 3 4 -2 21 -10 36 -9 19 -11
32 -5 38 18 18 10 36 -15 36 -27 0 -45 30 -45 73 0 12 -16 42 -35 66 -26 32
-33 50 -29 67 4 14 2 30 -4 37 -5 6 -13 44 -17 82 -4 39 -14 85 -21 104 -8 18
-14 42 -14 52 0 11 -9 19 -22 21 -14 2 -30 16 -40 37 -9 18 -26 42 -38 53 -17
16 -21 28 -17 54 5 27 1 35 -19 49 -15 10 -29 33 -36 61 -10 38 -20 50 -61 75
-44 27 -49 33 -44 58 5 23 0 32 -24 50 -16 12 -29 29 -29 39 0 10 -12 25 -27
34 -14 9 -66 44 -114 79 -72 53 -86 68 -82 86 3 15 -2 25 -16 32 -17 10 -19
15 -10 30 10 14 5 26 -26 66 -35 47 -36 49 -16 57 25 9 26 21 6 52 -15 22 -14
24 6 29 15 4 19 11 15 24 -5 16 9 23 107 52 61 18 121 38 133 43 11 5 45 8 75
6 48 -3 54 -1 55 17 3 38 5 40 15 23 13 -23 31 -23 49 2 10 13 21 18 37 14 13
-4 45 1 71 9 26 8 82 18 125 22 l79 8 -6 33 c-6 32 -5 33 31 40 21 4 66 18
101 30 46 18 83 24 142 24 43 0 82 -4 85 -10 6 -9 89 36 128 69 17 14 40 15
147 8 32 -2 35 0 35 27 -1 31 -1 31 128 10 43 -7 71 10 63 39 -4 16 -1 18 17
12 54 -16 68 -17 85 -2 10 9 60 27 112 40 52 14 143 48 202 76 59 28 131 56
160 61 29 6 76 17 103 25 28 8 124 26 215 40 364 57 550 99 675 152 156 65
320 113 391 113 13 0 27 6 31 13 14 25 69 37 103 24 28 -11 33 -9 48 9 9 12
37 29 62 38 25 10 52 23 60 30 22 19 104 56 122 56 30 0 48 12 48 31 0 20 0
20 115 39 39 6 90 20 115 32 68 30 131 48 173 48 38 0 73 15 92 38 9 12 19 12
53 1 33 -9 45 -10 54 -1 9 9 9 15 0 24 -22 22 -13 28 38 27 39 -2 55 3 73 19
12 11 56 33 97 47 41 15 105 43 142 62 53 28 70 32 86 24 16 -8 25 -5 48 15
60 53 70 57 110 44 30 -10 39 -10 52 3 12 12 13 19 4 30 -10 11 -5 16 26 25
20 6 48 9 61 5 17 -4 28 0 40 16 10 12 39 28 70 36 51 13 56 13 80 -6 l26 -20
17 21 c14 18 24 21 46 15 30 -9 152 -8 161 0 3 3 0 19 -6 35 -10 26 -9 30 9
36 29 9 130 25 153 24 11 0 33 -1 49 -2 16 0 34 6 41 15 6 8 28 18 48 22 29 6
38 4 43 -9 9 -22 47 -20 69 4 15 17 27 19 72 15 53 -5 108 12 124 37 4 6 19
11 35 11 16 1 32 6 36 11 4 6 13 5 22 -3 23 -19 39 -3 32 31 -6 28 -4 30 20
25 14 -2 41 0 59 6 27 8 39 7 59 -6 32 -21 75 -22 83 -1 4 12 14 14 39 9 31
-5 34 -4 34 20 0 30 7 31 35 5 23 -22 55 -18 55 5 0 18 20 23 53 14 16 -4 38
-4 50 0 12 5 49 12 82 15 38 5 73 17 96 32 20 14 60 31 88 39 28 7 58 21 67
30 13 12 27 15 53 11 73 -13 76 -12 79 12 4 25 13 26 125 6 30 -5 43 -2 60 13
30 27 43 31 160 48 68 11 103 12 112 5 8 -7 17 -4 31 11 16 18 26 20 79 14 33
-4 72 -15 86 -25 30 -21 49 -11 49 26 0 12 11 29 24 37 41 27 149 68 196 74
25 3 61 16 81 30 20 13 54 26 75 29 22 3 79 22 128 41 97 38 111 38 271 4 64
-14 75 -9 75 32 0 34 1 35 50 41 36 5 58 2 81 -9 18 -10 37 -13 47 -9 10 5 33
8 52 9 32 0 35 2 32 28 -3 26 -1 27 46 27 44 0 148 27 372 96 70 22 102 26
183 25 116 -2 133 2 141 33 6 26 56 41 99 31 26 -7 54 16 42 35 -4 7 2 9 19 4
18 -4 33 0 51 15 l27 20 53 -20 54 -20 40 20 c22 12 46 21 54 21 7 0 24 12 38
26 22 24 28 25 83 19 50 -5 61 -3 80 14 16 15 40 21 101 25 120 9 128 9 158 1
21 -6 33 -3 50 13 24 22 82 30 134 18 23 -5 39 -3 57 9 24 16 29 16 66 1 51
-20 56 -20 80 4 19 19 23 19 48 6 17 -9 33 -11 43 -6 9 6 41 1 84 -12 65 -20
69 -20 81 -3 7 10 15 23 17 28 2 6 45 13 103 15 72 3 102 8 111 19 10 12 53
14 278 14 258 -1 267 -1 305 21 34 20 42 21 72 10 19 -6 43 -12 54 -12 27 0
63 27 74 55 8 21 13 22 47 15 21 -5 72 -11 114 -13 41 -3 89 -12 107 -21 44
-22 72 -21 72 4 0 20 0 20 41 -1 39 -19 73 -28 124 -32 16 -2 20 4 20 27 0 38
11 41 85 22 84 -22 118 -20 175 8 55 26 91 21 155 -21 41 -27 53 -28 71 -7 9
12 23 14 50 10 35 -6 56 4 58 29 1 6 26 9 59 8 134 -5 159 -4 201 2 25 4 74 2
110 -4 52 -9 271 -20 439 -21 12 0 31 -1 42 -1 25 -1 122 0 153 1 12 0 58 -5
102 -11 44 -5 220 -14 390 -19 311 -9 805 -28 880 -34 22 -1 54 -11 70 -22 21
-13 48 -19 100 -20 39 0 81 -6 93 -13 13 -7 53 -11 95 -10 55 2 78 -1 99 -15
21 -14 31 -15 47 -6 15 8 27 8 42 0 20 -11 23 -10 86 35 9 7 23 5 44 -7 17
-10 43 -18 57 -18 15 0 35 -6 44 -13 13 -10 33 -11 88 -4 63 9 83 7 154 -12
44 -13 99 -29 122 -37 23 -8 54 -14 70 -14 16 1 49 -4 74 -9 90 -22 156 -32
215 -36 33 -2 67 -3 75 -4 8 0 49 1 90 2 64 3 80 0 109 -20 26 -17 38 -20 48
-11 16 13 78 -25 131 -79 17 -19 37 -31 42 -28 14 9 12 46 -5 75 -28 49 -14
49 87 3 49 -22 61 -25 80 -14 19 10 37 7 112 -19 104 -35 113 -36 138 -14 15
15 24 15 65 4 73 -18 143 -53 149 -73 5 -17 7 -17 31 -2 33 22 60 21 177 -5
69 -15 110 -30 139 -51 22 -16 46 -29 54 -29 7 0 13 -4 13 -9 0 -5 14 -22 31
-39 32 -31 69 -44 90 -31 14 8 184 -146 231 -211 28 -38 55 -56 67 -44 3 3 5
38 3 77 l-3 72 34 -33 c18 -17 39 -32 46 -32 7 0 27 -11 43 -25 30 -26 48 -25
48 1 0 25 13 16 95 -66 82 -83 103 -94 112 -60 7 25 8 25 44 -1 24 -17 33 -18
44 -9 8 7 15 19 15 26 0 12 6 11 33 -3 17 -9 39 -16 48 -15 9 2 28 -10 41 -26
30 -36 67 -57 91 -53 10 1 25 -3 33 -9 8 -7 14 -9 14 -5 0 4 14 -5 32 -20 22
-18 38 -25 54 -21 17 5 27 0 41 -20 38 -54 49 -61 119 -69 100 -11 175 -12
180 -3 11 17 31 6 87 -47 60 -56 77 -65 77 -41 0 27 48 25 87 -5 44 -32 67
-24 57 20 l-6 26 24 -29 c30 -36 53 -28 44 16 -5 27 -4 29 17 22 12 -4 23 -10
25 -15 7 -19 44 -59 54 -59 11 0 6 48 -8 84 -6 17 -2 16 27 -7 27 -20 38 -24
47 -15 7 7 12 18 12 25 0 20 14 16 41 -13 31 -34 95 -66 122 -62 17 2 21 9 19
28 l-3 25 25 -28 c30 -32 46 -35 46 -7 0 26 3 25 50 -9 60 -43 97 -56 115 -41
9 7 13 20 10 29 -3 9 3 21 14 28 16 10 23 6 52 -23 38 -39 60 -42 130 -17 l49
18 38 -38 c24 -23 47 -37 64 -37 14 0 31 -7 38 -15 15 -18 47 -20 52 -4 2 7
23 -2 50 -20 25 -17 52 -31 60 -31 8 0 23 -9 33 -20 22 -24 55 -26 55 -4 0 31
-69 121 -119 157 -36 26 -48 41 -45 55 4 14 -4 23 -38 37 -45 20 -98 66 -98
84 0 6 -21 22 -47 35 -27 13 -66 43 -88 65 -22 23 -48 41 -61 41 -12 0 -27 7
-34 15 -7 8 -21 15 -31 15 -11 0 -24 11 -31 24 -12 28 -20 32 -98 52 -30 8
-62 23 -70 33 -14 16 -171 81 -197 81 -6 0 -21 8 -34 18 -23 18 -98 46 -150
56 -15 3 -30 16 -37 31 -12 26 -26 32 -37 15 -4 -6 -17 -3 -35 10 -16 11 -32
19 -37 18 -4 -1 -40 15 -80 35 -40 20 -102 48 -139 62 -36 14 -91 38 -122 54
-40 20 -78 31 -126 35 -38 3 -74 10 -80 16 -5 5 -27 10 -47 10 -20 0 -42 6
-48 14 -11 13 -74 31 -97 28 -7 -1 -14 7 -17 18 -5 21 -47 27 -140 21 -26 -2
-39 2 -43 13 -3 9 -17 16 -31 16 -13 0 -34 5 -46 12 -12 6 -39 10 -60 9 -32
-2 -39 1 -44 18 -5 21 -19 26 -168 66 -33 9 -68 21 -77 26 -10 5 -59 22 -110
38 -88 28 -126 36 -295 62 -69 10 -86 20 -63 34 18 11 11 35 -11 35 -11 0 -30
6 -42 13 -12 6 -47 13 -77 13 -30 1 -75 7 -100 13 -25 7 -65 14 -89 17 -24 3
-55 14 -69 24 -13 11 -33 20 -43 20 -10 0 -20 4 -23 9 -3 5 -21 12 -40 15 -19
4 -39 13 -46 21 -7 8 -28 15 -46 15 -19 0 -34 5 -34 10 0 6 -13 10 -28 10 -15
0 -34 6 -40 12 -7 7 -41 13 -75 14 -34 1 -107 6 -162 12 -55 6 -108 11 -117
12 -10 0 -18 7 -18 15 0 9 -9 15 -23 15 -13 0 -32 7 -43 15 -11 8 -41 14 -71
15 -53 0 -63 6 -42 27 8 8 4 15 -17 25 -56 28 -114 42 -125 31 -12 -12 -57 2
-133 42 -33 17 -66 25 -98 25 -26 0 -48 5 -48 10 0 6 -11 10 -25 10 -14 0 -33
4 -43 10 -33 18 -149 40 -214 40 -107 0 -160 10 -166 32 -3 13 -11 18 -23 15
-10 -3 -27 2 -39 10 -13 10 -32 13 -50 9 -18 -3 -59 4 -107 19 -43 14 -86 25
-97 25 -11 0 -27 7 -37 16 -14 12 -41 16 -118 16 -81 1 -101 4 -101 15 0 8 -6
13 -13 10 -6 -2 -28 2 -47 10 -28 11 -39 12 -58 1 -19 -10 -25 -10 -32 2 -7
12 -11 12 -25 0 -14 -12 -18 -12 -25 0 -5 8 -12 11 -16 7 -4 -4 -12 -3 -18 2
-6 5 -28 14 -50 19 -30 9 -43 8 -60 -3 -20 -13 -25 -13 -42 0 -10 8 -33 15
-51 15 -17 0 -35 5 -38 10 -4 6 -11 8 -16 5 -5 -4 -35 3 -67 14 -31 11 -77 23
-102 27 -25 4 -53 13 -62 21 -14 13 -19 12 -38 -7 l-22 -22 -24 23 c-23 22
-24 22 -44 4 -20 -18 -21 -18 -27 3 -3 14 -13 22 -26 22 -11 0 -29 7 -39 16
-14 13 -21 14 -32 5 -10 -9 -20 -9 -41 1 -19 8 -31 9 -44 1 -29 -18 -95 -25
-126 -12 -17 6 -79 15 -140 20 -115 10 -193 21 -260 38 -22 5 -60 15 -85 20
-25 6 -78 22 -118 36 -78 26 -151 32 -169 14 -7 -7 -19 -8 -30 -4 -10 5 -35 9
-57 10 -21 1 -44 8 -50 16 -6 8 -19 13 -29 11 -10 -2 -27 4 -37 13 -18 16 -22
16 -54 1 -43 -20 -65 -20 -94 0 -12 8 -26 13 -31 9 -5 -3 -12 -1 -16 5 -3 5
-17 10 -31 10 -14 0 -34 5 -46 11 -36 20 -113 27 -213 20 -16 -1 -59 -1 -95 0
-49 2 -75 -3 -106 -19 l-41 -21 5 25 c4 21 1 24 -26 24 -17 0 -34 4 -37 10 -8
13 -106 10 -124 -4 -8 -6 -27 -11 -43 -12 -26 -2 -29 1 -24 22 6 23 5 24 -56
24 -39 1 -70 6 -82 15 -21 16 -38 11 -30 -9 3 -8 0 -17 -6 -21 -6 -3 -10 -3
-9 2 4 24 -4 33 -30 33 -17 0 -33 5 -37 11 -4 7 -23 9 -49 6 -30 -5 -48 -2
-65 10 -18 13 -27 14 -41 5 -10 -7 -30 -12 -45 -12 -14 0 -35 -5 -46 -11 -16
-8 -29 -7 -59 7 -37 16 -41 16 -79 -1 -22 -10 -40 -22 -40 -27 0 -11 -47 -11
-54 0 -3 5 -19 9 -35 10 -16 0 -42 7 -58 15 -15 7 -43 14 -62 16 -19 1 -46 9
-62 18 -26 16 -29 16 -47 0 -16 -15 -21 -15 -38 -2 -12 9 -31 12 -50 9 -20 -4
-34 -1 -42 9 -9 10 -25 13 -56 10 -28 -4 -51 0 -67 10 -13 8 -39 17 -57 21
-27 5 -32 3 -32 -14 0 -25 -12 -25 -35 0 -10 11 -24 20 -31 20 -7 0 -25 5 -41
12 -42 17 -83 18 -83 2 0 -18 -21 -18 -46 1 -26 20 -36 19 -29 -5 5 -15 -1
-22 -27 -33 -29 -13 -35 -12 -51 1 -15 13 -22 14 -37 4 -26 -16 -60 -15 -60 1
0 15 -40 42 -58 38 -8 -1 -24 5 -37 13 -32 21 -42 20 -48 -4 -6 -22 -36 -27
-55 -8 -8 8 -16 5 -31 -13 -17 -21 -22 -22 -40 -11 -11 6 -33 12 -48 12 -16 0
-37 7 -47 15 -18 13 -22 13 -43 -7 l-23 -22 -28 21 c-21 15 -33 18 -52 11 -18
-7 -30 -4 -49 10 -22 16 -29 16 -51 5 -39 -20 -70 -17 -70 8 0 16 -5 20 -20
16 -11 -3 -31 4 -46 16 -22 17 -28 18 -34 6 -29 -50 -33 -51 -80 -35 -25 9
-53 16 -63 16 -9 0 -26 6 -38 13 -17 10 -22 9 -32 -3 -10 -12 -30 -15 -104
-12 -83 4 -93 2 -93 -14 0 -16 -1 -16 -19 0 -13 12 -24 14 -42 8 -14 -6 -34
-6 -47 -1 -32 12 -182 6 -208 -9 -16 -9 -34 -7 -84 9 -35 11 -69 18 -76 15 -7
-3 -25 5 -39 16 -28 22 -29 22 -56 -24 -5 -10 -19 -18 -30 -18 -11 0 -22 -7
-25 -15 -11 -27 -23 -16 -26 22 -3 33 -7 38 -35 44 -18 3 -40 12 -48 19 -12
10 -20 8 -42 -10 -16 -12 -29 -17 -31 -11 -2 6 -13 11 -23 11 -11 0 -33 7 -50
16 -28 14 -31 14 -48 -8 -16 -20 -22 -21 -45 -10 -15 6 -31 23 -36 37 -6 15
-17 25 -30 25 -11 0 -32 7 -46 16 -23 16 -26 15 -44 -1 -16 -14 -23 -16 -32
-7 -17 17 -49 15 -76 -4 -21 -15 -25 -15 -42 1 -19 17 -40 13 -40 -8 0 -7 -11
-22 -24 -34 -23 -23 -24 -23 -47 -4 -18 15 -29 17 -48 9 -19 -7 -31 -4 -53 12
-27 20 -29 20 -34 3 -11 -36 -22 -48 -43 -46 -15 2 -24 -5 -31 -23 -6 -15 -16
-24 -24 -21 -7 3 -19 1 -27 -3 -8 -6 -20 -3 -30 6 -16 14 -20 12 -53 -23 l-35
-38 -31 18 c-34 18 -50 15 -50 -10 0 -13 -3 -13 -15 -3 -13 11 -22 9 -51 -6
-29 -16 -36 -17 -43 -5 -5 7 -15 11 -22 9 -8 -3 -26 2 -41 10 -25 15 -31 14
-77 -7 -33 -16 -60 -22 -83 -19 -19 3 -42 0 -53 -8 -26 -17 -81 -11 -108 13
-14 13 -21 15 -24 6 -3 -7 -11 -13 -19 -13 -8 0 -28 -10 -43 -21 -24 -17 -37
-20 -73 -15 -23 4 -57 6 -75 6 -17 0 -39 8 -49 17 -13 13 -19 14 -22 5 -2 -6
-12 -12 -22 -12 -10 0 -22 -5 -25 -10 -5 -7 -11 -8 -19 -1 -16 13 -46 8 -60
-11 -14 -19 -73 -13 -99 10 -16 14 -20 13 -45 -11 -33 -32 -79 -50 -108 -43
-13 4 -34 2 -48 -4 -14 -5 -28 -5 -30 -1 -3 5 -18 11 -33 14 -19 3 -31 -1 -43
-15 -15 -19 -20 -20 -55 -8 -22 7 -60 10 -90 7 -30 -3 -57 -1 -63 5 -7 7 -17
6 -32 -2 -18 -10 -31 -10 -61 0 -20 7 -44 10 -53 7 -8 -3 -22 1 -31 10 -14 14
-18 14 -35 -2 -13 -11 -28 -15 -44 -11 -14 3 -26 1 -28 -5 -3 -9 -9 -9 -25 0
-12 6 -36 11 -53 11 -17 0 -40 5 -51 10 -16 9 -19 7 -19 -11 0 -18 -4 -20 -22
-14 -13 4 -49 9 -80 11 -32 1 -66 8 -77 13 -32 17 -87 13 -127 -11 -32 -19
-40 -20 -70 -9 -21 7 -40 9 -49 3 -9 -5 -42 -5 -73 -1 -68 10 -176 13 -188 7
-5 -3 -47 -1 -94 3 -47 5 -110 11 -140 14 -30 3 -77 0 -103 -6 -33 -8 -56 -8
-70 -2 -60 27 -104 34 -219 32 -68 -1 -128 -5 -134 -10 -6 -5 -24 -4 -43 2
-24 8 -35 8 -46 -1 -18 -15 -76 -6 -160 23 -64 23 -255 36 -578 42 -101 1
-162 6 -170 14 -17 17 -41 13 -55 -9 -15 -24 -59 -26 -90 -4 -20 14 -34 15
-110 4 -139 -20 -218 -23 -242 -10 -17 9 -29 9 -51 -1 -23 -9 -36 -9 -56 0
-18 8 -29 9 -38 1 -7 -6 -33 -10 -57 -9 -24 2 -49 0 -55 -4 -6 -4 -21 1 -34
11 -18 16 -30 17 -68 10 -24 -4 -54 -5 -64 -2 -11 3 -37 0 -59 -7 -31 -10 -49
-10 -86 -1 -26 7 -133 12 -242 13 -113 1 -200 6 -208 12 -7 5 -15 7 -19 4 -3
-4 -17 3 -32 14 l-26 21 -6 -24 c-4 -12 -7 -17 -8 -9 -1 9 -9 12 -25 9 -13 -3
-34 3 -46 12 -22 17 -25 16 -57 -3 -19 -10 -37 -17 -40 -13 -4 3 0 6 8 6 8 1
-11 9 -41 20 -61 21 -110 26 -110 9 0 -6 -13 -1 -29 10 -28 20 -29 20 -46 1
-14 -15 -22 -17 -42 -9 -14 5 -33 7 -42 4 -9 -2 -29 2 -45 10 -15 8 -36 15
-45 15 -9 0 -25 7 -35 15 -11 8 -29 12 -39 9 -11 -3 -39 -1 -62 6 -37 10 -49
10 -76 -4 -44 -22 -212 -22 -291 0 -48 14 -68 15 -115 5 -58 -11 -94 -6 -155
25 -24 11 -28 11 -28 -1 0 -17 -21 -19 -48 -6 -9 4 -33 14 -52 21 -19 7 -63
23 -98 36 -35 13 -81 24 -103 24 -36 0 -40 -2 -34 -20 8 -27 -23 -40 -37 -16
-6 11 -16 15 -29 11 -11 -4 -27 -1 -36 6 -8 8 -32 14 -52 15 -20 1 -48 5 -63
9 -23 6 -28 4 -28 -10 0 -14 -6 -16 -32 -10 -18 3 -89 9 -158 13 -69 4 -135
13 -147 20 -12 7 -39 12 -60 12 -21 0 -63 7 -93 16 -30 9 -91 20 -135 25 -44
5 -96 16 -116 25 -25 11 -56 15 -98 12 -33 -1 -61 1 -61 6 0 4 -9 6 -20 2 -11
-3 -29 -9 -40 -12 -15 -5 -20 -2 -18 7 2 11 -15 14 -82 15 -47 1 -101 4 -120
7 -69 13 -95 19 -105 27 -5 4 -51 7 -101 6 -74 -1 -96 -5 -112 -20 -21 -18
-22 -18 -48 3 -17 13 -34 19 -49 15 -13 -3 -28 1 -38 10 -9 9 -29 19 -46 22
-20 4 -31 14 -35 30 -7 27 -17 29 -48 13 -16 -8 -31 -8 -59 1 -29 10 -42 10
-52 2 -10 -8 -17 -8 -24 -1 -8 8 -18 6 -35 -5 -20 -13 -38 -14 -113 -6 -50 5
-100 10 -112 10 -12 0 -28 6 -36 14 -7 8 -27 14 -43 13 -75 -3 -114 3 -114 18
0 10 -10 15 -33 15 -18 0 -41 6 -52 14 -13 9 -48 13 -103 13 -80 -1 -83 0
-113 31 -27 27 -38 32 -75 30 -24 0 -49 3 -56 9 -8 6 -59 9 -122 7 -60 -2
-117 1 -127 6 -12 7 -24 4 -43 -11 -23 -18 -27 -18 -32 -5 -6 17 -39 22 -48 8
-7 -12 -94 2 -108 16 -7 7 -25 12 -40 12 -15 0 -28 5 -28 10 0 14 -33 13 -48
-2 -10 -10 -19 -8 -43 6 -18 11 -40 16 -54 12 -15 -4 -25 -1 -29 9 -7 19 -30
19 -61 -1 -37 -24 -300 -14 -351 14 -18 9 -24 9 -34 -3 -10 -12 -16 -13 -27
-4 -10 9 -20 9 -36 1 -42 -20 -66 -20 -91 -1 -32 25 -78 24 -101 -1 -22 -24
-58 -26 -76 -4 -9 11 -23 14 -49 10 -24 -4 -45 0 -65 12 -23 14 -40 16 -70 11
-50 -10 -192 -11 -233 -3 -18 4 -32 14 -35 25 -6 23 -35 25 -64 4 -16 -12 -32
-13 -69 -6 -27 5 -53 7 -59 3 -5 -3 -21 -5 -36 -4 -15 1 -46 -7 -70 -17 -47
-21 -59 -16 -59 27 0 16 -6 22 -23 22 -13 0 -27 -3 -31 -7 -12 -13 -148 -11
-152 2 -6 16 -141 10 -224 -9 -61 -14 -102 -13 -125 4 -9 7 -69 6 -119 -2 -14
-2 -22 5 -26 22 -6 26 -27 30 -62 15 -14 -5 -18 -2 -18 13 0 22 -25 36 -43 25
-6 -4 -24 -6 -40 -5 -16 2 -36 -3 -43 -9 -11 -9 -18 -9 -28 0 -12 10 -20 9
-41 -5 -23 -15 -46 -16 -213 -10 -429 15 -504 22 -526 50 -10 13 -17 13 -56
-1 -37 -13 -52 -13 -90 -3 -50 13 -68 16 -185 26 -44 4 -85 11 -92 16 -16 13
-113 -2 -148 -24 -40 -24 -58 -23 -50 2 8 26 -15 35 -52 22 -19 -6 -34 -6 -44
1 -12 8 -24 4 -51 -16 -23 -18 -41 -24 -56 -20 -12 3 -36 0 -53 -7 -23 -10
-33 -10 -42 -1 -6 6 -40 11 -76 11 -39 0 -78 6 -95 15 -40 21 -189 21 -206 0
-13 -16 -85 -21 -94 -7 -2 4 -44 5 -93 1 -48 -4 -93 -3 -99 2 -6 5 -25 5 -45
-1 -18 -6 -65 -10 -104 -10 -38 0 -88 -5 -110 -12 -34 -9 -232 -20 -400 -21
-29 0 -66 7 -89 18 -32 15 -43 16 -70 7 -33 -12 -152 -31 -212 -34 -17 -1 -46
7 -65 19 l-35 20 -30 -24 c-21 -18 -38 -23 -64 -20 -59 6 -351 -21 -420 -39
-36 -9 -77 -16 -92 -15 -45 2 -112 2 -313 -1 -185 -4 -194 -5 -345 -45 -148
-39 -311 -63 -426 -63 -28 0 -71 -7 -94 -15 -23 -8 -65 -15 -92 -15 -27 0 -62
-7 -78 -15 -17 -9 -40 -13 -54 -9 -14 3 -37 -1 -56 -11 -24 -12 -35 -14 -45
-5 -11 9 -22 6 -48 -14 -19 -14 -45 -26 -58 -26 -13 0 -42 -7 -64 -14 -41 -15
-90 -11 -113 7 -8 7 -18 5 -30 -6 -34 -31 -87 -47 -123 -37 -21 6 -45 6 -64 1
-73 -23 -112 -30 -131 -25 -12 3 -26 -1 -33 -10 -11 -12 -34 -16 -106 -16 -60
0 -105 -5 -128 -15 -20 -8 -62 -15 -92 -15 -49 0 -61 -4 -95 -32 -32 -28 -48
-33 -92 -34 -113 -3 -183 -16 -237 -45 -37 -20 -58 -26 -65 -19 -13 13 -63 13
-71 0 -9 -15 -36 -12 -56 6 -17 15 -22 15 -67 -4 -64 -28 -111 -35 -128 -22
-9 9 -28 8 -71 0 -61 -13 -268 -6 -288 9 -17 14 -82 22 -245 29 -85 4 -161 11
-168 16 -21 13 -161 46 -196 46 -17 0 -65 7 -106 16 -41 9 -111 19 -155 23
-44 4 -96 12 -115 18 -19 7 -55 18 -80 25 -25 7 -52 20 -60 28 -14 14 -63 31
-170 61 -19 5 -66 13 -103 18 -37 5 -89 20 -115 34 -26 13 -72 32 -102 42 -30
11 -62 25 -71 32 -8 7 -27 13 -42 13 -34 0 -141 59 -238 131 -42 31 -113 78
-158 104 -44 26 -81 52 -81 56 0 5 -15 15 -32 22 -31 13 -288 208 -352 266
-34 31 -154 175 -179 214 -10 15 -28 32 -40 38 -13 6 -35 31 -49 57 -15 26
-47 71 -72 100 -25 30 -46 58 -46 64 0 6 -11 26 -24 43 -47 61 -87 138 -83
157 3 10 -4 29 -15 43 -13 17 -20 41 -20 73 -1 49 1 46 -95 161 -18 21 -33 44
-33 51 0 7 -12 33 -26 57 -20 34 -23 47 -14 58 9 11 8 21 -4 42 -30 55 -48
109 -52 163 -4 35 -14 69 -30 93 -14 21 -24 48 -23 60 2 12 -11 49 -28 82 -17
33 -34 85 -38 115 -4 30 -14 66 -23 80 -9 14 -31 70 -50 125 -38 116 -65 175
-104 229 -15 21 -28 44 -28 50 0 6 -15 34 -33 61 -43 66 -59 103 -47 110 20
13 9 37 -36 78 -40 36 -45 45 -40 71 6 30 -15 66 -38 66 -8 0 -11 19 -9 55 2
49 0 56 -24 72 -24 16 -79 69 -121 116 -9 10 -17 24 -18 30 0 7 -2 17 -2 22
-1 6 -31 26 -66 45 -36 19 -62 38 -59 43 2 4 -1 14 -7 22 -7 8 -10 21 -7 29 6
16 -32 36 -68 36 -14 0 -25 6 -25 13 0 6 -14 21 -32 32 -71 45 -78 50 -78 61
0 6 -12 16 -26 23 -15 6 -24 15 -20 18 8 9 -53 45 -89 52 -23 5 -32 14 -40 39
-6 23 -17 34 -35 38 -55 13 -136 47 -157 66 -12 11 -46 27 -75 34 -29 8 -56
20 -60 28 -7 13 -182 74 -263 92 -16 3 -80 21 -141 40 -61 19 -120 34 -132 34
-11 0 -24 5 -27 10 -3 6 -44 10 -90 10 -61 0 -88 4 -99 15 -8 8 -30 15 -48 15
-18 0 -48 9 -67 21 -36 22 -57 22 -164 1 -35 -7 -52 -6 -66 5 -16 11 -29 10
-84 -4 -62 -16 -68 -16 -102 0 -40 19 -87 22 -116 7 -14 -8 -25 -7 -42 5 -26
16 -70 15 -103 -3 -12 -6 -25 -8 -29 -4 -3 4 -30 8 -58 9 -29 0 -70 4 -92 6
-22 3 -47 2 -56 -3z"/>
</g>
</svg>
