<?xml version="1.0" standalone="no"?>
<!DOCTYPE svg PUBLIC "-//W3C//DTD SVG 20010904//EN"
 "http://www.w3.org/TR/2001/REC-SVG-20010904/DTD/svg10.dtd">
<svg version="1.0" xmlns="http://www.w3.org/2000/svg"
 width="1274.000000pt" height="411.000000pt" viewBox="0 0 1274.000000 411.000000"
 preserveAspectRatio="xMidYMid meet">
<metadata>
Created by potrace 1.16, written by Peter Selinger 2001-2019
</metadata>
<g transform="translate(0.000000,411.000000) scale(0.100000,-0.100000)"
fill="#000000" stroke="none">
<path d="M5285 4099 c-82 -3 -217 -16 -300 -28 -82 -12 -217 -30 -300 -40
-235 -30 -464 -89 -615 -158 -272 -124 -344 -165 -530 -298 -62 -44 -122 -87
-135 -95 -23 -16 -87 -74 -180 -165 -28 -27 -85 -82 -126 -122 -41 -39 -112
-110 -158 -157 -91 -93 -129 -115 -237 -140 -181 -40 -230 -20 -432 184 -57
58 -130 137 -163 176 -100 120 -242 199 -429 240 -72 16 -129 19 -380 19 -319
0 -352 -4 -565 -64 -55 -16 -116 -31 -136 -35 -32 -6 -262 -115 -376 -179
-150 -84 -223 -188 -223 -317 0 -43 5 -64 21 -84 20 -26 21 -26 124 -19 l104
6 30 -30 c62 -63 45 -126 -40 -151 -74 -22 -89 -31 -101 -57 -24 -52 40 -139
139 -190 65 -33 74 -32 348 61 214 72 309 92 500 104 252 16 367 13 452 -11
104 -29 243 -96 378 -184 68 -43 69 -44 156 -104 79 -54 290 -130 408 -146 43
-6 64 -16 111 -56 32 -27 70 -64 84 -82 58 -76 272 -215 393 -256 32 -11 58
-23 60 -28 1 -4 -28 -32 -65 -61 -37 -29 -94 -76 -127 -104 -74 -62 -183 -114
-284 -135 -62 -12 -81 -21 -103 -46 -16 -17 -28 -37 -28 -44 0 -20 35 -33 90
-33 28 0 60 -4 70 -10 17 -9 17 -12 -6 -58 -48 -96 -50 -194 -5 -200 29 -5 56
20 92 83 34 60 36 49 12 -92 -14 -80 -15 -106 -5 -127 22 -49 78 -24 112 49
l18 40 1 -43 c1 -50 20 -63 59 -41 22 12 122 168 122 190 0 22 23 16 57 -16
31 -29 44 -35 73 -33 46 4 51 34 15 99 -31 58 -58 145 -50 160 4 5 46 29 93
52 48 22 118 61 156 85 37 24 70 41 73 39 2 -3 -4 -36 -15 -74 -11 -37 -23
-85 -26 -105 -4 -21 -22 -76 -41 -123 -19 -48 -35 -94 -35 -103 0 -9 -9 -41
-20 -70 -34 -89 -21 -152 32 -152 27 0 85 36 99 61 12 23 29 16 29 -11 0 -24
92 -117 162 -164 49 -33 58 -36 128 -36 65 0 77 3 88 21 11 17 10 26 -7 55
-16 26 -17 34 -6 34 18 0 45 28 45 47 0 9 -15 30 -34 47 -18 18 -38 42 -45 53
-10 20 -8 22 26 25 35 3 38 6 41 36 3 34 -33 157 -49 167 -14 9 -11 68 4 90
15 23 84 197 116 296 37 113 9 104 321 101 l273 -3 52 -53 c66 -66 175 -120
298 -147 97 -20 110 -26 101 -40 -11 -18 -144 -79 -196 -90 -29 -6 -71 -20
-92 -31 -22 -11 -62 -27 -90 -35 -87 -26 -143 -60 -175 -106 -37 -55 -98 -110
-146 -133 -50 -23 -92 -68 -100 -104 -5 -21 -19 -39 -44 -54 -49 -31 -55 -39
-87 -121 -15 -38 -37 -81 -49 -95 -55 -61 -85 -159 -60 -197 24 -35 50 -28
112 32 32 31 70 57 87 61 17 3 44 15 59 26 30 21 48 20 22 -2 -35 -29 -4 -120
41 -120 9 0 40 20 68 45 29 25 62 45 73 45 17 0 92 55 148 108 11 11 40 29 65
41 91 43 130 75 167 136 19 33 41 76 48 96 10 28 64 116 91 148 2 2 63 19 136
38 104 28 171 38 307 49 197 15 213 21 229 86 17 68 0 107 -95 212 -45 50 -95
115 -109 144 -14 30 -33 56 -40 59 -15 6 -49 62 -41 69 2 2 15 -6 29 -19 82
-76 145 -116 308 -197 126 -62 284 -138 310 -149 14 -6 32 -15 40 -21 8 -5 62
-32 120 -61 230 -112 261 -137 357 -284 91 -140 108 -198 100 -328 -5 -82 -4
-99 13 -133 24 -45 26 -87 5 -107 -25 -26 -79 -55 -115 -62 -57 -12 -82 -29
-178 -122 -100 -97 -111 -124 -71 -164 17 -17 28 -20 57 -14 21 4 82 9 137 12
98 4 101 3 124 -21 33 -35 73 -34 101 1 16 21 31 28 63 29 85 4 196 46 269
103 26 20 59 44 73 54 15 11 39 37 56 59 45 63 41 114 -20 230 -27 51 -56 107
-65 123 -38 73 -126 262 -126 271 0 6 -9 28 -19 50 -11 23 -25 63 -32 90 -6
27 -17 56 -24 64 -7 8 -15 26 -18 40 -11 42 -132 156 -250 234 -162 107 -178
126 -251 311 -19 50 -49 118 -66 153 -16 34 -30 71 -30 83 0 20 44 69 63 69
14 0 162 75 200 101 18 13 55 45 82 73 71 71 171 159 201 174 14 7 34 22 45
33 10 10 24 19 30 19 6 0 21 8 34 19 13 10 70 33 127 50 57 18 128 43 158 56
54 23 84 34 230 82 41 14 98 33 125 43 41 16 143 43 310 84 11 3 70 14 130 26
61 11 135 27 165 35 30 8 107 24 170 35 63 12 144 28 180 36 36 8 124 25 195
39 72 13 184 36 250 50 66 14 208 43 315 65 107 22 218 47 245 55 28 9 95 25
149 36 55 11 109 25 120 31 26 14 251 71 406 103 63 12 140 30 170 39 30 9
138 27 240 41 102 14 212 29 245 35 107 17 421 23 565 11 143 -13 391 -52 475
-76 138 -38 236 -69 290 -90 33 -13 71 -27 85 -30 23 -6 58 -22 205 -90 109
-51 148 -65 185 -65 48 0 58 21 30 64 -60 94 -134 146 -406 287 -151 79 -238
115 -414 171 -210 68 -398 115 -596 148 -346 59 -663 72 -1179 50 -126 -6
-336 -15 -465 -20 -129 -6 -305 -14 -390 -19 -840 -51 -1199 -56 -1385 -22
-27 6 -77 13 -109 16 -33 4 -69 11 -81 15 -11 4 -81 20 -155 35 -74 14 -170
38 -213 51 -43 14 -109 31 -145 39 -37 7 -103 23 -147 34 -44 11 -130 27 -190
35 -61 9 -157 25 -215 36 -63 12 -184 24 -305 30 -209 9 -236 14 -472 86 -173
53 -243 59 -568 43z"/>
</g>
</svg>
