<?xml version="1.0" standalone="no"?>
<!DOCTYPE svg PUBLIC "-//W3C//DTD SVG 20010904//EN"
 "http://www.w3.org/TR/2001/REC-SVG-20010904/DTD/svg10.dtd">
<svg version="1.0" xmlns="http://www.w3.org/2000/svg"
 width="4508.000000pt" height="1748.000000pt" viewBox="0 0 4508.000000 1748.000000"
 preserveAspectRatio="xMidYMid meet">
<metadata>
Created by potrace 1.16, written by Peter Selinger 2001-2019
</metadata>
<g transform="translate(0.000000,1748.000000) scale(0.100000,-0.100000)"
fill="#000000" stroke="none">
<path d="M40277 17449 l-317 -29 -473 -251 c-259 -138 -478 -255 -484 -261 -7
-6 -225 -289 -485 -630 -260 -341 -483 -628 -497 -637 -15 -10 -205 -127 -423
-259 l-397 -241 -540 -60 -541 -61 -267 104 c-266 103 -268 104 -301 150 l-34
46 -133 0 -133 0 -14 43 -15 42 -122 5 -123 5 -40 95 c-22 52 -43 98 -47 102
-4 4 -45 1 -93 -7 l-85 -15 -107 45 -106 46 -88 -16 -87 -16 -50 58 c-27 31
-63 72 -80 90 l-30 33 -163 -45 -163 -45 -150 106 -150 105 -135 -45 -136 -45
-134 90 -134 89 -135 -90 -135 -90 -180 90 -180 90 -150 -105 -149 -105 -208
75 -208 75 -70 -77 c-38 -43 -88 -96 -110 -120 l-40 -42 -134 76 -133 75 -137
-135 -136 -136 -185 29 c-102 16 -188 30 -192 30 -4 0 -48 -61 -98 -135 -50
-75 -94 -134 -98 -131 -4 2 -79 36 -166 76 l-159 72 -151 -151 -151 -151 -160
30 c-88 16 -161 30 -162 30 -1 0 -57 -68 -123 -150 -102 -127 -124 -149 -143
-145 -101 24 -421 84 -427 80 -5 -3 -54 -64 -110 -136 l-102 -130 -61 5 c-172
17 -319 26 -326 22 -5 -3 -59 -76 -121 -161 -62 -85 -115 -157 -119 -160 -6
-3 -151 38 -278 79 -19 6 -37 -12 -142 -143 l-121 -150 -113 40 c-61 23 -136
49 -166 60 l-53 19 -164 -151 -163 -150 -118 16 -118 16 -80 -88 c-44 -48
-100 -109 -125 -135 l-45 -48 -185 15 c-101 8 -188 15 -192 15 -3 0 -75 -74
-158 -165 l-152 -165 -74 0 -75 0 -133 -89 c-118 -79 -299 -170 -1627 -814
-822 -398 -3289 -1599 -5484 -2667 -3709 -1805 -4157 -2026 -6360 -3135
l-2370 -1193 -1777 -986 -1778 -985 -1380 -390 -1379 -390 -1098 -106 -1098
-105 -400 15 c-220 8 -408 15 -418 15 -16 0 -18 -8 -15 -61 l3 -61 298 -119
297 -119 1170 -30 1169 -31 1471 226 1472 225 1995 630 1995 630 2159 465
2160 465 3269 390 3270 390 1217 -191 c670 -105 1220 -193 1222 -195 2 -2 -67
-199 -153 -439 l-156 -436 -245 -362 c-135 -199 -253 -367 -263 -374 -9 -6
-218 -82 -464 -167 l-447 -155 -226 -138 c-125 -75 -230 -144 -235 -153 -4 -8
-55 -194 -114 -412 l-106 -398 -229 -397 -228 -398 -201 -145 c-111 -80 -206
-150 -211 -155 -7 -7 26 -133 99 -378 l110 -367 223 -260 222 -260 896 0 896
0 12 40 c6 22 13 40 14 40 39 0 219 -45 239 -60 24 -17 43 -20 153 -20 82 0
125 4 125 11 0 16 -290 340 -314 350 -12 5 -130 34 -264 64 -237 54 -847 225
-862 242 -4 4 -42 81 -84 171 l-76 163 70 89 70 88 -60 161 -60 161 122 198
c66 108 128 204 137 213 9 9 117 53 241 99 124 46 231 88 237 93 7 5 126 157
264 338 138 180 256 332 263 337 6 5 278 124 603 265 l593 257 1040 210 1040
210 688 372 c378 204 703 382 723 394 22 14 88 94 183 223 l147 201 42 -5 c23
-3 87 -10 141 -15 55 -6 102 -12 104 -15 2 -2 51 -191 108 -420 l104 -416 290
-440 290 -440 90 -469 90 -470 -50 -460 -51 -460 153 -182 153 -181 188 -69
188 -68 281 -233 282 -232 106 -165 106 -165 1252 -3 1251 -2 21 71 c20 67 22
70 48 65 15 -3 78 -13 141 -21 110 -16 116 -18 181 -66 l68 -49 100 0 101 0
-46 112 c-25 62 -53 120 -62 129 -9 9 -122 80 -252 157 l-235 141 -175 11
c-163 11 -205 18 -649 116 -261 57 -485 106 -497 109 -16 4 -43 41 -93 125
-63 107 -74 120 -103 125 -17 3 -171 26 -340 51 l-309 45 -128 110 c-71 60
-131 117 -134 127 -3 9 -21 87 -41 172 -20 85 -41 172 -46 192 -8 33 -27 51
-131 129 l-120 91 6 247 c3 135 9 379 12 541 l6 295 298 915 c201 616 320 998
365 1170 36 140 67 255 69 257 1 1 224 48 494 103 l492 100 636 285 c350 157
638 285 639 283 2 -2 -27 -77 -64 -168 l-68 -165 -244 -185 -243 -185 -77
-125 c-43 -69 -76 -126 -75 -127 1 -1 97 20 214 46 117 27 212 45 212 42 0 -3
-71 -102 -156 -220 -90 -123 -245 -358 -365 -553 l-209 -338 50 -202 c28 -112
55 -219 61 -239 l9 -37 78 -6 c42 -3 123 -8 179 -12 l101 -6 89 107 88 108 3
-137 3 -137 139 121 c76 66 141 128 144 137 3 10 44 168 91 352 l86 333 343
667 c339 656 346 671 486 1028 l143 362 294 132 c170 76 297 128 302 123 4 -5
53 -439 109 -964 l102 -955 -40 -158 -41 -158 -127 -186 c-115 -168 -137 -195
-232 -277 -196 -171 -178 -145 -200 -275 -11 -63 -19 -116 -17 -117 1 -1 82
31 180 73 99 41 181 73 183 70 3 -2 -61 -127 -141 -276 l-146 -272 -120 -389
-119 -389 76 -173 c42 -95 81 -178 88 -185 15 -16 329 -162 337 -157 4 2 31
44 60 94 29 49 56 86 60 82 3 -4 16 -45 29 -92 12 -47 25 -89 30 -93 4 -5 51
53 104 127 l96 135 41 381 40 381 319 778 319 778 11 354 11 354 100 718 100
718 -30 407 c-24 320 -28 409 -18 418 6 6 215 148 462 314 l450 303 245 227
245 226 370 233 c204 129 376 239 383 246 8 7 40 162 77 375 l63 363 118 113
c66 62 123 113 129 113 5 1 75 -64 155 -144 l145 -145 269 -90 c148 -49 271
-88 274 -86 2 2 37 190 77 416 41 227 76 414 77 416 2 1 142 -24 312 -56 170
-33 313 -57 317 -54 4 2 155 191 334 419 l325 414 121 511 120 511 237 387
237 386 347 362 c313 326 353 364 395 378 27 8 182 56 345 106 l297 90 258
-113 c171 -75 346 -143 519 -201 l261 -87 328 40 c181 22 332 44 337 49 5 5
51 78 102 163 60 98 89 156 82 160 -6 4 -72 23 -146 44 -74 20 -244 73 -378
117 l-243 79 -164 219 -164 218 -41 232 -40 232 81 89 c44 48 88 90 97 93 9 3
49 14 88 25 l71 21 94 -33 94 -33 57 -116 57 -116 10 -139 c6 -76 14 -164 17
-196 l6 -58 190 -95 189 -95 256 20 c141 12 258 23 260 25 3 2 23 72 44 155
l40 150 -26 182 -26 182 -104 152 -104 152 -162 434 -162 434 -262 252 -262
253 -409 81 -409 81 -205 -6 c-113 -4 -280 -9 -371 -12 l-166 -6 -86 110 -86
111 38 83 c21 46 37 86 34 90 -2 4 -31 28 -63 53 l-59 46 -271 -56 -271 -55
-120 50 -119 50 -71 -30 -70 -30 -279 30 c-180 19 -290 35 -309 45 -36 18 -15
19 -404 -16z"/>
</g>
</svg>
