<?xml version="1.0" encoding="utf-8"?>
<svg xmlns="http://www.w3.org/2000/svg" viewBox="24.1117 580.3911 496.4314 185.3042" width="496.431px" height="185.304px">
  <g transform="matrix(0.35277801752090454, 0, 0, -0.35277801752090454, 93.60681291828767, 714.6042281777295)" id="g1131" style="fill:#ba240f;fill-opacity:1">
    <g id="g1277" transform="matrix(2.2493905,0,0,2.2493905,-292.55853,-438.2641)" style="fill:#ba240f;fill-opacity:1">
      <path d="m 668.04,195.76 c -0.81,-1.4 -16.95,8.3 -29.83,9.6 -12.89,1.3 -34.4,-1.4 -47.49,-1.8 -13.09,-0.4 -18.27,-2.2 -31.05,-0.6 -12.79,1.6 -26.69,6.3 -45.66,10.2 -18.98,3.9 -51.04,12.1 -68.19,13.2 -17.15,1.1 -23.95,-2.7 -34.71,-6.6 -10.75,-3.9 -10.45,-13.8 -29.83,-16.8 -19.38,-3 -63.11,-3.4 -86.45,-1.2 -23.34,2.2 -43.03,9.7 -53.58,14.4 -10.55,4.7 -6.29,10.6 -9.74,13.8 -3.45,3.2 -4.57,1.9 -10.96,5.4 -6.39,3.5 -13.9,5.1 -27.4,15.6 -13.49,10.5 -36.73,33.9 -53.57,47.4 -16.85,13.5 -34.63,26.92 -47.492,33.6 -12.857,6.69 -22.916,4.37 -29.655,6.52 -6.74,2.14 -8.878,5.2 -10.782,6.36 -1.903,1.16 -2.465,-2.3 -0.638,0.6 1.826,2.9 4.802,8.57 10.025,11.12 5.222,2.56 13.09,5.3 21.309,4.2 8.219,-1.1 16.641,-3.7 28.003,-10.8 11.37,-7.1 26.18,-22.3 40.19,-31.8 14,-9.5 32.16,-20 43.83,-25.2 11.67,-5.2 16.14,-6.3 26.18,-6 10.05,0.3 18.98,4.6 34.1,7.8 15.11,3.2 35.1,9.8 56.62,11.4 21.51,1.6 46.06,4.1 72.45,-1.8 26.38,-5.9 61.08,-22.6 85.84,-33.6 24.76,-11 43.53,-23.9 62.71,-32.4 19.18,-8.5 33.89,-14.5 52.36,-18.6 18.47,-4.1 44.65,-2.2 58.45,-6 13.8,-3.8 25.77,-16.6 24.96,-18 z" style="fill-opacity: 1; fill-rule: evenodd; stroke: none; fill: rgb(0, 0, 0);" id="path1143"/>
      <path d="m 79.751,360.16 c -3.191,0.9 -6.381,1.81 -10.837,1.03 -4.455,-0.77 -11.72,-3.74 -15.894,-5.68 -4.174,-1.94 -7.425,-3.66 -9.151,-5.94 -1.726,-2.28 -1.445,-5.9 -1.204,-7.75 0.24,-1.85 1.083,-3.01 2.649,-3.36 1.565,-0.34 3.211,1.29 6.743,1.29 3.532,0 10.716,-0.81 14.449,-1.29 3.733,-0.47 5.419,-1.85 7.947,-1.55 2.529,0.3 4.877,1.83 7.225,3.36" style="fill-opacity: 1; fill-rule: evenodd; stroke: none; fill: rgb(0, 0, 0);" id="path1145"/>
      <path d="m 414.28,226.06 c 0.28,-6.82 0.56,-13.65 2.72,-20.78 2.15,-7.12 7.03,-11.88 10.24,-21.97 3.21,-10.1 7.83,-30.38 9.04,-38.6 1.2,-8.21 2.01,-8.71 -1.81,-10.69 -3.82,-1.98 -16.62,-0.69 -21.09,-1.18 -4.47,-0.5 -4.82,-1.88 -5.72,-1.79 -0.91,0.1 1.25,2.28 0.3,2.38 -0.96,0.1 -5.17,-1.78 -6.03,-1.78 -0.85,0 1.71,1.78 0.91,1.78 -0.81,0 -5.23,-2.57 -5.73,-1.78 -0.5,0.79 1.36,5.24 2.71,6.53 1.36,1.29 3.67,0.54 5.43,1.19 1.75,0.64 3.56,0.94 5.12,2.67 1.55,1.73 3.71,4.01 4.22,7.72 0.5,3.71 1.35,8.81 -1.21,14.55 -2.56,5.74 -8.03,11.08 -14.16,19.89 -6.13,8.81 -14.36,20.88 -22.6,32.96" style="fill-opacity: 1; fill-rule: evenodd; stroke: none; fill: rgb(0, 0, 0);" id="path1147"/>
      <path d="m 232.31,237.35 c 4.22,-13.34 2.71,-22.22 2.71,-31.48 0,-9.25 -1.55,-14.84 -2.71,-24.04 -1.15,-9.21 -1.85,-24.7 -4.21,-31.18 -2.36,-6.48 -6.58,-5.84 -9.95,-7.72 -3.36,-1.88 -7.93,-1.88 -10.24,-3.56 -2.31,-1.69 -3.51,-5.59 -3.62,-6.53 -0.1,-0.94 2.52,1.03 3.02,0.89 0.5,-0.15 -0.4,-1.69 0,-1.79 0.4,-0.09 1.8,1.24 2.41,1.19 0.6,-0.05 0.65,-1.33 1.2,-1.48 0.56,-0.15 1.61,0.64 2.11,0.59 0.5,-0.05 0.35,-0.89 0.91,-0.89 0.55,0 1.1,0.89 2.41,0.89 1.3,0 4.01,-0.74 5.42,-0.89 1.4,-0.15 2.21,-0.05 3.01,0 0.8,0.05 1.41,0.45 1.81,0.3 0.4,-0.15 -1.11,-1.14 0.6,-1.19 1.71,-0.05 7.38,0.15 9.64,0.89 2.26,0.74 2.61,1.24 3.92,3.56 1.3,2.33 2.41,4.21 3.92,10.4 1.5,6.18 7.07532,18.00694 9.83532,25.77694 2.76,7.77 3.41468,11.87306 6.73468,20.83306 3.31,8.96 5.87,21.4 8.43,33.85" style="fill-opacity: 1; fill-rule: evenodd; stroke: none; fill: rgb(0, 0, 0);" id="path1149"/>
      <path d="m 299.8,207.06 c 0.93,-21.99 1.86,-43.99 1.81,-56.41 -0.05,-12.42 0.9,-14.89 -2.11,-18.11 -3.01,-3.22 -11.3,-0.94 -15.97,-1.19 -4.67,-0.25 -9.64,-0.35 -12.05,-0.3 -2.41,0.05 -1.41,0.45 -2.41,0.6 -1.01,0.15 -3.62,-1.04 -3.62,0.29 0,1.34 1.56,6.04 3.62,7.72 2.06,1.69 6.68,0.35 8.74,2.38 2.05,2.03 3.86,4.5 3.61,9.8 -0.25,5.29 -3.56,15.14 -5.12,21.97 -1.56,6.83 -0.6,11.18 -4.22,19 -3.61,7.82 -14.76,19.99 -17.47,27.91 -2.71,7.92 -0.76,13.76 1.2,19.6" style="fill-opacity: 1; fill-rule: evenodd; stroke: none; fill: rgb(0, 0, 0);" id="path1151"/>
      <path d="m 348.3,213 c 1.81,-2.6 6.13,-14.1 7.84,-21.38 1.7,-7.27 3.06,-14.64 2.41,-22.26 -0.65,-7.63 -3.52,-18.31 -6.33,-23.46 -2.81,-5.15 -8.23,-4.95 -10.54,-7.42 -2.31,-2.48 -3.57,-6.39 -3.32,-7.43 0.25,-1.04 4.02,1.09 4.82,1.19 0.81,0.1 -0.75,-0.49 0,-0.59 0.76,-0.1 0.1,0 4.52,0 4.42,0 17.63,-0.69 22,0 4.36,0.69 3.11,1.73 4.21,4.15 1.11,2.43 1.86,5.4 2.41,10.4 0.56,4.99 0.2,13.51 0.91,19.59 0.7,6.09 1.96,7.52 3.31,16.93 1.36,9.4 3.79,23.92 4.82,39.48" style="fill-opacity: 1; fill-rule: evenodd; stroke: none; fill: rgb(0, 0, 0);" id="path1153"/>
      <path d="m 79.05,359.16 2.551,2.93 -4.463,-14.87 7.651,16.75 -1.063,-6.07 5.951,6.07 -3.188,-6.28 8.289,5.03 -5.101,-4.4 0.213,-2.93 9.351,4.6 -6.376,-5.86 11.475,2.51 -5.736,-2.93 8.926,0.21 -5.74,-3.14 2.55,-2.31 7.23,3.15 -4.68,-5.24 7.87,3.14 -5.74,-5.86 11.26,2.51 -6.59,-5.03 9.36,2.52 -3.19,-3.56 5.95,0.83 -4.25,-4.61 8.07,2.1 -4.88,-6.28 7.43,3.77 -2.55,-4.19 5.96,0.21 -2.77,-3.77 5.1,1.04 -5.52,-12.77 -46.974,28.06 -22.528,5.66" style="fill-opacity: 1; fill-rule: evenodd; stroke: none; fill: rgb(0, 0, 0);" id="path1155"/>
      <path d="m 243.74,284.73 2.94,9.86 2.55,-6.96 5.69,8.9 3.13,-2.9 h 1.38 l 4.51,5.79 -0.59,-5.21 7.45,1.74 3.14,6.18 v -6.38 l 5.88,2.13 5.1,6.38 -0.19,-7.93 11.37,9.67 -0.59,-6.19 11.38,7.15 0.98,-7.92 8.43,8.5 1.18,-9.08 10,10.63 -0.78,-10.83 10.59,11.99 -0.59,-11.02 14.91,11.6 -1.6,-14.66 14.15,13.5 1.96,-8.89 10.2,6.96 c 0.07,-3.48 0.13,-6.96 0.2,-10.44 l 9.22,9.08 -0.79,-14.69 12.36,11.22 -1.38,-13.15 12.36,9.66 -7.65,-13.33 16.28,9.28 -4.51,-12.57 13.34,9.86 -8.44,-14.11" style="fill-opacity: 1; fill-rule: evenodd; stroke: none; fill: rgb(0, 0, 0);" id="path1157"/>
    </g>
  </g>
</svg>