<svg xmlns="http://www.w3.org/2000/svg" version="1.0" viewBox="0 0 719.000000 458.000000" preserveAspectRatio="xMidYMid meet" x="0px" y="0px"><metadata>
Created by potrace 1.12, written by Peter Selinger 2001-2015
</metadata><g transform="translate(0.000000,458.000000) scale(0.100000,-0.100000)" fill="#000000" stroke="none"><path d="M6666 4324 c-49 -18 -242 -115 -299 -151 -126 -79 -339 -281 -842 -802 -233 -241 -407 -376 -745 -576 -299 -177 -581 -300 -860 -372 -183 -48 -227 -52 -433 -41 -151 9 -188 8 -245 -5 -37 -9 -103 -23 -147 -33 -283 -60 -540 -203 -1005 -559 -367 -282 -466 -349 -650 -441 -496 -248 -744 -326 -1115 -352 -92 -6 -100 -9 -103 -28 -4 -31 17 -36 173 -35 227 1 567 44 810 101 178 42 536 167 658 229 91 47 117 48 186 12 33 -17 69 -31 81 -31 28 0 39 -34 46 -139 6 -94 3 -104 -74 -226 -23 -37 -35 -74 -47 -144 -8 -51 -28 -126 -44 -165 -36 -89 -30 -113 43 -183 l54 -53 86 0 c46 0 88 5 91 10 3 6 -19 44 -49 86 -32 43 -56 87 -56 101 0 28 16 62 62 129 17 26 65 114 105 196 40 81 77 148 83 148 16 0 23 -48 11 -81 -17 -50 -13 -108 14 -200 21 -71 25 -105 25 -221 0 -100 3 -137 13 -141 6 -2 39 -2 72 1 33 2 76 0 96 -6 44 -12 129 -4 129 12 0 14 -47 64 -84 89 -14 10 -36 37 -47 60 -18 35 -21 52 -16 112 3 38 16 106 29 150 18 64 23 106 24 210 1 107 3 129 15 127 54 -13 272 -20 374 -13 119 9 121 10 228 64 94 49 108 53 116 39 16 -33 30 -200 36 -437 3 -132 10 -264 16 -293 8 -41 7 -58 -4 -81 -8 -17 -12 -32 -9 -35 3 -3 54 -6 114 -6 119 0 119 0 93 63 -25 60 -20 250 9 372 13 55 27 121 31 148 4 26 12 47 19 47 6 0 34 -41 61 -92 28 -50 74 -135 103 -187 l53 -96 -6 -122 -6 -123 115 0 c63 0 118 4 121 10 3 5 -3 27 -15 49 -12 25 -24 77 -30 138 -13 124 -19 149 -95 368 -58 166 -65 196 -90 380 -14 110 -30 222 -35 249 l-8 49 60 76 c34 42 72 101 85 131 13 30 29 66 36 80 14 29 144 118 250 172 39 20 151 75 247 121 188 91 294 154 460 274 279 202 415 332 670 638 87 105 201 242 254 305 53 63 189 228 302 365 219 265 228 275 286 305 66 35 101 26 180 -46 51 -47 68 -53 92 -29 13 13 13 19 0 43 -12 23 -12 27 0 30 8 2 25 -4 38 -12 22 -14 26 -14 46 0 31 22 28 37 -22 92 -35 40 -44 59 -50 101 -9 67 -32 91 -88 90 -24 0 -61 -7 -82 -15z"></path></g></svg>