<?xml version="1.0" standalone="no"?>
<!DOCTYPE svg PUBLIC "-//W3C//DTD SVG 20010904//EN"
 "http://www.w3.org/TR/2001/REC-SVG-20010904/DTD/svg10.dtd">
<svg version="1.0" xmlns="http://www.w3.org/2000/svg"
 width="1536.000000pt" height="513.000000pt" viewBox="0 0 1536.000000 513.000000"
 preserveAspectRatio="xMidYMid meet">
<metadata>
Created by potrace 1.16, written by Peter Selinger 2001-2019
</metadata>
<g transform="translate(0.000000,513.000000) scale(0.100000,-0.100000)"
fill="#000000" stroke="none">
<path d="M6050 5106 c-330 -51 -519 -101 -1000 -263 -224 -75 -396 -140 -715
-271 -148 -60 -333 -134 -410 -163 -131 -50 -145 -54 -225 -53 -100 2 -286 41
-405 87 -102 38 -176 78 -402 214 -183 111 -365 200 -510 249 -67 23 -99 28
-225 32 -212 6 -375 -21 -529 -89 -58 -25 -71 -27 -93 -17 -21 9 -38 8 -89 -6
-90 -25 -130 -52 -284 -192 -234 -214 -372 -314 -618 -449 -192 -105 -413
-254 -468 -315 -30 -33 -52 -70 -62 -103 -23 -76 -19 -104 16 -139 28 -29 34
-30 88 -25 36 3 80 16 120 37 l63 32 34 -33 c35 -34 53 -35 35 -1 -17 31 -15
31 46 0 31 -15 59 -26 61 -23 3 3 -12 23 -33 45 -45 46 -38 50 20 15 22 -14
53 -25 69 -25 l30 0 -29 30 -29 30 26 0 c35 0 59 10 52 21 -3 5 9 9 25 9 35 0
38 6 16 30 -14 16 -14 17 11 12 21 -4 26 -2 22 9 -22 53 -22 53 -4 46 52 -20
67 -20 73 2 3 12 13 21 24 21 23 0 23 4 3 36 -17 24 -17 24 10 14 45 -17 65
-13 59 10 -5 19 -2 20 36 14 44 -7 50 -1 24 28 -19 21 -13 22 40 7 46 -12 53
-8 37 21 -16 31 -7 34 31 11 40 -25 54 -18 33 15 -23 34 -12 40 24 14 36 -27
53 -19 46 20 -6 27 -4 29 45 44 66 19 204 30 274 22 62 -8 149 -55 180 -98 19
-26 19 -28 3 -80 -38 -116 -237 -484 -296 -548 -17 -18 -25 -38 -25 -61 0 -28
-4 -35 -23 -37 -24 -4 -28 -12 -11 -29 20 -20 2 -43 -32 -43 -31 0 -31 0 -16
-24 19 -29 13 -38 -21 -29 -26 6 -27 0 -6 -51 7 -17 4 -19 -30 -13 -40 6 -41
4 -21 -45 6 -15 2 -16 -29 -11 -42 7 -49 -12 -16 -42 28 -25 25 -35 -10 -35
-31 0 -35 -9 -21 -45 20 -47 -34 -59 -90 -20 -44 29 -53 24 -34 -22 15 -36 13
-36 -37 1 -44 31 -46 16 -12 -69 8 -19 7 -19 -19 -2 -14 9 -29 17 -32 17 -11
0 -4 -33 15 -68 10 -20 22 -53 25 -73 5 -33 11 -39 55 -58 58 -25 129 -27 173
-5 18 10 75 58 127 107 116 110 219 179 393 262 220 105 376 150 625 181 183
23 1104 36 1182 18 78 -19 344 -154 414 -211 33 -26 93 -91 133 -143 138 -177
194 -225 328 -275 83 -31 275 -132 275 -145 0 -30 -91 -209 -126 -249 -50 -57
-60 -75 -74 -137 -16 -72 -44 -109 -129 -172 -44 -34 -96 -85 -124 -122 -123
-166 -209 -223 -437 -289 -14 -4 -26 -15 -28 -25 -6 -27 80 -59 173 -64 186
-10 382 89 495 249 27 40 50 68 50 62 0 -5 -11 -41 -24 -80 -13 -39 -29 -98
-36 -130 -24 -121 -73 -242 -141 -350 -18 -29 -19 -34 -5 -39 48 -18 158 39
202 105 15 23 42 78 61 123 l34 83 -6 -95 c-3 -52 -6 -110 -8 -129 -3 -50 18
-50 67 2 54 55 68 96 96 267 48 297 70 416 85 459 22 67 70 134 184 256 104
111 151 186 151 239 0 52 11 60 73 53 30 -4 93 -18 141 -32 47 -14 98 -25 112
-25 14 0 33 -4 43 -9 16 -9 292 -50 541 -81 135 -17 136 -18 143 -82 10 -103
71 -253 200 -494 24 -44 63 -136 86 -204 42 -119 44 -130 49 -271 l5 -148 -30
-38 c-17 -21 -61 -85 -99 -142 -115 -174 -235 -288 -404 -384 -25 -14 -74 -51
-110 -82 -113 -97 -279 -164 -410 -165 -120 -1 -290 -72 -341 -143 -55 -76
-32 -102 61 -67 42 16 73 21 107 17 59 -5 133 -33 149 -55 11 -15 18 -15 71
-3 32 7 76 17 98 21 22 5 79 9 126 10 94 0 230 21 297 44 96 34 235 149 327
270 30 39 164 185 299 324 158 164 248 265 255 285 15 47 29 167 46 402 19
262 33 341 89 530 54 181 70 263 61 325 l-6 46 108 17 c59 9 117 17 129 17 15
0 55 -43 140 -147 139 -173 224 -259 349 -353 172 -130 267 -170 550 -236 360
-84 440 -114 634 -242 73 -48 238 -187 282 -237 42 -47 138 -184 165 -235 11
-19 31 -51 46 -71 15 -19 35 -53 44 -74 9 -22 35 -60 58 -86 22 -26 54 -72 70
-102 28 -53 29 -58 16 -97 -17 -51 -84 -129 -207 -240 -104 -95 -133 -132
-133 -172 0 -36 15 -36 87 2 32 16 89 41 126 54 l68 25 9 -23 c14 -39 32 -36
95 19 84 73 130 105 146 105 9 0 30 15 48 34 43 44 51 101 51 387 0 281 -1
284 -132 372 -68 46 -116 92 -228 218 -261 292 -409 419 -643 552 -154 86
-218 149 -307 299 -89 149 -177 241 -304 319 -82 50 -106 75 -106 113 0 21 97
75 365 204 432 209 556 237 1095 252 300 8 312 9 725 69 375 55 726 108 1120
172 165 26 565 106 850 169 248 55 313 65 540 80 175 12 710 15 802 5 76 -9
346 -58 556 -101 309 -64 459 -107 925 -269 106 -37 199 -64 207 -61 22 8 19
62 -5 86 -24 24 -70 48 -440 222 -668 317 -847 380 -1379 489 -465 95 -638
127 -756 138 -291 28 -463 41 -600 46 -82 2 -208 12 -280 20 -326 39 -491 56
-775 80 -581 48 -671 68 -1430 305 -364 113 -479 148 -536 160 -123 26 -592
202 -803 301 -167 79 -200 86 -766 163 -619 85 -629 86 -1015 91 -338 4 -363
3 -510 -19z m-5125 -1106 c3 -5 -1 -10 -9 -10 -9 0 -16 5 -16 10 0 6 4 10 9
10 6 0 13 -4 16 -10z m-130 -70 c3 -5 -1 -10 -9 -10 -9 0 -16 5 -16 10 0 6 4
10 9 10 6 0 13 -4 16 -10z m-115 -65 c10 -12 10 -15 -4 -15 -9 0 -16 7 -16 15
0 8 2 15 4 15 2 0 9 -7 16 -15z m-65 -45 c3 -5 1 -10 -4 -10 -6 0 -11 5 -11
10 0 6 2 10 4 10 3 0 8 -4 11 -10z m-35 -35 c7 -9 10 -18 7 -21 -9 -9 -48 16
-42 27 9 13 21 11 35 -6z m-102 -75 c7 -11 10 -20 6 -20 -13 0 -44 21 -44 30
0 17 25 11 38 -10z m-87 -17 c13 -16 12 -17 -3 -4 -10 7 -18 15 -18 17 0 8 8
3 21 -13z m769 -623 c0 -5 -4 -10 -10 -10 -5 0 -10 5 -10 10 0 6 5 10 10 10 6
0 10 -4 10 -10z m-30 -60 c0 -5 -9 -10 -20 -10 -11 0 -20 5 -20 10 0 6 9 10
20 10 11 0 20 -4 20 -10z m-50 -70 c0 -5 -4 -10 -9 -10 -6 0 -13 5 -16 10 -3
6 1 10 9 10 9 0 16 -4 16 -10z m-105 -80 c18 -19 17 -20 -3 -20 -12 0 -22 2
-22 4 0 2 -3 11 -6 20 -9 22 9 20 31 -4z m-55 -35 c7 -8 10 -18 7 -22 -8 -7
-35 14 -48 39 -9 17 -8 18 9 9 10 -5 25 -17 32 -26z m-42 -63 c6 -18 -15 -14
-22 4 -4 10 -1 14 6 12 6 -2 14 -10 16 -16z m3271 -1157 c17 -20 31 -39 31
-44 0 -35 -108 -105 -206 -134 -68 -20 -172 -30 -207 -20 -27 8 -24 10 50 41
93 38 183 95 238 151 21 23 44 41 51 41 7 0 26 -16 43 -35z m379 -296 c2 -19
-4 -43 -12 -54 -14 -19 -15 -16 -16 38 0 43 3 58 13 55 6 -3 13 -20 15 -39z
m-190 -56 c4 -26 -81 -123 -95 -110 -13 13 57 138 76 135 9 -2 17 -13 19 -25z
m5372 -1000 c0 -19 -97 -113 -118 -113 -16 0 -11 9 41 78 39 52 77 69 77 35z
m-4470 -68 c0 -30 -20 -40 -105 -50 -73 -10 -68 5 19 46 75 35 86 36 86 4z
m4237 -39 c-3 -10 -90 -44 -116 -45 -19 -1 23 45 64 70 28 18 31 18 43 2 7 -9
11 -22 9 -27z m-3906 13 c8 -17 8 -24 -3 -35 -14 -14 -126 -39 -135 -31 -6 7
99 87 114 87 7 0 17 -10 24 -21z"/>
</g>
</svg>
