<?xml version="1.0" standalone="no"?>
<!DOCTYPE svg PUBLIC "-//W3C//DTD SVG 20010904//EN"
 "http://www.w3.org/TR/2001/REC-SVG-20010904/DTD/svg10.dtd">
<svg version="1.0" xmlns="http://www.w3.org/2000/svg"
 width="1536.000000pt" height="631.000000pt" viewBox="0 0 1536.000000 631.000000"
 preserveAspectRatio="xMidYMid meet">
<metadata>
Created by potrace 1.16, written by Peter Selinger 2001-2019
</metadata>
<g transform="translate(0.000000,631.000000) scale(0.100000,-0.100000)"
fill="#000000" stroke="none">
<path d="M6342 6280 c-84 -40 -136 -76 -270 -188 -217 -182 -552 -536 -594
-628 -6 -13 -14 -24 -18 -24 -4 0 -24 26 -45 58 -195 294 -389 460 -561 478
l-60 6 -65 -73 c-36 -41 -85 -103 -109 -138 -50 -75 -156 -294 -226 -468 -27
-68 -52 -123 -56 -123 -3 0 -48 31 -100 70 -51 38 -152 100 -225 137 -125 64
-136 67 -200 67 -93 0 -128 -20 -159 -89 -32 -69 -44 -176 -44 -397 l0 -177
-45 20 c-75 33 -174 50 -220 38 -70 -19 -91 -35 -115 -91 -21 -46 -24 -73 -28
-213 -2 -88 1 -209 7 -269 6 -60 10 -111 8 -112 -2 -2 -35 5 -73 16 -38 11
-81 20 -95 20 -31 0 -74 -32 -93 -68 -19 -38 -27 -163 -16 -252 4 -41 5 -76 1
-78 -89 -33 -319 -238 -361 -322 l-23 -44 -27 136 c-39 194 -66 278 -89 278
-26 0 -64 -39 -114 -117 -75 -117 -117 -243 -117 -351 l0 -54 -33 7 c-52 12
-68 23 -63 48 13 62 15 165 6 220 -12 68 -86 233 -114 256 -25 21 -45 5 -78
-60 -42 -83 -108 -293 -115 -365 l-6 -64 -41 6 c-68 9 -65 4 -59 107 7 111 -3
146 -83 315 -41 86 -59 112 -73 112 -43 0 -76 -90 -126 -333 -24 -118 -36
-161 -46 -159 -7 2 -35 6 -61 9 -51 6 -55 11 -37 46 7 11 11 61 11 109 -1 78
-5 96 -32 150 -54 106 -93 159 -114 156 -24 -4 -86 -114 -118 -208 -16 -47
-21 -87 -21 -147 l1 -83 -67 6 c-89 8 -167 -19 -291 -100 -71 -46 -122 -91
-200 -176 -112 -121 -186 -194 -235 -231 -56 -42 -126 -114 -155 -159 -43 -69
-60 -140 -60 -257 l0 -103 89 0 c69 0 103 5 152 24 108 40 223 60 354 60 l120
0 140 -60 c77 -34 164 -67 194 -74 76 -18 234 -7 347 24 69 19 105 23 147 19
38 -4 68 -1 94 9 30 12 90 15 293 14 l255 -1 56 -27 c96 -46 336 -111 594
-162 203 -40 265 -47 494 -55 162 -5 216 -10 219 -20 10 -30 108 -163 188
-256 109 -127 129 -162 165 -288 17 -56 49 -141 72 -188 l42 -85 -67 -79 c-36
-43 -81 -105 -100 -137 -61 -110 -108 -179 -182 -271 -41 -51 -103 -137 -139
-192 -75 -115 -88 -129 -217 -218 -119 -81 -139 -102 -122 -125 7 -9 16 -27
22 -39 16 -39 55 -56 108 -50 26 4 57 9 69 13 16 4 24 0 35 -23 8 -15 20 -28
28 -27 8 0 43 4 78 8 l63 7 10 -30 c14 -41 41 -47 89 -20 31 18 47 37 69 83
37 79 100 138 324 304 209 156 322 261 423 395 88 116 114 164 123 226 6 41 8
31 24 -89 9 -74 39 -223 66 -330 84 -332 96 -433 59 -503 -7 -14 -46 -49 -85
-77 -75 -52 -97 -86 -74 -114 8 -10 39 -16 89 -18 42 -3 91 -10 108 -18 28
-12 36 -11 74 8 l44 21 14 -20 c15 -22 16 -22 137 -2 28 5 56 12 63 17 32 20
45 73 53 216 7 117 17 176 49 305 44 177 60 352 60 650 0 175 -5 188 -100 322
-33 46 -60 89 -60 95 0 8 36 9 128 5 70 -4 231 -7 358 -7 l232 0 7 -67 c16
-156 63 -320 145 -503 l47 -105 1 -242 1 -242 -98 -85 c-124 -107 -143 -141
-132 -239 8 -73 21 -91 58 -82 15 4 23 0 28 -14 12 -40 49 -34 134 23 25 17
77 37 119 47 41 9 139 37 217 61 l143 43 16 88 c42 226 42 281 1 422 -44 154
-42 180 36 394 76 205 90 278 98 480 l6 174 49 14 c26 8 55 12 63 9 19 -8 64
-110 98 -221 30 -98 75 -194 156 -331 46 -78 94 -130 406 -445 351 -354 353
-357 353 -398 0 -62 -29 -108 -139 -224 -110 -115 -123 -139 -94 -168 18 -18
22 -19 62 -4 53 19 61 19 61 1 0 -7 7 -19 15 -26 13 -11 32 -9 103 8 48 12
138 26 201 32 125 12 181 30 225 76 l28 29 4 278 c6 322 20 266 -126 477 -104
149 -134 207 -190 365 -43 124 -96 240 -151 335 l-32 55 47 72 c80 124 123
255 191 577 22 105 42 177 53 189 26 29 138 92 224 127 126 50 515 140 783
180 258 40 755 37 1325 -8 175 -13 378 -17 1095 -18 1007 -2 1212 -11 1416
-63 212 -54 380 -127 586 -255 207 -128 342 -242 565 -479 l155 -164 94 -189
c51 -104 98 -192 104 -196 5 -5 18 2 29 15 17 20 18 34 12 140 l-6 119 28 -6
c38 -8 442 -25 659 -28 158 -3 184 -1 199 14 9 9 13 21 9 28 -11 17 -135 74
-229 104 -137 45 -512 106 -650 106 -100 0 -94 -5 -210 155 -105 143 -104 142
-59 154 347 89 576 170 851 301 127 61 155 89 90 91 -65 2 -145 -2 -263 -11
-229 -19 -790 -50 -890 -50 -157 0 -177 13 -94 60 24 13 72 52 107 85 74 72
81 104 30 135 -46 28 -206 54 -335 55 -62 0 -113 1 -113 2 0 1 20 25 45 55 25
29 58 77 72 107 24 49 25 56 12 80 -27 48 -70 61 -211 61 -108 0 -139 -4 -205
-25 -42 -13 -78 -23 -80 -22 -1 2 20 36 48 77 96 144 149 275 149 374 0 66
-20 96 -63 96 -52 0 -232 -45 -377 -93 -74 -25 -136 -44 -137 -43 -2 1 4 34
12 72 18 78 31 361 21 418 -8 44 -37 76 -69 76 -26 0 -319 -142 -469 -227 -55
-31 -100 -54 -102 -52 -2 2 22 89 55 194 32 104 69 228 81 275 25 100 30 238
9 288 l-13 32 -87 0 c-205 0 -487 -53 -745 -139 l-88 -30 5 27 c3 15 17 83 31
152 36 171 45 334 21 395 -29 76 -41 80 -255 79 -194 -1 -397 -16 -565 -40
-126 -18 -174 -28 -308 -66 -59 -17 -110 -29 -113 -26 -3 4 -10 102 -15 220
-15 349 -35 493 -75 533 -20 19 -72 19 -194 0 -299 -48 -556 -122 -832 -241
-119 -51 -148 -60 -148 -49 0 2 -9 73 -19 157 -11 84 -19 178 -18 208 1 44 -8
75 -40 151 -78 180 -142 272 -202 290 -33 10 -45 8 -87 -10 -143 -63 -516
-344 -695 -523 -101 -101 -88 -109 -114 75 -18 129 -70 254 -126 301 -32 27
-37 28 -100 23 -182 -15 -486 -170 -724 -368 -151 -126 -185 -152 -192 -146
-3 4 -19 75 -35 159 -52 279 -97 410 -167 491 -40 45 -57 46 -139 7z m1533
-2797 c-11 -74 -53 -201 -92 -275 -33 -64 -97 -148 -112 -148 -4 0 -13 40 -19
88 -7 48 -25 134 -41 191 -19 69 -25 104 -17 106 6 2 36 6 66 10 72 8 148 30
185 54 17 11 32 20 34 20 2 1 0 -20 -4 -46z m-345 -85 c42 -95 81 -309 72
-389 -2 -15 -33 -63 -74 -110 -100 -119 -146 -190 -193 -299 -24 -54 -47 -95
-55 -95 -24 0 -60 65 -60 107 0 55 32 140 76 201 74 102 84 120 84 149 0 17
-25 78 -55 136 -73 141 -73 164 -4 237 50 53 135 105 172 105 12 0 25 -14 37
-42z m2516 -34 c87 -53 108 -60 232 -79 248 -36 215 -40 -346 -40 -590 0 -563
2 -987 -81 -126 -25 -249 -46 -272 -46 -37 -1 -58 9 -143 65 -55 37 -100 73
-100 81 0 17 91 46 147 46 26 0 73 -12 111 -27 51 -21 83 -28 132 -27 59 1 77
7 200 67 81 40 148 67 167 67 17 0 69 -9 115 -20 104 -25 160 -25 290 -1 57
11 114 22 128 24 14 2 79 5 146 6 l120 1 60 -36z m-1940 -210 c-7 -96 -25
-163 -26 -99 0 17 -7 64 -14 105 -8 41 -12 78 -9 83 2 4 16 7 30 7 l26 0 -7
-96z m2344 26 c80 -6 129 -15 162 -30 64 -28 158 -38 261 -27 83 8 88 7 161
-23 42 -18 74 -36 70 -41 -3 -5 -236 -9 -552 -9 -301 -1 -644 -5 -762 -10
-524 -22 -689 -24 -808 -6 -131 20 -175 33 -152 46 37 20 551 105 695 114 98
6 801 -4 925 -14z m1110 -144 l35 -16 -75 5 c-166 12 -205 18 -185 27 32 13
186 2 225 -16z m-10694 -49 c-10 -7 -50 -37 -90 -68 -81 -63 -404 -278 -420
-280 -6 -1 -27 -1 -46 0 l-35 2 48 43 c27 24 95 71 152 105 115 69 129 82 120
110 -5 17 7 23 102 54 118 39 138 44 168 45 19 1 19 0 1 -11z m622 -48 l98
-51 84 21 c91 23 137 26 160 11 22 -14 4 -25 -75 -44 -86 -20 -185 -66 -290
-135 -162 -107 -365 -190 -461 -191 -17 0 -58 14 -90 32 -32 17 -79 41 -103
53 l-44 22 84 30 c112 41 244 69 441 93 187 24 198 26 198 45 0 56 -302 69
-464 20 -27 -8 -51 -14 -52 -12 -1 1 14 35 33 75 l37 73 55 -8 c71 -9 149 -7
181 6 57 23 107 13 208 -40z m803 -146 l54 -38 195 0 c181 0 199 -2 250 -23
49 -21 63 -23 152 -16 94 6 99 6 160 -23 92 -44 108 -46 205 -23 55 14 89 18
95 12 14 -14 -24 -37 -121 -72 -109 -40 -198 -40 -442 0 -325 54 -418 76 -546
130 -65 28 -129 59 -143 70 l-25 20 56 0 c50 0 64 -5 110 -37z m4089 32 c0
-10 -153 -281 -176 -313 -14 -17 -37 -38 -52 -46 -81 -41 -771 -162 -958 -168
-65 -2 -76 1 -107 25 -32 24 -165 177 -154 177 3 0 20 -6 38 -14 44 -18 65 -9
120 51 24 27 70 69 102 93 50 37 67 44 116 48 52 4 72 -2 202 -53 126 -50 152
-58 210 -57 79 0 94 7 178 82 l63 58 112 4 c116 5 155 16 206 63 37 33 100 65
100 50z m-5599 -239 c65 -26 128 -68 111 -74 -6 -2 -51 11 -100 27 -49 17 -99
31 -110 31 -11 0 -28 3 -37 7 -15 5 -14 8 6 19 34 19 66 17 130 -10z m5289
-215 c0 -24 -187 -143 -295 -187 -65 -27 -78 -29 -200 -28 -110 1 -143 5 -219
28 -48 15 -100 33 -114 40 -26 14 -25 14 33 21 204 24 750 117 764 130 8 8 31
5 31 -4z m179 -751 c46 -71 61 -131 54 -218 l-6 -64 -27 51 c-16 28 -42 69
-60 90 -17 22 -47 71 -66 108 -33 63 -34 68 -18 80 10 7 33 13 51 13 30 0 38
-6 72 -60z m1280 -125 c48 -24 119 -131 206 -310 l83 -170 171 -169 c94 -93
171 -177 171 -186 0 -17 -26 -30 -62 -30 -26 0 -60 42 -124 157 -32 58 -69
113 -82 122 -13 9 -42 31 -65 49 -22 19 -59 42 -82 53 -48 22 -68 53 -85 129
-17 76 -31 94 -108 144 -37 23 -74 51 -82 61 -22 27 -20 117 4 144 23 25 20
25 55 6z m629 -938 c2 -11 1 -35 -3 -55 l-7 -37 -18 45 c-11 25 -19 51 -19 58
-1 21 43 10 47 -11z"/>
</g>
</svg>
