<?xml version="1.0" encoding="UTF-8" standalone="no"?>
<!-- Created with Inkscape (http://www.inkscape.org/) -->

<svg
   xmlns:dc="http://purl.org/dc/elements/1.1/"
   xmlns:cc="http://creativecommons.org/ns#"
   xmlns:rdf="http://www.w3.org/1999/02/22-rdf-syntax-ns#"
   xmlns:svg="http://www.w3.org/2000/svg"
   xmlns="http://www.w3.org/2000/svg"
   xmlns:sodipodi="http://sodipodi.sourceforge.net/DTD/sodipodi-0.dtd"
   xmlns:inkscape="http://www.inkscape.org/namespaces/inkscape"
   width="285.25577mm"
   height="97.216347mm"
   viewBox="0 0 1010.7488 344.46737"
   id="svg16023"
   version="1.1"
   inkscape:version="0.91 r13725"
   sodipodi:docname="Kentro.svg">
  <defs
     id="defs16025" />
  <sodipodi:namedview
     id="base"
     pagecolor="#ffffff"
     bordercolor="#666666"
     borderopacity="1.0"
     inkscape:pageopacity="0.0"
     inkscape:pageshadow="2"
     inkscape:zoom="0.7"
     inkscape:cx="594.96684"
     inkscape:cy="203.28821"
     inkscape:document-units="px"
     inkscape:current-layer="layer1"
     showgrid="false"
     inkscape:window-width="1366"
     inkscape:window-height="709"
     inkscape:window-x="0"
     inkscape:window-y="0"
     inkscape:window-maximized="1"
     fit-margin-top="0"
     fit-margin-left="0"
     fit-margin-right="0"
     fit-margin-bottom="0" />
  <metadata
     id="metadata16028">
    <rdf:RDF>
      <cc:Work
         rdf:about="">
        <dc:format>image/svg+xml</dc:format>
        <dc:type
           rdf:resource="http://purl.org/dc/dcmitype/StillImage" />
        <dc:title></dc:title>
      </cc:Work>
    </rdf:RDF>
  </metadata>
  <g
     inkscape:label="Layer 1"
     inkscape:groupmode="layer"
     id="layer1"
     transform="translate(754.08802,-705.82023)">
    <g
       id="g16637"
       style="fill:#000000"
       transform="matrix(-1,0,0,1,-497.42722,0)">
      <path
         sodipodi:nodetypes="ssssssssssssssssscssscssscscssscsssssssccssssssssss"
         inkscape:connector-curvature="0"
         id="path4138-5"
         d="m -492.47315,801.22324 c -31.62901,15.76044 -54.98397,46.016 -87.49712,59.8609 -12.76428,5.43535 -26.9089,8.03097 -40.74747,7.04923 -21.69115,-1.53881 -35.90681,-17.15059 -57.35361,-20.74344 -12.55331,-2.10298 -21.08377,-2.99083 -32.85909,0.56558 -4.08306,1.23317 -5.50931,-0.0516 -9.37566,1.74937 -2.4542,1.14316 -5.61661,3.06312 -7.50238,5.00574 -1.29717,1.33627 -2.00071,3.21919 -3.43687,4.40482 -8.1961,6.76631 -12.75912,10.86046 -20.89873,18.07388 -2.18768,1.93875 -2.68671,7.52337 -0.68137,9.65018 2.11577,2.24393 5.95073,3.03977 8.74424,1.73287 9.82779,-4.59777 29.39781,-6.0413 43.81298,-7.32686 8.87439,-0.79143 11.96399,-0.26258 20.68251,1.57279 22.69406,4.77743 36.8417,18.12965 59.2097,24.25471 19.02402,5.20937 40.73999,3.8326 58.23329,10.50439 5.74125,2.18966 4.70008,11.355 7.03238,17.0398 2.34364,5.71245 5.26078,8.27768 8.42379,13.58052 3.88329,6.5104 13.01936,21.13402 13.01936,21.13402 0,0 1.3501,42.92636 0.0898,64.33396 -0.16656,2.8292 1.22111,6.9406 -0.29513,9.3351 -1.00393,1.5853 -3.89278,1.3989 -5.30301,2.6369 -1.60888,1.4124 -3.8774,4.5934 -3.8774,4.5934 0,0 17.94581,0.2096 31.90388,-0.1786 4.8977,-0.1362 -0.037,-9.6705 0.0533,-14.5693 0.41621,-22.5878 6.52378,-41.69896 11.44499,-66.80166 1.33655,-6.81762 -3.65952,-12.52329 -6.51666,-26.59242 0,0 48.47596,15.63262 95.88624,7.19193 41.75338,-7.43357 79.31534,-20.6723 79.31534,-20.6723 0,0 3.55196,29.12475 7.23576,37.09616 8.84523,19.14027 18.49182,38.43499 25.01266,55.92489 1.85764,4.9825 0.68134,11.5649 -2.59415,15.7673 -0.54983,0.7054 -0.31193,2.665 -0.31193,2.665 0,0 -5.34421,2.5684 -7.40297,9.0127 -0.92362,2.8911 6.02802,-1.472 9.0393,-1.0929 1.83678,0.2312 1.92308,1.9993 3.17643,2.0124 11.27144,0.1181 14.13779,-0.2806 25.77516,0.061 6.03834,0.1773 1.35672,-6.7573 0.77413,-17.4409 -0.3049,-5.5911 3.14954,-12.1474 0.79911,-17.2297 -7.29586,-15.77571 -5.28657,-32.09731 -12.87614,-46.86474 -1.16211,-2.26118 -3.25916,-5.56401 -3.25916,-5.56401 l 14.72961,-64.00202 c 0,0 13.86958,-8.84597 21.443,-11.08381 17.57461,-5.19306 36.1567,-6.86353 54.47396,-7.42307 72.99104,-2.22967 145.581845,21.7571 218.469888,17.28532 59.23971,-3.63444 212.179332,-30.56307 154.409562,-34.834 -41.14951,-3.04219 -85.440493,10.60406 -154.928705,2.87637 -76.901259,-8.55208 -147.127185,-49.2167 -222.962635,-64.57661 -21.88693,-4.43303 -41.01123,-10.85165 -62.28052,-13.29346 -24.74048,-2.84033 -46.6267,-3.7036 -72.35173,-7.30489 -22.10917,-3.09509 -37.79339,-7.88477 -75.7573,-5.34035 -28.942,1.93975 -56.15832,13.02703 -82.12063,25.96381 z"
         style="opacity:1;fill:#000000;fill-opacity:1;fill-rule:evenodd;stroke:none;stroke-width:0.348791px;stroke-linecap:round;stroke-linejoin:miter;stroke-opacity:1" />
      <path
         sodipodi:nodetypes="sssssss"
         inkscape:connector-curvature="0"
         id="path16607"
         d="m -677.85714,828.25506 c -2.93348,3.49497 -4.98195,6.07602 -5.89286,10 -0.70435,3.03417 -1.2407,5.73055 -1.07143,8.57142 0.11083,1.86009 3.1462,2.31115 5,2.5 1.8386,0.1873 4.35608,0.12494 5.35715,-1.42857 1.13189,-1.75653 1.78876,-4.83547 2.14286,-8.03571 0.47868,-4.32617 -2.65063,-15.04446 -5.53572,-11.60714 z"
         style="fill:#000000;fill-rule:evenodd;stroke:none;stroke-width:1px;stroke-linecap:butt;stroke-linejoin:miter;stroke-opacity:1" />
      <path
         sodipodi:nodetypes="sssssssss"
         inkscape:connector-curvature="0"
         id="path16609"
         d="m -656.96428,857.00506 c -0.95593,-1.98768 -1.94379,-5.91802 -0.89286,-7.85714 2.53665,-4.68053 6.89157,-9.28416 10.17857,-13.03571 0.23536,-0.26862 0.73261,-0.11294 1.07143,0 0.56469,0.18823 1.46355,0.47722 1.42857,1.07143 -0.3126,5.31086 0.18984,12.00631 0.17857,17.85714 -0.003,1.60272 -0.52319,3.47697 -1.78571,4.46428 -1.37265,1.07343 -3.48664,1.13119 -5.17857,0.71429 -2.48586,-0.61253 -3.89038,-0.90703 -5,-3.21429 z"
         style="fill:#000000;fill-rule:evenodd;stroke:none;stroke-width:1px;stroke-linecap:butt;stroke-linejoin:miter;stroke-opacity:1" />
      <path
         sodipodi:nodetypes="sssssssssss"
         inkscape:connector-curvature="0"
         id="path16611"
         d="m -629.82143,866.29078 c -0.61994,1.52051 2.08009,2.70569 3.57143,3.39286 2.60896,1.20214 5.88554,1.91159 8.57143,0.89285 1.81199,-0.68728 3.3213,-2.44536 3.92857,-4.28571 1.32366,-4.01138 0.33366,-8.28771 0.89286,-12.14286 0.77375,-5.33429 0.98373,-10.63024 1.78571,-16.07143 0.13724,-0.93109 -1.41387,-1.85634 -2.32143,-1.60714 -3.23199,0.88745 -4.4249,1.81264 -5.89285,2.85714 -2.33604,1.66219 -4.27404,3.94953 -5.71429,6.42858 -2.241,3.85738 -3.14575,8.08 -4.64286,13.03571 -0.75139,2.48727 0.81874,5.05393 -0.17857,7.5 z"
         style="fill:#000000;fill-rule:evenodd;stroke:none;stroke-width:1px;stroke-linecap:butt;stroke-linejoin:miter;stroke-opacity:1" />
      <path
         sodipodi:nodetypes="ssssssssssssss"
         inkscape:connector-curvature="0"
         id="path16613"
         d="m -589.32122,863.69948 c -0.79862,-1.03268 -1.02103,-2.41641 -1.3204,-3.68708 -0.77933,-3.30789 -2.41417,-6.59161 -2.96355,-10.08664 -0.55464,-3.5286 0.25147,-7.24941 1.37925,-10.63863 1.37394,-4.12904 3.86875,-7.48196 7.32416,-11.06386 1.37376,-1.42405 2.7792,-2.97328 4.59635,-3.75627 1.0614,-0.45734 2.29867,-0.63477 3.43863,-0.44441 0.9485,0.15842 1.97669,0.53518 2.5857,1.27938 0.6796,0.83046 0.70982,2.0443 0.82862,3.11078 0.48806,4.38128 -0.40182,8.80827 -0.50836,13.21536 -0.10476,4.33277 2.71871,7.75299 5.10871,12.40595 1.32623,2.58197 -0.93042,6.12447 -2.97627,8.18358 -3.19095,3.21163 -8.2398,5.27285 -12.7338,4.7245 -1.90546,-0.23253 -3.58471,-1.72419 -4.75904,-3.24266 z"
         style="fill:#000000;fill-rule:evenodd;stroke:none;stroke-width:1px;stroke-linecap:butt;stroke-linejoin:miter;stroke-opacity:1" />
      <path
         sodipodi:nodetypes="ssssssssssss"
         inkscape:connector-curvature="0"
         id="path16615"
         d="m -560.67633,815.14376 c -0.27335,2.19263 -0.19888,4.49376 0.41748,6.61566 2.05103,7.06092 4.4128,14.38405 9.08597,21.2373 1.28529,1.88489 4.30998,2.18339 6.57415,1.90358 3.87016,-0.4783 7.83996,-2.7187 10.10697,-5.89164 1.93442,-2.70743 2.36246,-6.48474 1.96106,-9.78792 -0.52023,-4.281 -4.57497,-7.49663 -5.50581,-11.70747 -1.83262,-8.29017 -3.33734,-16.89503 -6.33757,-25.11735 -0.37623,-1.03107 -1.04548,-2.22608 -2.09781,-2.53792 -0.90237,-0.26741 -1.89264,0.35143 -2.69412,0.84482 -2.22339,1.36873 -4.11374,3.37958 -5.45845,5.61758 -3.3945,5.64939 -5.23655,12.28321 -6.05187,18.82336 z"
         style="fill:#000000;fill-rule:evenodd;stroke:none;stroke-width:1px;stroke-linecap:butt;stroke-linejoin:miter;stroke-opacity:1" />
      <path
         sodipodi:nodetypes="ssssssssssssss"
         inkscape:connector-curvature="0"
         id="path16617"
         d="m -511.12345,758.66455 c -0.64053,-0.027 -1.544,0.17689 -1.75737,0.78143 -1.14968,3.25745 -1.94667,5.9271 -2.19373,8.12466 -0.98693,8.77889 -2.35901,17.54368 -2.03894,26.34618 0.17451,4.78876 1.24255,9.5088 2.14726,14.21456 0.41214,2.14373 0.25905,4.57557 1.49268,6.37659 1.1302,1.65008 2.97298,3.10589 4.95328,3.38618 3.61872,0.5122 7.50306,-1.22162 10.41313,-3.43272 2.98625,-2.26899 5.02207,-5.80973 6.25734,-9.35094 0.49364,-1.41515 0.8367,-3.05839 0.36617,-4.48139 -0.38523,-1.16506 -1.80713,-1.70867 -2.42802,-2.76712 -1.51455,-2.58197 -1.67567,-5.77997 -3.00141,-8.46378 -4.72805,-9.57147 -8.00392,-19.18335 -12.38536,-29.73066 -0.26631,-0.64104 -1.13149,-0.97381 -1.82503,-1.00299 z"
         style="fill:#000000;fill-rule:evenodd;stroke:none;stroke-width:1px;stroke-linecap:butt;stroke-linejoin:miter;stroke-opacity:1" />
      <path
         sodipodi:nodetypes="sssssssssssssssss"
         inkscape:connector-curvature="0"
         id="path16619"
         d="m -471.62161,791.08798 c -0.083,1.4714 1.98541,2.3935 3.39076,2.83724 2.27116,0.71712 4.91684,0.29947 7.11924,-0.60711 2.87332,-1.18275 5.48184,-3.35717 7.1541,-5.97604 0.91171,-1.42781 0.47622,-3.78928 0.9261,-5.42252 1.05481,-3.82947 3.09276,-7.01736 3.63468,-10.95228 0.56128,-4.07558 0.39241,-8.24947 -0.0268,-12.34209 -0.25733,-2.51224 -1.28215,-4.90796 -1.51981,-7.42214 -0.53363,-5.64493 0.1256,-11.33959 0.22918,-17.00874 0.0262,-1.43328 0.51982,-2.929 0.0992,-4.29942 -0.16477,-0.53682 -0.49212,-1.08919 -0.97703,-1.37238 -0.6253,-0.3652 -1.66161,-0.75277 -2.16043,-0.22784 -3.14411,3.30868 -4.96684,6.68361 -7.07503,10.26475 -2.36716,4.02104 -4.62468,8.15516 -6.22264,12.53908 -0.83179,2.28197 -1.39105,4.67405 -1.72085,7.08039 -0.43026,3.13942 -0.0989,6.33998 -0.323,9.50081 -0.55498,7.82848 -2.00451,14.13255 -2.52766,23.40829 z"
         style="fill:#000000;fill-rule:evenodd;stroke:none;stroke-width:1px;stroke-linecap:butt;stroke-linejoin:miter;stroke-opacity:1" />
      <path
         sodipodi:nodetypes="ssssssssssssssss"
         inkscape:connector-curvature="0"
         id="path16621"
         d="m -420.53571,781.46934 c -0.49596,-2.41022 3.01749,-3.96416 3.92857,-6.25 1.46089,-3.66526 0.95798,-7.90453 2.32143,-11.60714 2.68991,-7.30477 5.24306,-13.95398 8.74999,-20.71429 4.29528,-8.27998 9.66791,-16.27506 15.00001,-23.92857 2.74937,-3.94635 4.80094,-7.01399 8.57142,-11.60714 0.28763,-0.35039 0.81293,-0.656 1.25,-0.53572 0.78059,0.21482 1.10641,1.71905 0.89287,2.5 -1.93134,7.06323 -3.71935,12.37938 -5.53572,18.92858 -3.70014,13.34141 -5.89487,27.03793 -9.82143,40.35714 -0.61889,2.09934 -3.96948,2.56036 -4.64286,4.64286 -0.57506,1.77842 1.1282,3.6815 0.89286,5.53571 -0.13089,1.03126 -0.49247,2.14525 -1.25,2.85714 -2.4014,2.25673 -6.04076,2.8186 -9.28572,3.39286 -1.93423,0.3423 -4.01739,0.584 -5.89285,0 -2.00207,-0.62343 -4.75594,-1.51757 -5.17857,-3.57143 z"
         style="fill:#000000;fill-rule:evenodd;stroke:none;stroke-width:1px;stroke-linecap:butt;stroke-linejoin:miter;stroke-opacity:1" />
      <path
         sodipodi:nodetypes="ssssssssssssssssss"
         inkscape:connector-curvature="0"
         id="path16623"
         d="m -301.02546,707.10667 c -6.14801,7.79783 -10.06477,12.69524 -14.89975,19.1929 -6.23316,8.37665 -12.04895,17.05666 -18.18274,25.50635 -2.8287,3.89672 -5.62082,7.82309 -8.5863,11.61676 -1.54662,1.97855 -3.09321,3.60228 -4.29315,5.80837 -0.80141,1.47341 -1.13412,3.37418 -2.0203,4.79823 -1.70747,2.74383 -6.64478,4.23019 -6.56599,5.55584 0.0831,1.39855 1.2782,2.54884 2.27284,3.53553 1.34298,1.33226 2.95561,2.60234 4.79822,3.03046 4.61802,1.07296 9.69861,0.13777 14.14214,-1.51523 1.24747,-0.46406 2.98076,-0.97662 3.283,-2.27284 0.1968,-0.84404 -1.40668,-1.41821 -1.2627,-2.27285 0.35653,-2.11634 2.53422,-2.80389 3.78808,-4.54569 5.66128,-7.86442 11.17968,-15.62204 15.40483,-24.24365 6.24773,-12.7488 9.50476,-24.59891 14.64721,-39.14342 0.47786,-1.35153 1.27165,-3.71257 0.75761,-5.05076 -0.19328,-0.50317 -0.4813,-1.15852 -1.01015,-1.26269 -0.85034,-0.16749 -1.73625,0.5821 -2.27285,1.26269 z"
         style="fill:#000000;fill-rule:evenodd;stroke:none;stroke-width:1px;stroke-linecap:butt;stroke-linejoin:miter;stroke-opacity:1" />
      <path
         sodipodi:nodetypes="sssssssssssssss"
         inkscape:connector-curvature="0"
         id="path16625"
         d="m -212.79511,708.85192 c -0.62118,-0.23879 -1.28112,0.51699 -1.71564,1.02104 -4.90094,5.68501 -8.0011,9.16535 -11.80428,14.8314 -6.27373,9.34671 -10.89292,17.2716 -16.01735,25.74772 -7.03797,11.64125 -13.47452,24.11702 -20.19241,34.74041 -1.84958,2.92484 -3.73285,0.42106 -8.94403,2.3848 -3.70815,1.39736 2.5493,6.33536 5.8094,8.58806 2.24676,1.55249 5.16826,1.86928 7.86693,2.28805 3.60532,0.55945 7.606,1.74931 10.94204,0.27207 2.30911,-1.02251 3.90756,-3.43482 4.95109,-5.73452 0.93109,-2.0519 -0.12273,-5.79967 0.59744,-7.93475 2.38917,-7.08308 5.80322,-12.28731 8.52496,-19.05452 4.49987,-11.18826 8.55571,-21.95658 12.7368,-33.26783 2.59877,-7.03058 5.58296,-13.94485 7.94907,-21.60589 0.23435,-0.75877 0.0373,-1.9911 -0.70402,-2.27604 z"
         style="fill:#000000;fill-rule:evenodd;stroke:none;stroke-width:1px;stroke-linecap:butt;stroke-linejoin:miter;stroke-opacity:1" />
      <path
         sodipodi:nodetypes="ssssssssssssssss"
         inkscape:connector-curvature="0"
         id="path16627"
         d="m -177.38046,805.94918 c 2.09845,-1.56714 5.95274,1.4431 7.84872,-0.36373 8.23944,-7.85198 20.12046,-21.54267 29.58319,-32.83327 13.99239,-16.69524 24.90349,-32.84258 40.156319,-51.55708 0.438551,-0.53808 1.064531,-1.33571 1.7342,-1.15295 0.87465,0.23871 1.612154,1.64747 1.186013,2.44772 -4.836502,9.08244 -7.775072,16.72046 -12.075862,24.8714 -6.11867,11.59623 -13.25954,23.07884 -20.22477,34.18721 -6.50132,10.36852 -12.83766,20.93673 -20.04986,30.24631 -0.67219,0.86766 0.0563,2.33895 -0.56473,3.24391 -0.99458,1.44927 -3.56669,1.23689 -4.52215,2.71225 -0.78725,1.21563 0.43148,3.21807 -0.51511,4.31418 -0.71737,0.83069 -2.10457,1.09223 -3.17778,0.86233 -6.2244,-1.33341 -13.42451,-3.14017 -18.57502,-7.36229 -1.27904,-1.04848 -2.49757,-2.52344 -2.69572,-4.16538 -0.23042,-1.90942 0.35158,-4.2998 1.89256,-5.45061 z"
         style="fill:#000000;fill-rule:evenodd;stroke:none;stroke-width:1px;stroke-linecap:butt;stroke-linejoin:miter;stroke-opacity:1" />
      <path
         sodipodi:nodetypes="sssssssssssssssss"
         inkscape:connector-curvature="0"
         id="path16629"
         d="m -65.727657,845.14517 c 1.501768,-1.23353 4.144002,-0.21906 5.646756,-1.45138 6.137368,-5.03297 15.404236,-15.47974 23.178202,-23.14722 8.124828,-8.01354 16.64017,-15.65255 24.929581,-23.49572 6.5195348,-6.16857 12.09991881,-10.64342 19.4195742,-18.61218 0.455563,-0.49596 1.3301769,-1.02012 1.905781,-0.67055 0.7337518,0.44561 0.8500008,1.84377 0.3617374,2.54986 -6.5418528,9.46029 -10.58635084,16.41299 -16.2035875,24.70891 -5.4866391,8.10304 -11.7687521,16.06981 -17.8976031,23.69869 -5.638237,7.01817 -11.546448,14.62868 -17.306461,20.81353 -0.961707,1.03262 0.497141,2.86291 0.14998,4.23065 -0.514423,2.0267 -1.350155,4.4016 -3.185133,5.40411 -3.4158,1.86615 -7.802663,0.008 -11.668484,-0.4456 -2.136455,-0.25062 -4.494305,-0.13237 -6.330533,-1.25288 -2.204272,-1.34509 -4.071991,-3.59659 -4.812963,-6.07027 -0.291863,-0.97437 7.4e-5,-2.05862 0.26911,-3.03953 0.314889,-1.14808 0.624113,-2.46479 1.544041,-3.22042 z"
         style="fill:#000000;fill-rule:evenodd;stroke:none;stroke-width:1px;stroke-linecap:butt;stroke-linejoin:miter;stroke-opacity:1" />
      <path
         sodipodi:nodetypes="sssssssssssssssss"
         inkscape:connector-curvature="0"
         id="path16631"
         d="m 50.165283,862.89783 c 9.622154,-8.58701 16.153464,-21.97171 24.838259,-32.47389 4.572482,-5.52932 9.249813,-10.99582 14.337905,-16.0547 3.40314,-3.3836 6.80568,-6.85752 10.793103,-9.52782 1.1191,-0.74944 2.37438,-2.28023 3.62603,-1.78281 0.78618,0.31243 1.00075,1.53929 0.88763,2.37769 -0.40782,3.02288 -3.60811,4.91975 -5.357823,7.41828 -7.22311,10.3144 -14.195678,20.80228 -21.216004,31.25576 -4.942333,7.35927 -9.890298,14.80804 -14.717492,22.15098 -1.07853,1.64062 0.371831,4.10602 -0.491012,5.86964 -1.697298,3.46923 -5.110258,6.04079 -8.52305,7.84889 -1.984841,1.05155 -4.326045,1.76307 -6.560861,1.53729 -1.726617,-0.17442 -3.582328,-0.87487 -4.728965,-2.1775 -1.463138,-1.66218 -1.973003,-4.12366 -1.990562,-6.338 -0.01181,-1.48924 0.494835,-3.01222 1.270986,-4.28327 0.87412,-1.43147 2.288229,-2.48033 3.637358,-3.47685 1.288288,-0.95158 2.999523,-1.27729 4.194493,-2.34371 z"
         style="fill:#000000;fill-rule:evenodd;stroke:none;stroke-width:1px;stroke-linecap:butt;stroke-linejoin:miter;stroke-opacity:1" />
      <path
         sodipodi:nodetypes="ssssssssssssssssss"
         inkscape:connector-curvature="0"
         id="path16633"
         d="m 133.81458,866.06027 c -1.06594,1.19539 -1.97853,2.63006 -2.35923,4.18578 -0.29542,1.20728 -0.34631,2.57617 0.12406,3.72662 0.44375,1.08527 1.28249,2.17649 2.37945,2.59049 1.02686,0.38756 2.21484,-0.63566 3.27419,-0.34858 1.40257,0.38009 2.10625,2.20705 3.50882,2.58713 2.11871,0.57415 4.47737,0.0305 6.54838,-0.69716 4.16783,-1.46441 7.97205,-4.08993 11.15963,-7.14845 2.02733,-1.94524 2.68317,-5.0981 4.83579,-6.90371 17.11564,-14.35651 36.49802,-29.54425 54.0185,-45.50614 13.38102,-12.19067 23.14267,-21.62883 39.13225,-38.23364 0.42106,-0.43725 0.19547,-1.37463 -0.23127,-1.80634 -0.56142,-0.56795 -1.99944,-0.50574 -2.65421,-0.0486 -10.74162,7.50014 -17.95861,12.67101 -27.10482,19.11107 -3.44969,2.42901 -7.3128,5.52365 -10.64854,8.10691 -24.27839,18.8016 -46.15571,37.03779 -68.5646,53.22938 -2.51626,1.81814 -5.87012,2.11179 -8.5725,3.63963 -1.73719,0.98214 -3.51775,2.02611 -4.8459,3.51556 z"
         style="fill:#000000;fill-rule:evenodd;stroke:none;stroke-width:1px;stroke-linecap:butt;stroke-linejoin:miter;stroke-opacity:1" />
      <path
         sodipodi:nodetypes="sssssssscccsssssssssscccss"
         inkscape:connector-curvature="0"
         id="path16635"
         d="m -533.21429,882.8979 c -3.06542,0.508 -6.19004,1.4532 -8.75,3.2143 -2.16776,1.4913 -3.60064,2.8425 -4.375,5.3572 -1.17578,3.8183 -0.5506,8.7413 0.80358,12.5 1.40029,3.8867 3.39097,7.2285 6.60714,9.8214 1.82556,1.4718 4.11976,2.4469 6.42857,2.8571 2.64313,0.4696 5.44187,0.1561 8.03571,-0.5357 2.88084,-0.7684 5.42661,-1.7584 7.14286,-4.1965 1.24106,-1.763 1.60714,-6.1606 1.60714,-6.1606 -2.7269,1.4509 -3.82845,1.7776 -5.71428,2.8571 1.86392,-0.8503 2.71197,-1.4823 5.71428,-2.8571 0,0 21.49356,-9.7425 32.14286,-14.8215 4.25286,-2.0283 8.47977,-4.112 12.67857,-6.25 4.67413,-2.38 9.46033,-4.5742 13.92857,-7.3214 6.9084,-4.2474 13.53773,-8.9805 19.82143,-14.1071 2.77383,-2.263 5.4201,-4.4489 7.85714,-7.3215 0.54049,-0.6371 0.72403,-1.8672 0.17858,-2.5 -0.50669,-0.5879 -1.6172,-0.5047 -2.32143,-0.1785 -4.00104,1.8531 -6.76909,3.9575 -10.17857,5.8928 -7.87882,4.4721 -15.54263,9.3783 -23.75,13.2143 -7.97156,3.7258 -16.24263,6.8445 -24.64286,9.4643 -8.8,2.7444 -26.875,6.5179 -26.875,6.5179 -3.88165,1.0245 -6.77298,1.0587 -9.73214,1.1607 2.9525,-0.095 6.30933,-0.5951 9.73214,-1.1607 0,0 -4.35672,-4.2869 -7.14286,-5.2679 -3.03392,-1.0682 -6.02322,-0.7045 -9.19643,-0.1786 z"
         style="fill:#000000;fill-rule:evenodd;stroke:none;stroke-width:1px;stroke-linecap:butt;stroke-linejoin:miter;stroke-opacity:1" />
    </g>
  </g>
</svg>
