<?xml version="1.0" encoding="UTF-8" standalone="no"?>
<!-- Created with Inkscape (http://www.inkscape.org/) -->

<svg
   xmlns:dc="http://purl.org/dc/elements/1.1/"
   xmlns:cc="http://creativecommons.org/ns#"
   xmlns:rdf="http://www.w3.org/1999/02/22-rdf-syntax-ns#"
   xmlns:svg="http://www.w3.org/2000/svg"
   xmlns="http://www.w3.org/2000/svg"
   xmlns:sodipodi="http://sodipodi.sourceforge.net/DTD/sodipodi-0.dtd"
   xmlns:inkscape="http://www.inkscape.org/namespaces/inkscape"
   width="633.01404mm"
   height="253.50626mm"
   viewBox="0 0 2242.9632 898.25051"
   id="svg21631"
   version="1.1"
   inkscape:version="0.91 r13725"
   sodipodi:docname="Stegosaurus Silhouette.svg">
  <defs
     id="defs21633" />
  <sodipodi:namedview
     id="base"
     pagecolor="#ffffff"
     bordercolor="#666666"
     borderopacity="1.0"
     inkscape:pageopacity="0.0"
     inkscape:pageshadow="2"
     inkscape:zoom="0.35"
     inkscape:cx="652.3021"
     inkscape:cy="506.49828"
     inkscape:document-units="px"
     inkscape:current-layer="layer1"
     showgrid="false"
     fit-margin-top="0"
     fit-margin-left="0"
     fit-margin-right="0"
     fit-margin-bottom="0"
     inkscape:window-width="1366"
     inkscape:window-height="709"
     inkscape:window-x="0"
     inkscape:window-y="0"
     inkscape:window-maximized="1" />
  <metadata
     id="metadata21636">
    <rdf:RDF>
      <cc:Work
         rdf:about="">
        <dc:format>image/svg+xml</dc:format>
        <dc:type
           rdf:resource="http://purl.org/dc/dcmitype/StillImage" />
        <dc:title></dc:title>
      </cc:Work>
    </rdf:RDF>
  </metadata>
  <g
     inkscape:label="Layer 1"
     inkscape:groupmode="layer"
     id="layer1"
     transform="translate(921.51206,-140.60998)">
    <g
       style="fill:#000000;stroke:none"
       id="g22765"
       transform="matrix(-2.3702829,0,0,2.3702829,-2254.4594,-7007.8994)">
      <path
         sodipodi:nodetypes="csssssssssssssssscssscssscscssscsssssssccssssssssssc"
         inkscape:connector-curvature="0"
         id="path4138-5"
         d="m -1232.174,3124.9678 c -31.7109,15.8013 -53.1264,48.1352 -85.7237,62.016 -12.7974,5.4494 -28.9786,8.0518 -42.853,7.0676 -21.7474,-1.543 -49.2857,-10.7664 -70.7879,-14.3686 -12.5858,-2.1085 -22.567,-3.3559 -34.3727,0.2099 -4.0937,1.2363 -4.8094,3.8766 -8.6857,5.6823 -2.4607,1.1462 -5.6312,3.0712 -7.5219,5.0187 -1.3004,1.3398 -2.0059,3.2276 -3.4458,4.4163 -8.2172,6.7838 -12.7922,10.8886 -20.9529,18.1207 -2.1932,1.9438 -2.6936,9.6857 -0.6832,11.8181 2.1214,2.2497 8.1092,3.7619 10.91,2.4516 9.8531,-4.6097 27.3309,-8.9142 41.7834,-10.203 8.8975,-0.7935 11.995,-0.2633 20.7362,1.5769 22.7528,4.7898 50.937,16.1766 73.363,22.3174 19.0733,5.2229 42.8455,3.8426 60.3841,10.5317 5.7561,2.1953 4.7122,11.3844 7.0507,17.0839 2.3497,5.7272 5.2744,8.2991 8.4455,13.6157 3.8933,6.5273 13.0531,31.1887 13.0531,31.1887 0,0 1.3535,43.0376 0.09,64.5006 -0.1669,2.8366 1.2245,6.9586 -0.2957,9.3593 -1.0066,1.5894 -3.9029,1.4025 -5.3168,2.6438 -1.6129,1.4159 -3.8875,4.6052 -3.8875,4.6052 0,0 17.9923,0.2101 31.9866,-0.1791 4.9103,-0.1364 -0.037,-9.6955 0.054,-14.607 0.4171,-22.6463 6.5405,-41.8069 11.4746,-66.9747 1.3399,-6.8352 -3.6689,-22.5556 -6.5336,-36.6613 0,0 40.03,24.2446 87.5631,15.7819 41.8615,-7.4527 64.0921,-19.2971 64.0921,-19.2971 0,0 3.5612,29.2002 7.2545,37.1923 8.8683,19.1899 18.5398,38.5345 25.0776,56.0696 1.8624,4.9954 0.6831,11.595 -2.6008,15.8083 -0.5514,0.7071 -0.313,2.6718 -0.313,2.6718 0,0 -5.358,2.575 -7.422,9.036 -0.926,2.8985 6.0437,-1.4758 9.0628,-1.0957 1.8414,0.2317 1.928,2.0045 3.1845,2.0175 11.3007,0.1185 14.1745,-0.2813 25.842,0.061 6.0538,0.1777 1.3602,-6.7749 0.7762,-17.4862 -0.3057,-5.6055 3.1577,-12.1788 0.801,-17.2743 -7.3147,-15.8165 -5.3002,-32.1804 -12.9094,-46.9861 -1.1651,-2.2669 -3.2675,-5.5784 -3.2675,-5.5784 l 14.7677,-64.1678 c 0,0 37.9054,-18.8687 45.4984,-21.1124 17.62023,-5.2066 36.25037,-6.8814 54.61515,-7.4425 73.18003,-2.2353 145.24453,16.0993 218.32135,11.6159 59.39314,-3.6438 174.78099,-34.4328 117.03899,-28.1997 -44.1999,4.7712 -47.17701,9.6212 -116.84518,1.8736 -77.10043,-8.5742 -147.50822,-49.3441 -223.54007,-64.7439 -21.94359,-4.4444 -33.97468,-4.451 -55.29888,-6.8992 -24.80456,-2.8478 -55.31896,-3.7132 -81.11066,-7.3239 -22.1665,-3.1031 -40.6868,-10.2763 -78.8106,-8.9256 -34.7313,1.2306 -54.0357,0.168 -80.0475,13.1739 z"
         style="opacity:1;fill:#000000;fill-opacity:1;fill-rule:evenodd;stroke:none;stroke-width:0.34969428px;stroke-linecap:round;stroke-linejoin:miter;stroke-opacity:1" />
      <path
         sodipodi:nodetypes="ssssssssss"
         inkscape:connector-curvature="0"
         id="path22699"
         d="m -1446.7275,3180.0937 c -0.6969,-0.6098 -1.6828,-1.2659 -1.7069,-2.1916 -0.1032,-3.9729 -0.4907,-6.8779 0.2369,-10.5874 0.6531,-3.3299 1.6059,-7.426 3.6038,-10.1688 1.2401,-1.7024 2.672,-3.8241 4.7599,-3.5468 2.2149,0.2936 3.0747,2.8966 3.8792,4.9811 1.0188,2.64 0.7587,5.7194 0.7364,8.5491 -0.035,4.4633 -1.0009,8.9805 -2.7821,13.6898 -0.8288,2.1912 -2.8707,1.5397 -5.2042,1.3323 -1.3546,-0.1201 -2.4996,-1.1622 -3.523,-2.0577 z"
         style="fill:#000000;fill-rule:evenodd;stroke:none;stroke-width:1px;stroke-linecap:butt;stroke-linejoin:miter;stroke-opacity:1" />
      <path
         sodipodi:nodetypes="ssssssssssss"
         inkscape:connector-curvature="0"
         id="path22701"
         d="m -1413.0646,3156.5186 c -0.9582,-0.056 -2.2016,0.9138 -2.9679,1.4918 -2.4442,1.8432 -3.6971,4.3561 -5.0041,7.1243 -1.5048,3.1871 -1.4302,6.6885 -2.074,10.1537 -0.4248,2.2853 -1.823,6.1457 -1.0431,8.3354 0.7034,1.9754 2.0699,2.1534 4.0459,2.8552 1.3332,0.4736 2.8717,0.029 4.2281,-0.3737 0.9358,-0.2777 2.1748,-0.4895 2.5859,-1.375 2.2249,-4.7923 3.7919,-9.087 4.5178,-13.9067 0.3428,-2.2743 0.1942,-4.6186 -0.1045,-6.8991 -0.27,-2.0615 -0.219,-4.4248 -1.5152,-6.0504 -0.6221,-0.7802 -1.6728,-1.2967 -2.6689,-1.3555 z"
         style="fill:#000000;fill-rule:evenodd;stroke:none;stroke-width:1px;stroke-linecap:butt;stroke-linejoin:miter;stroke-opacity:1" />
      <path
         sodipodi:nodetypes="ssssssssssssss"
         inkscape:connector-curvature="0"
         id="path22703"
         d="m -1386.6406,3163.4554 c 1.1556,-0.3372 2.466,0.4402 3.4109,1.1863 1.0908,0.8609 1.7407,2.2174 2.2471,3.5114 0.6728,1.7193 0.9821,3.6062 0.9736,5.4524 -0.014,3.0952 -0.5981,6.2394 -1.7158,9.1258 -0.8981,2.3194 -3.2053,3.9669 -3.9192,6.3495 -0.3287,1.0967 0.6146,2.5393 -0.1005,3.4334 -1.2308,1.5389 -3.7651,1.6543 -5.7268,1.4671 -1.4085,-0.1344 -2.8175,-0.8324 -3.8385,-1.8119 -1.0398,-0.9976 -1.6605,-2.4303 -2.0056,-3.8294 -0.5367,-2.1762 -0.3555,-4.51 -0.01,-6.7243 0.4373,-2.7862 1.2643,-5.5684 2.6038,-8.0503 1.3786,-2.5544 3.6466,-4.5172 5.4552,-6.7875 0.8793,-1.1038 1.2687,-2.9273 2.6234,-3.3225 z"
         style="fill:#000000;fill-rule:evenodd;stroke:none;stroke-width:1px;stroke-linecap:butt;stroke-linejoin:miter;stroke-opacity:1" />
      <path
         sodipodi:nodetypes="sssssssssssss"
         inkscape:connector-curvature="0"
         id="path22705"
         d="m -1352.0605,3163.9417 c -1.1813,-0.5836 -2.6307,0.3773 -3.86,0.8516 -1.7107,0.6602 -3.1674,1.8201 -4.4575,3.1231 -1.5948,1.6107 -2.4674,3.7896 -3.6531,5.7213 -0.5989,0.9758 -1.6923,2.4562 -1.9899,3.5617 -1.0513,3.9051 -0.811,7.3605 -1.0157,11.3847 -0.055,1.0929 0.5109,2.1372 0.9262,3.1496 0.683,1.6649 1.1535,3.6257 2.553,4.7569 1.3167,1.0643 3.2078,1.6779 4.8795,1.4101 2.5436,-0.4075 6.047,-1.8033 6.3827,-4.3574 0.7816,-5.9464 1.6742,-11.5615 2.0048,-17.3857 0.1595,-2.8089 0.5985,-5.6939 -0.012,-8.4403 -0.301,-1.3552 -0.5136,-3.1606 -1.7583,-3.7756 z"
         style="fill:#000000;fill-rule:evenodd;stroke:none;stroke-width:1px;stroke-linecap:butt;stroke-linejoin:miter;stroke-opacity:1" />
      <path
         sodipodi:nodetypes="sssssssssssss"
         inkscape:connector-curvature="0"
         id="path22707"
         d="m -1325.1334,3169.4208 c -1.1687,0.042 -2.3204,0.4266 -3.3929,0.8929 -5.4218,2.3572 -10.0453,5.8939 -14.4643,9.8214 -1.2021,1.0684 -2.8118,2.429 -3.3928,3.9286 -0.7324,1.8904 -0.8387,3.5312 -0.5357,5.5357 0.228,1.5086 1.7571,3.4267 2.6785,4.6428 1.3373,1.765 2.1464,3 4.2858,3.5715 3.6452,0.9738 7.8242,0.3311 11.25,-1.25 4.894,-2.2588 10.5027,-5.8363 11.7856,-11.0715 0.287,-1.171 -1.0195,-2.2215 -1.1925,-3.4147 -0.2981,-2.0569 0.9142,-4.2426 0.2997,-6.2281 -0.7286,-2.3542 -2.3684,-4.5966 -4.4643,-5.8929 -0.8241,-0.5097 -1.8888,-0.5706 -2.8571,-0.5357 z"
         style="fill:#000000;fill-rule:evenodd;stroke:none;stroke-width:1px;stroke-linecap:butt;stroke-linejoin:miter;stroke-opacity:1" />
      <path
         sodipodi:nodetypes="ssssssssssssssss"
         inkscape:connector-curvature="0"
         id="path22709"
         d="m -1318.3121,3147.2678 c -3.0193,3.1928 -2.0824,8.1061 -2.1428,12.5 -0.088,6.3562 0.4262,12.8608 2.3214,18.9285 0.8017,2.5669 1.8133,5.2772 3.75,7.1429 1.0929,1.0529 2.9186,1.0206 4.1071,1.9643 0.8955,0.711 1.1548,2.1032 2.1429,2.6786 1.3023,0.7584 2.9635,0.8511 4.4643,0.7142 4.9684,-0.4533 10.4309,-1.6272 14.1071,-5 2.1199,-1.9449 3.0365,-5.0304 3.5714,-7.8571 0.2106,-1.1128 0.2451,-2.3426 -0.1785,-3.3929 -0.4419,-1.0958 -1.8655,-1.5885 -2.3215,-2.6785 -1.1751,-2.8092 0.5603,-6.3417 -0.7142,-9.1072 -1.6559,-3.5932 -5.3441,-5.8713 -8.3929,-8.3929 -2.9388,-2.4306 -6.0584,-4.7127 -9.4643,-6.4285 -2.2528,-1.1349 -4.8043,-1.7988 -7.3214,-1.9643 -1.4561,-0.096 -2.9259,-0.1674 -3.9286,0.8929 z"
         style="fill:#000000;fill-rule:evenodd;stroke:none;stroke-width:1px;stroke-linecap:butt;stroke-linejoin:miter;stroke-opacity:1" />
      <path
         sodipodi:nodetypes="ssssssssssssssss"
         inkscape:connector-curvature="0"
         id="path22711"
         d="m -1299.6028,3105.4619 c -1.954,0.7862 -3.5521,2.1269 -4.6429,3.9286 -2.8416,4.6937 -3.3529,10.4859 -4.2857,15.8929 -1.0353,6.0014 -1.3229,11.697 -1.4285,18.2143 -0.059,3.6465 2.4688,7.0347 4.8214,9.8214 2.888,3.4209 7.0514,5.5579 10.8928,7.8572 2.3299,1.3946 5.1765,1.9064 7.3215,3.5714 1.2342,0.958 1.5048,3.259 3.0357,3.5714 2.3474,0.4791 4.4172,-1.9128 6.4286,-3.2143 4.5816,-2.9645 10.0864,-5.555 12.6785,-10.3571 1.9047,-3.5286 0.4026,-8.045 1.25,-11.9643 0.5569,-2.5757 2.2694,-4.8749 2.5,-7.5 0.3212,-3.6562 0.2933,-7.7529 -1.6071,-10.8929 -4.6111,-7.619 -14.1805,-10.7994 -21.6072,-15.7142 -2.0261,-1.3408 -3.9024,-3.1244 -6.25,-3.75 -2.9339,-0.7818 -6.2902,-0.5976 -9.1071,0.5356 z"
         style="fill:#000000;fill-rule:evenodd;stroke:none;stroke-width:1px;stroke-linecap:butt;stroke-linejoin:miter;stroke-opacity:1" />
      <path
         sodipodi:nodetypes="ssssssssssssssssssss"
         inkscape:connector-curvature="0"
         id="path22713"
         d="m -1277.0054,3067.2524 c -2.3915,1.1645 -5.1764,3.8235 -5.7143,6.4285 -1.4904,7.2177 -3.2711,13.0053 -3.9286,20.1786 -0.2499,2.7267 -0.4703,5.5169 0,8.2143 1.2386,7.104 5.2119,13.4613 7.3214,20.3571 1.2036,3.9345 0.3677,8.8322 3.0358,11.9643 1.556,1.8266 4.5146,1.6829 6.6071,2.8572 3.2404,1.8185 6.3591,3.9273 9.1071,6.4285 1.2176,1.1082 1.7069,3.088 3.2143,3.7501 3.1628,1.3891 7.019,0.5313 10.3572,-0.3572 8.1308,-2.1641 16.999,-5.2691 22.3214,-11.7857 1.6086,-1.9695 2.1195,-4.7787 2.1429,-7.3215 0.01,-0.6786 -0.5164,-1.2858 -0.5358,-1.9642 -0.115,-4.0144 2.11,-7.7888 2.5,-11.7858 0.3989,-4.0881 1.1534,-8.4358 -0.1785,-12.3214 -1.5711,-4.5835 -5.2151,-8.2934 -8.75,-11.6071 -3.6375,-3.4098 -8.2876,-5.547 -12.5,-8.2143 -4.8299,-3.0583 -9.7133,-6.0336 -14.6429,-8.9286 -4.0681,-2.3891 -7.1991,-5.1451 -11.7857,-6.25 -2.7801,-0.6698 -6.0003,-0.8947 -8.5714,0.3572 z"
         style="fill:#000000;fill-rule:evenodd;stroke:none;stroke-width:1px;stroke-linecap:butt;stroke-linejoin:miter;stroke-opacity:1" />
      <path
         sodipodi:nodetypes="sssssssssssssssssss"
         inkscape:connector-curvature="0"
         id="path22715"
         d="m -1211.7095,3125.1096 c -2.6451,-1.9446 -4.4254,-4.8829 -6.9643,-6.9643 -4.6472,-3.8098 -10.7776,-5.7242 -15,-10 -3.6891,-3.7358 -7.3113,-8.1175 -8.5714,-13.2143 -1.1046,-4.4677 -0.6389,-9.5533 1.25,-13.75 6.5786,-14.6163 12.5365,-30.1147 21.6071,-42.1428 1.3524,-1.7934 3.5457,-2.9861 5.7143,-3.5715 1.8398,-0.4967 4.159,-0.9226 5.7143,0.1786 8.0544,5.703 14.4026,10.9046 20.7143,17.3214 2.5228,2.5648 4.5157,5.6019 6.7857,8.3929 1.6014,1.969 3.505,3.723 4.8214,5.8929 4.2323,6.9763 9.4284,14.3431 9.6429,22.5 0.1134,4.311 -2.6489,8.231 -4.4643,12.1428 -1.2681,2.7324 -3.2141,5.1166 -4.4643,7.8572 -0.4454,0.9763 -1.4733,2.0407 -1.0714,3.0357 0.349,0.8639 2.265,0.3484 2.5,1.25 0.9078,3.4827 -3.1165,6.8738 -6.0715,8.9285 -6.9458,4.8297 -16.2442,7.0882 -24.6428,6.0715 -2.8018,-0.3392 -5.2262,-2.2569 -7.5,-3.9286 z"
         style="fill:#000000;fill-rule:evenodd;stroke:none;stroke-width:1px;stroke-linecap:butt;stroke-linejoin:miter;stroke-opacity:1" />
      <path
         sodipodi:nodetypes="ssssssssssssssssssss"
         inkscape:connector-curvature="0"
         id="path22717"
         d="m -1117.7338,3025.6952 c -2.0768,-0.6087 -4.3065,0.7051 -6.3134,1.5152 -6.1584,2.4857 -11.6098,6.4738 -17.1726,10.1015 -4.3443,2.8331 -8.5387,5.8999 -12.6269,9.0914 -6.1682,4.8151 -11.8226,10.2606 -17.9302,15.1523 -2.3916,1.9155 -5.3667,3.1979 -7.3236,5.5558 -2.0436,2.4624 -3.3036,5.5432 -4.2932,8.5863 -1.9002,5.8433 -4.8149,12.3031 -3.0304,18.1828 1.6776,5.5276 8.3852,8.0193 11.8693,12.6269 0.5921,0.783 1.4622,1.5451 1.5152,2.5254 0.065,1.2035 -1.9905,2.1754 -1.5152,3.283 1.753,4.0854 8.216,3.7386 12.6269,4.2931 15.0793,1.8957 35.38,7.8416 45.4568,-3.5355 1.2849,-1.4507 -1.0747,-4.0535 -0.2525,-5.8084 1.8857,-4.025 8.0295,-4.4598 10.6066,-8.0812 3.4419,-4.8366 4.2953,-11.1192 5.5558,-16.9201 0.9711,-4.4694 2.2159,-9.1173 1.5153,-13.637 -0.762,-4.9157 -4.3634,-8.9613 -6.061,-13.6371 -2.7188,-7.4886 -3.3535,-16.0737 -7.3235,-22.981 -1.4537,-2.5293 -2.5039,-5.4928 -5.3034,-6.3134 z"
         style="fill:#000000;fill-rule:evenodd;stroke:none;stroke-width:1px;stroke-linecap:butt;stroke-linejoin:miter;stroke-opacity:1" />
      <path
         sodipodi:nodetypes="ssssssssssssssssss"
         inkscape:connector-curvature="0"
         id="path22719"
         d="m -1050.8111,3027.2104 c -3.9974,-0.6412 -8.1478,-0.015 -12.1218,0.7577 -4.9648,0.9656 -9.7808,2.7263 -14.3947,4.7982 -2.9242,1.3131 -5.6682,3.0179 -8.3338,4.7982 -10.683,7.1351 -21.2524,15.7408 -30.5571,23.4861 -5.4993,4.5776 -7.9816,12.3767 -9.0913,19.4454 -1.0396,6.6221 0.5778,12.2737 2.5253,18.6878 1.1484,3.7823 3.7519,8.2336 5.3033,11.8693 0.9823,2.302 0.6581,5.4046 2.5254,7.0711 6.901,6.1591 17.8175,5.3956 27.0216,6.3134 5.4472,0.5431 11.2308,1.2531 16.415,-0.5051 3.1416,-1.0655 5.2634,-4.0577 8.0812,-5.8083 6.3974,-3.9746 15.0512,-6.9066 19.9504,-12.6269 5.507,-6.4298 7.4521,-13.5511 8.3338,-21.9709 0.8395,-8.0167 -1.8562,-16.0165 -3.0305,-23.9911 -1.256,-8.5297 -2.8357,-16.7529 -4.2931,-25.5063 -0.3183,-1.9117 -2.2759,-3.3338 -3.7881,-4.5458 -1.4149,-1.134 -2.7552,-1.9856 -4.5456,-2.2728 z"
         style="fill:#000000;fill-rule:evenodd;stroke:none;stroke-width:1px;stroke-linecap:butt;stroke-linejoin:miter;stroke-opacity:1" />
      <path
         sodipodi:nodetypes="sssssssssssssssssssssss"
         inkscape:connector-curvature="0"
         id="path22721"
         d="m -992.22234,3016.3513 c -3.78912,-1.3227 -8.17386,0.4549 -11.86926,2.0203 -5.7673,2.4429 -10.4563,6.9672 -15.1523,11.1117 -14.3315,12.6483 -26.6358,27.4369 -39.396,41.6688 -4.4252,4.9355 -9.4079,9.5052 -12.8794,15.1523 -3.2996,5.3674 -6.6736,11.1582 -7.3236,17.4251 -0.2742,2.6438 0.2513,5.4904 1.5152,7.8287 1.9532,3.6135 6.3746,5.3 8.8388,8.5863 0.9714,1.2955 1.8826,2.7216 2.2729,4.2931 0.3653,1.4705 0.6776,3.1904 0,4.5457 -0.9412,1.8823 -5.2174,1.6902 -5.0508,3.7881 0.5573,7.0193 11.7459,8.6693 18.6878,9.849 16.2789,2.7663 34.7378,1.0107 48.9924,-7.3236 2.4858,-1.4533 5.19824,-3.9411 5.30335,-6.8186 0.0332,-0.9099 -1.54984,-1.3629 -1.51523,-2.2728 0.0934,-2.4568 2.80461,-4.0725 4.54569,-5.8084 3.39846,-3.3883 8.33222,-5.119 11.36421,-8.8388 4.21,-5.1651 6.50606,-11.6884 8.83884,-17.9302 1.73698,-4.6476 3.66447,-9.4346 3.78807,-14.3947 0.12215,-4.9019 -1.90814,-9.6215 -3.03046,-14.3947 -0.9954,-4.2335 -2.39214,-8.3702 -3.28299,-12.6269 -1.64141,-7.8431 -0.34335,-16.5038 -3.78808,-23.7386 -2.3321,-4.898 -5.73738,-10.334 -10.85914,-12.1218 z"
         style="fill:#000000;fill-rule:evenodd;stroke:none;stroke-width:1px;stroke-linecap:butt;stroke-linejoin:miter;stroke-opacity:1" />
      <path
         sodipodi:nodetypes="ssssssssssssssss"
         inkscape:connector-curvature="0"
         id="path22723"
         d="m -925.55228,3036.3019 c -14.8173,1.7247 -27.5943,4.9648 -40.91117,8.8388 -11.67744,3.397 -23.49547,8.7577 -33.84015,13.6371 -5.2857,2.4932 -10.0233,5.4051 -13.132,10.354 -3.9548,6.2959 -6.04,14.0308 -6.0609,21.4658 -0.019,6.6373 5.0239,12.5614 5.3033,19.1929 0.058,1.3691 -0.3383,2.736 -0.7576,4.0406 -0.8528,2.6531 -4.2457,4.8813 -3.5355,7.5761 1.7381,6.5954 10.2751,9.4907 16.6675,11.8693 16.87851,6.2804 35.93479,7.3951 53.79063,5.0508 4.80621,-0.631 10.16934,-1.6637 13.63706,-5.0508 9.78468,-9.5573 11.67155,-24.9057 15.15229,-38.1332 1.10277,-4.1908 1.45167,-8.5576 1.76776,-12.8795 0.63862,-8.7317 1.40221,-17.5847 0.25254,-26.2639 -0.57396,-4.333 -1.69517,-8.6624 -3.53553,-12.627 -1.19934,-2.5836 -1.9689,-7.4003 -4.79823,-7.071 z"
         style="fill:#000000;fill-rule:evenodd;stroke:none;stroke-width:1px;stroke-linecap:butt;stroke-linejoin:miter;stroke-opacity:1" />
      <path
         sodipodi:nodetypes="sssssssssssssss"
         inkscape:connector-curvature="0"
         id="path22725"
         d="m -920.33531,3072.3769 c 1.41396,-0.6884 2.92828,-1.4275 4.50083,-1.4143 20.00604,0.1677 40.83178,0.182 60.86136,-1.0297 1.35486,-0.082 2.63594,0.9465 3.60125,1.9006 0.80317,0.794 1.64273,1.8489 1.61592,2.978 -0.16305,6.8689 -0.33688,11.3871 -0.45956,16.4396 -0.19555,8.0542 -1.46998,16.1496 -3.74769,23.8776 -1.69237,5.742 -4.09105,11.3512 -7.28272,16.4156 -2.12848,3.3774 -5.31477,5.9652 -7.78051,9.1048 -2.89114,3.6812 -3.8622,9.6569 -8.20913,11.3931 -13.61756,5.4393 -29.37246,-3.3545 -43.22895,-8.1525 -9.22523,-3.1944 -21.46056,-4.8755 -25.97436,-13.532 -2.64259,-5.0679 0.83548,-11.4556 2.2094,-17.0036 2.82211,-11.3956 5.06204,-23.7529 12.2854,-33.0076 2.88796,-3.7 7.38855,-5.9152 11.60876,-7.9696 z"
         style="fill:#000000;fill-rule:evenodd;stroke:none;stroke-width:1px;stroke-linecap:butt;stroke-linejoin:miter;stroke-opacity:1" />
      <path
         sodipodi:nodetypes="ssssssssssssssss"
         inkscape:connector-curvature="0"
         id="path22727"
         d="m -798.75275,3107.061 c -3.46855,-1.3019 -7.2106,-1.9579 -10.91231,-2.1106 -8.30668,-0.3427 -16.05111,1.1862 -24.25415,2.5383 -7.71194,1.2714 -15.3514,3.0193 -22.89217,5.0754 -5.77595,1.5747 -12.44415,1.7635 -17.08125,5.5503 -3.25877,2.6611 -4.95573,6.9697 -6.22105,10.9822 -2.43681,7.7276 -6.20317,17.0862 -2.31901,24.1972 3.4713,6.3552 12.61809,7.1887 19.31536,9.9427 10.29469,4.2333 20.76733,11.0257 31.85328,10.0241 6.75768,-0.6106 13.34004,-4.5666 18.0072,-9.4916 1.55908,-1.6453 1.84864,-4.1402 2.84286,-6.1771 3.52662,-7.2251 6.90368,-14.5532 11.07033,-21.4291 2.0294,-3.3491 5.06329,-6.0796 6.7564,-9.6105 1.61176,-3.3613 3.06922,-7.3725 2.65087,-11.0767 -0.24197,-2.1424 -1.17298,-3.7824 -2.68167,-5.3226 -1.50985,-1.5415 -4.11462,-2.3338 -6.13469,-3.092 z"
         style="fill:#000000;fill-rule:evenodd;stroke:none;stroke-width:1px;stroke-linecap:butt;stroke-linejoin:miter;stroke-opacity:1" />
      <path
         sodipodi:nodetypes="ssssssssssssss"
         inkscape:connector-curvature="0"
         id="path22729"
         d="m -775.67508,3139.1169 c -2.22829,-0.046 -4.75311,0.5914 -6.8585,1.3227 -4.99139,1.7336 -8.40416,4.2321 -13.07355,6.7053 -3.1288,1.6571 -6.43486,2.9835 -9.48249,4.7856 -3.94225,2.331 -8.00034,4.6257 -11.33494,7.7649 -2.28017,2.1466 -4.85037,4.4221 -5.76708,7.4166 -0.51981,1.698 -0.41754,3.7167 0.35551,5.3154 1.68922,3.4936 5.16146,6.0662 8.62188,7.8222 9.5276,4.8348 21.54709,10.5789 31.39822,6.4429 5.53745,-2.3249 7.06983,-9.7731 9.7742,-15.1354 2.20572,-4.3736 4.47012,-8.9034 5.18762,-13.749 0.78036,-5.2698 0.76677,-10.6756 -1.58551,-15.4556 -0.58061,-1.1798 -1.79578,-1.5176 -2.97234,-2.1048 -1.30023,-0.6489 -2.81012,-1.1009 -4.26298,-1.1308 z"
         style="fill:#000000;fill-rule:evenodd;stroke:none;stroke-width:1px;stroke-linecap:butt;stroke-linejoin:miter;stroke-opacity:1" />
      <path
         sodipodi:nodetypes="ssssssssssss"
         inkscape:connector-curvature="0"
         id="path22731"
         d="m -772.54927,3172.2294 c 4.93131,-3.2606 10.81552,-5.1281 16.64132,-6.1325 5.22683,-0.9013 11.13874,-2.1309 15.91083,0.1841 0.96992,0.4705 1.63843,1.5128 2.03115,2.5167 1.47485,3.7703 1.57359,8.1427 0.8097,12.1184 -0.547,2.847 -1.75246,5.7481 -3.75438,7.8449 -2.1064,2.2062 -5.20314,3.2662 -8.0627,4.3279 -3.71491,1.3792 -7.66763,3.0155 -11.60579,2.5752 -4.07871,-0.4559 -7.36309,-3.6365 -11.13437,-5.2555 -2.327,-0.999 -5.80301,-0.5623 -7.08294,-2.7474 -1.76297,-3.0098 -0.041,-7.2169 1.47071,-10.3605 1.00639,-2.0928 2.83941,-3.7906 4.77647,-5.0713 z"
         style="fill:#000000;fill-rule:evenodd;stroke:none;stroke-width:1px;stroke-linecap:butt;stroke-linejoin:miter;stroke-opacity:1" />
      <path
         sodipodi:nodetypes="sssssssssssss"
         inkscape:connector-curvature="0"
         id="path22733"
         d="m -739.11692,3186.4583 c 3.94258,-3.539 7.87578,-6.8271 13.10234,-7.6939 2.93609,-0.4869 6.43712,-0.3129 8.96486,1.2581 2.36695,1.4712 3.50965,4.0238 4.4002,6.6645 0.70607,2.0937 1.35135,4.2616 0.65829,6.3597 -0.28068,0.8497 -1.07553,1.5311 -1.80322,2.0519 -0.95833,0.6859 -2.13924,0.4193 -3.10577,1.0936 -1.07842,0.7524 -1.19517,2.4714 -2.27358,3.2237 -1.51882,1.0597 -3.5158,1.5044 -5.36652,1.438 -3.14995,-0.1132 -5.92908,-2.1465 -8.93453,-3.0964 -2.80816,-0.8876 -6.70167,-0.093 -8.4945,-2.43 -1.05646,-1.3767 -0.64944,-3.5635 -0.0876,-5.2055 0.50697,-1.4815 1.77479,-2.6177 2.94001,-3.6637 z"
         style="fill:#000000;fill-rule:evenodd;stroke:none;stroke-width:1px;stroke-linecap:butt;stroke-linejoin:miter;stroke-opacity:1" />
      <path
         sodipodi:nodetypes="ssssssss"
         inkscape:connector-curvature="0"
         id="path22735"
         d="m -709.91777,3202.6245 c -0.98615,-0.7566 -1.47812,-2.3971 -1.07146,-3.5715 1.25496,-3.6244 3.02806,-5.7735 5.53577,-9.1071 1.9336,-2.5704 7.89897,-2.4257 10.89284,-1.2501 1.56717,0.6156 2.57006,1.659 3.21429,3.2143 0.50111,1.2099 -0.0494,3.2485 -0.53573,4.4643 -1.2822,3.2055 -2.69992,5.2941 -5.89281,6.6072 -3.74501,1.5403 -8.92997,2.1076 -12.1429,-0.3571 z"
         style="fill:#000000;fill-rule:evenodd;stroke:none;stroke-width:1px;stroke-linecap:butt;stroke-linejoin:miter;stroke-opacity:1" />
      <path
         sodipodi:nodetypes="sssscsssssss"
         inkscape:connector-curvature="0"
         id="path22737"
         d="m -675.57116,3204.853 c 0.61586,-2.7075 5.70191,-4.3209 7.85716,-6.0714 8.50083,-6.9044 15.34074,-15.6689 22.32146,-24.1071 4.66714,-5.6414 8.5063,-11.9261 13.03579,-17.6786 3.60685,-4.5807 11.24992,-13.3928 11.24992,-13.3928 0,0 -4.42662,12.9312 -7.32139,19.1071 -4.08299,8.7109 -9.00723,17.0211 -14.10709,25.1786 -3.26498,5.2223 -8.12553,9.5109 -10.53575,15.1786 -0.47511,1.1172 -0.028,2.5697 -0.71427,3.5714 -1.75483,2.5608 -4.86666,4.1667 -7.85715,4.9999 -2.46638,0.6868 -5.4386,1.0613 -7.67866,-0.1786 -2.93241,-1.6225 -6.99327,-3.3392 -6.25002,-6.6071 z"
         style="fill:#000000;fill-rule:evenodd;stroke:none;stroke-width:1px;stroke-linecap:butt;stroke-linejoin:miter;stroke-opacity:1" />
      <path
         sodipodi:nodetypes="ssscssssss"
         inkscape:connector-curvature="0"
         id="path22739"
         d="m -614.18623,3201.1478 c 3.92439,-5.2256 5.76048,-8.8333 9.04838,-13.1471 4.97592,-6.5286 11.28445,-11.926 16.80715,-17.9991 8.78575,-9.6612 25.97279,-29.3287 25.97279,-29.3287 0,0 -9.42147,17.0199 -14.52106,25.151 -4.94013,7.8771 -9.71946,15.5563 -15.51286,22.8286 -3.05526,3.8353 -7.29839,6.4901 -9.25812,10.9848 -0.4818,1.1049 -0.18007,2.5952 -0.89303,3.567 -1.31446,1.7921 -3.95409,2.9091 -6.1509,2.5725 -2.36662,-0.3627 -6.9301,-2.7145 -5.49226,-4.6291 z"
         style="fill:#000000;fill-rule:evenodd;stroke:none;stroke-width:1px;stroke-linecap:butt;stroke-linejoin:miter;stroke-opacity:1" />
    </g>
  </g>
</svg>
