<?xml version="1.0" standalone="no"?>
<!DOCTYPE svg PUBLIC "-//W3C//DTD SVG 20010904//EN"
 "http://www.w3.org/TR/2001/REC-SVG-20010904/DTD/svg10.dtd">
<svg version="1.0" xmlns="http://www.w3.org/2000/svg"
 width="4615.000000pt" height="1648.000000pt" viewBox="0 0 4615.000000 1648.000000"
 preserveAspectRatio="xMidYMid meet">
<metadata>
Created by potrace 1.16, written by Peter Selinger 2001-2019
</metadata>
<g transform="translate(0.000000,1648.000000) scale(0.100000,-0.100000)"
fill="#000000" stroke="none">
<path d="M18085 16464 c-946 -35 -1337 -69 -1910 -165 -716 -120 -1859 -392
-2408 -574 -908 -300 -1813 -829 -2653 -1551 -235 -202 -412 -371 -974 -929
-561 -557 -688 -677 -864 -819 -331 -266 -624 -389 -1259 -531 -433 -96 -701
-130 -957 -122 -202 7 -308 25 -490 86 -218 73 -356 157 -920 561 -513 367
-719 497 -995 631 -241 116 -387 156 -610 166 -239 11 -453 -49 -898 -251
-201 -91 -285 -125 -437 -176 -63 -21 -198 -73 -300 -115 -101 -41 -248 -99
-325 -127 -683 -248 -1104 -497 -1472 -869 -146 -148 -213 -230 -303 -366
-127 -191 -235 -453 -259 -623 -29 -213 -44 -384 -37 -451 13 -140 62 -275
144 -395 53 -78 77 -100 95 -85 8 6 16 9 19 6 3 -3 11 1 18 10 7 8 25 15 40
15 15 0 33 7 40 15 7 8 27 15 45 15 18 0 56 12 83 26 l50 26 64 -25 c95 -38
262 -87 316 -94 35 -4 88 5 212 35 91 23 217 51 280 63 63 12 264 64 445 115
561 160 949 229 1390 249 253 12 414 -11 784 -111 323 -87 377 -112 741 -339
248 -154 330 -203 515 -302 554 -298 1285 -580 1885 -728 193 -47 392 -84 760
-140 622 -95 855 -158 1185 -320 160 -79 317 -178 429 -273 l69 -58 113 -445
c187 -734 231 -941 293 -1379 64 -455 75 -594 75 -980 1 -421 10 -371 -148
-780 -124 -319 -199 -478 -396 -835 -424 -770 -578 -1033 -650 -1108 l-56 -57
-189 0 c-328 -1 -443 -39 -419 -137 13 -52 159 -167 324 -256 113 -61 135 -85
134 -145 -2 -100 -75 -234 -286 -528 -83 -115 -197 -279 -253 -364 -56 -85
-128 -186 -159 -225 -69 -86 -152 -250 -167 -329 -12 -67 -5 -121 23 -189 22
-51 59 -87 89 -87 11 0 28 -9 39 -20 25 -25 53 -25 210 -1 321 51 337 51 413
18 38 -16 71 -22 122 -22 130 0 168 39 242 245 79 221 247 498 408 668 105
113 169 110 240 -13 35 -59 115 -250 201 -478 92 -245 125 -317 165 -357 40
-39 72 -47 115 -27 57 28 69 64 69 207 0 151 -9 198 -111 550 -118 413 -138
499 -138 615 -1 95 1 104 35 175 51 106 453 730 744 1155 306 445 399 575 549
769 175 226 243 330 297 457 102 235 127 471 94 869 -8 96 -21 256 -29 355
-29 342 -28 313 -10 290 64 -81 280 -476 339 -619 45 -109 59 -175 85 -397 11
-96 27 -235 36 -309 36 -303 6 -1662 -42 -1899 -31 -152 -64 -190 -251 -291
-223 -119 -406 -255 -433 -320 -11 -28 -11 -34 7 -58 35 -47 86 -53 398 -50
332 4 328 5 383 -102 49 -97 66 -209 58 -395 -14 -361 -101 -693 -220 -842
-54 -66 -59 -160 -13 -203 19 -18 36 -20 159 -20 93 0 179 7 265 21 139 23
227 21 302 -5 50 -18 177 -21 232 -6 20 6 53 21 73 35 57 39 131 35 226 -11
119 -57 250 -59 277 -3 16 33 1 88 -40 148 -34 50 -117 279 -152 425 -45 182
-77 570 -56 680 14 77 34 100 82 93 20 -3 59 -18 85 -33 78 -45 345 -250 517
-396 189 -160 251 -201 309 -201 84 0 110 74 64 184 -62 151 -194 304 -488
565 -295 262 -414 382 -458 464 -31 59 -35 74 -38 165 -4 120 49 725 108 1215
74 620 89 734 130 961 65 370 71 491 34 691 -43 230 -125 398 -399 822 -181
281 -254 400 -342 556 -125 221 -313 613 -300 626 3 3 178 0 389 -6 734 -24
1327 -1 2198 85 190 19 530 50 755 70 787 67 1137 111 2000 250 226 36 420 64
433 63 20 -3 29 -20 66 -133 163 -486 423 -977 740 -1399 160 -213 312 -389
636 -736 337 -361 542 -596 731 -835 513 -650 656 -1010 713 -1805 43 -583 41
-740 -10 -902 -56 -177 -125 -276 -291 -417 -120 -102 -134 -118 -181 -206
-15 -27 -41 -57 -58 -67 -35 -20 -226 -66 -409 -99 -102 -18 -180 -22 -525
-29 -367 -6 -412 -9 -481 -28 -297 -83 -484 -187 -660 -369 -92 -94 -136 -161
-145 -219 -12 -82 13 -89 183 -48 128 31 282 42 358 25 33 -8 91 -36 157 -77
157 -98 189 -106 458 -112 153 -3 251 0 306 8 67 11 96 10 165 -1 63 -10 182
-13 484 -11 220 2 427 4 460 5 33 1 125 -4 205 -10 220 -18 731 -36 860 -31
140 6 206 29 280 95 114 102 153 252 175 669 22 420 62 688 168 1134 20 80 41
172 47 205 l12 59 33 -89 c72 -200 105 -262 212 -395 182 -225 408 -388 653
-470 81 -27 194 -25 215 4 18 25 9 47 -71 163 -128 189 -174 316 -155 431 24
135 23 134 40 129 9 -3 61 -24 116 -47 140 -58 215 -74 276 -60 54 13 73 30
65 57 -3 10 -38 61 -76 113 -39 52 -85 124 -103 160 -30 61 -32 69 -28 155 11
245 10 255 -53 445 -32 96 -76 221 -97 278 -60 157 -69 139 142 271 100 62
274 170 388 239 113 68 232 145 264 169 107 83 165 208 153 328 -9 84 -26 133
-113 318 -138 294 -165 423 -208 980 -8 108 -20 230 -25 269 -51 358 -241 665
-527 852 -54 35 -195 114 -313 176 -118 62 -257 139 -308 171 -286 179 -550
426 -766 716 -90 119 -313 468 -309 481 1 4 51 15 110 25 383 62 999 193 1498
318 740 186 2654 724 3074 866 231 78 353 136 473 225 92 68 145 129 254 293
104 158 145 201 294 312 73 54 110 89 122 114 15 33 21 37 91 52 42 9 155 45
254 81 289 104 451 141 748 171 296 29 556 35 1620 35 1407 0 2119 24 3200
106 1126 85 1664 162 2758 395 1755 373 2606 504 3712 570 289 17 1186 23
1485 10 1146 -50 1986 -237 2745 -611 198 -98 374 -207 606 -375 211 -153 314
-241 544 -466 110 -107 211 -203 225 -212 13 -9 42 -17 63 -17 31 0 45 7 68
31 33 36 36 63 11 101 -10 15 -125 152 -257 305 -448 518 -688 744 -1060 994
-590 396 -1404 735 -2318 965 -500 125 -1066 230 -1612 298 -812 102 -2010
191 -3570 266 -1290 62 -1678 91 -2235 166 -852 114 -2205 409 -3210 700 -359
104 -608 184 -1205 386 -1366 463 -2182 721 -3225 1019 -1021 292 -2053 598
-2380 704 -727 236 -1045 316 -1575 395 -378 55 -959 114 -1625 165 -796 60
-747 58 -2270 60 -778 1 -1451 0 -1495 -1z m-16935 -5809 c18 -19 25 -40 28
-83 l4 -57 -96 -72 c-78 -59 -95 -69 -91 -50 3 12 12 53 20 90 26 114 69 195
106 197 3 0 16 -11 29 -25z m20823 -4406 c298 -150 594 -420 799 -729 78 -119
113 -191 164 -342 56 -167 56 -177 4 -638 -30 -275 -47 -390 -76 -510 -44
-186 -53 -290 -30 -376 23 -90 21 -117 -29 -279 -43 -141 -81 -301 -108 -450
l-13 -70 -46 92 c-25 50 -106 192 -181 315 -74 122 -152 257 -172 298 -100
199 -204 508 -258 765 -60 284 -77 506 -77 1045 0 360 -8 615 -26 823 -4 42
-4 77 0 77 4 0 26 -10 49 -21z"/>
</g>
</svg>
