<?xml version="1.0" standalone="no"?>
<!DOCTYPE svg PUBLIC "-//W3C//DTD SVG 20010904//EN"
 "http://www.w3.org/TR/2001/REC-SVG-20010904/DTD/svg10.dtd">
<svg version="1.0" xmlns="http://www.w3.org/2000/svg"
 width="1959.000000pt" height="636.000000pt" viewBox="0 0 1959.000000 636.000000"
 preserveAspectRatio="xMidYMid meet">
<metadata>
Created by potrace 1.16, written by Peter Selinger 2001-2019
</metadata>
<g transform="translate(0.000000,636.000000) scale(0.100000,-0.100000)"
fill="#000000" stroke="none">
<path d="M1790 6345 c-65 -16 -209 -73 -264 -104 -28 -16 -48 -21 -72 -17 -42
8 -163 -10 -244 -37 -36 -11 -69 -20 -73 -19 -12 3 -113 -48 -177 -90 -30 -20
-77 -59 -105 -88 -27 -28 -70 -63 -95 -77 -51 -30 -223 -165 -288 -227 -48
-45 -89 -120 -99 -179 -6 -41 -37 -70 -174 -167 -81 -57 -167 -137 -185 -172
-25 -48 -18 -86 27 -139 26 -31 49 -49 62 -49 35 0 275 48 357 71 48 14 99 21
141 20 70 -2 264 36 322 63 18 8 55 19 82 25 28 5 77 16 110 24 89 23 742 31
838 11 38 -8 72 -12 77 -9 4 3 18 -3 31 -13 13 -10 41 -27 62 -37 45 -24 208
-153 242 -193 70 -81 256 -262 265 -257 5 3 33 -28 62 -70 29 -41 56 -75 60
-75 4 0 27 -18 50 -41 24 -22 65 -53 92 -69 28 -16 92 -71 144 -122 52 -51
106 -100 122 -108 15 -8 47 -28 71 -44 51 -34 129 -66 162 -66 12 0 55 -22 95
-49 40 -27 95 -57 123 -66 27 -9 75 -32 106 -51 31 -18 64 -36 73 -39 9 -3 23
-17 31 -31 7 -14 27 -33 44 -41 16 -9 45 -29 63 -45 27 -23 37 -27 48 -17 11
9 19 8 34 -6 11 -10 35 -19 54 -20 36 -2 115 -51 140 -86 10 -14 21 -19 32
-15 9 3 23 1 30 -5 8 -7 24 -13 37 -14 12 -2 46 -10 75 -18 29 -9 58 -14 65
-12 7 3 19 1 27 -5 12 -7 6 -25 -34 -107 -55 -110 -130 -225 -171 -263 -15
-14 -69 -75 -121 -136 -57 -69 -111 -122 -139 -138 -25 -15 -46 -32 -47 -39 0
-7 -2 -17 -2 -24 -4 -40 -112 -111 -223 -147 -60 -20 -69 -36 -20 -36 110 0
336 93 386 159 14 19 45 55 69 80 l43 46 -37 -70 c-21 -38 -57 -100 -80 -136
-23 -36 -59 -99 -80 -141 -24 -48 -48 -82 -70 -97 -36 -25 -57 -71 -48 -107 7
-28 -38 -115 -99 -187 -22 -26 -37 -50 -34 -54 11 -11 108 69 152 126 24 32
55 65 69 75 14 9 39 45 55 80 26 58 51 91 51 67 0 -5 3 -16 6 -24 3 -9 -9 -32
-32 -56 -20 -23 -34 -44 -31 -47 10 -11 75 36 105 74 28 37 102 159 102 168 0
3 13 24 28 47 16 23 41 72 57 109 32 78 42 88 110 113 28 10 52 21 55 24 3 3
22 15 43 25 20 11 37 24 37 30 0 6 18 27 41 48 36 33 40 41 34 70 -5 29 -4 31
8 16 12 -15 15 -14 32 12 10 15 25 26 32 23 9 -4 13 6 13 33 1 47 21 79 38 62
9 -9 12 -8 12 3 0 8 9 22 20 32 11 9 20 29 21 44 0 16 3 22 6 16 7 -18 23 -16
23 2 0 8 5 15 11 15 7 0 8 11 4 30 -6 29 -6 30 19 20 23 -8 26 -7 26 10 0 11
6 19 13 17 7 -1 12 8 12 23 0 22 4 25 33 22 29 -2 32 0 23 17 -14 25 5 41 42
37 18 -2 27 1 27 11 0 11 10 14 37 11 21 -1 38 2 40 9 5 13 66 -1 98 -23 28
-20 52 -19 35 1 -19 23 4 18 25 -5 10 -12 24 -19 31 -16 6 2 20 -1 30 -8 11
-7 41 -13 68 -14 35 -1 56 -8 73 -24 14 -13 23 -16 23 -9 0 7 6 11 14 8 7 -3
19 0 25 6 8 8 16 6 29 -6 10 -9 22 -14 25 -11 4 4 12 2 19 -3 7 -6 29 -9 48
-8 19 1 41 -2 48 -8 10 -8 14 -5 19 11 5 20 6 20 29 -6 14 -16 23 -21 24 -13
0 8 7 11 20 8 12 -3 23 1 29 10 7 13 12 13 40 -1 17 -9 48 -17 69 -17 91 0
104 -4 119 -40 10 -24 14 -66 12 -149 -2 -79 2 -135 13 -180 19 -78 45 -140
63 -155 8 -5 27 -38 45 -72 17 -34 34 -63 38 -65 4 -2 16 -21 27 -43 11 -22
34 -56 51 -75 17 -19 37 -51 44 -70 16 -39 55 -108 108 -187 61 -94 109 -242
173 -538 10 -49 26 -119 34 -155 10 -45 15 -128 16 -270 2 -231 1 -237 -85
-447 -90 -222 -232 -449 -370 -594 -50 -52 -225 -87 -571 -114 -340 -26 -428
-35 -457 -50 -15 -7 -47 -16 -70 -20 -61 -10 -133 -49 -189 -102 -74 -70 -61
-95 28 -52 28 14 65 21 107 22 54 2 70 -2 97 -22 22 -17 51 -26 86 -29 36 -3
53 -9 53 -18 0 -19 34 -18 50 1 18 22 152 21 185 -1 23 -15 49 -15 268 -5 133
7 301 16 372 22 72 5 139 10 150 10 52 1 191 21 207 30 14 8 18 22 18 72 0 50
10 89 44 184 54 150 119 297 169 388 121 217 191 353 227 442 42 106 64 195
54 225 -8 25 4 58 20 52 9 -4 12 12 10 66 -2 38 -6 75 -10 82 -12 19 -43 189
-50 273 -2 33 -10 76 -16 95 -6 19 -13 46 -14 60 -10 75 -14 99 -23 135 -14
52 -13 58 1 49 8 -5 9 2 4 27 -5 19 -12 50 -16 69 -4 19 -11 43 -15 53 -4 10
-3 17 4 17 14 0 13 125 0 151 -7 14 -10 104 -7 229 0 14 -2 39 -4 55 -3 17 -1
37 2 45 4 8 4 24 0 35 -4 11 -2 28 3 37 8 12 7 24 -2 44 -20 46 3 53 41 13 18
-20 56 -51 83 -71 28 -20 57 -45 66 -55 20 -24 94 -83 132 -106 16 -10 66 -50
112 -90 45 -40 139 -121 209 -181 142 -123 323 -305 407 -411 31 -38 63 -76
72 -84 10 -7 17 -21 17 -30 0 -20 40 -61 58 -61 7 0 12 -6 12 -14 0 -8 26 -43
59 -79 38 -42 64 -82 75 -113 31 -97 66 -251 75 -334 27 -233 33 -321 30 -435
-2 -68 0 -127 4 -131 19 -19 -9 -229 -42 -317 -22 -57 -121 -87 -371 -112
-197 -19 -333 -48 -382 -80 -32 -21 -108 -119 -108 -140 0 -14 33 -2 80 30 43
29 61 35 104 35 65 0 113 -14 142 -41 22 -21 29 -21 213 -17 l189 4 -1 -25
c-3 -39 31 -40 62 -2 25 31 29 32 129 38 101 6 104 7 153 46 27 21 59 58 71
80 11 23 31 49 43 59 31 24 75 147 75 209 0 28 5 60 11 71 25 46 6 175 -30
200 -20 15 -35 48 -21 48 18 0 10 25 -16 49 -22 22 -25 30 -19 70 4 31 1 55
-9 73 -10 19 -18 90 -26 230 -25 453 -32 497 -105 643 -25 50 -45 95 -45 100
0 11 -35 51 -90 102 -57 52 -90 89 -90 100 0 6 -24 35 -53 64 -30 30 -67 74
-82 99 -16 25 -48 68 -72 97 -24 28 -43 57 -43 65 0 16 -77 124 -109 152 -11
11 -21 27 -21 36 0 9 -13 29 -30 45 -16 15 -43 51 -60 79 -17 28 -46 76 -65
106 -51 84 -139 263 -136 278 1 7 -12 35 -29 62 -17 27 -29 53 -26 58 3 6 -5
25 -18 45 -13 19 -30 52 -37 73 -7 22 -19 46 -26 55 -7 8 -13 19 -13 23 0 5
-7 24 -16 44 -48 109 -49 117 -23 141 12 11 35 23 50 26 16 4 29 11 29 16 0 6
9 7 20 4 11 -3 20 -2 20 4 0 19 54 38 85 29 46 -13 94 -1 105 27 7 18 15 23
40 21 17 -1 34 2 37 7 3 5 20 6 38 3 19 -4 35 -2 37 4 1 5 17 11 33 12 17 1
39 9 50 19 11 9 38 22 60 29 22 7 57 21 78 32 27 13 48 17 69 13 17 -4 33 -3
37 2 3 5 55 14 116 20 60 7 111 16 113 21 1 4 15 7 30 5 15 -2 61 2 103 9 42
8 89 11 104 6 15 -4 55 -8 89 -9 33 -1 74 -6 89 -12 21 -7 31 -7 36 2 6 9 15
9 36 1 16 -6 34 -9 41 -6 6 2 31 -2 55 -10 28 -10 45 -12 47 -5 2 6 17 8 35 4
30 -6 31 -5 17 12 -14 17 -13 18 4 12 28 -11 95 -25 141 -30 22 -3 60 -13 83
-22 35 -14 46 -15 52 -5 6 9 13 9 28 1 12 -6 47 -11 79 -10 32 0 78 -3 103 -7
42 -6 44 -6 30 12 -14 16 -13 17 5 10 11 -4 63 -9 115 -12 113 -5 170 -11 192
-19 9 -4 19 -2 23 4 7 12 52 5 73 -12 15 -12 103 -1 113 14 5 9 15 9 40 0 36
-13 47 -8 30 13 -10 11 -5 12 31 6 125 -22 125 -22 123 4 -3 23 -1 24 23 14
15 -6 43 -12 62 -14 19 -2 55 -6 79 -9 36 -4 42 -3 37 10 -5 13 -3 13 17 1 27
-17 156 -14 167 4 6 9 13 9 31 0 14 -8 24 -9 26 -3 2 6 15 8 28 5 15 -2 25 0
25 7 0 7 4 10 9 6 5 -3 12 -1 16 5 4 7 14 6 28 -2 12 -6 49 -13 82 -14 33 -2
90 -5 128 -7 41 -3 67 -1 67 5 0 7 43 8 123 4 69 -4 117 -3 109 2 -19 13 71
31 168 33 47 1 89 5 95 8 5 3 73 4 150 3 91 -1 135 1 125 7 -8 6 -12 12 -9 15
8 8 127 9 235 1 81 -6 103 -5 110 6 11 16 36 20 124 19 109 -1 115 -1 129 -13
11 -9 15 -9 18 1 3 6 18 12 33 12 16 0 32 5 35 11 4 5 19 8 33 5 66 -13 122
-16 122 -7 0 5 -3 11 -7 14 -5 2 -1 2 7 -1 8 -2 44 -5 80 -7 36 -2 82 -6 103
-9 42 -7 48 5 15 30 -20 14 -20 15 -3 9 40 -15 65 -17 65 -6 0 8 13 9 41 5 26
-4 49 -2 65 6 17 10 30 10 46 3 35 -15 129 -8 143 10 7 9 16 13 21 8 8 -8 92
-4 294 14 41 4 78 9 82 11 4 3 17 0 29 -7 17 -8 20 -8 14 1 -8 13 11 11 107
-12 37 -9 53 -9 72 1 13 8 38 11 55 9 17 -3 31 -1 31 3 0 5 33 6 73 3 39 -3
90 -7 112 -8 23 -2 50 -8 62 -15 30 -15 38 -14 23 4 -11 14 -8 15 21 13 19 -1
44 -8 56 -15 14 -10 23 -11 28 -4 4 8 12 8 26 1 29 -16 23 5 -8 30 l-28 21 31
-15 c18 -9 49 -20 70 -25 22 -5 50 -13 63 -17 17 -5 22 -4 17 4 -10 16 5 14
28 -3 15 -11 22 -12 27 -3 5 8 11 9 21 1 7 -5 22 -13 33 -17 16 -6 14 0 -10
25 l-30 33 30 -19 c17 -10 44 -25 60 -34 17 -8 42 -23 57 -33 16 -11 33 -16
39 -13 6 4 24 -8 40 -26 25 -28 36 -33 82 -34 45 -2 53 1 54 16 1 10 -2 21 -8
24 -5 4 -9 11 -9 16 0 5 24 -6 52 -26 29 -19 58 -35 65 -35 15 0 17 16 3 25
-17 11 -11 20 14 21 15 1 41 -12 65 -32 23 -20 42 -30 46 -24 3 5 4 14 1 19
-3 5 11 0 31 -10 40 -21 68 -25 58 -9 -10 16 47 12 65 -5 10 -9 26 -17 36 -20
11 -2 33 -10 49 -18 49 -24 79 -31 70 -16 -6 9 -3 10 11 5 10 -5 28 -11 38
-14 11 -3 27 -13 38 -24 10 -10 26 -18 37 -18 10 0 24 -6 30 -14 13 -16 51
-10 48 7 -3 16 62 8 91 -11 41 -27 79 -23 50 6 -7 7 -8 12 -2 12 5 0 15 -5 22
-12 6 -6 18 -13 26 -14 8 -1 28 -12 45 -25 25 -18 33 -20 45 -9 13 10 17 10
22 -3 5 -13 89 -57 110 -57 3 0 -1 12 -11 26 -9 14 -14 28 -11 32 3 3 6 0 6
-7 0 -7 14 -17 30 -22 17 -6 30 -15 30 -20 0 -12 47 -12 52 0 2 5 19 1 38 -8
80 -40 120 -64 126 -73 8 -12 49 -27 90 -33 26 -3 32 -1 27 11 -10 26 14 15
26 -13 10 -22 14 -24 22 -12 7 11 9 11 9 1 0 -9 10 -12 29 -10 18 1 37 -5 50
-16 12 -11 24 -16 27 -13 4 4 18 -3 32 -14 20 -15 27 -17 34 -7 7 10 11 9 21
-4 13 -16 91 -41 100 -31 3 2 17 -10 31 -28 15 -17 29 -29 33 -26 3 4 14 -4
25 -16 18 -20 19 -20 13 -3 -5 18 -4 19 12 4 10 -8 26 -14 35 -13 10 2 40 -17
68 -42 37 -33 50 -40 50 -27 0 16 2 16 21 -2 15 -13 23 -15 26 -7 3 8 9 8 21
-3 97 -84 99 -85 104 -53 3 18 7 16 43 -18 22 -21 43 -37 47 -35 5 1 8 -3 8
-8 0 -14 47 -61 90 -90 19 -13 47 -35 63 -48 29 -27 36 -20 12 12 -22 29 -18
42 5 21 11 -10 20 -22 20 -26 0 -11 109 -119 120 -119 5 0 13 -7 18 -17 5 -9
22 -17 38 -19 15 -2 40 -12 55 -24 32 -23 55 -26 62 -7 3 7 9 2 16 -13 17 -35
89 -86 103 -72 6 6 17 8 26 5 12 -5 14 -1 8 23 l-8 29 20 -25 c10 -14 24 -35
31 -48 7 -12 16 -20 20 -17 13 7 81 -23 81 -37 0 -6 3 -8 7 -5 3 4 15 0 25
-10 11 -9 18 -11 18 -5 0 21 20 13 57 -23 42 -41 53 -44 46 -12 -3 13 6 5 22
-22 15 -24 30 -39 34 -34 13 20 38 21 49 2 14 -22 40 -16 38 9 -1 9 -12 32
-25 50 -13 18 -21 36 -18 39 3 2 18 -15 32 -39 54 -86 70 -106 96 -122 36 -21
42 -20 29 7 -6 12 7 2 29 -23 23 -25 41 -48 41 -52 0 -5 5 -8 11 -8 5 0 7 4 4
10 -3 6 1 7 9 4 9 -3 16 -9 16 -14 0 -4 9 -17 19 -29 11 -12 26 -32 35 -44 14
-21 15 -21 15 -3 1 20 1 20 16 0 9 -12 14 -14 15 -6 0 10 4 9 16 -3 29 -29 39
-1 14 39 -32 53 -20 62 25 21 34 -30 94 -65 112 -65 3 0 0 7 -7 15 -10 13 -9
15 8 15 12 0 25 -6 29 -13 4 -8 23 -19 42 -25 30 -11 32 -10 26 6 -4 9 -8 26
-11 36 -2 11 -10 24 -19 28 -8 5 -15 14 -15 20 0 6 10 2 23 -9 27 -24 57 -36
57 -22 0 6 7 6 20 -1 11 -6 20 -8 20 -4 0 3 15 -5 34 -20 19 -14 37 -26 40
-26 16 0 3 29 -24 55 -16 16 -30 36 -30 44 0 12 3 12 12 3 7 -7 19 -12 27 -12
8 0 22 -7 31 -15 16 -14 18 -14 23 -1 4 9 2 18 -3 21 -6 4 -10 11 -10 16 0 6
15 2 33 -7 72 -38 70 -37 64 -19 -6 13 -3 15 14 10 30 -10 15 11 -22 30 -35
19 -38 35 -5 35 19 0 23 4 19 20 -3 10 -13 22 -23 25 -9 3 -25 14 -34 24 -16
17 -16 19 4 24 13 3 31 -3 49 -19 28 -23 71 -33 71 -16 0 5 -9 17 -20 27 -11
10 -18 20 -15 23 3 3 15 -3 27 -14 15 -14 20 -15 16 -4 -6 16 16 43 26 33 3
-4 6 -2 6 2 0 5 -12 22 -28 38 -28 31 -21 33 31 12 25 -10 21 8 -8 43 -14 17
-25 33 -25 38 0 4 -8 16 -17 27 -17 19 -17 20 0 14 34 -13 16 13 -40 57 -32
24 -92 79 -133 121 -85 86 -152 137 -292 219 -66 38 -98 63 -98 75 0 25 -22
42 -112 91 -43 23 -82 49 -87 57 -4 8 -32 31 -62 50 -44 28 -49 34 -26 30 34
-5 35 6 0 31 l-28 20 28 -5 c49 -10 28 5 -40 27 -38 13 -81 31 -98 40 -16 10
-56 26 -88 35 -31 9 -80 32 -108 51 -28 19 -55 34 -59 34 -4 0 -10 8 -12 18
-6 22 -206 128 -264 140 -21 4 -39 13 -42 20 -3 9 4 11 24 6 54 -14 14 16 -44
31 -65 19 -97 32 -130 57 -13 9 -53 26 -90 38 -37 12 -84 30 -104 41 -20 11
-65 30 -100 43 -145 54 -260 101 -404 164 -50 22 -126 48 -169 57 -43 8 -85
20 -94 24 -9 5 -36 12 -61 16 -25 4 -51 12 -57 17 -7 6 -39 14 -70 18 -59 8
-122 18 -293 46 -52 9 -147 22 -210 29 -126 14 -148 19 -231 46 -31 10 -107
23 -170 29 -143 13 -159 17 -159 35 0 12 -17 15 -88 15 -49 0 -133 7 -188 15
-86 14 -344 35 -594 50 -41 2 -106 7 -145 10 -190 16 -598 21 -865 11 -210 -8
-256 -12 -360 -31 -47 -9 -125 -18 -175 -20 -154 -8 -378 -16 -430 -16 -115 0
-392 -22 -560 -44 -99 -13 -229 -26 -290 -30 -60 -4 -186 -15 -280 -26 -209
-24 -955 -37 -1210 -21 -188 13 -580 57 -680 77 -76 15 -415 55 -665 79 -85 8
-236 30 -335 50 -99 19 -270 47 -380 61 -404 52 -493 66 -638 101 -102 24
-190 38 -283 44 -74 5 -138 12 -143 15 -10 6 -118 18 -356 40 -88 9 -214 25
-280 36 -75 12 -227 25 -405 34 -157 7 -319 19 -360 25 -85 14 -473 8 -630 -9
-109 -12 -375 -24 -500 -23 -46 0 -110 -5 -142 -13 -32 -7 -66 -11 -77 -8 -10
2 -42 -2 -71 -11 -29 -9 -57 -13 -61 -10 -5 3 -24 1 -42 -5 -29 -9 -533 -86
-648 -98 -52 -6 -174 22 -259 60 -90 41 -224 143 -333 256 -189 196 -266 294
-373 480 -108 185 -365 380 -624 471 -81 29 -246 37 -330 15z"/>
</g>
</svg>
