<?xml version="1.0" standalone="no"?>
<!DOCTYPE svg PUBLIC "-//W3C//DTD SVG 20010904//EN"
 "http://www.w3.org/TR/2001/REC-SVG-20010904/DTD/svg10.dtd">
<svg version="1.0" xmlns="http://www.w3.org/2000/svg"
 width="1305.000000pt" height="1048.000000pt" viewBox="0 0 1305.000000 1048.000000"
 preserveAspectRatio="xMidYMid meet">
<metadata>
Created by potrace 1.16, written by Peter Selinger 2001-2019
</metadata>
<g transform="translate(0.000000,1048.000000) scale(0.100000,-0.100000)"
fill="#000000" stroke="none">
<path d="M2330 10388 c-58 -22 -121 -48 -140 -58 -206 -106 -275 -138 -307
-143 -21 -4 -58 -16 -82 -27 -23 -12 -45 -19 -48 -16 -3 3 -23 -6 -45 -20 -39
-25 -64 -26 -40 -2 7 7 12 15 12 19 0 9 -49 -1 -56 -12 -3 -5 -12 -9 -21 -9
-8 0 -28 -9 -44 -21 -17 -12 -29 -16 -29 -9 0 8 -9 10 -27 5 l-28 -7 24 26
c17 18 21 30 15 36 -7 7 -20 0 -39 -20 -16 -16 -35 -30 -44 -30 -8 0 -29 -16
-48 -36 -23 -26 -39 -35 -53 -31 -13 3 -24 -1 -30 -14 -16 -29 -64 -50 -99
-43 -26 5 -37 0 -84 -45 -30 -28 -61 -51 -70 -51 -14 0 -114 -94 -167 -157 -8
-9 -29 -34 -45 -53 -17 -20 -35 -35 -41 -33 -6 2 -18 -5 -28 -16 -10 -11 -24
-17 -31 -15 -7 3 -30 -11 -51 -32 -22 -20 -55 -50 -74 -66 -94 -80 -358 -317
-403 -361 -15 -15 -27 -31 -27 -36 0 -4 -11 -13 -24 -20 -31 -17 -67 -66 -71
-97 -1 -13 -7 -29 -13 -37 -16 -18 -32 -98 -38 -183 -4 -59 -1 -88 17 -146 13
-40 32 -85 42 -101 l19 -28 35 22 c27 17 39 19 56 11 43 -20 103 -21 136 -1
17 10 31 25 31 32 0 24 30 75 62 107 50 51 138 85 306 121 24 5 47 11 52 14
21 13 192 37 285 40 76 3 106 0 123 -11 14 -9 31 -12 45 -8 12 4 61 8 110 9
48 1 90 5 94 8 3 4 16 4 29 1 16 -4 25 0 33 14 12 23 77 34 123 21 29 -8 35
-5 78 40 32 34 61 53 89 61 24 6 41 17 41 25 0 12 5 12 27 4 33 -12 73 -4 73
15 0 7 7 19 15 26 8 7 17 28 21 47 5 28 14 38 42 50 21 9 50 13 71 9 86 -13
111 -19 116 -26 4 -7 35 -2 92 15 16 5 23 2 27 -13 9 -27 41 -34 86 -18 32 11
42 10 66 -2 38 -20 66 -51 88 -96 10 -21 26 -46 36 -56 11 -11 28 -37 39 -59
12 -22 25 -42 31 -46 5 -3 10 -15 10 -26 0 -10 5 -19 11 -19 6 0 8 -8 4 -20
-4 -13 1 -25 14 -37 12 -10 21 -23 21 -29 0 -7 15 -35 34 -63 44 -65 151 -371
142 -407 -5 -18 0 -34 18 -57 13 -18 27 -45 31 -62 4 -16 15 -53 25 -81 10
-28 17 -64 15 -79 -3 -35 28 -130 56 -168 12 -16 19 -37 16 -46 -2 -10 2 -26
9 -36 8 -10 14 -25 14 -32 0 -7 11 -30 24 -51 13 -20 31 -71 40 -112 41 -194
55 -242 75 -255 6 -3 11 -15 11 -25 0 -10 6 -23 13 -27 11 -7 61 -105 89 -173
6 -14 14 -32 19 -40 5 -8 15 -29 23 -46 7 -17 32 -48 55 -70 86 -82 107 -104
155 -159 27 -31 56 -68 63 -83 8 -15 21 -31 30 -36 21 -12 62 -109 79 -186 18
-86 18 -176 0 -183 -15 -6 -11 -53 5 -63 5 -3 -1 -19 -13 -37 -12 -17 -21 -42
-20 -56 1 -15 -8 -35 -25 -53 -21 -22 -23 -28 -10 -28 20 0 21 -12 7 -60 -13
-42 17 -190 38 -190 14 0 17 -26 3 -34 -13 -8 -23 -71 -16 -99 5 -20 12 -25
38 -23 26 1 32 -3 39 -29 4 -16 21 -44 37 -61 16 -17 36 -45 45 -62 9 -18 21
-32 27 -32 5 0 25 -10 43 -23 32 -21 33 -23 17 -43 -13 -17 -25 -20 -66 -17
-111 8 -206 7 -213 -2 -10 -14 -50 -33 -92 -43 -19 -4 -40 -17 -45 -29 -13
-26 -109 -121 -158 -157 -20 -15 -35 -31 -32 -36 8 -13 -49 -121 -79 -149 -14
-14 -26 -30 -26 -36 0 -7 -38 -48 -83 -91 -46 -44 -89 -89 -96 -101 -7 -14
-21 -23 -36 -23 -16 0 -25 -6 -25 -15 0 -8 -4 -23 -10 -33 -5 -9 -18 -38 -30
-64 -11 -25 -45 -86 -75 -134 -30 -48 -55 -96 -55 -106 0 -10 -4 -26 -10 -36
-51 -91 -43 -384 11 -413 31 -16 44 3 47 64 1 31 9 74 17 97 8 23 12 47 9 52
-4 6 -2 13 3 17 5 3 17 29 27 56 23 62 51 105 115 173 64 68 75 67 69 -3 -3
-30 -1 -55 4 -55 14 0 9 -16 -16 -53 -14 -20 -28 -53 -32 -74 -3 -21 -14 -47
-23 -58 -9 -11 -23 -38 -30 -60 -7 -22 -20 -48 -29 -58 -8 -9 -12 -20 -9 -24
4 -3 3 -11 -3 -17 -11 -14 -53 -174 -82 -311 -22 -105 -26 -238 -9 -259 6 -7
13 -35 15 -62 2 -27 9 -69 14 -94 17 -72 65 -170 86 -170 3 0 6 55 6 123 0
246 82 548 166 613 16 13 48 48 70 78 37 53 54 67 54 47 0 -6 -4 -12 -9 -15
-5 -3 0 -23 9 -43 14 -28 20 -71 23 -168 4 -97 11 -146 27 -191 23 -68 96
-164 149 -197 l34 -21 -6 30 c-3 16 -12 56 -20 89 -22 83 -18 297 6 342 9 18
17 41 17 52 0 11 14 42 31 70 18 28 32 63 32 78 0 45 -9 119 -17 132 -8 12 8
39 32 54 6 4 12 19 12 32 0 13 4 27 10 30 6 3 10 15 10 25 0 12 10 21 29 25
16 3 46 15 67 26 50 25 88 24 159 -5 40 -16 67 -21 84 -17 42 12 116 5 145
-14 19 -13 30 -14 39 -7 7 6 27 10 45 10 25 -1 32 -6 34 -22 2 -41 3 -45 11
-53 5 -4 15 1 23 12 19 26 48 9 51 -30 3 -34 9 -41 26 -26 8 6 27 8 44 5 18
-4 33 -1 37 5 4 6 12 11 17 11 6 0 8 -4 4 -9 -10 -16 12 -21 25 -6 7 8 16 12
21 10 4 -3 13 3 18 12 10 17 12 17 26 -1 8 -11 15 -25 15 -32 0 -6 14 -14 31
-18 21 -4 29 -10 26 -20 -3 -8 5 -19 19 -26 20 -11 23 -19 19 -44 -4 -18 0
-46 9 -68 9 -21 16 -47 16 -59 0 -12 8 -27 17 -34 16 -12 16 -16 -1 -71 -32
-101 -114 -233 -203 -328 -16 -16 -38 -43 -51 -60 -12 -17 -45 -54 -74 -84
-57 -59 -55 -75 7 -62 22 5 75 16 118 26 74 16 79 16 97 -1 11 -10 20 -22 20
-26 0 -15 -69 -124 -99 -157 -17 -18 -31 -40 -31 -48 0 -8 -4 -14 -9 -14 -5 0
-22 -21 -37 -47 -15 -27 -37 -57 -48 -69 -51 -50 -126 -137 -126 -146 0 -5
-16 -24 -35 -42 -33 -32 -49 -66 -22 -49 6 4 23 8 37 9 14 0 57 13 95 29 39
15 78 28 88 28 9 1 17 4 17 8 0 4 30 22 68 40 37 18 78 44 92 56 14 13 46 40
73 61 26 20 47 41 47 47 0 15 43 55 58 55 16 0 17 5 -26 -80 -34 -66 -98 -150
-115 -150 -22 0 -102 -101 -90 -113 7 -7 65 -1 93 10 8 3 20 7 25 7 63 8 110
23 163 52 34 19 67 34 72 34 5 0 20 -21 34 -47 17 -35 23 -62 21 -100 -1 -29
-4 -56 -8 -59 -13 -14 314 -342 373 -374 31 -17 51 -38 65 -66 11 -22 30 -54
43 -70 35 -43 93 -112 125 -145 15 -15 27 -33 27 -39 0 -6 7 -13 15 -16 8 -4
15 -12 15 -20 0 -8 5 -14 11 -14 5 0 7 -4 4 -10 -3 -5 1 -10 10 -10 8 0 20
-11 25 -25 5 -14 15 -25 21 -25 7 0 9 -10 6 -29 -5 -24 -3 -28 12 -24 26 7 32
-8 21 -49 -6 -19 -11 -78 -13 -131 -2 -81 -6 -100 -25 -126 -12 -17 -22 -37
-22 -45 0 -17 -41 -96 -50 -96 -4 0 -22 -14 -41 -31 -19 -17 -48 -42 -65 -55
-37 -29 -205 -84 -256 -84 -21 0 -57 -5 -80 -10 -51 -12 -198 -38 -283 -50
-173 -24 -292 -83 -356 -176 -30 -44 -29 -54 5 -48 47 7 47 -11 -1 -71 -72
-90 -87 -115 -74 -128 8 -8 11 -8 11 1 0 6 12 18 28 26 34 18 252 21 263 5 5
-8 39 -8 121 0 63 6 151 11 196 11 79 0 82 -1 72 -19 -21 -41 -2 -54 43 -29
28 16 46 18 198 21 77 1 131 6 140 14 24 20 170 50 284 58 166 13 184 16 208
39 14 13 31 26 39 29 15 5 33 68 47 168 9 57 31 107 64 141 9 10 17 23 17 30
0 7 11 23 23 37 13 15 34 55 47 91 43 119 87 204 134 258 38 44 46 61 46 92 0
43 25 66 59 55 10 -3 23 1 30 9 9 11 5 22 -21 54 -98 121 -114 148 -99 166 9
10 -10 39 -79 121 -57 68 -90 116 -90 131 0 12 -4 25 -9 29 -5 3 -9 18 -9 33
0 15 -11 53 -26 84 -24 53 -25 61 -14 98 7 22 17 40 23 40 26 -1 155 -139 190
-204 21 -39 49 -85 62 -104 26 -39 100 -122 109 -122 3 0 30 -20 59 -46 47
-40 55 -43 63 -28 8 15 16 11 56 -32 26 -27 55 -49 64 -49 10 0 27 -20 42 -51
14 -28 33 -58 42 -67 8 -9 19 -36 22 -61 8 -50 20 -64 40 -47 10 8 18 6 31 -9
10 -11 26 -20 36 -20 10 0 25 -7 34 -16 13 -14 14 -19 3 -26 -10 -7 -9 -12 7
-26 12 -9 30 -39 40 -66 11 -26 27 -51 35 -54 41 -15 55 -45 53 -114 -2 -37
-12 -95 -23 -128 -11 -32 -20 -67 -20 -77 0 -20 -32 -108 -43 -119 -4 -4 -7
-18 -7 -31 0 -12 -3 -23 -8 -23 -4 0 -12 -8 -17 -18 -24 -45 -80 -112 -93
-112 -8 0 -29 -16 -46 -36 -30 -35 -35 -37 -101 -39 -47 -1 -78 3 -94 13 -18
11 -25 11 -31 2 -5 -7 -17 -10 -30 -7 -12 3 -23 0 -26 -7 -3 -9 -30 -14 -77
-15 -72 -2 -106 -13 -221 -71 -50 -26 -105 -88 -106 -121 0 -8 -11 -26 -25
-39 -14 -13 -25 -29 -25 -36 0 -7 -17 -33 -38 -57 -39 -44 -69 -103 -59 -113
3 -3 20 2 38 11 26 14 56 17 153 15 67 -2 138 -2 159 -2 23 1 61 -9 92 -23 54
-24 140 -35 164 -21 10 6 12 -1 10 -28 -5 -48 11 -62 48 -43 16 9 54 17 85 18
44 2 61 -2 83 -19 25 -20 37 -22 115 -19 47 3 97 10 110 17 13 7 40 10 62 7
23 -3 57 1 80 9 22 8 70 19 105 24 35 6 72 15 81 20 27 14 56 24 72 24 8 1 16
11 18 24 2 13 11 26 20 30 50 18 66 57 72 166 1 10 10 26 20 35 18 15 26 37
36 105 2 16 12 38 21 48 14 16 16 41 15 188 -2 133 1 183 14 228 9 31 21 63
26 70 7 7 9 56 6 122 -4 100 -3 110 13 110 10 0 21 -5 24 -11 5 -7 13 -5 25 6
18 17 18 18 -2 45 -23 31 -31 116 -18 176 8 32 7 34 -13 29 -19 -5 -18 -3 5
15 32 25 29 36 -29 108 -32 39 -34 44 -20 60 15 16 13 22 -15 65 -25 38 -28
50 -18 62 10 12 7 18 -19 32 -21 12 -30 24 -27 35 2 10 -3 23 -11 29 -8 7 -30
36 -49 65 -29 44 -33 56 -24 73 8 17 15 19 35 11 33 -12 34 6 1 21 -22 10 -23
14 -14 53 5 22 20 51 34 64 13 13 24 28 24 33 0 7 10 9 25 5 23 -6 24 -5 14
17 -9 19 -7 32 9 63 18 36 35 85 37 109 0 6 7 21 15 35 8 14 14 34 15 44 1 10
9 24 17 30 9 7 15 23 13 38 -4 38 41 68 103 68 26 0 53 -5 60 -12 9 -9 12 -8
12 6 0 12 5 16 15 12 8 -3 22 2 30 11 18 18 67 13 115 -11 17 -8 32 -11 35 -6
6 10 95 -8 114 -23 7 -6 28 -10 46 -8 19 1 43 -3 54 -9 16 -8 21 -8 21 1 0 8
4 8 15 -1 12 -10 15 -10 15 4 0 30 34 14 49 -24 10 -24 10 -25 16 -4 6 21 8
21 38 6 18 -9 40 -15 50 -13 11 1 33 -13 54 -36 20 -21 32 -32 28 -24 -5 9 -3
12 6 9 8 -2 18 -14 24 -26 5 -12 19 -22 30 -22 35 0 65 -12 65 -26 0 -18 19
-28 33 -16 17 14 58 -4 64 -28 3 -11 9 -20 14 -20 5 0 6 7 3 15 -8 19 12 20
23 1 4 -8 19 -16 33 -18 17 -2 26 -10 28 -26 2 -13 9 -21 15 -19 14 4 37 -16
37 -33 0 -7 6 -10 13 -7 7 3 19 -4 25 -14 7 -10 19 -19 26 -19 8 0 24 -13 36
-30 12 -16 28 -30 36 -30 13 0 13 3 0 22 -18 26 -20 38 -6 38 6 0 10 -7 10
-15 0 -8 7 -15 15 -15 7 0 19 -8 24 -17 8 -13 10 -14 11 -4 0 9 12 1 29 -18
16 -18 34 -30 40 -26 7 3 11 -2 11 -14 0 -23 15 -28 24 -9 3 8 19 -2 43 -29
39 -44 57 -54 47 -29 -4 11 0 13 15 9 12 -3 24 -9 27 -14 3 -5 12 -9 20 -9 8
0 12 4 9 10 -3 6 -2 10 4 10 5 0 13 -5 16 -10 4 -6 11 -8 16 -5 5 4 9 3 9 -2
0 -4 15 -14 33 -22 17 -8 47 -28 65 -44 33 -32 45 -28 15 5 -14 15 -14 18 -1
18 8 0 18 -3 22 -7 4 -4 34 -8 67 -9 39 -1 66 -8 78 -18 10 -9 24 -16 33 -16
8 0 18 -3 21 -7 14 -14 65 -13 71 2 7 19 30 19 46 0 10 -12 15 -13 21 -4 5 8
12 6 25 -9 10 -12 21 -17 24 -12 3 5 21 5 45 0 21 -5 51 -6 66 -3 16 3 43 0
60 -6 24 -8 34 -8 40 0 4 6 11 9 16 6 5 -4 61 -8 124 -11 63 -3 129 -9 147
-15 24 -7 32 -7 32 3 0 8 21 13 62 14 34 2 64 5 67 7 2 3 9 1 15 -4 17 -13 66
-23 66 -13 0 5 14 7 30 4 18 -3 30 0 30 7 0 18 57 12 97 -10 24 -13 39 -17 41
-10 2 6 27 11 55 12 29 0 75 4 102 8 30 5 57 5 68 -1 14 -7 24 -5 38 8 26 24
159 16 191 -12 12 -10 18 -13 13 -5 -6 11 -2 13 21 8 54 -12 189 -29 254 -32
36 -1 79 -8 95 -14 17 -7 54 -13 84 -12 29 0 62 -4 73 -10 14 -7 22 -6 34 6
32 31 53 37 87 21 17 -8 49 -17 69 -21 21 -3 73 -24 115 -47 43 -22 99 -51
124 -64 25 -12 64 -39 85 -59 21 -21 55 -45 74 -55 19 -10 46 -31 60 -47 59
-65 131 -163 129 -175 -1 -7 -1 -20 0 -28 1 -13 3 -13 10 -1 8 12 12 12 25 2
9 -8 16 -20 16 -27 0 -12 4 -12 20 -2 15 10 22 10 32 0 14 -14 32 -16 24 -3
-9 15 5 43 19 37 13 -5 13 2 -1 96 -4 27 -2 38 6 38 7 0 1 9 -14 21 -24 19
-36 51 -18 48 21 -4 23 3 8 26 -45 69 -68 118 -52 112 33 -13 14 15 -49 75
-50 46 -63 64 -54 74 8 10 1 19 -30 40 -41 27 -57 59 -23 47 9 -3 22 -10 28
-14 11 -9 24 -2 24 12 0 4 -18 14 -41 23 -24 10 -37 21 -33 27 4 7 -12 29 -38
53 -24 22 -47 49 -51 59 -4 9 -20 20 -37 23 -23 5 -28 9 -19 20 8 10 1 18 -30
36 -23 13 -48 37 -56 56 -14 28 -21 32 -56 32 -46 0 -79 14 -79 34 0 7 -8 20
-17 28 -22 20 -145 58 -185 58 -40 0 -87 26 -98 55 -11 30 -68 47 -154 46 -52
0 -74 6 -151 43 -79 39 -106 46 -215 61 -69 9 -139 23 -156 30 -44 21 -208 25
-266 8 -54 -15 -123 -4 -143 24 -10 13 -18 14 -46 5 -47 -15 -245 -2 -241 16
2 13 -10 16 -21 5 -22 -21 -207 0 -207 24 0 7 -4 13 -10 13 -5 0 -10 14 -10
30 l0 30 -98 0 c-63 0 -102 4 -110 12 -16 16 -15 28 3 28 8 0 15 5 15 10 0 6
-13 10 -29 10 -42 0 -61 9 -54 27 5 12 -3 14 -39 12 -24 -2 -49 1 -56 5 -21
13 -2 26 39 26 21 0 39 5 39 11 0 6 -22 10 -57 9 -92 -3 -105 -1 -97 11 3 6 0
16 -7 21 -10 7 0 8 29 5 64 -8 48 16 -17 26 -55 7 -81 23 -73 45 2 8 -9 12
-37 12 -47 0 -69 26 -51 59 16 30 12 41 -15 41 -13 0 -29 8 -34 18 -9 14 -12
15 -20 3 -14 -21 -34 -2 -27 25 5 19 2 24 -13 24 -21 0 -37 16 -43 45 -2 12
-11 19 -21 19 -14 -2 -15 1 -6 12 9 11 3 15 -30 20 -55 9 -63 24 -12 24 22 0
43 4 46 10 4 6 -17 10 -57 10 -62 0 -62 0 -38 17 14 9 27 18 29 19 2 2 -2 10
-9 19 -10 12 -16 13 -26 4 -11 -9 -14 -6 -14 19 0 21 -6 31 -19 35 -11 2 -21
15 -23 28 -2 18 -12 25 -40 32 -34 8 -37 11 -32 37 7 33 -6 43 -39 31 -19 -7
-28 -6 -37 5 -10 12 -7 14 19 14 36 0 40 10 10 28 -11 7 -18 19 -15 27 8 21
-21 40 -38 26 -19 -16 -58 7 -51 30 7 20 -20 45 -30 29 -5 -8 -11 -8 -21 1
-11 9 -11 15 -3 25 17 20 1 36 -31 29 -35 -8 -49 11 -24 30 16 12 17 16 5 24
-8 5 -20 7 -28 4 -7 -3 -21 -2 -30 2 -10 5 -26 7 -37 6 -17 -2 -17 -1 2 20 27
28 19 42 -21 35 -18 -3 -26 -3 -19 0 19 9 14 22 -15 38 -22 12 -24 15 -9 16
29 0 2 26 -36 34 -29 6 -30 7 -15 24 15 17 13 19 -46 36 -49 15 -58 20 -42 26
17 7 18 9 4 14 -9 4 -20 6 -25 4 -5 -1 -24 12 -43 30 -21 20 -48 34 -72 38
-33 6 -39 10 -33 26 4 14 0 21 -15 25 -12 3 -21 13 -21 23 0 10 -9 20 -20 23
-11 3 -20 9 -19 14 5 22 -15 43 -42 43 -15 0 -36 8 -46 18 -10 11 -27 22 -38
26 -19 8 -19 8 4 17 23 9 23 10 6 29 -9 10 -30 22 -46 25 -34 8 -69 48 -45 53
23 5 6 40 -23 47 -43 9 -94 44 -87 60 7 18 -13 57 -47 91 -15 15 -27 35 -27
44 0 10 -6 23 -14 29 -8 6 -16 20 -19 30 -3 14 0 17 19 13 29 -5 33 18 4 25
-11 3 -20 13 -20 22 0 10 -11 27 -25 39 -14 12 -25 29 -25 37 0 9 -8 14 -22
12 -20 -2 -23 2 -20 26 2 18 -3 29 -13 33 -9 4 -14 13 -11 20 3 8 -1 14 -8 14
-20 0 -63 54 -71 90 -4 17 -21 41 -40 56 -18 14 -38 38 -44 55 -5 16 -21 33
-35 38 -32 13 -43 31 -18 31 27 0 36 28 18 55 -16 24 -151 95 -181 95 -15 0
-16 3 -7 12 7 7 12 20 12 29 0 21 -65 73 -79 64 -6 -3 -16 3 -23 15 -7 11 -19
20 -27 20 -10 0 -12 10 -8 39 l5 40 -77 49 c-42 27 -82 57 -90 66 -7 9 -20 16
-27 16 -8 0 -14 3 -14 8 0 4 -14 16 -30 27 -30 20 -42 52 -16 42 8 -3 21 2 30
12 20 22 20 31 1 31 -8 0 -24 9 -35 20 -11 11 -25 20 -32 20 -7 0 -26 13 -42
30 -17 16 -48 46 -69 66 -20 19 -35 40 -32 45 12 19 -24 65 -62 78 -21 8 -50
22 -65 32 -14 11 -30 19 -35 19 -5 0 -23 14 -41 30 -39 35 -39 66 -2 64 28 -1
40 11 40 43 0 16 -5 20 -18 16 -10 -2 -24 3 -31 11 -8 9 -22 16 -32 16 -11 0
-19 6 -19 14 0 16 -24 28 -59 30 -30 2 -71 56 -42 56 8 0 -1 76 -10 84 -2 2
-20 12 -39 22 -19 11 -35 24 -35 30 0 13 -65 70 -65 57 0 -4 -5 0 -11 10 -5 9
-17 17 -26 17 -16 0 -50 19 -140 77 -28 18 -56 33 -62 33 -6 0 -11 5 -11 10 0
6 -8 10 -18 10 -10 0 -27 7 -38 15 -12 8 -24 12 -26 9 -3 -2 -11 2 -18 11 -7
8 -20 15 -29 15 -26 0 -102 40 -96 50 7 11 -33 31 -90 48 -156 45 -230 71
-227 81 2 10 -18 22 -50 31 -4 1 -37 12 -74 26 -58 21 -84 24 -193 23 -69 0
-147 -4 -173 -8 -48 -8 -54 -6 -40 16 10 15 86 32 124 28 23 -3 29 -1 26 13
-2 12 -15 18 -47 20 -40 3 -42 5 -37 28 7 25 6 25 -15 11 -17 -12 -26 -13 -40
-4 -13 8 -24 8 -43 -2 -22 -12 -39 -11 -126 8 -55 11 -115 21 -131 21 -36 0
-101 28 -94 40 9 15 -17 23 -68 22 -47 -1 -49 0 -43 24 6 23 5 24 -14 14 -22
-12 -168 -12 -210 0 l-25 7 25 6 c14 4 38 8 53 9 43 5 31 23 -13 21 -52 -2
-52 13 0 21 23 3 39 10 36 15 -6 9 -78 22 -133 25 -23 1 -32 6 -30 16 1 11 -6
14 -32 12 -22 -1 -38 3 -45 13 -6 9 -31 19 -54 22 -29 4 -53 15 -72 34 -16 16
-37 29 -47 29 -10 1 -29 7 -43 15 -24 14 -24 14 -3 15 12 0 24 4 27 8 7 12
-41 46 -84 60 -19 7 -53 23 -75 37 l-40 24 45 1 45 1 -32 28 c-18 15 -33 33
-33 39 0 7 -6 12 -14 12 -17 0 -104 48 -113 63 -4 6 0 8 10 4 9 -3 21 1 29 10
8 10 9 18 3 20 -35 11 -76 46 -71 58 3 9 -11 26 -40 46 -27 18 -43 36 -40 44
3 8 -22 37 -60 70 -61 54 -80 85 -51 85 7 0 18 -5 23 -10 8 -8 15 -6 25 6 12
15 11 18 -5 28 -11 6 -33 23 -50 38 -28 25 -29 27 -10 28 11 0 31 -11 44 -25
24 -25 40 -32 40 -17 0 5 -15 24 -32 43 -69 73 -72 77 -58 94 10 12 7 20 -14
46 -14 17 -26 37 -26 45 0 8 -7 26 -16 39 -13 20 -14 28 -4 40 11 13 14 13 26
-2 9 -12 16 -15 23 -8 7 7 0 23 -24 50 -19 21 -35 42 -35 46 0 3 -34 40 -75
82 -72 72 -88 97 -63 97 9 0 9 3 0 12 -7 7 -8 17 -2 29 8 14 3 23 -21 43 -17
14 -34 26 -39 26 -4 0 -10 9 -13 20 -4 18 -2 20 16 14 12 -4 27 -14 34 -23 39
-55 42 -57 43 -38 0 10 -20 45 -45 77 -25 32 -45 61 -45 64 0 3 -12 19 -27 35
-73 80 -89 121 -47 121 23 0 16 10 -51 70 -69 62 -100 98 -91 107 3 4 17 0 31
-7 41 -22 39 -4 -4 38 -23 22 -41 46 -41 54 0 16 -40 38 -70 38 -24 0 -24 1
-7 31 6 13 18 24 26 24 8 0 16 6 18 12 6 17 -38 33 -95 34 -26 0 -56 4 -66 8
-18 7 -16 9 13 19 22 8 31 17 29 28 -4 22 -21 30 -95 45 -41 7 -63 17 -63 25
0 8 11 14 26 14 33 0 27 24 -7 28 -121 14 -157 24 -167 48 -11 22 -10 24 17
24 16 0 46 -6 67 -14 41 -14 204 -32 204 -22 0 10 -53 32 -105 43 -150 34
-198 43 -280 55 l-90 12 65 8 c36 5 126 8 200 8 142 0 210 6 210 20 0 5 -8 11
-17 14 -47 13 -256 16 -419 5 -157 -10 -185 -10 -203 3 -20 14 -18 16 42 33
58 16 91 27 178 54 19 6 53 11 75 11 21 1 57 7 79 15 22 8 48 15 57 15 9 0 29
5 44 10 20 8 24 14 16 22 -8 8 -35 7 -99 -1 -175 -24 -187 -27 -433 -96 -30
-9 -71 -15 -90 -15 -19 1 -50 1 -69 0 l-35 0 23 24 c12 13 19 26 14 29 -12 7
-82 -19 -96 -36 -18 -21 -82 -57 -103 -57 -11 0 -15 4 -9 8 6 4 15 15 20 25 6
10 24 25 40 34 17 9 39 21 50 27 11 6 40 20 64 33 24 12 48 26 55 31 6 5 31
14 56 21 40 12 70 25 150 66 13 8 26 18 28 24 7 20 -41 10 -148 -31z"/>
<path d="M8168 5053 c7 -3 16 -2 19 1 4 3 -2 6 -13 5 -11 0 -14 -3 -6 -6z"/>
</g>
</svg>
