<?xml version="1.0" standalone="no"?>
<!DOCTYPE svg PUBLIC "-//W3C//DTD SVG 20010904//EN"
 "http://www.w3.org/TR/2001/REC-SVG-20010904/DTD/svg10.dtd">
<svg version="1.0" xmlns="http://www.w3.org/2000/svg"
 width="1011.000000pt" height="214.000000pt" viewBox="0 0 1011.000000 214.000000"
 preserveAspectRatio="xMidYMid meet">
<metadata>
Created by potrace 1.16, written by Peter Selinger 2001-2019
</metadata>
<g transform="translate(0.000000,214.000000) scale(0.100000,-0.100000)"
fill="#000000" stroke="none">
<path d="M6427 2095 c-49 -55 -86 -59 -147 -19 l-40 27 -40 -32 -39 -31 -45
25 c-25 14 -54 25 -66 25 -29 0 -79 -52 -87 -90 -5 -27 -9 -31 -27 -25 -59 18
-109 26 -152 23 -47 -3 -50 -5 -76 -53 -15 -27 -27 -57 -27 -66 -1 -21 -43
-33 -56 -16 -5 7 -41 28 -79 46 -83 40 -109 36 -131 -16 -9 -20 -27 -51 -40
-69 -14 -18 -25 -37 -25 -43 0 -18 -74 -12 -118 9 -51 25 -132 38 -132 22 0
-7 -13 -34 -30 -60 -16 -27 -30 -58 -30 -70 0 -15 -5 -19 -20 -15 -10 3 -25
11 -31 19 -6 8 -26 14 -43 14 -24 0 -42 -10 -76 -45 -40 -41 -46 -44 -65 -31
-11 7 -44 17 -73 21 -49 6 -54 5 -102 -30 -27 -20 -50 -41 -50 -46 0 -15 -19
-10 -50 13 -27 19 -33 20 -71 9 -23 -7 -51 -21 -62 -32 -25 -23 -56 -24 -83
-4 -27 21 -87 18 -139 -6 -45 -21 -65 -22 -166 -4 -26 5 -46 1 -75 -14 -48
-26 -65 -26 -132 -1 -67 26 -74 25 -110 -5 -35 -29 -69 -31 -135 -8 -45 16
-49 16 -76 0 -37 -22 -81 -22 -125 0 -35 16 -36 16 -60 -10 -20 -21 -34 -27
-68 -27 -24 1 -54 7 -68 15 -35 20 -63 18 -93 -5 -26 -21 -72 -27 -81 -11 -12
18 -75 22 -106 6 -16 -8 -30 -19 -30 -24 0 -21 -53 -21 -86 -2 l-35 21 -64
-35 c-38 -21 -66 -31 -70 -25 -10 16 -138 12 -161 -5 -27 -20 -57 -18 -99 6
-35 21 -37 21 -98 4 -92 -25 -117 -29 -117 -17 0 6 -16 16 -35 22 -28 9 -45 9
-83 -3 -81 -26 -132 -30 -159 -12 -17 11 -43 16 -82 14 -32 -1 -64 2 -71 6 -8
5 -57 12 -110 15 -81 6 -101 11 -135 34 -33 23 -47 26 -80 21 -35 -5 -44 -2
-65 20 -21 22 -29 24 -70 19 -34 -4 -56 -2 -79 11 -18 9 -40 14 -48 11 -8 -3
-26 3 -40 14 -16 12 -41 20 -64 20 -21 0 -41 5 -44 10 -3 6 -22 10 -42 10 -22
0 -41 6 -48 17 -9 12 -32 18 -78 21 -48 3 -71 9 -83 23 -13 15 -31 19 -79 19
-49 0 -66 4 -80 20 -10 11 -28 20 -41 20 -21 0 -37 5 -114 39 -38 16 -110 58
-128 74 -9 8 -31 22 -48 30 -18 9 -66 50 -108 92 -79 77 -113 95 -100 53 8
-28 23 -46 99 -121 52 -51 223 -177 241 -177 3 0 20 -10 37 -22 18 -13 47 -31
66 -41 19 -10 41 -25 48 -33 8 -8 30 -14 49 -14 23 0 52 -12 87 -35 28 -19 63
-35 77 -35 15 0 35 -7 46 -15 10 -8 35 -15 55 -15 20 0 42 -7 49 -15 7 -9 29
-15 51 -15 21 0 41 -4 44 -10 3 -5 26 -10 50 -10 24 0 47 -4 50 -10 3 -5 24
-10 47 -10 23 0 51 -8 66 -19 15 -10 50 -21 77 -25 28 -3 62 -15 76 -25 18
-13 41 -19 70 -18 24 1 56 -5 70 -13 114 -64 111 -63 150 -51 32 10 42 8 71
-8 27 -16 52 -19 139 -18 96 0 110 -2 163 -28 54 -26 62 -28 102 -17 65 17
112 15 150 -9 35 -21 86 -21 160 2 26 8 38 6 69 -12 35 -21 41 -22 89 -10 59
15 95 16 152 6 35 -6 47 -4 72 15 31 23 31 23 78 5 46 -17 47 -17 96 6 l49 23
43 -23 43 -24 39 27 c44 30 81 33 147 10 42 -14 48 -14 69 0 29 21 111 21 128
1 8 -9 30 -15 59 -15 36 0 49 5 59 21 12 18 20 20 75 15 34 -3 80 -8 102 -11
33 -6 44 -3 59 14 16 17 31 21 80 21 38 -1 68 -6 80 -15 26 -19 80 -19 96 0
15 18 125 21 136 4 4 -7 21 -8 48 -4 69 13 1235 17 1291 6 28 -6 106 -17 175
-25 211 -26 288 -59 358 -155 l22 -31 -20 -39 c-24 -47 -202 -264 -252 -306
-32 -27 -37 -37 -43 -97 -6 -52 -4 -74 9 -99 9 -18 16 -40 16 -50 0 -9 5 -19
12 -21 13 -5 26 -83 35 -205 3 -46 7 -83 10 -83 11 0 42 47 43 65 0 14 10 5
33 -30 17 -28 38 -57 45 -65 7 -8 22 -30 35 -49 12 -19 34 -43 49 -54 28 -21
136 -38 125 -20 -4 7 24 13 78 18 47 4 85 10 85 14 0 21 -40 41 -81 41 -69 0
-156 41 -197 92 -35 45 -82 136 -82 161 0 15 -24 80 -40 109 -19 34 -40 103
-40 135 0 24 7 37 33 54 17 13 77 60 133 105 123 99 164 127 280 194 l89 51
55 -10 c30 -5 89 -13 130 -16 77 -6 90 -13 90 -53 0 -13 8 -37 17 -55 13 -24
18 -72 23 -196 l7 -163 55 -52 c30 -28 66 -67 81 -86 36 -50 107 -195 107
-220 0 -27 21 -22 35 8 14 32 32 27 84 -25 97 -97 98 -98 187 -103 58 -4 80
-2 77 6 -6 15 88 25 105 12 19 -16 25 -3 10 21 -7 11 -26 23 -43 26 -73 14
-151 60 -275 161 -95 77 -236 217 -266 265 -28 46 -28 14 -8 329 l5 85 142 -3
c146 -2 291 -16 330 -32 12 -4 63 -14 112 -20 50 -7 128 -23 175 -36 140 -38
324 -62 498 -63 74 -1 102 -4 102 -13 0 -7 17 -47 39 -88 21 -41 41 -93 45
-115 4 -21 15 -53 23 -69 9 -16 21 -66 27 -110 9 -67 15 -83 32 -90 23 -11 84
-112 84 -142 1 -18 1 -18 15 0 15 19 15 19 15 -3 0 -35 37 -81 66 -81 26 0 31
9 13 27 -7 7 -11 34 -11 61 2 54 -27 120 -73 170 -14 15 -25 32 -25 38 0 6 -7
25 -15 42 -9 17 -22 55 -30 84 -17 61 -31 272 -21 311 8 33 37 49 102 57 l52
6 4 -96 c5 -98 14 -127 53 -170 12 -14 35 -47 50 -75 15 -27 31 -54 36 -59 5
-6 9 -15 9 -22 0 -15 77 -152 101 -179 10 -11 23 -50 29 -87 12 -67 29 -83 31
-30 2 27 2 27 6 2 2 -14 7 -32 10 -40 7 -17 10 -27 12 -39 1 -11 41 -22 41
-11 0 4 19 4 43 -1 57 -11 77 -11 77 1 0 6 -5 10 -10 10 -37 0 -110 78 -110
118 0 9 -9 28 -20 42 -11 14 -20 33 -20 43 0 9 -4 17 -10 17 -5 0 -13 12 -16
28 -4 15 -29 74 -57 132 -46 98 -61 137 -73 200 -3 14 -10 35 -16 46 -6 13 -7
41 -4 65 4 24 10 93 14 152 8 122 -6 100 135 207 42 32 98 76 125 98 26 22 77
65 113 95 54 46 218 147 237 147 3 0 14 8 25 18 16 15 50 18 246 24 233 6 342
18 367 39 22 18 17 26 -26 37 -22 5 -40 6 -40 1 0 -8 -26 -6 -89 7 -42 9 -9
24 62 29 37 2 67 0 67 -5 0 -18 39 -5 51 17 11 21 9 26 -27 57 -118 103 -211
177 -241 191 -99 47 -244 69 -406 60 -123 -6 -147 -14 -222 -71 -18 -13 -44
-24 -59 -24 -20 0 -29 -7 -37 -27 -13 -36 -25 -43 -75 -43 -29 0 -46 -6 -60
-21 -32 -37 -74 -49 -121 -36 -36 9 -45 8 -61 -6 -24 -22 -34 -21 -74 3 -35
21 -93 27 -103 10 -9 -15 -103 -12 -112 3 -20 34 -68 52 -150 58 -68 4 -87 9
-108 29 -42 39 -120 61 -192 54 -67 -7 -81 -2 -136 50 -34 31 -72 34 -87 6
-14 -26 -32 -25 -67 4 -35 29 -87 56 -108 56 -9 0 -19 -9 -22 -20 -7 -26 -19
-25 -38 4 -20 31 -78 61 -100 52 -12 -4 -16 -14 -13 -31 5 -22 2 -25 -24 -25
-20 0 -47 15 -85 45 -64 53 -96 56 -101 13 -5 -42 -37 -36 -87 18 -35 37 -48
45 -71 42 -23 -2 -30 -9 -32 -32 -3 -26 -6 -28 -34 -22 -16 3 -39 18 -51 32
-66 84 -117 87 -117 8 0 -20 -5 -24 -32 -24 -28 0 -37 7 -63 48 -36 57 -79 77
-101 47 -8 -10 -14 -34 -14 -52 0 -30 -3 -33 -28 -33 -17 0 -37 9 -48 21 -21
23 -98 79 -110 79 -4 0 -25 -20 -47 -45z"/>
</g>
</svg>
