<?xml version="1.0" standalone="no"?>
<!DOCTYPE svg PUBLIC "-//W3C//DTD SVG 20010904//EN"
 "http://www.w3.org/TR/2001/REC-SVG-20010904/DTD/svg10.dtd">
<svg version="1.0" xmlns="http://www.w3.org/2000/svg"
 width="1536.000000pt" height="463.000000pt" viewBox="0 0 1536.000000 463.000000"
 preserveAspectRatio="xMidYMid meet">
<metadata>
Created by potrace 1.16, written by Peter Selinger 2001-2019
</metadata>
<g transform="translate(0.000000,463.000000) scale(0.100000,-0.100000)"
fill="#000000" stroke="none">
<path d="M755 4623 c-11 -2 -64 -15 -117 -29 -53 -13 -123 -24 -155 -24 -77 0
-128 -15 -152 -45 -10 -14 -36 -68 -56 -120 -44 -113 -65 -140 -150 -194 -89
-56 -119 -105 -120 -191 0 -65 0 -65 29 -68 71 -8 114 8 210 79 97 71 115 79
135 55 23 -27 -65 -120 -202 -213 -39 -27 -67 -54 -67 -64 0 -26 55 -79 83
-79 15 0 48 21 91 59 37 33 90 68 119 79 29 12 106 42 172 68 107 42 130 48
217 52 111 5 196 -11 353 -65 152 -53 228 -91 407 -205 397 -253 598 -344
1073 -488 406 -122 554 -200 617 -324 18 -36 20 -52 14 -141 -3 -55 -13 -127
-21 -160 -37 -149 -9 -243 107 -357 78 -77 178 -139 261 -163 31 -9 57 -19 57
-21 0 -66 101 -532 148 -684 34 -107 40 -144 46 -255 4 -71 16 -179 27 -240
27 -155 49 -363 49 -477 0 -54 5 -128 12 -166 11 -66 11 -69 -15 -107 -32 -46
-38 -119 -11 -129 9 -3 91 -6 184 -6 140 0 171 3 184 16 21 20 20 31 -6 93
-19 48 -20 58 -9 117 9 51 9 79 -1 127 -16 81 -15 380 1 482 7 44 25 118 39
165 24 77 26 100 27 255 0 94 -4 252 -9 353 -5 100 -6 182 -2 182 4 0 52 -13
107 -30 119 -35 339 -81 539 -112 129 -20 184 -22 502 -22 l358 -1 5 -40 c2
-22 12 -105 21 -185 28 -258 34 -279 165 -575 l54 -120 3 -125 c6 -185 -15
-238 -116 -297 -41 -24 -57 -27 -161 -31 -64 -2 -129 -8 -144 -14 -38 -15
-105 -93 -118 -139 -15 -48 -5 -89 21 -89 11 0 20 4 20 10 0 6 10 5 26 -2 20
-10 27 -9 34 2 7 12 11 12 26 -1 15 -12 18 -11 31 8 12 18 19 21 34 12 10 -5
19 -16 19 -24 0 -13 49 -15 373 -13 l372 3 3 180 c2 122 -2 229 -13 332 -11
90 -15 181 -11 225 3 40 10 178 15 306 l9 234 39 76 c144 284 173 343 189 388
l18 51 83 27 c45 15 232 101 414 191 445 221 539 256 884 330 271 58 343 65
1091 115 94 6 468 13 830 15 767 4 1082 17 1719 75 604 54 1584 98 1920 86
321 -12 483 -46 685 -142 234 -112 449 -265 642 -457 105 -105 178 -198 263
-339 55 -91 85 -120 85 -83 0 21 -62 142 -122 240 -142 228 -426 486 -743 675
-161 95 -303 163 -427 204 -95 32 -368 86 -431 86 -22 0 -27 5 -27 24 0 14 -4
27 -9 30 -4 3 -62 -4 -127 -15 -100 -18 -141 -20 -254 -14 -121 6 -137 9 -163
31 l-28 23 -56 -21 c-50 -18 -71 -20 -207 -16 -120 4 -157 8 -177 22 -25 16
-31 16 -115 -3 -49 -10 -149 -22 -221 -25 l-133 -6 -48 30 c-58 36 -64 36
-161 9 -60 -17 -95 -20 -176 -17 -95 3 -104 5 -154 37 l-53 34 -79 -23 c-71
-20 -92 -22 -194 -16 -134 9 -165 16 -204 49 l-29 24 -123 -14 c-113 -13 -210
-12 -296 4 -22 3 -33 11 -33 23 0 15 -20 17 -217 23 -168 5 -253 12 -372 32
-179 31 -186 33 -229 74 l-33 32 -132 -2 c-146 -2 -227 14 -452 89 -104 34
-113 39 -180 104 -38 37 -76 68 -85 68 -8 0 -51 -7 -95 -16 l-80 -17 -150 47
c-82 26 -256 81 -385 121 -434 137 -510 156 -800 195 -85 12 -262 39 -394 61
-292 49 -611 86 -817 95 -204 8 -710 -11 -984 -37 -552 -53 -1676 -26 -2140
52 -301 50 -554 108 -690 158 -271 99 -463 185 -850 381 -309 156 -390 181
-594 179 -64 -1 -125 -3 -136 -6z"/>
</g>
</svg>
