<?xml version="1.0" standalone="no"?>
<!DOCTYPE svg PUBLIC "-//W3C//DTD SVG 20010904//EN"
 "http://www.w3.org/TR/2001/REC-SVG-20010904/DTD/svg10.dtd">
<svg version="1.0" xmlns="http://www.w3.org/2000/svg"
 width="1536.000000pt" height="772.000000pt" viewBox="0 0 1536.000000 772.000000"
 preserveAspectRatio="xMidYMid meet">
<metadata>
Created by potrace 1.16, written by Peter Selinger 2001-2019
</metadata>
<g transform="translate(0.000000,772.000000) scale(0.100000,-0.100000)"
fill="#000000" stroke="none">
<path d="M719 7691 c-39 -25 -93 -78 -198 -198 -67 -76 -44 -1 42 135 22 35
37 65 34 68 -6 7 -52 -61 -101 -148 -27 -49 -43 -68 -57 -68 -24 0 -22 10 22
107 15 35 24 63 19 63 -8 0 -50 -81 -78 -152 -6 -15 -24 -35 -39 -44 -109 -69
-191 -125 -209 -145 -19 -21 -61 -95 -131 -228 -44 -85 -27 -207 39 -268 38
-35 71 -43 226 -49 167 -7 194 -16 312 -104 108 -80 141 -90 330 -100 185 -10
201 -14 357 -94 224 -115 411 -247 591 -421 137 -131 236 -246 442 -510 85
-110 205 -251 266 -315 147 -153 365 -396 494 -550 147 -176 273 -298 589
-568 152 -130 327 -286 390 -347 261 -254 513 -589 536 -715 3 -20 -1 -86 -9
-148 -18 -130 -20 -269 -5 -362 12 -75 81 -227 157 -346 97 -151 94 -139 105
-485 l10 -306 -71 -99 c-89 -124 -127 -201 -187 -384 -26 -80 -61 -179 -77
-220 -24 -59 -32 -99 -38 -190 -7 -96 -13 -126 -39 -183 -49 -109 -39 -163 36
-185 21 -6 87 -18 148 -28 105 -16 112 -16 162 1 43 15 58 16 78 7 54 -25 95
-4 95 47 0 41 -26 108 -55 143 -43 51 -47 44 162 368 62 96 144 213 181 258
149 185 167 221 202 394 30 149 28 143 52 121 11 -10 34 -38 52 -63 l33 -45
11 -215 c8 -148 18 -243 32 -305 38 -161 51 -248 56 -370 7 -142 -4 -174 -75
-215 -24 -14 -53 -37 -64 -52 -20 -27 -20 -28 -2 -48 23 -25 118 -55 220 -69
101 -14 288 -15 313 -2 11 6 27 29 36 51 13 34 15 71 10 252 -7 243 5 369 57
633 42 208 43 310 6 494 -15 74 -25 136 -22 139 3 4 34 -2 68 -11 171 -49 377
-76 567 -77 47 0 91 -4 99 -9 11 -7 7 -29 -22 -117 -20 -60 -39 -128 -42 -151
-16 -101 41 -323 145 -567 98 -230 97 -217 12 -298 -39 -36 -102 -83 -141
-103 -122 -64 -213 -187 -165 -222 10 -7 27 -13 38 -13 12 0 39 -7 61 -15 22
-8 66 -14 98 -15 34 0 71 -7 90 -17 28 -14 42 -15 117 -4 47 6 144 16 215 21
233 18 288 39 313 120 20 67 8 200 -35 370 -35 143 -36 147 -29 288 8 163 23
303 35 315 5 5 37 -24 72 -64 111 -124 240 -223 451 -345 321 -185 429 -291
374 -367 -66 -90 -70 -100 -74 -162 -5 -77 15 -125 53 -125 15 0 29 9 36 22
11 21 12 21 25 -10 14 -33 32 -39 65 -22 16 9 21 7 29 -15 13 -33 33 -32 64 5
25 30 25 30 39 9 10 -13 23 -19 38 -17 18 2 31 25 71 118 115 268 136 379 86
455 -31 48 -101 115 -183 177 -84 63 -236 206 -259 243 -10 16 -55 95 -98 175
-44 80 -114 196 -155 258 -86 128 -87 123 17 146 257 59 469 79 755 71 147 -4
294 -3 380 4 77 6 370 18 650 26 515 15 729 30 975 66 245 35 314 50 440 90
266 86 532 141 1130 235 430 67 577 76 855 50 228 -22 389 -47 585 -92 183
-43 289 -78 312 -105 10 -12 29 -19 50 -19 47 0 237 -85 339 -151 112 -74 204
-161 292 -278 141 -187 214 -325 271 -514 26 -85 57 -134 76 -122 13 8 13 143
0 222 -34 207 -148 467 -282 641 -55 71 -179 195 -249 249 -201 154 -420 250
-885 388 -378 112 -548 135 -989 135 -415 0 -549 -11 -857 -64 -513 -90 -651
-106 -1093 -127 -298 -14 -833 -6 -1001 15 -181 23 -365 61 -557 116 -247 70
-363 112 -526 192 l-143 71 43 21 c63 30 63 51 -3 71 -29 9 -89 21 -133 26
-172 22 -185 34 -73 64 107 29 121 43 71 69 -49 24 -135 37 -249 37 -99 -1
-115 2 -144 22 -19 12 -35 27 -37 33 -2 6 47 37 108 70 108 57 142 84 125 101
-16 16 -248 8 -333 -11 l-81 -19 -76 48 c-91 56 -119 84 -160 154 -43 76 -88
98 -161 82 -68 -15 -92 -2 -123 67 -12 26 -36 62 -54 79 -29 28 -43 33 -120
42 -104 12 -146 31 -153 69 -19 94 -44 114 -147 117 -69 1 -79 5 -203 69 -113
60 -131 73 -146 105 -19 43 -79 98 -116 107 -17 5 -51 -1 -95 -16 -59 -20 -71
-21 -100 -10 -48 19 -67 38 -80 81 -23 78 -98 117 -187 98 -105 -21 -107 -21
-149 0 -31 16 -46 32 -61 66 -26 59 -78 84 -170 85 -59 0 -74 5 -170 56 -58
31 -126 71 -151 89 -25 18 -119 77 -210 132 -264 159 -388 240 -495 322 -55
43 -167 124 -250 181 -82 57 -215 151 -295 209 -80 57 -221 159 -315 224 -93
66 -231 167 -305 225 -74 58 -214 168 -310 243 -171 133 -443 329 -749 537
-83 57 -215 152 -294 210 -191 144 -326 224 -617 369 -240 119 -244 122 -197
122 84 1 41 19 -65 26 -93 7 -100 9 -74 20 42 18 16 28 -52 22 -39 -4 -47 -3
-27 2 17 5 58 9 92 10 75 1 91 16 25 24 -52 6 -246 -8 -264 -19 -7 -4 -8 -3
-4 4 10 17 160 62 227 69 33 3 59 10 59 16 0 27 -241 -27 -305 -69 -13 -9 -32
-14 -42 -12 -12 3 0 13 40 32 31 16 57 32 57 37 0 13 1 13 -91 -26 -88 -38
-111 -40 -55 -5 57 35 41 45 -18 11 -29 -17 -60 -31 -67 -31 -21 0 37 33 111
63 61 25 63 26 30 27 -32 0 -104 -30 -190 -80 -39 -23 -94 -27 -88 -7 4 14
132 79 239 121 40 16 68 31 61 34 -31 10 -196 -59 -322 -135 l-45 -27 25 28
c31 35 179 134 254 171 63 31 68 43 9 25 -56 -18 -167 -85 -237 -144 -33 -29
-68 -56 -76 -60 -19 -10 128 134 195 192 l50 43 -45 -23 c-25 -13 -92 -69
-149 -125 -57 -57 -107 -103 -112 -103 -30 0 25 71 138 177 49 46 86 83 82 83
-3 0 -25 -13 -50 -29z m-264 -671 c0 -22 -152 -128 -210 -146 -27 -8 -72 -17
-100 -20 l-50 -5 61 33 c33 19 88 56 122 82 86 67 177 96 177 56z m325 -87
c339 -150 468 -219 645 -348 55 -39 132 -88 170 -109 75 -39 137 -83 100 -71
-11 3 -130 64 -265 135 -135 70 -270 135 -300 143 -30 9 -100 20 -155 25 -55
6 -113 16 -130 23 -16 7 -43 13 -60 14 -23 0 -30 5 -30 20 0 16 -7 20 -30 18
-17 -2 -66 13 -110 32 -44 18 -102 39 -130 46 -27 6 -54 15 -59 20 -5 4 18 21
50 37 33 17 70 42 84 57 32 35 56 30 220 -42z m1502 -918 c199 -109 637 -492
903 -790 205 -230 517 -548 754 -769 108 -101 309 -294 448 -429 138 -135 283
-270 320 -300 80 -63 122 -109 174 -190 35 -54 57 -112 46 -123 -12 -12 -183
62 -236 102 -82 62 -382 377 -710 747 -52 58 -118 127 -148 152 -101 87 -965
980 -1005 1037 -23 35 -84 96 -155 155 -189 159 -290 249 -423 376 -101 97
-116 115 -80 95 25 -14 75 -42 112 -63z m10660 -3573 c6 -6 -36 -88 -58 -111
-6 -6 -208 -30 -258 -31 -38 0 -38 0 -22 23 9 12 26 41 37 64 11 23 25 46 32
50 32 20 250 24 269 5z m476 -13 c45 -6 85 -16 88 -20 3 -5 -17 -37 -44 -72
-27 -34 -57 -77 -66 -95 l-17 -33 -122 3 c-118 3 -122 4 -125 26 -6 37 44 78
105 85 65 7 102 25 82 38 -8 5 -29 9 -48 9 l-33 0 17 28 c23 36 42 51 63 47 9
-2 54 -9 100 -16z m-1148 -36 c0 -23 -18 -135 -22 -139 -4 -3 -360 -64 -377
-64 -35 0 10 136 53 159 24 13 258 58 314 60 24 1 32 -3 32 -16z m-6776 -75
c47 -167 51 -313 11 -438 -61 -192 -263 -622 -265 -564 0 12 36 156 70 277 13
45 23 118 27 197 6 123 6 126 40 173 20 26 41 68 49 93 10 35 34 246 34 305 0
5 4 9 10 9 5 0 16 -24 24 -52z m8486 -19 c44 -17 82 -34 85 -39 11 -18 -26
-39 -58 -34 -123 22 -233 46 -240 53 -4 5 -1 24 9 43 l16 35 54 -14 c30 -7 90
-27 134 -44z m-7537 -88 c16 -6 47 -11 70 -11 43 -1 60 -8 115 -49 47 -36 40
-45 -28 -38 -77 7 -126 36 -210 124 -36 37 -45 49 -20 26 25 -23 58 -47 73
-52z m5097 50 c0 -47 -50 -126 -95 -153 -28 -16 -199 -68 -275 -83 -33 -7 -33
-6 27 44 72 60 105 100 131 161 l19 45 94 11 c52 6 95 12 97 13 1 0 2 -16 2
-38z m1280 14 c0 -5 -39 -86 -45 -93 -3 -4 -238 -42 -262 -42 -28 0 -31 34 -8
67 20 28 62 41 182 58 117 15 133 17 133 10z m1053 -66 c67 -17 126 -34 131
-39 6 -6 3 -17 -8 -29 -20 -22 -13 -22 -161 5 -134 25 -125 20 -125 59 0 44 4
44 163 4z m-1653 -20 c0 -22 -54 -101 -74 -109 -30 -11 -274 -50 -314 -50 -39
0 -40 7 -4 56 41 57 48 60 142 78 184 36 250 42 250 25z m2375 -123 c56 -30
100 -60 100 -68 0 -8 -17 -34 -38 -58 l-39 -42 -91 37 c-51 21 -101 46 -112
56 -19 19 -19 19 1 39 17 18 24 19 53 9 22 -8 36 -8 43 -1 10 10 3 19 -36 46
-19 13 -15 36 7 36 7 0 57 -24 112 -54z m-3160 -43 c-3 -16 -9 -31 -13 -35 -6
-5 -296 -68 -316 -68 -3 0 -6 6 -6 13 0 18 46 37 190 80 147 45 154 45 145 10z
m3661 -418 c67 -105 73 -125 49 -145 -24 -20 -40 -6 -115 96 l-72 96 28 29
c15 16 32 28 37 26 5 -1 38 -48 73 -102z m184 -412 c0 -10 3 -29 6 -43 l5 -25
-15 25 c-18 29 -21 60 -6 60 6 0 10 -8 10 -17z m-6876 -248 c40 -49 92 -118
116 -153 25 -35 66 -93 93 -129 57 -79 59 -109 17 -193 -36 -72 -39 -112 -8
-132 20 -13 21 -17 9 -46 -21 -51 -38 -39 -66 50 -21 66 -26 105 -29 212 -4
174 -1 167 -206 451 -20 28 -46 66 -59 85 -20 31 -18 30 19 -10 23 -25 75 -85
114 -135z m-978 -311 c7 -82 18 -173 24 -203 20 -110 5 -221 -34 -246 -11 -7
-45 -18 -75 -23 l-54 -10 5 102 c5 89 10 110 37 164 30 59 31 68 25 135 -4 53
-2 89 11 137 18 68 33 105 42 97 2 -3 11 -72 19 -153z m-1466 1 c-7 -55 -16
-109 -21 -120 l-8 -20 0 20 c-1 36 18 214 26 242 l7 28 4 -25 c3 -14 -1 -70
-8 -125z m-1030 96 c-5 -11 -15 -23 -21 -27 -6 -3 -3 5 6 20 20 30 30 35 15 7z
m-251 -324 c-32 -63 -65 -119 -72 -126 -16 -13 -125 -37 -133 -28 -3 3 11 37
31 77 26 51 46 77 71 92 20 12 61 38 92 59 31 22 60 39 63 39 3 0 -20 -51 -52
-113z m1210 -75 c-36 -106 -75 -146 -161 -167 -26 -7 -28 -5 -28 22 0 16 10
49 23 73 19 39 29 47 72 60 66 20 92 36 100 61 4 11 9 19 11 16 2 -2 -5 -31
-17 -65z m2791 -82 c-6 -11 -15 -20 -21 -20 -6 0 -6 7 1 20 6 11 15 20 21 20
6 0 6 -7 -1 -20z m140 8 c-1 -7 -7 -24 -15 -38 -15 -26 -19 -12 -9 28 7 23 24
31 24 10z m-77 -28 c-6 -23 -33 -49 -33 -31 0 14 23 51 31 51 4 0 5 -9 2 -20z"/>
</g>
</svg>
