<?xml version="1.0" standalone="no"?>
<!DOCTYPE svg PUBLIC "-//W3C//DTD SVG 20010904//EN"
 "http://www.w3.org/TR/2001/REC-SVG-20010904/DTD/svg10.dtd">
<svg version="1.0" xmlns="http://www.w3.org/2000/svg"
 width="1840.000000pt" height="634.000000pt" viewBox="0 0 1840.000000 634.000000"
 preserveAspectRatio="xMidYMid meet">
<metadata>
Created by potrace 1.16, written by Peter Selinger 2001-2019
</metadata>
<g transform="translate(0.000000,634.000000) scale(0.100000,-0.100000)"
fill="#000000" stroke="none">
<path d="M2150 6333 c-108 -18 -249 -84 -495 -233 -33 -20 -80 -44 -105 -55
-25 -11 -61 -29 -80 -41 -20 -12 -50 -25 -69 -29 -28 -6 -38 -3 -64 22 -53 50
-79 63 -124 63 -46 0 -61 -14 -116 -111 -27 -48 -102 -123 -140 -139 -12 -6
-29 -14 -37 -19 -23 -15 -54 -24 -68 -22 -8 1 -20 -3 -28 -10 -9 -7 -32 -10
-62 -6 -37 4 -55 1 -77 -13 -15 -10 -33 -16 -40 -14 -6 3 -19 -4 -30 -15 -11
-14 -25 -19 -39 -15 -15 3 -30 -4 -50 -25 -24 -25 -32 -28 -49 -20 -16 9 -25
5 -51 -20 -20 -20 -42 -31 -60 -31 -19 0 -29 -6 -33 -20 -4 -14 -14 -20 -34
-20 -19 0 -34 -8 -44 -24 -9 -13 -42 -40 -75 -60 -77 -48 -136 -116 -155 -179
-19 -63 -19 -95 0 -194 12 -61 20 -82 40 -99 26 -20 124 -43 215 -48 24 -2 46
-8 48 -15 5 -14 32 -15 32 -1 0 13 146 13 170 0 14 -7 21 -6 27 4 10 17 134
39 147 26 16 -16 46 -12 40 4 -7 18 67 41 102 32 17 -5 24 -2 24 8 0 14 29 26
65 26 11 0 25 8 32 18 15 25 261 136 343 155 128 30 145 30 181 0 41 -35 69
-96 69 -155 0 -38 -6 -54 -32 -86 -49 -61 -126 -157 -191 -239 -32 -41 -69
-78 -83 -83 -13 -5 -23 -15 -22 -21 2 -6 -6 -16 -16 -22 -11 -7 -28 -20 -38
-29 -10 -10 -27 -18 -39 -18 -11 0 -23 -8 -26 -17 -5 -21 -86 -83 -107 -83 -7
0 -16 -7 -20 -15 -3 -8 -11 -15 -18 -15 -8 0 -22 -9 -31 -21 -18 -20 -19 -20
-32 -2 -14 17 -14 17 -15 -3 0 -23 -23 -48 -33 -38 -3 4 -14 -1 -23 -10 -9 -9
-21 -15 -27 -13 -6 2 -19 -5 -29 -15 -10 -10 -25 -18 -33 -18 -9 0 -27 -8 -42
-17 -24 -16 -26 -16 -39 1 -15 21 -34 13 -34 -15 0 -25 -27 -25 -35 2 -9 27
-29 19 -33 -15 -3 -21 -7 -26 -23 -21 -11 4 -19 2 -19 -4 0 -6 -16 -19 -35
-28 -50 -24 -47 -53 12 -111 60 -59 128 -93 202 -99 56 -5 64 -3 222 70 281
129 344 155 532 217 284 95 342 108 612 135 187 19 360 54 491 98 l102 34 59
-37 c32 -21 122 -72 199 -113 76 -41 164 -89 194 -107 151 -90 380 -184 557
-230 40 -10 42 -12 48 -58 33 -241 102 -308 455 -440 74 -28 187 -66 250 -85
l115 -35 8 -54 c4 -29 5 -82 2 -118 -4 -47 -1 -78 10 -110 14 -39 21 -109 27
-295 1 -16 -2 -58 -7 -91 -6 -50 -5 -66 9 -85 12 -18 16 -47 16 -116 0 -51 4
-93 9 -93 11 0 45 89 55 143 4 21 16 52 26 69 16 27 18 44 13 113 -3 45 -3
103 1 128 l7 46 51 -56 c28 -31 61 -80 74 -110 19 -41 32 -57 57 -68 24 -10
53 -43 107 -121 41 -59 76 -102 78 -96 5 17 -35 147 -64 204 -13 26 -24 61
-24 77 0 23 -13 43 -54 84 -38 37 -67 80 -97 143 -42 87 -43 91 -47 212 -3 75
-1 122 5 122 6 0 86 -20 178 -45 452 -121 1218 -283 1572 -333 l111 -16 17
-65 c37 -137 91 -240 267 -504 183 -273 293 -488 354 -690 27 -86 27 -87 8
-329 -5 -62 -2 -91 15 -147 23 -77 26 -110 11 -173 -5 -24 -21 -104 -35 -178
-38 -197 -70 -303 -122 -408 -41 -83 -53 -98 -108 -138 -72 -51 -123 -74 -163
-74 -16 0 -55 -9 -87 -20 -35 -12 -85 -20 -124 -20 -36 0 -83 -5 -105 -9 -24
-6 -61 -6 -98 1 -66 12 -120 1 -199 -38 -48 -24 -103 -78 -114 -114 -10 -31
-2 -34 42 -12 21 11 56 24 77 27 34 7 38 6 32 -11 -7 -23 -1 -32 41 -62 l32
-22 580 0 579 0 26 31 c31 37 33 70 7 160 -25 88 -36 185 -22 193 7 4 11 42
11 92 0 95 2 96 66 62 41 -21 42 -21 88 -4 61 23 60 44 -1 48 -46 3 -47 4 -55
41 -8 39 -28 77 -61 114 -14 16 -18 32 -15 60 6 46 125 367 164 443 41 77 40
159 -3 300 -38 125 -118 458 -133 550 -16 104 -12 348 8 469 22 137 20 300 -6
400 l-19 74 106 166 106 166 205 63 c113 34 354 108 535 163 182 55 341 109
355 120 14 11 48 31 77 45 56 27 36 24 513 59 920 68 1701 200 2655 450 514
135 824 192 1370 254 420 48 1168 69 1465 42 249 -23 624 -89 895 -157 524
-131 1112 -374 1647 -680 239 -137 558 -347 685 -451 120 -98 155 -123 164
-117 16 10 10 22 -50 96 -80 100 -209 230 -311 315 -340 280 -900 630 -1250
783 -41 18 -104 46 -140 63 -361 165 -807 323 -1180 417 -341 86 -996 184
-1480 222 -249 19 -1053 17 -1435 -5 -455 -25 -1161 -24 -1509 3 -745 58
-1067 112 -2061 345 -1436 336 -1491 347 -1940 365 -132 6 -292 17 -355 26
-362 48 -366 48 -750 48 -296 0 -405 -4 -520 -18 -160 -19 -613 -95 -930 -155
-278 -53 -373 -65 -525 -65 -184 -1 -313 32 -474 120 -76 42 -128 82 -226 174
-294 280 -471 382 -751 436 -70 13 -291 18 -354 7z"/>
</g>
</svg>
