<?xml version="1.0" standalone="no"?>
<!DOCTYPE svg PUBLIC "-//W3C//DTD SVG 20010904//EN"
 "http://www.w3.org/TR/2001/REC-SVG-20010904/DTD/svg10.dtd">
<svg version="1.0" xmlns="http://www.w3.org/2000/svg"
 width="4438.000000pt" height="1329.000000pt" viewBox="0 0 4438.000000 1329.000000"
 preserveAspectRatio="xMidYMid meet">
<metadata>
Created by potrace 1.16, written by Peter Selinger 2001-2019
</metadata>
<g transform="translate(0.000000,1329.000000) scale(0.100000,-0.100000)"
fill="#000000" stroke="none">
<path d="M23085 13261 c-3 -2 -114 -5 -247 -7 -236 -3 -356 -9 -388 -19 -22
-6 -327 -15 -660 -19 -239 -3 -290 -6 -315 -20 -16 -8 -31 -12 -33 -8 -4 13
-487 1 -552 -14 -36 -8 -226 -7 -239 1 -6 3 -11 -1 -11 -11 0 -12 -3 -14 -13
-6 -14 12 -203 14 -222 3 -16 -9 -87 -11 -515 -16 -223 -2 -434 -5 -470 -6
-36 0 -78 -1 -95 -1 -16 1 -57 1 -90 1 -33 0 -62 0 -65 1 -3 2 -9 1 -15 0 -16
-4 -462 -9 -775 -9 -157 0 -316 -1 -355 -2 -38 -1 -135 -2 -215 -1 -126 1
-414 1 -520 0 -56 0 -449 13 -515 18 -113 7 -125 9 -125 14 0 3 -57 6 -128 8
-70 1 -167 4 -217 7 -132 6 -665 6 -676 -1 -5 -3 -9 0 -9 6 0 7 -14 10 -34 9
-19 -2 -37 -1 -40 2 -3 3 -31 2 -63 -1 -32 -3 -130 -4 -218 -3 -393 5 -797 14
-875 19 -47 3 -206 6 -355 6 -148 0 -281 0 -295 0 -14 1 -59 0 -100 -1 -41 -1
-168 -1 -282 -2 -114 0 -210 -4 -213 -9 -3 -4 -22 -6 -42 -4 -140 16 -683 9
-933 -11 -25 -2 -173 -9 -329 -15 -157 -6 -287 -13 -291 -15 -3 -2 -59 -6
-125 -9 -224 -12 -449 -25 -520 -32 -22 -2 -80 -6 -130 -9 -49 -3 -108 -8
-130 -10 -22 -3 -112 -12 -200 -20 -88 -8 -209 -22 -270 -30 -60 -9 -153 -20
-205 -25 -193 -18 -316 -31 -340 -35 -14 -2 -110 -15 -215 -29 -104 -14 -237
-32 -295 -40 -58 -9 -175 -25 -260 -36 -85 -11 -276 -40 -425 -65 -148 -25
-313 -53 -365 -61 -182 -28 -385 -65 -415 -74 -16 -5 -79 -19 -140 -30 -257
-47 -540 -110 -790 -175 -77 -20 -176 -45 -220 -56 -93 -23 -199 -52 -305 -84
-41 -13 -115 -35 -165 -50 -49 -15 -115 -36 -145 -47 -80 -30 -291 -105 -400
-143 -52 -19 -129 -48 -170 -65 -41 -17 -102 -40 -135 -51 -33 -11 -73 -26
-90 -33 -16 -7 -57 -22 -90 -34 -66 -23 -222 -85 -272 -108 -17 -8 -34 -14
-38 -14 -4 0 -21 -6 -38 -14 -18 -7 -72 -31 -122 -51 -91 -38 -182 -79 -310
-139 -38 -19 -99 -46 -135 -61 -67 -29 -233 -108 -260 -124 -8 -5 -127 -65
-265 -133 -137 -67 -288 -143 -335 -169 -47 -25 -177 -94 -290 -154 -316 -168
-438 -233 -570 -307 -30 -17 -76 -41 -102 -55 -26 -13 -50 -28 -53 -33 -4 -6
-23 -18 -43 -29 -78 -39 -294 -171 -372 -228 -25 -18 -65 -44 -90 -58 -56 -31
-137 -84 -229 -150 -221 -157 -343 -245 -391 -282 -30 -23 -83 -63 -117 -88
-34 -25 -91 -72 -127 -103 -69 -60 -79 -69 -191 -160 -98 -79 -223 -191 -261
-232 -18 -19 -50 -48 -73 -65 -22 -16 -41 -34 -41 -40 -1 -5 -22 -27 -48 -49
-60 -50 -159 -169 -182 -221 -28 -65 -32 -136 -9 -174 11 -18 23 -30 28 -27 5
3 11 -1 15 -9 11 -30 47 -14 119 52 109 101 169 151 309 254 221 164 319 228
498 326 127 69 156 87 184 110 16 13 56 38 90 55 34 17 80 44 104 60 23 16 57
34 75 40 17 6 43 19 57 28 14 9 54 31 90 49 206 105 363 183 425 211 39 18
124 58 190 90 66 32 176 81 245 110 69 29 141 60 160 70 19 11 80 37 135 60
55 22 109 45 120 49 11 5 40 16 65 26 25 9 52 21 60 26 8 5 22 12 30 15 8 3
27 12 42 20 14 8 32 14 39 14 7 0 31 8 53 18 23 10 68 29 101 41 33 13 78 31
100 41 50 23 165 67 225 87 68 22 212 73 235 83 11 5 38 14 60 21 22 6 54 19
70 27 17 9 34 15 39 14 4 -2 13 2 20 7 6 5 43 18 81 29 39 11 88 27 110 36 22
9 56 21 75 26 19 5 67 19 105 33 145 51 356 115 530 161 55 15 129 36 165 47
62 18 127 34 270 64 36 8 106 24 155 35 50 12 122 28 160 35 73 15 106 23 215
50 36 8 83 18 105 21 22 3 63 11 92 19 28 8 62 15 76 15 14 0 28 4 32 10 3 5
18 9 33 9 15 0 52 4 82 10 69 13 268 51 295 56 95 20 234 40 515 74 96 12 182
23 190 26 19 5 324 32 450 40 141 8 233 15 350 25 135 12 741 25 1170 25 434
0 996 -24 1316 -55 55 -6 136 -12 180 -15 43 -2 90 -7 104 -10 14 -2 61 -7
105 -10 44 -3 152 -12 240 -20 192 -17 245 -22 440 -34 83 -6 186 -15 230 -20
44 -6 98 -12 120 -15 22 -2 58 -7 80 -10 41 -6 181 -23 247 -31 21 -2 53 -7
70 -10 18 -3 67 -7 108 -10 89 -6 205 -21 217 -28 4 -3 37 -8 73 -11 36 -4 77
-9 90 -12 14 -2 81 -11 150 -19 69 -7 166 -20 215 -29 50 -8 140 -22 200 -31
61 -9 153 -23 205 -32 52 -8 110 -17 129 -19 51 -5 166 -23 251 -38 212 -38
509 -89 535 -92 42 -4 131 -20 185 -33 65 -15 112 -24 135 -26 11 -1 54 -9 95
-18 96 -21 207 -43 290 -58 133 -23 139 -24 270 -54 58 -14 141 -32 185 -41
44 -8 115 -25 158 -35 43 -11 119 -28 170 -39 50 -10 133 -29 182 -43 50 -13
101 -27 115 -30 278 -55 550 -123 561 -140 3 -4 10 -7 15 -6 5 1 16 -1 24 -4
8 -4 51 -13 95 -21 96 -17 277 -58 360 -81 33 -9 78 -21 100 -26 22 -5 56 -13
75 -18 19 -6 64 -17 100 -26 36 -9 69 -20 75 -25 5 -4 29 -11 52 -15 24 -4 45
-11 49 -16 3 -5 18 -9 35 -9 16 0 29 -3 29 -8 0 -4 25 -13 57 -21 31 -7 63
-17 72 -21 9 -5 34 -13 56 -18 44 -11 123 -37 170 -57 17 -7 50 -18 75 -25 25
-6 92 -29 150 -50 58 -21 116 -41 130 -45 14 -3 34 -10 45 -15 11 -5 70 -25
130 -44 184 -60 288 -95 320 -110 16 -7 55 -21 85 -31 30 -10 60 -21 65 -25 6
-4 26 -11 45 -15 19 -4 40 -11 45 -15 6 -4 28 -13 50 -20 22 -7 44 -16 50 -21
5 -5 17 -9 27 -9 9 0 43 -12 75 -26 32 -14 87 -36 123 -49 69 -25 169 -67 285
-121 39 -18 88 -38 110 -45 22 -7 47 -19 55 -25 8 -7 63 -37 122 -67 59 -30
120 -64 136 -76 17 -11 36 -21 44 -21 7 0 24 -9 38 -20 14 -11 30 -20 36 -20
6 0 19 -9 29 -20 10 -11 22 -20 27 -20 5 0 48 -24 96 -53 49 -29 106 -61 128
-71 21 -11 41 -22 44 -25 3 -3 32 -19 65 -36 33 -16 67 -35 75 -41 8 -6 58
-34 110 -61 52 -28 116 -64 141 -82 26 -17 52 -31 58 -31 6 0 11 -6 11 -14 0
-8 13 -17 29 -21 16 -3 35 -13 42 -21 6 -8 17 -14 23 -14 6 0 26 -14 44 -30
18 -16 41 -30 52 -30 10 0 20 -7 24 -15 3 -8 12 -15 21 -15 9 0 28 -11 42 -24
14 -13 37 -30 52 -38 14 -7 29 -18 33 -25 25 -37 157 -64 196 -40 7 5 12 4 12
-3 0 -19 163 -181 177 -176 7 3 13 1 13 -4 0 -6 7 -10 15 -10 8 0 15 -5 15
-11 0 -5 19 -19 43 -29 23 -10 61 -32 82 -47 22 -15 58 -37 80 -48 22 -11 63
-34 92 -52 29 -18 56 -33 60 -33 5 0 17 -9 26 -21 11 -12 25 -18 34 -14 9 3
20 1 23 -6 4 -6 19 -12 34 -12 14 -1 26 -5 26 -8 0 -14 300 -204 436 -276 79
-41 150 -86 164 -104 3 -4 16 -10 30 -14 14 -4 39 -21 55 -39 17 -18 62 -50
100 -71 39 -21 72 -42 73 -47 2 -4 12 -8 23 -8 10 0 19 -4 19 -9 0 -5 8 -11
18 -15 9 -3 49 -24 87 -46 96 -55 140 -75 208 -95 33 -10 57 -23 57 -31 0 -8
-6 -14 -14 -14 -8 0 -16 -7 -20 -15 -3 -8 -9 -14 -13 -13 -12 4 -93 -51 -93
-63 0 -5 -4 -8 -9 -4 -6 3 -13 -1 -18 -8 -4 -7 -24 -24 -43 -36 -38 -26 -45
-32 -169 -148 -122 -114 -181 -175 -181 -188 0 -6 -11 -22 -25 -35 -14 -13
-25 -27 -25 -32 0 -5 -9 -18 -20 -30 -11 -12 -20 -29 -20 -37 -1 -9 -14 -32
-30 -51 -17 -19 -30 -38 -30 -42 0 -10 -42 -101 -49 -108 -12 -11 -41 -69 -41
-82 0 -18 -61 -142 -72 -146 -4 -2 -8 -10 -8 -18 0 -8 -4 -22 -9 -32 -5 -9
-35 -71 -67 -137 -33 -66 -63 -125 -69 -131 -5 -6 -23 -29 -40 -50 -78 -100
-186 -208 -257 -254 -24 -16 -76 -52 -117 -79 -40 -28 -82 -51 -91 -51 -10 0
-23 -7 -30 -14 -10 -13 -29 -21 -95 -40 -5 -2 -14 -4 -19 -4 -5 0 -13 -6 -17
-14 -8 -11 -10 -11 -18 0 -6 10 -13 11 -27 4 -40 -22 -162 -52 -237 -58 -42
-3 -80 -10 -83 -15 -3 -5 -10 -7 -15 -3 -5 3 -22 -1 -37 -8 -15 -8 -44 -15
-64 -16 -20 -1 -62 -16 -94 -32 -31 -17 -61 -30 -68 -30 -16 -1 -56 -36 -56
-49 0 -7 -16 -27 -35 -47 -19 -19 -35 -32 -35 -28 0 3 -16 -4 -36 -15 -20 -12
-39 -20 -41 -17 -3 3 -12 -2 -20 -10 -9 -8 -22 -13 -29 -10 -8 3 -14 1 -14 -4
0 -6 -7 -10 -15 -10 -8 0 -14 -3 -13 -7 2 -5 -16 -27 -38 -50 -23 -24 -44 -56
-48 -73 -3 -17 -14 -34 -24 -38 -11 -4 -31 -21 -46 -39 -15 -18 -36 -35 -46
-38 -11 -4 -20 -13 -20 -21 0 -8 -4 -14 -10 -14 -5 0 -10 -6 -10 -14 0 -7 -13
-40 -30 -72 -16 -32 -30 -71 -30 -86 0 -14 -5 -28 -11 -30 -8 -3 -7 -32 1
-103 13 -100 17 -275 8 -291 -3 -5 -9 -40 -12 -79 -8 -78 -42 -284 -67 -405
-5 -25 -11 -61 -14 -80 -6 -49 -43 -200 -57 -230 -6 -14 -12 -38 -14 -55 -8
-69 -17 -101 -37 -130 -12 -16 -25 -31 -29 -33 -4 -2 -8 -9 -8 -15 0 -6 -6
-18 -14 -26 -8 -9 -27 -41 -43 -71 -23 -41 -37 -56 -59 -62 -53 -13 -104 -33
-104 -40 0 -5 -8 -8 -17 -8 -21 -1 -90 -59 -95 -80 -2 -8 -10 -22 -19 -33 -33
-37 -60 -103 -62 -153 -2 -29 -8 -58 -15 -66 -6 -8 -10 -18 -7 -21 3 -4 2 -5
-2 -2 -3 3 -20 -5 -37 -18 -47 -35 -182 -96 -237 -108 -27 -6 -51 -15 -55 -20
-3 -5 -20 -9 -39 -9 -28 0 -36 -6 -53 -39 l-20 -39 24 -10 c13 -7 31 -9 39 -6
8 4 15 2 15 -2 0 -12 42 -29 112 -47 77 -20 296 -21 335 -3 15 8 39 17 52 21
20 6 23 4 18 -10 -4 -9 -7 -21 -7 -26 0 -6 -4 -7 -10 -4 -5 3 -10 0 -10 -8 0
-8 -21 -24 -46 -37 -25 -13 -53 -33 -62 -45 -10 -11 -39 -33 -65 -49 -27 -15
-56 -36 -65 -47 -9 -10 -21 -19 -26 -19 -13 0 -84 -80 -92 -102 -3 -9 -14 -20
-25 -23 -10 -4 -19 -12 -19 -19 0 -7 -8 -21 -17 -32 -21 -23 -49 -77 -68 -134
-1 -3 -4 -12 -7 -20 -32 -86 -55 -218 -57 -324 -1 -44 -5 -84 -8 -90 -4 -5 -8
-75 -9 -154 -1 -90 -6 -148 -13 -155 -22 -22 -10 -50 44 -103 30 -30 57 -54
60 -54 8 0 35 -27 35 -34 0 -3 -13 -25 -30 -49 -16 -25 -30 -54 -30 -64 0 -11
-3 -23 -7 -27 -10 -10 -14 -128 -4 -141 4 -5 7 -28 6 -50 -2 -69 40 -164 94
-211 18 -16 22 -26 16 -40 -5 -10 -10 -23 -11 -29 -1 -5 -3 -12 -4 -15 -1 -3
-4 -26 -5 -52 l-3 -48 474 0 474 0 17 26 c9 14 18 37 19 51 2 14 5 27 7 30 3
2 33 -14 67 -36 34 -22 79 -43 99 -47 20 -3 49 -10 65 -15 16 -5 266 -9 567
-9 490 0 540 2 567 17 28 16 57 72 52 98 -6 29 0 34 28 19 15 -7 37 -14 50
-14 29 0 127 -46 166 -78 23 -18 35 -21 60 -16 17 4 45 8 61 9 93 7 102 16 89
83 -13 64 -173 220 -277 269 -26 13 -66 32 -90 44 -60 28 -80 31 -267 34 -168
4 -391 13 -422 18 -10 2 -20 6 -23 9 -4 3 -18 3 -33 -1 -19 -5 -41 1 -81 21
-30 15 -62 28 -72 28 -9 0 -22 7 -29 15 -7 8 -18 15 -24 15 -7 0 -21 8 -32 17
-10 10 -39 28 -64 40 -25 12 -58 34 -73 47 -16 14 -32 26 -36 28 -3 2 -24 27
-46 57 -31 42 -39 64 -42 104 -1 27 -8 57 -15 65 -9 11 -10 16 -2 19 7 2 10
25 9 56 -2 45 5 133 19 255 2 18 12 59 22 92 17 54 22 59 54 66 19 4 38 7 43
6 4 -1 7 2 7 8 0 5 9 10 20 10 11 0 20 5 20 10 0 6 6 10 13 10 16 0 57 33 57
46 0 5 9 26 20 47 12 21 25 59 30 85 5 26 11 56 14 67 2 11 7 90 10 175 4 85
10 170 13 189 8 44 12 111 18 291 3 80 7 179 10 220 3 41 5 90 5 108 0 17 4
32 8 32 5 0 8 10 7 22 -2 29 29 175 45 213 15 34 14 30 29 105 24 117 37 166
48 186 7 11 13 32 15 46 2 14 9 32 15 39 6 8 14 30 18 49 4 19 12 40 17 47 16
20 48 86 48 100 0 7 27 40 60 74 33 33 60 62 60 65 0 14 61 59 103 75 15 6 27
17 27 25 0 8 8 18 18 21 9 4 25 17 35 30 10 13 23 21 28 18 5 -4 9 0 9 8 0 13
21 28 42 31 3 1 15 11 26 23 10 13 22 20 26 16 3 -3 6 0 6 9 0 8 11 21 25 28
14 7 25 19 25 25 0 6 12 18 27 26 16 8 37 24 49 37 12 12 25 22 30 22 14 1 64
48 64 60 0 5 3 10 8 10 4 0 21 14 39 30 18 17 34 30 37 30 10 0 46 40 46 50 0
6 11 15 25 22 13 6 22 14 20 18 -3 5 7 11 20 14 14 4 24 10 21 14 -3 5 11 14
30 21 18 7 34 17 34 22 0 5 9 9 20 9 11 0 20 4 20 9 0 5 19 14 43 19 24 6 51
20 61 31 16 17 64 35 82 31 4 -1 10 2 13 8 3 5 35 18 71 29 83 27 131 43 152
54 10 5 26 9 37 9 10 0 21 7 25 15 3 9 18 15 36 15 17 0 29 4 26 9 -9 15 161
53 249 56 28 0 57 4 65 7 8 4 53 11 100 17 47 6 109 16 139 21 30 5 57 7 62 5
4 -3 9 0 11 6 2 7 23 12 46 12 23 0 42 3 42 6 0 4 19 7 43 6 23 -1 47 1 52 4
6 3 45 7 88 8 43 1 85 7 92 13 8 7 19 9 24 6 6 -4 26 0 45 8 19 8 36 11 38 7
4 -11 151 9 159 21 3 5 12 8 20 7 8 -2 34 1 59 6 25 5 52 9 60 10 8 2 33 9 55
17 22 8 46 13 53 11 6 -3 12 0 12 5 0 5 23 12 51 15 28 4 56 10 63 15 16 13
74 30 125 36 25 3 47 9 50 13 3 5 22 9 41 10 20 1 61 13 92 27 31 14 65 26 76
26 10 0 39 10 63 23 24 13 70 32 101 42 32 10 63 24 69 31 6 7 16 11 23 8 7
-3 19 2 26 10 7 9 30 21 52 27 22 6 52 15 67 21 14 6 29 12 33 12 3 1 10 4 14
9 4 4 13 7 20 7 8 0 42 13 76 29 35 15 92 40 128 55 36 16 73 32 82 37 10 5
23 9 30 9 7 1 49 23 93 50 44 27 104 63 133 80 28 17 52 36 52 41 0 5 6 9 13
9 7 0 18 9 25 20 7 11 19 20 28 20 9 0 27 11 40 25 13 14 26 25 29 25 3 0 23
12 44 28 21 15 49 34 61 42 12 8 28 21 36 28 7 6 16 12 21 12 4 0 26 16 48 36
35 30 45 34 75 28 69 -12 85 -15 115 -19 74 -11 108 -20 225 -63 113 -40 147
-50 230 -67 14 -3 63 -14 110 -25 69 -16 219 -43 300 -54 8 -1 22 -5 30 -9 8
-3 26 -7 39 -9 23 -3 24 -7 28 -87 2 -46 8 -91 12 -100 7 -14 19 -60 36 -141
3 -14 17 -68 31 -120 25 -95 29 -116 58 -290 15 -89 31 -216 42 -339 15 -159
5 -451 -16 -492 -7 -11 -9 -27 -6 -36 3 -8 -1 -21 -9 -29 -8 -9 -15 -26 -15
-39 0 -14 -9 -39 -20 -57 -11 -18 -20 -42 -20 -53 0 -16 -12 -45 -72 -168 -5
-10 -6 -22 -3 -26 2 -5 -2 -14 -10 -21 -8 -7 -15 -22 -15 -34 0 -12 -4 -26 -9
-32 -5 -5 -14 -27 -21 -49 -7 -22 -16 -44 -20 -50 -11 -14 -57 -132 -74 -189
-9 -29 -11 -57 -7 -69 5 -12 5 -33 1 -47 -10 -34 -4 -199 9 -225 5 -11 17 -57
25 -103 9 -46 23 -96 31 -112 8 -16 15 -37 15 -47 0 -10 7 -27 15 -37 8 -11
15 -28 15 -37 0 -10 6 -22 13 -26 19 -11 51 -62 54 -87 2 -12 17 -32 35 -46
18 -14 55 -47 83 -75 58 -57 140 -125 150 -125 8 0 84 -57 100 -74 6 -6 35
-31 65 -54 30 -24 93 -80 140 -125 47 -45 103 -94 125 -110 82 -54 493 -462
520 -514 11 -21 30 -49 42 -62 13 -13 23 -29 23 -35 0 -7 17 -23 38 -36 l37
-23 0 -81 c0 -67 5 -90 27 -136 14 -30 29 -63 32 -73 3 -9 14 -20 23 -24 37
-13 41 -21 31 -69 -8 -37 -6 -63 12 -137 12 -50 25 -98 30 -106 40 -86 55
-109 84 -129 21 -14 51 -24 82 -26 l49 -2 3 -58 c2 -32 -3 -77 -11 -100 -18
-52 -15 -90 6 -94 9 -2 17 1 17 7 0 6 7 11 15 11 7 0 18 6 22 13 4 7 24 23 43
34 36 23 70 57 70 72 0 5 7 14 15 21 8 7 15 20 15 30 0 10 7 35 16 56 l17 39
8 -30 c5 -16 11 -57 14 -90 10 -94 27 -143 63 -178 l33 -32 1579 -2 1579 -3
27 36 c22 28 28 47 28 90 1 30 4 54 7 54 5 0 39 -24 74 -53 61 -50 182 -109
225 -109 38 -1 155 18 169 26 7 5 -19 96 -46 166 -4 8 -7 17 -8 20 -5 20 -39
71 -69 103 -20 20 -36 41 -36 46 0 22 -181 136 -230 145 -14 2 -25 5 -25 6 0
1 -40 12 -89 24 -80 21 -106 23 -250 19 -298 -8 -491 -4 -515 11 -5 4 -48 7
-95 9 -47 1 -86 5 -86 8 0 4 -28 7 -62 8 -35 0 -90 3 -123 6 -33 2 -91 7 -130
9 -38 3 -112 12 -162 20 -51 9 -96 16 -100 15 -5 -1 -11 0 -15 1 -5 1 -12 4
-18 5 -5 1 -11 4 -12 5 -2 1 -16 4 -33 5 -16 2 -30 4 -30 5 0 1 -7 3 -15 5 -8
1 -42 11 -75 21 -33 9 -67 18 -75 19 -9 0 -22 5 -29 10 -13 7 -77 24 -108 27
-6 1 -40 15 -75 32 l-63 31 -3 59 c-2 41 -10 69 -27 95 -36 53 -51 71 -62 71
-6 0 -22 11 -37 25 -15 14 -30 25 -34 25 -4 0 -23 13 -43 29 -19 16 -79 52
-134 81 -54 28 -113 63 -130 76 -18 13 -35 24 -39 24 -4 0 -27 14 -51 31 -24
17 -48 28 -54 25 -6 -4 -11 -3 -11 2 0 10 -177 133 -195 136 -6 1 -24 12 -39
24 -16 12 -32 20 -36 17 -4 -3 -10 4 -13 14 -2 10 -17 21 -32 25 -14 4 -32 11
-38 16 -7 5 -43 34 -82 65 -38 30 -88 70 -110 89 -22 19 -74 63 -115 97 -107
88 -145 122 -230 204 -85 82 -220 228 -234 253 -5 10 -12 19 -15 22 -40 34
-124 255 -135 353 -2 20 -9 44 -16 52 -7 8 -9 22 -6 31 3 9 -3 46 -14 82 -11
36 -18 67 -15 70 2 2 -1 14 -7 26 -6 11 -15 34 -19 51 -4 16 -17 64 -28 105
-32 114 -30 471 3 600 4 14 10 45 15 70 4 25 15 63 25 85 32 72 69 150 75 155
3 3 17 27 31 55 14 27 33 58 43 69 9 11 17 23 17 27 0 11 62 103 72 107 4 2 8
8 8 13 0 6 11 22 25 37 14 15 63 77 109 137 46 61 104 132 130 159 25 27 48
58 52 68 3 10 11 18 18 18 19 0 56 39 50 53 -3 8 6 18 21 25 14 6 25 18 25 25
0 7 10 22 23 33 42 37 197 223 197 237 0 5 7 15 15 24 24 23 95 131 95 142 0
6 10 21 23 34 22 22 24 22 352 24 350 2 631 12 655 24 3 1 19 3 35 4 17 1 62
5 100 8 150 15 211 19 239 18 16 -1 33 3 36 10 4 6 33 12 63 14 31 2 61 6 66
9 5 3 29 8 52 11 24 3 71 10 104 16 33 6 91 12 129 15 38 2 72 8 75 13 3 5 26
10 51 12 25 1 56 7 70 12 23 8 43 12 110 20 37 5 83 19 96 29 7 5 16 8 20 6
13 -3 99 11 169 27 33 8 71 17 85 20 14 2 52 11 84 19 33 8 63 13 68 10 4 -3
8 0 8 6 0 6 6 10 13 8 6 -1 34 4 60 11 26 8 50 12 52 9 15 -15 1 -258 -15
-258 -4 0 -13 -19 -19 -42 -7 -24 -17 -47 -21 -53 -4 -5 -17 -44 -29 -85 -12
-41 -26 -83 -32 -92 -5 -10 -9 -28 -9 -42 0 -29 -37 -113 -60 -136 -3 -3 -16
-27 -28 -55 -13 -27 -28 -57 -33 -65 -5 -8 -16 -32 -25 -52 -9 -21 -20 -38
-24 -38 -10 0 -35 -63 -44 -110 -5 -26 -18 -44 -51 -68 -25 -18 -53 -45 -62
-59 -10 -15 -27 -37 -38 -49 -36 -39 -46 -54 -61 -87 -8 -17 -23 -45 -34 -62
-11 -16 -24 -40 -30 -52 -5 -13 -14 -23 -20 -23 -5 0 -10 -7 -10 -15 0 -8 -6
-15 -14 -15 -8 0 -18 -10 -22 -23 -3 -12 -22 -41 -41 -64 -28 -35 -83 -140
-83 -158 1 -12 -31 -65 -39 -65 -6 0 2 -88 12 -118 1 -4 -9 -19 -22 -34 -13
-15 -41 -67 -63 -115 -21 -48 -61 -133 -88 -188 -27 -55 -58 -127 -70 -160
-86 -244 -84 -248 59 -104 63 63 121 125 130 139 9 14 57 78 106 144 50 65
105 139 123 165 40 54 49 61 83 61 17 0 43 16 78 50 29 27 55 50 59 50 4 0 18
17 32 38 14 20 27 39 31 42 12 11 59 120 59 139 0 20 24 51 40 51 11 0 150
185 150 199 0 6 4 11 9 11 5 0 15 17 21 38 20 62 42 102 55 102 20 0 101 115
121 171 10 28 26 51 36 55 10 3 18 15 18 28 0 13 6 28 13 34 10 9 13 4 15 -19
8 -109 13 -137 32 -195 12 -35 33 -78 47 -95 19 -22 23 -36 19 -55 -15 -57
-17 -215 -4 -231 7 -9 12 -19 11 -22 -2 -7 59 -73 81 -86 9 -5 17 -19 19 -30
5 -33 47 -168 62 -200 8 -16 21 -50 29 -75 36 -106 64 -180 73 -192 5 -7 20
-42 33 -77 28 -75 93 -152 112 -133 20 20 22 145 4 225 -28 122 -57 280 -62
325 -6 65 -24 174 -31 185 -3 5 10 30 28 55 33 46 34 49 34 152 0 111 -17 174
-59 233 -15 21 -18 32 -10 45 16 26 16 97 -1 223 -26 203 -28 222 -28 324 0
65 5 114 15 140 8 22 13 46 11 53 -9 25 17 11 32 -17 8 -16 18 -31 22 -33 5
-1 15 -15 23 -30 8 -15 63 -99 122 -186 99 -147 178 -285 178 -311 0 -6 12
-50 26 -98 14 -49 28 -99 30 -112 3 -13 9 -31 13 -40 29 -55 56 -215 66 -386
6 -100 24 -195 37 -195 4 0 8 -9 8 -20 0 -11 5 -20 11 -20 5 0 8 -4 4 -9 -3
-5 -1 -12 4 -15 15 -9 42 -142 37 -180 -2 -20 -1 -73 3 -119 7 -72 13 -91 44
-140 21 -32 37 -61 37 -66 0 -5 6 -16 13 -23 6 -7 23 -36 37 -63 14 -28 30
-57 36 -65 5 -8 23 -55 38 -105 16 -49 32 -94 36 -100 4 -5 11 -21 15 -35 4
-14 42 -87 84 -164 57 -103 92 -155 139 -202 67 -67 69 -69 91 -55 15 10 5 65
-39 211 -11 36 -27 94 -35 130 -9 36 -25 99 -36 140 -11 41 -22 91 -24 110 -3
19 -8 52 -11 73 -7 42 -1 50 64 95 17 13 32 27 32 32 0 5 5 21 12 37 30 72 15
193 -40 332 -22 54 -40 114 -40 134 0 20 -3 40 -6 45 -3 5 -8 45 -12 88 -6 87
-19 146 -39 184 -21 37 -58 151 -52 157 10 9 27 -8 27 -26 0 -10 9 -30 21 -45
11 -14 17 -26 13 -26 -4 0 2 -9 13 -20 12 -11 34 -35 48 -55 15 -19 32 -35 37
-35 5 0 24 -11 41 -24 18 -13 43 -27 57 -31 14 -4 63 -47 110 -95 101 -104
167 -158 275 -225 102 -64 141 -81 214 -96 45 -8 64 -8 81 1 12 6 19 15 15 18
-115 114 -247 258 -304 332 -100 128 -154 212 -141 220 5 3 13 40 16 81 6 62
3 83 -13 120 -24 53 -157 197 -187 201 -12 2 -22 12 -24 23 -11 57 -72 140
-166 224 -16 14 -41 39 -55 55 -14 16 -39 43 -54 60 -35 39 -80 116 -105 181
-10 28 -22 59 -27 70 -4 11 -9 25 -10 30 -20 84 -142 412 -206 553 -10 23 -19
47 -19 52 0 6 18 18 40 27 22 10 40 21 40 25 0 5 4 8 9 8 5 0 23 12 39 28 56
52 80 72 87 72 4 0 42 35 85 78 105 104 169 162 179 162 4 0 19 12 33 28 15
15 43 41 63 57 20 17 52 44 70 62 19 17 36 29 38 26 3 -2 8 4 12 15 4 14 18
22 45 27 22 4 38 10 35 15 -3 4 4 10 15 13 10 3 21 0 23 -7 3 -8 9 -7 20 3 14
11 18 11 23 -2 5 -13 14 -11 57 12 29 15 74 42 101 59 28 18 55 32 62 32 6 0
14 7 18 15 3 8 12 15 20 15 8 0 16 4 18 8 3 9 93 52 108 52 5 0 10 4 10 8 0 4
20 13 45 20 25 7 45 16 45 22 0 5 5 10 12 10 23 0 103 43 135 73 17 16 35 27
40 24 5 -3 33 3 63 14 30 10 64 19 76 19 12 0 35 7 50 15 16 8 41 15 56 15 15
0 37 4 51 9 13 5 73 12 133 16 60 4 112 9 116 12 5 2 38 6 75 9 128 9 222 23
246 36 11 5 45 12 76 14 31 3 81 10 111 15 30 6 62 11 70 11 8 0 54 13 101 28
47 16 102 32 123 35 21 4 40 14 43 21 3 8 11 14 19 14 13 0 94 41 209 106 53
29 116 36 200 20 22 -4 74 -9 116 -12 59 -4 78 -2 88 10 7 8 19 12 27 9 8 -3
20 -1 27 4 17 14 57 23 57 13 0 -7 37 -20 75 -26 6 -1 13 -3 18 -4 12 -4 20
-6 70 -14 26 -4 59 -14 75 -22 15 -7 35 -14 45 -14 9 0 17 -3 17 -8 0 -4 24
-16 53 -27 41 -16 77 -20 164 -20 62 0 113 3 113 6 0 3 11 5 25 4 53 -6 194
42 177 60 -4 4 7 5 24 2 31 -6 81 -34 136 -76 14 -12 32 -21 39 -21 7 0 20 -6
28 -14 9 -7 59 -30 111 -50 52 -21 107 -44 122 -52 14 -8 38 -14 52 -14 14 0
26 -4 26 -8 0 -12 64 -31 120 -37 25 -3 59 -8 75 -11 17 -3 116 -7 220 -9
l190 -3 139 -47 c76 -26 166 -51 200 -56 33 -6 70 -11 81 -13 28 -4 181 -63
235 -91 25 -12 61 -26 80 -30 33 -7 67 -22 230 -97 36 -16 76 -35 91 -41 51
-24 240 -142 270 -169 17 -15 34 -28 39 -28 4 0 10 -7 14 -15 3 -8 17 -20 31
-25 14 -5 25 -14 25 -19 0 -10 56 -45 72 -46 4 0 15 -10 23 -22 9 -13 20 -23
25 -23 5 0 26 -17 47 -38 21 -21 65 -60 98 -88 33 -27 62 -52 63 -56 2 -5 7
-8 12 -8 10 0 80 -67 80 -77 0 -17 181 -183 200 -183 11 0 20 -4 20 -10 0 -13
42 -53 92 -89 24 -16 86 -72 139 -123 117 -112 144 -136 189 -168 19 -13 37
-27 40 -30 26 -27 223 -180 234 -180 3 0 21 -11 41 -24 20 -14 62 -30 93 -36
31 -7 80 -18 107 -25 80 -20 247 1 290 37 5 4 16 8 25 8 13 0 60 22 145 66 11
6 47 23 80 39 125 58 148 71 164 94 34 50 61 72 80 66 10 -3 24 1 31 10 7 8
18 15 24 15 7 0 21 8 32 18 10 10 26 21 34 25 34 17 107 65 132 87 34 31 48
41 70 51 46 20 67 36 139 102 40 37 76 67 80 67 13 0 76 120 103 195 39 109
51 196 49 353 -2 130 -15 300 -28 362 -3 14 -9 50 -15 80 -5 30 -12 66 -16 80
-3 14 -7 86 -8 160 -2 144 -4 152 -48 217 -15 23 -28 46 -28 52 0 12 -57 66
-70 66 -8 0 -64 51 -86 78 -24 29 -31 54 -29 105 0 29 -3 56 -7 58 -5 3 -6 9
-3 14 6 9 -20 102 -42 146 -8 17 -35 53 -60 80 -25 27 -59 69 -76 94 -17 25
-34 47 -38 50 -4 3 -10 16 -14 30 -7 29 -49 80 -65 80 -5 0 -10 4 -10 10 0 5
-20 21 -45 35 -24 15 -47 35 -50 46 -4 10 -10 19 -15 19 -4 0 -17 15 -28 33
-12 17 -35 51 -51 75 -17 23 -31 47 -31 52 0 4 -4 10 -8 12 -4 2 -23 33 -42
71 -18 37 -37 67 -42 67 -5 0 -7 4 -4 8 3 5 -9 24 -25 43 -47 54 -109 186
-109 234 0 58 17 112 55 170 18 28 49 84 69 125 21 41 44 82 52 91 8 8 14 19
14 24 0 5 7 16 16 26 9 10 14 25 11 33 -6 14 -167 116 -185 116 -6 0 -12 4
-14 8 -3 8 -95 57 -218 116 -19 10 -42 21 -50 26 -8 5 -35 20 -60 32 -25 13
-64 43 -88 67 -37 38 -46 42 -70 35 -15 -4 -31 -8 -37 -9 -5 0 -16 -4 -23 -9
-17 -11 -23 -4 -62 69 -18 33 -38 64 -46 68 -32 18 -61 95 -84 223 -6 28 -17
67 -25 87 -8 20 -15 47 -15 60 0 13 -16 40 -35 61 -19 21 -35 42 -35 46 0 4
-23 26 -51 50 -50 42 -51 44 -29 52 17 6 20 12 12 20 -6 6 -8 24 -5 40 5 24
-1 36 -32 68 -32 33 -39 49 -47 100 -5 44 -16 72 -37 98 -16 20 -32 49 -35 65
-4 15 -34 56 -69 91 l-62 63 2 99 c0 55 5 117 10 139 12 56 -2 81 -54 97 -31
9 -61 31 -104 75 -34 35 -68 63 -75 63 -16 0 -15 -3 -18 75 -2 59 -14 96 -44
125 -8 8 -35 58 -61 110 l-46 95 -40 1 c-45 0 -85 11 -85 24 0 4 -16 11 -35
14 -19 4 -35 11 -35 16 0 6 -8 10 -18 10 -10 0 -28 17 -42 41 -51 83 -81 119
-112 135 -18 9 -35 20 -38 24 -7 9 -85 28 -150 35 -47 5 -60 12 -90 44 -19 20
-54 52 -78 70 -37 29 -52 34 -112 37 -46 3 -88 12 -127 30 -116 52 -154 61
-198 46 -36 -12 -41 -11 -65 8 -37 30 -103 64 -117 62 -7 -2 -13 2 -13 7 0 6
-6 8 -13 5 -7 -2 -29 2 -48 9 -18 8 -55 18 -81 21 -26 4 -50 11 -53 17 -4 5
-19 9 -36 9 -16 0 -39 6 -50 13 -18 10 -23 9 -26 -1 -3 -7 -16 -17 -29 -22
-13 -5 -24 -16 -24 -24 0 -24 -37 -29 -72 -10 -61 32 -68 34 -94 34 -14 0 -34
4 -44 10 -29 15 -45 3 -59 -44 -12 -42 -14 -44 -49 -41 -45 3 -61 7 -88 22
-20 12 -29 13 -84 13 -104 1 -134 -1 -145 -10 -7 -6 -35 -12 -63 -14 -32 -2
-61 -12 -82 -27 -28 -21 -42 -24 -111 -22 -70 1 -88 -2 -143 -28 -36 -17 -76
-41 -91 -55 -14 -13 -30 -24 -36 -24 -5 0 -9 -6 -9 -12 0 -7 -5 -5 -11 5 -7
12 -18 16 -39 12 -41 -7 -77 -22 -85 -34 -3 -6 -14 -11 -24 -11 -10 0 -26 -9
-36 -20 -10 -11 -22 -17 -27 -13 -6 3 -14 0 -18 -6 -4 -7 -25 -18 -46 -26 -36
-12 -40 -17 -49 -61 -10 -46 -35 -73 -35 -38 0 13 -8 14 -47 8 -49 -7 -103
-32 -103 -47 0 -4 -4 -5 -10 -2 -5 3 -10 1 -10 -5 0 -6 -13 -16 -30 -21 -16
-6 -30 -17 -30 -24 0 -20 -49 -55 -76 -55 -13 0 -23 -5 -21 -12 1 -7 -17 -16
-42 -22 -25 -5 -57 -22 -77 -41 -18 -18 -36 -30 -39 -27 -3 3 -5 0 -5 -7 0 -7
-13 -17 -29 -22 -16 -6 -32 -17 -35 -25 -3 -8 -11 -14 -18 -14 -7 0 -19 -9
-26 -20 -7 -11 -21 -20 -32 -20 -12 0 -23 -7 -26 -15 -3 -8 -21 -17 -39 -21
-19 -3 -41 -15 -51 -25 -9 -10 -23 -19 -30 -19 -6 0 -22 -11 -35 -25 -13 -13
-29 -25 -36 -25 -18 0 -73 -32 -100 -58 -13 -13 -30 -21 -38 -18 -8 3 -17 1
-20 -5 -4 -5 -11 -7 -16 -4 -5 4 -9 1 -9 -5 0 -7 -6 -10 -14 -7 -8 3 -17 3
-21 -1 -4 -4 -21 -8 -38 -8 -31 -1 -40 -3 -102 -22 -16 -5 -35 -7 -42 -5 -7 2
-20 0 -31 -6 -13 -7 -22 -7 -30 1 -13 13 -92 -6 -92 -22 0 -5 -21 -22 -47 -37
-45 -26 -53 -28 -173 -27 -69 0 -153 3 -188 6 -42 3 -72 0 -89 -9 -29 -15 -53
-17 -53 -4 0 12 -64 41 -105 48 -26 4 -45 -1 -81 -22 -42 -24 -48 -26 -56 -11
-5 9 -16 16 -23 16 -8 0 -15 4 -15 9 0 5 -20 12 -45 15 -24 4 -47 11 -50 16
-7 11 -84 3 -114 -12 -20 -11 -25 -9 -42 14 -13 18 -33 28 -62 33 -23 4 -46
10 -52 14 -5 3 -46 13 -90 22 -68 14 -82 15 -100 3 -25 -17 -69 -7 -112 26
-34 25 -159 60 -221 61 -34 1 -47 8 -70 33 -16 18 -35 36 -43 39 -8 4 -34 21
-59 37 -25 16 -56 35 -70 41 -14 7 -60 29 -104 50 -43 22 -85 39 -92 39 -8 0
-14 4 -14 9 0 12 -142 81 -168 81 -11 0 -23 4 -27 9 -8 13 -167 93 -173 87 -2
-3 -18 4 -33 15 -16 11 -37 22 -48 24 -10 2 -33 11 -50 19 -17 9 -33 16 -36
16 -3 -1 -20 6 -38 13 -71 32 -255 105 -302 121 -27 9 -93 31 -145 48 -52 17
-104 34 -115 39 -11 5 -29 10 -40 12 -11 1 -24 5 -30 8 -5 4 -35 14 -65 23
-30 10 -64 21 -75 25 -11 5 -33 14 -48 20 -15 6 -37 11 -48 11 -10 0 -27 4
-37 9 -9 4 -42 16 -72 25 -30 10 -91 30 -135 46 -44 16 -107 36 -140 46 -99
28 -154 45 -290 90 -133 43 -208 65 -235 68 -14 1 -43 10 -230 66 -36 11 -81
22 -100 25 -19 2 -42 6 -50 8 -8 2 -37 7 -65 12 -27 4 -54 11 -60 15 -14 10
-53 20 -170 42 -55 10 -107 20 -115 22 -8 1 -42 6 -75 10 -33 4 -80 11 -105
17 -47 9 -219 37 -280 45 -49 7 -74 11 -80 14 -3 2 -9 4 -15 5 -5 2 -12 4 -15
5 -3 1 -18 3 -35 5 -115 15 -175 26 -203 36 -14 5 -27 7 -30 4 -3 -2 -12 1
-19 7 -8 7 -36 14 -61 16 -26 2 -49 7 -52 11 -4 6 -70 18 -200 37 -222 31
-391 53 -500 64 -63 6 -131 15 -150 20 -19 5 -64 12 -100 15 -36 4 -94 10
-130 15 -36 5 -128 14 -205 20 -77 6 -181 17 -232 25 -89 14 -303 38 -453 50
-41 3 -111 10 -155 15 -44 5 -114 12 -155 15 -175 12 -328 26 -370 35 -91 19
-301 33 -665 45 -229 8 -336 14 -346 21 -10 6 -229 10 -1064 20 -501 6 -609 6
-970 4 -99 -1 -205 1 -235 5 -30 4 -104 6 -165 6 -438 -2 -1045 0 -1170 5
-192 7 -396 10 -400 5z"/>
</g>
</svg>
