<?xml version="1.0" standalone="no"?>
<!DOCTYPE svg PUBLIC "-//W3C//DTD SVG 20010904//EN"
 "http://www.w3.org/TR/2001/REC-SVG-20010904/DTD/svg10.dtd">
<svg version="1.0" xmlns="http://www.w3.org/2000/svg"
 width="3839.000000pt" height="1189.000000pt" viewBox="0 0 3839.000000 1189.000000"
 preserveAspectRatio="xMidYMid meet">
<metadata>
Created by potrace 1.16, written by Peter Selinger 2001-2019
</metadata>
<g transform="translate(0.000000,1189.000000) scale(0.100000,-0.100000)"
fill="#000000" stroke="none">
<path d="M38048 11784 c-182 -103 -199 -110 -614 -260 -234 -85 -428 -154
-431 -154 -2 0 -2 9 2 19 3 11 1 22 -4 26 -6 3 -150 -31 -321 -75 -269 -70
-417 -100 -1095 -225 -745 -137 -828 -150 -1642 -260 l-858 -115 -1560 -50
c-858 -27 -1594 -50 -1635 -49 l-75 0 75 27 c48 17 75 32 75 42 0 13 -71 15
-590 12 l-590 -4 -1220 107 c-671 59 -1227 109 -1235 112 -8 3 55 21 140 40
155 34 183 44 164 63 -5 5 -413 41 -905 80 l-895 70 -1040 30 c-571 17 -1077
33 -1124 36 l-85 6 47 24 c51 26 65 41 52 54 -5 5 -637 16 -1404 25 l-1395 16
-1190 -26 c-1073 -23 -1327 -32 -2585 -90 -767 -36 -1408 -65 -1425 -64 -23 0
-11 7 50 30 44 17 84 34 90 40 32 31 -30 28 -659 -37 -602 -62 -648 -65 -659
-49 -12 15 -63 10 -712 -69 -389 -48 -1271 -168 -1987 -271 l-1287 -186 -987
-239 c-542 -132 -988 -240 -991 -240 -2 0 31 33 74 74 137 130 102 121 -317
-89 -372 -186 -372 -186 -337 -143 62 75 112 208 80 208 -5 0 -157 -119 -338
-265 -181 -145 -330 -263 -332 -261 -2 2 4 34 13 70 12 48 14 70 6 78 -12 12
-2 21 -258 -210 l-172 -154 -267 -149 c-146 -82 -268 -149 -271 -149 -2 0 3
18 12 41 11 27 13 44 7 50 -7 7 -81 -25 -223 -96 -176 -88 -290 -135 -668
-275 l-455 -170 -468 -55 c-257 -30 -473 -55 -480 -55 -7 0 7 20 31 45 77 78
55 76 -271 -19 -162 -47 -469 -129 -683 -182 -377 -94 -395 -100 -545 -170
-86 -39 -158 -70 -160 -69 -2 2 21 45 49 95 82 141 68 139 -188 -32 l-219
-146 -38 -99 c-21 -54 -46 -118 -56 -143 l-18 -45 -2 35 c-13 242 -15 264 -27
268 -8 2 -46 -67 -107 -193 -84 -175 -95 -203 -96 -253 -1 -103 -8 -101 -84
31 -40 68 -77 122 -85 122 -21 0 -30 -96 -33 -342 -1 -112 -3 -203 -4 -203 -1
0 -38 47 -83 105 -45 59 -87 104 -94 102 -7 -2 -12 -57 -14 -175 l-2 -171 46
-92 c52 -105 63 -104 -84 -5 -51 34 -76 46 -83 39 -7 -7 2 -50 30 -139 35
-113 46 -134 81 -169 22 -21 40 -43 40 -47 0 -4 -25 4 -55 19 -81 40 -87 27
-40 -89 20 -51 46 -115 56 -141 l19 -48 -117 6 -118 6 -95 -53 c-132 -74 -128
-82 39 -86 l135 -3 53 -41 c30 -23 50 -44 46 -49 -4 -4 -50 -18 -102 -32 -98
-27 -122 -40 -105 -57 5 -5 77 -30 159 -53 l149 -44 27 -82 c32 -95 42 -89
-112 -65 -71 11 -104 13 -112 5 -7 -7 23 -46 105 -133 98 -105 274 -326 265
-334 -1 -1 -24 2 -51 8 -83 18 -80 3 34 -149 96 -128 266 -336 349 -427 20
-22 -13 3 -74 54 -60 52 -117 100 -127 108 -14 11 -36 10 -158 -7 -78 -12
-147 -24 -152 -27 -7 -5 -8 -110 -3 -317 l7 -310 164 -460 c90 -254 168 -465
172 -469 5 -5 143 -60 306 -123 l297 -113 175 -169 c96 -92 241 -232 322 -310
l147 -142 158 -51 c86 -27 228 -73 315 -100 l158 -50 129 -105 130 -105 189 2
189 3 114 165 c62 90 112 169 110 175 -3 6 18 11 49 12 l54 2 0 -227 0 -228
61 -87 c59 -85 62 -88 93 -81 39 8 66 22 66 33 0 5 -13 106 -30 225 l-29 216
25 197 c14 109 23 213 20 230 -4 30 -2 34 27 41 24 7 36 5 49 -5 9 -8 21 -12
26 -9 5 3 44 64 87 136 l78 131 -95 197 c-87 181 -133 257 -583 952 l-490 755
-157 464 c-87 255 -161 487 -164 516 -6 50 -5 54 31 93 39 44 39 62 0 62 -40
0 -55 11 -55 39 0 20 10 33 48 56 44 28 54 30 176 35 92 4 131 9 134 18 2 8
-31 29 -90 57 -81 40 -88 45 -52 40 27 -4 45 -2 49 5 4 6 -28 57 -75 118 -44
59 -77 108 -71 110 5 2 89 -16 186 -39 215 -50 227 -47 140 41 -32 33 -56 62
-53 65 3 4 105 -21 227 -55 203 -57 241 -63 241 -41 0 4 -23 38 -51 75 -28 37
-49 69 -46 72 2 2 152 -82 334 -188 l330 -193 93 -148 c51 -81 97 -150 102
-153 5 -4 14 -2 20 4 7 7 -11 82 -56 233 -36 123 -64 225 -62 226 1 2 100 -70
219 -160 l217 -162 181 -217 c99 -120 185 -218 190 -218 22 0 16 35 -36 214
-30 104 -54 191 -52 192 1 1 126 -98 277 -222 246 -200 280 -225 325 -234 280
-55 438 -81 448 -71 16 16 -3 32 -82 71 -39 18 -69 35 -68 37 2 1 174 -47 382
-107 l378 -110 599 -35 c329 -20 603 -33 608 -30 20 13 8 27 -43 50 -28 14
-49 25 -44 25 4 0 260 -47 568 -105 l562 -105 61 -54 c33 -29 92 -82 129 -117
l68 -64 79 -333 79 -333 -79 -771 c-54 -519 -84 -778 -94 -792 -7 -12 -137
-198 -288 -413 l-275 -393 -386 -316 -387 -316 -6 -48 c-3 -26 -9 -52 -13 -57
-3 -5 -163 -56 -356 -113 -305 -90 -1147 -374 -1179 -398 -6 -5 -88 -68 -183
-140 l-171 -132 -37 -94 -37 -93 -55 -23 c-47 -20 -60 -31 -105 -99 -28 -42
-54 -80 -59 -85 -5 -6 -116 40 -268 108 l-260 118 -458 -76 -458 -76 -127
-132 c-70 -73 -126 -137 -124 -143 4 -15 6678 -14 6683 2 3 9 -169 140 -244
186 -7 4 -351 59 -765 122 -414 63 -766 118 -782 122 -24 7 -50 41 -145 188
l-117 180 -134 45 c-74 25 -141 48 -149 51 -11 4 -3 23 35 77 27 39 51 71 54
72 3 0 13 -13 22 -30 21 -36 274 -168 291 -151 7 7 -12 47 -60 128 l-71 118
29 12 29 12 0 143 0 143 338 357 c331 350 344 362 696 660 l358 303 -6 255 -7
255 85 649 86 650 51 77 c27 42 59 79 70 82 11 3 19 14 19 27 0 25 17 60 29
60 4 0 47 -45 95 -100 l88 -100 52 6 52 6 62 -85 62 -85 261 -87 c185 -62 264
-84 271 -77 8 8 1 34 -25 89 -19 43 -34 79 -33 81 2 1 40 -3 85 -9 61 -8 86
-8 94 0 16 16 6 23 -129 100 l-119 67 -51 104 c-36 73 -55 128 -64 178 -6 41
-10 75 -8 77 1 2 65 -49 140 -113 127 -109 156 -141 419 -465 155 -191 287
-346 293 -344 7 2 12 75 14 222 l2 219 -65 149 c-36 82 -64 152 -61 154 3 3
34 11 70 17 l64 13 38 -49 c20 -27 49 -55 63 -63 14 -7 145 -140 291 -295 216
-229 284 -309 373 -436 60 -85 114 -153 120 -151 14 4 24 105 26 253 0 56 4
128 7 162 l7 61 406 -204 406 -204 492 -473 c448 -430 526 -511 709 -734 34
-41 36 -48 183 -776 l150 -735 -50 -154 c-27 -85 -47 -159 -45 -165 2 -6 32
-21 65 -34 34 -12 61 -28 61 -34 0 -6 -15 -69 -33 -141 l-33 -129 -330 -83
-329 -83 -220 5 -220 6 -213 -40 c-177 -34 -219 -45 -243 -65 -98 -83 -259
-230 -259 -238 0 -21 40 -16 287 35 l260 54 27 -54 26 -53 726 0 727 0 184 96
185 96 23 52 c82 185 286 698 281 704 -4 4 -48 36 -98 72 l-91 65 -23 80 c-13
44 -24 81 -24 81 0 1 63 -18 141 -43 l141 -44 100 30 c106 31 129 44 112 61
-6 6 -71 28 -144 49 l-134 38 -28 69 c-16 38 -35 74 -42 79 -8 6 -64 28 -125
50 -66 23 -113 45 -116 54 -2 9 -54 224 -114 478 l-110 463 -15 385 c-9 212
-16 389 -16 394 0 5 -98 87 -218 183 -160 129 -853 739 -1069 942 -14 12 -455
1018 -444 1012 3 -2 179 -144 391 -315 212 -171 389 -309 395 -307 5 2 10 9 9
17 -1 8 -124 184 -273 392 -150 208 -271 380 -269 383 3 2 280 -73 617 -167
446 -124 616 -168 624 -160 8 8 7 15 -3 25 -8 8 -207 153 -441 323 -400 289
-431 314 -502 398 -41 50 -74 91 -72 93 1 2 226 -56 500 -128 374 -99 500
-129 509 -120 8 8 -4 25 -49 68 -33 32 -124 118 -203 193 l-143 135 -11 92
c-6 51 -9 95 -5 98 3 3 105 -11 226 -31 l221 -37 247 51 c136 29 252 56 257
61 18 18 -7 28 -174 70 -91 22 -173 44 -183 48 -12 5 163 69 545 199 l563 192
213 7 c200 6 238 12 215 35 -5 5 -148 37 -319 71 -170 33 -313 64 -317 68 -4
4 320 194 720 423 l728 417 485 110 c266 61 489 115 494 120 17 17 -4 28 -143
78 l-132 49 1098 276 1098 276 650 21 c357 11 654 25 658 29 5 5 7 14 3 19 -3
5 -94 32 -201 58 -107 27 -195 51 -195 54 0 3 192 28 428 55 297 34 485 51
616 55 222 6 235 13 124 65 -40 19 -66 34 -58 35 8 0 205 20 437 45 l422 45
437 -46 c418 -43 468 -45 450 -16 -3 5 -46 34 -96 63 -49 29 -88 55 -85 57 2
2 271 13 597 23 1602 51 2729 95 3818 149 l1195 60 359 -30 c381 -32 407 -31
356 13 -14 12 -39 32 -55 44 l-30 21 25 6 c14 2 491 34 1060 71 1098 70 2087
148 2105 166 16 16 -14 33 -102 54 -43 10 -71 20 -63 22 8 1 438 70 954 153
517 82 944 154 949 159 16 16 -3 31 -38 31 -19 0 -36 3 -38 8 -3 4 289 69 648
145 627 132 664 141 951 233 183 59 470 139 739 207 469 119 495 129 390 154
-27 6 -67 14 -88 18 l-38 6 223 158 223 158 89 162 c65 118 86 165 78 173 -12
12 -16 10 -151 -89 -69 -50 -69 -49 -8 38 34 50 42 79 19 79 -4 0 -91 -48
-194 -106z m-35620 -7125 l22 -37 -26 -31 c-38 -46 -48 -40 -40 23 5 50 16 91
20 84 2 -2 12 -19 24 -39z m117 -203 c32 -57 62 -86 261 -254 l225 -190 101
-143 c55 -79 106 -153 114 -164 8 -12 27 -88 44 -170 17 -82 35 -154 40 -159
6 -6 27 2 57 20 l48 30 0 112 c0 63 4 112 9 112 6 0 20 -10 33 -22 20 -19 21
-22 6 -33 -21 -16 -11 -31 26 -38 50 -10 46 -34 -10 -62 -28 -15 -49 -31 -46
-38 4 -14 45 -24 103 -26 36 -1 42 -5 57 -36 22 -45 22 -44 -9 -55 -35 -14
-25 -34 19 -38 37 -3 53 -22 19 -22 -10 0 -27 -7 -38 -15 -19 -13 -26 -11 -78
21 l-57 36 -74 -67 c-60 -53 -76 -73 -81 -103 -7 -40 -29 -82 -43 -82 -5 0
-12 13 -16 30 -5 21 1 46 21 90 33 75 24 94 -29 61 -39 -24 -39 -24 -57 32
-11 36 -10 44 21 113 24 57 29 78 21 86 -9 9 -22 3 -51 -26 l-40 -39 -7 28
c-5 19 0 45 16 82 17 40 20 57 11 66 -8 8 -20 2 -46 -23 -33 -32 -36 -33 -49
-15 -8 12 -12 33 -9 56 6 41 -9 58 -34 38 -13 -11 -19 -9 -37 14 -21 26 -22
33 -13 98 13 104 -9 117 -59 33 -11 -18 -12 -18 -32 6 -16 18 -21 39 -22 77 0
59 -15 76 -40 45 -17 -21 -17 -21 -49 23 -24 34 -30 50 -25 73 7 33 -9 50 -30
33 -11 -9 -21 -3 -46 29 -30 38 -32 44 -26 94 9 66 -7 83 -38 43 -21 -26 -22
-26 -34 -7 -6 11 -12 44 -12 74 0 59 -15 80 -36 52 -11 -16 -14 -15 -29 13
-12 25 -14 46 -9 94 6 60 11 77 19 77 2 0 20 -29 40 -64z m1140 -1232 c15 -6
52 -64 40 -64 -3 0 -29 16 -58 35 -47 31 -49 35 -25 35 14 0 34 -3 43 -6z
m179 -255 c-8 -13 -24 -1 -24 18 0 13 3 13 15 3 8 -7 12 -16 9 -21z"/>
</g>
</svg>
