<?xml version="1.0" standalone="no"?>
<!DOCTYPE svg PUBLIC "-//W3C//DTD SVG 20010904//EN"
 "http://www.w3.org/TR/2001/REC-SVG-20010904/DTD/svg10.dtd">
<svg version="1.0" xmlns="http://www.w3.org/2000/svg"
 width="1536.000000pt" height="762.000000pt" viewBox="0 0 1536.000000 762.000000"
 preserveAspectRatio="xMidYMid meet">
<metadata>
Created by potrace 1.16, written by Peter Selinger 2001-2019
</metadata>
<g transform="translate(0.000000,762.000000) scale(0.100000,-0.100000)"
fill="#000000" stroke="none">
<path d="M2601 7589 c-62 -16 -118 -32 -123 -35 -6 -4 -55 -10 -108 -14 -93
-6 -101 -9 -161 -48 -105 -67 -127 -74 -237 -67 -128 8 -145 -1 -190 -113 -40
-97 -62 -115 -126 -100 -23 5 -62 8 -88 5 -43 -4 -55 -11 -131 -83 -66 -62
-106 -90 -188 -131 -109 -54 -312 -120 -532 -172 -175 -42 -248 -81 -510 -274
-155 -114 -178 -154 -199 -336 -10 -90 -9 -126 6 -241 9 -74 23 -141 30 -150
7 -8 18 -40 25 -70 29 -134 103 -196 377 -315 l82 -35 252 0 c220 0 262 -3
331 -20 96 -25 237 -76 339 -123 133 -61 367 -147 740 -272 420 -141 488 -167
625 -238 83 -43 116 -68 200 -152 l102 -100 143 -285 c147 -294 250 -464 393
-650 113 -147 184 -225 267 -295 109 -91 149 -152 199 -296 59 -172 139 -333
197 -398 56 -63 86 -77 126 -60 34 14 36 36 4 49 -30 11 -41 31 -50 89 l-7 44
68 -71 c58 -61 73 -72 101 -72 40 0 68 14 82 41 10 17 7 21 -24 34 -29 13 -36
21 -36 44 0 32 -36 74 -90 101 -19 10 -54 35 -77 55 -35 30 -47 49 -64 106
-12 39 -19 72 -16 75 3 3 80 -24 172 -60 91 -37 242 -90 335 -119 l170 -52 0
-41 c0 -46 42 -156 85 -224 33 -52 137 -192 280 -375 144 -184 181 -243 210
-331 34 -104 33 -161 -5 -238 -31 -64 -54 -143 -70 -239 -12 -77 -74 -244
-113 -305 -43 -67 -203 -246 -292 -326 -44 -40 -81 -83 -93 -110 -12 -24 -36
-56 -55 -70 -77 -59 -242 -116 -334 -116 -91 0 -249 -55 -330 -116 -66 -49
-137 -226 -97 -241 6 -2 28 10 49 27 60 48 81 49 119 6 27 -29 41 -36 70 -36
30 0 37 -4 42 -25 8 -32 13 -31 59 5 43 34 78 38 130 13 32 -15 45 -16 138 -4
56 7 144 17 196 22 l95 9 27 -33 27 -32 39 38 c38 36 40 37 116 37 76 0 148 8
305 36 100 17 204 62 227 97 11 18 20 72 30 184 13 152 39 293 55 293 4 0 10
-14 14 -30 6 -30 21 -48 90 -103 l34 -27 21 26 c26 33 27 89 5 205 -26 135
-16 205 47 319 56 104 116 197 160 248 38 43 44 69 44 182 -1 83 -4 103 -29
155 -56 120 -106 248 -117 304 -8 42 -8 91 0 185 6 70 11 179 11 243 l0 116
43 -7 c157 -23 272 -28 497 -22 135 3 272 10 305 15 46 7 114 35 270 113 116
57 226 113 247 126 l36 22 115 -108 c189 -180 315 -252 568 -327 235 -69 307
-119 382 -263 25 -49 37 -86 42 -137 4 -38 12 -98 20 -132 21 -103 -19 -371
-91 -612 -55 -179 -101 -255 -210 -342 -60 -48 -100 -99 -88 -112 3 -3 22 -3
41 0 l36 6 -30 -44 c-54 -78 -66 -109 -60 -155 5 -50 -2 -59 -105 -124 -90
-56 -142 -116 -168 -196 -27 -79 -21 -107 22 -124 18 -7 43 -22 55 -33 19 -17
27 -18 45 -9 13 6 64 12 113 14 73 2 96 7 119 24 l29 21 42 -29 c59 -41 208
-61 335 -44 76 11 94 17 125 44 19 18 42 32 50 32 9 0 34 -13 57 -30 38 -28
47 -30 131 -30 69 0 92 -4 101 -15 10 -14 15 -13 44 8 20 15 53 27 88 31 106
12 140 51 137 157 -1 69 -9 84 -89 176 -35 40 -64 80 -64 90 0 9 5 44 11 78 9
51 7 88 -10 207 -29 206 -35 383 -22 608 17 267 24 316 60 410 26 66 32 98 33
159 0 132 -21 184 -138 331 -38 48 -88 128 -115 185 -60 124 -75 206 -84 465
-4 142 -11 201 -26 253 -11 37 -17 72 -13 78 17 28 335 163 724 309 297 111
382 146 525 215 61 30 153 72 205 94 52 22 151 65 220 96 190 86 422 182 545
225 61 21 180 64 265 95 505 184 750 248 1110 290 587 68 1023 71 1445 9 210
-31 672 -145 890 -220 88 -30 195 -67 238 -82 71 -24 78 -25 93 -10 27 26 10
60 -64 129 -76 72 -268 190 -437 270 -419 198 -1242 389 -1957 455 -238 22
-786 24 -1158 4 -151 -8 -430 -15 -620 -15 -425 0 -558 13 -1173 111 -207 33
-602 156 -946 296 -181 73 -257 113 -431 227 -160 105 -311 187 -391 214 -25
9 -95 23 -155 32 -60 8 -199 33 -309 55 -640 126 -1334 188 -1955 176 -209 -4
-318 -10 -375 -21 -54 -11 -164 -18 -336 -22 -300 -6 -316 -3 -474 84 -233
129 -390 299 -630 683 -100 160 -185 253 -323 355 -208 154 -379 225 -647 270
-185 32 -224 31 -364 -6z"/>
</g>
</svg>
