<?xml version="1.0" encoding="utf-8"?>
<svg xmlns="http://www.w3.org/2000/svg" viewBox="145.2364 414.3444 45.5949 40.1988" width="45.5949px" height="40.1988px">
  <g transform="matrix(0.939625084400177, 0, 0, -0.939625084400177, 80.94567991712209, 557.850434032834)" id="g225">
    <g id="g655" transform="matrix(0.85145778,0,0,0.85145778,7.7600033,-6.3684276)">
      <g transform="matrix(0.36511655,0,0,0.36511655,187.8365,128.82666)" id="g1145">
        <g id="g1339" transform="matrix(0.2796196,0,0,0.2796196,-346.62282,14.489686)">
          <path d="m 222.47,200.63 c -3.33,-21.08 -6.66,-42.16 -7.78,-58.06 -1.12,-15.9 3.37,-29.46 1.04,-37.33 -2.34,-7.86 -7.95,-5.959 -15.04,-9.847 -7.08,-3.888 -22.46,-10.195 -27.47,-13.478 -5.01,-3.283 -1.73,-4.579 -2.59,-6.221 -0.87,-1.642 -2.25,-2.16 -2.6,-3.629 -0.34,-1.469 0.52,-5.184 0.52,-5.184 v 0 c -0.52,1.123 -2.59,4.493 -3.11,6.739 -0.52,2.247 1.47,6.653 0,6.74 -1.47,0.086 -5.96,-3.716 -8.81,-6.221 -2.85,-2.506 -6.74,-6.653 -8.3,-8.813 -1.55,-2.16 1.04,-2.246 -1.03,-4.147 -2.08,-1.901 -9.51,-5.184 -11.41,-7.258 -1.9,-2.073 1.21,-3.715 0,-5.184 -1.21,-1.469 -5.7,-2.073 -7.26,-3.629 -1.55,-1.555 -2.07,-5.702 -2.07,-5.702 v 0 c -0.34,0.95 -1.64,4.147 -2.07,5.702 -0.43,1.556 0.34,3.716 -0.52,3.629 -0.86,-0.086 -2.51,-2.937 -4.67,-4.147 -2.16,-1.21 -5.7,-1.123 -8.29,-3.11 -2.59,-1.988 -7.26,-8.813 -7.26,-8.813 v 0 c 1.04,2.333 3.8,10.454 6.22,13.997 2.42,3.542 5.79,5.788 8.3,7.257 2.5,1.469 3.63,0.432 6.74,1.555 3.11,1.124 8.46,2.938 11.92,5.184 3.46,2.247 8.81,8.295 8.81,8.295 v 0 c -0.95,-0.173 -4.15,0.259 -5.7,-1.037 -1.56,-1.296 -3.63,-6.739 -3.63,-6.739 v 0 c 0.43,1.987 0.35,9.158 2.59,11.923 2.25,2.765 7.87,2.592 10.89,4.666 3.02,2.073 1.55,5.097 7.26,7.776 5.7,2.678 19.09,4.406 26.95,8.294 7.87,3.888 17.72,3.974 20.22,15.032 2.51,11.06 -3.71,33.44 -5.18,51.32 -1.47,17.89 -2.55,36.94 -3.63,55.99" style="fill-opacity: 1; fill-rule: evenodd; stroke: none;" id="path1157"/>
          <path d="m 154.55,82.952 c 9.98,5.486 19.96,10.972 29.04,15.552 9.07,4.576 21.16,11.406 25.4,11.926 4.23,0.52 4.84,-5.53 0,-8.82 -4.84,-3.279 -16.94,-7.081 -29.03,-10.882" style="fill-opacity: 1; fill-rule: evenodd; stroke: none;" id="path1159"/>
          <path d="m 153.52,218.77 c 9.42,-6 18.83,-12.01 25.92,-20.22 7.08,-8.2 12.27,-21.25 16.59,-29.03 4.32,-7.77 7.69,-27.56 9.33,-17.62 1.64,9.93 1.08,43.59 0.52,77.24" style="fill-opacity: 1; fill-rule: evenodd; stroke: none;" id="path1161"/>
          <path d="m 142.66,60.619 c 0.74,-0.869 7.69,2.482 10.42,4.469 2.73,1.986 3.11,3.475 5.96,7.448 2.86,3.972 12.91,16.758 11.17,16.386 -1.73,-0.372 -16.75,-13.903 -21.6,-18.621 -4.84,-4.717 -6.7,-8.813 -5.95,-9.682 z" style="fill-opacity: 1; fill-rule: evenodd; stroke: none;" id="path1163"/>
          <path d="m 160.59,79.702 c 1.61,-0.124 -0.62,-9.186 -2.98,-13.407 -2.36,-4.22 -7.45,-9.062 -11.17,-11.917 -3.73,-2.855 -7.45,-3.6 -11.18,-5.214 -3.72,-1.613 -10.17,-4.841 -11.17,-4.469 -0.99,0.373 1.24,2.98 5.22,6.704 3.97,3.724 13.28,10.8 18.62,15.641 5.33,4.842 11.04,12.786 12.66,12.662 z" style="fill-opacity: 1; fill-rule: evenodd; stroke: none;" id="path1165"/>
          <path d="m 145.63,59.874 c 7.14,7.262 14.28,14.524 18.63,18.621 4.34,4.096 8.56,5.462 7.44,5.958 -1.11,0.497 -10.55,0 -14.15,-2.979 -3.6,-2.979 -5.52,-8.938 -7.45,-14.897" style="fill-opacity: 1; fill-rule: evenodd; stroke: none;" id="path1167"/>
          <path d="m 154.46,512.07 c 6.45,-2.38 16.78,-8.01 21.56,-19.84 4.78,-11.82 11.75,-29.93 7.12,-51.11 -4.63,-21.18 -30.9,-55.87 -34.89,-75.96 -4,-20.1 2.66,-34.93 10.94,-44.61 8.27,-9.67 22.16,-8.97 38.71,-13.46 16.55,-4.49 41.09,-8 60.59,-13.47 19.5,-5.47 34.08,-8.97 56.39,-19.35 22.3,-10.38 53.79,-33.84 77.42,-42.92 27.19967,-7.66213 42.12981,-6.95072 68.92101,-8.15425 30.86,0.42 89.35899,8.32425 116.21899,10.67425 26.87,2.36 27.35,1.13 40.4,0 13.04,-1.12 36,-4.21 37.87,-6.73 1.86,-2.52 -19.06,-8.89 -26.69,-8.39 -17.53,-3.5 -47.81,-10.24 -78.51,-12.65 -30.7,-2.4 -76.08,-3.74 -105.68,-1.78 -29.59,1.97 -54.01,10.18 -71.89,13.56 -17.87,3.39 -25.95,9.12 -35.34,6.74 -9.4,-2.39 -21.04,-21.04 -21.04,-21.04 -7.15,-7.16 -11.92,-17.96 -21.88,-21.88 -9.96,-3.93 -17.53,-5.47 -37.87,-1.69 -20.34,3.79 -62.42,11.65 -84.16,24.41 -21.74,12.76 -37.17,37.31 -46.28,52.18 -9.12,14.86 -7.44,22.44 -8.42,37.02 -0.98,14.59 -1.12,34.09 2.53,50.5 3.64,16.41 11.64,32.68 19.35,47.97 7.72,15.28 23.42,30.15 26.93,43.76 3.51,13.6 -4.29,30.81 -5.89,37.87 -1.6,7.05 2.15,8.04 -3.72,4.47 -5.88,-3.57 -22.05,-19.26 -31.53,-25.9 -9.48,-6.63 -21.12,-11.6 -25.34,-13.92 v 0 c -0.423,1.12 -2.387,5.05 -2.527,6.73 -0.14,1.69 -0.625,0.71 1.683,3.37 2.304,2.67 7.684,5.89 12.164,12.62 4.49,6.74 10.98,20.2 14.77,27.78 3.78,7.57 6.25,13.8 10.94,17.67 4.68,3.87 10.69,7.92 17.15,5.53 z" style="fill-opacity: 1; fill-rule: evenodd; stroke: none;" id="path1169"/>
          <path d="m 247.87,202.18 c 0.6,-9.46 1.21,-18.92 8.29,-33.69 7.09,-14.78 27.74,-42.17 34.22,-54.95 6.48,-12.79 3.71,-12.1 4.66,-21.776 0.95,-9.676 0.87,-28.166 1.04,-36.288 0.17,-8.121 -0.52,-9.763 0,-12.441 0.52,-2.679 3.11,-3.629 3.11,-3.629 v 0 c -0.95,0 -3.54,1.382 -5.7,0 -2.16,-1.382 -2.42,-6.134 -7.26,-8.294 -4.84,-2.16 -16.33,-3.888 -21.77,-4.666 -5.45,-0.778 -7.18,0.346 -10.89,0 -3.72,-0.346 -11.41,-2.074 -11.41,-2.074 v 0 c 0.44,0.519 1.65,2.333 2.6,3.111 0.95,0.777 3.71,0.95 3.11,1.555 -0.61,0.605 -4.41,1.642 -6.74,2.074 -2.34,0.432 -4.84,0.691 -7.26,0.518 -2.42,-0.173 -5.7,-0.691 -7.26,-1.555 -1.55,-0.864 -2.07,-3.629 -2.07,-3.629 v 0 c 0.78,1.555 1.81,7.344 4.66,9.331 2.86,1.987 9.94,2.765 12.45,2.592 2.5,-0.173 0.26,-2.592 2.59,-3.629 2.33,-1.036 5.79,-3.11 11.4,-2.592 5.62,0.519 19.36,4.579 22.29,5.703 2.94,1.123 -3.62,0.173 -4.66,1.037 -1.04,0.864 -0.61,2.678 -1.56,4.147 -0.95,1.468 -2.93,3.715 -4.14,4.665 -1.21,0.951 -1.56,0.778 -3.11,1.037 -1.56,0.259 -6.23,0.519 -6.23,0.519 v 0 c 1.39,0.691 5.28,4.06 8.3,4.147 3.02,0.086 6.91,-1.987 9.85,-3.629 2.94,-1.642 6.13,-7.258 7.77,-6.221 1.65,1.037 1.99,4.666 2.08,12.442 0.08,7.776 -0.17,25.401 -1.56,34.214 -1.38,8.813 -4.06,13.741 -6.74,18.661" style="fill-opacity: 1; fill-rule: evenodd; stroke: none;" id="path1171"/>
          <path d="m 243.72,204.26 c 2.55,-10.85 5.1,-21.69 11.4,-34.74 6.31,-13.04 21.35,-31.96 26.44,-43.54 5.1,-11.58 6.14,-25.66 4.15,-25.92 -1.99,-0.26 -7.52,11.92 -16.07,24.36 -8.55,12.45 -35.25,50.29 -35.25,50.29 l -22.29,32.14" style="fill-opacity: 1; fill-rule: evenodd; stroke: none;" id="path1173"/>
          <path d="m 250.46,200.11 c 8.16,-28.12 16.33,-56.25 15.03,-59.62 -1.29,-3.37 -18.31,27.74 -22.81,39.4 -4.49,11.67 -4.32,21.13 -4.14,30.59" style="fill-opacity: 1; fill-rule: evenodd; stroke: none;" id="path1175"/>
          <path d="m 234.39,36.296 c 6.48,-3.802 12.96,-7.604 20.73,-7.776 7.78,-0.173 24.8,5.615 25.92,6.739 1.13,1.123 -9.02,0.561 -19.18,0" style="fill-opacity: 1; fill-rule: evenodd; stroke: none;" id="path1177"/>
          <path d="m 240.09,38.369 c 4.28,-0.864 8.55,-1.728 11.41,-2.592 2.85,-0.864 8.12,-2.246 5.7,-2.592 -2.42,-0.345 -11.32,0.086 -20.22,0.518" style="fill-opacity: 1; fill-rule: evenodd; stroke: none;" id="path1179"/>
          <path d="m 139.26,250.39 c 4.88,-7.6 9.77,-15.2 11.93,-20.73 2.16,-5.53 -0.18,-9.25 1.03,-12.44 1.21,-3.2 6.22,-6.74 6.22,-6.74 v 0 c -0.17,1.29 -2.93,4.75 -1.03,7.77 1.9,3.03 7.17,6.7 12.44,10.37" style="fill-opacity: 1; fill-rule: evenodd; stroke: none;" id="path1181"/>
          <path d="m 131.48,465.8 c 7.51,3.23 15.02,6.46 21.6,5.96 6.58,-0.49 16.51,-11.91 17.88,-8.93 1.36,2.97 -4.72,23.21 -9.68,26.81 -4.97,3.6 -12.54,-0.81 -20.11,-5.21" style="fill-opacity: 1; fill-rule: evenodd; stroke: none;" id="path1183"/>
          <path d="m 283.16,187.72 c 6.83,22.6 13.65,45.19 33.52,49.91 19.86,4.72 78.58,-19.12 85.65,-21.6 7.08,-2.48 -36.37,6.95 -43.2,6.7 -6.83,-0.25 4.1,-7.32 2.24,-8.19 -1.87,-0.87 -12.05,3.1 -13.41,2.98 -1.37,-0.13 8.07,-3.35 5.21,-3.73 -2.85,-0.37 -19.36,1.99 -22.34,1.49 -2.98,-0.49 5.83,-2.73 4.47,-4.47 -1.37,-1.73 -11.67,-4.71 -12.67,-5.95 -0.99,-1.25 8.57,-0.5 6.71,-1.49 -1.86,-1 -15.77,-2.86 -17.88,-4.47 -2.11,-1.62 6.09,-4.35 5.22,-5.22 -0.87,-0.87 -8.69,1.24 -10.43,0 -1.74,-1.24 2.11,-5.96 0,-7.44 -2.11,-1.49 -11.42,-0.63 -12.66,-1.49 -1.24,-0.87 6.08,-2.61 5.21,-3.73 -0.87,-1.12 -8.69,-1.86 -10.43,-2.98 -1.74,-1.12 2.24,-3.35 0,-3.72 -2.23,-0.37 -11.67,2.11 -13.4,1.49 -1.74,-0.62 4.71,-4.72 2.98,-5.22 -1.74,-0.49 -11.55,2.98 -13.41,2.24 -1.86,-0.75 3.97,-6.58 2.23,-6.71 -1.74,-0.12 -10.42,5.47 -12.66,5.96 -2.23,0.5 2.98,-4.59 -0.74,-2.98 -3.73,1.62 -17.26,11.18 -21.6,12.67 -4.35,1.49 -1.99,-3.6 -4.47,-3.73 -2.49,-0.12 -9.07,3.73 -10.43,2.98 -1.37,-0.74 5.83,-10.43 2.23,-7.45 -3.6,2.98 -13.71,14.15 -23.83,25.33" style="fill-opacity: 1; fill-rule: evenodd; stroke: none;" id="path1185"/>
          <path d="m 135.65,505.05 16.87,11.47 2.03,-5.4 8.1,2.03 -2.03,-3.38 9.45,-7.42 -7.42,1.35 4.72,-3.38 11.48,-5.4 -6.75,-0.67 8.1,-11.48 v 0 l 6.07,-16.87 -3.37,4.72 4.05,-22.27" style="fill-opacity: 1; fill-rule: evenodd; stroke: none;" id="path1187"/>
          <path d="m 149.15,513.82 c 4.05,0.57 8.1,1.13 8.77,0 0.68,-1.12 -6.3,-5.28 -4.72,-6.75 1.57,-1.46 12.49,-1.68 14.17,-2.02 1.69,-0.34 -5.17,0.79 -4.05,0 1.13,-0.79 11.03,-4.05 10.8,-4.73 -0.22,-0.67 -13.5,2.59 -12.15,0.68 1.35,-1.91 18.23,-10.46 20.25,-12.15 2.03,-1.69 -8.77,3.94 -8.1,2.02 0.68,-1.91 11.93,-12.93 12.15,-13.5 0.23,-0.56 -10.8,10.8 -10.8,10.13 0,-0.68 10.13,-12.04 10.8,-14.18 0.68,-2.13 -6.86,3.49 -6.75,1.35 0.12,-2.13 6.98,-11.7 7.43,-14.17 0.45,-2.48 -4.16,-0.34 -4.73,-0.68 -0.56,-0.33 0.4,-0.84 1.35,-1.35" style="fill-opacity: 1; fill-rule: evenodd; stroke: none;" id="path1189"/>
          <path d="m 159.95,318.07 c 7.14,-3.26 14.29,-6.52 22.95,-8.1 8.66,-1.57 24.41,-0.67 29.02,-1.35 4.62,-0.67 -6.75,-1.12 -1.35,-2.7 5.4,-1.57 29.14,-5.51 33.75,-6.75 4.62,-1.23 -10.23,-0.11 -6.07,-0.67 4.16,-0.56 27,-2.14 31.05,-2.7 4.05,-0.56 -9.9,0.56 -6.75,-0.68 3.15,-1.23 23.06,-5.62 25.65,-6.75 2.59,-1.12 -11.93,0.9 -10.13,0 1.8,-0.9 18.45,-4.61 20.93,-5.4 2.47,-0.78 -9.45,1.92 -6.08,0.68 3.38,-1.24 23.63,-6.75 26.33,-8.1 2.7,-1.35 -12.71,1.01 -10.13,0 2.59,-1.01 23.63,-4.84 25.65,-6.08 2.03,-1.23 -15.75,2.59 -13.5,-1.35 2.25,-3.93 14.63,-13.1 27,-22.27" style="fill-opacity: 1; fill-rule: evenodd; stroke: none;" id="path1191"/>
          <path d="m 119.45,320.1 c -2.03,-11.31 -4.05,-22.61 -3.38,-27 0.68,-4.39 7.32,3.04 7.43,0.67 0.11,-2.36 -6.75,-13.16 -6.75,-14.85 0,-1.68 6.07,7.32 6.75,4.73 0.67,-2.59 -2.81,-18.45 -2.7,-20.25 0.11,-1.8 1.8,11.92 3.37,9.45 1.58,-2.48 4.39,-21.49 6.08,-24.3 1.69,-2.81 2.81,9.9 4.05,7.42 1.24,-2.47 2.14,-19.01 3.37,-22.27 1.24,-3.26 2.93,3.94 4.05,2.7 1.13,-1.24 2.14,-9 2.7,-10.13 0.57,-1.12 -0.11,4.39 0.68,3.38 0.79,-1.01 2.59,-8.66 4.05,-9.45 1.46,-0.79 3.04,5.74 4.72,4.72 1.69,-1.01 3.49,-9.78 5.4,-10.8 1.92,-1.01 4,1.86 6.08,4.73" style="fill-opacity: 1; fill-rule: evenodd; stroke: none;" id="path1193"/>
          <path d="m 297.74,193.35 c 6.46,22.15 12.92,44.29 31.71,48.92 18.8,4.62 74.36,-18.74 81.05,-21.18 6.7,-2.43 -34.41,6.82 -40.87,6.57 -6.46,-0.24 3.87,-7.18 2.11,-8.03 -1.76,-0.85 -11.39,3.05 -12.68,2.92 -1.3,-0.12 7.63,-3.28 4.93,-3.65 -2.7,-0.36 -18.33,1.95 -21.14,1.46 -2.82,-0.48 5.52,-2.67 4.22,-4.38 -1.29,-1.7 -11.04,-4.62 -11.98,-5.84 -0.94,-1.22 8.11,-0.49 6.35,-1.46 -1.77,-0.97 -14.92,-2.8 -16.92,-4.38 -2,-1.58 5.76,-4.26 4.93,-5.11 -0.82,-0.85 -8.22,1.22 -9.86,0 -1.65,-1.22 1.99,-5.84 0,-7.3 -2,-1.46 -10.81,-0.61 -11.98,-1.46 -1.18,-0.85 5.75,-2.56 4.93,-3.65 -0.82,-1.1 -8.22,-1.83 -9.87,-2.92 -1.64,-1.1 2.12,-3.29 0,-3.65 -2.11,-0.37 -11.04,2.07 -12.68,1.46 -1.65,-0.61 4.46,-4.63 2.82,-5.11 -1.65,-0.49 -10.93,2.92 -12.69,2.19 -1.76,-0.73 3.76,-6.45 2.11,-6.57 -1.64,-0.13 -9.86,5.35 -11.98,5.84 -2.11,0.48 2.82,-4.51 -0.7,-2.92 -3.53,1.58 -16.33,10.95 -20.44,12.41 -4.11,1.46 -1.88,-3.53 -4.23,-3.65 -2.35,-0.12 -8.57,3.65 -9.87,2.92 -1.29,-0.73 5.52,-10.22 2.12,-7.3 -3.41,2.92 -12.98,13.87 -22.55,24.82" style="fill-opacity: 1; fill-rule: evenodd; stroke: none;" id="path1195"/>
          <path d="m 173.84,207.52 c 7.31,-8.51 14.61,-17.02 17.53,-19.06 2.93,-2.03 -1.39,7.75 0,6.86 1.4,-0.89 6.74,-11.3 8.39,-12.19 1.65,-0.89 -0.89,7.87 1.53,6.86 2.41,-1.02 11.43,-13.09 12.96,-12.96 1.52,0.12 -2.67,8.76 -3.82,13.72 -1.14,4.96 -2.41,13.09 -3.05,16.01" style="fill-opacity: 1; fill-rule: evenodd; stroke: none;" id="path1197"/>
          <path d="m 157.07,218.96 c 5.65,-7.18 11.31,-14.36 14.48,-14.49 3.18,-0.12 3.05,15.38 4.58,13.72 1.52,-1.65 3.68,-23.5 4.57,-23.63 0.89,-0.13 0.83,11.37 0.76,22.87" style="fill-opacity: 1; fill-rule: evenodd; stroke: none;" id="path1199"/>
          <path d="m 117.43,321.87 c -1.59,-8.32 -3.18,-16.64 -3.05,-17.53 0.12,-0.89 3.68,14.36 3.81,12.2 0.13,-2.16 -3.3,-22.24 -3.05,-25.16 0.25,-2.92 4.32,9.78 4.57,7.62 0.26,-2.16 -3.55,-19.18 -3.05,-20.58 0.51,-1.4 3.31,5.4 6.1,12.2" style="fill-opacity: 1; fill-rule: evenodd; stroke: none;" id="path1201"/>
        </g>
      </g>
    </g>
  </g>
</svg>